<svg xmlns="http://www.w3.org/2000/svg" width="40" height="40" viewBox="0 0 40 40">
  <g id="Adjustment_Fractions" data-name="Adjustment Fractions" transform="translate(-4702 -6733)">
    <rect id="Rectangle_18479" data-name="Rectangle 18479" width="40" height="40" transform="translate(4702 6733)" fill="none"/>
    <g id="Group_17351" data-name="Group 17351" transform="translate(3846.413 6595)">
      <path id="Path_61712" data-name="Path 61712" d="M889.446,144.945a6.24,6.24,0,0,0-3.382,1.79c-.3-.149-.547-.249-.846-.4.3-.249.6-.547.945-.846a6.34,6.34,0,0,1,2.885-1.442c.149,0,.249-.05.4-.05a.877.877,0,0,1,.9,1.094,4.2,4.2,0,0,1-1.194,2.089,7.866,7.866,0,0,1-2.636,1.989.273.273,0,0,0-.2.3c0,2.188-.05,4.377-.05,6.565a1.836,1.836,0,0,1-.547,1.393c-3.034,3.233-6.118,6.416-9.151,9.649-1.592,1.691-3.183,3.382-4.824,5.023a1.812,1.812,0,0,1-2.785.05c-2.238-2.139-4.427-4.277-6.665-6.466a2.077,2.077,0,0,1-.647-1.044,1.742,1.742,0,0,1,.448-1.691l3.432-3.581c3.531-3.68,7.063-7.411,10.544-11.091a2.51,2.51,0,0,1,1.592-.746c1.592-.1,3.183-.149,4.725-.249a8.035,8.035,0,0,0,1.542-.1,1.945,1.945,0,0,1,2.188,1.144A6.173,6.173,0,0,0,889.446,144.945Zm-12.981,16.214a1.041,1.041,0,0,0-.3-.2c-1.542-.7-3.084-1.442-4.625-2.139a.561.561,0,0,0-.4.05,6.752,6.752,0,0,0-.6.6.319.319,0,0,0-.05.448l.746,1.492c.5.995.995,1.989,1.542,2.984.149.3.249.3.5.1.1-.1.149-.2.249-.249a.384.384,0,0,0,.05-.547c-.149-.2-.249-.448-.4-.7a.24.24,0,0,1,.05-.348l.8-.8c.448-.5.448-.5,1.094-.2.6.3.6.3,1.044-.2C876.266,161.457,876.365,161.308,876.465,161.159Zm.846-7.361c.348-.4.746-.8,1.144-1.194.2-.2.2-.348,0-.5l-.149-.149a.28.28,0,0,0-.448,0c-.547.6-1.094,1.144-1.641,1.741-.3.3-.3.4,0,.7,1.044,1.044,2.139,2.089,3.233,3.084.3.249.4.249.647,0,.547-.6,1.094-1.144,1.641-1.741.249-.249.2-.3-.05-.6-.3-.249-.3-.249-.547,0-.4.4-.846.746-1.293,1.144-.249-.3-.6-.647-.995-1.094.3-.3.7-.6,1.044-.9a1.984,1.984,0,0,0,.149-.2,4.477,4.477,0,0,0-.448-.5c-.05-.05-.249.05-.3.149-.348.3-.7.647-1.094.995C877.907,154.395,877.609,154.1,877.31,153.8Zm-5.222,11.389a1.54,1.54,0,0,0-1.989-1.542c-.3.1-.6.249-.945.348a2.468,2.468,0,0,1-.647.149c-.348,0-.647-.4-.448-.7a1.721,1.721,0,0,1,.5-.547,2.236,2.236,0,0,1,.6-.3c.05-.05.149-.149.149-.2a.834.834,0,0,0-.9-.5,2.377,2.377,0,0,0-1.343,1.343,1.375,1.375,0,0,0,.3,1.592,1.469,1.469,0,0,0,1.641.4c.4-.1.746-.3,1.094-.4a.645.645,0,0,1,.846.4.891.891,0,0,1-.2.7,2.461,2.461,0,0,1-1.144.7c-.1.05-.249.149-.249.2,0,.249.547.6.746.547A2.577,2.577,0,0,0,872.088,165.187Zm5.073-6.167c-.845-.846-1.79-1.691-2.686-2.586-.5-.5-.547-.5-.995.05,0,.05-.05.05-.05.1-.149.149-.1.249.05.4,1.144,1.094,2.238,2.139,3.332,3.233.249.249.4.249.647,0,.5-.5.945-.995,1.442-1.492.3-.3.3-.348,0-.647l-.1-.1a.28.28,0,0,0-.448,0C877.907,158.324,877.559,158.672,877.161,159.02Zm7.809-10.2a.927.927,0,0,0-1.194-.348.962.962,0,0,0-.5,1.194.979.979,0,0,0,1.044.7.859.859,0,0,0,.8-.647c-.348-.05-.7-.05-.995-.1a.307.307,0,0,1-.249-.4C884.224,149.123,884.572,148.974,884.97,148.824Z" fill="#704332"/>
      <path id="Path_61713" data-name="Path 61713" d="M882.744,178.139c-.348-.647-.647-1.293-1.044-2.039.746.348,1.442.7,2.188,1.044A10.213,10.213,0,0,1,882.744,178.139Z" transform="translate(-10.109 -16.135)" fill="#704332"/>
    </g>
  </g>
</svg>
