<svg xmlns="http://www.w3.org/2000/svg" width="40" height="40" viewBox="0 0 40 40">
  <g id="Application" transform="translate(-90 -922)">
    <rect id="Rectangle_18479" data-name="Rectangle 18479" width="40" height="40" transform="translate(90 922)" fill="none"/>
    <g id="Application-2" data-name="Application" transform="translate(46.459 905.417)">
      <path id="Path_61467" data-name="Path 61467" d="M55.051,41.369a2.49,2.49,0,0,1-.11.439,2.813,2.813,0,0,1-2.525,2.122,2.777,2.777,0,0,1-2.708-1.647,1.651,1.651,0,0,1,.11-1.647c1.427-2.232,2.817-4.464,4.245-6.7.11-.183.256-.146.4-.146H72.358a.468.468,0,0,1,.476.256c1.354,2.159,2.708,4.281,4.062,6.4a1.947,1.947,0,0,1-.22,2.561,2.662,2.662,0,0,1-2.817.842A2.576,2.576,0,0,1,71.883,41.7a1.646,1.646,0,0,0-.073-.293,2.892,2.892,0,0,1-.951,1.9,2.656,2.656,0,0,1-1.976.659,2.786,2.786,0,0,1-2.6-2.561,2.845,2.845,0,0,1-2.964,2.561,2.5,2.5,0,0,1-1.756-.768,3.115,3.115,0,0,1-.878-1.72,2.8,2.8,0,0,1-.951,1.793,2.617,2.617,0,0,1-1.9.7A2.806,2.806,0,0,1,55.051,41.369Zm6.037-5.708c-.073,0-.11-.037-.146-.037h-3.4a.412.412,0,0,0-.293.183c-.7,1.39-1.427,2.781-2.122,4.208-.037.073-.037.146-.073.22h5.6C60.8,38.735,60.942,37.2,61.088,35.661Zm10.684,4.61c-.037-.073-.037-.11-.073-.183-.732-1.427-1.427-2.854-2.159-4.281-.073-.183-.183-.183-.329-.183H65.7c.146,1.573.329,3.074.476,4.61C68.077,40.271,69.907,40.271,71.773,40.271Z" transform="translate(0 -6.399)" fill="#704332"/>
      <path id="Path_61468" data-name="Path 61468" d="M52.888,71.962V62.925a3.8,3.8,0,0,0,2.744-.4v9.44h5.562V62.815a.417.417,0,0,1,.22-.439,5.936,5.936,0,0,0,.7-.476,4.42,4.42,0,0,0,1.72.951c.073,0,.11.183.11.293V68.23H74.11V62.485a4.1,4.1,0,0,0,2.781.4v9a.113.113,0,0,0,.073.037c.732.037.878.183.842.915a1.611,1.611,0,0,1-.073.585c-.11.293-.4.329-.7.329h-24.3c-.622,0-.842-.183-.842-.842v-.256c0-.512.22-.732.732-.732A.339.339,0,0,0,52.888,71.962Z" transform="translate(-1.496 -24.222)" fill="#704332"/>
      <path id="Path_61469" data-name="Path 61469" d="M62.172,26.444c0-.476-.037-.951,0-1.427A1.46,1.46,0,0,1,63.709,23.7H78.967a1.513,1.513,0,0,1,1.683,1.647v1.061C74.466,26.444,68.356,26.444,62.172,26.444Z" transform="translate(-7.999 0)" fill="#704332"/>
      <path id="Path_61470" data-name="Path 61470" d="M66.53,75.215a.915.915,0,1,1-.915-.915A.929.929,0,0,1,66.53,75.215Z" transform="translate(-9.612 -32.085)" fill="#704332"/>
    </g>
  </g>
</svg>
