<svg xmlns="http://www.w3.org/2000/svg" width="93.477" height="70" viewBox="0 0 93.477 70">
  <g id="Group_18791" data-name="Group 18791" transform="translate(-1647.8 -900)">
    <path id="Path_62445" data-name="Path 62445" d="M138.071,196.78H97.347c-2.993,0-5.029-1.327-5.762-3.764a6.923,6.923,0,0,1-.244-2.041q-.031-29.185,0-58.35c0-3.705,2.179-5.825,6.007-5.825q39.4,0,78.8.02a37.952,37.952,0,0,1,3.971.1,5.1,5.1,0,0,1,4.622,4.537c.041.416.061.852.061,1.288V190.9c0,2.952-1.3,4.914-3.808,5.627a8.952,8.952,0,0,1-2.4.277Q158.311,196.77,138.071,196.78Zm0-3.507H178.8c1.833,0,2.443-.594,2.443-2.378V132.645c0-1.783-.611-2.378-2.443-2.378H97.449c-1.975,0-2.545.555-2.545,2.477V190.8c0,1.922.57,2.477,2.545,2.477Z" transform="translate(1556.475 773.2)"/>
    <g id="Group_18790" data-name="Group 18790" transform="translate(1657.873 909)">
      <path id="Path_62446" data-name="Path 62446" d="M140.8,174.1h4.724v52.616H140.8Z" transform="translate(-140.8 -174.08)"/>
      <path id="Path_62447" data-name="Path 62447" d="M485.391,226.757H481.4V174.1h3.991Z" transform="translate(-412.046 -174.08)"/>
      <path id="Path_62448" data-name="Path 62448" d="M458.424,218.51H453.7V174.1h4.724Z" transform="translate(-389.987 -174.08)"/>
      <path id="Path_62449" data-name="Path 62449" d="M380.161,218.51H375.6V174.1h4.561Z" transform="translate(-327.79 -174.08)"/>
      <path id="Path_62450" data-name="Path 62450" d="M325.1,174.1h3.95v44.389H325.1Z" transform="translate(-287.573 -174.08)"/>
      <path id="Path_62451" data-name="Path 62451" d="M170.6,174.1h3.217v44.389H170.6Z" transform="translate(-164.532 -174.08)"/>
      <path id="Path_62452" data-name="Path 62452" d="M407.958,218.51H404.7V174.1h3.258Z" transform="translate(-350.964 -174.08)"/>
      <path id="Path_62453" data-name="Path 62453" d="M434.6,218.61h-3.1V174.2h3.1Z" transform="translate(-372.307 -174.159)"/>
      <path id="Path_62454" data-name="Path 62454" d="M223.1,174h3.054v44.41H223.1Z" transform="translate(-206.342 -174)"/>
      <path id="Path_62455" data-name="Path 62455" d="M303.3,174.1h2.281v44.389H303.3Z" transform="translate(-270.212 -174.08)"/>
      <path id="Path_62456" data-name="Path 62456" d="M199.1,174.1h2.321v44.369H199.1Z" transform="translate(-187.229 -174.08)"/>
      <path id="Path_62457" data-name="Path 62457" d="M253.857,218.51H251.8V174.1h2.057Z" transform="translate(-229.198 -174.08)"/>
      <path id="Path_62458" data-name="Path 62458" d="M357.8,218.589h-2.1V174.2h2.1Z" transform="translate(-311.942 -174.159)"/>
      <path id="Path_62459" data-name="Path 62459" d="M279.892,218.689H278.1V174.3h1.792Z" transform="translate(-250.143 -174.239)"/>
      <g id="Group_18780" data-name="Group 18780" transform="translate(6.455 45.998)">
        <path id="Path_62460" data-name="Path 62460" d="M177.529,403.1a4.214,4.214,0,0,1-.672,2.443,2.2,2.2,0,0,1-1.914.977,2.074,2.074,0,0,1-1.812-.9,3.843,3.843,0,0,1-.631-2.3,4.214,4.214,0,0,1,.672-2.443,2.2,2.2,0,0,1,1.914-.977,2.074,2.074,0,0,1,1.812.9A3.99,3.99,0,0,1,177.529,403.1Zm-.957.244a3.7,3.7,0,0,0-.428-1.914,1.286,1.286,0,0,0-1.181-.713,1.215,1.215,0,0,0-1.12.692,3.347,3.347,0,0,0-.387,1.69,3.7,3.7,0,0,0,.428,1.914,1.286,1.286,0,0,0,1.181.713,1.237,1.237,0,0,0,1.079-.631A3.093,3.093,0,0,0,176.572,403.341Z" transform="translate(-172.5 -399.9)"/>
      </g>
      <g id="Group_18781" data-name="Group 18781" transform="translate(14.172 46.161)">
        <path id="Path_62461" data-name="Path 62461" d="M212.884,407.012h-.957c.041-.835.061-1.69.061-2.606,0-1.038-.02-1.812-.061-2.3l-1.262.672-.265-.509,2-1.568h.468c-.041,1.283-.061,2.5-.061,3.706C212.823,405.261,212.843,406.116,212.884,407.012Z" transform="translate(-210.4 -400.7)"/>
      </g>
      <g id="Group_18782" data-name="Group 18782" transform="translate(19.14 45.998)">
        <path id="Path_62462" data-name="Path 62462" d="M239.829,403.1a4.214,4.214,0,0,1-.672,2.443,2.2,2.2,0,0,1-1.914.977,2.074,2.074,0,0,1-1.812-.9,3.843,3.843,0,0,1-.631-2.3,4.214,4.214,0,0,1,.672-2.443,2.2,2.2,0,0,1,1.914-.977,2.074,2.074,0,0,1,1.812.9A4.036,4.036,0,0,1,239.829,403.1Zm-.977.244a3.7,3.7,0,0,0-.428-1.914,1.324,1.324,0,0,0-1.181-.713,1.215,1.215,0,0,0-1.12.692,3.347,3.347,0,0,0-.387,1.69,3.7,3.7,0,0,0,.428,1.914,1.286,1.286,0,0,0,1.181.713,1.237,1.237,0,0,0,1.079-.631A3.093,3.093,0,0,0,238.852,403.341Z" transform="translate(-234.8 -399.9)"/>
      </g>
      <g id="Group_18783" data-name="Group 18783" transform="translate(26.837 46.161)">
        <path id="Path_62463" data-name="Path 62463" d="M275.084,407.012h-.957c.041-.835.061-1.69.061-2.606,0-1.038-.02-1.812-.061-2.3l-1.262.672-.265-.509,2-1.568h.468c-.041,1.283-.061,2.5-.061,3.706C275.023,405.261,275.043,406.116,275.084,407.012Z" transform="translate(-272.6 -400.7)"/>
      </g>
      <g id="Group_18784" data-name="Group 18784" transform="translate(31.907 45.998)">
        <path id="Path_62464" data-name="Path 62464" d="M302.529,403.1a4.214,4.214,0,0,1-.672,2.443,2.2,2.2,0,0,1-1.914.977,2.074,2.074,0,0,1-1.812-.9,3.843,3.843,0,0,1-.631-2.3,4.214,4.214,0,0,1,.672-2.443,2.2,2.2,0,0,1,1.914-.977,2.074,2.074,0,0,1,1.812.9A3.99,3.99,0,0,1,302.529,403.1Zm-.957.244a3.7,3.7,0,0,0-.428-1.914,1.286,1.286,0,0,0-1.181-.713,1.215,1.215,0,0,0-1.12.692,3.347,3.347,0,0,0-.387,1.69,3.7,3.7,0,0,0,.428,1.914,1.287,1.287,0,0,0,1.181.713,1.237,1.237,0,0,0,1.079-.631A3.093,3.093,0,0,0,301.572,403.341Z" transform="translate(-297.5 -399.9)"/>
      </g>
      <g id="Group_18785" data-name="Group 18785" transform="translate(39.604 46.161)">
        <path id="Path_62465" data-name="Path 62465" d="M337.784,407.012h-.957c.041-.835.061-1.69.061-2.606,0-1.038-.02-1.812-.061-2.3l-1.262.672-.265-.509,2-1.568h.468c-.041,1.283-.061,2.5-.061,3.706C337.743,405.261,337.743,406.116,337.784,407.012Z" transform="translate(-335.3 -400.7)"/>
      </g>
      <g id="Group_18786" data-name="Group 18786" transform="translate(44.817 45.998)">
        <path id="Path_62466" data-name="Path 62466" d="M365.929,403.1a4.214,4.214,0,0,1-.672,2.443,2.2,2.2,0,0,1-1.914.977,2.074,2.074,0,0,1-1.812-.9,3.843,3.843,0,0,1-.631-2.3,4.214,4.214,0,0,1,.672-2.443,2.2,2.2,0,0,1,1.914-.977,2.074,2.074,0,0,1,1.812.9A3.99,3.99,0,0,1,365.929,403.1Zm-.957.244a3.7,3.7,0,0,0-.428-1.914,1.286,1.286,0,0,0-1.181-.713,1.215,1.215,0,0,0-1.12.692,3.347,3.347,0,0,0-.387,1.69,3.7,3.7,0,0,0,.428,1.914,1.286,1.286,0,0,0,1.181.713,1.237,1.237,0,0,0,1.079-.631A3.093,3.093,0,0,0,364.972,403.341Z" transform="translate(-360.9 -399.9)"/>
      </g>
      <g id="Group_18787" data-name="Group 18787" transform="translate(52.534 46.161)">
        <path id="Path_62467" data-name="Path 62467" d="M401.284,407.012h-.957c.041-.835.061-1.69.061-2.606,0-1.038-.02-1.812-.061-2.3l-1.262.672-.265-.509,2-1.568h.468c-.041,1.283-.061,2.5-.061,3.706C401.223,405.261,401.243,406.116,401.284,407.012Z" transform="translate(-398.8 -400.7)"/>
      </g>
      <g id="Group_18788" data-name="Group 18788" transform="translate(57.482 45.998)">
        <path id="Path_62468" data-name="Path 62468" d="M428.129,403.1a4.214,4.214,0,0,1-.672,2.443,2.2,2.2,0,0,1-1.914.977,2.074,2.074,0,0,1-1.812-.9,3.843,3.843,0,0,1-.631-2.3,4.214,4.214,0,0,1,.672-2.443,2.2,2.2,0,0,1,1.914-.977,2.074,2.074,0,0,1,1.812.9A4.036,4.036,0,0,1,428.129,403.1Zm-.977.244a3.7,3.7,0,0,0-.428-1.914,1.286,1.286,0,0,0-1.181-.713,1.215,1.215,0,0,0-1.12.692,3.347,3.347,0,0,0-.387,1.69,3.7,3.7,0,0,0,.428,1.914,1.286,1.286,0,0,0,1.181.713,1.237,1.237,0,0,0,1.079-.631A3.093,3.093,0,0,0,427.152,403.341Z" transform="translate(-423.1 -399.9)"/>
      </g>
      <g id="Group_18789" data-name="Group 18789" transform="translate(65.179 46.161)">
        <path id="Path_62469" data-name="Path 62469" d="M463.384,407.012h-.957c.041-.835.061-1.69.061-2.606,0-1.038-.02-1.812-.061-2.3l-1.262.672-.265-.509,2-1.568h.468c-.041,1.283-.061,2.5-.061,3.706C463.323,405.261,463.343,406.116,463.384,407.012Z" transform="translate(-460.9 -400.7)"/>
      </g>
    </g>
  </g>
</svg>
