<svg width="34" height="35" viewBox="0 0 34 35" fill="none" xmlns="http://www.w3.org/2000/svg">
<path d="M0.0348588 20.6509C0.29065 20.0043 0.737421 19.4511 1.31563 19.065C4.39564 16.6853 7.44422 14.2775 10.5242 11.8689C10.5854 11.8077 10.6763 11.7771 10.7069 11.7168C14.823 15.8328 18.9398 19.9191 23.0864 24.0657C23.0313 24.1335 22.9805 24.2048 22.9343 24.279C20.6167 27.2978 18.2693 30.3133 15.9516 33.3346C15.7995 33.5479 15.6465 33.7596 15.4944 33.9448C15.2388 34.3257 14.8515 34.5986 14.407 34.7113C13.9624 34.8239 13.4918 34.7683 13.0858 34.5551C12.7762 34.3079 12.4811 34.0431 12.2019 33.7621C13.4521 32.2986 14.7023 30.8657 15.9525 29.4328L15.8913 29.3716C14.4277 30.5614 12.9337 31.7802 11.4718 32.9692C11.1361 32.6029 10.8013 32.2986 10.4656 31.9323C11.6852 30.0421 12.9047 28.1205 14.1549 26.1692L14.0937 26.108L9.45675 30.9243C9.0607 30.4994 8.6638 30.1008 8.23716 29.6435C9.9749 27.6004 11.7432 25.527 13.5422 23.4232L13.481 23.362C11.2857 25.0082 9.06155 26.6859 6.83399 28.3322C6.59007 28.0576 6.37675 27.8137 6.10224 27.5392C7.2003 25.9533 8.35868 24.3377 9.42614 22.7798C8.11476 24.0606 6.71245 25.4323 5.31013 26.8049C5.03562 26.5304 4.8223 26.2865 4.54524 26.012C6.13113 23.7555 7.74676 21.499 9.36325 19.2426L9.30206 19.1814C7.26232 20.9806 5.21664 22.8096 3.1735 24.6088C2.83779 24.2425 2.47234 23.9076 2.13663 23.5413C3.60014 21.8339 5.09426 20.0653 6.55608 18.2967C6.55608 18.2661 6.52547 18.2661 6.52547 18.2355C4.72625 19.6684 2.89729 21.1013 1.06747 22.5648C0.597542 22.2091 0.229403 21.736 0 21.1931C0.0313786 21.0142 0.0430767 20.8323 0.0348588 20.6509V20.6509Z" fill="white"/>
<path d="M33.9667 6.77748C33.9203 7.05501 33.8594 7.32991 33.7841 7.60103C33.5452 8.46794 33.0823 9.25672 32.442 9.88809C31.615 10.6895 30.669 11.3581 29.6374 11.87C28.6617 12.3885 27.6827 12.8763 26.741 13.4253C25.8571 13.9438 25.0336 14.5531 24.21 15.1328C24.0217 15.2471 23.8604 15.401 23.7375 15.5838C23.6145 15.7666 23.5327 15.974 23.4978 16.1916C23.463 16.4091 23.4759 16.6317 23.5356 16.8438C23.5953 17.0558 23.7005 17.2524 23.8437 17.4198C24.0307 17.6674 24.2345 17.9017 24.4539 18.121C24.9724 18.6394 25.4908 19.1578 26.0092 19.7069C26.182 19.8661 26.32 20.0593 26.4143 20.2745C26.5087 20.4897 26.5574 20.7221 26.5574 20.9571C26.5574 21.192 26.5087 21.4244 26.4143 21.6396C26.32 21.8548 26.182 22.0481 26.0092 22.2073C25.4602 22.7869 24.8814 23.3351 24.3324 23.8535C19.913 19.4341 15.4935 15.0418 11.0078 10.5901C11.2823 10.3156 11.618 10.0105 11.9223 9.7402C12.1968 9.49628 12.4407 9.22177 12.7152 8.94725C12.875 8.78093 13.0668 8.64861 13.279 8.55822C13.4912 8.46783 13.7195 8.42123 13.9501 8.42123C14.1808 8.42123 14.409 8.46783 14.6212 8.55822C14.8335 8.64861 15.0252 8.78093 15.185 8.94725C15.7646 9.49628 16.3128 10.0751 16.8925 10.6241C17.0406 10.7815 17.204 10.9239 17.3803 11.049C17.559 11.2119 17.7716 11.333 18.0028 11.4037C18.234 11.4743 18.478 11.4928 18.7172 11.4578C18.9564 11.4228 19.1849 11.335 19.3861 11.201C19.5873 11.067 19.7562 10.89 19.8807 10.6827C21.0637 9.08529 22.0945 7.38062 22.9598 5.59104C23.4822 4.49609 24.1702 3.48819 24.9996 2.60282C25.7821 1.74955 26.84 1.19895 27.9878 1.04752C28.049 1.04752 28.0796 1.01692 28.1408 0.986328H29.3646C29.431 1.02062 29.5035 1.04142 29.5779 1.04752C30.5761 1.18345 31.5116 1.61234 32.266 2.27994C33.0205 2.94753 33.5599 3.82386 33.8163 4.79809C33.8917 5.06919 33.9527 5.34409 33.9991 5.62164C33.9668 6.01514 33.9667 6.41118 33.9667 6.77748ZM27.5331 5.31397C27.5331 5.74079 27.6593 6.15807 27.8959 6.51336C28.1324 6.86864 28.4687 7.14608 28.8625 7.31078C29.2562 7.47548 29.6899 7.52009 30.1089 7.43901C30.528 7.35794 30.9137 7.1548 31.2176 6.85512C31.5215 6.55543 31.7301 6.17259 31.8171 5.75472C31.904 5.33685 31.8655 4.9026 31.7063 4.50657C31.5472 4.11053 31.2744 3.77039 30.9225 3.52889C30.5706 3.2874 30.1551 3.15533 29.7283 3.1493C29.4419 3.14638 29.1577 3.20013 28.8921 3.30745C28.6265 3.41478 28.3847 3.57355 28.1807 3.77465C27.9767 3.97575 27.8145 4.2152 27.7033 4.47923C27.5922 4.74325 27.5343 5.02665 27.5331 5.31312V5.31397Z" fill="white"/>
</svg>
