<svg xmlns="http://www.w3.org/2000/svg" width="53.555" height="34.23" viewBox="0 0 53.555 34.23">
  <g id="Cash" transform="translate(-12.61 -147.28)">
    <path id="Path_58410" data-name="Path 58410" d="M12.618,147.3h.7q22.66,0,45.328-.015c.588,0,.751.147.751.735q-.023,12.978-.015,25.949c0,.758,0,.766-.774.766q-22.637,0-45.266.015c-.6,0-.727-.178-.727-.751q.023-12.978.015-25.949C12.618,147.814,12.618,147.59,12.618,147.3Zm18.914,4.04H21.959c-.9,0-.9,0-.913.9a3.629,3.629,0,0,1-3.862,3.537c-.457-.046-.534.139-.534.511q.012,4.771,0,9.542c0,.426.139.565.58.534a3.591,3.591,0,0,1,3.808,3.7c-.046.472.1.642.6.635,3.142-.023,6.284-.008,9.426-.015.155,0,.3-.031.588-.062A10.707,10.707,0,0,1,31.532,151.335Zm8.97.046c3.808,2.144,5.975,5.325,5.975,9.666,0,4.326-2.19,7.491-6.16,9.6h10.7v-.557a3.619,3.619,0,0,1,3.645-3.715c.565,0,.681-.163.673-.681-.023-3.08-.008-6.168-.008-9.248,0-.209-.015-.418-.031-.619a3.9,3.9,0,0,1-4.311-4.427Q45.741,151.374,40.5,151.382Z" fill="#fff"/>
    <path id="Path_58411" data-name="Path 58411" d="M64.206,156.19h3.978v27.334H21.54v-3.97H63.3c.905,0,.905,0,.905-.921V156.19Z" transform="translate(-2.019 -2.014)" fill="#fff"/>
  </g>
</svg>
