<svg xmlns="http://www.w3.org/2000/svg" width="40" height="40" viewBox="0 0 40 40">
  <g id="Change_the_color_of_the_open_promotion_line" data-name="Change the color of the open promotion line" transform="translate(-5502 -7013)">
    <rect id="Rectangle_18528" data-name="Rectangle 18528" width="40" height="40" transform="translate(5502 7013)" fill="none"/>
    <g id="Group_17296" data-name="Group 17296" transform="translate(5339.629 6612.858)">
      <path id="Path_61609" data-name="Path 61609" d="M190.785,416.108c.458-.509.967-1.068,1.577-1.679a17.473,17.473,0,0,1,1.679,2.442,2.864,2.864,0,0,1-1.017,3.917c-.407.254-.814.458-1.221.661a2.251,2.251,0,0,0-1.323,3c.305,1.119.763,2.238,1.17,3.358a3.863,3.863,0,0,1,.305,2.137,2.084,2.084,0,0,1-1.475,1.73,10.848,10.848,0,0,1-3.612.458,21.978,21.978,0,0,1-7.478-1.475,13.743,13.743,0,0,1-8.089-7.885,13.257,13.257,0,0,1-.509-8.19,8.07,8.07,0,0,1,6.868-6.206,13.3,13.3,0,0,1,9.971,2.086c.356.254.763.509,1.17.814q-.916.839-1.679,1.526a28.978,28.978,0,0,0-3-1.628,9.594,9.594,0,0,0-7.224-.254,5.779,5.779,0,0,0-3.765,3.968,10.633,10.633,0,0,0,5.647,12.769,16.763,16.763,0,0,0,7.529,1.984,8.189,8.189,0,0,0,2.187-.356,1.127,1.127,0,0,0,.916-1.374,9.6,9.6,0,0,0-.458-1.73,14.422,14.422,0,0,1-.763-3,2.491,2.491,0,0,1,1.424-2.645,11.193,11.193,0,0,0,1.323-.763,1.5,1.5,0,0,0,.61-2.035A15.952,15.952,0,0,0,190.785,416.108Z" transform="translate(0)" fill="#704332"/>
      <path id="Path_61610" data-name="Path 61610" d="M185.9,426.006c.305-.712.56-1.323.865-1.933a13.21,13.21,0,0,1,3.2-3.714c3.256-2.645,6.461-5.342,9.666-8.038a.661.661,0,0,1,.967.051.737.737,0,0,1,0,1.068c-2.951,3-5.9,6-8.75,9.055a11.963,11.963,0,0,1-3.459,2.747A4.609,4.609,0,0,1,185.9,426.006Z" transform="translate(-7.629 -1.962)" fill="#704332"/>
      <path id="Path_61611" data-name="Path 61611" d="M197.935,443.219a2.031,2.031,0,0,1-2.035-1.984,1.978,1.978,0,0,1,2.035-2.035,2.065,2.065,0,0,1,2.035,1.984A2.009,2.009,0,0,1,197.935,443.219Z" transform="translate(-12.542 -15.258)" fill="#704332"/>
      <path id="Path_61612" data-name="Path 61612" d="M178.824,429.454a1.511,1.511,0,0,1-1.526-1.577,1.577,1.577,0,1,1,1.526,1.577Z" transform="translate(-3.402 -8.921)" fill="#704332"/>
      <path id="Path_61613" data-name="Path 61613" d="M180.9,419.522a1.4,1.4,0,0,1,1.475-1.424,1.456,1.456,0,0,1,1.424,1.424,1.45,1.45,0,0,1-2.9,0Z" transform="translate(-5.173 -4.889)" fill="#704332"/>
      <path id="Path_61614" data-name="Path 61614" d="M189.2,415.524a1.422,1.422,0,0,1,1.424-1.424,1.467,1.467,0,0,1,1.424,1.475A1.422,1.422,0,0,1,190.622,417,1.4,1.4,0,0,1,189.2,415.524Z" transform="translate(-9.248 -2.927)" fill="#704332"/>
    </g>
  </g>
</svg>
