<svg xmlns="http://www.w3.org/2000/svg" width="40" height="40" viewBox="0 0 40 40">
  <g id="Check_Dest_Count" data-name="Check Dest Count" transform="translate(-7089 -6733)">
    <rect id="Rectangle_18549" data-name="Rectangle 18549" width="40" height="40" transform="translate(7089 6733)" fill="none"/>
    <g id="Group_17305" data-name="Group 17305" transform="translate(6924.8 6215)">
      <path id="Path_61637" data-name="Path 61637" d="M187.905,539.721c.1-.1.144-.192.24-.289l10.677-10.677a1.361,1.361,0,0,1,2.116,0c.625.625,1.3,1.25,1.876,1.924a1.237,1.237,0,0,1-.1,1.78l-5.82,5.819-7.936,7.936a1.353,1.353,0,0,1-2.164,0l-7.022-7.022a1.4,1.4,0,0,1,0-2.26l1.635-1.635a1.361,1.361,0,0,1,2.116,0C184.923,536.739,186.366,538.23,187.905,539.721Z" transform="translate(-4.671 -1.168)" fill="#704332"/>
      <path id="Path_61638" data-name="Path 61638" d="M182.08,526H189.2a4.443,4.443,0,0,1,1.924.385.542.542,0,0,1,.192.962l-.721.721a.63.63,0,0,1-.625.192,7.175,7.175,0,0,0-1.01-.1H175.2a2.713,2.713,0,0,0-2.79,2.26.818.818,0,0,0-.048.337V545.19a2.675,2.675,0,0,0,2.549,2.6h14.525a2.663,2.663,0,0,0,2.5-2.116,3.639,3.639,0,0,0,.048-.721v-4.088a.647.647,0,0,1,.24-.577c.337-.337.673-.625.962-.962a.549.549,0,0,1,.962.385v3.415c0,.818,0,1.635-.048,2.453a4.432,4.432,0,0,1-1.058,2.6A4.924,4.924,0,0,1,189.053,550H175.106a4.844,4.844,0,0,1-4.761-3.7,5.242,5.242,0,0,1-.144-1.25v-14.14a4.851,4.851,0,0,1,3.848-4.761,13.419,13.419,0,0,1,2.4-.1h5.1a1.806,1.806,0,0,1,.529-.048Z" fill="#704332"/>
    </g>
  </g>
</svg>
