<svg xmlns="http://www.w3.org/2000/svg" width="50.345" height="44.09" viewBox="0 0 50.345 44.09">
  <g id="Cheque" transform="translate(-165.77 -59.869)">
    <path id="Path_58440" data-name="Path 58440" d="M165.779,88.56v-.772c0-3.873.009-7.742-.009-11.615a1.421,1.421,0,0,1,.466-1.1q7.44-7.38,14.871-14.769a1.516,1.516,0,0,1,.972-.413q16.723-.033,33.447-.018h.59V88.56Zm43.2-17.023H171.95v1.477h37.031Zm-11.943,2.613v5.027h13.82V74.151Zm-3.789,1.783H171.928c-.013.177-.027.311-.027.439,0,1.233-.133,1.083,1.047,1.083q9.749.007,19.494,0h.812C193.25,76.915,193.25,76.449,193.25,75.934Zm15.727,8.74V83.13H193.329c-.018.182-.044.333-.049.484-.027,1.06-.027,1.06,1.012,1.06h14.685Zm-8.19-16.579h10.954V66.613H200.787ZM184.465,84.674h1.029c1.4,0,1.4,0,1.282-1.406,0-.04-.04-.075-.075-.129h-2.236Zm3.744-1.544c0,.413-.018.83.013,1.238a.409.409,0,0,0,.279.284c.674.027,1.353.013,2.027.013V83.13Zm-7.551,0v1.5h2.285v-1.5Z" fill="#fff"/>
    <path id="Path_58441" data-name="Path 58441" d="M199.058,143.1H185.168v-.759c0-2.161,0-4.317,0-6.477a5.563,5.563,0,0,1,5.377-5.612c2.551-.067,5.111-.013,7.711-.013v1.571h-7.276a4.058,4.058,0,0,0-3.891,2.44,2.871,2.871,0,0,0-.16.439,3.631,3.631,0,0,0-.071.4h12.2C199.058,137.79,199.058,140.425,199.058,143.1Z" transform="translate(-10.791 -39.137)" fill="#fff"/>
    <path id="Path_58442" data-name="Path 58442" d="M233.913,149.343H220.24V142.16h13.673Z" transform="translate(-30.304 -45.783)" fill="#fff"/>
    <path id="Path_58443" data-name="Path 58443" d="M165.8,73.257c0-1.539-.013-2.955.018-4.37a1.075,1.075,0,0,1,.373-.594q4.039-4.033,8.092-8.043a1.076,1.076,0,0,1,.6-.355c1.415-.031,2.835-.018,4.21-.018C174.7,64.3,170.3,68.723,165.8,73.257Z" transform="translate(-0.013 -0.002)" fill="#fff"/>
    <path id="Path_58444" data-name="Path 58444" d="M174.653,142.929v6.406c-1.291,0-2.578.093-3.842-.031a2.047,2.047,0,0,1-1.642-1.948,17.008,17.008,0,0,1,0-2.329,2.236,2.236,0,0,1,2.085-2.067c.865-.053,1.735-.022,2.6-.027C174.1,142.929,174.338,142.929,174.653,142.929Z" transform="translate(-1.869 -46.21)" fill="#fff"/>
    <path id="Path_58445" data-name="Path 58445" d="M254.87,142.61c3.1,1.122,6.131,2.223,9.352,3.394-3.221,1.171-6.251,2.271-9.352,3.394C254.87,147.117,254.87,144.913,254.87,142.61Z" transform="translate(-49.571 -46.033)" fill="#fff"/>
    <path id="Path_58446" data-name="Path 58446" d="M165.87,66.405V59.99h6.366C170.147,62.093,168.035,64.227,165.87,66.405Z" transform="translate(-0.056 -0.067)" fill="#fff"/>
    <path id="Path_58447" data-name="Path 58447" d="M250.562,97.42H239.83V95.494c.209-.009.421-.031.639-.031,3.132,0,6.264.009,9.4-.013.555,0,.763.151.705.71C250.531,96.55,250.562,96.949,250.562,97.42Z" transform="translate(-41.203 -19.795)" fill="#fff"/>
  </g>
</svg>
