<svg width="23" height="24" viewBox="0 0 23 24" fill="none" xmlns="http://www.w3.org/2000/svg">
<path d="M22.9667 6.77748C22.9203 7.05501 22.8594 7.32991 22.7841 7.60103C22.5452 8.46794 22.0823 9.25672 21.442 9.88809C20.615 10.6895 19.669 11.3581 18.6374 11.87C17.6617 12.3885 16.6827 12.8763 15.741 13.4253C14.8571 13.9438 14.0336 14.5531 13.21 15.1328C13.0217 15.2471 12.8604 15.401 12.7375 15.5838C12.6145 15.7666 12.5327 15.974 12.4978 16.1916C12.463 16.4091 12.4759 16.6317 12.5356 16.8438C12.5953 17.0558 12.7005 17.2524 12.8437 17.4198C13.0307 17.6674 13.2345 17.9017 13.4539 18.121C13.9724 18.6394 14.4908 19.1578 15.0092 19.7069C15.182 19.8661 15.32 20.0593 15.4143 20.2745C15.5087 20.4897 15.5574 20.7221 15.5574 20.9571C15.5574 21.192 15.5087 21.4244 15.4143 21.6396C15.32 21.8548 15.182 22.0481 15.0092 22.2073C14.4602 22.7869 13.8814 23.3351 13.3324 23.8535C8.91295 19.4341 4.49354 15.0418 0.0078125 10.5901C0.282327 10.3156 0.618025 10.0105 0.922286 9.7402C1.1968 9.49628 1.44071 9.22177 1.71522 8.94725C1.87502 8.78093 2.06683 8.64861 2.27903 8.55822C2.49123 8.46783 2.71946 8.42123 2.95011 8.42123C3.18077 8.42123 3.40905 8.46783 3.62125 8.55822C3.83345 8.64861 4.0252 8.78093 4.18501 8.94725C4.76463 9.49628 5.31284 10.0751 5.89247 10.6241C6.04062 10.7815 6.20401 10.9239 6.38028 11.049C6.55899 11.2119 6.77162 11.333 7.00281 11.4037C7.234 11.4743 7.47801 11.4928 7.71721 11.4578C7.95641 11.4228 8.18487 11.335 8.38607 11.201C8.58727 11.067 8.75618 10.89 8.88068 10.6827C10.0637 9.08529 11.0945 7.38062 11.9598 5.59104C12.4822 4.49609 13.1702 3.48819 13.9996 2.60282C14.7821 1.74955 15.84 1.19895 16.9878 1.04752C17.049 1.04752 17.0796 1.01692 17.1408 0.986328H18.3646C18.431 1.02062 18.5035 1.04142 18.5779 1.04752C19.5761 1.18345 20.5116 1.61234 21.266 2.27994C22.0205 2.94753 22.5599 3.82386 22.8163 4.79809C22.8917 5.06919 22.9527 5.34409 22.9991 5.62164C22.9668 6.01514 22.9667 6.41118 22.9667 6.77748ZM16.5331 5.31397C16.5331 5.74079 16.6593 6.15807 16.8959 6.51336C17.1324 6.86864 17.4687 7.14608 17.8625 7.31078C18.2562 7.47548 18.6899 7.52009 19.1089 7.43901C19.528 7.35794 19.9137 7.1548 20.2176 6.85512C20.5215 6.55543 20.7301 6.17259 20.8171 5.75472C20.904 5.33685 20.8655 4.9026 20.7063 4.50657C20.5472 4.11053 20.2744 3.77039 19.9225 3.52889C19.5706 3.2874 19.1551 3.15533 18.7283 3.1493C18.4419 3.14638 18.1577 3.20013 17.8921 3.30745C17.6265 3.41478 17.3847 3.57355 17.1807 3.77465C16.9767 3.97575 16.8145 4.2152 16.7033 4.47923C16.5922 4.74325 16.5343 5.02665 16.5331 5.31312V5.31397Z" fill="white"/>
</svg>
