<svg width="34" height="30" viewBox="0 0 34 30" fill="none" xmlns="http://www.w3.org/2000/svg">
<path d="M26.8222 27.76C26.5692 28.5777 25.6193 29.249 24.6938 29.2741C24.5205 29.2788 24.3466 29.2741 24.1733 29.2741H4.83203C4.86083 29.2212 4.89336 29.1705 4.92937 29.1224C5.56387 28.4239 5.83402 27.5973 5.83246 26.6587C5.82656 22.1337 5.82569 17.6087 5.82986 13.084C5.82986 8.83829 5.82986 4.5924 5.82986 0.34634V0H27.034V0.318088C27.034 4.64297 27.0356 8.96786 27.0387 13.2927C27.0387 13.4916 27.0054 13.5737 26.7816 13.6009C23.2572 14.0278 20.5771 17.0156 20.538 20.547C20.4979 24.1637 23.075 27.1992 26.6239 27.7176C26.6905 27.7281 26.755 27.7448 26.8222 27.76ZM24.4481 9.41709H7.80052V10.3175H24.4481V9.41709ZM7.79167 13.6851H8.2008C12.9104 13.6851 17.6221 13.6783 22.3307 13.6925C22.9829 13.6925 23.607 13.6762 24.1561 13.2739C24.1768 13.2578 24.2002 13.2457 24.2253 13.2383C24.5028 13.1672 24.5007 12.982 24.4372 12.7675H7.79063L7.79167 13.6851ZM7.79167 17.0376H20.0097C20.0791 17.0411 20.1487 17.0399 20.2179 17.0339C20.2653 17.0277 20.3324 17.0135 20.3522 16.9816C20.5177 16.7023 20.6744 16.4171 20.8425 16.1189H7.78855L7.79167 17.0376ZM15.3225 6.97022C15.4948 6.44966 15.6723 5.9312 15.8357 5.40855C15.8825 5.25945 15.9518 5.20294 16.1095 5.20608C16.578 5.2155 17.0464 5.21759 17.5149 5.20608C17.6919 5.20137 17.7751 5.25317 17.8272 5.42791C17.9672 5.88568 18.1254 6.3377 18.2847 6.78815C18.3102 6.86035 18.3763 6.96865 18.4289 6.97179C18.7173 6.9901 19.0072 6.98068 19.3242 6.98068C19.2851 6.85564 19.2617 6.77141 19.2347 6.69241C18.6902 5.08453 18.145 3.47682 17.5992 1.86929C17.518 1.63125 17.4873 1.30322 17.3176 1.18917C17.1359 1.06622 16.8169 1.15726 16.5597 1.13371C16.3744 1.11697 16.3088 1.19806 16.2537 1.36234C15.6551 3.15333 15.052 4.9431 14.4444 6.73165C14.4204 6.8028 14.4053 6.87762 14.3814 6.97022H15.3225ZM20.0664 23.7305C19.9847 23.482 19.8952 23.2644 19.8437 23.0379C19.7999 22.8443 19.7021 22.8009 19.5178 22.8014C15.6952 22.8063 11.8725 22.8077 8.04985 22.8056C7.96605 22.8056 7.88224 22.8134 7.7974 22.8176V23.7305H20.0664ZM19.5636 19.474H7.8V20.3734H19.485C19.5116 20.0683 19.5371 19.7759 19.5636 19.474ZM10.0127 1.13738C10.654 3.11496 11.2796 5.04181 11.91 6.98434C12.1463 6.98434 12.3717 6.97179 12.595 6.98853C12.7933 7.00318 12.8792 6.92889 12.9458 6.7395C13.5392 5.04704 14.143 3.35876 14.7468 1.66892C14.8061 1.50203 14.8597 1.33252 14.9248 1.13685C14.6578 1.13685 14.4319 1.14941 14.2086 1.13319C14.0129 1.11906 13.9228 1.18237 13.8588 1.37908C13.4242 2.72102 12.9739 4.05772 12.5284 5.39547C12.5028 5.47342 12.4701 5.54876 12.419 5.68112C12.367 5.53987 12.3363 5.45406 12.3092 5.36722C11.8954 4.02842 11.4852 2.68596 11.0647 1.34874C11.0381 1.26503 10.9356 1.15412 10.8601 1.14732C10.5946 1.1222 10.3255 1.13738 10.0127 1.13738ZM22.9772 1.15307H18.6522V1.9687H20.3465V6.96865H21.2834V1.95143H22.9787L22.9772 1.15307Z" fill="#704332"/>
<path d="M27.6192 26.8556C24.2405 26.864 21.4714 24.0828 21.4688 20.6822C21.4663 19.0403 22.1127 17.4646 23.2659 16.3016C24.419 15.1386 25.9845 14.4836 27.6181 14.4805C30.9864 14.469 33.7602 17.2507 33.7737 20.6539C33.7872 24.0572 31.0171 26.8478 27.6192 26.8556ZM26.741 19.087C26.6369 18.6298 26.5885 18.2097 26.449 17.823C26.2257 17.2047 25.7672 16.8191 25.1035 16.7369C24.4097 16.6517 23.8251 16.884 23.4347 17.4736C22.8299 18.3886 22.8205 19.3816 23.2015 20.374C23.4665 21.0646 23.9964 21.4685 24.7542 21.4858C25.5121 21.503 26.081 21.1284 26.3762 20.4394C26.5604 20.0068 26.6271 19.5249 26.741 19.087ZM32.4089 22.1214C32.3459 21.7714 32.3137 21.4125 32.2132 21.0751C31.9899 20.3217 31.4418 19.8666 30.7521 19.8142C29.9438 19.7536 29.3467 20.0994 28.9902 20.8145C28.5556 21.6893 28.5493 22.6027 28.9262 23.4979C29.2098 24.1717 29.7356 24.5625 30.4815 24.572C31.2274 24.5814 31.7447 24.2031 32.0763 23.5502C32.3022 23.1008 32.3688 22.6195 32.4089 22.1188V22.1214ZM25.0036 24.618C25.2196 24.618 25.3846 24.6028 25.5454 24.6211C25.7833 24.6494 25.9098 24.5563 26.0305 24.3444C27.2767 22.1226 28.5295 19.9046 29.7892 17.6902C29.9635 17.3831 30.1343 17.0739 30.331 16.7223C30.1145 16.7223 29.9432 16.7375 29.7751 16.7186C29.5466 16.692 29.4259 16.7798 29.3113 16.9839C28.2802 18.8281 27.2355 20.6639 26.195 22.5028C25.8062 23.1903 25.4195 23.8793 25.0036 24.618Z" fill="#704332"/>
<path d="M4.87565 20.9727C4.8819 21.0501 4.89283 21.1171 4.89283 21.1845C4.89283 23.0418 4.9022 24.8991 4.89283 26.7558C4.88502 28.0637 4.05324 29.0421 2.81078 29.2482C1.48711 29.4679 0.185823 28.488 0.0265462 27.1487C0.00911417 27.0015 0.000250352 26.8533 0 26.705C0 24.883 0 23.0613 0 21.24C0 21.1558 0.00728719 21.071 0.0119718 20.9747L4.87565 20.9727Z" fill="#704332"/>
<path d="M24.4523 9.41992V10.3195H7.80469V9.41992H24.4523Z" fill="white"/>
<path d="M7.78906 13.6845V12.7656H24.4346C24.4981 12.9789 24.5002 13.1639 24.2227 13.236C24.1976 13.2434 24.1741 13.2555 24.1535 13.2716C23.6044 13.6756 22.9803 13.6939 22.3281 13.6897C17.6179 13.6756 12.9068 13.6824 8.19819 13.6824L7.78906 13.6845Z" fill="white"/>
<path d="M7.78906 17.0367V16.1162H20.843C20.6749 16.4141 20.5182 16.699 20.3527 16.9781C20.3329 17.0121 20.2658 17.0262 20.2184 17.0304C20.1492 17.0363 20.0796 17.0375 20.0102 17.034H7.78906V17.0367Z" fill="white"/>
<path d="M15.3239 6.97124H14.3828C14.4068 6.87864 14.4219 6.80383 14.4458 6.73267C15.0503 4.94273 15.6537 3.15226 16.2561 1.36127C16.3113 1.19699 16.3769 1.1159 16.5622 1.13264C16.8193 1.15619 17.1384 1.06515 17.3201 1.1881C17.4898 1.30267 17.5205 1.6307 17.6017 1.86822C18.1482 3.47541 18.6934 5.08311 19.2371 6.69134C19.2642 6.77191 19.2892 6.85457 19.3267 6.97961C19.0097 6.97961 18.7197 6.98903 18.4314 6.97072C18.3793 6.96758 18.3127 6.85928 18.2872 6.78708C18.1279 6.33559 17.9697 5.88357 17.8297 5.42684C17.7776 5.2521 17.6922 5.2003 17.5173 5.20501C17.0489 5.21757 16.5804 5.21548 16.112 5.20501C15.9558 5.20187 15.885 5.25733 15.8382 5.40748C15.6737 5.93222 15.4962 6.45068 15.3239 6.97124ZM17.5278 4.42601C17.294 3.71607 17.0713 3.0396 16.848 2.36314L16.7928 2.37047C16.5747 3.05059 16.3566 3.72548 16.1307 4.42601H17.5278Z" fill="white"/>
<path d="M20.0698 23.731H7.80078V22.8189C7.88563 22.8148 7.96943 22.8069 8.05323 22.8069C11.8759 22.8069 15.6985 22.8055 19.5212 22.8027C19.7055 22.8027 19.8033 22.8456 19.847 23.039C19.8986 23.2653 19.9881 23.4828 20.0698 23.731Z" fill="white"/>
<path d="M19.5654 19.4756C19.5389 19.7782 19.5134 20.0694 19.4868 20.3741H7.80078V19.4756H19.5654Z" fill="white"/>
<path d="M10.0117 1.13639C10.324 1.13639 10.5937 1.12121 10.8591 1.14633C10.9346 1.15313 11.0371 1.26404 11.0637 1.34775C11.4843 2.68497 11.8965 4.02534 12.3082 5.36518C12.3353 5.45308 12.3686 5.53888 12.4181 5.67909C12.4701 5.54672 12.5019 5.46982 12.5274 5.39343C12.9734 4.05568 13.4232 2.71898 13.8578 1.37704C13.9218 1.18033 14.0139 1.11546 14.2076 1.13115C14.4309 1.14737 14.6568 1.13482 14.9238 1.13482C14.8587 1.33048 14.8051 1.50104 14.7458 1.66688C14.1441 3.35673 13.5382 5.045 12.9448 6.73746C12.8782 6.92685 12.7923 6.99905 12.594 6.98649C12.3707 6.96975 12.1453 6.98231 11.909 6.98231C11.2786 5.04082 10.653 3.11397 10.0117 1.13639Z" fill="white"/>
<path d="M22.9734 1.15332V1.95377H21.2781V6.97099H20.3412V1.97104H18.6484V1.15332H22.9734Z" fill="white"/>
<path d="M26.7391 19.0816C26.6251 19.5195 26.5585 20.0014 26.3748 20.4325C26.0796 21.123 25.518 21.4976 24.7528 21.4788C23.9877 21.46 23.4651 21.0576 23.2001 20.3671C22.8191 19.373 22.8285 18.3816 23.4333 17.4666C23.8237 16.877 24.4083 16.6447 25.1021 16.73C25.7658 16.8121 26.2243 17.1977 26.4476 17.8161C26.5866 18.2037 26.6371 18.6223 26.7391 19.0816ZM23.8971 19.1339C23.9877 19.5002 24.0533 19.8664 24.173 20.2132C24.2162 20.3529 24.3043 20.4742 24.4235 20.5582C24.5426 20.6421 24.6861 20.684 24.8314 20.6773C25.1672 20.6726 25.3801 20.468 25.4868 20.1672C25.7407 19.4839 25.7445 18.7322 25.4977 18.0463C25.3936 17.7475 25.1854 17.5425 24.8486 17.5294C24.5118 17.5163 24.2792 17.7141 24.1772 18.0086C24.0538 18.3633 23.9939 18.7405 23.8971 19.1324V19.1339Z" fill="white"/>
<path d="M32.408 22.1163C32.3679 22.617 32.3039 23.0983 32.0754 23.5436C31.7438 24.1965 31.2228 24.5747 30.4805 24.5653C29.7383 24.5559 29.2089 24.1651 28.9252 23.4912C28.5484 22.5961 28.5546 21.6826 28.9892 20.8079C29.3447 20.0927 29.9428 19.7469 30.7512 19.8076C31.4409 19.8599 31.989 20.3151 32.2123 21.0684C32.3127 21.4075 32.345 21.7643 32.408 22.1163ZM31.4346 22.1556C31.3518 21.7967 31.2915 21.4195 31.1743 21.0606C31.0817 20.7765 30.8464 20.6117 30.5367 20.608C30.2348 20.6044 30.0235 20.7734 29.9053 21.0355C29.7395 21.3867 29.6513 21.7699 29.6467 22.1587C29.6421 22.5475 29.7213 22.9326 29.8788 23.2877C30.0022 23.5781 30.226 23.7706 30.5638 23.7549C30.8886 23.7403 31.1046 23.5457 31.1941 23.2516C31.2998 22.9063 31.3518 22.5443 31.4346 22.1556Z" fill="white"/>
<path d="M25.0078 24.6169C25.4242 23.8782 25.8104 23.1892 26.1993 22.5017C27.2403 20.6628 28.2844 18.827 29.3156 16.9828C29.4301 16.7788 29.5509 16.6909 29.7794 16.7175C29.9475 16.7364 30.1187 16.7212 30.3353 16.7212C30.1385 17.0728 29.9678 17.382 29.7934 17.6891C28.5397 19.9063 27.2868 22.1244 26.0348 24.3433C25.9161 24.5552 25.7875 24.6483 25.5497 24.6201C25.3888 24.6017 25.2238 24.6169 25.0078 24.6169Z" fill="white"/>
<path d="M17.5221 4.42224H16.125C16.3509 3.72171 16.569 3.04421 16.7871 2.3667L16.8423 2.35938C17.0656 3.03584 17.2884 3.71177 17.5221 4.42224Z" fill="#704332"/>
<path d="M23.8984 19.1374C23.9927 18.7456 24.0546 18.3683 24.1785 18.0121C24.2826 17.7175 24.5069 17.5198 24.8499 17.5328C25.193 17.5459 25.3934 17.751 25.499 18.0497C25.7459 18.7356 25.742 19.4874 25.4881 20.1707C25.3814 20.4694 25.1685 20.6761 24.8328 20.6808C24.6874 20.6875 24.5439 20.6456 24.4248 20.5616C24.3056 20.4777 24.2176 20.3564 24.1743 20.2167C24.0536 19.8698 23.989 19.5026 23.8984 19.1374Z" fill="#704332"/>
<path d="M31.4365 22.154C31.3537 22.5428 31.3017 22.9048 31.196 23.2501C31.1065 23.542 30.8905 23.7387 30.5657 23.7534C30.2279 23.7691 30.0041 23.5766 29.8807 23.2862C29.7232 22.9311 29.644 22.5459 29.6486 22.1571C29.6532 21.7684 29.7414 21.3852 29.9072 21.0339C30.0254 20.7723 30.2367 20.6028 30.5386 20.6065C30.8509 20.6102 31.0836 20.775 31.1763 21.059C31.2934 21.4179 31.3537 21.7952 31.4365 22.154Z" fill="#704332"/>
</svg>
