<svg width="21" height="21" viewBox="0 0 21 21" fill="none" xmlns="http://www.w3.org/2000/svg">
<path d="M1.15689 21C0.997018 20.9997 0.838953 20.9662 0.692747 20.9015C0.54654 20.8368 0.41539 20.7424 0.307637 20.6242C0.197935 20.5071 0.114226 20.3681 0.0619973 20.2163C0.0097691 20.0646 -0.00979778 19.9035 0.0045794 19.7436L0.286895 16.6385L6.80782 10.1181L13.3287 3.59767L17.4045 7.67335L4.36607 20.713L1.26175 20.9954C1.22689 20.9986 1.1919 21.0001 1.15689 21ZM18.218 6.85844L14.1434 2.78277L16.5875 0.338049C16.6945 0.230883 16.8216 0.145866 16.9615 0.087861C17.1014 0.029856 17.2513 0 17.4027 0C17.5542 0 17.7041 0.029856 17.844 0.087861C17.9839 0.145866 18.111 0.230883 18.218 0.338049L20.662 2.78277C20.7692 2.88981 20.8542 3.01693 20.9122 3.15686C20.9702 3.29679 21 3.44677 21 3.59825C21 3.74972 20.9702 3.89971 20.9122 4.03963C20.8542 4.17956 20.7692 4.30668 20.662 4.41373L18.2191 6.85729L18.218 6.85844Z" fill="white"/>
</svg>
