<svg width="50" height="50" viewBox="0 0 50 50" fill="none" xmlns="http://www.w3.org/2000/svg">
<path d="M24.8704 6.60938C28.1024 6.72838 31.3704 6.58538 34.5584 7.02338C37.3449 7.42026 39.9032 8.78397 41.786 10.8761C43.6688 12.9682 44.7563 15.6556 44.8584 18.4684C44.8904 23.1457 44.8904 27.8234 44.8584 32.5014C44.8074 39.0114 39.0854 44.3474 32.2004 44.3534C27.5184 44.3534 22.8354 44.3404 18.1534 44.3534C10.6734 44.3734 5.17139 39.5844 4.91839 32.5084C4.74039 27.5374 4.7824 22.5484 5.0184 17.5784C5.2944 11.8044 10.7804 6.94438 16.9444 6.76538C19.5824 6.68738 22.2264 6.75238 24.8664 6.75238L24.8704 6.60938ZM16.0514 35.3364C16.0017 35.6604 16.0478 35.9919 16.1838 36.2901C16.3199 36.5883 16.5401 36.8403 16.8174 37.0151C17.0947 37.1899 17.4171 37.2799 17.7448 37.2741C18.0725 37.2683 18.3915 37.1669 18.6624 36.9824C20.3924 36.0454 22.0884 35.0514 23.7624 34.0214C24.0324 33.8062 24.3664 33.687 24.7116 33.6825C25.0569 33.6779 25.3938 33.7884 25.6694 33.9964C27.2884 35.0294 28.9294 36.0434 30.6444 36.9224C31.2892 37.2253 32.0246 37.2735 32.7034 37.0574C33.0528 36.8914 33.3225 36.594 33.4536 36.23C33.5847 35.8661 33.5667 35.4651 33.4034 35.1144C32.8904 33.3394 32.4664 31.5424 31.9874 29.7584C31.8709 29.4803 31.8592 29.1695 31.9542 28.8835C32.0493 28.5974 32.2447 28.3554 32.5044 28.2024C34.0234 27.1024 35.4534 25.8924 36.9404 24.7514C37.6724 24.1894 38.2404 23.5664 37.8554 22.6314C37.4874 21.7314 36.6334 21.5414 35.7024 21.4904C33.9484 21.3904 32.2024 21.2344 30.4434 21.1594C30.0618 21.1943 29.6802 21.093 29.3663 20.8733C29.0523 20.6536 28.8263 20.3298 28.7284 19.9594C28.1284 18.2894 27.3284 16.6844 26.6604 15.0344C26.5696 14.6538 26.3516 14.3156 26.0425 14.0758C25.7333 13.8359 25.3516 13.7088 24.9604 13.7154C24.5675 13.7108 24.1837 13.8345 23.8674 14.0676C23.5511 14.3008 23.3194 14.6307 23.2074 15.0074C22.5204 16.6494 21.7594 18.2654 21.1074 19.9194C21.006 20.27 20.7849 20.5739 20.4824 20.7782C20.18 20.9825 19.8155 21.0742 19.4524 21.0374C17.5774 21.0804 15.7074 21.2584 13.8344 21.3694C12.9514 21.4224 12.1814 21.5954 11.8624 22.5244C11.5434 23.4534 12.1034 24.0244 12.7624 24.5514C14.1334 25.6514 15.4944 26.7564 16.9004 27.8124C17.2318 27.9906 17.4848 28.2861 17.6098 28.6411C17.7348 28.996 17.7229 29.3848 17.5764 29.7314C16.9614 31.6424 16.5184 33.5924 16.0514 35.3354V35.3364Z" fill="#704332"/>
</svg>
