<svg xmlns="http://www.w3.org/2000/svg" width="209.074" height="210" viewBox="0 0 209.074 210">
  <g id="Group_18495" data-name="Group 18495" transform="translate(-1522.887 -97.779)">
    <path id="Subtraction_54" data-name="Subtraction 54" d="M105,210a104.51,104.51,0,0,1-58.707-17.932,105.305,105.305,0,0,1-38.042-46.2,104.863,104.863,0,0,1,9.681-99.577,105.305,105.305,0,0,1,46.2-38.042A105.1,105.1,0,0,1,197.413,55.109,104.029,104.029,0,0,1,209.074,91H162v30h46.789a104.044,104.044,0,0,1-12.078,35.167A104.855,104.855,0,0,1,105,210Z" transform="translate(1522.887 97.779)" fill="#f7921e"/>
    <circle id="Ellipse_295" data-name="Ellipse 295" cx="94" cy="94" r="94" transform="translate(1533.887 108.779)" fill="#fff"/>
    <g id="Group_18423" data-name="Group 18423" transform="translate(-10249.914 -2479.696)">
      <path id="Subtraction_49" data-name="Subtraction 49" d="M89.989,180a90.672,90.672,0,0,1-18-1.8,89.494,89.494,0,0,1-31.975-13.337A90.279,90.279,0,0,1,7.4,125.811a89.553,89.553,0,0,1-5.37-16.683A90.526,90.526,0,0,1,0,91.2H92.389v88.769C91.586,179.99,90.779,180,89.989,180Zm6.4-.224V91.2h83.59a90.59,90.59,0,0,1-1.868,17.169,89.487,89.487,0,0,1-12.635,30.657,90.334,90.334,0,0,1-36.568,32.148,89.455,89.455,0,0,1-32.518,8.6Zm-4-92.576H.035A89.9,89.9,0,0,1,89.989,0c.8,0,1.6.011,2.4.031V87.2Zm87.555,0H96.389V.224A89.884,89.884,0,0,1,179.944,87.2Z" transform="translate(11787.914 2592.475)" fill="#f7921e"/>
      <ellipse id="Ellipse_297" data-name="Ellipse 297" cx="62.692" cy="62.694" rx="62.692" ry="62.694" transform="translate(11814.914 2620.475)" fill="#fff"/>
    </g>
    <rect id="Rectangle_18831" data-name="Rectangle 18831" width="33" height="30" transform="translate(1684.887 188.779)" fill="#fff"/>
  </g>
</svg>
