<svg xmlns="http://www.w3.org/2000/svg" width="40" height="40" viewBox="0 0 40 40">
  <g id="Count_of_Invoice" data-name="Count of Invoice" transform="translate(3172 261)">
    <rect id="Rectangle_18517" data-name="Rectangle 18517" width="40" height="40" transform="translate(-3172 -261)" fill="none"/>
    <g id="Group_17380" data-name="Group 17380" transform="translate(-3819.9 -773.801)">
      <path id="Path_61833" data-name="Path 61833" d="M689.173,521.4l5.471,5.471a1.727,1.727,0,0,1-.2.04h-4.632c-.4,0-.639-.12-.639-.559V521.52C689.133,521.44,689.173,521.4,689.173,521.4Z" transform="translate(-18.774 -0.36)" fill="#704332"/>
      <path id="Path_61834" data-name="Path 61834" d="M690.8,565.534a3.835,3.835,0,0,1,3.834-3.834,3.9,3.9,0,0,1,3.874,3.874,3.854,3.854,0,0,1-7.707-.04Zm3.275-.559H692.2a.5.5,0,0,0-.519.479c0,.2.2.4.359.559.08.08.28.08.4.08h1.637v1.8a.557.557,0,0,0,.559.6.571.571,0,0,0,.559-.559v-1.8h1.757a.563.563,0,0,0,.639-.519q0-.539-.6-.6h-1.8v-1.637c0-.519-.2-.759-.559-.759s-.559.24-.559.719Z" transform="translate(-19.762 -24.567)" fill="#704332"/>
      <path id="Path_61835" data-name="Path 61835" d="M670.08,540.966a4.823,4.823,0,0,1,4.832-4.832,5.05,5.05,0,0,1,1.118.12v-8.745h-5.79c-.8,0-.918-.12-.918-.879V520.8H658.858c-.878,0-.958.08-.958.918v20.965c0,.839.08.918.918.918h12.02A4.757,4.757,0,0,1,670.08,540.966Zm-3.035-7.428a.57.57,0,0,1-.639.639h-4.512a.577.577,0,0,1-.639-.6v-.12c-.04-1.2.04-1.278,1.2-1.278h3.714c.679,0,.839.16.839.839A2.866,2.866,0,0,1,667.045,533.539Zm-.04-3.754a.536.536,0,0,1-.6.559h-4.552a.529.529,0,0,1-.6-.6c-.04-1.318-.04-1.318,1.2-1.318h3.714c.759,0,.839.12.839.879A.959.959,0,0,1,667,529.785Zm-1.118-3.195h-3.754c-.719,0-.839-.12-.839-.839v-.479a.57.57,0,0,1,.639-.639h4.433c.479,0,.679.2.679.639v.12C667.045,526.51,667,526.59,665.887,526.59Z" fill="#704332"/>
    </g>
  </g>
</svg>
