<svg id="Credit_Card" data-name="Credit Card" xmlns="http://www.w3.org/2000/svg" width="62.432" height="39.74" viewBox="0 0 62.432 39.74">
  <path id="Path_58390" data-name="Path 58390" d="M44.018,22.87a4.994,4.994,0,0,1,4.009,2.012,4.995,4.995,0,1,1,0,5.965,5,5,0,1,1-4.009-7.977ZM3.435,0H59a3.435,3.435,0,0,1,3.43,3.43V36.3A3.444,3.444,0,0,1,59,39.74H3.435A3.444,3.444,0,0,1,0,36.31V3.435A3.435,3.435,0,0,1,3.435,0Zm5.03,26.249a1,1,0,1,1,0-1.992H25.208a1,1,0,1,1,0,1.992Zm0,5.223a1,1,0,1,1,0-1.992h11.3a1,1,0,1,1,0,1.992ZM1.987,7.4H60.445V3.435A1.457,1.457,0,0,0,59,1.987H3.435A1.457,1.457,0,0,0,1.987,3.435V7.4Zm58.464,9.873H1.987V36.31a1.457,1.457,0,0,0,1.448,1.448H59a1.457,1.457,0,0,0,1.448-1.448V17.271Z" fill="#fff"/>
</svg>
