<svg xmlns="http://www.w3.org/2000/svg" width="40" height="40" viewBox="0 0 40 40">
  <g id="Default_Printer" data-name="Default Printer" transform="translate(-569 -922)">
    <rect id="Rectangle_18482" data-name="Rectangle 18482" width="40" height="40" transform="translate(569 922)" fill="none"/>
    <g id="Group_17268" data-name="Group 17268" transform="translate(209.345 897.905)">
      <path id="Path_61477" data-name="Path 61477" d="M387.425,38.032c.6,0,1.2.046,1.748,0,3.082-.23,4.233,1.932,4.279,4.141.046,1.84,0,3.726,0,5.567a1.371,1.371,0,0,1-1.242,1.426c-1.058.046-2.116,0-3.22,0V44.013h-17.8v5.153c-1.1,0-2.116.046-3.174,0a1.427,1.427,0,0,1-1.334-1.472c0-1.794-.046-3.588,0-5.337a4.426,4.426,0,0,1,4.279-4.279h1.564c0-.138.046-.276.046-.414,0-1.334.046-2.622,0-3.957a1.544,1.544,0,0,1,1.61-1.61c3.22.046,6.441,0,9.661.046a1.972,1.972,0,0,1,1.1.46,26.747,26.747,0,0,1,1.978,1.978,1.863,1.863,0,0,1,.506,1.242C387.379,36.514,387.425,37.2,387.425,38.032Zm-1.518-.046v-2.07a.659.659,0,0,0-.23-.506c-.506-.552-1.058-1.012-1.564-1.564a.915.915,0,0,0-.736-.322h-9.339v4.463Zm4.555,2.944a1.444,1.444,0,0,0-1.472-1.426,1.485,1.485,0,0,0-1.518,1.426,1.5,1.5,0,0,0,1.518,1.518A1.438,1.438,0,0,0,390.461,40.93Z" transform="translate(0 0)" fill="#704332"/>
      <path id="Path_61478" data-name="Path 61478" d="M394.36,61.2v4.371c0,1.426-.046,2.852,0,4.279a1.607,1.607,0,0,1-1.7,1.748c-3.91-.046-7.775,0-11.685,0a1.435,1.435,0,0,1-1.472-1.38V61.476a.584.584,0,0,1,.046-.276Zm-7.453,2.208H381.8a.728.728,0,0,0-.828.736.805.805,0,0,0,.782.782h10.121c.644,0,.966-.276.966-.736,0-.506-.276-.736-.92-.736C390.219,63.408,388.563,63.408,386.907,63.408Zm.046,2.99h-5.107c-.552,0-.874.276-.874.69a.776.776,0,0,0,.874.782h10.029c.644,0,.966-.276.966-.69,0-.552-.276-.782-.966-.782Z" transform="translate(-6.935 -15.715)" fill="#704332"/>
    </g>
  </g>
</svg>
