<svg xmlns="http://www.w3.org/2000/svg" width="40" height="40" viewBox="0 0 40 40">
  <g id="Delete_Job" data-name="Delete Job" transform="translate(-6289 -7013)">
    <rect id="Rectangle_18541" data-name="Rectangle 18541" width="40" height="40" transform="translate(6289 7013)" fill="none"/>
    <g id="Group_17303" data-name="Group 17303" transform="translate(5531.8 6615.567)">
      <path id="Path_61628" data-name="Path 61628" d="M774.76,413.457a16.716,16.716,0,0,1-4.738-.56,10.773,10.773,0,0,1-4.365-1.977c-1.865-1.492-1.865-3.47.037-4.962a10.235,10.235,0,0,1,3.32-1.642,19.522,19.522,0,0,1,6.865-.858,15.949,15.949,0,0,1,7.835,2.052,4.7,4.7,0,0,1,1.38,1.194,2.656,2.656,0,0,1-.224,3.843,7.756,7.756,0,0,1-3.1,1.865A19.239,19.239,0,0,1,774.76,413.457Z" transform="translate(-0.039)" fill="#704332"/>
      <path id="Path_61629" data-name="Path 61629" d="M785.89,422.9c0,.112.037.261.037.373,0,.709-.037,1.418,0,2.127a3.465,3.465,0,0,1-1.418,2.985,9.479,9.479,0,0,1-3.358,1.679,19.119,19.119,0,0,1-6.641.821,17.406,17.406,0,0,1-7.014-1.492A5.347,5.347,0,0,1,764.7,427a1.915,1.915,0,0,1-.261-.9c-.037-1.007-.037-2.015-.037-3.022a.376.376,0,0,1,.037-.112,20.037,20.037,0,0,0,1.492,1.6,9.779,9.779,0,0,0,3.544,1.716,20.773,20.773,0,0,0,7.723.672,14.435,14.435,0,0,0,6.865-2.052A5.075,5.075,0,0,0,785.89,422.9Z" transform="translate(-0.125 -12.204)" fill="#704332"/>
      <path id="Path_61630" data-name="Path 61630" d="M811.736,453.344c-.858-.821-1.642-1.6-2.462-2.388a.732.732,0,0,1,0-1.231c.373-.41.746-.783,1.157-1.157a.748.748,0,0,1,1.119,0c.746.746,1.492,1.455,2.2,2.238.261.261.373.224.634,0,.709-.746,1.455-1.492,2.2-2.238a.693.693,0,0,1,1.045-.037c.448.41.9.858,1.306,1.306a.647.647,0,0,1-.037,1.045c-.821.821-1.679,1.642-2.537,2.5.224.261.41.448.6.672l1.9,1.9c.41.41.41.709,0,1.157-.373.41-.783.783-1.194,1.194a.737.737,0,0,1-1.157,0c-.709-.709-1.455-1.418-2.164-2.164-.261-.261-.41-.3-.672,0-.672.709-1.418,1.418-2.127,2.127-.448.448-.821.448-1.231,0l-.97-.97c-.6-.6-.6-.9,0-1.53l1.977-1.977C811.474,453.643,811.549,453.531,811.736,453.344Z" transform="translate(-28.023 -28.135)" fill="#704332"/>
      <path id="Path_61631" data-name="Path 61631" d="M764.3,451.3a7.589,7.589,0,0,0,4.589,3.209,20.8,20.8,0,0,0,8.842.746c.933-.112,1.828-.373,2.724-.485.261-.037.56.261.858.41,0,.075.037.149.037.224a10.249,10.249,0,0,0-.97.821,2.879,2.879,0,0,0-1.157,1.977c0,.075-.037.187,0,.261.112.373-.112.485-.41.485-1.567.112-3.134.261-4.664.261a16.266,16.266,0,0,1-5.82-1.082,8.154,8.154,0,0,1-2.947-1.754,3.166,3.166,0,0,1-1.045-2.425C764.3,453.054,764.3,452.158,764.3,451.3Z" transform="translate(-0.063 -30.008)" fill="#704332"/>
      <path id="Path_61632" data-name="Path 61632" d="M779.5,444.574a9.443,9.443,0,0,1-1.343.261,22.693,22.693,0,0,1-8.1-.336,9.919,9.919,0,0,1-4.85-2.388,3.1,3.1,0,0,1-1.007-2.35c.037-.783,0-1.567,0-2.313,0-.112.037-.261.037-.448,1.194,2.2,3.246,2.947,5.335,3.544a18.936,18.936,0,0,0,6.305.672,17.813,17.813,0,0,0,4.85-.783h.112a18.17,18.17,0,0,0-1.492,1.865A2.485,2.485,0,0,0,779.5,444.574Z" transform="translate(0 -21.044)" fill="#704332"/>
      <path id="Path_61633" data-name="Path 61633" d="M817.637,437.1a16.583,16.583,0,0,1-.149,4.067c-.746-.634-1.269-1.492-2.388-1.6A6.214,6.214,0,0,0,817.637,437.1Z" transform="translate(-31.91 -21.106)" fill="#704332"/>
    </g>
  </g>
</svg>
