<svg xmlns="http://www.w3.org/2000/svg" width="40" height="40" viewBox="0 0 40 40">
  <g id="Drawer_Printer" data-name="Drawer Printer" transform="translate(-762 -922)">
    <rect id="Rectangle_18484" data-name="Rectangle 18484" width="40" height="40" transform="translate(762 922)" fill="none"/>
    <g id="Group_17272" data-name="Group 17272" transform="translate(6.7 900.687)">
      <path id="Path_61488" data-name="Path 61488" d="M763.336,58.6h24.871v9.773a1.083,1.083,0,0,1-1.094,1.131c-.948.036-1.933,0-2.881,0-.182,0-.146-.109-.182-.219-.255-1.021-.474-2.079-.729-3.1-.109-.511-.255-.985-.365-1.5-.036-.109-.073-.146-.182-.146H768.807c-.182,0-.292.036-.328.255-.328,1.5-.693,2.99-1.058,4.522-.036.146-.073.219-.255.219H764.5a1.129,1.129,0,0,1-1.2-1.2V58.892A.71.71,0,0,0,763.336,58.6Zm22.719,2.443a.731.731,0,0,0-.729-.729.709.709,0,0,0-.729.729.748.748,0,0,0,.766.766A.71.71,0,0,0,786.056,61.043Zm0,2.3a.748.748,0,1,0-.766.729A.74.74,0,0,0,786.056,63.341Z" transform="translate(0 -18.043)" fill="#704332"/>
      <path id="Path_61489" data-name="Path 61489" d="M763.4,39.791c.365-.438.693-.875,1.021-1.276l3.5-4.376a2.667,2.667,0,0,1,1.386-.875c.073-.036.146-.036.219-.073V30.2h12.618v2.954a3.616,3.616,0,0,1,.839.365,3.507,3.507,0,0,1,.8.656c1.459,1.787,2.881,3.61,4.34,5.434.036.036.073.109.146.182Zm17.942-2.735v-6.09h-11.05v6.09Zm-11.816-.328a.276.276,0,0,1-.146.036,1.428,1.428,0,0,0-.693.766c-.255.547-.182.693.438.693h13.566c.328-.036.438-.219.292-.511a4,4,0,0,0-.292-.547.981.981,0,0,0-.62-.438v1.094H769.454A5.525,5.525,0,0,0,769.527,36.728Z" transform="translate(-0.064)" fill="#704332"/>
      <path id="Path_61490" data-name="Path 61490" d="M791.618,82.634H775.9a3.086,3.086,0,0,1,.146-.62l1.094-4.595c.036-.182.109-.219.292-.219h12.691c.182,0,.255.036.292.219.4,1.714.8,3.392,1.2,5.106Zm-.948-.766c0-.073,0-.109-.036-.146-.292-1.2-.583-2.407-.839-3.61-.036-.146-.109-.182-.255-.182h-11.56c-.146,0-.219.036-.255.182-.182.875-.4,1.75-.62,2.626-.073.365-.182.729-.255,1.131Z" transform="translate(-8.005 -29.86)" fill="#704332"/>
      <path id="Path_61491" data-name="Path 61491" d="M787.853,86.847h-5.434a.277.277,0,0,1-.219-.292.241.241,0,0,1,.219-.255H793.14c.146,0,.219.109.255.255a.278.278,0,0,1-.255.292h-5.288Z" transform="translate(-12.008 -35.642)" fill="#704332"/>
      <path id="Path_61492" data-name="Path 61492" d="M789.214,82.382h-4.522a.258.258,0,1,1,0-.511H793.7c.073,0,.146-.036.182,0,.073.073.182.146.182.255s-.109.182-.182.255c-.036.036-.146,0-.182,0h-3.938a1.379,1.379,0,0,0-.547,0Z" transform="translate(-13.405 -32.818)" fill="#704332"/>
    </g>
  </g>
</svg>
