<svg width="62" height="60" viewBox="0 0 62 60" fill="none" xmlns="http://www.w3.org/2000/svg">
<path d="M7.75 0C5.69457 0 3.72333 0.790177 2.26992 2.1967C0.816516 3.60322 0 5.51088 0 7.5L0 52.5C0 54.4891 0.816516 56.3968 2.26992 57.8033C3.72333 59.2098 5.69457 60 7.75 60H54.25C56.3054 60 58.2767 59.2098 59.7301 57.8033C61.1835 56.3968 62 54.4891 62 52.5V7.5C62 5.51088 61.1835 3.60322 59.7301 2.1967C58.2767 0.790177 56.3054 0 54.25 0L7.75 0ZM9.6875 18.75H52.3125C52.8264 18.75 53.3192 18.9475 53.6825 19.2992C54.0459 19.6508 54.25 20.1277 54.25 20.625C54.25 21.1223 54.0459 21.5992 53.6825 21.9508C53.3192 22.3025 52.8264 22.5 52.3125 22.5H9.6875C9.17364 22.5 8.68083 22.3025 8.31748 21.9508C7.95413 21.5992 7.75 21.1223 7.75 20.625C7.75 20.1277 7.95413 19.6508 8.31748 19.2992C8.68083 18.9475 9.17364 18.75 9.6875 18.75ZM15.5 31.875C15.5 31.3777 15.7041 30.9008 16.0675 30.5492C16.4308 30.1975 16.9236 30 17.4375 30H44.5625C45.0764 30 45.5692 30.1975 45.9325 30.5492C46.2959 30.9008 46.5 31.3777 46.5 31.875C46.5 32.3723 46.2959 32.8492 45.9325 33.2008C45.5692 33.5525 45.0764 33.75 44.5625 33.75H17.4375C16.9236 33.75 16.4308 33.5525 16.0675 33.2008C15.7041 32.8492 15.5 32.3723 15.5 31.875ZM23.25 43.125C23.25 42.6277 23.4541 42.1508 23.8175 41.7992C24.1808 41.4475 24.6736 41.25 25.1875 41.25H36.8125C37.3264 41.25 37.8192 41.4475 38.1825 41.7992C38.5459 42.1508 38.75 42.6277 38.75 43.125C38.75 43.6223 38.5459 44.0992 38.1825 44.4508C37.8192 44.8025 37.3264 45 36.8125 45H25.1875C24.6736 45 24.1808 44.8025 23.8175 44.4508C23.4541 44.0992 23.25 43.6223 23.25 43.125Z" fill="#704332"/>
</svg>
