<svg xmlns="http://www.w3.org/2000/svg" width="49.3" height="49.083" viewBox="0 0 49.3 49.083">
  <g id="Gift_Voucher" data-name="Gift Voucher" transform="translate(-47.2 -54.967)">
    <path id="Path_58394" data-name="Path 58394" d="M69.41,58.1a3.546,3.546,0,0,1,4.06.79c1.31,1.38,1.25,2.93.37,4.58h3.41c1.91.01,3.82.02,5.73.04a5.928,5.928,0,0,1,.59.07c.37.03.51.25.51.6-.01,1.68,0,3.35-.01,5.03,0,.51-.23.75-.72.75H70.55a1.189,1.189,0,0,1-.14-.04V63.53c.46,0,.92.02,1.38-.01a1.179,1.179,0,0,0,.63-.23,2.485,2.485,0,0,0,.26-3.41,2.368,2.368,0,0,0-3.3-.37,1.225,1.225,0,0,0-.34.41c-.58,1.11-1.14,2.23-1.71,3.35-.03.06-.05.12-.12.26h1.16c.72.01.88.16.88.88V80.12H62.2V64.37c0-.69.15-.85.84-.87.36-.01.73-.01,1.09-.01.01,0,.02-.02.07-.07-.15-.25-.32-.51-.46-.78-.4-.78-.82-1.55-1.17-2.35a1.923,1.923,0,0,0-2.29-1.25,2.3,2.3,0,0,0-1.85,1.56,2.348,2.348,0,0,0,.42,2.38,1.3,1.3,0,0,0,1.2.56,8.791,8.791,0,0,1,1.02-.01v6.44H48.16c-.79,0-.95-.16-.95-.97,0-1.54,0-3.09-.01-4.63,0-.72.15-.88.87-.88q4.56,0,9.11-.01h.61c-.93-1.79-.91-3.45.64-4.83a3.518,3.518,0,0,1,3.82-.54,3.722,3.722,0,0,1,1.66-2.58,3.414,3.414,0,0,1,2.03-.56C67.68,55.05,68.81,56.07,69.41,58.1Zm-3.7,5.43A20.407,20.407,0,0,0,68,59.28a2.253,2.253,0,0,0-.83-2.59,2.331,2.331,0,0,0-2.69-.08,2.4,2.4,0,0,0-1.03,2.59A16.46,16.46,0,0,0,65.71,63.53Z" fill="#fff"/>
    <path id="Path_58395" data-name="Path 58395" d="M69.31,104.05V98.81c2.07,1.45,4.05,1.51,5.73-.54a3.8,3.8,0,0,0-.25-4.94H96.5v3.28c0,1.81,0,3.62-.01,5.43a1.885,1.885,0,0,1-2.03,2.01H69.31Zm22.95-5.69c.14-.71.12-.73-.5-.73H85.2c-.22,0-.45.03-.65.04v.68C87.15,98.36,89.71,98.36,92.26,98.36Z" fill="#fff"/>
    <path id="Path_58396" data-name="Path 58396" d="M96.49,92.06H74.8c1.38-1.97,1.52-3.95-.36-5.59-1.61-1.41-3.41-1.17-5.13.11V81.44c.19-.01.36-.03.54-.03q12.15,0,24.29-.01c.22,0,.43,0,.65.02a1.692,1.692,0,0,1,1.68,1.69c.04,1.76.02,3.52.02,5.28v3.67Zm-4.21-5.13H84.54v.68c.15.01.28.04.41.04h6.81C92.38,87.65,92.4,87.63,92.28,86.93Z" fill="#fff"/>
    <path id="Path_58397" data-name="Path 58397" d="M49.69,71.15H61v8.97c-.15.01-.29.03-.43.03-1.26,0-2.52.01-3.78,0a3.065,3.065,0,0,0-3.33,3.26c-.02,2.64,0,5.28,0,7.91V92a2.9,2.9,0,0,1-3.78-2.85c-.02-5.89-.01-11.78-.01-17.67A2.125,2.125,0,0,1,49.69,71.15Z" fill="#fff"/>
    <path id="Path_58398" data-name="Path 58398" d="M54.62,93.31H62.7a4.026,4.026,0,0,0-1.1,2.73,3.539,3.539,0,0,0,1.15,2.66c1.71,1.55,3.52,1.41,5.37.16v5.17c-.15.01-.31.02-.47.02H56.7a1.9,1.9,0,0,1-2.09-2.09V94.05C54.62,93.81,54.62,93.58,54.62,93.31Z" fill="#fff"/>
    <path id="Path_58399" data-name="Path 58399" d="M68.13,81.34v5.28a4.138,4.138,0,0,0-3.55-.97,3.711,3.711,0,0,0-2.01,1.12c-1.3,1.4-1.31,3.03-.01,5.29H54.67c-.01-.12-.04-.24-.04-.37,0-2.77-.01-5.54,0-8.31a1.867,1.867,0,0,1,2.04-2.04H68.13Z" fill="#fff"/>
    <path id="Path_58400" data-name="Path 58400" d="M81.89,71.14v9.07H70.49V71.14Z" fill="#fff"/>
    <path id="Path_58401" data-name="Path 58401" d="M71.03,92.7c.7.3,1.41.56,2.09.89a2.552,2.552,0,0,1,1.52,2.7,2.892,2.892,0,0,1-2.07,2.31,2.579,2.579,0,0,1-2.9-1.3,12.314,12.314,0,0,1-.53-1.17c-.15-.38-.29-.76-.45-1.21-.29.73-.55,1.41-.84,2.07a2.516,2.516,0,0,1-1.72,1.53,2.736,2.736,0,0,1-3.26-1.6,2.584,2.584,0,0,1,1.28-3.29c.7-.36,1.45-.62,2.25-.96a12.006,12.006,0,0,1-1.48-.59,6.052,6.052,0,0,1-1.73-1.19,2.651,2.651,0,0,1,4.3-3.1,14.865,14.865,0,0,1,.96,2.06c.07.16.12.34.22.61.25-.65.46-1.21.69-1.76a2.926,2.926,0,0,1,1.93-1.91,2.8,2.8,0,0,1,3.14,1.52,2.571,2.571,0,0,1-.93,3.24A24.254,24.254,0,0,1,71.03,92.7Zm-1.54-.91c.05.05.11.09.16.14,1.05-.41,2.1-.79,3.13-1.23a1.3,1.3,0,0,0,.76-1.34,1.4,1.4,0,0,0-.85-1.3,1.451,1.451,0,0,0-2.06.7C70.18,89.73,69.86,90.78,69.49,91.79Zm-1.55,1.9c-.06-.07-.12-.13-.18-.2-1.06.43-2.15.82-3.19,1.3a1.338,1.338,0,0,0-.65,1.49,1.582,1.582,0,0,0,1.37,1.26,1.364,1.364,0,0,0,1.42-.78C67.15,95.75,67.53,94.71,67.94,93.69Zm-.15-1.74a1.288,1.288,0,0,1,.16-.17c-.39-1.01-.75-2.04-1.18-3.03a1.416,1.416,0,0,0-1.59-.83,1.586,1.586,0,0,0-1.27,1.29,1.384,1.384,0,0,0,.83,1.54C65.73,91.2,66.77,91.55,67.79,91.95Zm1.87,1.5a1.141,1.141,0,0,0-.11.11c.21.64.39,1.28.62,1.91a9.523,9.523,0,0,0,.57,1.26,1.42,1.42,0,0,0,1.55.71,1.621,1.621,0,0,0,1.24-1.33,1.413,1.413,0,0,0-.88-1.52C71.68,94.18,70.66,93.83,69.66,93.45Z" fill="#fff"/>
    <path id="Path_58406" data-name="Path 58406" d="M70.72,90.46a13.582,13.582,0,0,1,.73-1.54.876.876,0,0,1,.71-.36,1.119,1.119,0,0,1,.58.64c.13.31-.06.57-.38.7-.51.22-1.02.45-1.53.67A1.142,1.142,0,0,0,70.72,90.46Z" fill="#fff"/>
    <path id="Path_58407" data-name="Path 58407" d="M66.64,94.9a11.576,11.576,0,0,1-.73,1.55,1,1,0,0,1-.77.37.765.765,0,0,1-.52-.54.934.934,0,0,1,.35-.73,13.91,13.91,0,0,1,1.55-.76C66.56,94.83,66.6,94.86,66.64,94.9Z" fill="#fff"/>
    <path id="Path_58408" data-name="Path 58408" d="M66.47,90.65c-.51-.23-1.02-.44-1.52-.69a.623.623,0,0,1-.39-.81,1.248,1.248,0,0,1,.63-.61c.36-.14.62.12.76.46.21.52.42,1.03.64,1.55A.4.4,0,0,0,66.47,90.65Z" fill="#fff"/>
    <path id="Path_58409" data-name="Path 58409" d="M70.93,94.74c.51.23,1.02.45,1.52.7a.635.635,0,0,1,.36.83,1.171,1.171,0,0,1-.61.57c-.35.13-.58-.15-.72-.46-.23-.5-.44-1.02-.67-1.53A1.2,1.2,0,0,1,70.93,94.74Z" fill="#fff"/>
  </g>
</svg>
