<svg xmlns="http://www.w3.org/2000/svg" width="50" height="50" viewBox="0 0 50 50">
  <g id="Group_18765" data-name="Group 18765" transform="translate(17458 -14526)">
    <rect id="Rectangle_17963" data-name="Rectangle 17963" width="50" height="50" transform="translate(-17458 14526)" fill="none"/>
    <g id="Group_16213" data-name="Group 16213" transform="translate(-17815 14160)">
      <path id="Subtraction_3" data-name="Subtraction 3" d="M20.439,27.857H6.648A7.81,7.81,0,0,0,7.7,23.117H9.542c2.329,0,4.723.007,6.964.015h.07l.527,0c2.134.007,4.339.014,6.506.014.4,0,.615.055.73.191s.135.353.071.732a7.594,7.594,0,0,1-.308,1.2A3.665,3.665,0,0,1,20.439,27.857ZM3.508,27.792A3.269,3.269,0,0,1,.463,26.041,3.705,3.705,0,0,1,0,24.132V.739C0,.152.152,0,.739,0H12.418a10.333,10.333,0,0,0-.256,2.288A10.324,10.324,0,0,0,21.7,12.552v9.456H17.484c-1.536,0-3.1-.007-4.61-.014l-.374,0h-.049c-1.613-.008-3.34-.015-5.032-.015-.7,0-.8.17-.832.8,0,.139-.008.278-.012.418a15.3,15.3,0,0,1-.2,2.507,2.232,2.232,0,0,1-2.34,2.062C3.85,27.783,3.674,27.792,3.508,27.792Zm-.7-14.277a.936.936,0,0,0,0,1.871H16.84a.936.936,0,1,0,0-1.871Zm0-3.742a.936.936,0,0,0,0,1.871h8.42a.936.936,0,1,0,0-1.871Zm0-3.742a.936.936,0,0,0,0,1.871H9.355a.936.936,0,1,0,0-1.871Z" transform="translate(366 380.691)" fill="#fff"/>
      <g id="Group_16144" data-name="Group 16144" transform="translate(379.045 373)">
        <path id="Path_58332" data-name="Path 58332" d="M958.28,786.79a9.69,9.69,0,1,1-9.69-9.69A9.639,9.639,0,0,1,958.28,786.79Zm-9.69,8.546a8.584,8.584,0,1,0-8.546-8.622A8.5,8.5,0,0,0,948.59,795.335Z" transform="translate(-938.9 -777.099)" fill="#fff"/>
        <path id="Path_58333" data-name="Path 58333" d="M948.944,788.046v5.341c0,.382,0,.382-.382.382h-3.357c-.305,0-.305,0-.305-.305V782.705c0-.305,0-.305.305-.305h3.357c.382,0,.382,0,.382.382Z" transform="translate(-940.322 -778.355)" fill="#fff"/>
        <path id="Path_58334" data-name="Path 58334" d="M957.02,788.022v5.341c0,.382,0,.382-.381.382h-3.357c-.305,0-.382,0-.382-.382V782.682c0-.305,0-.381.382-.381h3.357c.305,0,.305,0,.305.305C957.02,784.436,957.02,786.191,957.02,788.022Z" transform="translate(-942.218 -778.331)" fill="#fff"/>
      </g>
    </g>
  </g>
</svg>
