<svg xmlns="http://www.w3.org/2000/svg" width="40" height="40" viewBox="0 0 40 40">
  <g id="Item_Default_Image" data-name="Item Default Image" transform="translate(-4702 -6663)">
    <rect id="Rectangle_18506" data-name="Rectangle 18506" width="40" height="40" transform="translate(4702 6663)" fill="none"/>
    <g id="Group_17350" data-name="Group 17350" transform="translate(3930.3 6516.8)">
      <path id="Path_61708" data-name="Path 61708" d="M793.726,180.841a4.456,4.456,0,0,0,.7,2.734H782.2a1.366,1.366,0,0,1-1.5-1.447v-19.78a1.325,1.325,0,0,1,1.447-1.447h2.519a.68.68,0,0,1,.322.054v1.072a1.575,1.575,0,0,0,1.662,1.662h6.861a1.592,1.592,0,0,0,1.662-1.608v-1.126c1.126,0,2.144-.054,3.216,0a1.254,1.254,0,0,1,1.072,1.34v14.795a12.878,12.878,0,0,0-1.5-.161,4.321,4.321,0,0,0-3.967,2.627.475.475,0,0,1-.536.322h-4.449c-.107,0-.268-.054-.375.054-.161.107-.375.268-.375.429s.161.322.322.429a1.045,1.045,0,0,0,.429.054h4.717Zm-1.179-8.737H796.3a.563.563,0,0,0,.482-.268.7.7,0,0,0-.107-.536.748.748,0,0,0-.482-.161h-7.183a.578.578,0,0,0-.429.107.87.87,0,0,0-.268.482c0,.161.214.268.375.375.107.054.214,0,.322,0Zm.054,4.342h3.7c.268,0,.536-.054.59-.375s-.161-.536-.59-.536h-7.236q-.643,0-.643.482c0,.322.214.482.7.482C790.188,176.445,791.421,176.445,792.6,176.445Zm0-9.649h-3.645q-.643,0-.643.482t.643.482h7.29c.429,0,.643-.161.59-.482,0-.375-.268-.482-.59-.482Zm-7.987,9.273c-.214-.214-.322-.375-.482-.536a.438.438,0,0,0-.643,0,.351.351,0,0,0,0,.59,6.908,6.908,0,0,1,.858.911.377.377,0,0,0,.643-.054l1.93-2.573a.414.414,0,0,0-.161-.643c-.268-.161-.482,0-.643.214C785.685,174.676,785.149,175.319,784.613,176.07Zm.054-8.791-.536-.536c-.214-.214-.429-.161-.643.054a.378.378,0,0,0,0,.59,6.908,6.908,0,0,1,.858.911c.268.268.482.268.7-.054l1.93-2.573a.387.387,0,0,0-.107-.59.38.38,0,0,0-.59.054c-.054.054-.107.161-.214.268C785.632,165.992,785.149,166.636,784.667,167.279Zm0,13.133-.482-.482a.4.4,0,0,0-.643,0c-.214.214-.214.429,0,.59l.858.858c.268.268.482.214.7-.054l1.93-2.573a.358.358,0,0,0-.054-.536c-.214-.214-.482-.161-.7.107C785.685,179.018,785.2,179.661,784.667,180.412Zm0-8.791a5.338,5.338,0,0,0-.59-.536c-.214-.214-.429-.107-.59.054s-.268.375-.054.59c.268.268.536.59.8.858.322.322.536.322.8-.054.643-.8,1.233-1.662,1.876-2.466a.421.421,0,0,0,0-.59c-.214-.214-.482-.214-.7.107C785.685,170.281,785.2,170.978,784.667,171.621Z" transform="translate(0 -4.036)" fill="#704332"/>
      <path id="Path_61709" data-name="Path 61709" d="M792.3,154.451c.161-1.394.911-2.251,2.091-2.251,1.233,0,1.983.75,2.2,2.3h1.233a1,1,0,0,1,1.126,1.072v2.412a.962.962,0,0,1-1.072,1.072h-6.808A1,1,0,0,1,790,157.936v-2.412a1.056,1.056,0,0,1,1.072-1.126h1.179C792.2,154.5,792.251,154.5,792.3,154.451Zm3-.161a.847.847,0,0,0-.858-.858.893.893,0,0,0-.858.911.882.882,0,0,0,.858.858A.932.932,0,0,0,795.307,154.291Z" transform="translate(-4.315)" fill="#704332"/>
      <path id="Path_61710" data-name="Path 61710" d="M809.706,199.365a3.833,3.833,0,0,1,0-7.665,3.833,3.833,0,1,1,0,7.665Zm-.75-3.216a5.332,5.332,0,0,1-.536-.59.458.458,0,0,0-.7,0,.425.425,0,0,0,0,.7l.858.858c.375.375.59.375.911-.054l1.93-2.573c.268-.322.268-.59,0-.75-.268-.214-.482-.161-.75.214C810.135,194.648,809.545,195.4,808.955,196.149Z" transform="translate(-11.692 -18.327)" fill="#704332"/>
      <path id="Path_61711" data-name="Path 61711" d="M798.415,155.358a.93.93,0,0,1-.858.911.882.882,0,0,1-.858-.858.93.93,0,0,1,.858-.911A.882.882,0,0,1,798.415,155.358Z" transform="translate(-7.423 -1.067)" fill="#704332"/>
    </g>
  </g>
</svg>
