<svg id="Mada" xmlns="http://www.w3.org/2000/svg" width="102.049" height="33.936" viewBox="0 0 102.049 33.936">
  <path id="Path_58448" data-name="Path 58448" d="M472.62,82.28c.138-.865.252-1.615.378-2.408h6.346c-.066-1.537-.018-3.176-.24-4.785-.2-1.483-1.135-2.1-2.648-2.107h-2.732c.108-.762.192-1.435.318-2.1a.5.5,0,0,1,.366-.306,28.328,28.328,0,0,1,3.5.048,5,5,0,0,1,4.653,4.959c.072,1.141.054,2.293.072,3.44.006.252,0,.5,0,.847h.678c1.639,0,3.272-.036,4.905.018.684.024.859-.288.859-.859V74.313a3.121,3.121,0,0,1,2.582-3.5,8.193,8.193,0,0,1,3.716-.288,5.508,5.508,0,0,1,4.779,5.451,8.77,8.77,0,0,1-.084,1.777,5.48,5.48,0,0,1-6.256,4.821c-.925-.084-1.831-.336-2.744-.5a3.141,3.141,0,0,0-.75-.018c-.865.066-1.729.2-2.594.21-4.761.018-9.516.012-14.277.012Zm19.62-2.708c.36.066.606.132.859.15a11.876,11.876,0,0,0,1.459.078,2.147,2.147,0,0,0,2.155-1.651,5.336,5.336,0,0,0-.006-3.38,2.636,2.636,0,0,0-.877-1.195,3.9,3.9,0,0,0-3.6.18C492.24,75.711,492.24,77.615,492.24,79.572Z" transform="translate(-398.113 -70.425)"/>
  <path id="Path_58449" data-name="Path 58449" d="M453.986,70.678c0,.234.012.36,0,.486-.084.606-.18,1.219-.282,1.9-.228.012-.45.03-.678.03-2.059,0-4.125,0-6.184.006a5.734,5.734,0,0,0-1.015.078,1.269,1.269,0,0,0-1.183,1.459,1.3,1.3,0,0,0,1.279,1.4c1.015.066,2.035.024,3.056.054a8.777,8.777,0,0,1,1.645.12,3.6,3.6,0,0,1,2.954,4,3.462,3.462,0,0,1-3.6,3.542c-2.287.144-4.587.114-6.88.126-2.7.018-5.4.006-8.093-.012a9.771,9.771,0,0,1-1.777-.144,4.522,4.522,0,0,1-3.848-3.9,11.865,11.865,0,0,1,.1-5.055,4.923,4.923,0,0,1,4.9-3.872c1.483-.03,2.966-.006,4.515-.006-.12.829-.234,1.591-.354,2.408h-2.726c-1.933,0-2.84.714-3.08,2.636a14.049,14.049,0,0,0-.018,3.176c.168,1.579,1.159,2.347,2.87,2.353,2.93.018,5.866.012,8.8.018,1.381,0,2.762.018,4.143-.006a1.619,1.619,0,0,0,1.747-1.273,1.6,1.6,0,0,0-1.621-2.011c-1.273-.03-2.552.018-3.824-.03a3.308,3.308,0,0,1-3.368-2.654,3.7,3.7,0,0,1,3.68-4.7c2.582-.174,5.181-.1,7.769-.132C453.259,70.672,453.6,70.678,453.986,70.678Z" transform="translate(-380.746 -70.525)"/>
  <path id="Path_58450" data-name="Path 58450" d="M439.06,110.306v8.405h-3.218c-.012-.24-.036-.468-.036-.69,0-2.083-.006-4.167,0-6.25,0-.654-.024-1.321-.726-1.627a2.868,2.868,0,0,0-2.287.144c-.12.048-.168.4-.168.612-.012,2.317-.006,4.635-.006,6.946v.817H429.3c-.012-.192-.03-.4-.03-.6,0-2.744-.006-5.481,0-8.225,0-1.243.306-1.675,1.495-2.035a11.243,11.243,0,0,1,5.223-.426,1.392,1.392,0,0,1,.552.144,2.609,2.609,0,0,0,2.552.066,7.01,7.01,0,0,1,3.9-.138,3.018,3.018,0,0,1,2.582,2.858c.1,2.78.03,5.559.03,8.393h-3.272v-1.747c0-1.783.006-3.572-.006-5.355-.006-1.189-.5-1.669-1.7-1.591A11.894,11.894,0,0,0,439.06,110.306Z" transform="translate(-380.788 -85.135)"/>
  <path id="Path_58451" data-name="Path 58451" d="M487.519,104.329c0-1.471.024-2.894-.012-4.311-.018-.54.144-.744.684-.8.877-.1,1.747-.282,2.7-.444v13.9c0,1.609-.294,1.969-1.861,2.408a11.49,11.49,0,0,1-4.359.312,4.73,4.73,0,0,1-4.419-4.359,10.922,10.922,0,0,1,.054-3.1,4.6,4.6,0,0,1,5.788-3.926C486.54,104.1,486.99,104.209,487.519,104.329Zm0,5.487c0-.829-.024-1.657.012-2.486a.566.566,0,0,0-.546-.684,9.141,9.141,0,0,0-1.129-.168,1.942,1.942,0,0,0-2.233,1.717,9.987,9.987,0,0,0-.012,2.9,2.154,2.154,0,0,0,2.443,1.915c.294-.006.588-.078.883-.09.456-.018.618-.216.594-.678C487.489,111.432,487.519,110.627,487.519,109.817Z" transform="translate(-401.13 -81.752)"/>
  <path id="Path_58452" data-name="Path 58452" d="M511.508,119.058c-.63-.108-1.237-.186-1.825-.318a8.018,8.018,0,0,0-2.834-.054,10.865,10.865,0,0,1-3.212-.054,3.227,3.227,0,0,1-.312-6.19,18.28,18.28,0,0,1,3.194-.456,16.984,16.984,0,0,1,1.747-.012c.288-1.4-.276-2.257-1.579-2.2a30.921,30.921,0,0,0-3.758.582,8.9,8.9,0,0,0-.991.306c-.12-.811-.234-1.573-.354-2.371a14.448,14.448,0,0,1,6.658-.979c1.957.294,3.146,1.327,3.236,3.254C511.6,113.378,511.508,116.182,511.508,119.058Zm-3.11-5.175c-1.051.066-2.029.06-2.978.2a1.2,1.2,0,0,0-.991,1.363,1.081,1.081,0,0,0,1.075,1.189,15.758,15.758,0,0,0,2.684-.33c.09-.012.2-.264.2-.4C508.41,115.294,508.4,114.675,508.4,113.883Z" transform="translate(-409.516 -85.128)"/>
  <path id="Path_58453" data-name="Path 58453" d="M469.973,119.06c-.582-.1-1.153-.174-1.705-.306a8.007,8.007,0,0,0-2.954-.054,10.669,10.669,0,0,1-3.152-.066,3.229,3.229,0,0,1-.318-6.19,17.651,17.651,0,0,1,3.194-.456,16.982,16.982,0,0,1,1.747-.012c.288-1.459-.276-2.287-1.639-2.2a34.362,34.362,0,0,0-3.878.642,6.4,6.4,0,0,0-.8.246c-.12-.8-.234-1.555-.354-2.359,2.408-.78,4.785-1.471,7.313-.841a3.146,3.146,0,0,1,2.582,3.146c.06,2.7.03,5.4.036,8.1A2.118,2.118,0,0,1,469.973,119.06Zm-3.044-5.169c-1.057.06-2.011.048-2.948.192a1.211,1.211,0,0,0-1.027,1.4,1.082,1.082,0,0,0,1.093,1.177,16.415,16.415,0,0,0,2.684-.342c.084-.012.186-.228.186-.348C466.941,115.319,466.929,114.689,466.929,113.89Z" transform="translate(-392.945 -85.129)"/>
  <rect id="Rectangle_18004" data-name="Rectangle 18004" width="43.203" height="14.421" transform="translate(0 0.009)" fill="#259bd6"/>
  <rect id="Rectangle_18005" data-name="Rectangle 18005" width="43.203" height="14.421" transform="translate(0 19.515)" fill="#84b740"/>
</svg>
