<svg xmlns="http://www.w3.org/2000/svg" width="112" height="126.698" viewBox="0 0 112 126.698">
  <g id="Group_18959" data-name="Group 18959" transform="translate(-50 -172)">
    <path id="Subtraction_13" data-name="Subtraction 13" d="M-12964.2-4854.03a5.97,5.97,0,0,1-3.874-1.875c-1.1-1-2.222-1.993-3.466-3.094l-.1-.085-.026-.023-.172-.152-.049-.044c-1.449-1.285-2.948-2.614-4.409-3.961a1.981,1.981,0,0,0-1.321-.691,1.888,1.888,0,0,0-1.232.606c-1.065.993-2.162,1.963-3.223,2.9l-.012.011-.107.095c-.8.706-1.657,1.459-2.456,2.185a5.289,5.289,0,0,1-3.622,1.621,4.99,4.99,0,0,1-1.918-.408c-1.891-.753-2.771-2.308-2.771-4.891-.042-16.011-.042-32.137-.042-47.732v-47.39a6.538,6.538,0,0,1,1.157-4.05,3.874,3.874,0,0,1,3.166-1.474,5.962,5.962,0,0,1,1.128.114,7.356,7.356,0,0,1,2.945,1.6c1.721,1.408,3.518,3.009,5.494,4.9a2.158,2.158,0,0,0,1.432.759,2.253,2.253,0,0,0,1.467-.76c1.975-1.91,4.091-3.764,5.958-5.4l.007-.006.074-.065.383-.336.18-.158.159-.139c.469-.411.953-.836,1.421-1.254a5.71,5.71,0,0,1,3.737-1.768,5.606,5.606,0,0,1,3.707,1.768c.346.31.7.626,1.04.923l.574.508c2,1.773,4.276,3.783,6.434,5.794a2.5,2.5,0,0,0,1.646.9,2.413,2.413,0,0,0,1.6-.858c2.243-2.162,4.615-4.23,6.909-6.23l.076-.066.013-.013.6-.519.453-.4a5.746,5.746,0,0,1,3.743-1.79,4.791,4.791,0,0,1,2.667.929,30.1,30.1,0,0,0-1.17,8.322,30.19,30.19,0,0,0,27.348,29.885v42.89c0,1.926,0,3.9-.008,5.756l0,.87v.2c-.01,4.256-.02,8.658.01,13.079,0,2.4,0,4.872-2.771,6.013a4.921,4.921,0,0,1-1.888.4c-1.8,0-3.274-1.167-4.474-2.309-.833-.807-1.693-1.557-2.651-2.383-.733-.635-1.565-1.354-2.325-2.074a1.87,1.87,0,0,0-1.245-.643,1.978,1.978,0,0,0-1.308.688c-1.641,1.536-3.343,3.053-4.988,4.52l-.012.011-.185.164-.167.147-.224.2-.01.008c-.911.813-1.853,1.652-2.767,2.479a5.684,5.684,0,0,1-3.724,1.754,5.686,5.686,0,0,1-3.721-1.754l-.127-.111-.039-.033-.4-.348-.024-.022c-2.53-2.218-5.146-4.511-7.636-6.844a2.259,2.259,0,0,0-1.464-.763,2.135,2.135,0,0,0-1.435.763c-2.734,2.558-5.617,5.078-8.161,7.3l-.037.033-.026.023A5.746,5.746,0,0,1-12964.2-4854.03Zm-16.8-28.7a2,2,0,0,0-2,2,2,2,0,0,0,2,2h61a2,2,0,0,0,2-2,2,2,0,0,0-2-2Zm0-15a2,2,0,0,0-2,2,2,2,0,0,0,2,2h61a2,2,0,0,0,2-2,2,2,0,0,0-2-2Zm0-14a2,2,0,0,0-2,2,2,2,0,0,0,2,2h26a2,2,0,0,0,2-2,2,2,0,0,0-2-2Z" transform="translate(13043 5152.729)" fill="#c98209"/>
    <circle id="Ellipse_286" data-name="Ellipse 286" cx="25" cy="25" r="25" transform="translate(112 172)" fill="#c98209"/>    
    <text id="O" transform="translate(59 229)" fill="#fff" font-size="22" font-family="OpenSans-Semibold, Open Sans" font-weight="600"><tspan x="0" y="0">O</tspan></text>
  </g>
</svg>
