<svg xmlns="http://www.w3.org/2000/svg" width="49.999" height="50.682" viewBox="0 0 49.999 50.682">
  <g id="Other_Card" data-name="Other Card" transform="translate(-10595.797 -19508.531)">
    <path id="Path_58391" data-name="Path 58391" d="M10597.58,21756.281c-.021-.826-.067-16.254.012-17.254a4.542,4.542,0,0,1,1.348-2.871,4.088,4.088,0,0,1,3.093-1.018h35.944c1.137,0,2.9.115,3.959-.016a22.387,22.387,0,0,0,.029-2.549c0-3.354-1.674-3.01-4.5-3.01h-38.855c-1.443,0-2.712.432-2.784,2.3-.065,1.7,0,3.561,0,5.279v15.746a4.716,4.716,0,0,0,.287,2.311A1.937,1.937,0,0,0,10597.58,21756.281Z" transform="translate(0 -2204.65)" fill="#fff"/>
    <path id="Path_58392" data-name="Path 58392" d="M11093.2,19526.609c5.9.055,11.833,0,17.738,0,2.1,0,4.2.016,6.3,0l11.237.008c-.3-.4-8.984-5.678-10.027-6.369l-4.984-3.123c-1.646-1.053-3.34-2.133-5.036-3.152-.881-.529-1.595-1.031-2.466-1.551-.84-.5-1.693-1.27-3-.674-.9.408-1.313,1.334-1.87,2.223-.519.824-1.042,1.67-1.572,2.525-1.5,2.412-3.326,5.166-4.74,7.541C11094.446,19524.59,11093.354,19526.2,11093.2,19526.609Z" transform="translate(-493.593 -3)" fill="#fff"/>
    <path id="Path_58393" data-name="Path 58393" d="M11097.281,22710.4h42.051a2.158,2.158,0,0,1,2.061,2.232v1.652h-46.174v-1.652A2.158,2.158,0,0,1,11097.281,22710.4Zm44.111,7.76v16.8a2.157,2.157,0,0,1-2.061,2.23h-42.051a2.158,2.158,0,0,1-2.062-2.23v-16.8Zm-22.564,13.014h9.3a.823.823,0,0,1,.785.852h0a.822.822,0,0,1-.785.85h-9.3a.824.824,0,0,1-.787-.85h0A.824.824,0,0,1,11118.828,22731.174Zm-9.691,0h4.8a.823.823,0,0,1,.787.852h0a.822.822,0,0,1-.787.85h-4.8a.822.822,0,0,1-.787-.85h0A.823.823,0,0,1,11109.137,22731.174Zm-9.561,0h4.8a.823.823,0,0,1,.787.852h0a.822.822,0,0,1-.787.85h-4.8a.822.822,0,0,1-.787-.85h0A.823.823,0,0,1,11099.576,22731.174Zm-.549-9.258h22.051a.432.432,0,0,1,.412.445v1.752a.432.432,0,0,1-.412.447h-22.051a.432.432,0,0,1-.412-.447v-1.752A.432.432,0,0,1,11099.027,22721.916Z" transform="translate(-495.597 -3177.982)" fill="#fff"/>
  </g>
</svg>
