<svg xmlns="http://www.w3.org/2000/svg" width="40" height="40" viewBox="0 0 40 40">
  <g id="POS_Line_Display" data-name="POS Line Display" transform="translate(-3952 -6943)">
    <rect id="Rectangle_18499" data-name="Rectangle 18499" width="40" height="40" transform="translate(3952 6943)" fill="none"/>
    <g id="Group_17278" data-name="Group 17278" transform="translate(3682.51 6787.5)">
      <path id="Path_61512" data-name="Path 61512" d="M321.671,174.7c-.106-1.748-.265-3.55-.371-5.3h1.642c.159,1.748.371,3.5.53,5.3Z" transform="translate(-21.538 -4.184)" fill="#704332"/>
      <g id="Group_17277" data-name="Group 17277" transform="translate(275.49 160.5)">
        <path id="Path_61513" data-name="Path 61513" d="M287.364,177.19H276.29a.72.72,0,0,1-.795-.848c.106-1.325.212-2.7.318-4.027s.212-2.6.265-3.921l.318-4.133c.053-1.06.159-2.066.212-3.126a.644.644,0,0,1,.742-.636h19.975a1.068,1.068,0,0,1,.583.159.654.654,0,0,1,.212.424c.053.689.106,1.431.159,2.119.106,1.378.212,2.808.318,4.186.106,1.113.159,2.225.265,3.338.106,1.537.212,3.126.371,4.663,0,.318.053.636.053,1.007a.67.67,0,0,1-.742.742h-9.325C288.583,177.19,288,177.19,287.364,177.19Zm0-2.013h9.272a.631.631,0,0,0,.689-.742c-.106-1.59-.159-3.126-.265-4.716-.106-2.384-.265-4.769-.424-7.153a.682.682,0,0,0-.742-.689h-17.22a.706.706,0,0,0-.742.636c-.106,1.431-.159,2.808-.212,4.239-.053,1.272-.159,2.543-.212,3.815-.053,1.325-.159,2.6-.212,3.921a2.019,2.019,0,0,0,.159.53.63.63,0,0,0,.583.212C281.271,175.176,284.291,175.176,287.364,175.176Z" transform="translate(-275.49 -160.5)" fill="#704332"/>
        <path id="Path_61514" data-name="Path 61514" d="M310.24,202.006h5.245a1.547,1.547,0,0,1,.477.106c.212.053.265.212.265.424v6.093a.627.627,0,0,1-.689.636H304.995c-.53,0-.795-.212-.795-.795v-5.881a.616.616,0,0,1,.689-.689h1.484C307.644,202.006,308.916,202.006,310.24,202.006Zm-.053,5.987h3.974a.662.662,0,0,0,.636-.954.719.719,0,0,0-.689-.371h-7.842a.74.74,0,0,0-.477.159.587.587,0,0,0-.212.742.663.663,0,0,0,.689.424Zm-3.338-3.338h.689a.663.663,0,0,0,.053-1.325h-1.378a.657.657,0,0,0-.636.689.612.612,0,0,0,.636.636Zm6.994-1.378h-.371a.644.644,0,0,0-.636.636.691.691,0,0,0,.636.689h.795a.588.588,0,0,0,.583-.583.684.684,0,0,0-.477-.689C314.214,203.278,314.055,203.331,313.843,203.278Z" transform="translate(-288.989 -179.965)" fill="#704332"/>
        <path id="Path_61515" data-name="Path 61515" d="M284.206,203.3c-.053.371-.053.689-.106,1.007-.106.689.159,1.007.848,1.007h5.139v1.325H277c.265-.954.53-1.907.848-2.861.106-.318.318-.424.689-.424h5.457A.319.319,0,0,1,284.206,203.3Z" transform="translate(-276.2 -180.623)" fill="#704332"/>
        <path id="Path_61516" data-name="Path 61516" d="M289.952,212.1v1.96H276.6V212.1Z" transform="translate(-276.012 -184.76)" fill="#704332"/>
        <path id="Path_61517" data-name="Path 61517" d="M297.61,199.8H293c.053-.424.053-.795.106-1.166.106-1.272.265-2.6.371-3.868,0-.212.053-.265.265-.265h3.868c.053.53.106,1.007.159,1.484l.159,1.748a.672.672,0,0,1-.053.318,1.91,1.91,0,0,0-.318,1.06A3.021,3.021,0,0,1,297.61,199.8Z" transform="translate(-283.723 -176.486)" fill="#704332"/>
        <path id="Path_61518" data-name="Path 61518" d="M298.92,176.25H281.7c.212-3.55.371-7.1.583-10.65h16.054C298.5,169.15,298.708,172.7,298.92,176.25Zm-10.6-9.325H284.3a.7.7,0,0,0-.689.689.657.657,0,0,0,.689.636h8a.6.6,0,0,0,.424-.159.677.677,0,0,0-.477-1.166Zm0,2.649H284.3a.639.639,0,0,0-.636.424.653.653,0,0,0,.636.9h7.948a.656.656,0,0,0,.212-1.272,1.033,1.033,0,0,0-.424-.053Zm6.941,5.351h1.642a.627.627,0,0,0,.689-.636.668.668,0,0,0-.689-.689h-3.232a.638.638,0,1,0,0,1.272C294.2,174.925,294.734,174.925,295.264,174.925ZM284.985,173.6h.636a.663.663,0,1,0,.053-1.325H284.3a.663.663,0,1,0,.053,1.325Z" transform="translate(-278.41 -162.898)" fill="#704332"/>
      </g>
    </g>
  </g>
</svg>
