<svg xmlns="http://www.w3.org/2000/svg" width="40" height="40" viewBox="0 0 40 40">
  <g id="POS_Title" data-name="POS Title" transform="translate(-401 -922)">
    <rect id="Rectangle_18479" data-name="Rectangle 18479" width="40" height="40" transform="translate(401 922)" fill="none"/>
    <g id="Group_17267" data-name="Group 17267" transform="translate(130.8 898.5)">
      <path id="Path_61475" data-name="Path 61475" d="M278.2,43.97V32.89a1.264,1.264,0,0,1,1.431-1.39h15.741a1.326,1.326,0,0,1,1.513,1.513c0,1.472-.041,2.944,0,4.416a11.632,11.632,0,0,1-.45,3.353c-.491,1.84-.981,3.721-1.431,5.6a1.67,1.67,0,0,0,.041.777c.123.572.327,1.145.491,1.717a1.262,1.262,0,0,0,1.063.981c.2.041.245.123.245.286v4.947a1.245,1.245,0,0,1-1.308,1.308H279.549a1.258,1.258,0,0,1-1.349-1.39Q278.2,49.49,278.2,43.97Zm9.772,7.441h5.315a.6.6,0,0,0,.613-.327c.164-.409-.123-.736-.613-.736H282.493a.564.564,0,0,0-.491.532.534.534,0,0,0,.491.532h5.479Zm-.45-14.351h5.029a.52.52,0,0,0,.572-.491.55.55,0,0,0-.532-.572H282.575c-.409,0-.654.2-.654.532s.245.532.654.532Zm-.491,8.055h4.62a.532.532,0,0,0,0-1.063h-9.24a.463.463,0,0,0-.45.491.514.514,0,0,0,.368.572,1.132,1.132,0,0,0,.368.041C284.129,45.115,285.56,45.115,287.031,45.115Zm-.286,4.211h4.211a.514.514,0,0,0,.572-.45.577.577,0,0,0-.327-.613,1.132,1.132,0,0,0-.368-.041h-8.3c-.368.041-.613.245-.613.532a.57.57,0,0,0,.613.572Zm-.736-2.126h3.434a.913.913,0,0,0,.532-.245.777.777,0,0,0,.041-.532.548.548,0,0,0-.572-.327h-6.869c-.368,0-.654.2-.654.532a.564.564,0,0,0,.613.532C283.72,47.2,284.864,47.2,286.009,47.2Zm1.554-8.872h-2.7c-.409,0-.654.2-.654.532a.583.583,0,0,0,.654.572h5.315c.409,0,.654-.2.654-.532s-.245-.532-.654-.532C289.321,38.328,288.462,38.328,287.563,38.328Z" fill="#704332"/>
      <path id="Path_61476" data-name="Path 61476" d="M326.43,44.975c-.2.777-.368,1.513-.572,2.249-.531,2.044-1.022,4.089-1.554,6.133a.823.823,0,0,1-.164.327c-.409.45-.818.859-1.268,1.308-.164.164-.286.164-.327-.082-.164-.572-.327-1.1-.491-1.676a.7.7,0,0,1,0-.409l2.453-9.69a1.159,1.159,0,0,1,1.267-.94,1.075,1.075,0,0,1,1.022,1.063,4.508,4.508,0,0,1-.082.736c.123.041.2.041.327.082a1.285,1.285,0,0,1,.981,1.595c-.2.859-.45,1.758-.654,2.617a.505.505,0,0,1-.654.409.487.487,0,0,1-.368-.7c.2-.777.368-1.513.572-2.249C327.044,45.139,327.044,45.139,326.43,44.975Z" transform="translate(-25.907 -6.32)" fill="#704332"/>
    </g>
  </g>
</svg>
