<svg xmlns="http://www.w3.org/2000/svg" width="40" height="40" viewBox="0 0 40 40">
  <g id="Group_18792" data-name="Group 18792" transform="translate(-35 -75)">
    <g id="Rectangle_74" data-name="Rectangle 74" transform="translate(35 75)" fill="none" stroke="#704332" stroke-width="1">
      <rect width="40" height="40" stroke="none"/>
      <rect x="0.5" y="0.5" width="39" height="39" fill="none"/>
    </g>
    <g id="shop_touch" data-name="shop touch" transform="translate(-168.025 -124.925)">
      <path id="Path_62470" data-name="Path 62470" d="M273.409,269.469a1.04,1.04,0,0,1,1.559.25c.927-.794,1.427-.662,1.839.353.412-.029.9-.191,1.133-.029a1.485,1.485,0,0,1,.471,1.059c.044,1.942.029,3.869.015,5.811a2.041,2.041,0,0,1-2.265,2.265c-.838,0-1.662-.029-2.5.015a1.7,1.7,0,0,1-1.721-.9q-1.368-2.67-2.648-5.384a1.008,1.008,0,0,1,.559-1.4c.633-.235.956.147,1.221.633a1.341,1.341,0,0,0,.427.5v-6.576a.921.921,0,0,1,.868-1c.633-.059.941.4,1,.941.059.662.029,1.324.029,1.986C273.409,268.468,273.409,268.924,273.409,269.469Z" transform="translate(-50.458 -47.882)" fill="#704331"/>
      <path id="Path_62471" data-name="Path 62471" d="M235.323,210.466a1.459,1.459,0,0,0-1.53-1.53q-11.1-.022-22.2,0a1.476,1.476,0,0,0-1.559,1.5c-.015,4.957-.015,9.9,0,14.857a1.362,1.362,0,0,0,1.206,1.442c2.368.044,4.751.015,7.179.015-.191-1.1-.309-1.206-1.265-1.206-1.324,0-2.648-.015-3.972,0-.559,0-.78-.206-.78-.78q.022-6.907,0-13.828c0-.5.162-.706.677-.706q9.29.022,18.594,0c.515,0,.691.206.691.691-.015,4.634,0,9.267,0,13.9,0,.485-.206.721-.706.721-.691-.015-1.368,0-2.059,0-.412,0-.721.044-.721.574s.25.677.721.662c1.4-.015,2.795,0,4.192-.015a1.418,1.418,0,0,0,1.53-1.515Zm-1.4,8.105a.736.736,0,1,1,.736-.736A.728.728,0,0,1,233.926,218.571Z" transform="translate(0 0)" fill="#704331"/>
    </g>
  </g>
</svg>
