<svg xmlns="http://www.w3.org/2000/svg" width="35.044" height="38.221" viewBox="0 0 35.044 38.221">
  <g id="preview" transform="translate(-387.3 -366.975)">
    <path id="Path_61464" data-name="Path 61464" d="M415.113,399.7c-1.766.284-1.647,1.482-1.542,2.695H387.3V366.979h.748c5.389,0,10.778-.015,16.167.015a1.742,1.742,0,0,1,1.093.449q3.929,3.862,7.784,7.784a1.742,1.742,0,0,1,.449,1.093c.03,2.949.015,5.883.045,8.832a1.1,1.1,0,0,0,.4.823c4.356,2.665,5.479,7.35,2.8,11.736-.03.06-.06.135-.09.195,1.871,1.871,3.742,3.742,5.644,5.629-.614.584-1.168,1.108-1.751,1.662C418.736,403.355,416.865,401.469,415.113,399.7Zm-13.173-6.227c.165-1.093.3-2.111.464-3.189h-9.97v-2.365h.838c3.323,0,6.631.015,9.955-.015a1.737,1.737,0,0,0,1.078-.449,7.964,7.964,0,0,1,4-2.2c.913-.165,1.856-.195,2.8-.269v-7.664h-7.964v-7.889H389.7v30.6h16.182a8.078,8.078,0,0,1-3.1-3.548.9.9,0,0,0-1.018-.614c-2.844.015-5.688.015-8.533.015-.269,0-.524-.015-.793-.03V393.49C395.653,393.475,398.812,393.475,401.94,393.475Zm2.5-.434a5.712,5.712,0,0,0,5.629,5.778,5.711,5.711,0,1,0,.12-11.422A5.689,5.689,0,0,0,404.44,393.041Zm1.153-18.188h3.338l-3.338-3.338Z" fill="#704332"/>
    <path id="Path_61465" data-name="Path 61465" d="M437.167,469.579v2.335H421.224a16.527,16.527,0,0,1,.03-1.931c.015-.15.389-.389.614-.389,1.272-.03,2.545-.015,3.817-.015h11.482Z" transform="translate(-28.834 -87.241)" fill="#704332"/>
  </g>
</svg>
