<svg xmlns="http://www.w3.org/2000/svg" width="40" height="40" viewBox="0 0 40 40">
  <g id="Print_Mandatory" data-name="Print Mandatory" transform="translate(-1571 -922)">
    <rect id="Rectangle_18479" data-name="Rectangle 18479" width="40" height="40" transform="translate(1571 922)" fill="none"/>
    <g id="Group_17273" data-name="Group 17273" transform="translate(720.1 898.671)">
      <path id="Path_61493" data-name="Path 61493" d="M880.424,67.82V60.026h-20.1V67.82a2.831,2.831,0,0,1-2.8-1.046,2.778,2.778,0,0,1-.618-1.806V56.509a2.729,2.729,0,0,1,2.661-2.709H880.9a3,3,0,0,1,1.9.57,2.589,2.589,0,0,1,1.046,2.091v8.459a2.789,2.789,0,0,1-2.424,2.851A3.524,3.524,0,0,1,880.424,67.82ZM877.62,57.7a.527.527,0,0,0,.523-.523.539.539,0,0,0-.57-.523.527.527,0,0,0-.523.523A.608.608,0,0,0,877.62,57.7Zm2.234-.523a.523.523,0,1,0-1.045,0,.539.539,0,0,0,.57.523A.521.521,0,0,0,879.854,57.174Z" transform="translate(0 -12.594)" fill="#704332"/>
      <path id="Path_61494" data-name="Path 61494" d="M867.447,67.9h16.823v7.129a1.771,1.771,0,0,1-1.853,1.853H869.253a1.871,1.871,0,0,1-1.806-1.426c0-.1-.047-.19-.047-.285C867.447,72.747,867.447,70.371,867.447,67.9Zm15.113,2.281h-13.4v.808c0,.238.048.285.285.285h12.974c.047,0,.143-.1.143-.1Zm0,3.849v-.76c0-.333,0-.333-.333-.333H869.3c-.048,0-.143.048-.143.1v.95C873.626,74.031,878.093,74.031,882.56,74.031Z" transform="translate(-5.51 -19.993)" fill="#704332"/>
      <path id="Path_61495" data-name="Path 61495" d="M900.52,29.8a4.444,4.444,0,1,0,4.467,4.467A4.442,4.442,0,0,0,900.52,29.8Zm3.089,3.137-.713.713-.9.9h0l-.9.9L900.044,36.5a.661.661,0,0,1-.9,0l-.713-.713-.951-.95a.684.684,0,0,1-.19-.713.661.661,0,0,1,.57-.475.545.545,0,0,1,.57.238l.523.523h0l.143.143h0l.475.475.238-.238,2.851-2.851a.609.609,0,0,1,.665-.19.662.662,0,0,1,.475.523A.674.674,0,0,1,903.609,32.937Z" transform="translate(-20.571)" fill="#704332"/>
      <path id="Path_61496" data-name="Path 61496" d="M879.123,37a5.523,5.523,0,0,1,.38-2H868.05a1.793,1.793,0,0,0-1.758,1.806c.047,2.091,0,4.135,0,6.226,0,.428-.1.428.38.428h17.3c.238,0,.285-.048.285-.285v-.428A5.882,5.882,0,0,1,879.123,37Z" transform="translate(-4.924 -2.729)" fill="#704332"/>
    </g>
  </g>
</svg>
