<svg xmlns="http://www.w3.org/2000/svg" width="40" height="40" viewBox="0 0 40 40">
  <g id="Print_Type_Order_" data-name="Print Type (Order)" transform="translate(-1196 -922)">
    <rect id="Rectangle_18488" data-name="Rectangle 18488" width="40" height="40" transform="translate(1196 922)" fill="none"/>
    <g id="Group_17383" data-name="Group 17383" transform="translate(289.3 393.6)">
      <path id="Path_61846" data-name="Path 61846" d="M919.966,555.281H914a1.361,1.361,0,0,1-1.3-1.371v-7.334a1.423,1.423,0,0,1,1.508-1.439h3.564v-4.456c0-.48.206-.754.685-.685h.96c.685,0,.754.068.754.754v3.839c0,.411.069.548.48.548H933.4v-4.387c0-.48.206-.754.685-.685h1.028c.48-.068.685.206.685.685v3.77c0,.48.137.685.617.685.96-.068,1.919,0,2.879,0a1.513,1.513,0,0,1,1.645,1.508v7.2a1.443,1.443,0,0,1-1.3,1.508c-1.988.069-3.907,0-5.964,0v-5.484a2.465,2.465,0,0,0-2.6-2.673c-2.879,0-5.758.069-8.568,0a2.482,2.482,0,0,0-2.6,2.6c.069,1.645,0,3.222,0,4.867C919.966,554.8,919.966,555.007,919.966,555.281Zm18.028-4.113a1.132,1.132,0,1,0-.069-2.262,1.132,1.132,0,0,0,.069,2.262Zm0-4.867a1.132,1.132,0,0,0-.069,2.262,1.192,1.192,0,0,0,1.165-1.1A1.1,1.1,0,0,0,937.994,546.3Z" transform="translate(0 -0.813)" fill="#704332"/>
      <path id="Path_61847" data-name="Path 61847" d="M924.9,558.7v-5.072c0-.685.274-1.028,1.028-1.028h9.6a.909.909,0,0,1,1.028,1.028v10.145a.909.909,0,0,1-1.028,1.028h-9.6c-.685,0-.96-.274-.96-1.028C924.9,562.128,924.9,560.414,924.9,558.7Zm6.169,1.165h3.839a.284.284,0,1,0,0-.411h-7.677c-.137,0-.274.137-.411.206.137.069.274.206.411.206Zm0-5.552h-3.839c-.137,0-.274.137-.48.206a1.451,1.451,0,0,0,.48.206h7.609a.284.284,0,1,0,0-.411Zm0,2.6h-3.839c-.137,0-.274.137-.411.206.137.069.274.206.411.206h7.677c.137,0,.274-.137.48-.206a1.452,1.452,0,0,0-.48-.206C933.674,556.85,932.372,556.918,931.069,556.918Zm0,5.552h3.907c.137,0,.274-.137.411-.206-.137-.069-.274-.206-.411-.206h-7.746c-.137,0-.274.137-.411.206.137.069.274.206.411.206Z" transform="translate(-3.837 -4.781)" fill="#704332"/>
      <path id="Path_61848" data-name="Path 61848" d="M924.9,542.4v-4.25c0-.48.343-.754.96-.754h9.6c.754,0,1.1.274,1.1,1.1v3.427c0,.343-.068.48-.411.48h-10.9A.306.306,0,0,1,924.9,542.4Z" transform="translate(-3.837)" fill="#704332"/>
    </g>
  </g>
</svg>
