<svg xmlns="http://www.w3.org/2000/svg" width="40" height="40" viewBox="0 0 40 40">
  <g id="Receive_Records" data-name="Receive Records" transform="translate(-6289 -6803)">
    <rect id="Rectangle_18535" data-name="Rectangle 18535" width="40" height="40" transform="translate(6289 6803)" fill="none"/>
    <g id="Group_17299" data-name="Group 17299" transform="translate(5834.2 6404.289)">
      <path id="Path_61619" data-name="Path 61619" d="M483.87,419.8a1.3,1.3,0,0,0-.782-.261,1.071,1.071,0,0,0-.782.261v-1.3c-.348.174-.652.3-.956.478a15.239,15.239,0,0,1-3.649,1.043,29.685,29.685,0,0,1-5.561.391,23.8,23.8,0,0,1-6.039-.825,12.687,12.687,0,0,1-2.52-1c-.043-.043-.087-.043-.174-.087v3.389c0,.869.087,1,.825,1.434a9.515,9.515,0,0,0,2.607,1,23.183,23.183,0,0,0,3.475.565,28.092,28.092,0,0,0,3.823.087,26.2,26.2,0,0,0,4.562-.608.581.581,0,0,0,.217-.043c-.043.087-.087.13-.13.217-.391.521-.739,1.043-1.13,1.564a.332.332,0,0,1-.217.087c-.565.087-1.13.174-1.694.217a27.7,27.7,0,0,1-4.649.087,21.542,21.542,0,0,1-6.212-1.173c-.434-.174-.869-.391-1.3-.608-.043-.043-.13-.043-.217-.087v3.91a.466.466,0,0,0,.087.261,2.4,2.4,0,0,0,1.13.825,13.811,13.811,0,0,0,2.954.956,26.327,26.327,0,0,0,7.386.434,19.688,19.688,0,0,0,4.735-.825c.043,0,.087-.043.174-.043,0,.13.043.217.043.3v1.216c0,.13-.087.13-.13.13a17.114,17.114,0,0,1-2.042.434,29.019,29.019,0,0,1-5.474.391,24.9,24.9,0,0,1-6.69-.956,8.514,8.514,0,0,1-2.607-1.26,3.218,3.218,0,0,1-.565-.521,2.133,2.133,0,0,1-.565-1.521v-14.6c0-1.3.043-2.607,0-3.91a1.6,1.6,0,0,1,.3-1,4.415,4.415,0,0,1,1.825-1.521,12.4,12.4,0,0,1,3.258-1.043,24.7,24.7,0,0,1,4.388-.521,31.363,31.363,0,0,1,4.04.087,18.8,18.8,0,0,1,5.561,1.26,5.7,5.7,0,0,1,1.955,1.216,3.372,3.372,0,0,1,.7,1.043.392.392,0,0,1,.043.217v9.949C483.87,419.668,483.87,419.712,483.87,419.8Zm-1.607-7.472c-.087.043-.13.087-.174.087-.043.043-.087.043-.174.087a12.074,12.074,0,0,1-3.258,1.13,24.127,24.127,0,0,1-5,.565c-1.173,0-2.346,0-3.519-.087a24.709,24.709,0,0,1-3.519-.565,10.769,10.769,0,0,1-3.171-1.173.134.134,0,0,1-.087-.043v3.345a2.116,2.116,0,0,0,.043.521.619.619,0,0,0,.261.521,6.219,6.219,0,0,0,.652.478,7.908,7.908,0,0,0,1.912.739,21.719,21.719,0,0,0,6.256.825,25.74,25.74,0,0,0,4.822-.348,13.19,13.19,0,0,0,3.171-.869,5.728,5.728,0,0,0,1.434-.782.844.844,0,0,0,.348-.7v-3.215A1.964,1.964,0,0,0,482.262,412.326Zm-9.167.348a22.345,22.345,0,0,0,4.735-.434,16.151,16.151,0,0,0,2.824-.825,4.333,4.333,0,0,0,1.347-.825c.391-.391.391-.739,0-1.086a3.522,3.522,0,0,0-1.216-.739,16.982,16.982,0,0,0-5.083-1.173c-.782-.087-1.564-.087-2.346-.13a22.515,22.515,0,0,0-5.908.521,12.162,12.162,0,0,0-3,1,2.434,2.434,0,0,0-.912.7.6.6,0,0,0,0,.825,1.358,1.358,0,0,0,.478.391,9.735,9.735,0,0,0,2.694,1.086A23.618,23.618,0,0,0,473.1,412.674Z" transform="translate(0)" fill="#704332"/>
      <path id="Path_61620" data-name="Path 61620" d="M502.238,444.757v-.217c0-1.521,0-3.085.043-4.605a.467.467,0,0,1,.434-.434h3.91a.435.435,0,0,1,.434.434v4.822h.174c.565,0,1.086,0,1.651.043a.551.551,0,0,1,.261.043c.261.043.391.261.261.478a4.747,4.747,0,0,1-.261.478c-.565.782-1.13,1.564-1.738,2.346-.825,1.086-1.607,2.172-2.433,3.258a.348.348,0,0,1-.608,0c-1.434-1.955-2.867-3.867-4.344-5.822a.329.329,0,0,1-.087-.174c-.13-.3,0-.608.348-.608.565,0,1.13-.043,1.694-.043C502.021,444.713,502.108,444.757,502.238,444.757Z" transform="translate(-21.54 -19.093)" fill="#704332"/>
    </g>
  </g>
</svg>
