<svg xmlns="http://www.w3.org/2000/svg" width="50" height="50" viewBox="0 0 50 50">
  <g id="Group_18766" data-name="Group 18766" transform="translate(17448 -14421)">
    <rect id="Rectangle_17969" data-name="Rectangle 17969" width="50" height="50" transform="translate(-17448 14421)" fill="none"/>
    <g id="Group_16167" data-name="Group 16167" transform="translate(-17626.318 14093.036)">
      <path id="Subtraction_3" data-name="Subtraction 3" d="M20.889,28.471H6.794a7.986,7.986,0,0,0,1.07-4.844H9.751c2.188,0,4.424.007,6.586.014l.533,0h.071l.54,0h.011c2.176.007,4.426.014,6.637.014.411,0,.627.057.746.2s.137.36.073.748a7.857,7.857,0,0,1-.316,1.227A3.745,3.745,0,0,1,20.889,28.471ZM3.585,28.4a3.342,3.342,0,0,1-3.113-1.79A3.791,3.791,0,0,1,0,24.664V.754C0,.155.155,0,.754,0H12.691a10.566,10.566,0,0,0-.261,2.338,10.551,10.551,0,0,0,9.748,10.49v9.665H17.869c-1.568,0-3.164-.007-4.707-.014h-.008l-.378,0h-.05c-1.5-.007-3.363-.016-5.143-.016-.711,0-.82.174-.851.818q0,.1-.006.2v.009q0,.107-.006.213v.013a15.6,15.6,0,0,1-.208,2.549A2.281,2.281,0,0,1,4.12,28.377C3.928,28.4,3.747,28.4,3.585,28.4ZM2.868,13.813a.956.956,0,1,0,0,1.913H17.211a.956.956,0,1,0,0-1.913Zm0-3.825a.956.956,0,1,0,0,1.912h8.606a.956.956,0,0,0,0-1.912Zm0-3.825a.956.956,0,1,0,0,1.912H9.562a.956.956,0,0,0,0-1.912Z" transform="translate(187 342.861)" fill="#fff"/>
      <g id="Group_16160" data-name="Group 16160" transform="translate(200.338 335)">
        <path id="Path_57955" data-name="Path 57955" d="M262.285,636.3a9.93,9.93,0,1,1-9.89,9.34A9.939,9.939,0,0,1,262.285,636.3Zm8.32,9.89a8.359,8.359,0,1,0-8.32,8.32A8.274,8.274,0,0,0,270.605,646.189Z" transform="translate(-252.38 -636.298)" fill="#fff"/>
        <path id="Path_57956" data-name="Path 57956" d="M261.5,648.665v-4.59a.581.581,0,0,1,.861-.478c.765.383,1.53.861,2.295,1.243,1.817,1.052,3.538,2.1,5.355,3.155a1.152,1.152,0,0,1,.478.478c.1.287,0,.478-.287.669-.956.574-1.817,1.148-2.773,1.626-1.626.956-3.347,1.912-4.972,2.869-.478.287-.861.1-.956-.478v-3.92a.609.609,0,0,1,0-.574Z" transform="translate(-255.264 -638.762)" fill="#fff"/>
      </g>
    </g>
  </g>
</svg>
