<svg xmlns="http://www.w3.org/2000/svg" width="35.941" height="36.001" viewBox="0 0 35.941 36.001">
  <g id="replacement" transform="translate(-61.5 -160)">
    <path id="Path_62476" data-name="Path 62476" d="M346.3,160.2h14.58v14.58H346.3Z" transform="translate(-263.439 -0.185)" fill="#2b77c2"/>
    <path id="Path_62477" data-name="Path 62477" d="M76.08,445.3v14.58H61.5V445.3Z" transform="translate(0 -263.902)" fill="#2b77c2"/>
    <path id="Path_62478" data-name="Path 62478" d="M67.963,179.538c-1.748-1.748-3.548-3.54-5.363-5.355h2.445a14.063,14.063,0,0,1,5.625-11.2A15.035,15.035,0,0,1,79.026,160a2.383,2.383,0,0,1,.03.3c0,1.628-.008,3.248.007,4.875,0,.263-.052.353-.337.39a8.654,8.654,0,0,0-6.338,3.75,8.936,8.936,0,0,0-1.425,4.058c-.03.248-.045.5-.075.788h2.46C71.54,175.953,69.74,177.761,67.963,179.538Z" transform="translate(-1.018)" fill="#2b77c2"/>
    <path id="Path_62479" data-name="Path 62479" d="M328.175,384.685h-2.46L331.1,379.3c1.733,1.74,3.54,3.548,5.355,5.37h-2.438a14.1,14.1,0,0,1-5.625,11.2,15.059,15.059,0,0,1-8.363,2.985c-.007-.128-.022-.233-.022-.338,0-1.612.007-3.225-.008-4.838,0-.263.053-.352.345-.39a8.6,8.6,0,0,0,6.315-3.72,8.9,8.9,0,0,0,1.44-4.088C328.13,385.24,328.145,384.993,328.175,384.685Z" transform="translate(-239.112 -202.852)" fill="#2b77c2"/>
  </g>
</svg>
