<svg xmlns="http://www.w3.org/2000/svg" width="50" height="50" viewBox="0 0 50 50">
  <g id="Group_18764" data-name="Group 18764" transform="translate(17459 -14240)">
    <rect id="Rectangle_93" data-name="Rectangle 93" width="50" height="50" transform="translate(-17459 14240)" fill="none"/>
    <g id="reprint" transform="translate(-17601.555 14143.9)">
      <path id="Path_62441" data-name="Path 62441" d="M259.2,355.888H246.7V353.4h12.5Z" transform="translate(-85.113 -224.803)" fill="#fff"/>
      <path id="Path_62442" data-name="Path 62442" d="M246.7,391.5V389h8.519c.2,0,.253.063.243.253-.011.675,0,1.35,0,2.014v.232Z" transform="translate(-85.113 -256.65)" fill="#fff"/>
      <path id="Path_62443" data-name="Path 62443" d="M262.989,108.395a6.295,6.295,0,1,0-6.295,6.295A6.291,6.291,0,0,0,262.989,108.395Zm-2.509.369a3.579,3.579,0,0,1-.38.928,3.647,3.647,0,0,1-1.792,1.56,3.565,3.565,0,0,1-1.149.253c-.042,0-.095.011-.137.011v.938a.1.1,0,0,1-.042.084.08.08,0,0,1-.095-.011c-.011-.011-.021-.011-.032-.021l-.959-.706c-.327-.243-.664-.485-.991-.728a.081.081,0,0,1,0-.148c.337-.243.664-.485,1-.738s.654-.474.97-.717a.123.123,0,0,1,.105-.021c.042.021.042.053.042.095v.938a3.275,3.275,0,0,0,.337-.042,2.447,2.447,0,0,0,.938-.337,2.362,2.362,0,0,0,.538-.432,2.716,2.716,0,0,0,.485-.706,2.589,2.589,0,0,0,.179-1.666,2.517,2.517,0,0,0-.706-1.276,2.61,2.61,0,0,0-3.11-.432,2.632,2.632,0,0,0-1.023,1.044,2.906,2.906,0,0,0-.274.822.514.514,0,0,1-.59.411.508.508,0,0,1-.422-.569,3.406,3.406,0,0,1,.169-.664,3.68,3.68,0,0,1,1.8-2.024,3.347,3.347,0,0,1,1.276-.358,3.464,3.464,0,0,1,.875.021,3.63,3.63,0,0,1,3.079,3.332A3.507,3.507,0,0,1,260.48,108.764Z" transform="translate(-88.423)" fill="#fff"/>
      <path id="Path_62444" data-name="Path 62444" d="M184.141,164.86a3.739,3.739,0,0,0-2.71-3.564,5.284,5.284,0,0,0-1.086-.148c-.411-.021-.822-.011-1.255-.011v-6.21a3.985,3.985,0,0,0-.053-.706,3.755,3.755,0,0,0-3.754-3.121H174.1v2.52h1.16a1.221,1.221,0,0,1,1.318,1.265c.011,2.035,0,4.08,0,6.115,0,.042-.011.084-.011.137H159.046c0-.074-.011-.148-.011-.221v-5.968a1.237,1.237,0,0,1,1.329-1.318h2.583v-2.509h-2.6a3.533,3.533,0,0,0-1.761.422,3.71,3.71,0,0,0-2.045,3.437c-.011,1.972,0,3.943,0,5.915v.264h-.348a12.027,12.027,0,0,0-1.381.032,3.715,3.715,0,0,0-3.247,3.743c-.011,2.5,0,4.987,0,7.486a3.763,3.763,0,0,0,3.838,3.775c.369-.011.728,0,1.139,0v3.617a4.239,4.239,0,0,0,.032.633,3.793,3.793,0,0,0,3.785,3.29h14.941a3.417,3.417,0,0,0,.654-.053,3.778,3.778,0,0,0,3.163-3.764v-3.722h1.318a3.742,3.742,0,0,0,3.732-3.711C184.151,169.931,184.151,167.39,184.141,164.86Zm-7.57,14.972a1.214,1.214,0,0,1-.938,1.318,1.539,1.539,0,0,1-.38.032h-14.9a1.232,1.232,0,0,1-1.318-1.329V169.91h17.545c0,.074.011.148.011.221C176.57,173.379,176.57,176.605,176.57,179.832Zm1.919-12.431a1.882,1.882,0,1,1,1.9-1.887A1.883,1.883,0,0,1,178.489,167.4Z" transform="translate(0 -43.834)" fill="#fff"/>
    </g>
  </g>
</svg>
