<svg xmlns="http://www.w3.org/2000/svg" width="40" height="40" viewBox="0 0 40 40">
  <g id="Reset_Jobs" data-name="Reset Jobs" transform="translate(-7089 -6663)">
    <rect id="Rectangle_18548" data-name="Rectangle 18548" width="40" height="40" transform="translate(7089 6663)" fill="none"/>
    <path id="Path_61636" data-name="Path 61636" d="M74.156,519.625c.042.415.083.789.125,1.2.166,2.076.374,4.193.54,6.269.042.415-.208.415-.457.415l-3.654.125c-1.246.042-2.491.083-3.737.083a.87.87,0,0,1-.5-.125c.872-.913,1.744-1.868,2.74-2.906a18.419,18.419,0,0,0-2.117-.581,8.878,8.878,0,0,0-8.885,3.7,8.581,8.581,0,0,0-1.619,6.477,9.1,9.1,0,0,0,18.1-.747c0-.374.125-.5.457-.5.955.042,1.91,0,2.989,0a22,22,0,0,1-.291,2.45A12.436,12.436,0,0,1,71.665,544a11.967,11.967,0,0,1-7.473,1.495,12.1,12.1,0,0,1-8.179-4.4,11.749,11.749,0,0,1-2.782-6.352,12.5,12.5,0,0,1,13.743-14.075,12.19,12.19,0,0,1,4.193,1.2.593.593,0,0,0,.83-.125L73.617,520a5.17,5.17,0,0,0,.332-.5A.91.91,0,0,1,74.156,519.625Z" transform="translate(7042.889 6150.5)" fill="#704332"/>
  </g>
</svg>
