<svg xmlns="http://www.w3.org/2000/svg" width="40" height="40" viewBox="0 0 40 40">
  <g id="Restaurant_Item" data-name="Restaurant Item" transform="translate(-3952 -7153)">
    <rect id="Rectangle_18496" data-name="Rectangle 18496" width="40" height="40" transform="translate(3952 7153)" fill="none"/>
    <g id="Group_17281" data-name="Group 17281" transform="translate(3401.3 7004.1)">
      <path id="Path_61529" data-name="Path 61529" d="M559.7,167.616V156.754a1.775,1.775,0,0,1,1.378-1.8,1.467,1.467,0,0,1,.477-.053h15.736a1.835,1.835,0,0,1,1.907,1.907v21.565a1.781,1.781,0,0,1-1.907,1.907H561.554a1.752,1.752,0,0,1-1.854-1.854Zm5.3,10.067h2.225c.424,0,.53-.106.53-.53V172.7c0-.371-.159-.53-.53-.53h-4.451c-.371,0-.53.159-.53.53v4.451c0,.371.159.477.53.477C563.568,177.683,564.31,177.683,565,177.683Zm0-7.312h2.225c.371,0,.53-.106.53-.477v-4.5c0-.371-.159-.477-.477-.477h-4.5c-.371,0-.477.159-.477.477v4.5c0,.371.106.477.53.477Zm.053-12.822h-2.225c-.371,0-.477.106-.477.477v4.5c0,.371.106.477.477.477h4.5c.371,0,.477-.106.477-.477v-4.5c0-.371-.106-.477-.477-.477ZM572.84,169.1h3.338c.371,0,.53-.212.424-.53-.053-.265-.265-.318-.477-.318h-6.517a.463.463,0,0,0-.477.265c-.106.318.053.583.477.583Zm0-7.312h3.285a.422.422,0,0,0,.477-.477c-.053-.265-.212-.371-.53-.371h-6.623a.437.437,0,0,0-.371.53c.053.265.265.318.477.318Zm0,13.776H569.5a.39.39,0,0,0-.424.424.41.41,0,0,0,.371.424h6.676a.39.39,0,0,0,.424-.424c0-.265-.106-.424-.424-.424H572.84Zm0-16.743h-3.232c-.318,0-.53.159-.53.424s.159.424.53.424h6.517a.458.458,0,0,0,.477-.53c-.053-.265-.265-.318-.477-.318Zm0,15.524h3.285c.371,0,.477-.159.477-.424s-.159-.424-.53-.424h-6.464c-.212,0-.424.053-.477.265-.159.318.053.636.477.636C570.668,174.345,571.78,174.345,572.84,174.345Zm0-8.213H569.5a.424.424,0,1,0,0,.848h6.729a.4.4,0,0,0,.371-.424c0-.265-.106-.371-.371-.424H572.84Z" fill="#704332"/>
      <path id="Path_61530" data-name="Path 61530" d="M565.382,183.861h14.677a2.57,2.57,0,0,0,2.6-1.96,4.638,4.638,0,0,0,.106-.848V160.76a1.719,1.719,0,0,1,2.119,1.643v21.777a1.636,1.636,0,0,1-1.007,1.7,2.126,2.126,0,0,1-.795.159H567.237A1.845,1.845,0,0,1,565.382,183.861Z" transform="translate(-2.662 -2.734)" fill="#704332"/>
      <path id="Path_61531" data-name="Path 61531" d="M569.962,189.2v3.762H566.2V189.2Z" transform="translate(-3.056 -16.126)" fill="#704332"/>
      <path id="Path_61532" data-name="Path 61532" d="M566.2,179.162V175.4h3.762v3.762Z" transform="translate(-3.056 -9.638)" fill="#704332"/>
      <path id="Path_61533" data-name="Path 61533" d="M566.2,161.5h3.762v3.762H566.2Z" transform="translate(-3.056 -3.103)" fill="#704332"/>
    </g>
  </g>
</svg>
