<svg xmlns="http://www.w3.org/2000/svg" width="40" height="40" viewBox="0 0 40 40">
  <g id="Group_18905" data-name="Group 18905" transform="translate(-497 -75)">
    <g id="Rectangle_76" data-name="Rectangle 76" transform="translate(497 75)" fill="none" stroke="#704332" stroke-width="1">
      <rect width="40" height="40" stroke="none"/>
      <rect x="0.5" y="0.5" width="39" height="39" fill="none"/>
    </g>
    <g id="return" transform="translate(432.976 -60.935)">
      <path id="Path_62472" data-name="Path 62472" d="M78.063,149.481v.3c0,.784.005,1.568-.011,2.352a.474.474,0,0,1-.173.373.482.482,0,0,1-.406-.1q-3.106-2.409-6.2-4.834c-.341-.265-.335-.427.005-.692q3.041-2.376,6.088-4.758a.739.739,0,0,1,.151-.114c.119-.038.27-.1.362-.059a.416.416,0,0,1,.173.324c.016.795.011,1.584.011,2.379v.373c.119.005.211.016.308.016,1.584.032,3.174.022,4.753.1a16.636,16.636,0,0,1,9.808,3.531,8.173,8.173,0,0,1,2.985,5.11,9.912,9.912,0,0,1-1.671,7.748,6.652,6.652,0,0,1-1.687,1.66,1.472,1.472,0,0,1-.351.189.6.6,0,0,1-.687-.243.547.547,0,0,1,.114-.687c.238-.232.5-.449.719-.692a5.611,5.611,0,0,0,.654-6.889,8.956,8.956,0,0,0-4.726-3.839,23.391,23.391,0,0,0-4.991-1.341,34.128,34.128,0,0,0-5.147-.243C78.134,149.443,78.117,149.454,78.063,149.481Z" fill="#704332"/>
      <path id="Path_62473" data-name="Path 62473" d="M104.194,451.3v3.92c0,.416-.1.487-.487.346q-3.415-1.208-6.834-2.417a.708.708,0,0,1-.573-.827v-7.537c0-.406.119-.492.487-.362,2.374.838,4.742,1.687,7.116,2.514a.369.369,0,0,1,.3.416C104.183,448.672,104.189,449.986,104.194,451.3Z" transform="translate(-23.909 -286.079)" fill="#704332"/>
      <path id="Path_62474" data-name="Path 62474" d="M265.911,451.368c0-1.325.005-2.649-.005-3.974a.306.306,0,0,1,.243-.341q3.585-1.257,7.164-2.525c.378-.135.481-.059.481.357v7.591a.648.648,0,0,1-.519.746q-3.463,1.233-6.937,2.46c-.314.108-.438.022-.438-.314Q265.908,453.366,265.911,451.368Z" transform="translate(-184.338 -286.174)" fill="#704332"/>
      <path id="Path_62475" data-name="Path 62475" d="M125.075,370.1c.108.032.216.054.314.087q3.406,1.2,6.807,2.417c.114.038.189.184.281.276-.1.092-.178.227-.292.27-2.309.827-4.623,1.638-6.937,2.449a.571.571,0,0,1-.33,0q-3.471-1.217-6.932-2.46c-.114-.043-.189-.178-.287-.27.092-.092.173-.232.287-.27q3.374-1.208,6.753-2.4A3.433,3.433,0,0,1,125.075,370.1Z" transform="translate(-44.152 -215.828)" fill="#704332"/>
    </g>
  </g>
</svg>
