<svg xmlns="http://www.w3.org/2000/svg" width="195.8" height="210.1" viewBox="0 0 195.8 210.1">
  <g id="Group_18473" data-name="Group 18473" transform="translate(-183.4 -259.4)">
    <path id="Path_62336_1_" d="M183.4,404.1h41.1c6.3,0,11.4,6.4,11.4,14.2v51.2H183.4Z" fill="#62b962"/>
    <path id="Path_62338_1_" d="M183.4,331.4h40.9c6.2,0,11.3,6.4,11.3,14.3v37.2c0,7.9-5.1,14.3-11.3,14.3H183.4Z" fill="#62b962"/>
    <path id="Subtraction_51_1_" d="M224.2,324.4H183.7l4.2-9.2,10.2-27.4,25-18.7,10.8-3.1a17.4,17.4,0,0,1,1.5,7.1v37C235.5,318,230.5,324.4,224.2,324.4Z" fill="#62b962"/>
    <path id="Subtraction_52_1_" d="M292.9,313.5H255.6c-7.9,0-14.3-5.3-14.3-11.7V266.2l10.4-3.4,3.7-3.3h51.8v42.2C307.2,308.3,300.8,313.5,292.9,313.5Z" fill="#62b962"/>
    <path id="Path_62344_1_" d="M314.3,259.5h64.9v54H328.4c-7.7,0-14.1-5.3-14.1-11.7Z" fill="#62b962"/>
    <path id="Path_62346_1_" d="M318.7,266.7h53.5v39.1c0,1.8-2,3.3-4.5,3.3H362c-2.5,0-4.5-1.5-4.5-3.3v-29H318.7c-2.3,0-4.2-1.4-4.2-3.1v-4C314.5,268.1,316.4,266.7,318.7,266.7Z" fill="#59815a"/>
    <path id="Path_62347_1_" d="M318.8,266.4l53.6.2v39.2a2.939,2.939,0,0,1-1.4,2.4,5.376,5.376,0,0,1-3.3,1H362a5.581,5.581,0,0,1-3.3-1,3.545,3.545,0,0,1-1.4-2.4V277H318.7a5.614,5.614,0,0,1-3.1-.9,2.772,2.772,0,0,1-1.3-2.3v-4a3.09,3.09,0,0,1,1.3-2.4A6.329,6.329,0,0,1,318.8,266.4Zm38.7.4-38.7-.2a4.839,4.839,0,0,0-2.9,1,2.9,2.9,0,0,0-1.2,2.2v4a2.717,2.717,0,0,0,1.2,2.1,4.764,4.764,0,0,0,2.9.9h38.9v29.1a2.911,2.911,0,0,0,1.3,2.3,4.907,4.907,0,0,0,3.1.9h5.7a5.614,5.614,0,0,0,3.1-.9,2.772,2.772,0,0,0,1.3-2.3v-39Z" fill="#2c2a29"/>
    <path id="Path_62349_1_" d="M245.8,266h56.3a5.711,5.711,0,0,1,3.1,1,3.127,3.127,0,0,1,1.3,2.5v4.4a3.127,3.127,0,0,1-1.3,2.5,4.452,4.452,0,0,1-3.1,1H245.8a5.711,5.711,0,0,1-3.1-1,3.127,3.127,0,0,1-1.3-2.5v-4.4a3.127,3.127,0,0,1,1.3-2.5A5,5,0,0,1,245.8,266Zm56.3.2H245.8a4.271,4.271,0,0,0-2.9,1,3.1,3.1,0,0,0-1.2,2.3v4.4a2.935,2.935,0,0,0,1.2,2.3,5.078,5.078,0,0,0,2.9,1h56.3a4.271,4.271,0,0,0,2.9-1,3.1,3.1,0,0,0,1.2-2.3v-4.4a2.935,2.935,0,0,0-1.2-2.3A4.271,4.271,0,0,0,302.1,266.2Z" fill="#2c2a29"/>
    <path id="Path_62350_1_" d="M189.5,392.6V335.7c0-2.4,1.5-4.3,3.4-4.3h4.4c1.9,0,3.4,1.9,3.4,4.3v56.9c0,2.4-1.5,4.3-3.4,4.3h-4.4C191,396.9,189.5,395,189.5,392.6Z" fill="#59815a"/>
    <path id="Path_62351_1_" d="M189.3,392.6V335.7a5,5,0,0,1,1-3.1,3.127,3.127,0,0,1,2.5-1.3h4.3a3.127,3.127,0,0,1,2.5,1.3,5,5,0,0,1,1,3.1v56.9a5,5,0,0,1-1,3.1,3.127,3.127,0,0,1-2.5,1.3h-4.3a3.127,3.127,0,0,1-2.5-1.3A5.711,5.711,0,0,1,189.3,392.6Zm.3-56.9v56.9a4.271,4.271,0,0,0,1,2.9,2.935,2.935,0,0,0,2.3,1.2h4.3a2.935,2.935,0,0,0,2.3-1.2,5.078,5.078,0,0,0,1-2.9V335.7a4.271,4.271,0,0,0-1-2.9,2.935,2.935,0,0,0-2.3-1.2h-4.3a2.935,2.935,0,0,0-2.3,1.2A3.971,3.971,0,0,0,189.6,335.7Z" fill="#2c2a29"/>
    <path id="Path_62352_1_" d="M189.5,463.2V408.8c0-2.5,1.5-4.5,3.2-4.5h4.1c1.8,0,3.2,2,3.2,4.5v39.7h28.7c1.8,0,3.2,2,3.2,4.5v5.7c0,2.5-1.5,4.5-3.2,4.5H189.5Z" fill="#59815a"/>
    <path id="Path_62353_1_" d="M189.3,463.2V408.8a5.581,5.581,0,0,1,1-3.3,3.15,3.15,0,0,1,2.3-1.4h4.1a2.542,2.542,0,0,1,2.3,1.4,5.581,5.581,0,0,1,1,3.3v39.6h28.5a2.542,2.542,0,0,1,2.3,1.4,5.581,5.581,0,0,1,1,3.3v5.7a5.581,5.581,0,0,1-1,3.3,3.15,3.15,0,0,1-2.3,1.4H189.3v-.3Zm.2-14.7V463h39a2.606,2.606,0,0,0,2.2-1.3,5.614,5.614,0,0,0,.9-3.1V453a5.614,5.614,0,0,0-.9-3.1,2.851,2.851,0,0,0-2.2-1.3H199.8V408.7a5.614,5.614,0,0,0-.9-3.1,2.851,2.851,0,0,0-2.2-1.3h-4.1a2.606,2.606,0,0,0-2.2,1.3,5.614,5.614,0,0,0-.9,3.1Z" fill="#2c2a29"/>
    <path id="Path_62356_1_" d="M183.4,469.5l6.5-6.8.6-138.4s2.9-51.5,63.1-58.2l118.3.5,7.2-7.2H253.6s-65.4,1.1-70.2,70.1Z" fill="#2f442f"/>
    <path id="Path_62348_1_" d="M245.8,266h56.3c2.3,0,4.3,1.5,4.3,3.4v4.4c0,1.9-1.9,3.4-4.3,3.4H245.8c-2.3,0-4.3-1.5-4.3-3.4v-4.4C241.5,267.5,243.5,266,245.8,266Z" fill="#59815a"/>
    <path id="Path_62425" data-name="Path 62425" d="M190.7,322.4s4.9-39.4,42.5-51.6c0,0,2.9,1.9,2.4,6.4,0,0-32,14.8-38.4,47.2C197.1,324.4,191.5,325,190.7,322.4Z" fill="#59815a" stroke="#2b2a29" stroke-width="0.25"/>
  </g>
</svg>
