<svg xmlns="http://www.w3.org/2000/svg" width="40" height="40" viewBox="0 0 40 40">
  <g id="Order" transform="translate(-922 -269)">
    <g id="Rectangle_75" data-name="Rectangle 75" transform="translate(922 269)" fill="none" stroke="#704332" stroke-width="1">
      <rect width="40" height="40" stroke="none"/>
      <rect x="0.5" y="0.5" width="39" height="39" fill="none"/>
    </g>
    <g id="Group_5" data-name="Group 5" transform="translate(929.392 276.326)">
      <path id="Path_30" data-name="Path 30" d="M329.194,663.336v-3.357q0-7.24,0-14.48a1.083,1.083,0,0,1,1.176-1.177q9.391,0,18.782,0a1.09,1.09,0,0,1,1.184,1.229q0,8.2,0,16.4c0,1.01.014,2.023-.055,3.029a5.2,5.2,0,0,1-4.166,4.583,9.472,9.472,0,0,1-1.6.121q-6.529.014-13.058.005a5.292,5.292,0,0,1-5.355-4.415,4.941,4.941,0,0,1-.076-.737,1.069,1.069,0,0,1,1.118-1.195c.567-.015,1.134-.005,1.7-.007Zm2.144,0h9.271a1.088,1.088,0,0,1,1.264,1.173,3.177,3.177,0,0,0,6.349-.237q0-8.739,0-17.479c0-.11-.01-.22-.016-.34H331.338Z" transform="translate(-326.027 -644.321)" fill="#704332"/>
      <path id="Path_31" data-name="Path 31" d="M380.409,666.523h-6.285v-2.08h6.285Z" transform="translate(-361.416 -659.127)" fill="#704332"/>
      <path id="Path_32" data-name="Path 32" d="M380.412,680.444v2.065H374.12v-2.065Z" transform="translate(-361.413 -670.9)" fill="#704332"/>
      <path id="Path_33" data-name="Path 33" d="M380.409,696.4v2.066h-6.294V696.4Z" transform="translate(-361.409 -682.641)" fill="#704332"/>
      <path id="Path_34" data-name="Path 34" d="M360.215,664.43V666.5h-2.071V664.43Z" transform="translate(-349.658 -659.117)" fill="#704332"/>
      <path id="Path_35" data-name="Path 35" d="M358.122,682.493V680.42h2.071v2.073Z" transform="translate(-349.642 -670.882)" fill="#704332"/>
      <path id="Path_36" data-name="Path 36" d="M360.221,696.42v2.058H358.14V696.42Z" transform="translate(-349.655 -682.655)" fill="#704332"/>
    </g>
  </g>
</svg>
