<svg xmlns="http://www.w3.org/2000/svg" width="40" height="40" viewBox="0 0 40 40">
  <g id="Select_Items_Background_Color" data-name="Select Items Background Color" transform="translate(-4702 -6943)">
    <rect id="Rectangle_18516" data-name="Rectangle 18516" width="40" height="40" transform="translate(4702 6943)" fill="none"/>
    <g id="Group_17378" data-name="Group 17378" transform="translate(4305.032 6427.4)">
      <path id="Path_61821" data-name="Path 61821" d="M419.685,559.212c-.917-.1-1.834-.153-2.751-.255-1.834-.2-3.668-.458-5.552-.611a1.932,1.932,0,0,1-1.885-2.139q.076-3.439,0-6.877c0-.408.1-.56.56-.56,1.477.051,2.955,0,4.381,0a2.74,2.74,0,0,0,2.547-1.477c.815-1.528,1.63-3.056,2.394-4.585a1.068,1.068,0,0,1,.306-.408C419.685,547.852,419.685,553.456,419.685,559.212Z" transform="translate(-3.692 -9.665)" fill="#704332"/>
      <path id="Path_61822" data-name="Path 61822" d="M442.137,548.671c0,.153.051.306.051.458v7.234a1.637,1.637,0,0,1-1.579,1.783c-2.6.306-5.145.611-7.743.917a4.9,4.9,0,0,1-.866,0V542.1c.1.1.153.153.153.2.866,1.579,1.681,3.209,2.5,4.839a2.722,2.722,0,0,0,2.445,1.528c1.528.051,3.107,0,4.636,0C441.831,548.62,441.984,548.671,442.137,548.671Z" transform="translate(-14.733 -9.567)" fill="#704332"/>
      <path id="Path_61823" data-name="Path 61823" d="M406.722,545.1H402.7c-.764,0-.917-.306-.509-.917,1.019-1.681,2.038-3.311,3.107-4.992a1.933,1.933,0,0,1,1.477-.917c2.394-.306,4.737-.611,7.132-.917l1.07-.153c.2,0,.509,0,.611.1a.772.772,0,0,1-.051.662c-.866,1.732-1.783,3.515-2.7,5.247-.153.306-.357.662-.509.968a1.681,1.681,0,0,1-1.528.917Z" transform="translate(0 -7.163)" fill="#704332"/>
      <g id="Group_17377" data-name="Group 17377" transform="translate(420.921 522.6)">
        <path id="Path_61824" data-name="Path 61824" d="M442.243,522.6c1.477,1.477,2.9,2.955,4.381,4.432l1.121,1.121a1.708,1.708,0,0,1,.051,2.445l-2.9,2.9a1.715,1.715,0,0,1-2.292,0c-1.019-.968-1.987-1.936-2.955-2.955a1.754,1.754,0,0,1,.051-2.445c.917-.917,1.885-1.834,2.8-2.7.153-.153.306-.255.458-.407-.611-.56-1.121-1.07-1.681-1.579A7.449,7.449,0,0,0,442.243,522.6Zm4.941,6.826.1-.1-3.515-3.515c-1.121,1.121-2.241,2.19-3.362,3.26-.1.1-.1.2-.2.357Z" transform="translate(-439.174 -522.6)" fill="#704332"/>
        <path id="Path_61825" data-name="Path 61825" d="M457.243,538.3c.357.662.713,1.324,1.019,2.038a1.024,1.024,0,0,1-.458,1.223,1.248,1.248,0,0,1-1.324-.051,1.02,1.02,0,0,1-.357-1.223c.306-.662.662-1.324.968-1.936A.187.187,0,0,1,457.243,538.3Z" transform="translate(-447.449 -530.302)" fill="#704332"/>
      </g>
      <path id="Path_61826" data-name="Path 61826" d="M445.072,542.345a8.21,8.21,0,0,1-2.241.306,8.73,8.73,0,0,1-8-5.3c-.458-.051-.968-.1-1.426-.153a.916.916,0,0,0-.56.153c-.1.1-.051.408.051.56,1.07,2.089,2.139,4.126,3.209,6.215a1.687,1.687,0,0,0,1.63.968h8.1c.662,0,.815-.306.458-.866A19.7,19.7,0,0,1,445.072,542.345Z" transform="translate(-15.122 -7.163)" fill="#704332"/>
    </g>
  </g>
</svg>
