<svg xmlns="http://www.w3.org/2000/svg" width="40" height="40" viewBox="0 0 40 40">
  <g id="Select_Category_Background_Color" data-name="Select Category Background Color" transform="translate(-4702 -6873)">
    <rect id="Rectangle_18515" data-name="Rectangle 18515" width="40" height="40" transform="translate(4702 6873)" fill="none"/>
    <g id="Group_17286" data-name="Group 17286" transform="translate(4543.817 6598.2)">
      <path id="Path_61551" data-name="Path 61551" d="M172.607,280.8c3.468,3.527,6.995,7.055,10.462,10.582.9.9,1.734,1.794,2.631,2.69a4.152,4.152,0,0,1,.12,5.859c-2.272,2.332-4.544,4.663-6.935,6.935a4.053,4.053,0,0,1-5.5-.06c-2.391-2.332-4.723-4.663-7.055-6.995a4.1,4.1,0,0,1,.179-5.859c2.212-2.152,4.424-4.3,6.7-6.457.359-.3.717-.6,1.136-.957-1.375-1.315-2.631-2.511-3.946-3.767C171.172,282.055,171.829,281.517,172.607,280.8ZM184.325,297c.06-.06.12-.179.179-.239-2.81-2.75-5.56-5.56-8.37-8.37-2.69,2.631-5.381,5.2-8.011,7.772a3.594,3.594,0,0,0-.419.837Z" fill="#704332"/>
      <path id="Path_61552" data-name="Path 61552" d="M202.44,312.6c.837,1.614,1.674,3.169,2.391,4.843a2.484,2.484,0,0,1-1.136,2.87,2.8,2.8,0,0,1-3.109-.12,2.467,2.467,0,0,1-.9-2.87c.717-1.614,1.554-3.109,2.332-4.663A1.017,1.017,0,0,1,202.44,312.6Z" transform="translate(-13.811 -12.788)" fill="#704332"/>
    </g>
  </g>
</svg>
