<svg xmlns="http://www.w3.org/2000/svg" width="40" height="40" viewBox="0 0 40 40">
  <g id="Select_Category_Font_Color" data-name="Select Category Font Color" transform="translate(-4702 -6803)">
    <rect id="Rectangle_18514" data-name="Rectangle 18514" width="40" height="40" transform="translate(4702 6803)" fill="none"/>
    <g id="Group_17287" data-name="Group 17287" transform="translate(4446.9 6540.919)">
      <path id="Path_61553" data-name="Path 61553" d="M275.394,284.372H272a.4.4,0,0,0-.407.271,28.257,28.257,0,0,1-1.085,2.713,4.141,4.141,0,0,0-.362,1.944v4.3a1.213,1.213,0,0,1-1.311,1.221h-5.471a1.264,1.264,0,0,1-1.266-1.266v-5.109a1.284,1.284,0,0,1,1.311-1.311h2.306c.271,0,.316-.09.407-.362a15.591,15.591,0,0,1,.633-1.9c1.809-4.431,3.663-8.908,5.471-13.339a3.719,3.719,0,0,1,1.583-2.035,3.258,3.258,0,0,1,4.3.995,24.968,24.968,0,0,1,1.176,2.487c1.718,4.024,3.436,8.094,5.155,12.163a11.178,11.178,0,0,1,.5,1.628.3.3,0,0,0,.317.271h2.306A1.331,1.331,0,0,1,289,288.487v4.883a1.331,1.331,0,0,1-1.447,1.447h-5.29a1.278,1.278,0,0,1-1.4-1.447v-5.109a.408.408,0,0,0-.045-.226c-.5-1.13-.995-2.261-1.447-3.391-.09-.271-.226-.362-.543-.362A29.838,29.838,0,0,1,275.394,284.372Zm-9.315,10.219h2.849a.7.7,0,0,0,.633-.271,1.3,1.3,0,0,0,.316-.814c0-1.673.045-3.346.045-5.019a1.1,1.1,0,0,0-1.13-1.176H263.14a1.15,1.15,0,0,0-.995,1.04c0,1.763.045,3.527.09,5.335a.843.843,0,0,0,.859.9ZM273,280.846h4.748c-.814-2.08-1.583-4.115-2.351-6.149h-.09C274.534,276.731,273.766,278.766,273,280.846Zm5.064-8.32c.045-.045.09-.09.136-.09a11.938,11.938,0,0,0-.678-1.311,2.467,2.467,0,0,0-3.617-.543,3.967,3.967,0,0,0-.9,1.356l-.271.678c.045,0,.045.045.09.045.226-.271.5-.5.723-.769a2.394,2.394,0,0,1,3.843,0A8.094,8.094,0,0,1,278.061,272.526Zm10.309,16.142c0-.09.045-.09.045-.136a.986.986,0,0,0-1.085-.9h-5.2a.9.9,0,0,0-.859,1.04,1.565,1.565,0,0,1,1.356-.5h4.522A1.281,1.281,0,0,1,288.371,288.668Z" fill="#704332"/>
      <path id="Path_61554" data-name="Path 61554" d="M286.721,316.787c-.859,0-1.718-.045-2.577,0a1.331,1.331,0,0,1-1.447-1.447c.045-1.447,0-2.894,0-4.386a4.386,4.386,0,0,1,.045-.769,1.18,1.18,0,0,1,1.176-1.085h5.607a1.238,1.238,0,0,1,1.221,1.311v5.2a1.209,1.209,0,0,1-1.266,1.13c-.9.045-1.854.045-2.758.045Zm0-7.6h-2.668a1.206,1.206,0,0,0-1.221,1.176v4.929a1.125,1.125,0,0,0,1.266,1.266h5.245a1.165,1.165,0,0,0,1.266-1.266c0-1.628-.045-3.256,0-4.883a1.245,1.245,0,0,0-1.311-1.266A24.515,24.515,0,0,1,286.721,309.19Z" transform="translate(-11.283 -21.924)" fill="#704332"/>
    </g>
  </g>
</svg>
