<svg xmlns="http://www.w3.org/2000/svg" width="40" height="40" viewBox="0 0 40 40">
  <g id="Send_Records" data-name="Send Records" transform="translate(-6289 -6733)">
    <rect id="Rectangle_18479" data-name="Rectangle 18479" width="40" height="40" transform="translate(6289 6733)" fill="none"/>
    <g id="Group_17298" data-name="Group 17298" transform="translate(5929.1 6333.239)">
      <path id="Path_61617" data-name="Path 61617" d="M389.515,420.779a1,1,0,0,0-.8-.261,1.469,1.469,0,0,0-.8.261v-1.306l-.965.47a15.346,15.346,0,0,1-3.751,1.045,29.946,29.946,0,0,1-5.734.366,24.336,24.336,0,0,1-6.163-.836,13.741,13.741,0,0,1-2.572-.992c-.054-.052-.107-.052-.161-.1v3.343c0,.888.054.992.857,1.462a9.7,9.7,0,0,0,2.68.992,27.688,27.688,0,0,0,3.537.575,33.221,33.221,0,0,0,3.966.1,28.362,28.362,0,0,0,4.716-.575.413.413,0,0,0,.214-.052.725.725,0,0,1-.161.209l-1.125,1.567a.41.41,0,0,1-.214.1c-.59.1-1.125.157-1.715.209a29.108,29.108,0,0,1-4.77.1,21.809,21.809,0,0,1-6.377-1.149c-.482-.157-.911-.418-1.34-.575-.054-.052-.107-.052-.214-.1v3.917a.394.394,0,0,0,.107.261,2.418,2.418,0,0,0,1.179.836,12.48,12.48,0,0,0,3,.94,28.285,28.285,0,0,0,7.556.418,21.168,21.168,0,0,0,4.823-.836.2.2,0,0,0,.161-.052c0,.1.054.209.054.313v1.2a.14.14,0,0,1-.161.157l-2.09.47a29.12,29.12,0,0,1-5.627.366,25.616,25.616,0,0,1-6.86-.992,9.63,9.63,0,0,1-2.68-1.254,5.286,5.286,0,0,1-.589-.522,2.015,2.015,0,0,1-.59-1.515v-18.49a1.69,1.69,0,0,1,.322-.992,4.779,4.779,0,0,1,1.876-1.515,12.894,12.894,0,0,1,3.323-1.045,26.442,26.442,0,0,1,4.5-.522,37.223,37.223,0,0,1,4.18.1,21.258,21.258,0,0,1,5.681,1.254,5.419,5.419,0,0,1,1.983,1.2,2.777,2.777,0,0,1,.7,1.045.308.308,0,0,1,.054.209v9.924C389.515,420.622,389.515,420.675,389.515,420.779Zm-1.661-7.469c-.054.052-.107.052-.161.1s-.107.052-.161.1a13.194,13.194,0,0,1-3.323,1.149,24.648,24.648,0,0,1-5.145.574c-1.233,0-2.412,0-3.644-.1a16.6,16.6,0,0,1-3.591-.575,9.923,9.923,0,0,1-3.215-1.2.168.168,0,0,1-.107-.052v3.343a1.733,1.733,0,0,0,.054.522.719.719,0,0,0,.268.522,3.226,3.226,0,0,0,.7.47,6.66,6.66,0,0,0,1.929.731,24.022,24.022,0,0,0,6.377.836,30.858,30.858,0,0,0,4.93-.366,17.631,17.631,0,0,0,3.269-.836,8.156,8.156,0,0,0,1.5-.783.81.81,0,0,0,.375-.679v-3.186A1.909,1.909,0,0,1,387.854,413.31Zm-9.378.313a25.453,25.453,0,0,0,4.823-.418,13.164,13.164,0,0,0,2.894-.836,4.291,4.291,0,0,0,1.393-.836c.375-.418.375-.731,0-1.1a4.251,4.251,0,0,0-1.233-.731,17.818,17.818,0,0,0-5.2-1.149,18.623,18.623,0,0,0-2.412-.1,26.128,26.128,0,0,0-6.056.522,12.268,12.268,0,0,0-3.055.992,2.479,2.479,0,0,0-.965.679.623.623,0,0,0,0,.836,3.437,3.437,0,0,0,.482.418,10.3,10.3,0,0,0,2.733,1.1A29.7,29.7,0,0,0,378.476,413.624Z" transform="translate(0 0)" fill="#704332"/>
      <path id="Path_61618" data-name="Path 61618" d="M404.8,440.642v.185c0,1.342,0,2.73-.046,4.072a.4.4,0,0,1-.37.37h-3.471a.4.4,0,0,1-.37-.37v-4.257h-.185c-.463,0-.972,0-1.435-.046a.347.347,0,0,1-.231-.046.309.309,0,0,1-.231-.463,1.878,1.878,0,0,1,.231-.417l1.527-2.082c.694-.972,1.435-1.9,2.175-2.869.139-.185.37-.231.509,0,1.3,1.712,2.545,3.425,3.841,5.137.046.046.046.093.093.185a.379.379,0,0,1-.324.555c-.509,0-.972.046-1.481.046Z" transform="translate(-13.849 -11.871)" fill="#704332"/>
    </g>
  </g>
</svg>
