<svg xmlns="http://www.w3.org/2000/svg" width="40" height="40" viewBox="0 0 40 40">
  <g id="Shamil_Missing_Jobs" data-name="Shamil Missing Jobs" transform="translate(-7089 -6873)">
    <rect id="Rectangle_18551" data-name="Rectangle 18551" width="40" height="40" transform="translate(7089 6873)" fill="none"/>
    <g id="Group_17374" data-name="Group 17374" transform="translate(6752.349 6354.729)">
      <path id="Path_61815" data-name="Path 61815" d="M361.536,530.361h5.06v20.391H346.9V525.3h14.586C361.536,526.937,361.536,528.624,361.536,530.361Zm-4.019,9.327c-.1-1.191.695-1.935,1.389-2.729.2-.248.4-.447.6-.695a2.891,2.891,0,0,0-1.836-4.614,6.066,6.066,0,0,0-1.637-.1,4.121,4.121,0,0,0-2.828,1.588c.5.447.943.893,1.439,1.34a3.474,3.474,0,0,1,.5-.4,2.961,2.961,0,0,1,.546-.3,1.466,1.466,0,0,1,1.588.248,1.271,1.271,0,0,1-.05,1.588c-.347.447-.744.893-1.091,1.34a3.038,3.038,0,0,0-.794,2.729h1.984C357.319,539.737,357.418,539.688,357.517,539.688Zm-1.191,4.416a1.652,1.652,0,0,0,1.637-1.637,1.613,1.613,0,1,0-1.637,1.637Z" fill="#704332"/>
      <path id="Path_61816" data-name="Path 61816" d="M377.3,530.267V526c1.439,1.439,2.828,2.878,4.217,4.267Z" transform="translate(-15.318 -0.353)" fill="#704332"/>
    </g>
  </g>
</svg>
