<svg xmlns="http://www.w3.org/2000/svg" width="40" height="40" viewBox="0 0 40 40">
  <g id="Sync_Count" data-name="Sync Count" transform="translate(-6289 -6873)">
    <rect id="Rectangle_18537" data-name="Rectangle 18537" width="40" height="40" transform="translate(6289 6873)" fill="none"/>
    <g id="Group_17301" data-name="Group 17301" transform="translate(5740.604 6471.3)">
      <g id="Group_17300" data-name="Group 17300" transform="translate(555.396 408.7)">
        <path id="Path_61621" data-name="Path 61621" d="M578.405,434.2c.223.045.492.089.715.134l2.816.536c.089,0,.134.045.134.179a12.605,12.605,0,0,1-13.811,12.873,12.783,12.783,0,0,1-6.3-2.369c-.045-.045-.089-.045-.134-.089-.894.894-1.833,1.743-2.771,2.637-.4-2.95-.849-5.9-1.252-8.85,3.039.4,6.034.849,9.073,1.252-.849.8-1.654,1.609-2.458,2.414a9.2,9.2,0,0,0,8.4.8C576.93,441.843,578.718,438.67,578.405,434.2Z" transform="translate(-556.726 -422.802)" fill="#704332"/>
        <path id="Path_61622" data-name="Path 61622" d="M575.646,411.337c.894-.894,1.833-1.743,2.771-2.637.4,2.95.849,5.9,1.251,8.85-3.039-.4-6.034-.849-9.073-1.251.849-.8,1.654-1.609,2.458-2.414a9.248,9.248,0,0,0-8.358-.849,8.477,8.477,0,0,0-4.47,3.8,8.935,8.935,0,0,0-1.117,5.766c-.358-.045-.67-.134-.983-.179-.849-.179-1.743-.358-2.592-.492a.118.118,0,0,1-.134-.134A12.477,12.477,0,0,1,564.2,409.46a12.816,12.816,0,0,1,11.308,1.877C575.6,411.292,575.6,411.337,575.646,411.337Z" transform="translate(-555.397 -408.7)" fill="#704332"/>
      </g>
      <path id="Path_61623" data-name="Path 61623" d="M579.967,428.6a4.112,4.112,0,1,0,4.157,4.112A4.168,4.168,0,0,0,579.967,428.6Zm2.861,2.861-.67.67-.849.849h0l-.849.849-.983.983a.622.622,0,0,1-.849,0l-.67-.67-.849-.849a.622.622,0,0,1-.179-.67A.666.666,0,0,1,578,432.4l.492.492h0l.134.134h0a4.032,4.032,0,0,0,.447.4l.224-.224c.894-.894,1.743-1.743,2.637-2.592a.664.664,0,0,1,.626-.179.63.63,0,0,1,.447.492A.78.78,0,0,1,582.828,431.46Z" transform="translate(-11.339 -11.004)" fill="#704332"/>
    </g>
  </g>
</svg>
