<svg xmlns="http://www.w3.org/2000/svg" width="40" height="40" viewBox="0 0 40 40">
  <g id="Timer" transform="translate(-6289 -6663)">
    <rect id="Rectangle_18534" data-name="Rectangle 18534" width="40" height="40" transform="translate(6289 6663)" fill="none"/>
    <g id="Group_17297" data-name="Group 17297" transform="translate(6031.796 6270.109)">
      <path id="Path_61615" data-name="Path 61615" d="M276.373,401.733v-1.712c0-.856.27-1.171,1.126-1.126h1.081c.676,0,.991.36.991,1.036v1.847c.946.27,1.8.541,2.7.811a.308.308,0,0,0,.225-.135,7.168,7.168,0,0,0,.586-.991.834.834,0,0,1,1.261-.315,10.8,10.8,0,0,1,1.216.721.816.816,0,0,1,.315,1.216c-.18.315-.36.631-.541.9-.135.225-.09.315.09.5a11.717,11.717,0,0,1,3.333,4.234,11.937,11.937,0,0,1,.36,9.775,12.376,12.376,0,0,1-20.855,3.694,11.625,11.625,0,0,1-3.018-9.009,11.891,11.891,0,0,1,5.405-9.369,11.634,11.634,0,0,1,5.405-2.027A.579.579,0,0,0,276.373,401.733Zm1.351,21.666a9.347,9.347,0,1,0-9.324-9.324A9.352,9.352,0,0,0,277.724,423.4Z" transform="translate(0 0)" fill="#704332"/>
      <path id="Path_61616" data-name="Path 61616" d="M288.7,426.01a1.984,1.984,0,0,1,2.252-2.072.683.683,0,0,0,.36-.18c.766-.946,1.486-1.892,2.252-2.838a1.569,1.569,0,0,1,.586-.5.77.77,0,0,1,.9.225.81.81,0,0,1,.045.991c-.27.405-.586.766-.9,1.171-.541.676-1.081,1.351-1.577,2.072a.62.62,0,0,0-.045.5,1.923,1.923,0,0,1-.676,1.982,1.7,1.7,0,0,1-1.982.225A1.748,1.748,0,0,1,288.7,426.01Z" transform="translate(-12.913 -11.8)" fill="#704332"/>
    </g>
  </g>
</svg>
