<svg width="30" height="30" viewBox="0 0 30 30" fill="none" xmlns="http://www.w3.org/2000/svg">
<path d="M16.3405 14.6328C18.8858 15.1006 21.2782 15.5197 23.6572 16.0097C23.8472 16.0677 24.0211 16.169 24.1653 16.3056C24.3096 16.4421 24.4203 16.6103 24.4886 16.7968C24.9875 19.1758 25.4065 21.5726 25.881 24.129L23.3357 23.7409C22.8546 24.579 23.5286 24.5037 24.0009 24.6012C24.4731 24.6988 24.9055 24.8229 25.5706 24.9715C23.8745 26.6477 22.3158 28.1997 20.7394 29.734C20.6591 29.8038 20.5654 29.8566 20.4639 29.889C20.3625 29.9214 20.2556 29.9328 20.1496 29.9224C17.662 29.479 15.181 29.0222 12.4561 28.5212C14.1921 26.8272 15.7175 25.2907 17.2961 23.7986C17.5179 23.5968 17.9613 23.5481 18.2761 23.5769C19.0078 23.6478 19.7284 23.8407 20.4578 23.9228C20.6951 23.9494 20.9545 23.7786 21.2028 23.701L21.1429 23.3441C20.2871 23.2076 19.4395 23.0233 18.6043 22.792C18.2407 22.6745 17.775 22.2887 17.7041 21.9517C17.2052 19.5749 16.8017 17.1781 16.3405 14.6328Z" fill="#704332"/>
<path d="M15.3561 13.6653L7.28779 12.1576C6.7978 9.52803 6.31223 6.93394 5.79785 4.17578C6.42753 4.25782 6.953 4.30659 7.4696 4.3975C9.38523 4.75003 11.3009 5.10478 13.2076 5.50608C13.4648 5.55929 13.8351 5.81427 13.8728 6.03155C14.3916 8.50591 14.8572 10.9914 15.3561 13.6653Z" fill="#704332"/>
<path d="M29.9988 9.54713C27.3382 9.05714 24.886 8.60927 22.4294 8.13258C22.221 8.09267 21.915 7.88647 21.8818 7.71132C21.3896 5.19261 20.935 2.6606 20.4473 0C23.0547 0.483343 25.4935 0.920125 27.9324 1.41677C28.0904 1.47274 28.2329 1.56515 28.3485 1.68649C28.464 1.80783 28.5494 1.9547 28.5976 2.11518C29.0787 4.52746 29.5133 6.94861 29.9988 9.54713Z" fill="#704332"/>
<path d="M19.6872 0.257812C20.2127 3.02262 20.6872 5.4726 21.1262 7.927C21.13 8.05002 21.1086 8.17252 21.0632 8.28692C21.0178 8.40133 20.9495 8.50521 20.8623 8.59215C19.3569 10.1575 17.8293 11.6962 16.1243 13.4433C15.7119 11.306 15.4436 9.38812 14.9469 7.53678C14.5212 5.95594 14.8582 4.84957 16.1376 3.8075C17.3548 2.81643 18.3791 1.5859 19.6872 0.257812Z" fill="#704332"/>
<path d="M1.99512 18.0083C3.68903 16.3122 5.21001 14.7712 6.76203 13.2613C6.87123 13.1735 6.99702 13.1086 7.13188 13.0705C7.26674 13.0324 7.4079 13.0219 7.54691 13.0396C9.9991 13.4631 12.4469 13.9265 15.1274 14.4165C13.4091 16.106 11.8482 17.6558 10.2496 19.1767C10.1444 19.2668 10.0219 19.3342 9.88953 19.375C9.75721 19.4159 9.61793 19.4291 9.48028 19.414C7.06578 18.9772 4.65572 18.5116 1.99512 18.0083Z" fill="#704332"/>
<path d="M1.44116 17.5041C0.92456 14.7526 0.443434 12.2672 0 9.77507C0.00321002 9.66934 0.0274042 9.5653 0.0711762 9.46901C0.114948 9.37271 0.177425 9.28607 0.254974 9.21413C1.77374 7.66211 3.30358 6.1234 5.0108 4.39844C5.33229 6.01919 5.45424 7.45591 5.91097 8.77956C6.82223 11.4091 6.20807 13.3935 3.93548 15.0009C3.05304 15.6217 2.38124 16.5441 1.44116 17.5041Z" fill="#704332"/>
<path d="M15.569 14.9141C16.059 17.4815 16.5201 19.7918 16.917 22.1066C16.9489 22.3119 16.9397 22.5215 16.8898 22.7233C16.8399 22.925 16.7505 23.1148 16.6266 23.2817C15.1655 24.8337 13.64 26.3236 11.9705 28.002C11.5271 25.705 11.2233 23.5876 10.7134 21.5146C10.4362 20.3883 10.7134 19.6832 11.5404 18.936C12.8973 17.7055 14.1411 16.3552 15.569 14.9141Z" fill="#704332"/>
<path d="M29.604 10.2733C27.9389 11.9716 26.3736 13.5702 24.7861 15.1377C24.6817 15.2057 24.5647 15.2519 24.442 15.2736C24.3193 15.2953 24.1935 15.2921 24.0722 15.2641C21.6554 14.8362 19.2409 14.3772 16.6602 13.905C18.3585 12.1978 19.9327 10.6058 21.5246 9.02721C21.6067 8.9615 21.7014 8.91341 21.8029 8.88594C21.9044 8.85848 22.0104 8.85222 22.1144 8.86757C24.5622 9.311 27.0077 9.78326 29.604 10.2733Z" fill="#704332"/>
</svg>
