<svg width="37" height="36" viewBox="0 0 37 36" fill="none" xmlns="http://www.w3.org/2000/svg">
<path d="M19.6023 17.5957C22.6564 18.1582 25.5269 18.6621 28.3815 19.2513C28.6094 19.3212 28.8181 19.4429 28.9912 19.6072C29.1643 19.7714 29.2971 19.9735 29.3791 20.1978C29.9777 23.0585 30.4805 25.9405 31.0498 29.0145L27.9957 28.5479C27.4184 29.5557 28.2272 29.465 28.7938 29.5823C29.3605 29.6996 29.8793 29.8489 30.6774 30.0276C28.6422 32.0431 26.772 33.9093 24.8805 35.7543C24.7841 35.8383 24.6716 35.9017 24.55 35.9407C24.4283 35.9796 24.3 35.9933 24.1728 35.9809C21.1879 35.4477 18.211 34.8985 14.9414 34.2959C17.0245 32.2591 18.8548 30.4115 20.7489 28.6172C21.015 28.3746 21.5471 28.3159 21.9248 28.3506C22.8027 28.4359 23.6674 28.6679 24.5426 28.7665C24.8273 28.7985 25.1385 28.5932 25.4365 28.4999L25.3647 28.0707C24.3377 27.9066 23.3207 27.685 22.3186 27.4068C21.8823 27.2655 21.3236 26.8016 21.2385 26.3964C20.6399 23.5384 20.1557 20.6563 19.6023 17.5957Z" fill="#704332"/>
<path d="M18.418 16.4313L8.73697 14.6183C8.14904 11.4564 7.56642 8.33709 6.94922 5.02051C7.70476 5.11915 8.33526 5.17781 8.95512 5.28711C11.2537 5.71102 13.5522 6.13759 15.8401 6.62015C16.1487 6.68413 16.593 6.99073 16.6382 7.252C17.2607 10.2273 17.8194 13.216 18.418 16.4313Z" fill="#704332"/>
<path d="M36.0038 11.4801C32.8113 10.8909 29.869 10.3523 26.9213 9.77912C26.6712 9.73113 26.3041 9.48319 26.2642 9.27257C25.6736 6.24392 25.1282 3.19928 24.543 0C27.6715 0.581202 30.5979 1.10642 33.5243 1.70361C33.7138 1.77092 33.8848 1.88203 34.0235 2.02794C34.1622 2.17385 34.2646 2.35045 34.3224 2.54342C34.8997 5.4441 35.4211 8.35544 36.0038 11.4801Z" fill="#704332"/>
<path d="M23.6237 0.311523C24.2542 3.6361 24.8236 6.5821 25.3503 9.53343C25.3549 9.68136 25.3292 9.82866 25.2747 9.96622C25.2203 10.1038 25.1383 10.2287 25.0337 10.3333C23.2273 12.2155 21.3944 14.0657 19.3486 16.1666C18.8537 13.5965 18.5318 11.2904 17.9359 9.06421C17.4251 7.16331 17.8295 5.83294 19.3645 4.57989C20.8251 3.38816 22.0541 1.90849 23.6237 0.311523Z" fill="#704332"/>
<path d="M2.39453 21.6546C4.42704 19.6151 6.25204 17.7622 8.11428 15.9466C8.24531 15.841 8.39624 15.7629 8.55806 15.7171C8.71987 15.6713 8.88925 15.6587 9.05605 15.68C11.9984 16.1892 14.9354 16.7464 18.1518 17.3356C16.09 19.3671 14.2171 21.2307 12.299 23.0596C12.1728 23.1679 12.0257 23.249 11.8669 23.2981C11.7082 23.3472 11.541 23.3631 11.3759 23.3449C8.47875 22.8197 5.58695 22.2598 2.39453 21.6546Z" fill="#704332"/>
<path d="M1.72923 21.0452C1.10937 17.7366 0.53207 14.748 0 11.7513C0.00385165 11.6242 0.0328819 11.4991 0.0854033 11.3833C0.137925 11.2675 0.212889 11.1633 0.30594 11.0768C2.12828 9.21058 3.96392 7.36033 6.01239 5.28613C6.39814 7.23502 6.54446 8.96263 7.09249 10.5543C8.1859 13.7162 7.44898 16.1024 4.72212 18.0352C3.6633 18.7817 2.85722 19.8908 1.72923 21.0452Z" fill="#704332"/>
<path d="M18.6853 17.9307C19.2733 21.018 19.8266 23.796 20.3028 26.5794C20.3411 26.8263 20.33 27.0784 20.2702 27.321C20.2103 27.5635 20.103 27.7918 19.9543 27.9924C18.2011 29.8586 16.3708 31.6502 14.3676 33.6684C13.8355 30.9064 13.471 28.3603 12.8592 25.8675C12.5266 24.5132 12.8592 23.6654 13.8515 22.7669C15.4796 21.2872 16.9721 19.6636 18.6853 17.9307Z" fill="#704332"/>
<path d="M35.5194 12.3564C33.5215 14.3986 31.6433 16.3208 29.7385 18.2057C29.6132 18.2875 29.4728 18.343 29.3256 18.3691C29.1784 18.3953 29.0275 18.3914 28.8818 18.3577C25.982 17.8431 23.0849 17.2913 19.9883 16.7234C22.0261 14.6705 23.915 12.7563 25.8251 10.8581C25.9235 10.779 26.0372 10.7212 26.159 10.6882C26.2807 10.6552 26.408 10.6477 26.5327 10.6661C29.4698 11.1993 32.4041 11.7672 35.5194 12.3564Z" fill="#704332"/>
<path d="M27.7048 23.0078L27.5213 23.3597C27.0921 24.1726 26.4022 24.8167 25.5627 25.1882C24.7233 25.5598 23.7835 25.6369 22.8949 25.4073C22.3675 25.264 21.8851 24.9888 21.4929 24.6074C20.8198 23.9702 20.1627 23.3251 19.4657 22.7092C18.5639 21.9094 18.2526 20.8936 18.3218 19.7285C18.3325 19.511 18.3637 19.295 18.4149 19.0834C18.4292 19.0308 18.4537 18.9816 18.487 18.9386C18.5204 18.8956 18.5618 18.8596 18.6091 18.8327C18.6676 18.8061 18.7953 18.8781 18.8751 18.9367C19.1571 19.1953 19.4232 19.4619 19.6892 19.7099C19.8694 19.8576 19.9895 20.0662 20.0271 20.2964C20.1014 20.7951 20.3608 21.2474 20.7533 21.5628C21.3626 22.096 21.9611 22.6452 22.5278 23.2264C22.7836 23.503 23.116 23.6967 23.4824 23.7827C23.8488 23.8686 24.2325 23.843 24.5842 23.709C25.1451 23.5434 25.6248 23.1754 25.9309 22.6762C26.237 22.177 26.3477 21.5818 26.2416 21.0056C26.1906 20.6661 26.0232 20.355 25.7681 20.1258C25.0099 19.4353 24.265 18.7421 23.5174 18.0463C23.2589 17.8228 22.9327 17.6932 22.5916 17.6783C22.3008 17.656 22.027 17.5324 21.8175 17.3291C21.5514 17.0625 21.2854 16.8359 21.0194 16.5879C20.8385 16.42 20.8757 16.22 21.1151 16.156C22.4453 15.7908 23.7063 15.8654 24.7811 16.8679C25.4728 17.513 26.168 18.1538 26.8668 18.7901C27.2502 19.1367 27.5505 19.5656 27.7454 20.0448C27.9402 20.524 28.0246 21.041 27.9921 21.5575C27.9921 21.8241 27.9469 22.064 27.9256 22.3173L27.7048 23.0078Z" fill="#704332" stroke="white" stroke-width="0.5" stroke-miterlimit="10"/>
<path d="M10.5964 11.5239C10.9191 10.52 11.612 9.67747 12.5336 9.16815C13.4551 8.65882 14.5359 8.52112 15.5553 8.78315C16.0766 8.92799 16.5526 9.20321 16.9386 9.58297C17.6144 10.2175 18.2688 10.8653 18.9685 11.4785C19.3786 11.8411 19.6971 12.2959 19.8978 12.8057C20.0985 13.3155 20.1757 13.8657 20.1231 14.4112C20.1098 14.6471 20.0778 14.8816 20.0273 15.1124C20.015 15.1629 19.9923 15.2104 19.9607 15.2517C19.9291 15.293 19.8893 15.3273 19.8437 15.3523C19.7799 15.379 19.6549 15.3177 19.5777 15.259C19.2904 14.9924 19.0164 14.7258 18.7344 14.4779C18.5561 14.3289 18.4372 14.1208 18.3992 13.8913C18.327 13.3995 18.0724 12.953 17.6862 12.6409C17.0796 12.1077 16.4784 11.5585 15.9144 10.9773C15.6599 10.6996 15.3287 10.5041 14.9629 10.4158C14.5971 10.3275 14.2134 10.3503 13.8606 10.4814C13.2929 10.6491 12.8085 11.0237 12.5027 11.5315C12.1969 12.0392 12.092 12.6434 12.2085 13.2248C12.2658 13.549 12.4297 13.8446 12.6741 14.0646C13.427 14.7578 14.1799 15.4483 14.9274 16.1442C15.1866 16.3665 15.5124 16.496 15.8532 16.5121C16.1485 16.5336 16.4257 16.6625 16.6327 16.8747C16.8987 17.1253 17.1648 17.3599 17.4308 17.6025C17.6277 17.7864 17.5904 17.9731 17.3271 18.0531C16.8439 18.2003 16.3391 18.2634 15.8346 18.2397C14.9972 18.2075 14.2024 17.8611 13.6079 17.2692C12.9508 16.6347 12.2777 16.0215 11.5967 15.403C11.2142 15.0597 10.9142 14.6341 10.7193 14.158C10.5244 13.682 10.4396 13.1679 10.4713 12.6543C10.4713 12.2837 10.5485 11.9051 10.5964 11.5239Z" fill="#704332" stroke="white" stroke-width="0.5" stroke-miterlimit="10"/>
<path d="M15.379 14.239C15.4165 14.1759 15.4583 14.1153 15.504 14.0577C15.6131 13.9298 15.7275 13.8124 15.8392 13.6898C16.1345 13.3672 16.3527 13.3566 16.6692 13.6498L20.4868 17.169L22.8519 19.3499C23.1818 19.6538 23.1897 19.8644 22.8865 20.195L22.6204 20.4909C22.3172 20.8215 22.1043 20.8322 21.7771 20.5309L17.321 16.4279L15.5466 14.7909C15.4637 14.7287 15.4028 14.6417 15.3727 14.5424C15.3425 14.4432 15.3447 14.3369 15.379 14.239Z" fill="#704332" stroke="white" stroke-width="0.5" stroke-miterlimit="10"/>
</svg>
