<svg xmlns="http://www.w3.org/2000/svg" width="40" height="40" viewBox="0 0 40 40">
  <g id="Upload_Flat_File" data-name="Upload Flat File" transform="translate(-6289 -7083)">
    <rect id="Rectangle_18543" data-name="Rectangle 18543" width="40" height="40" transform="translate(6289 7083)" fill="none"/>
    <g id="Group_17304" data-name="Group 17304" transform="translate(5404.8 6683.219)">
      <path id="Path_61634" data-name="Path 61634" d="M895.92,449.063h16.688v-4.972a.522.522,0,0,1,.556-.591h2.608a.486.486,0,0,1,.556.522v8.17a.5.5,0,0,1-.556.556H892.756a.486.486,0,0,1-.556-.521v-8.205a.461.461,0,0,1,.521-.522h2.608a.518.518,0,0,1,.591.591v4.972Z" transform="translate(0 -22.648)" fill="#704332"/>
      <path id="Path_61635" data-name="Path 61635" d="M915.835,417.167V423.6a.94.94,0,0,1-.661.939.962.962,0,0,1-.313.035h-3.581a.922.922,0,0,1-.973-1.008v-6.432h-3.685a.915.915,0,0,1-.765-1.46c.035-.07.1-.1.139-.174l6.4-6.4a1.013,1.013,0,0,1,.869-.313,1.277,1.277,0,0,1,.556.313l4.9,4.9c.522.522,1.043,1.008,1.53,1.53a.906.906,0,0,1-.243,1.46,1.071,1.071,0,0,1-.452.1h-3.442A.526.526,0,0,1,915.835,417.167Z" transform="translate(-8.79)" fill="#704332"/>
    </g>
  </g>
</svg>
