<svg xmlns="http://www.w3.org/2000/svg" width="40" height="40" viewBox="0 0 40 40">
  <g id="Use_Strategy_Price" data-name="Use Strategy Price" transform="translate(-5502 -6803)">
    <rect id="Rectangle_18525" data-name="Rectangle 18525" width="40" height="40" transform="translate(5502 6803)" fill="none"/>
    <g id="Group_17293" data-name="Group 17293" transform="translate(4740.5 6532.3)">
      <path id="Path_61590" data-name="Path 61590" d="M776.363,289.2c-.654-.49-1.307-.9-1.92-1.348a1.282,1.282,0,0,0-.858-.286h-2.7a1.33,1.33,0,0,1-1.389-1.389v-6.087a1.33,1.33,0,0,1,1.389-1.389h8.783a1.369,1.369,0,0,1,1.389,1.348v6.169a1.32,1.32,0,0,1-1.389,1.348h-2.941c-.449,0-.613.2-.531.654C776.24,288.5,776.281,288.831,776.363,289.2Zm3.758-3.431h-8.865v-.817c0-.123-.041-.286.041-.368.245-.368.572-.735.858-1.144.327.449.613.858.94,1.226.245.327.572.327.776,0a3.426,3.426,0,0,0,.327-.49c.368-.531.694-1.062,1.062-1.593.613.694,1.185,1.389,1.756,2.083.327.409.654.368.9-.082.531-.94,1.062-1.92,1.593-2.86.163-.327.368-.654.531-.98-.245-.163-.49-.286-.776-.449-.654,1.144-1.266,2.288-1.92,3.431l-.123-.123c-.531-.654-1.062-1.266-1.593-1.92-.286-.368-.613-.368-.858.041-.082.163-.2.286-.286.449-.368.531-.694,1.062-1.062,1.593-.286-.368-.572-.735-.817-1.1-.327-.449-.613-.449-.94,0a4.346,4.346,0,0,1-.368.449.04.04,0,0,1-.041-.041v-2.982H770.4v6.005c0,.49.123.613.613.613h9.151A7.224,7.224,0,0,1,780.121,285.767Z" transform="translate(0 0)" fill="#704332"/>
      <path id="Path_61591" data-name="Path 61591" d="M782.715,301.476a6.847,6.847,0,0,0-2.043,1.185,7.021,7.021,0,0,0-2.533,4.739,1.417,1.417,0,0,1-.409.9c-.858.817-1.675,1.634-2.492,2.492.2.2.449.409.695.613l2.247-2.247c.082.409.2.776.286,1.144a.347.347,0,0,1-.123.2c-.572.572-1.1,1.144-1.675,1.675l.572.572,1.593-1.593c.2.368.409.654.572.98-.449.449-.94.9-1.43,1.389l.654.654c.449-.449.858-.9,1.307-1.348.409.368.776.694,1.1,1.021l-2.41,2.41-8.129-8.129,5.556-5.556c.409.286.858.613,1.348.94.2.123.409.245.613.082.2-.123.2-.327.163-.572-.123-.531-.2-1.021-.327-1.552H780.1a2.37,2.37,0,0,0,1.961-.776A3.46,3.46,0,0,0,782.715,301.476Zm-9.682,7.19,2.86-2.86a7.325,7.325,0,0,0-.531-.572l-2.86,2.86A7.313,7.313,0,0,1,773.033,308.666Zm.817.776a7.541,7.541,0,0,0,.572.572l2.86-2.86a3.787,3.787,0,0,1-.572-.572C775.77,307.563,774.789,308.5,773.85,309.442Z" transform="translate(-0.592 -13.013)" fill="#704332"/>
      <path id="Path_61592" data-name="Path 61592" d="M799.9,284.256v-1.307a.353.353,0,0,1,.123-.245c1.307-1.307,2.615-2.614,3.922-3.881a.464.464,0,0,1,.327-.123c1.307.123,2.655.286,3.963.449,1.062.123,2.165.245,3.268.368.082.531.123,1.062.163,1.593.122,1.266.286,2.533.408,3.84.082.613.123,1.266.2,1.879a.306.306,0,0,1-.041.2c-.531.572-1.1,1.1-1.675,1.675-.286-1.92-.572-3.758-.858-5.637a1.389,1.389,0,0,0,.776-.817,1.3,1.3,0,0,0-.817-1.634,1.329,1.329,0,0,0-1.1,2.41c.163.082.245.163.245.327.2,1.389.409,2.819.613,4.208v.123a1.083,1.083,0,0,0-.245-.2l-5.76-5.76c-.409-.409-.572-.409-.98,0Z" transform="translate(-17.981)" fill="#704332"/>
      <path id="Path_61593" data-name="Path 61593" d="M791.2,309.809a6.209,6.209,0,1,1,6.169,6.209A6.207,6.207,0,0,1,791.2,309.809Zm6.209-5.311a5.311,5.311,0,1,0,5.352,5.311A5.388,5.388,0,0,0,797.409,304.5Z" transform="translate(-12.835 -14.728)" fill="#704332"/>
      <path id="Path_61594" data-name="Path 61594" d="M802.946,287.9l5.515,5.515c-.531.49-1.021,1.021-1.552,1.552a7.242,7.242,0,0,0-2.288-1.226,6.811,6.811,0,0,0-3.268-.2.469.469,0,0,1-.49-.163c-.327-.327-.654-.654-.94-.98-.082-.082-.082-.2-.123-.327,0-.163.082-.286.041-.449a1.236,1.236,0,0,1,.49-1.185c.817-.776,1.593-1.593,2.41-2.369A.889.889,0,0,1,802.946,287.9Z" transform="translate(-17.922 -5.442)" fill="#704332"/>
      <path id="Path_61595" data-name="Path 61595" d="M819.113,329.7l3.146,3.146a.488.488,0,0,1,.041.735.444.444,0,0,1-.695-.041l-3.064-3.064a.143.143,0,0,1-.041-.082C818.663,330.19,818.908,329.945,819.113,329.7Z" transform="translate(-28.983 -30.166)" fill="#704332"/>
      <path id="Path_61596" data-name="Path 61596" d="M827.2,303.7c.163.694.286,1.307.409,1.961l.245,1.226a.627.627,0,0,1-.49.776.636.636,0,0,1-.735-.572c-.123-.776-.245-1.552-.327-2.369a.518.518,0,0,1,.041-.245A5.084,5.084,0,0,0,827.2,303.7Z" transform="translate(-33.597 -14.787)" fill="#704332"/>
      <path id="Path_61597" data-name="Path 61597" d="M820.82,302.3c.041.327.123.694.163,1.021a.312.312,0,0,1-.082.2l-1.389,1.389-.613-.735C819.554,303.566,820.207,302.913,820.82,302.3Z" transform="translate(-29.22 -13.959)" fill="#704332"/>
      <path id="Path_61598" data-name="Path 61598" d="M822.1,285.2a.449.449,0,0,1,0,.9.451.451,0,0,1,0-.9Z" transform="translate(-30.868 -3.845)" fill="#704332"/>
      <path id="Path_61599" data-name="Path 61599" d="M799.953,316.865a4.432,4.432,0,1,1,4.412-4.412A4.428,4.428,0,0,1,799.953,316.865Zm1.838-5.76c-.123-.286-.245-.572-.368-.817a1.3,1.3,0,0,0-1.062-.531V308.9H799.5v.858a1.407,1.407,0,0,0-1.307,1.1,3.74,3.74,0,0,0-.041.694,1.271,1.271,0,0,0,1.021,1.266,3.244,3.244,0,0,0,.9.041c.694,0,.776.082.776.817v.041a.462.462,0,0,1-.449.49h-.613c-.368.041-.654-.041-.735-.449H798.2c0,.735.449,1.185,1.307,1.348v.858h.9v-.858a1.355,1.355,0,0,0,1.307-1.1,3.739,3.739,0,0,0,.041-.694,1.36,1.36,0,0,0-1.348-1.348h-.776c-.368,0-.531-.163-.531-.531v-.286a.433.433,0,0,1,.49-.49h.654c.327-.041.613.082.654.409" transform="translate(-15.379 -17.331)" fill="#704332"/>
    </g>
  </g>
</svg>
