<svg xmlns="http://www.w3.org/2000/svg" width="40" height="40" viewBox="0 0 40 40">
  <g id="Use_Line_Display" data-name="Use Line Display" transform="translate(-3952 -6873)">
    <rect id="Rectangle_18500" data-name="Rectangle 18500" width="40" height="40" transform="translate(3952 6873)" fill="none"/>
    <g id="Group_17381" data-name="Group 17381" transform="translate(3208.5 6355.1)">
      <path id="Path_61836" data-name="Path 61836" d="M763.44,525.9h11.116a1.612,1.612,0,0,1,1.824,1.824V543.53a1.656,1.656,0,0,1-1.867,1.867H752.367c-1.259,0-1.867-.608-1.867-1.911V527.724a1.612,1.612,0,0,1,1.824-1.824ZM752.5,528.158V542.1c0,.521.174.608.608.608h21.278V528.158Z" fill="#704332"/>
      <path id="Path_61837" data-name="Path 61837" d="M766.8,575.422c.912-.868,1.824-1.78,2.779-2.649a.653.653,0,0,1,.478-.174h5.254a.557.557,0,0,1,.434.174c.955.868,1.911,1.78,2.823,2.649-.043.043-.087.13-.13.174H766.843C766.843,575.509,766.8,575.466,766.8,575.422Z" transform="translate(-9.222 -26.421)" fill="#704332"/>
      <path id="Path_61838" data-name="Path 61838" d="M774.229,546.249h-3.908c-.651-.043-.912-.478-.651-1.042.217-.478.521-.955.782-1.433,1.042-1.911,2.128-3.821,3.213-5.732.043-.087.087-.13.13-.217.26-.391.651-.391.868.043.347.608.695,1.216,1.042,1.867,1,1.737,2,3.474,2.953,5.254.521.912.261,1.346-.782,1.346C776.661,546.249,775.445,546.249,774.229,546.249Zm.391-2.823V540.17h-.912v3.257Zm-.869,1.65h.912v-.912h-.912Z" transform="translate(-10.789 -6.584)" fill="#704332"/>
    </g>
  </g>
</svg>
