<svg xmlns="http://www.w3.org/2000/svg" width="40" height="40" viewBox="0 0 40 40">
  <g id="Use_Item_Family" data-name="Use Item Family" transform="translate(-5502 -6733)">
    <rect id="Rectangle_18524" data-name="Rectangle 18524" width="40" height="40" transform="translate(5502 6733)" fill="none"/>
    <g id="Group_17292" data-name="Group 17292" transform="translate(4859.6 6463.4)">
      <path id="Path_61571" data-name="Path 61571" d="M680.817,286.317H673.1V278.6h7.717Zm-4.453-7.448v3.609h1.229v-3.609Zm.729,5.528v1.113a.083.083,0,0,0,.077.077h1.113v-1.152C677.86,284.4,677.477,284.4,677.093,284.4Zm1.766,0v1.152h1.152V284.4Z" transform="translate(-14.601)" fill="#704332"/>
      <path id="Path_61572" data-name="Path 61572" d="M680.817,307.1v7.717H673.1V307.1Zm-4.453.269v3.609h1.229v-3.609Zm.729,6.68h1.152V312.9h-1.152Zm1.766-1.152v1.152h1.152V312.9Z" transform="translate(-14.601 -17.559)" fill="#704332"/>
      <path id="Path_61573" data-name="Path 61573" d="M649.4,281.9h1.574v21.576H649.4Z" transform="translate(0 -2.033)" fill="#704332"/>
      <path id="Path_61574" data-name="Path 61574" d="M714.374,303.376H712.8V281.8h1.574Z" transform="translate(-39.06 -1.971)" fill="#704332"/>
      <path id="Path_61575" data-name="Path 61575" d="M676.452,299.5V301H654.3v-1.5Z" transform="translate(-3.019 -12.876)" fill="#704332"/>
      <path id="Path_61576" data-name="Path 61576" d="M676.452,327.9v1.5H654.3v-1.5Z" transform="translate(-3.019 -30.373)" fill="#704332"/>
      <path id="Path_61577" data-name="Path 61577" d="M656.6,288.966V282.9h6.027v6.066Zm2.572-2.956h.96v-2.841h-.96Zm1.5,2.342v-.883h-.883v.883Zm1.344,0v-.883h-.883v.883Z" transform="translate(-4.436 -2.649)" fill="#704332"/>
      <path id="Path_61578" data-name="Path 61578" d="M699.966,288.966H693.9V282.9h6.066Zm-2.534-5.759h-.96v2.841h.96Zm.537,4.261h-.883v.883h.883Zm.461.883h.883v-.883h-.883Z" transform="translate(-27.416 -2.649)" fill="#704332"/>
      <path id="Path_61579" data-name="Path 61579" d="M693.9,311.4h6.066v6.066H693.9Zm3.532,3.11v-2.841h-.921v2.841Zm1.881,1.459h-.921v.845a.083.083,0,0,0,.077.077h.845Zm-1.344,0h-.921v.883h.921Z" transform="translate(-27.416 -20.208)" fill="#704332"/>
      <path id="Path_61580" data-name="Path 61580" d="M662.727,317.527H656.7V311.5h6.027Zm-2.534-5.8h-.96v2.8h.96Zm-.384,4.3v.921h.845a.083.083,0,0,0,.077-.077v-.845Zm2.265.883v-.883h-.883v.883Z" transform="translate(-4.497 -20.269)" fill="#704332"/>
    </g>
  </g>
</svg>
