<svg xmlns="http://www.w3.org/2000/svg" width="40" height="40" viewBox="0 0 40 40">
  <g id="Use_Hot_Key" data-name="Use Hot Key" transform="translate(-1390 -922)">
    <rect id="Rectangle_18492" data-name="Rectangle 18492" width="40" height="40" transform="translate(1390 922)" fill="none"/>
    <g id="Group_17271" data-name="Group 17271" transform="translate(740.601 900.188)">
      <path id="Path_61483" data-name="Path 61483" d="M677.79,36.547v3.181c-.038,1.136-.492,1.628-1.666,1.628h-6.058c-1.212,0-1.666-.492-1.666-1.7v-6.21c0-1.25.492-1.7,1.742-1.742h5.945c1.212,0,1.666.492,1.666,1.7C677.828,34.464,677.79,35.486,677.79,36.547Zm-7.648-.644v2.385c0,.719.3,1.136,1.06,1.136h3.749a1,1,0,0,0,1.1-1.06c.038-1.628,0-3.256,0-4.922a1.009,1.009,0,0,0-1.136-1.1H671.24a.993.993,0,0,0-1.1,1.136Zm4.884-3.786v-.189H669.99c-.947,0-1.325.379-1.325,1.325V38.97a2.972,2.972,0,0,0,.076.53,2.317,2.317,0,0,0,1.136-2.385c-.076-1.174-.038-2.348,0-3.521,0-1.136.417-1.515,1.515-1.515C672.6,32.117,673.814,32.117,675.026,32.117Z" transform="translate(-8.699 0)" fill="#704332"/>
      <path id="Path_61484" data-name="Path 61484" d="M690.225,64.243v3.181c-.038,1.174-.492,1.628-1.628,1.666h-6.134c-1.1,0-1.59-.492-1.59-1.59-.038-2.12,0-4.241,0-6.361,0-1.174.492-1.628,1.628-1.666,2.045,0,4.089-.038,6.134,0,1.1,0,1.59.492,1.59,1.59C690.263,62.123,690.225,63.183,690.225,64.243Zm-7.648-.644v2.385c0,.719.3,1.136,1.06,1.136h3.748a1,1,0,0,0,1.1-1.06c.038-1.628,0-3.256,0-4.922a1.009,1.009,0,0,0-1.136-1.1h-3.673a.993.993,0,0,0-1.1,1.136Zm4.884-3.749V59.7h-3.976c-2.348,0-2.385,0-2.385,2.348v5.339c.8-.719,1.325-1.25,1.212-2.272-.114-1.25-.038-2.5-.038-3.749,0-1.06.416-1.477,1.477-1.477C685,59.851,686.211,59.851,687.461,59.851Z" transform="translate(-16.439 -17.246)" fill="#704332"/>
      <path id="Path_61485" data-name="Path 61485" d="M716.752,64.2V67.38c0,1.06-.454,1.59-1.515,1.59q-3.181.057-6.361,0c-1.022,0-1.439-.53-1.477-1.552v-6.55c0-1.022.454-1.515,1.477-1.515q3.181-.057,6.361,0c.984,0,1.477.53,1.477,1.552C716.752,62,716.752,63.1,716.752,64.2Zm-1.78-.682V61.171c0-.871-.341-1.212-1.174-1.212-1.212,0-2.385-.038-3.6,0a.989.989,0,0,0-1.136,1.136V65.9a1.009,1.009,0,0,0,1.1,1.136h3.749c.719,0,1.06-.379,1.06-1.136Q714.973,64.711,714.973,63.518Zm-7.383,3.748a2.581,2.581,0,0,0,1.287-2.575c-.114-1.174-.038-2.348-.038-3.521,0-1.022.379-1.4,1.439-1.4h3.635a50.707,50.707,0,0,0-5.377-.151,1.007,1.007,0,0,0-.984,1.1C707.589,62.837,707.589,65,707.589,67.267Z" transform="translate(-32.932 -17.165)" fill="#704332"/>
      <path id="Path_61486" data-name="Path 61486" d="M663.714,64.162v3.332a1.271,1.271,0,0,1-1.4,1.439c-2.158.038-4.354.038-6.513,0a1.287,1.287,0,0,1-1.4-1.439v-6.7a1.287,1.287,0,0,1,1.4-1.439c2.158-.038,4.354-.038,6.513,0a1.287,1.287,0,0,1,1.4,1.439C663.752,61.928,663.714,63.064,663.714,64.162Zm-7.421-3.9c.3-.151.606-.454.909-.454,1.287-.038,2.537-.038,3.824-.038a44.912,44.912,0,0,0-5.528-.114c-.341,0-.871.644-.871.984-.076,2.158-.038,4.316-.038,6.626.833-.682,1.4-1.25,1.287-2.31a32.206,32.206,0,0,1,0-3.824,3.684,3.684,0,0,1,.416-.871,2.639,2.639,0,0,0-.227.719c-.038,1.7-.038,3.37,0,5.074a.937.937,0,0,0,1.06.984h3.748a.981.981,0,0,0,1.1-1.1V61.133c0-.8-.341-1.136-1.136-1.136-1.212,0-2.385-.038-3.6,0A2.093,2.093,0,0,0,656.293,60.262Z" transform="translate(0 -17.165)" fill="#704332"/>
      <path id="Path_61487" data-name="Path 61487" d="M704.39,36.547v3.181c-.038,1.136-.492,1.628-1.666,1.628h-6.058c-1.212,0-1.666-.492-1.666-1.7v-6.21c0-1.25.492-1.7,1.742-1.742h5.945c1.212,0,1.666.492,1.666,1.7C704.428,34.464,704.39,35.486,704.39,36.547Zm-7.648-.644v2.385c0,.719.3,1.136,1.06,1.136h3.748a1,1,0,0,0,1.1-1.06c.038-1.628,0-3.256,0-4.922a1.009,1.009,0,0,0-1.136-1.1H697.84a.993.993,0,0,0-1.1,1.136Zm4.884-3.786v-.189H696.59c-.947,0-1.325.379-1.325,1.325V38.97a2.967,2.967,0,0,0,.076.53,2.318,2.318,0,0,0,1.136-2.385c-.076-1.174-.038-2.348,0-3.521,0-1.136.416-1.515,1.515-1.515C699.2,32.117,700.414,32.117,701.626,32.117Z" transform="translate(-25.227 0)" fill="#704332"/>
    </g>
  </g>
</svg>
