<svg xmlns="http://www.w3.org/2000/svg" width="40" height="40" viewBox="0 0 40 40">
  <g id="Using_POS_Menu" data-name="Using POS Menu" transform="translate(-5502 -6663)">
    <rect id="Rectangle_18523" data-name="Rectangle 18523" width="40" height="40" transform="translate(5502 6663)" fill="none"/>
    <g id="Group_17291" data-name="Group 17291" transform="translate(4968.884 6399.684)">
      <path id="Path_61562" data-name="Path 61562" d="M547.1,274.13v2.042a1.13,1.13,0,0,1-1.188,1.188h-4.121a1.142,1.142,0,0,1-1.188-1.151v-4.158a1.142,1.142,0,0,1,1.188-1.151h4.121a1.173,1.173,0,0,1,1.188,1.188Z" transform="translate(0 -0.063)" fill="#704332"/>
      <path id="Path_61563" data-name="Path 61563" d="M591.73,277.3h-2a1.15,1.15,0,0,1-1.225-1.225v-4.047a1.16,1.16,0,0,1,1.188-1.225h4.084a1.173,1.173,0,0,1,1.188,1.188v4.121a1.151,1.151,0,0,1-1.188,1.188Z" transform="translate(-30.117 0)" fill="#704332"/>
      <path id="Path_61564" data-name="Path 61564" d="M588.437,321.83v-2.042a1.151,1.151,0,0,1,1.188-1.188h4.084a1.151,1.151,0,0,1,1.188,1.188v4.121a1.165,1.165,0,0,1-1.151,1.188h-4.158a1.2,1.2,0,0,1-1.188-1.188v-1.039A9.715,9.715,0,0,0,588.437,321.83Z" transform="translate(-30.054 -30.054)" fill="#704332"/>
      <path id="Path_61565" data-name="Path 61565" d="M543.93,318.537h2.042a1.13,1.13,0,0,1,1.188,1.188v4.084A1.142,1.142,0,0,1,546.009,325h-4.158a1.142,1.142,0,0,1-1.151-1.188v-4.084a1.212,1.212,0,0,1,1.225-1.225h.037C542.631,318.537,543.262,318.537,543.93,318.537Z" transform="translate(-0.063 -29.991)" fill="#704332"/>
      <path id="Path_61566" data-name="Path 61566" d="M571.06,321.93V323.9a1.17,1.17,0,0,1-1.262,1.262h-3.935A1.229,1.229,0,0,1,564.6,323.9c.037-1.337,0-2.673,0-3.972a1.15,1.15,0,0,1,1.225-1.225h4.009a1.15,1.15,0,0,1,1.225,1.225v2Z" transform="translate(-15.09 -30.117)" fill="#704332"/>
      <path id="Path_61567" data-name="Path 61567" d="M543.93,301.26h-2a1.15,1.15,0,0,1-1.225-1.225v-4.01a1.15,1.15,0,0,1,1.225-1.225h4.01a1.25,1.25,0,0,1,1.262,1.262c-.037,1.336,0,2.673,0,3.972a1.15,1.15,0,0,1-1.225,1.225Z" transform="translate(-0.063 -15.09)" fill="#704332"/>
      <path id="Path_61568" data-name="Path 61568" d="M591.73,301.26h-2a1.15,1.15,0,0,1-1.225-1.225v-4.01a1.14,1.14,0,0,1,1.188-1.225h4.084a1.16,1.16,0,0,1,1.188,1.225v4.047a1.169,1.169,0,0,1-1.225,1.225C593.1,301.26,592.4,301.26,591.73,301.26Z" transform="translate(-30.117 -15.09)" fill="#704332"/>
      <path id="Path_61569" data-name="Path 61569" d="M571.06,274.13v2a1.15,1.15,0,0,1-1.225,1.225h-4.01a1.15,1.15,0,0,1-1.225-1.225v-3.972a1.17,1.17,0,0,1,1.262-1.262H569.8a1.17,1.17,0,0,1,1.262,1.262c0,.631,0,1.3,0,1.968Z" transform="translate(-15.09 -0.063)" fill="#704332"/>
      <path id="Path_61570" data-name="Path 61570" d="M567.83,301.26h-2a1.15,1.15,0,0,1-1.225-1.225v-4.01a1.15,1.15,0,0,1,1.225-1.225h4.009a1.15,1.15,0,0,1,1.225,1.225v4.01a1.15,1.15,0,0,1-1.225,1.225Z" transform="translate(-15.09 -15.09)" fill="#704332"/>
    </g>
  </g>
</svg>
