<svg xmlns="http://www.w3.org/2000/svg" width="40" height="40" viewBox="0 0 40 40">
  <g id="Verify_Shamil" data-name="Verify Shamil" transform="translate(-7089 -6803)">
    <rect id="Rectangle_18550" data-name="Rectangle 18550" width="40" height="40" transform="translate(7089 6803)" fill="none"/>
    <g id="Group_17373" data-name="Group 17373" transform="translate(6827.416 6285.934)">
      <path id="Path_61811" data-name="Path 61811" d="M270.2,550.016V528.288h4.742V523.4h14.082v.532c0,3.436-.048,6.823,0,10.259a1.558,1.558,0,0,1-.919,1.6,7.161,7.161,0,0,0-3.436-1.936,6.83,6.83,0,0,0-7.017,2.42,1.063,1.063,0,0,1-.919.436c-.871-.048-1.694-.048-2.565-.048-.629,0-1.016.194-.968.581,0,.339.436.532,1.016.532h2.371c-.194,1.016-.387,2.033-.629,3.146h-2.178c-.339,0-.581.194-.532.532,0,.339.242.484.581.484H276.1c.532,1.113,1.065,2.178,1.549,3.194h-3.726c-.339,0-.677.048-.677.484s.339.532.677.532h4.6a1.575,1.575,0,0,1,.677.194,7,7,0,0,0,6.823.484.423.423,0,0,1,.629.145c.629.677,1.258,1.307,1.936,1.936a.918.918,0,0,1,.339,1.065C282.685,550.016,276.443,550.016,270.2,550.016Zm9.34-16.55H285.3c.339,0,.629-.1.629-.484s-.242-.532-.629-.532H274.12a.837.837,0,0,0-.484.048c-.145.1-.387.29-.387.436,0,.194.242.387.387.484.1.048.242,0,.387,0C275.862,533.466,277.7,533.466,279.54,533.466Z" transform="translate(0 0)" fill="#704332"/>
      <path id="Path_61812" data-name="Path 61812" d="M294.525,548.206c-.339.29-.677.581-.968.823a14.069,14.069,0,0,0-1.6-.968,4.293,4.293,0,0,0-1.549-.387,4.567,4.567,0,0,0-3.629,1.355,4.635,4.635,0,0,0-1.21,4.6,4.418,4.418,0,0,0,3.436,3.339,4.72,4.72,0,0,0,5.807-5.323.873.873,0,0,1,.1-.484c.29-.339.581-.677.919-1.065a6.139,6.139,0,0,1-.629,5.71c1.4,1.4,2.855,2.807,4.21,4.21-.581.581-1.113,1.065-1.645,1.6-1.355-1.355-2.758-2.807-4.21-4.21a6.134,6.134,0,0,1-5.323.774,5.921,5.921,0,0,1-3.436-2.758,6.091,6.091,0,0,1,9.727-7.21Z" transform="translate(-7.097 -11.789)" fill="#704332"/>
      <path id="Path_61813" data-name="Path 61813" d="M300.249,548c-2.323,2.662-4.646,5.372-7.017,8.081a14.617,14.617,0,0,1-3.533-4.549,12.334,12.334,0,0,1,3.484,2.371c2.323-2.033,4.646-4.017,6.92-6C300.153,547.9,300.2,547.948,300.249,548Z" transform="translate(-10.064 -12.644)" fill="#704332"/>
      <path id="Path_61814" data-name="Path 61814" d="M274.239,524.5v3.339H270.9Z" transform="translate(-0.361 -0.568)" fill="#704332"/>
    </g>
  </g>
</svg>
