<svg width="30" height="30" viewBox="0 0 30 30" fill="none" xmlns="http://www.w3.org/2000/svg">
<path d="M12.2416 27.7788C8.70889 27.7788 5.29107 27.7932 1.87326 27.7644C0.767493 27.7501 0.00638248 26.8741 0.00638248 25.7252C-0.0079781 23.3558 0.00638248 20.9863 0.00638248 18.6168C0.00638248 13.6624 0.00638248 8.70797 0.00638248 3.75357C0.00638248 1.9585 0.652608 1.31227 2.4764 1.31227C4.48688 1.31227 6.49736 1.29791 8.50784 1.32663C8.9243 1.32663 9.18279 1.22611 9.44128 0.852734C10.2168 -0.296112 11.7964 -0.281751 12.5719 0.881456C12.8017 1.22611 13.0458 1.32663 13.4335 1.32663C15.5589 1.31227 17.6986 1.31227 19.824 1.32663C21.2457 1.32663 21.9781 2.08774 21.9924 3.49508C21.9924 5.51992 21.9924 7.55912 21.9924 9.65577C21.7196 9.67013 21.5042 9.68449 21.2744 9.68449C19.4506 9.68449 17.6412 9.68449 15.8174 9.68449C13.6346 9.68449 12.2703 11.02 12.2703 13.2028C12.2703 17.7551 12.2703 22.2931 12.2703 26.8454C12.2416 27.1326 12.2416 27.4054 12.2416 27.7788ZM2.57693 20.6129C2.56256 22.7813 4.31455 24.5764 6.43992 24.5764C8.56528 24.562 10.3173 22.8244 10.3316 20.699C10.346 18.5593 8.62273 16.8073 6.49736 16.7643C4.38636 16.7355 2.59129 18.5019 2.57693 20.6129ZM5.80805 2.54728C5.80805 3.32275 5.75061 4.01206 5.82241 4.70137C5.89422 5.40504 6.39684 5.80713 7.10051 5.80713C9.68541 5.82149 12.2703 5.82149 14.8409 5.80713C15.4584 5.80713 15.961 5.50556 16.0615 4.90242C16.1907 4.14131 16.162 3.36583 16.1907 2.54728C15.1281 2.54728 14.2234 2.51856 13.3186 2.56164C13.0745 2.576 12.7586 2.74833 12.6006 2.96374C11.7103 4.15567 10.2024 4.15567 9.34076 2.96374C9.21151 2.77705 8.96738 2.576 8.76633 2.576C7.81853 2.51856 6.85638 2.54728 5.80805 2.54728ZM3.18007 10.9913C3.18007 11.6519 3.18007 12.2407 3.18007 12.8438C2.73489 12.8725 2.36152 12.9013 1.97378 12.9156C1.97378 13.3752 1.97378 13.7773 1.97378 14.165C5.01822 14.165 7.99086 14.165 10.9635 14.165C10.9635 13.7054 10.9635 13.3177 10.9635 12.9013C10.5327 12.8725 10.1593 12.8438 9.72849 12.8151C9.72849 11.9678 9.72849 11.1636 9.72849 10.3451C9.24023 10.3451 8.83813 10.3451 8.34988 10.3451C8.34988 11.2067 8.34988 12.0109 8.34988 12.8295C7.91906 12.8295 7.5744 12.8295 7.12923 12.8295C7.12923 11.537 7.12923 10.2876 7.12923 9.05262C6.64097 9.05262 6.23887 9.05262 5.77933 9.05262C5.77933 10.3451 5.77933 11.5801 5.77933 12.8151C5.33416 12.8151 4.97514 12.8151 4.52996 12.8151C4.52996 12.1689 4.52996 11.5944 4.52996 10.9913C4.05606 10.9913 3.68269 10.9913 3.18007 10.9913ZM10.9779 2.84885C11.2794 2.4324 11.6241 2.15955 11.581 1.9585C11.5379 1.70001 11.1789 1.49896 10.9491 1.26919C10.7481 1.49896 10.4034 1.70001 10.3747 1.94414C10.3604 2.17391 10.6763 2.4324 10.9779 2.84885Z" fill="#704332"/>
<path d="M29.0438 20.3266C29.0438 22.7248 29.0438 25.1086 29.0438 27.5068C29.0438 28.9716 28.3545 29.6753 26.904 29.6897C23.1703 29.6897 19.4366 29.6897 15.7028 29.6897C14.2955 29.6897 13.5918 28.986 13.5918 27.5786C13.5918 22.7535 13.5918 17.914 13.5918 13.0888C13.5918 11.7677 14.3529 11.0065 15.6884 10.9922C19.4366 10.9922 23.199 10.9922 26.9615 10.9922C28.2827 10.9922 29.0438 11.7677 29.0438 13.1032C29.0438 15.5014 29.0438 17.914 29.0438 20.3266ZM21.3034 17.4401C22.7395 17.4401 24.1755 17.4257 25.6116 17.4401C26.2147 17.4544 26.5163 17.196 26.5163 16.6072C26.5307 15.8604 26.5307 15.128 26.5163 14.3813C26.502 13.8499 26.2578 13.5484 25.669 13.5484C22.7826 13.5627 19.8817 13.5627 16.9953 13.5484C16.3777 13.5484 16.1193 13.8499 16.1193 14.4244C16.1193 15.1137 16.1193 15.8173 16.1193 16.5066C16.1193 17.1529 16.3921 17.4544 17.0814 17.4544C18.4744 17.4257 19.8961 17.4401 21.3034 17.4401ZM17.4117 20.6999C17.4548 20.6999 17.5122 20.6999 17.5553 20.6999C18.5175 20.6999 18.7616 20.4989 18.7616 19.7091C18.7616 18.9049 18.5606 18.7325 17.5697 18.7325C17.3973 18.7325 17.2394 18.7469 17.0671 18.7325C16.3921 18.6751 16.1049 19.0054 16.1049 19.666C16.1049 20.4989 16.349 20.6999 17.4117 20.6999ZM21.3752 18.7325C21.3034 18.7325 21.2316 18.7325 21.1598 18.7325C20.2264 18.7325 20.011 18.9049 19.9966 19.666C19.9823 20.4845 20.2264 20.6999 21.1598 20.6999C21.3321 20.6999 21.4901 20.6999 21.6624 20.6999C22.4092 20.6712 22.6533 20.4271 22.639 19.6947C22.639 18.8905 22.4379 18.7325 21.3752 18.7325ZM25.2095 18.7325C25.1377 18.7325 25.0659 18.7325 24.9941 18.7325C24.0894 18.7325 23.874 18.9192 23.874 19.7091C23.874 20.4845 24.1181 20.6999 25.0085 20.6999C25.1521 20.6999 25.2957 20.6999 25.4393 20.6999C26.344 20.6856 26.6456 20.3266 26.5307 19.4506C26.4014 18.6177 25.7839 18.7182 25.2095 18.7325ZM17.3973 23.9023C17.4692 23.9023 17.541 23.9023 17.6128 23.9023C18.5318 23.9023 18.7616 23.7157 18.7616 22.9545C18.776 22.1504 18.5175 21.9349 17.584 21.9349C17.4404 21.9349 17.2968 21.9349 17.1532 21.9349C16.3347 21.9493 16.0762 22.2078 16.1193 23.0263C16.148 23.7587 16.349 23.9023 17.3973 23.9023ZM21.1167 23.9023C21.3752 23.9023 21.447 23.9023 21.5188 23.9023C22.4235 23.9023 22.639 23.7013 22.639 22.9258C22.639 22.1647 22.3948 21.9493 21.5045 21.9349C21.3609 21.9349 21.2173 21.9349 21.0737 21.9349C20.1977 21.9493 19.9248 22.2509 19.9966 23.1269C20.0684 24.0172 20.7146 23.9167 21.1167 23.9023ZM24.9941 23.9023C25.2526 23.9023 25.3244 23.9023 25.3962 23.9023C26.3009 23.9023 26.5163 23.7013 26.5163 22.9258C26.5163 22.1504 26.2722 21.9493 25.3818 21.9349C25.2382 21.9349 25.0946 21.9349 24.951 21.9349C24.075 21.9493 23.8022 22.2509 23.874 23.1269C23.9458 24.0172 24.592 23.9167 24.9941 23.9023ZM17.6415 25.1948C17.3686 25.1948 17.2968 25.1948 17.225 25.1948C16.3203 25.1948 16.1049 25.3958 16.1193 26.1857C16.1336 26.9468 16.3634 27.1622 17.2681 27.1622C17.4117 27.1622 17.5553 27.1622 17.6989 27.1622C18.5749 27.1478 18.8478 26.8319 18.776 25.9703C18.6898 25.0799 18.0436 25.1804 17.6415 25.1948ZM21.3609 25.1948C21.2891 25.1948 21.2173 25.1948 21.1455 25.1948C20.212 25.1948 19.9966 25.3671 19.9823 26.1426C19.9679 26.9468 20.212 27.1622 21.1455 27.1766C21.3178 27.1766 21.4758 27.1766 21.6481 27.1766C22.3948 27.1478 22.6246 26.9037 22.6246 26.1713C22.639 25.3528 22.4379 25.1948 21.3609 25.1948ZM25.2526 25.1948C25.1808 25.1948 25.109 25.1948 25.0372 25.1948C24.1037 25.1948 23.8883 25.3671 23.874 26.1282C23.8596 26.9468 24.1037 27.1622 25.0372 27.1622C25.2095 27.1622 25.3675 27.1622 25.5398 27.1622C26.2865 27.1335 26.5307 26.8893 26.5307 26.157C26.5163 25.3528 26.3153 25.1948 25.2526 25.1948Z" fill="#704332"/>
<path d="M6.46785 18.1582C6.46785 19.0055 6.46785 19.8097 6.46785 20.7C7.34385 20.7 8.17676 20.7 8.99531 20.7C8.89479 22.2797 7.80339 23.2706 6.32425 23.2275C4.97435 23.1844 3.86859 22.0212 3.88295 20.6569C3.88295 19.264 4.98871 18.1582 6.46785 18.1582Z" fill="#704332"/>
</svg>
