<svg width="25" height="28" viewBox="0 0 25 28" fill="none" xmlns="http://www.w3.org/2000/svg">
<path d="M7.59279 0.000708281C11.1616 0.0198162 13.7455 3.36665 12.7696 6.79873C12.4175 7.99399 11.9616 9.15617 11.407 10.272C10.5633 12.0079 9.64322 13.7041 8.69517 15.39C8.13222 16.3997 7.02543 16.4571 6.46836 15.5017C4.90445 12.8177 3.42872 10.0897 2.39542 7.14267C1.13724 3.55332 3.96816 -0.0580854 7.59279 0.000708281ZM4.99705 5.43913C4.99156 6.11826 5.25549 6.77187 5.73102 7.25677C6.20654 7.74166 6.85489 8.01829 7.53399 8.02605C8.21393 8.02264 8.86534 7.75243 9.34806 7.27356C9.83077 6.7947 10.1062 6.14547 10.115 5.46558C10.0962 4.80162 9.82013 4.17094 9.34504 3.70673C8.86996 3.24251 8.23306 2.98109 7.56884 2.97765C6.90461 2.97422 6.26505 3.22904 5.78518 3.68832C5.30532 4.1476 5.02272 4.77539 4.99705 5.43913Z" fill="#704332"/>
<path d="M14.643 20.5547C15.6175 21.2749 16.5273 21.9305 17.4151 22.6125C17.5774 22.7548 17.6863 22.9482 17.7238 23.1607C17.9942 24.6996 18.2397 26.2474 18.5057 27.8642C18.2411 27.8804 18.0104 27.9068 17.7796 27.9068H1.33353C0.0929878 27.9068 -0.195101 27.5276 0.115035 26.3238C0.328163 25.4963 0.567747 24.6732 0.742658 23.8368C0.849957 23.3195 1.09248 23.1313 1.62456 23.1137C4.40992 23.027 7.20262 22.902 9.99532 22.783C10.9243 22.7448 11.8532 22.6654 12.788 22.6727C13.5024 22.6727 13.9448 22.4155 14.1594 21.7262C14.2579 21.3616 14.4475 21.0192 14.643 20.5547Z" fill="#704332"/>
<path d="M15.4004 18.8143C16.0618 17.218 16.6983 15.66 17.3656 14.1108C17.4207 14.0274 17.4941 13.9575 17.5801 13.9066C17.6662 13.8557 17.7627 13.825 17.8624 13.8168C18.8163 13.7889 19.7732 13.8065 20.7271 13.8036C21.3738 13.8036 21.5972 14.2269 21.7428 14.7664C22.7227 18.4008 23.7026 22.0352 24.6824 25.6696C24.7997 26.0431 24.8978 26.4223 24.9764 26.8058C25.0925 27.5246 24.7545 27.9508 24.0254 27.9685C22.973 27.9964 21.9191 27.9597 20.8667 27.9876C20.4258 27.9979 20.342 27.7598 20.2788 27.4114C20.0333 25.8651 19.757 24.3247 19.5277 22.7755C19.4972 22.4736 19.401 22.1821 19.2458 21.9213C19.0907 21.6605 18.8804 21.4369 18.6296 21.266C17.5434 20.4855 16.4954 19.6462 15.4004 18.8143Z" fill="#704332"/>
<path d="M1.45117 21.2323C2.10084 18.8438 2.73434 16.5156 3.41782 14.0065C3.89258 14.8297 4.27327 15.5014 4.66425 16.1657C6.11498 18.641 8.96795 18.6189 10.4069 16.1275C10.8567 15.347 11.3256 14.5798 11.7871 13.8066H15.4617C14.9458 15.034 14.4563 16.201 13.9639 17.3651C13.5333 18.3749 13.1217 19.4038 12.6558 20.3959C12.594 20.5124 12.5068 20.6136 12.4007 20.6919C12.2947 20.7703 12.1724 20.8238 12.0429 20.8487C8.61812 21.0133 5.19192 21.1426 1.76719 21.2793C1.66088 21.271 1.55529 21.2553 1.45117 21.2323Z" fill="#704332"/>
</svg>
