<svg width="41" height="40" viewBox="0 0 41 40" fill="none" xmlns="http://www.w3.org/2000/svg">
<path d="M0 19.9911C0 14.8571 0 9.72321 0 4.58929C0 1.79464 1.80357 0 4.60714 0C12.5536 0 20.5 0 28.4464 0C30.7321 0 32.4554 1.47321 32.8125 3.71429C32.8571 3.99107 32.875 4.28571 32.8214 4.55357C32.6964 5.26786 32.0446 5.75893 31.3393 5.71429C30.6518 5.66964 30.0893 5.125 30.0089 4.42857C29.875 3.27679 29.4196 2.85714 28.2768 2.85714C20.375 2.85714 12.4732 2.85714 4.57143 2.85714C3.38393 2.85714 2.85714 3.375 2.85714 4.57143C2.85714 14.8661 2.85714 25.1607 2.85714 35.4643C2.85714 36.6071 3.40179 37.1429 4.55357 37.1429C10.5804 37.1429 16.6071 37.1429 22.6339 37.1429C23.4732 37.1429 24.0446 37.5446 24.2054 38.2411C24.4018 39.0893 23.8125 39.9107 22.9375 39.9911C22.7857 40 22.6429 40 22.4911 40C16.5268 40 10.5625 40 4.58929 40C1.79464 40 0 38.2054 0 35.3929C0 30.2589 0 25.125 0 19.9911Z" fill="white"/>
<path d="M24.3475 25.001C24.0975 24.2956 23.8475 23.6528 23.6332 22.992C22.9725 20.9742 22.3386 18.9474 21.6778 16.9295C21.2136 15.5278 21.4636 14.1885 22.0171 12.8938C23.2493 10.001 26.3653 8.19739 29.3564 8.61704C32.7493 9.09025 35.1868 11.501 35.66 14.7867C35.7761 15.5813 35.6332 16.3224 35.3921 17.0635C34.5707 19.5635 33.7493 22.0545 32.9189 24.5545C32.8743 24.6974 32.8296 24.8313 32.7761 25.0099C33.7225 25.0099 34.6243 25.0099 35.535 25.0099C38.16 25.0188 39.9993 26.8492 39.9993 29.4742C39.9993 30.1438 40.0171 30.8224 39.9189 31.4742C39.6153 33.4474 37.8921 34.9831 35.8921 34.992C31.0082 35.0188 26.1332 35.0278 21.2493 34.992C19.0439 34.9742 17.2136 33.0902 17.16 30.8849C17.1421 30.117 17.1243 29.3313 17.2314 28.5724C17.535 26.5278 19.285 25.0456 21.3653 25.0099C22.3386 24.992 23.3207 25.001 24.3475 25.001ZM29.6868 25.001C29.7225 24.9295 29.7582 24.876 29.7761 24.8224C30.7671 21.9117 31.7671 19.0099 32.7493 16.0992C32.8207 15.876 32.8564 15.6349 32.8386 15.4028C32.7136 13.3313 30.9993 11.6081 28.9189 11.4474C26.7939 11.2778 24.8028 12.742 24.3921 14.8045C24.3118 15.1974 24.2582 15.6617 24.3743 16.0278C25.3386 18.9474 26.3386 21.8492 27.3386 24.751C27.3743 24.8581 27.5618 24.9831 27.6778 24.992C28.3564 25.0099 29.0261 25.001 29.6868 25.001ZM28.5261 32.1438C30.8921 32.1438 33.2582 32.1438 35.6243 32.1438C36.5439 32.1438 37.1332 31.5545 37.1421 30.6349C37.1511 30.2153 37.1511 29.8045 37.1421 29.3849C37.1332 28.4474 36.5439 27.8581 35.5975 27.8581C34.5707 27.8492 33.5439 27.8581 32.5171 27.8581C28.8564 27.8581 25.1957 27.8581 21.535 27.8581C20.5886 27.8581 20.0082 28.4385 19.9993 29.3849C19.9993 29.7599 19.9993 30.126 19.9993 30.501C19.9993 31.5903 20.5528 32.1438 21.6511 32.1438C23.9457 32.1438 26.2314 32.1438 28.5261 32.1438Z" fill="white"/>
<path d="M12.9024 8.57227C14.7328 8.57227 16.5631 8.57227 18.3935 8.57227C19.3489 8.57227 19.9917 9.15262 20.0006 9.99191C20.0096 10.8312 19.3578 11.4294 18.4114 11.4294C14.706 11.4294 11.0006 11.4294 7.29529 11.4294C6.35779 11.4294 5.70601 10.8312 5.71493 9.99191C5.72386 9.15262 6.36672 8.58119 7.32208 8.58119C9.17922 8.57227 11.0453 8.57227 12.9024 8.57227Z" fill="white"/>
<path d="M12.1434 19.9997C10.5363 19.9997 8.92913 19.9997 7.32199 19.9997C6.36663 19.9997 5.72377 19.4194 5.71484 18.5801C5.71484 17.7319 6.3577 17.1426 7.30413 17.1426C10.5363 17.1426 13.7595 17.1426 16.9916 17.1426C17.9291 17.1426 18.5809 17.7408 18.5809 18.5801C18.572 19.4194 17.9291 19.9997 16.9738 19.9997C15.3577 19.9997 13.7506 19.9997 12.1434 19.9997Z" fill="white"/>
<path d="M10.0363 27.1426C10.947 27.1426 11.8488 27.1426 12.7595 27.1426C13.6345 27.1515 14.2773 27.7408 14.2863 28.5533C14.2952 29.3836 13.6523 29.9908 12.7506 29.9997C10.9202 30.0086 9.08984 30.0086 7.25949 29.9997C6.3577 29.9997 5.71484 29.3926 5.71484 28.5622C5.71484 27.7319 6.3577 27.1426 7.26842 27.1426C8.19699 27.1426 9.11663 27.1426 10.0363 27.1426Z" fill="white"/>
</svg>
