<svg width="34" height="33" viewBox="0 0 34 33" fill="none" xmlns="http://www.w3.org/2000/svg">
<path d="M0 16.4926C0 12.2571 0 8.02165 0 3.78616C0 1.48058 1.48795 0 3.80089 0C10.3567 0 16.9125 0 23.4683 0C25.354 0 26.7757 1.2154 27.0703 3.06429C27.1071 3.29263 27.1219 3.53571 27.0777 3.7567C26.9746 4.34598 26.4368 4.75112 25.8549 4.71429C25.2877 4.67746 24.8237 4.22813 24.7574 3.65357C24.6469 2.70335 24.2712 2.35714 23.3284 2.35714C16.8094 2.35714 10.2904 2.35714 3.77143 2.35714C2.79174 2.35714 2.35714 2.78438 2.35714 3.77143C2.35714 12.2645 2.35714 20.7576 2.35714 29.258C2.35714 30.2009 2.80647 30.6429 3.7567 30.6429C8.7288 30.6429 13.7009 30.6429 18.673 30.6429C19.3654 30.6429 19.8368 30.9743 19.9694 31.5489C20.1315 32.2487 19.6453 32.9263 18.9234 32.9926C18.7982 33 18.6804 33 18.5551 33C13.6346 33 8.71406 33 3.78616 33C1.48058 33 0 31.5194 0 29.1991C0 24.9636 0 20.7281 0 16.4926Z" fill="white"/>
<path d="M20.0873 20.6252C19.8811 20.0432 19.6748 19.5129 19.498 18.9678C18.9529 17.3031 18.4299 15.631 17.8849 13.9662C17.5018 12.8098 17.7081 11.7048 18.1648 10.6368C19.1813 8.25016 21.752 6.76222 24.2197 7.10842C27.0188 7.49882 29.0297 9.48766 29.4201 12.1984C29.5159 12.854 29.398 13.4653 29.1991 14.0767C28.5215 16.1392 27.8438 18.1944 27.1587 20.2569C27.1219 20.3747 27.0851 20.4852 27.0409 20.6325C27.8217 20.6325 28.5657 20.6325 29.317 20.6325C31.4826 20.6399 33 22.1499 33 24.3156C33 24.868 33.0148 25.4278 32.9337 25.9656C32.6833 27.5935 31.2616 28.8604 29.6116 28.8678C25.5824 28.8899 21.5605 28.8973 17.5313 28.8678C15.7119 28.8531 14.2018 27.2988 14.1576 25.4794C14.1429 24.8459 14.1282 24.1977 14.2165 23.5716C14.467 21.8848 15.9107 20.662 17.627 20.6325C18.4299 20.6178 19.2402 20.6252 20.0873 20.6252ZM24.4922 20.6252C24.5217 20.5662 24.5511 20.522 24.5659 20.4778C25.3835 18.0765 26.2085 15.6825 27.0188 13.2812C27.0777 13.097 27.1072 12.8982 27.0924 12.7066C26.9893 10.9977 25.575 9.57605 23.8587 9.44347C22.1056 9.30351 20.463 10.5115 20.1241 12.2131C20.0578 12.5372 20.0136 12.9203 20.1094 13.2223C20.9049 15.631 21.7299 18.0249 22.5549 20.4189C22.5844 20.5073 22.7391 20.6104 22.8349 20.6178C23.3947 20.6325 23.9471 20.6252 24.4922 20.6252ZM23.5346 26.518C25.4866 26.518 27.4386 26.518 29.3907 26.518C30.1494 26.518 30.6355 26.0319 30.6429 25.2732C30.6503 24.9269 30.6503 24.5881 30.6429 24.2419C30.6355 23.4685 30.1494 22.9823 29.3686 22.9823C28.5215 22.9749 27.6744 22.9823 26.8273 22.9823C23.8072 22.9823 20.7871 22.9823 17.767 22.9823C16.9862 22.9823 16.5074 23.4611 16.5 24.2419C16.5 24.5513 16.5 24.8533 16.5 25.1627C16.5 26.0613 16.9567 26.518 17.8628 26.518C19.7558 26.518 21.6415 26.518 23.5346 26.518Z" fill="white"/>
<path d="M10.6446 7.07227C12.1547 7.07227 13.6647 7.07227 15.1747 7.07227C15.9629 7.07227 16.4933 7.55106 16.5006 8.24347C16.508 8.93588 15.9703 9.42941 15.1895 9.42941C12.1326 9.42941 9.07563 9.42941 6.01871 9.42941C5.24528 9.42941 4.70755 8.93588 4.71492 8.24347C4.72228 7.55106 5.25264 7.07963 6.04081 7.07963C7.57295 7.07227 9.11246 7.07227 10.6446 7.07227Z" fill="white"/>
<path d="M10.0184 16.4997C8.69252 16.4997 7.36663 16.4997 6.04074 16.4997C5.25257 16.4997 4.72221 16.0209 4.71484 15.3285C4.71484 14.6287 5.2452 14.1426 6.026 14.1426C8.69252 14.1426 11.3517 14.1426 14.0182 14.1426C14.7916 14.1426 15.3294 14.6361 15.3294 15.3285C15.322 16.0209 14.7916 16.4997 14.0035 16.4997C12.6702 16.4997 11.3443 16.4997 10.0184 16.4997Z" fill="white"/>
<path d="M8.28002 22.3926C9.03136 22.3926 9.77533 22.3926 10.5267 22.3926C11.2485 22.3999 11.7789 22.8861 11.7863 23.5564C11.7936 24.2415 11.2633 24.7424 10.5193 24.7497C9.00926 24.7571 7.49922 24.7571 5.98917 24.7497C5.2452 24.7497 4.71484 24.2488 4.71484 23.5638C4.71484 22.8787 5.2452 22.3926 5.99654 22.3926C6.76261 22.3926 7.52132 22.3926 8.28002 22.3926Z" fill="white"/>
</svg>
