<svg width="32" height="32" viewBox="0 0 32 32" fill="none" xmlns="http://www.w3.org/2000/svg">
<rect width="32" height="32" rx="2" fill="#704332"/>
<path d="M20.9558 24.9766H10.6317C10.3897 24.8385 10.3118 24.6978 10.365 24.4938C10.4156 24.3086 10.5633 24.2185 10.826 24.2175H11.9222C11.9222 24.1502 11.9222 24.1122 11.9222 24.0748C11.9303 23.2924 12.3969 22.8318 13.1823 22.8298C13.4101 22.8298 13.6378 22.8202 13.865 22.8334C14.0113 22.8415 14.0589 22.7827 14.0882 22.6491C14.1985 22.1501 14.3215 21.6537 14.4389 21.1557C14.4541 21.0914 14.4642 21.0261 14.4804 20.9436H14.2314C12.366 20.9436 10.5004 20.9436 8.63465 20.9436C7.65285 20.9411 7.00304 20.2933 7.00202 19.314C6.99933 16.1089 6.99933 12.9026 7.00202 9.69542C7.00192 9.49967 7.03126 9.30501 7.08907 9.11798C7.2991 8.45704 7.87654 8.07393 8.63516 8.07393C11.9682 8.07393 15.3013 8.07477 18.6344 8.07646C18.6924 8.0818 18.7507 8.07032 18.8024 8.0434C18.8541 8.01648 18.897 7.97525 18.9259 7.92464C19.2746 7.38971 19.6344 6.86186 19.9886 6.33098C20.2528 5.93269 20.6101 6.12855 21.0813 6.0329C21.1044 6.02491 21.1264 6.01384 21.1466 6H21.64C21.6676 6.01386 21.6964 6.02521 21.726 6.03391C22.5823 6.22116 23.1339 6.50001 23.0464 7.36794C23.0231 7.60024 22.934 7.82342 22.8733 8.06128C23.0317 8.07545 23.2028 8.07342 23.3667 8.10834C24.1203 8.26877 24.5854 8.88366 24.5859 9.71567C24.5859 12.9091 24.5859 16.1026 24.5859 19.2963C24.5884 19.4479 24.5739 19.5994 24.5429 19.7478C24.3733 20.4846 23.7645 20.9431 22.9543 20.9446C21.0821 20.947 19.2096 20.947 17.3368 20.9446H17.0959C17.2431 21.5631 17.3813 22.1527 17.5301 22.7397C17.5402 22.7802 17.6313 22.8248 17.6819 22.8268C17.979 22.8364 18.2771 22.8202 18.5731 22.8374C19.1298 22.8703 19.5463 23.2423 19.644 23.7924C19.6619 23.9338 19.6725 24.076 19.6759 24.2185C20.0615 24.2185 20.4396 24.2185 20.8176 24.2185C21.0084 24.2185 21.1506 24.2939 21.2159 24.4776C21.2883 24.6785 21.2017 24.8359 20.9558 24.9766ZM23.8263 16.8666V9.73085C23.827 9.66767 23.8245 9.60449 23.8187 9.54157C23.7747 9.12861 23.4776 8.84773 23.0641 8.83306C22.849 8.82597 22.6334 8.84014 22.4189 8.828C22.2711 8.81939 22.1769 8.87152 22.0838 8.98589C21.0406 10.2653 19.993 11.5409 18.941 12.8129C18.7938 12.99 18.7265 13.1459 18.8069 13.3696C18.8484 13.4845 18.8464 13.6186 18.8489 13.7446C18.8727 14.897 18.0149 15.6171 17.2193 15.646C16.8853 15.6586 16.5503 15.649 16.2158 15.6404C15.7067 15.6267 15.2411 15.7209 14.8494 16.0812C14.6292 16.2836 14.3165 16.1743 14.239 15.8833C14.0533 15.1905 13.9354 14.4896 14.0037 13.7659C14.1262 12.4151 15.0462 11.5224 16.398 11.4662C16.4505 11.4669 16.5022 11.4531 16.5474 11.4263C16.5926 11.3995 16.6295 11.3608 16.6541 11.3144C17.1601 10.5497 17.6763 9.78399 18.189 9.01626C18.2224 8.96565 18.2518 8.91504 18.3003 8.83255H8.65489C8.05468 8.83255 7.76064 9.1276 7.76064 9.73135C7.76064 12.034 7.76064 14.3367 7.76064 16.6394V16.8555C7.83706 16.86 7.89273 16.8656 7.94789 16.8661C8.24547 16.8661 8.54305 16.8595 8.83961 16.8717C9.07596 16.8808 9.2298 17.0458 9.22576 17.2563C9.22171 17.4668 9.0628 17.6166 8.82544 17.6258C8.64831 17.6308 8.47119 17.6258 8.29406 17.6258H7.76064C7.76064 18.2174 7.76064 18.773 7.76064 19.3292C7.76368 19.8647 8.07593 20.1835 8.60985 20.1835C13.3991 20.1855 18.188 20.1855 22.9766 20.1835C23.5095 20.1835 23.8212 19.8642 23.8248 19.3282C23.8283 18.8156 23.8248 18.3034 23.8248 17.7907C23.8248 17.7401 23.8151 17.6936 23.8081 17.6258H12.075C11.9928 17.6283 11.9105 17.6258 11.8285 17.6182C11.7432 17.6075 11.6643 17.5675 11.6052 17.5051C11.5461 17.4426 11.5105 17.3616 11.5045 17.2759C11.4986 17.1901 11.5226 17.1049 11.5724 17.0349C11.6223 16.9649 11.6949 16.9143 11.7779 16.8919C11.8779 16.8726 11.9798 16.8647 12.0816 16.8681C15.9093 16.8681 19.7366 16.8681 23.5636 16.8681L23.8263 16.8666ZM19.5509 10.8827C19.6814 10.7238 19.7973 10.5831 19.9127 10.4419C20.627 9.57244 21.3411 8.70299 22.055 7.83354C22.2761 7.56532 22.3637 7.26926 22.2574 6.93372C22.1435 6.5739 21.8854 6.36185 21.517 6.31225C21.138 6.26165 20.8404 6.42005 20.6283 6.73736L18.4886 9.93328C18.4658 9.9677 18.4491 10.0062 18.4269 10.0477L19.5509 10.8827ZM14.8443 15.1551C15.3828 14.8904 15.9334 14.8636 16.4941 14.8964C16.6704 14.9095 16.8473 14.9127 17.024 14.9061C17.5594 14.8762 17.9516 14.5898 18.0448 14.1115C18.0903 13.8782 18.0508 13.6247 18.025 13.3833C18.0041 13.2933 17.9512 13.214 17.8762 13.1601C17.4957 12.867 17.1085 12.5836 16.7209 12.2997C16.6729 12.2608 16.6157 12.2349 16.5549 12.2243C16.1829 12.1928 15.8114 12.289 15.5014 12.4969C15.1914 12.7048 14.9614 13.012 14.8494 13.3681C14.6773 13.9536 14.7309 14.5412 14.8468 15.1551H14.8443ZM18.8869 24.2089C18.94 23.7433 18.8049 23.5889 18.3565 23.5889H13.2208C12.7764 23.5889 12.6322 23.759 12.7026 24.2089H18.8869ZM15.2679 20.9502C15.1196 21.5762 14.9744 22.1876 14.8251 22.8167H16.7573C16.6055 22.1825 16.4592 21.5666 16.3124 20.9502H15.2679ZM19.066 11.4713L17.9947 10.6747L17.27 11.7552L18.2421 12.4764C18.5195 12.1408 18.7872 11.8144 19.0686 11.4713H19.066Z" fill="white" stroke="white" stroke-width="0.5" stroke-miterlimit="10"/>
<path d="M10.3668 17.6217C10.3177 17.6218 10.2691 17.6123 10.2237 17.5936C10.1783 17.5749 10.137 17.5475 10.1022 17.5129C10.0674 17.4782 10.0398 17.4371 10.021 17.3917C10.0021 17.3464 9.99236 17.2978 9.99229 17.2487C9.9911 17.1979 10.0002 17.1474 10.0189 17.1002C10.0377 17.0529 10.0657 17.01 10.1015 16.9738C10.1372 16.9377 10.1798 16.9091 10.2268 16.8898C10.2738 16.8704 10.3242 16.8608 10.375 16.8614C10.4259 16.8619 10.476 16.8727 10.5226 16.8931C10.5691 16.9135 10.6111 16.9431 10.646 16.98C10.6809 17.017 10.708 17.0606 10.7256 17.1082C10.7433 17.1559 10.7512 17.2066 10.7489 17.2573C10.7478 17.3064 10.7371 17.3547 10.7173 17.3996C10.6975 17.4445 10.6691 17.4851 10.6336 17.5189C10.598 17.5528 10.5562 17.5793 10.5104 17.5969C10.4646 17.6146 10.4158 17.623 10.3668 17.6217Z" fill="white" stroke="white" stroke-width="0.5" stroke-miterlimit="10"/>
</svg>
