<svg xmlns="http://www.w3.org/2000/svg" width="40" height="40" viewBox="0 0 40 40">
  <path id="Back" d="M305.8,268.782A20,20,0,1,1,325.674,288.8,20.119,20.119,0,0,1,305.8,268.782Zm15.1,1.865c.036-.072.072-.179.108-.251h15.534V267.2H320.652c2.332-2.439,4.484-4.664,6.673-6.924-.789-.753-1.507-1.435-2.26-2.117-3.444,3.587-6.852,7.139-10.26,10.691,3.444,3.587,6.816,7.1,10.26,10.691.789-.753,1.507-1.435,2.26-2.152C325.1,275.024,323.02,272.836,320.9,270.648Z" transform="translate(-305.8 -248.8)" fill="#9b6f5f"/>
</svg>
