<svg width="29" height="27" viewBox="0 0 29 27" fill="none" xmlns="http://www.w3.org/2000/svg">
<path d="M14.5 26.4233H2.54265C0.645972 26.4233 0 25.5727 0 23.0801V2.98079C0 0.997785 0.736683 0.00538373 2.2719 0.00538373C10.4267 -0.00179458 18.5815 -0.00179458 26.7364 0.00538373C28.2633 0.00538373 29 0.997785 29 2.98618C29 9.80557 29 16.625 29 23.4444C29 25.4327 28.2633 26.4198 26.7295 26.4251C22.653 26.4323 18.5765 26.4233 14.5 26.4233ZM4.78706 22.6171V3.83322H2.93711V22.6171H4.78706ZM24.2102 3.80271V22.6009H26.067V3.80271H24.2102ZM10.6627 3.80271V20.1334H12.536V3.80271H10.6627ZM18.3415 20.1692V3.82424H16.4544V20.1692H18.3415ZM14.4808 20.1692V3.82065H13.5503V20.1675L14.4808 20.1692ZM6.72223 20.1549V3.83501H5.82062V20.1531L6.72223 20.1549ZM9.64147 20.1549V3.82424H8.71924V20.1549H9.64147ZM19.3736 3.82424V20.128H20.2918V3.82245L19.3736 3.82424ZM22.2695 20.1549H23.1876V3.82424H22.2654" fill="#704332"/>
</svg>
