<svg id="Cancel_Order" data-name="Cancel Order" xmlns="http://www.w3.org/2000/svg" width="50" height="50" viewBox="0 0 50 50">
  <rect id="Rectangle_93" data-name="Rectangle 93" width="50" height="50" fill="none"/>
  <g id="Group_15193" data-name="Group 15193" transform="translate(9.657 6)">
    <path id="Path_16755" data-name="Path 16755" d="M60.868,52.376a9.456,9.456,0,0,0,2.588,7.561,8.81,8.81,0,0,0,7.613,2.548c.012.264.036.489.036.713q0,9.237,0,18.475a3.136,3.136,0,0,1-3.43,3.454H48.419A3.081,3.081,0,0,1,45.166,81.9q-.006-13.21,0-26.424a3.085,3.085,0,0,1,3.025-3.145c4.115-.028,8.226-.008,12.341-.008C60.615,52.328,60.7,52.352,60.868,52.376ZM58.083,73.227c2.2,0,4.391.008,6.587,0,.91,0,1.5-.5,1.519-1.246.016-.765-.589-1.282-1.531-1.3h-.192q-6.329,0-12.661,0a2.792,2.792,0,0,0-.95.128,1.121,1.121,0,0,0-.777,1.146,1.16,1.16,0,0,0,.789,1.146,2.738,2.738,0,0,0,.885.124C53.86,73.231,55.972,73.227,58.083,73.227Zm.064-5.914c2.24,0,4.479.008,6.719,0a1.241,1.241,0,1,0-.012-2.476c-.064,0-.128,0-.192,0q-6.527,0-13.05,0a2.275,2.275,0,0,0-.757.1,1.194,1.194,0,0,0-.769,1.342,1.216,1.216,0,0,0,1.282,1.038C53.628,67.321,55.887,67.313,58.147,67.313ZM55.755,76.6c-1.4,0-2.8,0-4.2,0-.906,0-1.486.493-1.49,1.246a1.258,1.258,0,0,0,1.406,1.266q4.261.03,8.518,0a1.272,1.272,0,0,0,1.434-1.246A1.321,1.321,0,0,0,59.95,76.6C58.552,76.6,57.154,76.6,55.755,76.6Z" transform="translate(-45.162 -46.754)" fill="#fff"/>
    <path id="Path_16787" data-name="Path 16787" d="M8.86,2a6.86,6.86,0,1,0,6.86,6.86A6.854,6.854,0,0,0,8.86,2Zm3.43,9.323-.967.967L8.86,9.827,6.4,12.29l-.967-.967L7.893,8.86,5.43,6.4,6.4,5.43,8.86,7.893,11.323,5.43l.967.967L9.827,8.86Z" transform="translate(16 -2)" fill="#fff"/>
  </g>
</svg>
