<svg width="36" height="36" viewBox="0 0 36 36" fill="none" xmlns="http://www.w3.org/2000/svg">
<path d="M4.8112 25.7127C1.71073 24.1591 0.6313 22.1467 1.46015 19.4481C2.43646 16.2811 5.50801 15.4002 8.01383 17.5475C8.29303 17.7882 8.6253 17.9593 8.98339 18.0468C11.1895 18.5344 12.5378 19.9955 12.7508 22.191C12.9599 24.3402 11.8969 26.1695 9.91826 27.0677C9.74478 27.1458 9.57419 27.2316 9.40071 27.3154C9.45179 29.4463 7.52616 30.3301 6.62792 31.8519C6.24241 32.5063 6.01785 33.2899 5.88389 34.0436C5.83666 34.3086 6.28096 34.6604 6.37349 34.7924C7.20619 33.4769 7.75747 32.2866 8.59596 31.3517C10.0021 29.7885 11.0362 27.965 12.5417 26.4432C14.8904 24.0694 14.2196 19.4076 11.494 17.6054C10.6999 17.0801 9.62527 16.9799 8.72896 16.7013C8.95159 16.2551 9.15591 15.9139 9.27446 15.5448C9.29662 15.4754 8.91979 15.1593 8.8263 15.193C8.50151 15.326 8.22105 15.565 7.63218 15.9641C7.45484 15.5631 7.05391 15.0533 7.02885 14.5232C6.94211 12.8915 6.99705 11.2531 6.99705 9.5H15.0928V10.9861C15.0928 16.6214 15.0513 22.2566 15.1198 27.8898C15.139 29.4194 15.061 30.7629 13.4486 31.53C12.7913 31.3074 12.0521 30.9142 11.2781 30.8226C9.44504 30.6038 7.66206 32.142 7.6264 33.924C7.61965 34.2623 8.03986 34.6083 8.30779 35.0199C8.81473 33.9597 9.00363 33.1039 9.52696 32.5767C10.4734 31.6225 11.6251 31.7093 12.6284 32.6104C13.1903 33.1125 13.6818 33.4373 14.2928 32.7135C16.4132 30.1962 18.1566 30.0998 20.2085 32.1767H23.7918C26.1406 30.0921 27.5506 30.1643 29.7673 32.7135C29.908 32.8755 30.1287 33.0904 30.3031 33.0807C31.6697 33.0123 32.675 33.6031 33.6012 34.5669C33.8816 34.856 34.6044 34.6777 35.0748 34.8493C35.4246 34.9755 35.6945 35.3215 36 35.5692L35.7562 35.9248H0.260246C0.108933 34.9717 0.108933 34.9717 2.30153 34.6902C2.38056 33.5858 2.59066 32.6326 1.29727 31.7806C-0.431746 30.6472 -0.418253 27.5679 1.25294 26.3382C1.90927 25.8563 2.99641 25.9526 3.88887 25.7965C4.18667 25.7445 4.49026 25.7252 4.78807 25.6866C5.12925 25.6134 5.47235 25.544 5.83763 25.4688C5.83763 24.0232 5.81353 22.6344 5.8463 21.2484C5.86847 20.328 5.46946 20.2288 4.81313 20.4774L4.8112 25.7127ZM5.88871 30.4631L6.13158 30.6645C6.80622 29.7567 7.59363 28.9037 8.04178 27.8966C8.13816 27.6923 6.9344 26.9058 6.32048 26.4008C6.2241 26.3247 6.07857 26.316 5.88871 26.2553V30.4631ZM4.63098 32.0495C3.03978 32.3473 3.59202 33.4952 3.57757 34.3404C3.57757 34.5245 4.15583 34.7182 4.63098 35.0083V32.0495Z" fill="#704332"/>
<path d="M22.0266 31.0038L16.296 29.2893C16.296 29.2035 16.2469 28.7852 16.2469 28.3669C16.2469 21.287 16.2632 14.2071 16.2228 7.1272C16.217 6.13259 16.4329 5.72009 17.5056 5.54275C20.4884 5.04641 23.4434 4.38044 26.541 3.75977V14.5435H22.6319C22.4256 17.1794 22.1413 19.7218 22.0536 22.271C21.9495 25.0592 22.0266 27.8542 22.0266 31.0038ZM20.2215 11.0604V7.73149H18.0732V11.0604H20.2215ZM24.8071 11.0941V7.75077H22.7177V11.0941H24.8071ZM20.181 16.8768V13.5334H18.0915V16.8768H20.181ZM20.181 22.6315V19.291H18.0684V22.6315H20.181ZM20.2302 25.0939H18.0906V28.3939H20.2302V25.0939Z" fill="#704332"/>
<path d="M24.3419 19.8881C24.3419 23.0821 24.3756 26.1594 24.312 29.2368C24.2995 29.815 23.8956 30.3779 23.673 30.9484L23.2422 30.7855V18.7422H33.4987V32.6717C32.5349 32.6543 32.4231 32.0327 32.4279 31.226C32.4501 27.4788 32.4376 23.7317 32.4376 19.8872L24.3419 19.8881Z" fill="#704332"/>
<path d="M29.3585 15.7866C29.6322 13.7627 29.8501 11.9315 30.1527 10.1225C30.2057 9.7996 30.6076 9.5336 31.0692 8.97461C31.4364 11.4881 31.7304 13.4938 32.0455 15.6488L32.965 15.8666V17.3942H23.8477V15.7866H29.3585Z" fill="#704332"/>
<path d="M31.1851 32.1903C29.7713 30.9778 28.7554 30.07 28.9173 28.2272C29.1217 25.893 28.9665 23.5269 28.9665 21.0625H31.1832L31.1851 32.1903Z" fill="#704332"/>
<path d="M25.5723 21.0098H27.7331V29.571H25.5723V21.0098Z" fill="#704332"/>
<path d="M21.356 0C21.5796 0.341177 22.0422 0.732471 21.9825 1.01389C21.7974 1.89479 22.7535 3.25468 20.957 3.68259V0.332503L21.356 0Z" fill="#704332"/>
<path d="M18.6387 0.898438C19.1697 1.41599 19.6988 1.72247 19.6651 1.93643C19.5398 2.70745 20.386 3.98445 18.6387 4.09818V0.898438Z" fill="#704332"/>
<path d="M24.3448 1.33164C24.2022 2.14025 24.8691 3.24955 23.1738 3.06644C23.4562 2.43516 22.5281 1.17551 24.3448 1.33164Z" fill="#704332"/>
</svg>
