<svg width="28" height="35" viewBox="0 0 28 35" fill="none" xmlns="http://www.w3.org/2000/svg">
<path d="M3.27413 6.30743L2.30153 3.32507L9.54667 1.26953C9.8738 2.26096 10.2031 3.19786 10.5324 4.13881C11.0813 5.7683 11.6104 7.40183 12.1857 9.02324C12.2625 9.2393 12.5457 9.39478 12.7345 9.57852L12.9475 9.41093C12.6094 8.40133 12.3086 7.3675 11.9178 6.368C11.7986 6.12778 11.7559 5.86137 11.7948 5.59972C11.8336 5.33808 11.9524 5.09196 12.1374 4.88995C12.4579 4.51438 12.7082 4.08227 13.0331 3.61988L19.4484 7.35337L18.0389 9.45939H20.4122C20.6866 8.24787 21.9995 8.13884 22.8272 7.44019C23.1697 8.60931 22.2147 8.91421 21.3804 9.45939H24.8932C23.409 8.60123 24.7703 7.4402 24.3685 6.41646C24.9766 7.15347 25.5255 7.93894 26.2017 8.61739C27.1963 9.62698 27.3565 10.5336 26.7879 11.8824C25.4113 15.1354 25.2928 18.5922 25.4706 22.0511C25.6803 25.8191 26.2951 29.5587 27.3061 33.2152C27.5454 34.0976 27.1611 34.4591 26.1907 34.3359C25.9428 34.3127 25.6934 34.3046 25.4443 34.3117C17.6868 34.3117 9.92283 34.3117 2.15223 34.3117C1.84924 34.3061 1.54636 34.327 1.24769 34.3743C0.369488 34.5358 -0.0366791 34.136 0.149938 33.3182C0.652707 31.0406 1.27403 28.7871 1.59458 26.4974C2.32787 21.2252 1.94805 16.0198 0.0709003 10.9496C-0.051587 10.4978 -0.0146806 10.0219 0.176284 9.59064C0.500148 8.88844 0.866642 8.20353 1.27403 7.53914C1.68459 6.80819 1.99416 5.96618 3.27413 6.30743ZM25.2115 11.105H1.86023C4.27528 18.3297 3.96352 25.5221 2.05343 32.7246H25.4289C23.8218 25.5019 22.7592 18.3338 25.2115 11.105ZM4.33236 9.48968C4.16989 8.99296 4.05353 8.54873 3.87131 8.12874C3.82858 8.04842 3.76705 7.9778 3.69113 7.92194C3.61521 7.86608 3.52679 7.82638 3.43221 7.80567C3.33013 7.80227 3.2286 7.82075 3.13562 7.85965C3.04265 7.89854 2.96079 7.9568 2.89651 8.0298C2.59792 8.48008 2.37178 8.95863 2.08637 9.48968H4.33236Z" fill="#704332"/>
<path d="M22.2816 0L24.2334 0.321052C24.2202 1.39123 23.6143 1.96468 21.8184 2.59669C21.9655 1.73449 22.1148 0.918734 22.2816 0Z" fill="#704332"/>
<path d="M20.9348 7.57139C20.735 5.82075 22.364 5.73594 23.3344 4.91211C23.5167 6.71727 21.7954 6.72333 20.9348 7.57139Z" fill="#704332"/>
<path d="M21.416 4.94294C21.4468 3.84652 21.6356 3.66479 23.7718 2.6875C23.8574 3.6971 23.3832 4.15142 21.416 4.94294Z" fill="#704332"/>
<path d="M17.6398 14.6004C17.4155 14.5472 17.1954 14.4798 16.9812 14.3985C16.6913 14.2677 16.4667 14.0398 16.3537 13.7616C16.2406 13.4834 16.2475 13.1759 16.373 12.9023C16.6585 12.2965 17.1876 12.0946 17.8682 12.2279C18.1815 12.2982 18.4536 12.4765 18.628 12.7261C18.8025 12.9756 18.8661 13.2772 18.8057 13.5686C18.7367 13.8378 18.7049 14.1139 18.7112 14.3904C19.1196 17.5908 15.2797 20.0684 12.4409 19.6262C11.8337 19.5494 11.255 19.3408 10.7527 19.0179C10.2503 18.6949 9.83863 18.2666 9.55163 17.7685C9.05106 16.9063 8.78101 15.9311 8.41875 15.0022C8.27165 14.6287 8.18603 14.2329 8.01698 13.8674C7.74474 13.2819 7.91379 12.6418 8.51096 12.3409C8.77127 12.1858 9.08593 12.1275 9.39124 12.1777C9.69655 12.228 9.9697 12.383 10.1554 12.6115C10.5835 13.0638 10.5659 13.8452 10.0105 14.1824C9.45503 14.5196 9.4704 14.9295 9.6131 15.4121C9.68336 15.6565 9.75801 15.9008 9.84802 16.1411C10.544 17.9987 11.9447 18.9094 13.6704 18.6267C16.0218 18.239 17.7057 16.557 17.6398 14.6004Z" fill="#704332"/>
<path d="M13.9139 27.7011C13.6153 28.1049 13.3386 28.4906 13.0554 28.8722C12.9652 28.9847 12.8355 29.0651 12.6883 29.0997C12.541 29.1343 12.3853 29.121 12.2475 29.062C12.1113 29.0244 11.9953 28.9415 11.9218 28.8296C11.8484 28.7176 11.8228 28.5846 11.8501 28.4562C11.8871 28.3229 11.9544 28.1983 12.0477 28.0908C12.3309 27.7374 12.6295 27.3901 12.9369 27.0226C12.4473 26.8873 11.9796 26.7621 11.5164 26.6188C11.3837 26.5957 11.2645 26.5296 11.1803 26.4325C11.0961 26.3354 11.0525 26.2138 11.0575 26.0897C11.0522 25.9987 11.0707 25.9079 11.1114 25.8248C11.152 25.7417 11.2137 25.6687 11.2913 25.612C11.3689 25.5553 11.4601 25.5165 11.5573 25.4988C11.6545 25.4811 11.7549 25.485 11.8501 25.5102C12.2607 25.6092 12.6558 25.7566 13.0554 25.8818L13.275 25.9524V25.278C13.275 25.0761 13.275 24.8742 13.275 24.6723C13.2991 24.2038 13.657 23.9736 14.1532 24.1049C14.2796 24.1378 14.3891 24.2113 14.4616 24.3121C14.5341 24.4128 14.5649 24.5342 14.5484 24.6541C14.5484 25.0095 14.5484 25.3669 14.5484 25.7223V25.9666C14.9677 25.8293 15.3563 25.698 15.7493 25.5749C15.8579 25.5232 15.9783 25.4962 16.1006 25.4962C16.2228 25.4962 16.3433 25.5232 16.4519 25.5749C16.5629 25.6315 16.6533 25.7172 16.7115 25.8211C16.7697 25.9249 16.7932 26.0423 16.779 26.1584C16.769 26.2717 16.7197 26.379 16.6382 26.4645C16.5567 26.5499 16.4475 26.609 16.3267 26.6329C15.9206 26.75 15.5144 26.8591 15.1082 26.9701L14.8887 27.0307C15.1873 27.3861 15.4771 27.7273 15.7669 28.0746C15.8656 28.1804 15.9403 28.3033 15.9864 28.4361C16.0204 28.5628 16.0022 28.6967 15.9353 28.8119C15.8685 28.9271 15.7576 29.0154 15.6242 29.06C15.4822 29.1275 15.3185 29.1453 15.1634 29.11C15.0083 29.0747 14.8724 28.9887 14.7811 28.8682C14.533 28.535 14.2915 28.1998 14.0478 27.8586C14.0083 27.8162 13.9731 27.7738 13.9139 27.7011Z" fill="#704332"/>
<path d="M7.40469 27.6965L6.56162 28.8434C6.48932 28.9512 6.38063 29.0342 6.25217 29.0798C6.1237 29.1254 5.98254 29.131 5.85028 29.0958C5.7402 29.0829 5.63604 29.0426 5.54899 28.9793C5.46194 28.916 5.39531 28.8321 5.35624 28.7366C5.31718 28.6411 5.30717 28.5376 5.3273 28.4372C5.34742 28.3368 5.39692 28.2434 5.47045 28.167C5.7405 27.8257 6.03031 27.4966 6.30914 27.1574C6.33987 27.121 6.36622 27.0827 6.41671 27.0181L5.36068 26.7273C5.22236 26.6889 5.08185 26.6546 4.94793 26.6082C4.87158 26.5872 4.80068 26.5522 4.73955 26.5052C4.67843 26.4582 4.62836 26.4003 4.5924 26.3349C4.55644 26.2695 4.53535 26.198 4.53042 26.1249C4.52549 26.0518 4.53682 25.9785 4.56371 25.9095C4.6056 25.7682 4.70532 25.6472 4.842 25.5719C4.97869 25.4966 5.14174 25.4729 5.29701 25.5057C5.71855 25.6127 6.1291 25.7581 6.54405 25.8853L6.7636 25.9499C6.7636 25.6531 6.7636 25.3785 6.7636 25.1039C6.7636 24.9242 6.7636 24.7465 6.77897 24.5688C6.81849 24.2215 7.03804 24.066 7.43762 24.0741C7.51565 24.068 7.5942 24.0773 7.66803 24.1013C7.74186 24.1253 7.80928 24.1635 7.86579 24.2134C7.9223 24.2633 7.9666 24.3236 7.99574 24.3905C8.02488 24.4573 8.0382 24.5291 8.0348 24.6011C8.05016 24.9706 8.0348 25.3401 8.0348 25.7096V25.958C8.44975 25.8207 8.83176 25.6915 9.21597 25.5683C9.32524 25.5175 9.44594 25.4911 9.56835 25.4911C9.69076 25.4911 9.81146 25.5175 9.92073 25.5683C10.0375 25.6251 10.1321 25.714 10.1915 25.8225C10.2509 25.9311 10.2722 26.0539 10.2522 26.174C10.2426 26.284 10.1947 26.3882 10.1156 26.4711C10.0365 26.5541 9.93044 26.6113 9.81315 26.6344C9.40918 26.7515 9.00081 26.8606 8.59465 26.9736L8.3751 27.0383C8.69125 27.4179 9.00521 27.7692 9.28623 28.1428C9.39424 28.2867 9.4538 28.4566 9.45748 28.6314C9.44499 28.7549 9.38552 28.8704 9.28954 28.9576C9.19355 29.0448 9.06721 29.098 8.93275 29.1079C8.80823 29.1393 8.67611 29.1335 8.5554 29.0914C8.43469 29.0493 8.33159 28.9731 8.26093 28.8737C7.9843 28.484 7.70108 28.1024 7.40469 27.6965Z" fill="#704332"/>
<path d="M7.39556 30.0537C8.08714 30.0537 8.77653 30.0537 9.46811 30.0537C9.60633 30.0489 9.74248 30.0858 9.85583 30.1587C9.96918 30.2316 10.0535 30.3365 10.096 30.4576C10.1417 30.5734 10.145 30.6999 10.1054 30.8176C10.0657 30.9353 9.98536 31.0379 9.87648 31.1098C9.74523 31.1881 9.59364 31.2327 9.43738 31.239C8.09154 31.239 6.7457 31.239 5.39986 31.239C5.24379 31.2515 5.08801 31.2124 4.96045 31.1288C4.8329 31.0451 4.74193 30.9224 4.70388 30.7827C4.66798 30.6569 4.67998 30.5236 4.7379 30.4049C4.79581 30.2862 4.89616 30.1894 5.02223 30.1305C5.14665 30.0801 5.28151 30.0553 5.41742 30.0578C6.07168 30.0497 6.73252 30.0537 7.39556 30.0537Z" fill="#704332"/>
<path d="M13.9192 30.0534C14.602 30.0534 15.287 30.0534 15.9698 30.0534C16.1039 30.044 16.2376 30.0756 16.3503 30.1431C16.463 30.2106 16.5484 30.3103 16.5933 30.4269C16.6486 30.533 16.6638 30.653 16.6363 30.7679C16.6089 30.8828 16.5404 30.986 16.4418 31.0609C16.312 31.1619 16.1504 31.2221 15.9808 31.2326C14.613 31.2467 13.2452 31.2447 11.8796 31.2326C11.727 31.2389 11.5768 31.1962 11.4546 31.1118C11.3324 31.0275 11.246 30.9067 11.21 30.7702C11.1764 30.6473 11.1886 30.5176 11.2448 30.4019C11.3009 30.2862 11.3977 30.1912 11.5195 30.1321C11.6502 30.0787 11.7915 30.0512 11.9345 30.0513C12.5953 30.0493 13.2584 30.0534 13.9192 30.0534Z" fill="#704332"/>
<path d="M20.4415 30.0526C21.1243 30.0526 21.8093 30.0526 22.4921 30.0526C22.6228 30.0459 22.7526 30.0771 22.8629 30.142C22.9733 30.2069 23.0586 30.3021 23.1068 30.4141C23.1556 30.5108 23.173 30.6184 23.1571 30.7241C23.1411 30.8297 23.0924 30.9289 23.0168 31.0097C22.9516 31.0858 22.8676 31.1464 22.7717 31.1865C22.6758 31.2265 22.5709 31.2449 22.4657 31.2399C21.1206 31.2399 19.7748 31.2399 18.4282 31.2399C18.2793 31.2526 18.1302 31.2183 18.0053 31.1427C17.8804 31.0672 17.7872 30.9547 17.741 30.824C17.6976 30.7145 17.6934 30.5951 17.729 30.4832C17.7645 30.3714 17.8379 30.2729 17.9386 30.2021C18.0871 30.1144 18.2584 30.0649 18.4348 30.0587C19.0956 30.0425 19.7718 30.0506 20.4415 30.0526Z" fill="#704332"/>
</svg>
