<svg width="30" height="27" viewBox="0 0 30 27" fill="none" xmlns="http://www.w3.org/2000/svg">
<path d="M0 26.9961V7.57681C0.00655353 7.49847 0.0163838 7.42013 0.0190648 7.34148C0.0330656 6.92444 0.0381297 6.50948 0.0631522 6.09423C0.0715103 5.98181 0.111589 5.87407 0.178733 5.78353C0.375637 5.52913 0.63331 5.34831 0.959199 5.31167C1.26364 5.27712 1.57195 5.27414 1.87848 5.26044C1.99078 5.25537 2.10368 5.26044 2.23118 5.26044C2.23118 5.11596 2.22939 4.98817 2.23118 4.86037C2.24846 3.76057 2.27616 2.66077 2.28093 1.56097C2.2848 0.889231 3.07122 -0.012774 3.89667 0.0196958C4.06468 0.0265472 4.23358 0.00420563 4.40308 0.00420563C7.94834 0.00142535 11.4939 3.5203e-05 15.0398 3.5203e-05C15.089 -0.000603918 15.1379 0.00746409 15.1842 0.0238662C15.8423 0.271709 16.5146 0.843058 16.4949 1.85886C16.4753 2.92857 16.5119 3.99918 16.5247 5.06949C16.5247 5.12728 16.5301 5.18507 16.5349 5.28546C16.8554 5.28546 17.1622 5.27831 17.4687 5.28755C17.747 5.29589 18.0288 5.32389 18.273 5.47015C18.4988 5.60539 18.7228 5.77012 18.7234 6.06801C18.7364 12.9913 18.7469 19.9143 18.755 26.8371V26.9914H11.8178V26.8099C11.8178 24.8226 11.8178 22.8354 11.8178 20.8483C11.8178 20.6377 11.5467 20.3645 11.3376 20.3645H7.42426C7.20859 20.3645 6.93692 20.6395 6.93692 20.8576V27H6.73971C5.08822 27 3.43673 27 1.78524 27C1.19086 26.9996 0.595776 26.9983 0 26.9961ZM13.822 11.6796C14.5903 11.6918 15.3588 11.7035 16.1274 11.7061C16.2761 11.7051 16.424 11.6845 16.5673 11.6448C16.8387 11.5718 16.9945 11.3517 16.9945 11.0743V9.79548H16.9683C16.9683 9.32482 16.9787 8.85386 16.965 8.38379C16.9525 7.95483 16.7967 7.77878 16.3672 7.76508C15.5795 7.74006 14.7907 7.74691 14.0025 7.74453C13.8885 7.74694 13.7749 7.75919 13.6629 7.78117C13.3162 7.84074 13.1184 8.00696 13.1068 8.35758C13.077 9.22294 13.0865 10.0898 13.0814 10.9564C13.0833 11.0059 13.0889 11.0552 13.0984 11.1038C13.1413 11.3764 13.2706 11.5772 13.5578 11.64M2.43047 7.76955C1.9324 7.80083 1.79656 7.96139 1.78673 8.46988C1.77362 9.1584 1.76747 9.84702 1.76826 10.5357C1.76755 10.7682 1.78388 11.0004 1.81712 11.2304C1.85048 11.4553 1.99317 11.6066 2.22254 11.6501C2.37739 11.6833 2.53492 11.7023 2.6932 11.707C3.4272 11.7106 4.1612 11.6939 4.8946 11.7091C5.17342 11.7148 5.39028 11.654 5.56455 11.4282C5.63068 11.3427 5.6837 11.273 5.68162 11.1577C5.67506 10.7169 5.67894 10.2757 5.67894 9.8348H5.69621C5.69621 9.65607 5.70068 9.47734 5.69621 9.29861C5.68579 8.94769 5.6837 8.59529 5.65153 8.24587C5.6271 7.97777 5.47458 7.83508 5.20946 7.80857M1.76141 15.621V16.7509C1.76141 17.2174 1.76141 17.2186 2.1016 17.5349C2.13978 17.5707 2.18911 17.5923 2.24131 17.596C3.20825 17.5888 4.1749 17.5766 5.14184 17.5662C5.31521 17.5644 5.46237 17.4947 5.53863 17.3472C5.61102 17.2072 5.67536 17.0449 5.67953 16.8906C5.6986 16.1825 5.69889 15.4738 5.6983 14.7654C5.70044 14.5626 5.6861 14.3598 5.6554 14.1592C5.60893 13.8792 5.4016 13.7053 5.1192 13.7002C4.27648 13.6847 3.43316 13.6907 2.59103 13.6582C2.27616 13.6463 2.03011 13.7136 1.85376 13.9757C1.81026 14.0401 1.76618 14.1202 1.76439 14.1938C1.75754 14.6695 1.76141 15.1456 1.76141 15.621ZM11.3412 9.10498C11.3412 8.83688 11.329 8.56878 11.3057 8.30396C11.276 7.96913 11.1407 7.8324 10.8089 7.77372C10.7504 7.76302 10.6913 7.75675 10.6319 7.75495C10.2009 7.74601 9.76804 7.72874 9.33849 7.7338C8.87825 7.73946 8.41712 7.75346 7.95808 7.78891C7.64648 7.81304 7.46179 8.02931 7.43856 8.3409C7.42515 8.5235 7.41413 8.7067 7.41294 8.8899C7.40937 9.52887 7.42873 10.1684 7.40222 10.8065C7.38851 11.1342 7.46626 11.3883 7.71708 11.6007C7.79156 11.6635 7.8556 11.696 7.95093 11.6954C8.3921 11.6918 8.83327 11.6939 9.27444 11.6939V11.6603C9.77489 11.6603 10.2759 11.6778 10.7749 11.6546C11.1458 11.637 11.2941 11.4809 11.3081 11.1095M16.9665 21.5123H16.9939C16.9939 21.0816 16.9677 20.6484 17.0025 20.2204C17.027 19.9225 16.8444 19.786 16.6731 19.6246C16.6493 19.6017 16.6004 19.5978 16.5632 19.5981C15.6215 19.6031 14.6799 19.6151 13.7383 19.6148C13.2915 19.6148 13.1029 19.8698 13.0969 20.2317C13.0838 21.0628 13.0814 21.8945 13.0969 22.7259C13.1077 23.3032 13.312 23.4909 13.8872 23.5198C13.9021 23.5198 13.917 23.5198 13.9316 23.5198C14.4678 23.5242 15.0022 23.5382 15.5372 23.5299C15.8737 23.5274 16.2096 23.5033 16.5429 23.4578C16.8304 23.4161 16.9582 23.2553 16.9641 22.9678C16.9737 22.4825 16.9665 21.9973 16.9665 21.5123ZM11.3463 15.6308C11.3463 15.2495 11.3242 14.8664 11.3531 14.4872C11.3775 14.1709 11.2953 13.9278 11.035 13.7502C10.9781 13.7115 10.9069 13.6692 10.8425 13.6695C9.89604 13.6757 8.94955 13.6864 8.00306 13.7017C7.69623 13.7062 7.4755 13.912 7.44213 14.2179C7.42571 14.3607 7.41745 14.5043 7.41741 14.6481C7.42158 15.4205 7.43826 16.1932 7.43171 16.9659C7.42992 17.1777 7.48354 17.3234 7.65244 17.4569C7.77636 17.5546 7.88837 17.6058 8.04863 17.6037C8.87617 17.5954 9.70459 17.585 10.5318 17.6076C10.836 17.6159 11.0639 17.548 11.2494 17.3055C11.309 17.2266 11.3495 17.1599 11.3486 17.0574C11.3436 16.582 11.3463 16.1065 11.3463 15.6308ZM16.9656 15.6356H16.9933C16.9933 15.4473 16.9969 15.259 16.9933 15.0711C16.9868 14.7839 16.9814 14.4968 16.9635 14.2102C16.9418 13.8625 16.8 13.716 16.4538 13.7002C15.9987 13.6796 15.5426 13.668 15.0868 13.6683C14.5968 13.6683 14.1059 13.6755 13.6165 13.7026C13.3168 13.719 13.0999 13.9477 13.0969 14.2516C13.0883 15.167 13.088 16.0824 13.1026 16.9975C13.1086 17.3595 13.2554 17.4953 13.6141 17.5564C13.6633 17.5649 13.7131 17.5697 13.763 17.5707C14.5161 17.5787 15.2691 17.5894 16.0222 17.5909C16.2005 17.59 16.3784 17.5736 16.5539 17.5421C16.822 17.4953 16.9591 17.3449 16.965 17.0759C16.9731 16.596 16.9656 16.1158 16.9656 15.6356ZM5.68072 22.7155C5.68936 21.8984 5.67327 21.0807 5.68638 20.2636C5.68996 20.0285 5.62859 19.8632 5.43914 19.7226C5.3313 19.6425 5.23717 19.5885 5.09627 19.5915C4.64556 19.6011 4.19426 19.5951 3.74296 19.5951V19.5856C3.24757 19.6008 2.75189 19.61 2.2568 19.6341C1.95891 19.6487 1.85346 19.7533 1.81592 20.0473C1.79197 20.2239 1.77914 20.4017 1.7775 20.5799C1.7775 21.3526 1.7775 22.1254 1.78763 22.8978C1.79299 23.2523 1.97887 23.4402 2.33157 23.4879C2.43439 23.5042 2.53819 23.5135 2.64227 23.5159C3.31639 23.5159 3.99051 23.5159 4.66463 23.5073C4.8626 23.5012 5.06004 23.4835 5.25593 23.4542" fill="#704332"/>
<path d="M7.95703 7.7904C8.41608 7.75495 8.87721 7.74095 9.33744 7.73529C9.76849 7.73022 10.1998 7.7475 10.6309 7.75644C10.6902 7.75823 10.7494 7.76451 10.8078 7.7752" fill="white"/>
<path d="M16.5404 23.459C16.2071 23.5045 15.8712 23.5285 15.5348 23.5311C14.9986 23.5394 14.4645 23.5254 13.9292 23.5209C13.9146 23.5209 13.8994 23.5209 13.8848 23.5209" fill="white"/>
<path d="M17.0036 20.2207C16.9687 20.6488 16.9949 21.0819 16.9949 21.5126H16.9675C16.9675 21.9976 16.9747 22.4829 16.9648 22.9678" fill="white"/>
<path d="M13.7402 19.6124C14.6819 19.6124 15.6235 19.6008 16.5651 19.5957L13.7402 19.6124Z" fill="white"/>
<path d="M13.6133 13.7042C14.1027 13.6771 14.5936 13.6702 15.0837 13.6699L13.6133 13.7042Z" fill="white"/>
<path d="M1.78803 22.8968C1.77641 22.1243 1.77671 21.3516 1.7779 20.5789C1.78006 20.4009 1.79339 20.2232 1.81782 20.0469" fill="white"/>
<path d="M5.68148 22.7148C5.6797 22.8784 5.62965 23.0449 5.5802 23.2031C5.53373 23.352 5.40862 23.4336 5.2564 23.4536C5.0605 23.4829 4.86306 23.5006 4.66509 23.5066C3.99097 23.5153 3.31685 23.5153 2.64273 23.5153C2.53865 23.5129 2.43485 23.5036 2.33203 23.4873" fill="white"/>
<path d="M2.25586 19.6345C2.75095 19.6104 3.24663 19.6011 3.74202 19.5859V19.5955C4.19332 19.5955 4.64462 19.6014 5.09533 19.5919" fill="white"/>
<path d="M19.8164 26.9869C19.8164 26.9133 19.8164 26.8495 19.8164 26.7858C19.8259 23.1484 19.8365 19.5108 19.848 15.873C19.8505 15.7801 19.8725 15.6887 19.9126 15.6049C20.0762 15.2525 20.2623 14.9144 20.5873 14.6781C20.8399 14.4943 21.1101 14.3549 21.4324 14.3526C22.5877 14.3433 23.7432 14.329 24.8984 14.3281C25.7363 14.3281 26.5746 14.3543 27.4125 14.3508C28.1185 14.3475 28.5803 14.7139 28.9294 15.2799C29.0813 15.5262 29.1403 15.7848 29.1403 16.0794C29.1419 19.638 29.1497 23.1963 29.1638 26.7545C29.1638 26.8284 29.1638 26.9035 29.1638 26.9869H19.8164ZM22.2889 24.3541V24.3309C22.6654 24.3309 23.0431 24.3497 23.4179 24.3249C23.7003 24.3062 23.8385 24.1212 23.8433 23.845C23.8433 23.7709 23.848 23.6961 23.8474 23.6222C23.8447 23.0428 23.8522 22.4631 23.834 21.8841C23.8242 21.5778 23.6747 21.417 23.3699 21.4074C22.7068 21.3869 22.0422 21.3827 21.3791 21.4009C21.0318 21.4104 20.8971 21.5754 20.89 21.9252C20.8787 22.4801 20.879 23.0351 20.8769 23.5901C20.876 23.7041 20.8817 23.8181 20.8939 23.9314C20.9032 24.0491 20.9574 24.1587 21.0454 24.2373C21.1334 24.316 21.2483 24.3577 21.3663 24.3538L22.2889 24.3541ZM22.4715 19.865V19.8632C22.8179 19.8632 23.1647 19.8632 23.5111 19.8632C23.6499 19.8632 23.7363 19.7932 23.7765 19.6687C23.8087 19.5804 23.8281 19.488 23.8343 19.3943C23.8474 18.7711 23.8537 18.1476 23.8614 17.5245C23.8605 17.4898 23.8566 17.4554 23.8498 17.4214C23.7995 17.1143 23.6097 16.951 23.3038 16.951C23.0312 16.951 22.7586 16.9483 22.4864 16.951C22.0991 16.9558 21.7137 16.9549 21.3282 16.9752C21.0428 16.9901 20.9013 17.1211 20.8957 17.4038C20.8818 18.0812 20.8818 18.7588 20.8957 19.4366C20.9013 19.7124 21.0258 19.8432 21.299 19.8584C21.6892 19.8799 22.081 19.8638 22.4718 19.8638L22.4715 19.865ZM25.1823 22.9034H25.168C25.168 23.2698 25.168 23.6365 25.168 24.0029C25.168 24.0494 25.1721 24.1179 25.201 24.1376C25.305 24.2088 25.4161 24.3041 25.5323 24.3163C25.8364 24.3494 26.145 24.3488 26.4519 24.3521C26.8186 24.3562 27.1856 24.3586 27.552 24.3464C27.9425 24.3336 28.0712 24.1974 28.0932 23.8102C28.0932 23.7855 28.0965 23.7607 28.0965 23.736C28.0951 23.1317 28.0929 22.5275 28.0899 21.9234C28.0888 21.859 28.0795 21.7951 28.0622 21.733C28.0374 21.6335 27.9799 21.5453 27.8988 21.4825C27.8178 21.4197 27.7179 21.386 27.6154 21.3869C27.1984 21.3833 26.7813 21.3753 26.3664 21.3779C26.1039 21.3797 25.8412 21.3887 25.5799 21.4107C25.2782 21.4363 25.1882 21.5346 25.1829 21.8343C25.1769 22.1876 25.182 22.5445 25.182 22.901L25.1823 22.9034ZM26.7354 19.8894C27.0777 19.8894 27.4206 19.8915 27.762 19.887C27.8135 19.8871 27.8634 19.8692 27.9032 19.8364C27.9625 19.7797 28.0097 19.7115 28.042 19.6361C28.0742 19.5606 28.0909 19.4794 28.0908 19.3973C28.0908 18.7384 28.0971 18.0794 28.0891 17.4208C28.0858 17.1375 27.9255 16.9793 27.6404 16.974C27.031 16.9603 26.4212 16.9567 25.8117 16.9558C25.6929 16.9594 25.5748 16.9753 25.4593 17.0032C25.3255 17.0309 25.2433 17.1223 25.2115 17.2525C25.1889 17.3387 25.1766 17.4273 25.1748 17.5164C25.1718 18.1207 25.1718 18.725 25.1748 19.3294C25.1776 19.4083 25.1876 19.4869 25.2046 19.5641C25.2344 19.7294 25.3419 19.8245 25.5025 19.8551C25.5997 19.8746 25.6983 19.8854 25.7974 19.8876C26.1105 19.8894 26.423 19.887 26.7352 19.887L26.7354 19.8894Z" fill="#704332"/>
<path d="M8.76953 21.4297H9.99087V26.9892H8.76953V21.4297Z" fill="#704332"/>
<path d="M28.1017 23.7363C28.1017 23.7611 28.0999 23.7858 28.0984 23.8105C28.0763 24.1978 27.9477 24.3351 27.5571 24.3467C27.1907 24.3589 26.8237 24.3565 26.457 24.3524" fill="white"/>
<path d="M28.0664 21.7305C28.0836 21.7925 28.0929 21.8565 28.0941 21.9208L28.0664 21.7305Z" fill="white"/>
<path d="M26.3711 21.3755C26.7881 21.3729 27.2052 21.3809 27.6201 21.3845L26.3711 21.3755Z" fill="white"/>
<path d="M25.2075 19.5636C25.1905 19.4864 25.1805 19.4078 25.1777 19.3288C25.1751 18.7245 25.1751 18.1202 25.1777 17.5159C25.1795 17.4268 25.1918 17.3382 25.2144 17.252" fill="white"/>
<path d="M26.7415 19.8917C26.4293 19.8917 26.116 19.8941 25.8047 19.8899C25.7056 19.8877 25.6069 19.8769 25.5098 19.8574" fill="white"/>
<path d="M28.092 19.3984C28.092 19.4805 28.0754 19.5617 28.0431 19.6372C28.0109 19.7127 27.9636 19.7808 27.9043 19.8375" fill="white"/>
<path d="M25.459 17.0044C25.5745 16.9765 25.6926 16.9607 25.8114 16.957L25.459 17.0044Z" fill="white"/>
</svg>
