<svg width="30" height="30" viewBox="0 0 30 30" fill="none" xmlns="http://www.w3.org/2000/svg">
<path d="M0 29.8274V8.37144C0.00674147 8.28487 0.0168537 8.19831 0.0196116 8.11142C0.0340138 7.65064 0.0392231 7.19217 0.0649633 6.73336C0.073561 6.60916 0.114789 6.49012 0.183858 6.39008C0.386409 6.109 0.651471 5.90922 0.986706 5.86874C1.29988 5.83056 1.61703 5.82727 1.93235 5.81213C2.04787 5.80653 2.16401 5.81213 2.29516 5.81213C2.29516 5.6525 2.29333 5.5113 2.29516 5.37011C2.31294 4.15496 2.34144 2.93982 2.34634 1.72468C2.35032 0.982489 3.1593 -0.0141137 4.00842 0.0217614C4.18124 0.0293314 4.35499 0.0046467 4.52935 0.0046467C8.17628 0.00157483 11.8235 3.8895e-05 15.4711 3.8895e-05C15.5217 -0.000667254 15.572 0.00824689 15.6197 0.0263692C16.2966 0.300205 16.9882 0.931474 16.968 2.0538C16.9477 3.23571 16.9854 4.4186 16.9986 5.60116C16.9986 5.66501 17.0041 5.72886 17.009 5.83977C17.3388 5.83977 17.6544 5.83188 17.9697 5.84208C18.2559 5.85129 18.5458 5.88223 18.7971 6.04384C19.0293 6.19326 19.2598 6.37527 19.2604 6.7044C19.2737 14.3538 19.2845 22.0029 19.2929 29.6516V29.8221H12.1567V29.6217C12.1567 27.4259 12.1567 25.2303 12.1567 23.0348C12.1567 22.8021 11.8779 22.5003 11.6627 22.5003H7.63717C7.41531 22.5003 7.13585 22.8041 7.13585 23.045V29.8316H6.93299C5.23414 29.8316 3.53529 29.8316 1.83644 29.8316C1.22501 29.8312 0.612861 29.8298 0 29.8274ZM14.2184 12.9045C15.0087 12.918 15.7992 12.9309 16.5898 12.9338C16.7428 12.9327 16.895 12.9099 17.0424 12.866C17.3216 12.7854 17.4819 12.5422 17.4819 12.2357V10.8228H17.4549C17.4549 10.3028 17.4656 9.78241 17.4515 9.26305C17.4387 8.7891 17.2784 8.59459 16.8365 8.57945C16.0263 8.5518 15.2149 8.55937 14.4041 8.55674C14.2868 8.5594 14.1699 8.57294 14.0547 8.59722C13.6981 8.66304 13.4946 8.8467 13.4826 9.23408C13.452 10.1902 13.4618 11.148 13.4566 12.1054C13.4585 12.1601 13.4643 12.2146 13.4741 12.2683C13.5182 12.5695 13.6512 12.7913 13.9466 12.8608M2.50017 8.58438C1.98781 8.61894 1.84808 8.79634 1.83797 9.35816C1.82449 10.1189 1.81815 10.8797 1.81897 11.6407C1.81824 11.8975 1.83504 12.154 1.86923 12.4082C1.90355 12.6567 2.05033 12.8239 2.28628 12.8719C2.44557 12.9085 2.60762 12.9296 2.77044 12.9348C3.52548 12.9388 4.28053 12.9203 5.03496 12.9371C5.32178 12.9434 5.54486 12.8762 5.72412 12.6267C5.79215 12.5323 5.84669 12.4553 5.84455 12.3279C5.83781 11.8408 5.84179 11.3533 5.84179 10.8662H5.85956C5.85956 10.6688 5.86416 10.4713 5.85956 10.2738C5.84884 9.88609 5.84669 9.49673 5.8136 9.11066C5.78847 8.81444 5.63158 8.65679 5.35886 8.6275M1.81192 17.2592V18.5076C1.81192 19.023 1.81192 19.0244 2.16187 19.3739C2.20114 19.4134 2.25189 19.4373 2.30558 19.4414C3.30026 19.4335 4.29462 19.42 5.2893 19.4084C5.46764 19.4065 5.61902 19.3295 5.69746 19.1665C5.77192 19.0118 5.83811 18.8325 5.8424 18.662C5.86202 17.8796 5.86232 17.0966 5.86171 16.314C5.86391 16.0898 5.84916 15.8658 5.81758 15.6442C5.76978 15.3348 5.5565 15.1426 5.26601 15.137C4.39912 15.1199 3.53161 15.1265 2.66533 15.0906C2.34144 15.0774 2.08832 15.1518 1.90692 15.4415C1.86218 15.5125 1.81683 15.6011 1.81499 15.6824C1.80794 16.208 1.81192 16.7339 1.81192 17.2592ZM11.6664 10.0599C11.6664 9.76365 11.6539 9.46744 11.63 9.17484C11.5993 8.8049 11.4602 8.65383 11.1188 8.58899C11.0587 8.57717 10.9979 8.57024 10.9368 8.56825C10.4934 8.55838 10.0482 8.53929 9.60629 8.54489C9.13285 8.55114 8.6585 8.56661 8.18629 8.60578C7.86576 8.63244 7.67578 8.87138 7.65188 9.21565C7.63809 9.41741 7.62675 9.61982 7.62552 9.82224C7.62185 10.5282 7.64176 11.2349 7.61449 11.9399C7.6004 12.3019 7.68037 12.5826 7.93839 12.8173C8.015 12.8868 8.08088 12.9226 8.17894 12.922C8.63276 12.918 9.08658 12.9203 9.54041 12.9203V12.8831C10.0552 12.8831 10.5706 12.9026 11.0839 12.8769C11.4654 12.8575 11.618 12.685 11.6324 12.2746M17.4531 23.7684H17.4812C17.4812 23.2925 17.4543 22.8139 17.4901 22.341C17.5153 22.0119 17.3274 21.8611 17.1512 21.6827C17.1267 21.6574 17.0765 21.6531 17.0381 21.6534C16.0695 21.659 15.1009 21.6722 14.1323 21.6719C13.6726 21.6719 13.4787 21.9536 13.4725 22.3535C13.459 23.2718 13.4566 24.1907 13.4725 25.1093C13.4836 25.7471 13.6938 25.9545 14.2855 25.9864C14.3008 25.9864 14.3161 25.9864 14.3311 25.9864C14.8827 25.9914 15.4325 26.0068 15.9828 25.9976C16.3289 25.9948 16.6744 25.9682 17.0173 25.918C17.313 25.8719 17.4445 25.6942 17.4506 25.3765C17.4604 24.8404 17.4531 24.3042 17.4531 23.7684ZM11.6716 17.2701C11.6716 16.8488 11.649 16.4256 11.6787 16.0066C11.7038 15.657 11.6192 15.3885 11.3514 15.1923C11.2929 15.1495 11.2196 15.1028 11.1535 15.1031C10.1798 15.1099 9.20619 15.1218 8.23256 15.1387C7.91694 15.1436 7.68987 15.371 7.65555 15.709C7.63866 15.8668 7.63016 16.0255 7.63012 16.1843C7.63441 17.0377 7.65157 17.8915 7.64483 18.7453C7.64299 18.9793 7.69815 19.1402 7.87189 19.2877C7.99937 19.3956 8.11459 19.4522 8.27945 19.4499C9.13071 19.4407 9.98289 19.4292 10.8338 19.4542C11.1467 19.4634 11.3811 19.3884 11.572 19.1205C11.6333 19.0332 11.675 18.9595 11.6741 18.8463C11.6689 18.321 11.6716 17.7957 11.6716 17.2701ZM17.4521 17.2754H17.4806C17.4806 17.0674 17.4843 16.8593 17.4806 16.6517C17.4739 16.3344 17.4684 16.0171 17.45 15.7005C17.4276 15.3164 17.2818 15.1545 16.9257 15.137C16.4575 15.1143 15.9883 15.1015 15.5195 15.1018C15.0154 15.1018 14.5104 15.1097 14.0069 15.1396C13.6987 15.1577 13.4756 15.4105 13.4725 15.7462C13.4636 16.7576 13.4633 17.7691 13.4783 18.7801C13.4845 19.18 13.6355 19.3301 14.0045 19.3976C14.0551 19.407 14.1063 19.4123 14.1577 19.4134C14.9324 19.4223 15.707 19.4341 16.4817 19.4358C16.6651 19.4348 16.8481 19.4167 17.0286 19.3818C17.3044 19.3301 17.4454 19.1639 17.4515 18.8667C17.4598 18.3365 17.4521 17.8059 17.4521 17.2754ZM5.84363 25.0978C5.85252 24.195 5.83597 23.2915 5.84945 22.3887C5.85313 22.129 5.79 21.9464 5.59511 21.791C5.48419 21.7025 5.38735 21.6429 5.24241 21.6462C4.77878 21.6567 4.31454 21.6501 3.8503 21.6501V21.6396C3.34071 21.6564 2.8308 21.6666 2.32152 21.6933C2.01509 21.7094 1.90661 21.8249 1.868 22.1498C1.84336 22.3448 1.83016 22.5414 1.82847 22.7382C1.82847 23.592 1.82847 24.4458 1.83889 25.2992C1.8444 25.6909 2.03562 25.8985 2.39843 25.9512C2.5042 25.9692 2.61098 25.9795 2.71804 25.9821C3.41149 25.9821 4.10494 25.9821 4.79839 25.9726C5.00204 25.9659 5.20515 25.9463 5.40666 25.914" fill="#704332"/>
<path d="M8.18555 8.60682C8.65776 8.56765 9.13211 8.55218 9.60555 8.54593C10.049 8.54033 10.4927 8.55942 10.9361 8.5693C10.9971 8.57128 11.058 8.57821 11.1181 8.59003" fill="white"/>
<path d="M17.015 25.9199C16.6721 25.9702 16.3266 25.9968 15.9805 25.9996C15.4289 26.0088 14.8795 25.9933 14.3289 25.9884C14.3138 25.9884 14.2982 25.9884 14.2832 25.9884" fill="white"/>
<path d="M17.491 22.3418C17.4552 22.8148 17.4821 23.2933 17.4821 23.7692H17.4539C17.4539 24.3051 17.4613 24.8412 17.4512 25.377" fill="white"/>
<path d="M14.1348 21.6688C15.1034 21.6688 16.072 21.656 17.0406 21.6504Z" fill="white"/>
<path d="M14.0039 15.1414C14.5074 15.1114 15.0124 15.1038 15.5164 15.1035Z" fill="white"/>
<path d="M1.83911 25.2972C1.82716 24.4438 1.82747 23.59 1.8287 22.7363C1.83092 22.5396 1.84463 22.3433 1.86976 22.1484" fill="white"/>
<path d="M5.84394 25.0957C5.8421 25.2764 5.79062 25.4604 5.73976 25.6351C5.69195 25.7997 5.56325 25.8899 5.40666 25.9119C5.20515 25.9443 5.00205 25.9638 4.7984 25.9705C4.10495 25.9801 3.4115 25.9801 2.71804 25.9801C2.61098 25.9775 2.50421 25.9671 2.39844 25.9491" fill="white"/>
<path d="M2.32031 21.6943C2.8296 21.6676 3.3395 21.6574 3.84909 21.6406V21.6512C4.31334 21.6512 4.77758 21.6577 5.24121 21.6472" fill="white"/>
<path d="M20.3848 29.8164C20.3848 29.7351 20.3848 29.6647 20.3848 29.5943C20.3946 25.5754 20.4054 21.5563 20.4172 17.5369C20.4198 17.4343 20.4425 17.3334 20.4837 17.2407C20.652 16.8514 20.8435 16.4778 21.1778 16.2168C21.4377 16.0137 21.7156 15.8597 22.0472 15.8571C23.2355 15.8469 24.4241 15.8311 25.6125 15.8301C26.4745 15.8301 27.3368 15.859 28.1987 15.8551C28.925 15.8515 29.3999 16.2563 29.7591 16.8816C29.9154 17.1538 29.976 17.4395 29.976 17.765C29.9777 21.6968 29.9857 25.6284 30.0002 29.5597C30.0002 29.6413 30.0002 29.7243 30.0002 29.8164H20.3848ZM22.9281 26.9076V26.8819C23.3155 26.8819 23.704 26.9026 24.0895 26.8753C24.38 26.8546 24.5222 26.6502 24.5271 26.3451C24.5271 26.2631 24.532 26.1805 24.5314 26.0989C24.5286 25.4587 24.5363 24.8183 24.5176 24.1784C24.5075 23.8401 24.3537 23.6624 24.0402 23.6518C23.3581 23.6291 22.6744 23.6245 21.9923 23.6446C21.635 23.6551 21.4965 23.8375 21.4891 24.2239C21.4775 24.837 21.4778 25.4502 21.4757 26.0634C21.4747 26.1893 21.4806 26.3153 21.4931 26.4405C21.5027 26.5705 21.5585 26.6916 21.649 26.7785C21.7395 26.8654 21.8578 26.9115 21.9791 26.9072L22.9281 26.9076ZM23.116 21.9476V21.9456C23.4724 21.9456 23.829 21.9456 24.1854 21.9456C24.3282 21.9456 24.4171 21.8683 24.4585 21.7307C24.4915 21.6332 24.5115 21.5311 24.5179 21.4276C24.5314 20.739 24.5378 20.0502 24.5458 19.3616C24.5449 19.3234 24.5409 19.2853 24.5338 19.2478C24.482 18.9084 24.2869 18.7281 23.9721 18.7281C23.6918 18.7281 23.4114 18.7251 23.1313 18.7281C22.7329 18.7333 22.3364 18.7323 21.9399 18.7547C21.6463 18.7712 21.5008 18.916 21.495 19.2283C21.4807 19.9768 21.4807 20.7254 21.495 21.4743C21.5008 21.7791 21.6289 21.9236 21.9099 21.9404C22.3113 21.9641 22.7143 21.9463 23.1163 21.9463L23.116 21.9476ZM25.9045 25.3047H25.8898C25.8898 25.7095 25.8898 26.1147 25.8898 26.5195C25.8898 26.5709 25.8941 26.6466 25.9238 26.6683C26.0307 26.747 26.145 26.8523 26.2646 26.8658C26.5774 26.9023 26.8949 26.9016 27.2105 26.9053C27.5877 26.9099 27.9652 26.9125 28.3422 26.899C28.7439 26.8849 28.8763 26.7345 28.8989 26.3066C28.8989 26.2793 28.9023 26.2519 28.9023 26.2246C28.9009 25.5569 28.8986 24.8894 28.8956 24.2219C28.8944 24.1508 28.8848 24.0801 28.8671 24.0116C28.8415 23.9017 28.7823 23.8042 28.699 23.7348C28.6156 23.6654 28.5129 23.6282 28.4074 23.6291C27.9784 23.6252 27.5494 23.6163 27.1226 23.6192C26.8526 23.6212 26.5823 23.6311 26.3136 23.6555C26.0032 23.6838 25.9106 23.7924 25.9051 24.1235C25.899 24.5138 25.9042 24.9081 25.9042 25.3021L25.9045 25.3047ZM27.5022 21.9746C27.8543 21.9746 28.207 21.9769 28.5582 21.972C28.6112 21.9721 28.6626 21.9523 28.7034 21.916C28.7645 21.8534 28.8131 21.7781 28.8462 21.6947C28.8794 21.6113 28.8965 21.5215 28.8965 21.4309C28.8965 20.7028 28.9029 19.9748 28.8946 19.2471C28.8913 18.9341 28.7264 18.7593 28.4332 18.7534C27.8062 18.7383 27.1789 18.7343 26.552 18.7333C26.4298 18.7373 26.3083 18.7549 26.1895 18.7857C26.0519 18.8163 25.9673 18.9173 25.9345 19.0611C25.9113 19.1564 25.8987 19.2543 25.8968 19.3527C25.8938 20.0204 25.8938 20.6881 25.8968 21.3558C25.8998 21.4431 25.91 21.5299 25.9275 21.6152C25.9581 21.7978 26.0687 21.9028 26.2339 21.9367C26.3339 21.9582 26.4354 21.9702 26.5373 21.9726C26.8593 21.9746 27.1808 21.972 27.5019 21.972L27.5022 21.9746Z" fill="#704332"/>
<path d="M9.02148 23.6777H10.2778V29.8203H9.02148V23.6777Z" fill="#704332"/>
<path d="M28.9066 26.2246C28.9066 26.2519 28.9048 26.2792 28.9033 26.3066C28.8806 26.7344 28.7482 26.8862 28.3465 26.899C27.9696 26.9125 27.5921 26.9099 27.2148 26.9052" fill="white"/>
<path d="M28.8711 24.0098C28.8888 24.0783 28.8984 24.149 28.8996 24.2201Z" fill="white"/>
<path d="M27.127 23.6177C27.556 23.615 27.985 23.6233 28.4118 23.6269Z" fill="white"/>
<path d="M25.9311 21.6146C25.9136 21.5293 25.9033 21.4425 25.9004 21.3552C25.8978 20.6875 25.8978 20.0198 25.9004 19.3522C25.9023 19.2537 25.9149 19.1558 25.9381 19.0605" fill="white"/>
<path d="M27.5093 21.9773C27.1881 21.9773 26.8658 21.9799 26.5456 21.9753C26.4436 21.9729 26.3421 21.9609 26.2422 21.9395" fill="white"/>
<path d="M28.8981 21.4336C28.8982 21.5243 28.8811 21.614 28.8479 21.6974C28.8147 21.7808 28.7661 21.8561 28.7051 21.9187" fill="white"/>
<path d="M26.1895 18.7867C26.3083 18.7559 26.4298 18.7384 26.552 18.7344Z" fill="white"/>
</svg>
