<svg width="30" height="33" viewBox="0 0 30 33" fill="none" xmlns="http://www.w3.org/2000/svg">
<path d="M13.9635 3.51865C17.2317 3.40614 19.9803 4.37053 22.6234 5.92071C22.2662 6.5297 21.9591 7.06548 21.6519 7.60661C20.9179 8.90318 21.3769 9.90687 22.8217 10.3033C23.2146 10.4123 23.7807 10.6605 23.8593 10.9552C23.9629 11.3445 23.7861 11.9428 23.5128 12.2696C23.0038 12.8786 22.3234 13.3412 21.7376 13.8912C20.7232 14.8431 20.7571 16.1808 21.7376 17.1862C21.9928 17.4975 22.1604 17.871 22.2234 18.2685C22.4216 19.224 22.8752 19.6722 23.8414 19.7383C25.3344 19.8419 26.5703 19.5597 27.3418 18.031C27.5543 17.6113 28.4134 17.522 29.1045 17.2291C29.2903 18.9663 29.1077 20.7232 28.5687 22.385C26.5953 28.8893 20.1571 33.3595 13.6367 32.7737C6.34839 32.1183 0.828131 26.8802 0.0512582 19.7901C-0.0808994 18.59 0.0869765 17.3613 0.0637596 16.1468C0.0459005 15.1932 0.633466 14.9253 1.40855 14.7038C2.22293 14.4734 2.97123 14.4467 3.52129 15.1503C4.46425 16.3558 5.46079 17.4398 6.95024 18.0221C7.30743 18.1667 7.62353 18.7793 7.72533 19.2293C8.08251 20.8367 8.69329 22.3011 9.86843 23.4637C11.0436 24.6264 11.0132 26.1569 11.2739 27.5963C11.4132 28.3714 11.6311 29.0536 12.5241 29.0447C13.417 29.0358 13.7974 28.4107 13.9778 27.6071C14.0564 27.2659 14.1278 26.8659 14.3493 26.6266C15.169 25.7336 15.5137 24.6621 15.862 23.5423C16.003 23.0923 16.3709 22.6886 16.7085 22.3333C17.046 21.9779 17.4514 21.7439 17.8265 21.451C18.9087 20.6045 18.9623 19.9973 18.0586 18.9239C17.6568 18.4471 17.2675 17.9631 16.821 17.4202C17.7139 16.3737 18.3926 15.1932 17.8247 13.8484C17.496 13.0942 16.9445 12.4585 16.2441 12.0267C14.619 11.0891 12.9277 11.9696 12.0937 13.8127C10.9918 14.152 10.0595 14.3734 9.18263 14.7306C8.46827 15.0164 7.98429 14.9324 7.58781 14.2877C7.36993 13.9305 7.05204 13.6091 6.94667 13.2162C6.82701 12.8018 6.72343 12.2286 6.91988 11.9178C7.11633 11.6071 7.67175 11.4338 8.1093 11.3302C8.40576 11.2534 8.75759 11.3624 9.07905 11.4195C10.047 11.5874 10.7792 11.2999 11.4275 10.5123C11.6075 10.3327 11.8238 10.1935 12.0618 10.1042C12.2999 10.0149 12.5543 9.97745 12.808 9.99438C14.2261 10.1837 14.9779 9.39967 15.5923 8.34598C16.1691 7.35658 15.9905 6.41183 15.344 5.51173C14.9136 4.91167 14.5029 4.2991 13.9635 3.51865Z" fill="#704332"/>
<path d="M0.382812 14.3673L1.52758 11.2741C1.92227 11.7795 2.23302 12.1528 2.51341 12.5439C2.7938 12.935 3.08847 13.0332 3.41708 12.5849C4.12073 11.6259 4.86903 10.6972 5.52982 9.70784C6.1906 8.71844 6.11202 7.62546 5.62447 6.50391L7.88722 5.02517L9.76243 7.40579C10.2732 6.75215 10.725 6.18959 11.1608 5.61988C11.5751 5.07517 11.9823 4.52511 12.3717 3.96255C12.7288 3.45892 13.0467 3.42678 13.4003 3.94469C13.9058 4.68049 14.4201 5.41093 14.9166 6.15208C15.3381 6.78072 15.3648 7.43972 14.9434 8.07551C14.4987 8.74701 14.0701 9.45424 13.061 9.27922C12.052 9.1042 11.2894 9.41495 10.6554 10.2633C10.4268 10.5669 9.85351 10.6847 9.41775 10.7419C8.98199 10.799 8.52479 10.6508 8.08903 10.6276C7.71469 10.5952 7.33902 10.6725 7.00791 10.8501C6.6768 11.0277 6.40459 11.2979 6.22454 11.6277C5.83878 12.2796 5.90664 12.9368 6.30847 13.5672C6.48707 13.8422 6.66566 14.119 6.84425 14.3941C7.71935 15.7657 8.34442 15.9192 9.81244 15.1781C10.1793 14.9922 10.5727 14.8639 10.9786 14.7977C11.5644 14.7084 11.8073 14.9763 12.1181 15.5674C12.8324 16.9497 13.8236 18.1963 14.7362 19.4714C14.7898 19.5464 15.238 19.4714 15.3648 19.3375C15.7232 18.9182 16.0588 18.48 16.3703 18.0248C16.8329 18.5713 17.2418 19.0714 17.6705 19.5536C18.0991 20.0358 18.0276 20.4465 17.5187 20.8216C17.2526 21.0109 17.0115 21.2395 16.7364 21.4127C15.8042 21.9985 15.2934 22.8414 14.9827 23.8916C14.7648 24.6363 14.2683 25.2971 13.9218 26.0061C13.6879 26.4794 13.5254 26.9901 13.2682 27.4491C13.056 27.7711 12.817 28.0746 12.5538 28.3564C12.3609 28.0742 12.1466 27.8009 11.9805 27.5027C11.9074 27.3393 11.8709 27.1619 11.8734 26.983C11.7787 25.2578 11.2037 23.738 9.97496 22.495C9.082 21.5842 8.74268 20.4144 8.47479 19.2196C8.23548 18.1481 7.6622 17.4873 6.60494 17.0444C5.81283 16.6975 5.1327 16.1373 4.64043 15.4263C3.5921 13.8654 2.3241 13.4725 0.382812 14.3673Z" fill="#704332"/>
<path d="M23.2298 6.30469C23.6959 6.64937 24.0692 6.93333 24.4513 7.20836C25.1211 7.69056 25.7015 8.16025 25.2622 9.16036C25.1103 9.51755 25.1925 10.1015 25.3997 10.4444C26.0533 11.516 26.8159 12.5357 27.5606 13.6073L28.4536 12.9304C28.6947 14.2199 28.9179 15.4146 29.1554 16.6808C28.775 16.7237 28.5197 16.7648 28.2625 16.7773C27.9048 16.7791 27.5549 16.8825 27.2536 17.0753C26.9523 17.2682 26.712 17.5426 26.5605 17.8667C26.0015 18.9382 24.596 19.4508 23.5155 18.9561C23.2548 18.8364 23.1012 18.4418 22.9422 18.1507C22.669 17.6506 22.5118 17.0612 22.1547 16.6344C21.5707 15.9397 21.5117 15.0753 22.1922 14.4252C22.7726 13.8716 23.3852 13.3537 23.9924 12.8286C24.5996 12.3036 24.8746 11.6928 24.6603 10.9284C24.446 10.164 23.9102 9.764 23.1333 9.61041C21.9618 9.38182 21.7385 8.87283 22.319 7.86379C22.5886 7.38159 22.8797 6.8994 23.2298 6.30469Z" fill="#704332"/>
<path d="M2.97791 11.9957C2.28855 11.0671 1.61705 10.2402 1.03305 9.35616C0.713601 8.86709 0.586641 8.27703 0.67668 7.69986C0.766719 7.12269 1.06737 6.59933 1.52061 6.23081C1.92844 5.87668 2.45074 5.68229 2.99086 5.6836C3.53098 5.68491 4.05233 5.88185 4.45844 6.23795C4.89819 6.61938 5.18706 7.14549 5.27287 7.72126C5.35868 8.29703 5.23577 8.8845 4.92635 9.37759C4.86505 9.47936 4.79827 9.57773 4.72632 9.67226C4.1709 10.4063 3.62084 11.1385 2.97791 11.9957ZM2.88505 9.76334C3.35017 9.77069 3.79917 9.59296 4.13325 9.26925C4.46734 8.94555 4.65915 8.50239 4.66649 8.03726C4.67384 7.57213 4.49611 7.12314 4.1724 6.78905C3.8487 6.45496 3.40554 6.26315 2.94041 6.25581C2.7101 6.25217 2.48133 6.29394 2.26716 6.37871C2.053 6.46349 1.85762 6.58962 1.6922 6.7499C1.52678 6.91018 1.39454 7.10148 1.30305 7.31286C1.21156 7.52425 1.16259 7.75159 1.15896 7.9819C1.15532 8.2122 1.19709 8.44097 1.28186 8.65514C1.36664 8.86931 1.49277 9.06468 1.65305 9.2301C1.81333 9.39553 2.00463 9.52776 2.21601 9.61925C2.4274 9.71075 2.65474 9.75971 2.88505 9.76334V9.76334Z" fill="#704332"/>
<path d="M9.77056 6.32417C9.05619 5.37227 8.38648 4.53825 7.80605 3.64529C7.49037 3.15018 7.37036 2.55526 7.46941 1.97648C7.56846 1.39771 7.87947 0.876552 8.34183 0.514588C8.74668 0.178965 9.25687 -0.00322309 9.78274 4.31664e-05C10.3086 0.00330942 10.8165 0.191821 11.2171 0.532447C11.6689 0.906448 11.9678 1.4331 12.0573 2.01269C12.1468 2.59228 12.0208 3.18457 11.7029 3.67744C11.135 4.54897 10.4814 5.36334 9.77056 6.32417ZM11.4332 2.36301C11.4325 1.90828 11.255 1.47166 10.9382 1.14541C10.6215 0.819165 10.1903 0.628859 9.73577 0.614714C9.28126 0.600569 8.83906 0.763692 8.50262 1.06961C8.16618 1.37553 7.96187 1.80027 7.93285 2.25407C7.91787 2.48849 7.95017 2.72353 8.02785 2.94521C8.10553 3.1669 8.227 3.3707 8.38503 3.54449C8.54306 3.71829 8.73442 3.85853 8.94774 3.95688C9.16106 4.05523 9.39198 4.10967 9.62677 4.11698C9.86155 4.12429 10.0954 4.08431 10.3144 3.99941C10.5335 3.91452 10.7332 3.78645 10.9017 3.62282C11.0702 3.45919 11.2041 3.26333 11.2955 3.04691C11.3868 2.83049 11.4336 2.59791 11.4332 2.36301Z" fill="#704332"/>
<path d="M14.9736 18.7039C14.2789 17.7717 13.6092 16.9412 13.0288 16.05C12.7131 15.5553 12.5909 14.9615 12.6855 14.3823C12.78 13.8031 13.0847 13.2791 13.5413 12.9104C13.9508 12.584 14.4593 12.4069 14.9829 12.4082C15.5066 12.4095 16.0142 12.5892 16.422 12.9175C16.8758 13.289 17.1773 13.8141 17.2695 14.3931C17.3617 14.9722 17.2381 15.565 16.9221 16.059C16.3345 16.9466 15.6612 17.777 14.9736 18.7039ZM14.8754 16.4358C15.2145 16.4329 15.5452 16.3302 15.8262 16.1405C16.1072 15.9507 16.326 15.6824 16.4554 15.369C16.5848 15.0556 16.619 14.711 16.5536 14.3783C16.4883 14.0456 16.3264 13.7395 16.0881 13.4983C15.8498 13.257 15.5457 13.0914 15.2139 13.022C14.882 12.9526 14.537 12.9825 14.222 13.1081C13.9071 13.2336 13.6361 13.4492 13.4429 13.7278C13.2497 14.0065 13.143 14.3359 13.1359 14.6749C13.1324 14.9053 13.1748 15.1341 13.2607 15.348C13.3466 15.5618 13.4742 15.7564 13.6362 15.9204C13.7981 16.0843 13.9911 16.2143 14.2039 16.3028C14.4167 16.3913 14.645 16.4365 14.8754 16.4358V16.4358Z" fill="#704332"/>
<path d="M27.6862 12.5683C27.1343 11.82 26.6146 11.1807 26.1664 10.4877C25.9311 10.1032 25.8433 9.64645 25.9192 9.20213C25.995 8.7578 26.2294 8.35605 26.5789 8.07138C26.8892 7.80961 27.282 7.66602 27.688 7.66602C28.0939 7.66602 28.4868 7.80961 28.797 8.07138C29.1508 8.35103 29.3885 8.75174 29.4644 9.19626C29.5402 9.64079 29.4488 10.0977 29.2078 10.4788C28.7667 11.1771 28.238 11.8182 27.6862 12.5683ZM27.5933 10.9217C27.7854 10.9276 27.9768 10.8952 28.1562 10.8263C28.3356 10.7573 28.4995 10.6533 28.6382 10.5202C28.7769 10.3872 28.8877 10.2278 28.964 10.0514C29.0403 9.87501 29.0807 9.68516 29.0828 9.49297C29.0882 9.10315 28.9386 8.72713 28.6668 8.44764C28.5322 8.30925 28.3717 8.19872 28.1944 8.12236C28.0171 8.04601 27.8265 8.00532 27.6335 8.00262C27.4405 7.99992 27.2488 8.03527 27.0695 8.10664C26.8901 8.17802 26.7266 8.28402 26.5882 8.4186C26.3087 8.69039 26.1486 9.06207 26.1431 9.45189C26.1413 9.64378 26.1773 9.83415 26.2493 10.012C26.3213 10.1899 26.4277 10.3518 26.5625 10.4884C26.6973 10.6251 26.8577 10.7337 27.0346 10.808C27.2115 10.8824 27.4014 10.921 27.5933 10.9217V10.9217Z" fill="#704332"/>
<path d="M2.88255 9.76361C2.65225 9.75998 2.42491 9.71102 2.21352 9.61952C2.00214 9.52803 1.81084 9.3958 1.65056 9.23037C1.49028 9.06495 1.36415 8.86958 1.27937 8.65541C1.1946 8.44124 1.15283 8.21247 1.15647 7.98216C1.1601 7.75186 1.20907 7.52452 1.30056 7.31313C1.39205 7.10175 1.52429 6.91045 1.68971 6.75017C1.85513 6.58989 2.0505 6.46376 2.26467 6.37898C2.47884 6.29421 2.70761 6.25244 2.93792 6.25608C3.40305 6.26342 3.84621 6.45523 4.16991 6.78932C4.49361 7.1234 4.67134 7.5724 4.664 8.03753C4.65666 8.50265 4.46485 8.94582 4.13076 9.26952C3.79668 9.59322 3.34768 9.77095 2.88255 9.76361V9.76361ZM1.81101 7.66338C1.87351 8.59384 2.20212 9.02067 2.85934 9.04746C2.99421 9.0613 3.13048 9.0465 3.25923 9.00402C3.38797 8.96154 3.5063 8.89235 3.60645 8.80096C3.7066 8.70958 3.78632 8.59807 3.84038 8.47374C3.89444 8.34941 3.92163 8.21506 3.92017 8.0795C3.95946 7.42942 3.56299 6.93294 2.91649 7.00795C2.49144 7.04545 2.11283 7.47229 1.81458 7.66338H1.81101Z" fill="white"/>
<path d="M11.4356 2.36242C11.436 2.59732 11.3891 2.8299 11.2978 3.04633C11.2065 3.26275 11.0726 3.4586 10.9041 3.62223C10.7355 3.78587 10.5358 3.91394 10.3168 3.99883C10.0978 4.08372 9.86391 4.1237 9.62912 4.1164C9.39434 4.10909 9.16342 4.05464 8.9501 3.95629C8.73678 3.85795 8.54541 3.7177 8.38738 3.54391C8.22936 3.37011 8.10789 3.16631 8.03021 2.94463C7.95253 2.72295 7.92022 2.48791 7.93521 2.25348C7.96422 1.79968 8.16854 1.37494 8.50498 1.06903C8.84142 0.763108 9.28362 0.599985 9.73812 0.61413C10.1926 0.628275 10.6238 0.818581 10.9406 1.14483C11.2574 1.47107 11.4349 1.9077 11.4356 2.36242V2.36242ZM9.95686 3.4179C10.1658 3.14108 10.6266 2.78926 10.698 2.37314C10.8052 1.74628 10.3408 1.30159 9.68898 1.30159C9.55435 1.28958 9.4187 1.30637 9.29107 1.35086C9.16344 1.39534 9.04674 1.4665 8.94875 1.55959C8.85075 1.65269 8.77371 1.76558 8.72274 1.89077C8.67177 2.01596 8.64805 2.15056 8.65315 2.28563C8.62814 2.9482 9.02819 3.29467 9.95686 3.4179Z" fill="white"/>
<path d="M14.8796 16.4342C14.5406 16.4258 14.2117 16.3177 13.9338 16.1234C13.6559 15.9291 13.4415 15.6572 13.3173 15.3417C13.193 15.0263 13.1645 14.6812 13.2352 14.3496C13.306 14.018 13.4729 13.7146 13.7151 13.4773C13.9573 13.24 14.264 13.0793 14.597 13.0154C14.9299 12.9514 15.2744 12.987 15.5872 13.1176C15.9001 13.2483 16.1676 13.4682 16.3562 13.75C16.5447 14.0317 16.6461 14.3628 16.6476 14.7019C16.6472 14.9323 16.6009 15.1603 16.5115 15.3726C16.422 15.5849 16.2912 15.7773 16.1266 15.9386C15.962 16.0998 15.767 16.2267 15.5529 16.3118C15.3388 16.3969 15.1099 16.4385 14.8796 16.4342V16.4342ZM14.5706 15.7574C15.5297 15.7038 15.9351 15.3466 15.9279 14.6858C15.9279 14.0858 15.5529 13.6964 14.9189 13.6857C14.2402 13.675 13.7937 14.0929 13.8795 14.7162C13.9366 15.1377 14.3849 15.4984 14.5706 15.7592V15.7574Z" fill="white"/>
<path d="M27.5987 10.9228C27.4065 10.9221 27.2163 10.8833 27.0392 10.8088C26.8621 10.7342 26.7014 10.6253 26.5666 10.4883C26.4318 10.3513 26.3254 10.189 26.2537 10.0107C26.1819 9.83236 26.1462 9.6416 26.1485 9.44941C26.154 9.0596 26.3141 8.68791 26.5936 8.41612C26.8731 8.14433 27.2491 7.9947 27.6389 8.00014C28.0287 8.00559 28.4004 8.16567 28.6722 8.44516C28.944 8.72466 29.0936 9.10067 29.0882 9.49049C29.0866 9.68299 29.0466 9.87323 28.9704 10.05C28.8943 10.2268 28.7836 10.3867 28.6449 10.5201C28.5061 10.6535 28.3421 10.7579 28.1624 10.827C27.9828 10.8962 27.7911 10.9287 27.5987 10.9228V10.9228ZM28.6703 9.51549C28.2274 9.15831 27.938 8.74041 27.7005 8.76898C27.3951 8.8047 27.1344 9.1976 26.854 9.43513C27.1112 9.70123 27.3362 10.1173 27.638 10.1816C27.8755 10.2316 28.2023 9.84053 28.6756 9.51549H28.6703Z" fill="white"/>
<path d="M1.80859 7.66293C2.10684 7.47184 2.48903 7.045 2.91229 7.00036C3.55165 6.93249 3.95526 7.42897 3.91597 8.0719C3.91741 8.20731 3.89026 8.34149 3.8363 8.46568C3.78235 8.58988 3.7028 8.70129 3.60284 8.79264C3.50289 8.884 3.38479 8.95324 3.25626 8.99584C3.12773 9.03844 2.99165 9.05344 2.85693 9.03987C2.19971 9.02022 1.8711 8.59339 1.80859 7.66293Z" fill="#704332"/>
<path d="M9.95521 3.41824C9.02653 3.29501 8.62649 2.94854 8.65149 2.27882C8.64639 2.14375 8.67012 2.00915 8.72108 1.88396C8.77205 1.75878 8.8491 1.64588 8.94709 1.55279C9.04508 1.45969 9.16178 1.38853 9.28941 1.34405C9.41705 1.29956 9.55269 1.28277 9.68732 1.29478C10.3392 1.29478 10.8035 1.74662 10.6964 2.36633C10.6249 2.78959 10.1731 3.14142 9.95521 3.41824Z" fill="#704332"/>
<path d="M14.565 15.7618C14.3864 15.5011 13.931 15.1403 13.8739 14.726C13.7881 14.1027 14.231 13.6848 14.9133 13.6955C15.5473 13.7062 15.9152 14.0956 15.9223 14.6956C15.9295 15.3511 15.5276 15.7082 14.565 15.7618Z" fill="#704332"/>
<path d="M28.6698 9.51549C28.1965 9.84053 27.8697 10.2299 27.6375 10.1816C27.3357 10.1173 27.1018 9.70122 26.8535 9.43512C27.1339 9.1976 27.3893 8.8047 27.7 8.76898C27.9376 8.7404 28.2269 9.15474 28.6698 9.51549Z" fill="#704332"/>
</svg>
