<svg id="Create_Order" data-name="Create Order" xmlns="http://www.w3.org/2000/svg" width="50" height="50" viewBox="0 0 50 50">
  <rect id="Rectangle_93" data-name="Rectangle 93" width="50" height="50" fill="none"/>
  <g id="Group_15144" data-name="Group 15144" transform="translate(9 6)">
    <path id="Path_16755" data-name="Path 16755" d="M60.868,52.376a9.456,9.456,0,0,0,2.588,7.561,8.81,8.81,0,0,0,7.613,2.548c.012.264.036.489.036.713q0,9.237,0,18.475a3.136,3.136,0,0,1-3.43,3.454H48.419A3.081,3.081,0,0,1,45.166,81.9q-.006-13.21,0-26.424a3.085,3.085,0,0,1,3.025-3.145c4.115-.028,8.226-.008,12.341-.008C60.615,52.328,60.7,52.352,60.868,52.376ZM58.083,73.227c2.2,0,4.391.008,6.587,0,.91,0,1.5-.5,1.519-1.246.016-.765-.589-1.282-1.531-1.3h-.192q-6.329,0-12.661,0a2.792,2.792,0,0,0-.95.128,1.121,1.121,0,0,0-.777,1.146,1.16,1.16,0,0,0,.789,1.146,2.738,2.738,0,0,0,.885.124C53.86,73.231,55.972,73.227,58.083,73.227Zm.064-5.914c2.24,0,4.479.008,6.719,0a1.241,1.241,0,1,0-.012-2.476c-.064,0-.128,0-.192,0q-6.527,0-13.05,0a2.275,2.275,0,0,0-.757.1,1.194,1.194,0,0,0-.769,1.342,1.216,1.216,0,0,0,1.282,1.038C53.628,67.321,55.887,67.313,58.147,67.313ZM55.755,76.6c-1.4,0-2.8,0-4.2,0-.906,0-1.486.493-1.49,1.246a1.258,1.258,0,0,0,1.406,1.266q4.261.03,8.518,0a1.272,1.272,0,0,0,1.434-1.246A1.321,1.321,0,0,0,59.95,76.6C58.552,76.6,57.154,76.6,55.755,76.6Z" transform="translate(-45.162 -46.754)" fill="#fff"/>
    <path id="Path_16756" data-name="Path 16756" d="M89.29,45.227a6.86,6.86,0,1,1,13.719.172,6.94,6.94,0,0,1-6.635,6.751A6.823,6.823,0,0,1,89.29,45.227Zm5.99-1.01c-.108.048-.148.08-.188.08-.537.008-1.074.008-1.611.024-.737.02-1.114.349-1.11.958,0,.641.409,1.014,1.138,1.026.573.008,1.146,0,1.771,0,0,.661-.016,1.238,0,1.811.02.705.377,1.118.91,1.106.561-.016.89-.409.906-1.106.012-.593,0-1.182,0-1.811.669,0,1.23.036,1.783-.012a1.319,1.319,0,0,0,.861-.317,1.172,1.172,0,0,0,.208-.982,1.252,1.252,0,0,0-.845-.629,13.863,13.863,0,0,0-2.007-.028c0-.689.008-1.246,0-1.8-.016-.757-.333-1.134-.934-1.13-.541,0-.869.413-.881,1.118C95.272,43.1,95.28,43.673,95.28,44.218Z" transform="translate(-71.609 -38.44)" fill="#fff"/>
  </g>
</svg>
