<svg width="39" height="42" viewBox="0 0 39 42" fill="none" xmlns="http://www.w3.org/2000/svg">
<path d="M20 31.4908C20.0018 29.6119 20.5608 27.7757 21.6061 26.2145C22.6515 24.6532 24.1364 23.437 25.873 22.7196C27.6096 22.0023 29.5199 21.816 31.3624 22.1843C33.2048 22.5527 34.8967 23.4591 36.224 24.789C37.5513 26.1189 38.4545 27.8125 38.8192 29.6556C39.184 31.4988 38.994 33.4088 38.2733 35.144C37.5526 36.8792 36.3336 38.3617 34.7703 39.4041C33.207 40.4464 31.3697 41.0018 29.4908 41C28.2431 40.9993 27.0078 40.7527 25.8555 40.2743C24.7031 39.796 23.6563 39.0952 22.7749 38.2121C21.8935 37.329 21.1948 36.2809 20.7187 35.1276C20.2425 33.9743 19.9983 32.7385 20 31.4908ZM28.1806 36.7482H30.8286V32.8579H34.7023V30.1274H30.8139V26.2371H28.1788V30.1329H24.2426C24.2426 30.2063 24.2316 30.2485 24.2316 30.2925C24.2316 31.0706 24.2316 31.8505 24.2316 32.6304C24.2316 32.8139 24.2922 32.8616 24.4702 32.8616C25.6171 32.8616 26.764 32.8616 27.9109 32.8616H28.1806V36.7482Z" fill="#704332"/>
<path d="M32.7314 22.4191L32.7312 22.4195L32.7439 22.4232C32.8781 22.4623 33.0192 22.4716 33.1573 22.4504C33.2955 22.4292 33.4273 22.378 33.5435 22.3004C33.6598 22.2228 33.7576 22.1207 33.8302 22.0012C33.9016 21.8839 33.9468 21.7525 33.9629 21.6162C34.0075 21.3674 34.0284 21.1149 34.0252 20.8622V20.8308V20.7983V20.7658V20.7333V20.7008V20.6683V20.6358V20.6033V20.5708V20.5383V20.5058V20.4733V20.4408V20.4083V20.3758V20.3433V20.3108V20.2783V20.2458V20.2133V20.1808V20.1483V20.1158V20.0833V20.0508V20.0184V19.9859V19.9534V19.9209V19.8884V19.8559V19.8234V19.7909V19.7584V19.7259V19.6934V19.6609V19.6284V19.5959V19.5634V19.5309V19.4984V19.4659V19.4334V19.4009V19.3684V19.3359V19.3034V19.2709V19.2384V19.2059V19.1734V19.1409V19.1084V19.0759V19.0434V19.0109V18.9784V18.9459V18.9134V18.8809V18.8484V18.8159V18.7834V18.7509V18.7184V18.6859V18.6534V18.6209V18.5884V18.5559V18.5234V18.4909V18.4584V18.4259V18.3934V18.3609V18.3284V18.2959V18.2634V18.2309V18.1984V18.1659V18.1334V18.1009V18.0684V18.0359V18.0034V17.9709V17.9384V17.9059V17.8734V17.8409V17.8084V17.7759V17.7434V17.7109V17.6784V17.6459V17.6134V17.5809V17.5484V17.5159V17.4834V17.4508V17.4183V17.3858V17.3533V17.3208V17.2883V17.2558V17.2233V17.1908V17.1583V17.1258V17.0933V17.0608V17.0283V16.9958V16.9633V16.9308V16.8983V16.8658V16.8333V16.8008V16.7683V16.7358V16.7033V16.6708V16.6383V16.6057V16.5732V16.5407V16.5082V16.4757V16.4432V16.4107V16.3782V16.3457V16.3132V16.2807V16.2482V16.2157V16.1832V16.1507V16.1182V16.0857V16.0532V16.0206V15.9881V15.9556V15.9231V15.8906V15.8581V15.8256V15.7931V15.7606V15.7281V15.6956V15.6631V15.6306V15.5981V15.5656V15.533V15.5005V15.468V15.4355V15.403V15.3705V15.338V15.3055V15.273V15.2405V15.208V15.1755V15.143V15.1104V15.0779V15.0454V15.0129V14.9804V14.9479V14.9154V14.8829V14.8504V14.8179V14.7854V14.7528V14.7203V14.6878V14.6553V14.6228V14.5903V14.5578V14.5253V14.4928V14.4603V14.4278V14.3952V14.3627V14.3302V14.2977V14.2652V14.2327V14.2002V14.1677V14.1352V14.1027V14.0701V14.0376V14.0051V13.9726V13.9401V13.9076V13.8751V13.8426V13.8101V13.7775V13.745V13.7125V13.68V13.6475V13.615V13.5825V13.55V13.5175V13.4849V13.4524V13.4199V13.3874V13.3549V13.3224V13.2899V13.2574V13.2248V13.1923V13.1598V13.1273V13.0948V13.0623V13.0298V12.9973V12.9647V12.9322V12.8997V12.8672V12.8347V12.8022V12.7697V12.7371V12.7046V12.6721V12.6396V12.6071V12.5746V12.5421V12.5095V12.477V12.4445V12.412V12.3795V12.347V12.3145V12.2819V12.2494V12.2169V12.1844V12.1519V12.1194V12.0869V12.0543V12.0218V11.9893V11.9568V11.9243V11.8918V11.8593V11.8267V11.7942V11.7617V11.7292V11.6967V11.6642V11.6316V11.5991V11.5666V11.5341V11.5016V11.4691V11.4365V11.404V11.3715V11.339V11.3065V11.274V11.2414V11.2089V11.1764V11.1439V11.1114V11.0789V11.0463V11.0138V10.9813V10.9488V10.9163V10.8837V10.8512V10.8187V10.7862V10.7537V10.7212V10.6886V10.6561V10.6236V10.5911V10.5586V10.526V10.4935V10.461V10.4285V10.396V10.3635V10.3309V10.2984V10.2659V10.2334V10.2009V10.1683V10.1358V10.1033V10.0708V10.0383V10.0057V9.97322V9.9407V9.90818V9.87566V9.84314V9.81062V9.7781V9.74558V9.71306V9.68054V9.64802V9.6155V9.58298V9.55046V9.51794V9.48541V9.45289V9.42037V9.38785V9.35533V9.32281V9.29029V9.25777V9.22524V9.19272V9.1602V9.12768V9.09516V9.06264V9.03011V8.99759V8.96507V8.93255V8.90002V8.8675V8.83498V8.80246V8.76994V8.73741V8.70489V8.67237V8.63984V8.60732V8.5748V8.54227V8.50975V8.47723V8.44471V8.41218V8.37966V8.34713V8.31461V8.28209V8.24956V8.21704V8.18452V8.15199V8.11947V8.08694V8.05442V8.0219V7.98937V7.95685V7.92432V7.8918V7.85927V7.82675V7.79422V7.7617V7.72917V7.69665V7.66412V7.6316V7.59907V7.56655V7.53402V7.5015V7.46897V7.43645V7.40392V7.37139V7.33887V7.30634V7.27382V7.24129V7.20876V7.17624V7.14371V7.11119V7.07866V7.04613V7.01361V6.98108V6.94855V6.91603V6.8835V6.85097V6.81845V6.78592V6.75339V6.72086V6.68834V6.65581V6.62328V6.59075V6.55823V6.5257V6.49317V6.46064V6.42812V6.39559V6.36306V6.33053V6.298V6.26548V6.23295V6.20042V6.16789V6.13536V6.10283V6.0703V6.03778V6.00525V5.97272V5.94019V5.90766V5.87513V5.8426V5.81007V5.77754V5.74501V5.71248V5.67995V5.64742V5.61489V5.58237V5.54984V5.51731V5.48478V5.45225V5.41971V5.38718V5.35465V5.32212V5.28959V5.25706V5.22453V5.192V5.15947V5.12694V5.09441V5.06188V5.02935V4.99682V4.96428V4.93175V4.89922V4.86669V4.83416V4.80163V4.7691V4.73656V4.70403V4.6715V4.63897V4.60644V4.5739V4.54137V4.50884V4.47631V4.44378V4.41124V4.37871V4.34618V4.31365V4.28111V4.24858V4.21605C34.0252 3.15371 33.7179 2.29279 33.1167 1.69774C32.5157 1.103 31.6475 0.8 30.5778 0.8H17.4072H4.37898C3.21596 0.8 2.31099 1.08141 1.70034 1.68977C1.0894 2.29839 0.808442 3.19892 0.815765 4.35903V28.5316C0.807216 28.7549 0.812217 28.9785 0.830741 29.2012C0.846525 29.4582 0.958935 29.6998 1.14547 29.8775C1.3303 30.0535 1.5743 30.1538 1.82926 30.1587C2.2415 30.1998 2.59184 30.1244 2.82758 29.8451C3.0521 29.5792 3.1314 29.1725 3.1314 28.6609V28.6137V28.5665V28.5192V28.472V28.4248V28.3775V28.3303V28.2831V28.2359V28.1886V28.1414V28.0942V28.047V27.9997V27.9525V27.9053V27.8581V27.8108V27.7636V27.7164V27.6692V27.6219V27.5747V27.5275V27.4803V27.433V27.3858V27.3386V27.2914V27.2441V27.1969V27.1497V27.1025V27.0552V27.008V26.9608V26.9136V26.8663V26.8191V26.7719V26.7247V26.6774V26.6302V26.583V26.5358V26.4885V26.4413V26.3941V26.3469V26.2996V26.2524V26.2052V26.158V26.1108V26.0635V26.0163V25.9691V25.9219V25.8746V25.8274V25.7802V25.733V25.6857V25.6385V25.5913V25.5441V25.4968V25.4496V25.4024V25.3552V25.3079V25.2607V25.2135V25.1663V25.119V25.0718V25.0246V24.9774V24.9301V24.8829V24.8357V24.7885V24.7412V24.694V24.6468V24.5996V24.5524V24.5051V24.4579V24.4107V24.3635V24.3162V24.269V24.2218V24.1746V24.1273V24.0801V24.0329V23.9857V23.9384V23.8912V23.844V23.7968V23.7495V23.7023V23.6551V23.6079V23.5607V23.5134V23.4662V23.419V23.3718V23.3245V23.2773V23.2301V23.1829V23.1356V23.0884V23.0412V22.994V22.9467V22.8995V22.8523V22.8051V22.7579V22.7106V22.6634V22.6162V22.569V22.5217V22.4745V22.4273V22.3801V22.3328V22.2856V22.2384V22.1912V22.144V22.0967V22.0495V22.0023V21.9551V21.9078V21.8606V21.8134V21.7662V21.719V21.6717V21.6245V21.5773V21.5301V21.4828V21.4356V21.3884V21.3412V21.2939V21.2467V21.1995V21.1523V21.1051V21.0578V21.0106V20.9634V20.9162V20.8689V20.8217V20.7745V20.7273V20.6801V20.6328V20.5856V20.5384V20.4912V20.4439V20.3967V20.3495V20.3023V20.2551V20.2078V20.1606V20.1134V20.0662V20.0189V19.9717V19.9245V19.8773V19.8301V19.7828V19.7356V19.6884V19.6412V19.5939V19.5467V19.4995V19.4523V19.4051V19.3578V19.3106V19.2634V19.2162V19.1689V19.1217V19.0745V19.0273V18.9801V18.9328V18.8856V18.8384V18.7912V18.7439V18.6967V18.6495V18.6023V18.5551V18.5078V18.4606V18.4134V18.3662V18.319V18.2717V18.2245V18.1773V18.1301V18.0828V18.0356V17.9884V17.9412V17.894V17.8467V17.7995V17.7523V17.7051V17.6579V17.6106V17.5634V17.5162V17.469V17.4217V17.3745V17.3273V17.2801V17.2329V17.1856V17.1384V17.0912V17.044V16.9968V16.9495V16.9023V16.8551V16.8079V16.7607V16.7134V16.6662V16.619V16.5718V16.5246V16.4773V16.4301V16.3829V16.3357V16.2884V16.2412V16.194V16.1468V16.0996V16.0523V16.0051V15.9579V15.9107V15.8635V15.8162V15.769V15.7218V15.6746V15.6274V15.5801V15.5329V15.4857V15.4385V15.3913V15.344V15.2968V15.2496V15.2024V15.1552V15.1079V15.0607V15.0135V14.9663V14.9191V14.8718V14.8246V14.7774V14.7302V14.683V14.6357V14.5885V14.5413V14.4941V14.4469V14.3996V14.3524V14.3052V14.258V14.2108V14.1635V14.1163V14.0691V14.0219V13.9747V13.9274V13.8802V13.833V13.7858V13.7386V13.6913V13.6441V13.5969V13.5497V13.5025V13.4552V13.408V13.3608V13.3136V13.2664V13.2191V13.1719V13.1247V13.0775V13.0303V12.983V12.9358V12.8886V12.8414V12.7942V12.7469V12.6997V12.6525V12.6053V12.5581V12.5109V12.4636V12.4164V12.3692V12.322V12.2748V12.2275V12.1803V12.1331V12.0859V12.0387V11.9914V11.9442V11.897V11.8498V11.8026V11.7553V11.7081V11.6609V11.6137V11.5665V11.5193V11.472V11.4248V11.3776V11.3304V11.2832V11.2359V11.1887V11.1415V11.0943V11.0471V10.9998V10.9526V10.9054V10.8582V10.811V10.7638V10.7165V10.6693V10.6221V10.5749V10.5277V10.4804V10.4332V10.386V10.3388V10.2916V10.2444V10.1971V10.1499V10.1027V10.0555V10.0083V9.96104V9.91382V9.8666V9.81939V9.77217V9.72495V9.67773V9.63051V9.58329V9.53608V9.48886V9.44164V9.39442V9.34721V9.29999V9.25277V9.20555V9.15833V9.11112V9.0639V9.01668V8.96946V8.92224V8.87503V8.82781V8.78059V8.73337V8.68615V8.63894V8.59172V8.5445V8.49728V8.45007V8.40285V8.35563V8.30841V8.2612V8.21398V8.16676V8.11954V8.07233V8.02511V7.97789V7.93067V7.88346V7.83624V7.78902V7.7418V7.69459V7.64737V7.60015V7.55293V7.50572V7.4585V7.41128V7.36407V7.31685V7.26963V7.22241V7.1752V7.12798V7.08076V7.03355V6.98633V6.93911V6.89189V6.84468V6.79746V6.75024V6.70303V6.65581V6.60859V6.56138V6.51416V6.46694V6.41972V6.37251V6.32529V6.27807V6.23086V6.18364V6.13642V6.08921V6.04199V5.99477V5.94756V5.90034V5.85312V5.80591V5.75869V5.71147V5.66426V5.61704V5.56982V5.52261V5.47539V5.42818V5.38096V5.33374V5.28653V5.23931V5.19209V5.14488V5.09766V5.05044V5.00323V4.95601V4.9088V4.86158V4.81436V4.76715V4.71993V4.67271V4.6255V4.57828V4.53107V4.48385C3.1314 4.159 3.1466 3.91458 3.18544 3.72817C3.22381 3.54398 3.2822 3.43174 3.35772 3.35632C3.43327 3.28087 3.54576 3.2225 3.73038 3.18413C3.91718 3.14531 4.1621 3.13011 4.48755 3.13011H30.3245C30.6511 3.13011 30.8969 3.14414 31.0845 3.18158C31.27 3.21863 31.3818 3.27542 31.4561 3.34874C31.5301 3.42174 31.5876 3.53146 31.6247 3.71484C31.6623 3.90055 31.6758 4.14538 31.6734 4.47274V4.4742V4.50602V4.53783V4.56965V4.60147V4.63328V4.6651V4.69692V4.72873V4.76055V4.79237V4.82418V4.856V4.88781V4.91963V4.95145V4.98326V5.01508V5.0469V5.07871V5.11053V5.14235V5.17416V5.20598V5.23779V5.26961V5.30143V5.33324V5.36506V5.39687V5.42869V5.46051V5.49232V5.52414V5.55596V5.58777V5.61959V5.6514V5.68322V5.71504V5.74685V5.77867V5.81048V5.8423V5.87411V5.90593V5.93775V5.96956V6.00138V6.03319V6.06501V6.09683V6.12864V6.16046V6.19227V6.22409V6.2559V6.28772V6.31954V6.35135V6.38317V6.41498V6.4468V6.47861V6.51043V6.54224V6.57406V6.60588V6.63769V6.66951V6.70132V6.73314V6.76495V6.79677V6.82858V6.8604V6.89221V6.92403V6.95584V6.98766V7.01947V7.05129V7.0831V7.11492V7.14673V7.17855V7.21036V7.24218V7.27399V7.30581V7.33763V7.36944V7.40126V7.43307V7.46489V7.4967V7.52851V7.56033V7.59214V7.62396V7.65577V7.68759V7.7194V7.75122V7.78303V7.81485V7.84666V7.87848V7.91029V7.94211V7.97392V8.00574V8.03755V8.06937V8.10118V8.13299V8.16481V8.19662V8.22844V8.26025V8.29207V8.32388V8.3557V8.38751V8.41932V8.45114V8.48295V8.51477V8.54658V8.5784V8.61021V8.64203V8.67384V8.70565V8.73747V8.76928V8.8011V8.83291V8.86472V8.89654V8.92835V8.96017V8.99198V9.0238V9.05561V9.08742V9.11924V9.15105V9.18287V9.21468V9.24649V9.27831V9.31012V9.34193V9.37375V9.40556V9.43738V9.46919V9.501V9.53282V9.56463V9.59645V9.62826V9.66007V9.69189V9.7237V9.75551V9.78733V9.81914V9.85095V9.88277V9.91458V9.94639V9.97821V10.01V10.0418V10.0736V10.1055V10.1373V10.1691V10.2009V10.2327V10.2645V10.2963V10.3282V10.36V10.3918V10.4236V10.4554V10.4872V10.519V10.5508V10.5827V10.6145V10.6463V10.6781V10.7099V10.7417V10.7735V10.8054V10.8372V10.869V10.9008V10.9326V10.9644V10.9962V11.028V11.0599V11.0917V11.1235V11.1553V11.1871V11.2189V11.2507V11.2825V11.3144V11.3462V11.378V11.4098V11.4416V11.4734V11.5052V11.537V11.5689V11.6007V11.6325V11.6643V11.6961V11.7279V11.7597V11.7915V11.8234V11.8552V11.887V11.9188V11.9506V11.9824V12.0142V12.046V12.0779V12.1097V12.1415V12.1733V12.2051V12.2369V12.2687V12.3005V12.3324V12.3642V12.396V12.4278V12.4596V12.4914V12.5232V12.555V12.5869V12.6187V12.6505V12.6823V12.7141V12.7459V12.7777V12.8095V12.8413V12.8732V12.905V12.9368V12.9686V13.0004V13.0322V13.064V13.0958V13.1277V13.1595V13.1913V13.2231V13.2549V13.2867V13.3185V13.3503V13.3821V13.414V13.4458V13.4776V13.5094V13.5412V13.573V13.6048V13.6366V13.6684V13.7003V13.7321V13.7639V13.7957V13.8275V13.8593V13.8911V13.9229V13.9548V13.9866V14.0184V14.0502V14.082V14.1138V14.1456V14.1774V14.2092V14.2411V14.2729V14.3047V14.3365V14.3683V14.4001V14.4319V14.4637V14.4955V14.5273V14.5592V14.591V14.6228V14.6546V14.6864V14.7182V14.75V14.7818V14.8136V14.8455V14.8773V14.9091V14.9409V14.9727V15.0045V15.0363V15.0681V15.0999V15.1318V15.1636V15.1954V15.2272V15.259V15.2908V15.3226V15.3544V15.3862V15.418V15.4499V15.4817V15.5135V15.5453V15.5771V15.6089V15.6407V15.6725V15.7043V15.7361V15.768V15.7998V15.8316V15.8634V15.8952V15.927V15.9588V15.9906V16.0224V16.0542V16.0861V16.1179V16.1497V16.1815V16.2133V16.2451V16.2769V16.3087V16.3405V16.3723V16.4042V16.436V16.4678V16.4996V16.5314V16.5632V16.595V16.6268V16.6586V16.6904V16.7223V16.7541V16.7859V16.8177V16.8495V16.8813V16.9131V16.9449V16.9767V17.0085V17.0403V17.0722V17.104V17.1358V17.1676V17.1994V17.2312V17.263V17.2948V17.3266V17.3584V17.3903V17.4221V17.4539V17.4857V17.5175V17.5493V17.5811V17.6129V17.6447V17.6765V17.7083V17.7402V17.772V17.8038V17.8356V17.8674V17.8992V17.931V17.9628V17.9946V18.0264V18.0582V18.09V18.1219V18.1537V18.1855V18.2173V18.2491V18.2809V18.3127V18.3445V18.3763V18.4081V18.4399V18.4718V18.5036V18.5354V18.5672V18.599V18.6308V18.6626V18.6944V18.7262V18.758V18.7898V18.8216V18.8535V18.8853V18.9171V18.9489V18.9807V19.0125V19.0443V19.0761V19.1079V19.1397V19.1715V19.2033V19.2352V19.267V19.2988V19.3306V19.3624V19.3942V19.426V19.4578V19.4896V19.5214V19.5532V19.585V19.6168V19.6487V19.6805V19.7123V19.7441V19.7759V19.8077V19.8395V19.8713V19.9031V19.9349V19.9667V19.9985V20.0304V20.0622V20.094V20.1258V20.1576V20.1894V20.2212V20.253V20.2848V20.3166V20.3484V20.3802V20.412V20.4438V20.4757V20.5075V20.5393V20.5711V20.6029V20.6347V20.6665V20.6983V20.7301V20.7619C31.6734 20.8206 31.6694 20.8846 31.6646 20.9569L31.6639 20.9678C31.6594 21.0347 31.6545 21.1084 31.6535 21.1803C31.6517 21.321 31.6626 21.506 31.7662 21.6518C31.9963 22.0054 32.335 22.2747 32.7314 22.4191Z" fill="#704332" stroke="#704332" stroke-width="0.4"/>
<path d="M4.12678 41.7487H4.12653C3.1246 41.7474 2.29146 41.4357 1.70676 40.8546C1.12204 40.2734 0.806299 39.4433 0.800004 38.4449L0.799996 38.4436L0.8 38.4351V38.4266V38.4182V38.4097V38.4012V38.3927V38.3842V38.3758V38.3673V38.3588V38.3503V38.3418V38.3333V38.3249V38.3164V38.3079V38.2994V38.2909V38.2825V38.274V38.2655V38.257V38.2485V38.24V38.2316V38.2231V38.2146V38.2061V38.1976V38.1892V38.1807V38.1722V38.1637V38.1552V38.1467V38.1383V38.1298V38.1213V38.1128V38.1043V38.0959V38.0874V38.0789V38.0704V38.0619V38.0534V38.045V38.0365V38.028V38.0195V38.011V38.0026V37.9941V37.9856V37.9771V37.9686V37.9601V37.9517V37.9432V37.9347V37.9262V37.9177V37.9092V37.9008V37.8923V37.8838V37.8753V37.8668V37.8584V37.8499V37.8414V37.8329V37.8244V37.8159V37.8075V37.799V37.7905V37.782V37.7735V37.7651V37.7566V37.7481V37.7396V37.7311V37.7226V37.7142V37.7057V37.6972V37.6887V37.6802V37.6718V37.6633V37.6548V37.6463V37.6378V37.6293V37.6209V37.6124V37.6039V37.5954V37.5869V37.5785V37.57V37.5615V37.553V37.5445V37.536V37.5276V37.5191V37.5106V37.5021V37.4936V37.4852V37.4767V37.4682V37.4597V37.4512V37.4427V37.4343V37.4258V37.4173V37.4088V37.4003V37.3919V37.3834V37.3749V37.3664V37.3579V37.3494V37.341V37.3325V37.324V37.3155V37.307V37.2985V37.2901V37.2816V37.2731V37.2646V37.2561V37.2477V37.2392V37.2307V37.2222V37.2137V37.2052V37.1968V37.1883V37.1798V37.1713V37.1628V37.1544V37.1459V37.1374V37.1289V37.1204V37.1119V37.1035V37.095V37.0865V37.078V37.0695V37.0611V37.0526V37.0441V37.0356V37.0271V37.0186V37.0102V37.0017V36.9932V36.9847V36.9762V36.9678V36.9593V36.9508V36.9423V36.9338V36.9253V36.9169V36.9084V36.8999V36.8914V36.8829V36.8745V36.866V36.8575V36.849V36.8405V36.832V36.8236V36.8151V36.8066V36.7981V36.7896V36.7812V36.7727V36.7642V36.7557V36.7472V36.7387V36.7303V36.7218V36.7133V36.7048V36.6963V36.6879V36.6794V36.6709V36.6624V36.6539V36.6454V36.637V36.6285V36.62V36.6115V36.603V36.5945V36.5861V36.5776V36.5691V36.5606V36.5521V36.5437V36.5352V36.5267V36.5182V36.5097V36.5012V36.4928V36.4843V36.4758V36.4673V36.4588V36.4504V36.4419V36.4334V36.4249V36.4164V36.4079V36.3995V36.391V36.3825V36.374V36.3655V36.3571V36.3486V36.3401V36.3316V36.3231V36.3146V36.3062V36.2977V36.2892V36.2807V36.2722V36.2638V36.2553V36.2468V36.2383V36.2298V36.2213V36.2129V36.2044V36.1959V36.1874V36.1789V36.1705V36.162V36.1535V36.145V36.1365V36.128V36.1196V36.1111V36.1026V36.0941V36.0856V36.0772V36.0687V36.0602V36.0517V36.0432V36.0347V36.0263V36.0178V36.0093V36.0008V35.9923V35.9838V35.9754V35.9669V35.9584V35.9499V35.9414V35.933V35.9245V35.916V35.9075V35.899V35.8905V35.8821V35.8736V35.8651V35.8566V35.8481V35.8397V35.8312V35.8227V35.8142V35.8057V35.7972V35.7888V35.7803V35.7718V35.7633V35.7548V35.7464V35.7379V35.7294V35.7209V35.7124V35.7039V35.6955V35.687V35.6785V35.67V35.6615V35.6531V35.6446V35.6361V35.6276V35.6191V35.6106V35.6022V35.5937V35.5852V35.5767V35.5682V35.5598V35.5513V35.5428V35.5343V35.5258V35.5173V35.5089V35.5004V35.4919V35.4834V35.4749V35.4665V35.458V35.4495V35.441V35.4325V35.424V35.4156V35.4071V35.3986V35.3901V35.3816V35.3732V35.3647V35.3562V35.3477V35.3392V35.3307V35.3223V35.3138V35.3053V35.2968V35.2883V35.2798V35.2714V35.2629V35.2544V35.2459V35.2374V35.229V35.2205V35.212V35.2035V35.195V35.1865V35.1781V35.1696V35.1611V35.1526V35.1441V35.1357V35.1272V35.1187V35.1102V35.1017V35.0932V35.0848V35.0763V35.0678V35.0593V35.0508V35.0424V35.0339V35.0254V35.0169V35.0084V34.9999V34.9915V34.983V34.9745V34.966V34.9575V34.9491V34.9406V34.9321V34.9236V34.9151V34.9066V34.8982V34.8897V34.8812V34.8727V34.8642V34.8558V34.8473V34.8388V34.8303V34.8218V34.8133V34.8049V34.7964V34.7879V34.7794V34.7709V34.7625V34.754V34.7455V34.737V34.7285V34.72V34.7116V34.7031V34.6946V34.6861V34.6776V34.6691V34.6607V34.6522V34.6437V34.6352V34.6267V34.6183V34.6098V34.6013V34.5928V34.5843V34.5758V34.5674V34.5589V34.5504V34.5419V34.5334V34.525V34.5165V34.508V34.4995V34.491V34.4825V34.4741V34.4656V34.4571V34.4486V34.4401V34.4317V34.4232V34.4147V34.4062V34.3977V34.3892V34.3808V34.3723V34.3638V34.3553V34.3468V34.3384V34.3299V34.3214V34.3129V34.3044V34.2959V34.2875V34.279V34.2705V34.262V34.2535V34.2451V34.2366V34.2281V34.2196V34.2111V34.2026V34.1942V34.1857V34.1772V34.1687V34.1602V34.1518V34.1433V34.1348V34.1263V34.1178V34.1093V34.1009C0.8 33.6373 0.862012 33.2692 1.0497 33.0168C1.24964 32.7479 1.55527 32.6548 1.92091 32.6535C2.29755 32.6522 2.61297 32.7665 2.82825 33.0402C3.0349 33.3029 3.12257 33.6801 3.13008 34.1459L3.13014 34.1491H3.13011V34.1567V34.1644V34.172V34.1796V34.1872V34.1948V34.2025V34.2101V34.2177V34.2253V34.2329V34.2406V34.2482V34.2558V34.2634V34.271V34.2787V34.2863V34.2939V34.3015V34.3091V34.3168V34.3244V34.332V34.3396V34.3472V34.3549V34.3625V34.3701V34.3777V34.3853V34.393V34.4006V34.4082V34.4158V34.4235V34.4311V34.4387V34.4463V34.4539V34.4616V34.4692V34.4768V34.4844V34.492V34.4997V34.5073V34.5149V34.5225V34.5302V34.5378V34.5454V34.553V34.5606V34.5683V34.5759V34.5835V34.5911V34.5988V34.6064V34.614V34.6216V34.6293V34.6369V34.6445V34.6521V34.6597V34.6674V34.675V34.6826V34.6902V34.6979V34.7055V34.7131V34.7207V34.7284V34.736V34.7436V34.7512V34.7588V34.7665V34.7741V34.7817V34.7893V34.797V34.8046V34.8122V34.8198V34.8275V34.8351V34.8427V34.8503V34.858V34.8656V34.8732V34.8808V34.8885V34.8961V34.9037V34.9113V34.919V34.9266V34.9342V34.9418V34.9495V34.9571V34.9647V34.9723V34.98V34.9876V34.9952V35.0028V35.0105V35.0181V35.0257V35.0333V35.041V35.0486V35.0562V35.0638V35.0715V35.0791V35.0867V35.0943V35.102V35.1096V35.1172V35.1248V35.1325V35.1401V35.1477V35.1553V35.163V35.1706V35.1782V35.1858V35.1935V35.2011V35.2087V35.2163V35.224V35.2316V35.2392V35.2469V35.2545V35.2621V35.2697V35.2774V35.285V35.2926V35.3002V35.3079V35.3155V35.3231V35.3307V35.3384V35.346V35.3536V35.3613V35.3689V35.3765V35.3841V35.3918V35.3994V35.407V35.4146V35.4223V35.4299V35.4375V35.4452V35.4528V35.4604V35.468V35.4757V35.4833V35.4909V35.4985V35.5062V35.5138V35.5214V35.5291V35.5367V35.5443V35.5519V35.5596V35.5672V35.5748V35.5825V35.5901V35.5977V35.6053V35.613V35.6206V35.6282V35.6359V35.6435V35.6511V35.6587V35.6664V35.674V35.6816V35.6893V35.6969V35.7045V35.7121V35.7198V35.7274V35.735V35.7427V35.7503V35.7579V35.7655V35.7732V35.7808V35.7884V35.7961V35.8037V35.8113V35.8189V35.8266V35.8342V35.8418V35.8495V35.8571V35.8647V35.8723V35.88V35.8876V35.8952V35.9029V35.9105V35.9181V35.9258V35.9334V35.941V35.9486V35.9563V35.9639V35.9715V35.9792V35.9868V35.9944V36.002V36.0097V36.0173V36.0249V36.0326V36.0402V36.0478V36.0555V36.0631V36.0707V36.0783V36.086V36.0936V36.1012V36.1089V36.1165V36.1241V36.1318V36.1394V36.147V36.1547V36.1623V36.1699V36.1775V36.1852V36.1928V36.2004V36.2081V36.2157V36.2233V36.231V36.2386V36.2462V36.2538V36.2615V36.2691V36.2767V36.2844V36.292V36.2996V36.3073V36.3149V36.3225V36.3302V36.3378V36.3454V36.3531V36.3607V36.3683V36.3759V36.3836V36.3912V36.3988V36.4065V36.4141V36.4217V36.4294V36.437V36.4446V36.4523V36.4599V36.4675V36.4752V36.4828V36.4904V36.498V36.5057V36.5133V36.5209V36.5286V36.5362V36.5438V36.5515V36.5591V36.5667V36.5744V36.582V36.5896V36.5973V36.6049V36.6125V36.6202V36.6278V36.6354V36.643V36.6507V36.6583V36.6659V36.6736V36.6812V36.6888V36.6965V36.7041V36.7117V36.7194V36.727V36.7346V36.7423V36.7499V36.7575V36.7652V36.7728V36.7804V36.7881V36.7957V36.8033V36.811V36.8186V36.8262V36.8339V36.8415V36.8491V36.8567V36.8644V36.872V36.8796V36.8873V36.8949V36.9025V36.9102V36.9178V36.9254V36.9331V36.9407V36.9483V36.956V36.9636V36.9712V36.9789V36.9865V36.9941V37.0018V37.0094V37.017V37.0247V37.0323V37.0399V37.0476V37.0552V37.0628V37.0705V37.0781V37.0857V37.0934V37.101V37.1086V37.1163V37.1239V37.1315V37.1392V37.1468V37.1544V37.1621V37.1697V37.1773V37.185V37.1926V37.2002V37.2079V37.2155V37.2231V37.2308V37.2384V37.246V37.2537V37.2613V37.2689V37.2766V37.2842V37.2918V37.2995V37.3071V37.3147V37.3224V37.33V37.3376V37.3453V37.3529V37.3605V37.3682V37.3758V37.3834V37.3911V37.3987V37.4063V37.414V37.4216V37.4292V37.4369V37.4445V37.4521V37.4598V37.4674V37.475V37.4827V37.4903V37.4979V37.5056V37.5132V37.5208V37.5285V37.5361V37.5437V37.5514V37.559V37.5666V37.5743V37.5819V37.5895V37.5972V37.6048V37.6124V37.6201V37.6277V37.6353V37.643V37.6506V37.6582V37.6659V37.6735V37.6811V37.6888V37.6964V37.704V37.7117V37.7193V37.7269V37.7346V37.7422V37.7498V37.7575V37.7651V37.7727V37.7804V37.788V37.7956V37.8033V37.8109V37.8185V37.8262V37.8338V37.8414V37.8491V37.8567V37.8643V37.872V37.8796V37.8872V37.8949V37.9025V37.9101V37.9178V37.9254V37.933V37.9407V37.9483V37.9559V37.9636V37.9712V37.9788V37.9865V37.9941V38.0017V38.0094V38.017V38.0246V38.0323V38.0399V38.0475V38.0552C3.13011 38.377 3.14617 38.6214 3.18603 38.8091C3.22544 38.9947 3.28529 39.111 3.36325 39.1904C3.44098 39.2696 3.55502 39.3307 3.73795 39.3714C3.92328 39.4127 4.16575 39.43 4.48663 39.4306H22.9164L22.9385 39.4306C23.2112 39.4305 23.5322 39.4304 23.7967 39.5431C23.9396 39.604 24.0693 39.6984 24.17 39.8411C24.2695 39.9822 24.3329 40.1596 24.362 40.376C24.418 40.7928 24.354 41.1511 24.1134 41.4026C23.8769 41.6497 23.5128 41.7474 23.0762 41.7487L23.0756 41.7487V41.5487H14.1802H13.4565H4.12678C2.20632 41.5463 1.01206 40.3568 1 38.4436V34.1009C1 33.1889 1.25333 32.8559 1.92163 32.8535C2.58993 32.8511 2.91563 33.2516 2.93011 34.1491L4.12678 41.7487ZM4.12678 41.7487H4.14501M4.12678 41.7487H4.14501M4.14501 41.7487H4.16323M4.14501 41.7487H4.16323M4.16323 41.7487H4.18146M4.16323 41.7487H4.18146M4.18146 41.7487H4.19969M4.18146 41.7487H4.19969M4.19969 41.7487H4.21791M4.19969 41.7487H4.21791M4.21791 41.7487H4.23614M4.21791 41.7487H4.23614M4.23614 41.7487H4.25437M4.23614 41.7487H4.25437M4.25437 41.7487H4.27259M4.25437 41.7487H4.27259M4.27259 41.7487H4.29082M4.27259 41.7487H4.29082M4.29082 41.7487H4.30905M4.29082 41.7487H4.30905M4.30905 41.7487H4.32727M4.30905 41.7487H4.32727M4.32727 41.7487H4.3455M4.32727 41.7487H4.3455M4.3455 41.7487H4.36373M4.3455 41.7487H4.36373M4.36373 41.7487H4.38195M4.36373 41.7487H4.38195M4.38195 41.7487H4.40018M4.38195 41.7487H4.40018M4.40018 41.7487H4.4184M4.40018 41.7487H4.4184M4.4184 41.7487H4.43663M4.4184 41.7487H4.43663M4.43663 41.7487H4.45486M4.43663 41.7487H4.45486M4.45486 41.7487H4.47308M4.45486 41.7487H4.47308M4.47308 41.7487H4.49131M4.47308 41.7487H4.49131M4.49131 41.7487H4.50954M4.49131 41.7487H4.50954M4.50954 41.7487H4.52776M4.50954 41.7487H4.52776M4.52776 41.7487H4.54599M4.52776 41.7487H4.54599M4.54599 41.7487H4.56422M4.54599 41.7487H4.56422M4.56422 41.7487H4.58244M4.56422 41.7487H4.58244M4.58244 41.7487H4.60067M4.58244 41.7487H4.60067M4.60067 41.7487H4.61889M4.60067 41.7487H4.61889M4.61889 41.7487H4.63712M4.61889 41.7487H4.63712M4.63712 41.7487H4.65535M4.63712 41.7487H4.65535M4.65535 41.7487H4.67357M4.65535 41.7487H4.67357M4.67357 41.7487H4.6918M4.67357 41.7487H4.6918M4.6918 41.7487H4.71003M4.6918 41.7487H4.71003M4.71003 41.7487H4.72825M4.71003 41.7487H4.72825M4.72825 41.7487H4.74648M4.72825 41.7487H4.74648M4.74648 41.7487H4.7647M4.74648 41.7487H4.7647M4.7647 41.7487H4.78293M4.7647 41.7487H4.78293M4.78293 41.7487H4.80116M4.78293 41.7487H4.80116M4.80116 41.7487H4.81938M4.80116 41.7487H4.81938M4.81938 41.7487H4.83761M4.81938 41.7487H4.83761M4.83761 41.7487H4.85583M4.83761 41.7487H4.85583M4.85583 41.7487H4.87406M4.85583 41.7487H4.87406M4.87406 41.7487H4.89229M4.87406 41.7487H4.89229M4.89229 41.7487H4.91051M4.89229 41.7487H4.91051M4.91051 41.7487H4.92874M4.91051 41.7487H4.92874M4.92874 41.7487H4.94696M4.92874 41.7487H4.94696M4.94696 41.7487H4.96519M4.94696 41.7487H4.96519M4.96519 41.7487H4.98342M4.96519 41.7487H4.98342M4.98342 41.7487H5.00164M4.98342 41.7487H5.00164M5.00164 41.7487H5.01987M5.00164 41.7487H5.01987M5.01987 41.7487H5.03809M5.01987 41.7487H5.03809M5.03809 41.7487H5.05632M5.03809 41.7487H5.05632M5.05632 41.7487H5.07454M5.05632 41.7487H5.07454M5.07454 41.7487H5.09277M5.07454 41.7487H5.09277M5.09277 41.7487H5.111M5.09277 41.7487H5.111M5.111 41.7487H5.12922M5.111 41.7487H5.12922M5.12922 41.7487H5.14745M5.12922 41.7487H5.14745M5.14745 41.7487H5.16567M5.14745 41.7487H5.16567M5.16567 41.7487H5.1839M5.16567 41.7487H5.1839M5.1839 41.7487H5.20212M5.1839 41.7487H5.20212M5.20212 41.7487H5.22035M5.20212 41.7487H5.22035M5.22035 41.7487H5.23858M5.22035 41.7487H5.23858M5.23858 41.7487H5.2568M5.23858 41.7487H5.2568M5.2568 41.7487H5.27503M5.2568 41.7487H5.27503M5.27503 41.7487H5.29325M5.27503 41.7487H5.29325M5.29325 41.7487H5.31148M5.29325 41.7487H5.31148M5.31148 41.7487H5.3297M5.31148 41.7487H5.3297M5.3297 41.7487H5.34793M5.3297 41.7487H5.34793M5.34793 41.7487H5.36615M5.34793 41.7487H5.36615M5.36615 41.7487H5.38438M5.36615 41.7487H5.38438M5.38438 41.7487H5.40261M5.38438 41.7487H5.40261M5.40261 41.7487H5.42083M5.40261 41.7487H5.42083M5.42083 41.7487H5.43906M5.42083 41.7487H5.43906M5.43906 41.7487H5.45728M5.43906 41.7487H5.45728M5.45728 41.7487H5.47551M5.45728 41.7487H5.47551M5.47551 41.7487H5.49373M5.47551 41.7487H5.49373M5.49373 41.7487H5.51196M5.49373 41.7487H5.51196M5.51196 41.7487H5.53018M5.51196 41.7487H5.53018M5.53018 41.7487H5.54841M5.53018 41.7487H5.54841M5.54841 41.7487H5.56663M5.54841 41.7487H5.56663M5.56663 41.7487H5.58486M5.56663 41.7487H5.58486M5.58486 41.7487H5.60308M5.58486 41.7487H5.60308M5.60308 41.7487H5.62131M5.60308 41.7487H5.62131M5.62131 41.7487H5.63953M5.62131 41.7487H5.63953M5.63953 41.7487H5.65776M5.63953 41.7487H5.65776M5.65776 41.7487H5.67599M5.65776 41.7487H5.67599M5.67599 41.7487H5.69421M5.67599 41.7487H5.69421M5.69421 41.7487H5.71244M5.69421 41.7487H5.71244M5.71244 41.7487H5.73066M5.71244 41.7487H5.73066M5.73066 41.7487H5.74889M5.73066 41.7487H5.74889M5.74889 41.7487H5.76711M5.74889 41.7487H5.76711M5.76711 41.7487H5.78534M5.76711 41.7487H5.78534M5.78534 41.7487H5.80356M5.78534 41.7487H5.80356M5.80356 41.7487H5.82179M5.80356 41.7487H5.82179M5.82179 41.7487H5.84001M5.82179 41.7487H5.84001M5.84001 41.7487H5.85824M5.84001 41.7487H5.85824M5.85824 41.7487H5.87646M5.85824 41.7487H5.87646M5.87646 41.7487H5.89469M5.87646 41.7487H5.89469M5.89469 41.7487H5.91291M5.89469 41.7487H5.91291M5.91291 41.7487H5.93114M5.91291 41.7487H5.93114M5.93114 41.7487H5.94936M5.93114 41.7487H5.94936M5.94936 41.7487H5.96759M5.94936 41.7487H5.96759M5.96759 41.7487H5.98581M5.96759 41.7487H5.98581M5.98581 41.7487H6.00403M5.98581 41.7487H6.00403M6.00403 41.7487H6.02226M6.00403 41.7487H6.02226M6.02226 41.7487H6.04048M6.02226 41.7487H6.04048M6.04048 41.7487H6.05871M6.04048 41.7487H6.05871M6.05871 41.7487H6.07693M6.05871 41.7487H6.07693M6.07693 41.7487H6.09516M6.07693 41.7487H6.09516M6.09516 41.7487H6.11338M6.09516 41.7487H6.11338M6.11338 41.7487H6.13161M6.11338 41.7487H6.13161M6.13161 41.7487H6.14983M6.13161 41.7487H6.14983M6.14983 41.7487H6.16806M6.14983 41.7487H6.16806M6.16806 41.7487H6.18628M6.16806 41.7487H6.18628M6.18628 41.7487H6.20451M6.18628 41.7487H6.20451M6.20451 41.7487H6.22273M6.20451 41.7487H6.22273M6.22273 41.7487H6.24096M6.22273 41.7487H6.24096M6.24096 41.7487H6.25918M6.24096 41.7487H6.25918M6.25918 41.7487H6.27741M6.25918 41.7487H6.27741M6.27741 41.7487H6.29563M6.27741 41.7487H6.29563M6.29563 41.7487H6.31385M6.29563 41.7487H6.31385M6.31385 41.7487H6.33208M6.31385 41.7487H6.33208M6.33208 41.7487H6.3503M6.33208 41.7487H6.3503M6.3503 41.7487H6.36853M6.3503 41.7487H6.36853M6.36853 41.7487H6.38675M6.36853 41.7487H6.38675M6.38675 41.7487H6.40498M6.38675 41.7487H6.40498M6.40498 41.7487H6.4232M6.40498 41.7487H6.4232M6.4232 41.7487H6.44143M6.4232 41.7487H6.44143M6.44143 41.7487H6.45965M6.44143 41.7487H6.45965M6.45965 41.7487H6.47787M6.45965 41.7487H6.47787M6.47787 41.7487H6.4961M6.47787 41.7487H6.4961M6.4961 41.7487H6.51432M6.4961 41.7487H6.51432M6.51432 41.7487H6.53255M6.51432 41.7487H6.53255M6.53255 41.7487H6.55077M6.53255 41.7487H6.55077M6.55077 41.7487H6.569M6.55077 41.7487H6.569M6.569 41.7487H6.58722M6.569 41.7487H6.58722M6.58722 41.7487H6.60544M6.58722 41.7487H6.60544M6.60544 41.7487H6.62367M6.60544 41.7487H6.62367M6.62367 41.7487H6.64189M6.62367 41.7487H6.64189M6.64189 41.7487H6.66012M6.64189 41.7487H6.66012M6.66012 41.7487H6.67834M6.66012 41.7487H6.67834M6.67834 41.7487H6.69657M6.67834 41.7487H6.69657M6.69657 41.7487H6.71479M6.69657 41.7487H6.71479M6.71479 41.7487H6.73301M6.71479 41.7487H6.73301M6.73301 41.7487H6.75124M6.73301 41.7487H6.75124M6.75124 41.7487H6.76946M6.75124 41.7487H6.76946M6.76946 41.7487H6.78769M6.76946 41.7487H6.78769M6.78769 41.7487H6.80591M6.78769 41.7487H6.80591M6.80591 41.7487H6.82413M6.80591 41.7487H6.82413M6.82413 41.7487H6.84236M6.82413 41.7487H6.84236M6.84236 41.7487H6.86058M6.84236 41.7487H6.86058M6.86058 41.7487H6.87881M6.86058 41.7487H6.87881M6.87881 41.7487H6.89703M6.87881 41.7487H6.89703M6.89703 41.7487H6.91525M6.89703 41.7487H6.91525M6.91525 41.7487H6.93348M6.91525 41.7487H6.93348M6.93348 41.7487H6.9517M6.93348 41.7487H6.9517M6.9517 41.7487H6.96993M6.9517 41.7487H6.96993M6.96993 41.7487H6.98815M6.96993 41.7487H6.98815M6.98815 41.7487H7.00637M6.98815 41.7487H7.00637M7.00637 41.7487H7.0246M7.00637 41.7487H7.0246M7.0246 41.7487H7.04282M7.0246 41.7487H7.04282M7.04282 41.7487H7.06104M7.04282 41.7487H7.06104M7.06104 41.7487H7.07927M7.06104 41.7487H7.07927M7.07927 41.7487H7.09749M7.07927 41.7487H7.09749M7.09749 41.7487H7.11572M7.09749 41.7487H7.11572M7.11572 41.7487H7.13394M7.11572 41.7487H7.13394M7.13394 41.7487H7.15216M7.13394 41.7487H7.15216M7.15216 41.7487H7.17039M7.15216 41.7487H7.17039M7.17039 41.7487H7.18861M7.17039 41.7487H7.18861M7.18861 41.7487H7.20683M7.18861 41.7487H7.20683M7.20683 41.7487H7.22506M7.20683 41.7487H7.22506M7.22506 41.7487H7.24328M7.22506 41.7487H7.24328M7.24328 41.7487H7.26151M7.24328 41.7487H7.26151M7.26151 41.7487H7.27973M7.26151 41.7487H7.27973M7.27973 41.7487H7.29795M7.27973 41.7487H7.29795M7.29795 41.7487H7.31618M7.29795 41.7487H7.31618M7.31618 41.7487H7.3344M7.31618 41.7487H7.3344M7.3344 41.7487H7.35262M7.3344 41.7487H7.35262M7.35262 41.7487H7.37085M7.35262 41.7487H7.37085M7.37085 41.7487H7.38907M7.37085 41.7487H7.38907M7.38907 41.7487H7.40729M7.38907 41.7487H7.40729M7.40729 41.7487H7.42552M7.40729 41.7487H7.42552M7.42552 41.7487H7.44374M7.42552 41.7487H7.44374M7.44374 41.7487H7.46196M7.44374 41.7487H7.46196M7.46196 41.7487H7.48019M7.46196 41.7487H7.48019M7.48019 41.7487H7.49841M7.48019 41.7487H7.49841M7.49841 41.7487H7.51663M7.49841 41.7487H7.51663M7.51663 41.7487H7.53486M7.51663 41.7487H7.53486M7.53486 41.7487H7.55308M7.53486 41.7487H7.55308M7.55308 41.7487H7.5713M7.55308 41.7487H7.5713M7.5713 41.7487H7.58953M7.5713 41.7487H7.58953M7.58953 41.7487H7.60775M7.58953 41.7487H7.60775M7.60775 41.7487H7.62597M7.60775 41.7487H7.62597M7.62597 41.7487H7.6442M7.62597 41.7487H7.6442M7.6442 41.7487H7.66242M7.6442 41.7487H7.66242M7.66242 41.7487H7.68064M7.66242 41.7487H7.68064M7.68064 41.7487H7.69886M7.68064 41.7487H7.69886M7.69886 41.7487H7.71709M7.69886 41.7487H7.71709M7.71709 41.7487H7.73531M7.71709 41.7487H7.73531M7.73531 41.7487H7.75353M7.73531 41.7487H7.75353M7.75353 41.7487H7.77176M7.75353 41.7487H7.77176M7.77176 41.7487H7.78998M7.77176 41.7487H7.78998M7.78998 41.7487H7.8082M7.78998 41.7487H7.8082M7.8082 41.7487H7.82643M7.8082 41.7487H7.82643M7.82643 41.7487H7.84465M7.82643 41.7487H7.84465M7.84465 41.7487H7.86287M7.84465 41.7487H7.86287M7.86287 41.7487H7.8811M7.86287 41.7487H7.8811M7.8811 41.7487H7.89932M7.8811 41.7487H7.89932M7.89932 41.7487H7.91754M7.89932 41.7487H7.91754M7.91754 41.7487H7.93576M7.91754 41.7487H7.93576M7.93576 41.7487H7.95399M7.93576 41.7487H7.95399M7.95399 41.7487H7.97221M7.95399 41.7487H7.97221M7.97221 41.7487H7.99043M7.97221 41.7487H7.99043M7.99043 41.7487H8.00866M7.99043 41.7487H8.00866M8.00866 41.7487H8.02688M8.00866 41.7487H8.02688M8.02688 41.7487H8.0451M8.02688 41.7487H8.0451M8.0451 41.7487H8.06332M8.0451 41.7487H8.06332M8.06332 41.7487H8.08155M8.06332 41.7487H8.08155M8.08155 41.7487H8.09977M8.08155 41.7487H8.09977M8.09977 41.7487H8.11799M8.09977 41.7487H8.11799M8.11799 41.7487H8.13621M8.11799 41.7487H8.13621M8.13621 41.7487H8.15444M8.13621 41.7487H8.15444M8.15444 41.7487H8.17266M8.15444 41.7487H8.17266M8.17266 41.7487H8.19088M8.17266 41.7487H8.19088M8.19088 41.7487H8.20911M8.19088 41.7487H8.20911M8.20911 41.7487H8.22733M8.20911 41.7487H8.22733M8.22733 41.7487H8.24555M8.22733 41.7487H8.24555M8.24555 41.7487H8.26377M8.24555 41.7487H8.26377M8.26377 41.7487H8.282M8.26377 41.7487H8.282M8.282 41.7487H8.30022M8.282 41.7487H8.30022M8.30022 41.7487H8.31844M8.30022 41.7487H8.31844M8.31844 41.7487H8.33666M8.31844 41.7487H8.33666M8.33666 41.7487H8.35489M8.33666 41.7487H8.35489M8.35489 41.7487H8.37311M8.35489 41.7487H8.37311M8.37311 41.7487H8.39133M8.37311 41.7487H8.39133M8.39133 41.7487H8.40955M8.39133 41.7487H8.40955M8.40955 41.7487H8.42778M8.40955 41.7487H8.42778M8.42778 41.7487H8.446M8.42778 41.7487H8.446M8.446 41.7487H8.46422M8.446 41.7487H8.46422M8.46422 41.7487H8.48244M8.46422 41.7487H8.48244M8.48244 41.7487H8.50066M8.48244 41.7487H8.50066M8.50066 41.7487H8.51889M8.50066 41.7487H8.51889M8.51889 41.7487H8.53711M8.51889 41.7487H8.53711M8.53711 41.7487H8.55533M8.53711 41.7487H8.55533M8.55533 41.7487H8.57355M8.55533 41.7487H8.57355M8.57355 41.7487H8.59178M8.57355 41.7487H8.59178M8.59178 41.7487H8.61M8.59178 41.7487H8.61M8.61 41.7487H8.62822M8.61 41.7487H8.62822M8.62822 41.7487H8.64644M8.62822 41.7487H8.64644M8.64644 41.7487H8.66466M8.64644 41.7487H8.66466M8.66466 41.7487H8.68289M8.66466 41.7487H8.68289M8.68289 41.7487H8.70111M8.68289 41.7487H8.70111M8.70111 41.7487H8.71933M8.70111 41.7487H8.71933M8.71933 41.7487H8.73755M8.71933 41.7487H8.73755M8.73755 41.7487H8.75578M8.73755 41.7487H8.75578M8.75578 41.7487H8.774M8.75578 41.7487H8.774M8.774 41.7487H8.79222M8.774 41.7487H8.79222M8.79222 41.7487H8.81044M8.79222 41.7487H8.81044M8.81044 41.7487H8.82866M8.81044 41.7487H8.82866M8.82866 41.7487H8.84689M8.82866 41.7487H8.84689M8.84689 41.7487H8.86511M8.84689 41.7487H8.86511M8.86511 41.7487H8.88333M8.86511 41.7487H8.88333M8.88333 41.7487H8.90155M8.88333 41.7487H8.90155M8.90155 41.7487H8.91977M8.90155 41.7487H8.91977M8.91977 41.7487H8.93799M8.91977 41.7487H8.93799M8.93799 41.7487H8.95622M8.93799 41.7487H8.95622M8.95622 41.7487H8.97444M8.95622 41.7487H8.97444M8.97444 41.7487H8.99266M8.97444 41.7487H8.99266M8.99266 41.7487H9.01088M8.99266 41.7487H9.01088M9.01088 41.7487H9.0291M9.01088 41.7487H9.0291M9.0291 41.7487H9.04733M9.0291 41.7487H9.04733M9.04733 41.7487H9.06555M9.04733 41.7487H9.06555M9.06555 41.7487H9.08377M9.06555 41.7487H9.08377M9.08377 41.7487H9.10199M9.08377 41.7487H9.10199M9.10199 41.7487H9.12021M9.10199 41.7487H9.12021M9.12021 41.7487H9.13843M9.12021 41.7487H9.13843M9.13843 41.7487H9.15666M9.13843 41.7487H9.15666M9.15666 41.7487H9.17488M9.15666 41.7487H9.17488M9.17488 41.7487H9.1931M9.17488 41.7487H9.1931M9.1931 41.7487H9.21132M9.1931 41.7487H9.21132M9.21132 41.7487H9.22954M9.21132 41.7487H9.22954M9.22954 41.7487H9.24776M9.22954 41.7487H9.24776M9.24776 41.7487H9.26599M9.24776 41.7487H9.26599M9.26599 41.7487H9.28421M9.26599 41.7487H9.28421M9.28421 41.7487H9.30243M9.28421 41.7487H9.30243M9.30243 41.7487H9.32065M9.30243 41.7487H9.32065M9.32065 41.7487H9.33887M9.32065 41.7487H9.33887M9.33887 41.7487H9.35709M9.33887 41.7487H9.35709M9.35709 41.7487H9.37531M9.35709 41.7487H9.37531M9.37531 41.7487H9.39354M9.37531 41.7487H9.39354M9.39354 41.7487H9.41176M9.39354 41.7487H9.41176M9.41176 41.7487H9.42998M9.41176 41.7487H9.42998M9.42998 41.7487H9.4482M9.42998 41.7487H9.4482M9.4482 41.7487H9.46642M9.4482 41.7487H9.46642M9.46642 41.7487H9.48464M9.46642 41.7487H9.48464M9.48464 41.7487H9.50286M9.48464 41.7487H9.50286M9.50286 41.7487H9.52109M9.50286 41.7487H9.52109M9.52109 41.7487H9.53931M9.52109 41.7487H9.53931M9.53931 41.7487H9.55753M9.53931 41.7487H9.55753M9.55753 41.7487H9.57575M9.55753 41.7487H9.57575M9.57575 41.7487H9.59397M9.57575 41.7487H9.59397M9.59397 41.7487H9.61219M9.59397 41.7487H9.61219M9.61219 41.7487H9.63041M9.61219 41.7487H9.63041M9.63041 41.7487H9.64863M9.63041 41.7487H9.64863M9.64863 41.7487H9.66685M9.64863 41.7487H9.66685M9.66685 41.7487H9.68508M9.66685 41.7487H9.68508M9.68508 41.7487H9.7033M9.68508 41.7487H9.7033M9.7033 41.7487H9.72152M9.7033 41.7487H9.72152M9.72152 41.7487H9.73974M9.72152 41.7487H9.73974M9.73974 41.7487H9.75796M9.73974 41.7487H9.75796M9.75796 41.7487H9.77618M9.75796 41.7487H9.77618M9.77618 41.7487H9.7944M9.77618 41.7487H9.7944M9.7944 41.7487H9.81262M9.7944 41.7487H9.81262M9.81262 41.7487H9.83084M9.81262 41.7487H9.83084M9.83084 41.7487H9.84907M9.83084 41.7487H9.84907M9.84907 41.7487H9.86729M9.84907 41.7487H9.86729M9.86729 41.7487H9.88551M9.86729 41.7487H9.88551M9.88551 41.7487H9.90373M9.88551 41.7487H9.90373M9.90373 41.7487H9.92195M9.90373 41.7487H9.92195M9.92195 41.7487H9.94017M9.92195 41.7487H9.94017M9.94017 41.7487H9.95839M9.94017 41.7487H9.95839M9.95839 41.7487H9.97661M9.95839 41.7487H9.97661M9.97661 41.7487H9.99483M9.97661 41.7487H9.99483M9.99483 41.7487H10.0131M9.99483 41.7487H10.0131M10.0131 41.7487H10.0313M10.0131 41.7487H10.0313M10.0313 41.7487H10.0495M10.0313 41.7487H10.0495M10.0495 41.7487H10.0677M10.0495 41.7487H10.0677M10.0677 41.7487H10.0859M10.0677 41.7487H10.0859M10.0859 41.7487H10.1042M10.0859 41.7487H10.1042M10.1042 41.7487H10.1224M10.1042 41.7487H10.1224M10.1224 41.7487H10.1406M10.1224 41.7487H10.1406M10.1406 41.7487H10.1588M10.1406 41.7487H10.1588M10.1588 41.7487H10.177M10.1588 41.7487H10.177M10.177 41.7487H10.1953M10.177 41.7487H10.1953M10.1953 41.7487H10.2135M10.1953 41.7487H10.2135M10.2135 41.7487H10.2317M10.2135 41.7487H10.2317M10.2317 41.7487H10.2499M10.2317 41.7487H10.2499M10.2499 41.7487H10.2681M10.2499 41.7487H10.2681M10.2681 41.7487H10.2864M10.2681 41.7487H10.2864M10.2864 41.7487H10.3046M10.2864 41.7487H10.3046M10.3046 41.7487H10.3228M10.3046 41.7487H10.3228M10.3228 41.7487H10.341M10.3228 41.7487H10.341M10.341 41.7487H10.3592M10.341 41.7487H10.3592M10.3592 41.7487H10.3775M10.3592 41.7487H10.3775M10.3775 41.7487H10.3957M10.3775 41.7487H10.3957M10.3957 41.7487H10.4139M10.3957 41.7487H10.4139M10.4139 41.7487H10.4321M10.4139 41.7487H10.4321M10.4321 41.7487H10.4503M10.4321 41.7487H10.4503M10.4503 41.7487H10.4686M10.4503 41.7487H10.4686M10.4686 41.7487H10.4868M10.4686 41.7487H10.4868M10.4868 41.7487H10.505M10.4868 41.7487H10.505M10.505 41.7487H10.5232M10.505 41.7487H10.5232M10.5232 41.7487H10.5414M10.5232 41.7487H10.5414M10.5414 41.7487H10.5597M10.5414 41.7487H10.5597M10.5597 41.7487H10.5779M10.5597 41.7487H10.5779M10.5779 41.7487H10.5961M10.5779 41.7487H10.5961M10.5961 41.7487H10.6143M10.5961 41.7487H10.6143M10.6143 41.7487H10.6325M10.6143 41.7487H10.6325M10.6325 41.7487H10.6508M10.6325 41.7487H10.6508M10.6508 41.7487H10.669M10.6508 41.7487H10.669M10.669 41.7487H10.6872M10.669 41.7487H10.6872M10.6872 41.7487H10.7054M10.6872 41.7487H10.7054M10.7054 41.7487H10.7236M10.7054 41.7487H10.7236M10.7236 41.7487H10.7419M10.7236 41.7487H10.7419M10.7419 41.7487H10.7601M10.7419 41.7487H10.7601M10.7601 41.7487H10.7783M10.7601 41.7487H10.7783M10.7783 41.7487H10.7965M10.7783 41.7487H10.7965M10.7965 41.7487H10.8147M10.7965 41.7487H10.8147M10.8147 41.7487H10.833M10.8147 41.7487H10.833M10.833 41.7487H10.8512M10.833 41.7487H10.8512M10.8512 41.7487H10.8694M10.8512 41.7487H10.8694M10.8694 41.7487H10.8876M10.8694 41.7487H10.8876M10.8876 41.7487H10.9058M10.8876 41.7487H10.9058M10.9058 41.7487H10.9241M10.9058 41.7487H10.9241M10.9241 41.7487H10.9423M10.9241 41.7487H10.9423M10.9423 41.7487H10.9605M10.9423 41.7487H10.9605M10.9605 41.7487H10.9787M10.9605 41.7487H10.9787M10.9787 41.7487H10.9969M10.9787 41.7487H10.9969M10.9969 41.7487H11.0152M10.9969 41.7487H11.0152M11.0152 41.7487H11.0334M11.0152 41.7487H11.0334M11.0334 41.7487H11.0516M11.0334 41.7487H11.0516M11.0516 41.7487H11.0698M11.0516 41.7487H11.0698M11.0698 41.7487H11.088M11.0698 41.7487H11.088M11.088 41.7487H11.1063M11.088 41.7487H11.1063M11.1063 41.7487H11.1245M11.1063 41.7487H11.1245M11.1245 41.7487H11.1427M11.1245 41.7487H11.1427M11.1427 41.7487H11.1609M11.1427 41.7487H11.1609M11.1609 41.7487H11.1791M11.1609 41.7487H11.1791M11.1791 41.7487H11.1974M11.1791 41.7487H11.1974M11.1974 41.7487H11.2156M11.1974 41.7487H11.2156M11.2156 41.7487H11.2338M11.2156 41.7487H11.2338M11.2338 41.7487H11.252M11.2338 41.7487H11.252M11.252 41.7487H11.2702M11.252 41.7487H11.2702M11.2702 41.7487H11.2885M11.2702 41.7487H11.2885M11.2885 41.7487H11.3067M11.2885 41.7487H11.3067M11.3067 41.7487H11.3249M11.3067 41.7487H11.3249M11.3249 41.7487H11.3431M11.3249 41.7487H11.3431M11.3431 41.7487H11.3613M11.3431 41.7487H11.3613M11.3613 41.7487H11.3796M11.3613 41.7487H11.3796M11.3796 41.7487H11.3978M11.3796 41.7487H11.3978M11.3978 41.7487H11.416M11.3978 41.7487H11.416M11.416 41.7487H11.4342M11.416 41.7487H11.4342M11.4342 41.7487H11.4524M11.4342 41.7487H11.4524M11.4524 41.7487H11.4707M11.4524 41.7487H11.4707M11.4707 41.7487H11.4889M11.4707 41.7487H11.4889M11.4889 41.7487H11.5071M11.4889 41.7487H11.5071M11.5071 41.7487H11.5253M11.5071 41.7487H11.5253M11.5253 41.7487H11.5435M11.5253 41.7487H11.5435M11.5435 41.7487H11.5618M11.5435 41.7487H11.5618M11.5618 41.7487H11.58M11.5618 41.7487H11.58M11.58 41.7487H11.5982M11.58 41.7487H11.5982M11.5982 41.7487H11.6164M11.5982 41.7487H11.6164M11.6164 41.7487H11.6346M11.6164 41.7487H11.6346M11.6346 41.7487H11.6528M11.6346 41.7487H11.6528M11.6528 41.7487H11.6711M11.6528 41.7487H11.6711M11.6711 41.7487H11.6893M11.6711 41.7487H11.6893M11.6893 41.7487H11.7075M11.6893 41.7487H11.7075M11.7075 41.7487H11.7257M11.7075 41.7487H11.7257M11.7257 41.7487H11.7439M11.7257 41.7487H11.7439M11.7439 41.7487H11.7622M11.7439 41.7487H11.7622M11.7622 41.7487H11.7804M11.7622 41.7487H11.7804M11.7804 41.7487H11.7986M11.7804 41.7487H11.7986M11.7986 41.7487H11.8168M11.7986 41.7487H11.8168M11.8168 41.7487H11.835M11.8168 41.7487H11.835M11.835 41.7487H11.8533M11.835 41.7487H11.8533M11.8533 41.7487H11.8715M11.8533 41.7487H11.8715M11.8715 41.7487H11.8897M11.8715 41.7487H11.8897M11.8897 41.7487H11.9079M11.8897 41.7487H11.9079M11.9079 41.7487H11.9261M11.9079 41.7487H11.9261M11.9261 41.7487H11.9444M11.9261 41.7487H11.9444M11.9444 41.7487H11.9626M11.9444 41.7487H11.9626M11.9626 41.7487H11.9808M11.9626 41.7487H11.9808M11.9808 41.7487H11.999M11.9808 41.7487H11.999M11.999 41.7487H12.0172M11.999 41.7487H12.0172M12.0172 41.7487H12.0354M12.0172 41.7487H12.0354M12.0354 41.7487H12.0537M12.0354 41.7487H12.0537M12.0537 41.7487H12.0719M12.0537 41.7487H12.0719M12.0719 41.7487H12.0901M12.0719 41.7487H12.0901M12.0901 41.7487H12.1083M12.0901 41.7487H12.1083M12.1083 41.7487H12.1265M12.1083 41.7487H12.1265M12.1265 41.7487H12.1448M12.1265 41.7487H12.1448M12.1448 41.7487H12.163M12.1448 41.7487H12.163M12.163 41.7487H12.1812M12.163 41.7487H12.1812M12.1812 41.7487H12.1994M12.1812 41.7487H12.1994M12.1994 41.7487H12.2176M12.1994 41.7487H12.2176M12.2176 41.7487H12.2359M12.2176 41.7487H12.2359M12.2359 41.7487H12.2541M12.2359 41.7487H12.2541M12.2541 41.7487H12.2723M12.2541 41.7487H12.2723M12.2723 41.7487H12.2905M12.2723 41.7487H12.2905M12.2905 41.7487H12.3087M12.2905 41.7487H12.3087M12.3087 41.7487H12.3269M12.3087 41.7487H12.3269M12.3269 41.7487H12.3452M12.3269 41.7487H12.3452M12.3452 41.7487H12.3634M12.3452 41.7487H12.3634M12.3634 41.7487H12.3816M12.3634 41.7487H12.3816M12.3816 41.7487H12.3998M12.3816 41.7487H12.3998M12.3998 41.7487H12.418M12.3998 41.7487H12.418M12.418 41.7487H12.4363M12.418 41.7487H12.4363M12.4363 41.7487H12.4545M12.4363 41.7487H12.4545M12.4545 41.7487H12.4727M12.4545 41.7487H12.4727M12.4727 41.7487H12.4909M12.4727 41.7487H12.4909M12.4909 41.7487H12.5091M12.4909 41.7487H12.5091M12.5091 41.7487H12.5273M12.5091 41.7487H12.5273M12.5273 41.7487H12.5456M12.5273 41.7487H12.5456M12.5456 41.7487H12.5638M12.5456 41.7487H12.5638M12.5638 41.7487H12.582M12.5638 41.7487H12.582M12.582 41.7487H12.6002M12.582 41.7487H12.6002M12.6002 41.7487H12.6184M12.6002 41.7487H12.6184M12.6184 41.7487H12.6367M12.6184 41.7487H12.6367M12.6367 41.7487H12.6549M12.6367 41.7487H12.6549M12.6549 41.7487H12.6731M12.6549 41.7487H12.6731M12.6731 41.7487H12.6913M12.6731 41.7487H12.6913M12.6913 41.7487H12.7095M12.6913 41.7487H12.7095M12.7095 41.7487H12.7277M12.7095 41.7487H12.7277M12.7277 41.7487H12.746M12.7277 41.7487H12.746M12.746 41.7487H12.7642M12.746 41.7487H12.7642M12.7642 41.7487H12.7824M12.7642 41.7487H12.7824M12.7824 41.7487H12.8006M12.7824 41.7487H12.8006M12.8006 41.7487H12.8188M12.8006 41.7487H12.8188M12.8188 41.7487H12.8371M12.8188 41.7487H12.8371M12.8371 41.7487H12.8553M12.8371 41.7487H12.8553M12.8553 41.7487H12.8735M12.8553 41.7487H12.8735M12.8735 41.7487H12.8917M12.8735 41.7487H12.8917M12.8917 41.7487H12.9099M12.8917 41.7487H12.9099M12.9099 41.7487H12.9281M12.9099 41.7487H12.9281M12.9281 41.7487H12.9464M12.9281 41.7487H12.9464M12.9464 41.7487H12.9646M12.9464 41.7487H12.9646M12.9646 41.7487H12.9828M12.9646 41.7487H12.9828M12.9828 41.7487H13.001M12.9828 41.7487H13.001M13.001 41.7487H13.0192M13.001 41.7487H13.0192M13.0192 41.7487H13.0374M13.0192 41.7487H13.0374M13.0374 41.7487H13.0557M13.0374 41.7487H13.0557M13.0557 41.7487H13.0739M13.0557 41.7487H13.0739M13.0739 41.7487H13.0921M13.0739 41.7487H13.0921M13.0921 41.7487H13.1103M13.0921 41.7487H13.1103M13.1103 41.7487H13.1285M13.1103 41.7487H13.1285M13.1285 41.7487H13.1468M13.1285 41.7487H13.1468M13.1468 41.7487H13.165M13.1468 41.7487H13.165M13.165 41.7487H13.1832M13.165 41.7487H13.1832M13.1832 41.7487H13.2014M13.1832 41.7487H13.2014M13.2014 41.7487H13.2196M13.2014 41.7487H13.2196M13.2196 41.7487H13.2378M13.2196 41.7487H13.2378M13.2378 41.7487H13.2561M13.2378 41.7487H13.2561M13.2561 41.7487H13.2743M13.2561 41.7487H13.2743M13.2743 41.7487H13.2925M13.2743 41.7487H13.2925M13.2925 41.7487H13.3107M13.2925 41.7487H13.3107M13.3107 41.7487H13.3289M13.3107 41.7487H13.3289M13.3289 41.7487H13.3471M13.3289 41.7487H13.3471M13.3471 41.7487H13.3654M13.3471 41.7487H13.3654M13.3654 41.7487H13.3836M13.3654 41.7487H13.3836M13.3836 41.7487H13.4018M13.3836 41.7487H13.4018M13.4018 41.7487H13.42M13.4018 41.7487H13.42M13.42 41.7487H13.4382M13.42 41.7487H13.4382M13.4382 41.7487H13.4565M13.4382 41.7487H13.4565M13.4565 41.7487H14.1802H14.1976M13.4565 41.7487H14.1976M14.1976 41.7487H14.215M14.1976 41.7487H14.215M14.215 41.7487H14.2324M14.215 41.7487H14.2324M14.2324 41.7487H14.2497M14.2324 41.7487H14.2497M14.2497 41.7487H14.2671M14.2497 41.7487H14.2671M14.2671 41.7487H14.2845M14.2671 41.7487H14.2845M14.2845 41.7487H14.3019M14.2845 41.7487H14.3019M14.3019 41.7487H14.3192M14.3019 41.7487H14.3192M14.3192 41.7487H14.3366M14.3192 41.7487H14.3366M14.3366 41.7487H14.354M14.3366 41.7487H14.354M14.354 41.7487H14.3714M14.354 41.7487H14.3714M14.3714 41.7487H14.3887M14.3714 41.7487H14.3887M14.3887 41.7487H14.4061M14.3887 41.7487H14.4061M14.4061 41.7487H14.4235M14.4061 41.7487H14.4235M14.4235 41.7487H14.4409M14.4235 41.7487H14.4409M14.4409 41.7487H14.4582M14.4409 41.7487H14.4582M14.4582 41.7487H14.4756M14.4582 41.7487H14.4756M14.4756 41.7487H14.493M14.4756 41.7487H14.493M14.493 41.7487H14.5103M14.493 41.7487H14.5103M14.5103 41.7487H14.5277M14.5103 41.7487H14.5277M14.5277 41.7487H14.5451M14.5277 41.7487H14.5451M14.5451 41.7487H14.5625M14.5451 41.7487H14.5625M14.5625 41.7487H14.5798M14.5625 41.7487H14.5798M14.5798 41.7487H14.5972M14.5798 41.7487H14.5972M14.5972 41.7487H14.6146M14.5972 41.7487H14.6146M14.6146 41.7487H14.632M14.6146 41.7487H14.632M14.632 41.7487H14.6493M14.632 41.7487H14.6493M14.6493 41.7487H14.6667M14.6493 41.7487H14.6667M14.6667 41.7487H14.6841M14.6667 41.7487H14.6841M14.6841 41.7487H14.7015M14.6841 41.7487H14.7015M14.7015 41.7487H14.7188M14.7015 41.7487H14.7188M14.7188 41.7487H14.7362M14.7188 41.7487H14.7362M14.7362 41.7487H14.7536M14.7362 41.7487H14.7536M14.7536 41.7487H14.771M14.7536 41.7487H14.771M14.771 41.7487H14.7883M14.771 41.7487H14.7883M14.7883 41.7487H14.8057M14.7883 41.7487H14.8057M14.8057 41.7487H14.8231M14.8057 41.7487H14.8231M14.8231 41.7487H14.8404M14.8231 41.7487H14.8404M14.8404 41.7487H14.8578M14.8404 41.7487H14.8578M14.8578 41.7487H14.8752M14.8578 41.7487H14.8752M14.8752 41.7487H14.8926M14.8752 41.7487H14.8926M14.8926 41.7487H14.9099M14.8926 41.7487H14.9099M14.9099 41.7487H14.9273M14.9099 41.7487H14.9273M14.9273 41.7487H14.9447M14.9273 41.7487H14.9447M14.9447 41.7487H14.9621M14.9447 41.7487H14.9621M14.9621 41.7487H14.9794M14.9621 41.7487H14.9794M14.9794 41.7487H14.9968M14.9794 41.7487H14.9968M14.9968 41.7487H15.0142M14.9968 41.7487H15.0142M15.0142 41.7487H15.0316M15.0142 41.7487H15.0316M15.0316 41.7487H15.0489M15.0316 41.7487H15.0489M15.0489 41.7487H15.0663M15.0489 41.7487H15.0663M15.0663 41.7487H15.0837M15.0663 41.7487H15.0837M15.0837 41.7487H15.1011M15.0837 41.7487H15.1011M15.1011 41.7487H15.1184M15.1011 41.7487H15.1184M15.1184 41.7487H15.1358M15.1184 41.7487H15.1358M15.1358 41.7487H15.1532M15.1358 41.7487H15.1532M15.1532 41.7487H15.1706M15.1532 41.7487H15.1706M15.1706 41.7487H15.1879M15.1706 41.7487H15.1879M15.1879 41.7487H15.2053M15.1879 41.7487H15.2053M15.2053 41.7487H15.2227M15.2053 41.7487H15.2227M15.2227 41.7487H15.24M15.2227 41.7487H15.24M15.24 41.7487H15.2574M15.24 41.7487H15.2574M15.2574 41.7487H15.2748M15.2574 41.7487H15.2748M15.2748 41.7487H15.2922M15.2748 41.7487H15.2922M15.2922 41.7487H15.3095M15.2922 41.7487H15.3095M15.3095 41.7487H15.3269M15.3095 41.7487H15.3269M15.3269 41.7487H15.3443M15.3269 41.7487H15.3443M15.3443 41.7487H15.3617M15.3443 41.7487H15.3617M15.3617 41.7487H15.379M15.3617 41.7487H15.379M15.379 41.7487H15.3964M15.379 41.7487H15.3964M15.3964 41.7487H15.4138M15.3964 41.7487H15.4138M15.4138 41.7487H15.4312M15.4138 41.7487H15.4312M15.4312 41.7487H15.4485M15.4312 41.7487H15.4485M15.4485 41.7487H15.4659M15.4485 41.7487H15.4659M15.4659 41.7487H15.4833M15.4659 41.7487H15.4833M15.4833 41.7487H15.5007M15.4833 41.7487H15.5007M15.5007 41.7487H15.518M15.5007 41.7487H15.518M15.518 41.7487H15.5354M15.518 41.7487H15.5354M15.5354 41.7487H15.5528M15.5354 41.7487H15.5528M15.5528 41.7487H15.5702M15.5528 41.7487H15.5702M15.5702 41.7487H15.5875M15.5702 41.7487H15.5875M15.5875 41.7487H15.6049M15.5875 41.7487H15.6049M15.6049 41.7487H15.6223M15.6049 41.7487H15.6223M15.6223 41.7487H15.6396M15.6223 41.7487H15.6396M15.6396 41.7487H15.657M15.6396 41.7487H15.657M15.657 41.7487H15.6744M15.657 41.7487H15.6744M15.6744 41.7487H15.6918M15.6744 41.7487H15.6918M15.6918 41.7487H15.7091M15.6918 41.7487H15.7091M15.7091 41.7487H15.7265M15.7091 41.7487H15.7265M15.7265 41.7487H15.7439M15.7265 41.7487H15.7439M15.7439 41.7487H15.7613M15.7439 41.7487H15.7613M15.7613 41.7487H15.7786M15.7613 41.7487H15.7786M15.7786 41.7487H15.796M15.7786 41.7487H15.796M15.796 41.7487H15.8134M15.796 41.7487H15.8134M15.8134 41.7487H15.8308M15.8134 41.7487H15.8308M15.8308 41.7487H15.8481M15.8308 41.7487H15.8481M15.8481 41.7487H15.8655M15.8481 41.7487H15.8655M15.8655 41.7487H15.8829M15.8655 41.7487H15.8829M15.8829 41.7487H15.9003M15.8829 41.7487H15.9003M15.9003 41.7487H15.9176M15.9003 41.7487H15.9176M15.9176 41.7487H15.935M15.9176 41.7487H15.935M15.935 41.7487H15.9524M15.935 41.7487H15.9524M15.9524 41.7487H15.9697M15.9524 41.7487H15.9697M15.9697 41.7487H15.9871M15.9697 41.7487H15.9871M15.9871 41.7487H16.0045M15.9871 41.7487H16.0045M16.0045 41.7487H16.0219M16.0045 41.7487H16.0219M16.0219 41.7487H16.0392M16.0219 41.7487H16.0392M16.0392 41.7487H16.0566M16.0392 41.7487H16.0566M16.0566 41.7487H16.074M16.0566 41.7487H16.074M16.074 41.7487H16.0914M16.074 41.7487H16.0914M16.0914 41.7487H16.1087M16.0914 41.7487H16.1087M16.1087 41.7487H16.1261M16.1087 41.7487H16.1261M16.1261 41.7487H16.1435M16.1261 41.7487H16.1435M16.1435 41.7487H16.1609M16.1435 41.7487H16.1609M16.1609 41.7487H16.1782M16.1609 41.7487H16.1782M16.1782 41.7487H16.1956M16.1782 41.7487H16.1956M16.1956 41.7487H16.213M16.1956 41.7487H16.213M16.213 41.7487H16.2304M16.213 41.7487H16.2304M16.2304 41.7487H16.2477M16.2304 41.7487H16.2477M16.2477 41.7487H16.2651M16.2477 41.7487H16.2651M16.2651 41.7487H16.2825M16.2651 41.7487H16.2825M16.2825 41.7487H16.2999M16.2825 41.7487H16.2999M16.2999 41.7487H16.3172M16.2999 41.7487H16.3172M16.3172 41.7487H16.3346M16.3172 41.7487H16.3346M16.3346 41.7487H16.352M16.3346 41.7487H16.352M16.352 41.7487H16.3693M16.352 41.7487H16.3693M16.3693 41.7487H16.3867M16.3693 41.7487H16.3867M16.3867 41.7487H16.4041M16.3867 41.7487H16.4041M16.4041 41.7487H16.4215M16.4041 41.7487H16.4215M16.4215 41.7487H16.4388M16.4215 41.7487H16.4388M16.4388 41.7487H16.4562M16.4388 41.7487H16.4562M16.4562 41.7487H16.4736M16.4562 41.7487H16.4736M16.4736 41.7487H16.491M16.4736 41.7487H16.491M16.491 41.7487H16.5083M16.491 41.7487H16.5083M16.5083 41.7487H16.5257M16.5083 41.7487H16.5257M16.5257 41.7487H16.5431M16.5257 41.7487H16.5431M16.5431 41.7487H16.5605M16.5431 41.7487H16.5605M16.5605 41.7487H16.5778M16.5605 41.7487H16.5778M16.5778 41.7487H16.5952M16.5778 41.7487H16.5952M16.5952 41.7487H16.6126M16.5952 41.7487H16.6126M16.6126 41.7487H16.63M16.6126 41.7487H16.63M16.63 41.7487H16.6473M16.63 41.7487H16.6473M16.6473 41.7487H16.6647M16.6473 41.7487H16.6647M16.6647 41.7487H16.6821M16.6647 41.7487H16.6821M16.6821 41.7487H16.6994M16.6821 41.7487H16.6994M16.6994 41.7487H16.7168M16.6994 41.7487H16.7168M16.7168 41.7487H16.7342M16.7168 41.7487H16.7342M16.7342 41.7487H16.7516M16.7342 41.7487H16.7516M16.7516 41.7487H16.7689M16.7516 41.7487H16.7689M16.7689 41.7487H16.7863M16.7689 41.7487H16.7863M16.7863 41.7487H16.8037M16.7863 41.7487H16.8037M16.8037 41.7487H16.8211M16.8037 41.7487H16.8211M16.8211 41.7487H16.8384M16.8211 41.7487H16.8384M16.8384 41.7487H16.8558M16.8384 41.7487H16.8558M16.8558 41.7487H16.8732M16.8558 41.7487H16.8732M16.8732 41.7487H16.8906M16.8732 41.7487H16.8906M16.8906 41.7487H16.9079M16.8906 41.7487H16.9079M16.9079 41.7487H16.9253M16.9079 41.7487H16.9253M16.9253 41.7487H16.9427M16.9253 41.7487H16.9427M16.9427 41.7487H16.9601M16.9427 41.7487H16.9601M16.9601 41.7487H16.9774M16.9601 41.7487H16.9774M16.9774 41.7487H16.9948M16.9774 41.7487H16.9948M16.9948 41.7487H17.0122M16.9948 41.7487H17.0122M17.0122 41.7487H17.0296M17.0122 41.7487H17.0296M17.0296 41.7487H17.0469M17.0296 41.7487H17.0469M17.0469 41.7487H17.0643M17.0469 41.7487H17.0643M17.0643 41.7487H17.0817M17.0643 41.7487H17.0817M17.0817 41.7487H17.099M17.0817 41.7487H17.099M17.099 41.7487H17.1164M17.099 41.7487H17.1164M17.1164 41.7487H17.1338M17.1164 41.7487H17.1338M17.1338 41.7487H17.1512M17.1338 41.7487H17.1512M17.1512 41.7487H17.1685M17.1512 41.7487H17.1685M17.1685 41.7487H17.1859M17.1685 41.7487H17.1859M17.1859 41.7487H17.2033M17.1859 41.7487H17.2033M17.2033 41.7487H17.2207M17.2033 41.7487H17.2207M17.2207 41.7487H17.238M17.2207 41.7487H17.238M17.238 41.7487H17.2554M17.238 41.7487H17.2554M17.2554 41.7487H17.2728M17.2554 41.7487H17.2728M17.2728 41.7487H17.2902M17.2728 41.7487H17.2902M17.2902 41.7487H17.3075M17.2902 41.7487H17.3075M17.3075 41.7487H17.3249M17.3075 41.7487H17.3249M17.3249 41.7487H17.3423M17.3249 41.7487H17.3423M17.3423 41.7487H17.3597M17.3423 41.7487H17.3597M17.3597 41.7487H17.377M17.3597 41.7487H17.377M17.377 41.7487H17.3944M17.377 41.7487H17.3944M17.3944 41.7487H17.4118M17.3944 41.7487H17.4118M17.4118 41.7487H17.4291M17.4118 41.7487H17.4291M17.4291 41.7487H17.4465M17.4291 41.7487H17.4465M17.4465 41.7487H17.4639M17.4465 41.7487H17.4639M17.4639 41.7487H17.4813M17.4639 41.7487H17.4813M17.4813 41.7487H17.4986M17.4813 41.7487H17.4986M17.4986 41.7487H17.516M17.4986 41.7487H17.516M17.516 41.7487H17.5334M17.516 41.7487H17.5334M17.5334 41.7487H17.5508M17.5334 41.7487H17.5508M17.5508 41.7487H17.5681M17.5508 41.7487H17.5681M17.5681 41.7487H17.5855M17.5681 41.7487H17.5855M17.5855 41.7487H17.6029M17.5855 41.7487H17.6029M17.6029 41.7487H17.6203M17.6029 41.7487H17.6203M17.6203 41.7487H17.6376M17.6203 41.7487H17.6376M17.6376 41.7487H17.655M17.6376 41.7487H17.655M17.655 41.7487H17.6724M17.655 41.7487H17.6724M17.6724 41.7487H17.6898M17.6724 41.7487H17.6898M17.6898 41.7487H17.7071M17.6898 41.7487H17.7071M17.7071 41.7487H17.7245M17.7071 41.7487H17.7245M17.7245 41.7487H17.7419M17.7245 41.7487H17.7419M17.7419 41.7487H17.7593M17.7419 41.7487H17.7593M17.7593 41.7487H17.7766M17.7593 41.7487H17.7766M17.7766 41.7487H17.794M17.7766 41.7487H17.794M17.794 41.7487H17.8114M17.794 41.7487H17.8114M17.8114 41.7487H17.8287M17.8114 41.7487H17.8287M17.8287 41.7487H17.8461M17.8287 41.7487H17.8461M17.8461 41.7487H17.8635M17.8461 41.7487H17.8635M17.8635 41.7487H17.8809M17.8635 41.7487H17.8809M17.8809 41.7487H17.8982M17.8809 41.7487H17.8982M17.8982 41.7487H17.9156M17.8982 41.7487H17.9156M17.9156 41.7487H17.933M17.9156 41.7487H17.933M17.933 41.7487H17.9504M17.933 41.7487H17.9504M17.9504 41.7487H17.9677M17.9504 41.7487H17.9677M17.9677 41.7487H17.9851M17.9677 41.7487H17.9851M17.9851 41.7487H18.0025M17.9851 41.7487H18.0025M18.0025 41.7487H18.0199M18.0025 41.7487H18.0199M18.0199 41.7487H18.0372M18.0199 41.7487H18.0372M18.0372 41.7487H18.0546M18.0372 41.7487H18.0546M18.0546 41.7487H18.072M18.0546 41.7487H18.072M18.072 41.7487H18.0894M18.072 41.7487H18.0894M18.0894 41.7487H18.1067M18.0894 41.7487H18.1067M18.1067 41.7487H18.1241M18.1067 41.7487H18.1241M18.1241 41.7487H18.1415M18.1241 41.7487H18.1415M18.1415 41.7487H18.1588M18.1415 41.7487H18.1588M18.1588 41.7487H18.1762M18.1588 41.7487H18.1762M18.1762 41.7487H18.1936M18.1762 41.7487H18.1936M18.1936 41.7487H18.211M18.1936 41.7487H18.211M18.211 41.7487H18.2283M18.211 41.7487H18.2283M18.2283 41.7487H18.2457M18.2283 41.7487H18.2457M18.2457 41.7487H18.2631M18.2457 41.7487H18.2631M18.2631 41.7487H18.2805M18.2631 41.7487H18.2805M18.2805 41.7487H18.2978M18.2805 41.7487H18.2978M18.2978 41.7487H18.3152M18.2978 41.7487H18.3152M18.3152 41.7487H18.3326M18.3152 41.7487H18.3326M18.3326 41.7487H18.35M18.3326 41.7487H18.35M18.35 41.7487H18.3673M18.35 41.7487H18.3673M18.3673 41.7487H18.3847M18.3673 41.7487H18.3847M18.3847 41.7487H18.4021M18.3847 41.7487H18.4021M18.4021 41.7487H18.4195M18.4021 41.7487H18.4195M18.4195 41.7487H18.4368M18.4195 41.7487H18.4368M18.4368 41.7487H18.4542M18.4368 41.7487H18.4542M18.4542 41.7487H18.4716M18.4542 41.7487H18.4716M18.4716 41.7487H18.489M18.4716 41.7487H18.489M18.489 41.7487H18.5063M18.489 41.7487H18.5063M18.5063 41.7487H18.5237M18.5063 41.7487H18.5237M18.5237 41.7487H18.5411M18.5237 41.7487H18.5411M18.5411 41.7487H18.5584M18.5411 41.7487H18.5584M18.5584 41.7487H18.5758M18.5584 41.7487H18.5758M18.5758 41.7487H18.5932M18.5758 41.7487H18.5932M18.5932 41.7487H18.6106M18.5932 41.7487H18.6106M18.6106 41.7487H18.6279M18.6106 41.7487H18.6279M18.6279 41.7487H18.6453M18.6279 41.7487H18.6453M18.6453 41.7487H18.6627M18.6453 41.7487H18.6627M18.6627 41.7487H18.6801M18.6627 41.7487H18.6801M18.6801 41.7487H18.6974M18.6801 41.7487H18.6974M18.6974 41.7487H18.7148M18.6974 41.7487H18.7148M18.7148 41.7487H18.7322M18.7148 41.7487H18.7322M18.7322 41.7487H18.7496M18.7322 41.7487H18.7496M18.7496 41.7487H18.7669M18.7496 41.7487H18.7669M18.7669 41.7487H18.7843M18.7669 41.7487H18.7843M18.7843 41.7487H18.8017M18.7843 41.7487H18.8017M18.8017 41.7487H18.8191M18.8017 41.7487H18.8191M18.8191 41.7487H18.8364M18.8191 41.7487H18.8364M18.8364 41.7487H18.8538M18.8364 41.7487H18.8538M18.8538 41.7487H18.8712M18.8538 41.7487H18.8712M18.8712 41.7487H18.8886M18.8712 41.7487H18.8886M18.8886 41.7487H18.9059M18.8886 41.7487H18.9059M18.9059 41.7487H18.9233M18.9059 41.7487H18.9233M18.9233 41.7487H18.9407M18.9233 41.7487H18.9407M18.9407 41.7487H18.958M18.9407 41.7487H18.958M18.958 41.7487H18.9754M18.958 41.7487H18.9754M18.9754 41.7487H18.9928M18.9754 41.7487H18.9928M18.9928 41.7487H19.0102M18.9928 41.7487H19.0102M19.0102 41.7487H19.0275M19.0102 41.7487H19.0275M19.0275 41.7487H19.0449M19.0275 41.7487H19.0449M19.0449 41.7487H19.0623M19.0449 41.7487H19.0623M19.0623 41.7487H19.0797M19.0623 41.7487H19.0797M19.0797 41.7487H19.097M19.0797 41.7487H19.097M19.097 41.7487H19.1144M19.097 41.7487H19.1144M19.1144 41.7487H19.1318M19.1144 41.7487H19.1318M19.1318 41.7487H19.1492M19.1318 41.7487H19.1492M19.1492 41.7487H19.1665M19.1492 41.7487H19.1665M19.1665 41.7487H19.1839M19.1665 41.7487H19.1839M19.1839 41.7487H19.2013M19.1839 41.7487H19.2013M19.2013 41.7487H19.2187M19.2013 41.7487H19.2187M19.2187 41.7487H19.236M19.2187 41.7487H19.236M19.236 41.7487H19.2534M19.236 41.7487H19.2534M19.2534 41.7487H19.2708M19.2534 41.7487H19.2708M19.2708 41.7487H19.2881M19.2708 41.7487H19.2881M19.2881 41.7487H19.3055M19.2881 41.7487H19.3055M19.3055 41.7487H19.3229M19.3055 41.7487H19.3229M19.3229 41.7487H19.3403M19.3229 41.7487H19.3403M19.3403 41.7487H19.3576M19.3403 41.7487H19.3576M19.3576 41.7487H19.375M19.3576 41.7487H19.375M19.375 41.7487H19.3924M19.375 41.7487H19.3924M19.3924 41.7487H19.4098M19.3924 41.7487H19.4098M19.4098 41.7487H19.4271M19.4098 41.7487H19.4271M19.4271 41.7487H19.4445M19.4271 41.7487H19.4445M19.4445 41.7487H19.4619M19.4445 41.7487H19.4619M19.4619 41.7487H19.4793M19.4619 41.7487H19.4793M19.4793 41.7487H19.4966M19.4793 41.7487H19.4966M19.4966 41.7487H19.514M19.4966 41.7487H19.514M19.514 41.7487H19.5314M19.514 41.7487H19.5314M19.5314 41.7487H19.5488M19.5314 41.7487H19.5488M19.5488 41.7487H19.5661M19.5488 41.7487H19.5661M19.5661 41.7487H19.5835M19.5661 41.7487H19.5835M19.5835 41.7487H19.6009M19.5835 41.7487H19.6009M19.6009 41.7487H19.6183M19.6009 41.7487H19.6183M19.6183 41.7487H19.6356M19.6183 41.7487H19.6356M19.6356 41.7487H19.653M19.6356 41.7487H19.653M19.653 41.7487H19.6704M19.653 41.7487H19.6704M19.6704 41.7487H19.6877M19.6704 41.7487H19.6877M19.6877 41.7487H19.7051M19.6877 41.7487H19.7051M19.7051 41.7487H19.7225M19.7051 41.7487H19.7225M19.7225 41.7487H19.7399M19.7225 41.7487H19.7399M19.7399 41.7487H19.7572M19.7399 41.7487H19.7572M19.7572 41.7487H19.7746M19.7572 41.7487H19.7746M19.7746 41.7487H19.792M19.7746 41.7487H19.792M19.792 41.7487H19.8094M19.792 41.7487H19.8094M19.8094 41.7487H19.8267M19.8094 41.7487H19.8267M19.8267 41.7487H19.8441M19.8267 41.7487H19.8441M19.8441 41.7487H19.8615M19.8441 41.7487H19.8615M19.8615 41.7487H19.8789M19.8615 41.7487H19.8789M19.8789 41.7487H19.8962M19.8789 41.7487H19.8962M19.8962 41.7487H19.9136M19.8962 41.7487H19.9136M19.9136 41.7487H19.931M19.9136 41.7487H19.931M19.931 41.7487H19.9484M19.931 41.7487H19.9484M19.9484 41.7487H19.9657M19.9484 41.7487H19.9657M19.9657 41.7487H19.9831M19.9657 41.7487H19.9831M19.9831 41.7487H20.0005M19.9831 41.7487H20.0005M20.0005 41.7487H20.0178M20.0005 41.7487H20.0178M20.0178 41.7487H20.0352M20.0178 41.7487H20.0352M20.0352 41.7487H20.0526M20.0352 41.7487H20.0526M20.0526 41.7487H20.07M20.0526 41.7487H20.07M20.07 41.7487H20.0873M20.07 41.7487H20.0873M20.0873 41.7487H20.1047M20.0873 41.7487H20.1047M20.1047 41.7487H20.1221M20.1047 41.7487H20.1221M20.1221 41.7487H20.1395M20.1221 41.7487H20.1395M20.1395 41.7487H20.1568M20.1395 41.7487H20.1568M20.1568 41.7487H20.1742M20.1568 41.7487H20.1742M20.1742 41.7487H20.1916M20.1742 41.7487H20.1916M20.1916 41.7487H20.209M20.1916 41.7487H20.209M20.209 41.7487H20.2263M20.209 41.7487H20.2263M20.2263 41.7487H20.2437M20.2263 41.7487H20.2437M20.2437 41.7487H20.2611M20.2437 41.7487H20.2611M20.2611 41.7487H20.2785M20.2611 41.7487H20.2785M20.2785 41.7487H20.2958M20.2785 41.7487H20.2958M20.2958 41.7487H20.3132M20.2958 41.7487H20.3132M20.3132 41.7487H20.3306M20.3132 41.7487H20.3306M20.3306 41.7487H20.348M20.3306 41.7487H20.348M20.348 41.7487H20.3653M20.348 41.7487H20.3653M20.3653 41.7487H20.3827M20.3653 41.7487H20.3827M20.3827 41.7487H20.4001M20.3827 41.7487H20.4001M20.4001 41.7487H20.4174M20.4001 41.7487H20.4174M20.4174 41.7487H20.4348M20.4174 41.7487H20.4348M20.4348 41.7487H20.4522M20.4348 41.7487H20.4522M20.4522 41.7487H20.4696M20.4522 41.7487H20.4696M20.4696 41.7487H20.4869M20.4696 41.7487H20.4869M20.4869 41.7487H20.5043M20.4869 41.7487H20.5043M20.5043 41.7487H20.5217M20.5043 41.7487H20.5217M20.5217 41.7487H20.5391M20.5217 41.7487H20.5391M20.5391 41.7487H20.5564M20.5391 41.7487H20.5564M20.5564 41.7487H20.5738M20.5564 41.7487H20.5738M20.5738 41.7487H20.5912M20.5738 41.7487H20.5912M20.5912 41.7487H20.6086M20.5912 41.7487H20.6086M20.6086 41.7487H20.6259M20.6086 41.7487H20.6259M20.6259 41.7487H20.6433M20.6259 41.7487H20.6433M20.6433 41.7487H20.6607M20.6433 41.7487H20.6607M20.6607 41.7487H20.6781M20.6607 41.7487H20.6781M20.6781 41.7487H20.6954M20.6781 41.7487H20.6954M20.6954 41.7487H20.7128M20.6954 41.7487H20.7128M20.7128 41.7487H20.7302M20.7128 41.7487H20.7302M20.7302 41.7487H20.7475M20.7302 41.7487H20.7475M20.7475 41.7487H20.7649M20.7475 41.7487H20.7649M20.7649 41.7487H20.7823M20.7649 41.7487H20.7823M20.7823 41.7487H20.7997M20.7823 41.7487H20.7997M20.7997 41.7487H20.817M20.7997 41.7487H20.817M20.817 41.7487H20.8344M20.817 41.7487H20.8344M20.8344 41.7487H20.8518M20.8344 41.7487H20.8518M20.8518 41.7487H20.8692M20.8518 41.7487H20.8692M20.8692 41.7487H20.8865M20.8692 41.7487H20.8865M20.8865 41.7487H20.9039M20.8865 41.7487H20.9039M20.9039 41.7487H20.9213M20.9039 41.7487H20.9213M20.9213 41.7487H20.9387M20.9213 41.7487H20.9387M20.9387 41.7487H20.956M20.9387 41.7487H20.956M20.956 41.7487H20.9734M20.956 41.7487H20.9734M20.9734 41.7487H20.9908M20.9734 41.7487H20.9908M20.9908 41.7487H21.0082M20.9908 41.7487H21.0082M21.0082 41.7487H21.0255M21.0082 41.7487H21.0255M21.0255 41.7487H21.0429M21.0255 41.7487H21.0429M21.0429 41.7487H21.0603M21.0429 41.7487H21.0603M21.0603 41.7487H21.0777M21.0603 41.7487H21.0777M21.0777 41.7487H21.095M21.0777 41.7487H21.095M21.095 41.7487H21.1124M21.095 41.7487H21.1124M21.1124 41.7487H21.1298M21.1124 41.7487H21.1298M21.1298 41.7487H21.1471M21.1298 41.7487H21.1471M21.1471 41.7487H21.1645M21.1471 41.7487H21.1645M21.1645 41.7487H21.1819M21.1645 41.7487H21.1819M21.1819 41.7487H21.1993M21.1819 41.7487H21.1993M21.1993 41.7487H21.2166M21.1993 41.7487H21.2166M21.2166 41.7487H21.234M21.2166 41.7487H21.234M21.234 41.7487H21.2514M21.234 41.7487H21.2514M21.2514 41.7487H21.2688M21.2514 41.7487H21.2688M21.2688 41.7487H21.2861M21.2688 41.7487H21.2861M21.2861 41.7487H21.3035M21.2861 41.7487H21.3035M21.3035 41.7487H21.3209M21.3035 41.7487H21.3209M21.3209 41.7487H21.3383M21.3209 41.7487H21.3383M21.3383 41.7487H21.3556M21.3383 41.7487H21.3556M21.3556 41.7487H21.373M21.3556 41.7487H21.373M21.373 41.7487H21.3904M21.373 41.7487H21.3904M21.3904 41.7487H21.4078M21.3904 41.7487H21.4078M21.4078 41.7487H21.4251M21.4078 41.7487H21.4251M21.4251 41.7487H21.4425M21.4251 41.7487H21.4425M21.4425 41.7487H21.4599M21.4425 41.7487H21.4599M21.4599 41.7487H21.4773M21.4599 41.7487H21.4773M21.4773 41.7487H21.4946M21.4773 41.7487H21.4946M21.4946 41.7487H21.512M21.4946 41.7487H21.512M21.512 41.7487H21.5294M21.512 41.7487H21.5294M21.5294 41.7487H21.5467M21.5294 41.7487H21.5467M21.5467 41.7487H21.5641M21.5467 41.7487H21.5641M21.5641 41.7487H21.5815M21.5641 41.7487H21.5815M21.5815 41.7487H21.5989M21.5815 41.7487H21.5989M21.5989 41.7487H21.6162M21.5989 41.7487H21.6162M21.6162 41.7487H21.6336M21.6162 41.7487H21.6336M21.6336 41.7487H21.651M21.6336 41.7487H21.651M21.651 41.7487H21.6684M21.651 41.7487H21.6684M21.6684 41.7487H21.6857M21.6684 41.7487H21.6857M21.6857 41.7487H21.7031M21.6857 41.7487H21.7031M21.7031 41.7487H21.7205M21.7031 41.7487H21.7205M21.7205 41.7487H21.7379M21.7205 41.7487H21.7379M21.7379 41.7487H21.7552M21.7379 41.7487H21.7552M21.7552 41.7487H21.7726M21.7552 41.7487H21.7726M21.7726 41.7487H21.79M21.7726 41.7487H21.79M21.79 41.7487H21.8074M21.79 41.7487H21.8074M21.8074 41.7487H21.8247M21.8074 41.7487H21.8247M21.8247 41.7487H21.8421M21.8247 41.7487H21.8421M21.8421 41.7487H21.8595M21.8421 41.7487H21.8595M21.8595 41.7487H21.8768M21.8595 41.7487H21.8768M21.8768 41.7487H21.8942H21.8768Z" fill="#704332" stroke="#704332" stroke-width="0.4"/>
<path d="M24.9499 10.8735L24.949 10.8735C23.7478 10.8781 22.5488 10.8759 21.3509 10.8737C20.6671 10.8724 19.9836 10.8711 19.3002 10.8711H13.7319C13.4168 10.8711 13.0916 10.8337 12.8357 10.6719C12.5639 10.4999 12.405 10.2113 12.379 9.79324L12.5786 9.78085L12.3791 9.79397C12.3544 9.41812 12.422 9.09114 12.6465 8.85776C12.8684 8.62714 13.204 8.52974 13.617 8.51697L24.9499 10.8735ZM24.9499 10.8735C25.3968 10.8697 25.7628 10.7671 26.0014 10.5211C26.2441 10.2709 26.3123 9.91706 26.2639 9.51106C26.2124 9.08004 26.0181 8.81161 25.7273 8.66641C25.4584 8.53213 25.1304 8.51687 24.8397 8.51687H24.8227H24.8057H24.7888H24.7718H24.7548H24.7379H24.7209H24.7039H24.687H24.67H24.6531H24.6361H24.6191H24.6022H24.5852H24.5682H24.5513H24.5343H24.5173H24.5004H24.4834H24.4665H24.4495H24.4325H24.4156H24.3986H24.3816H24.3647H24.3477H24.3307H24.3138H24.2968H24.2799H24.2629H24.2459H24.229H24.212H24.195H24.1781H24.1611H24.1441H24.1272H24.1102H24.0933H24.0763H24.0593H24.0424H24.0254H24.0084H23.9915H23.9745H23.9575H23.9406H23.9236H23.9066H23.8897H23.8727H23.8558H23.8388H23.8218H23.8049H23.7879H23.7709H23.754H23.737H23.72H23.7031H23.6861H23.6692H23.6522H23.6352H23.6183H23.6013H23.5843H23.5674H23.5504H23.5334H23.5165H23.4995H23.4826H23.4656H23.4486H23.4317H23.4147H23.3977H23.3808H23.3638H23.3468H23.3299H23.3129H23.2959H23.279H23.262H23.2451H23.2281H23.2111H23.1942H23.1772H23.1602H23.1433H23.1263H23.1093H23.0924H23.0754H23.0585H23.0415H23.0245H23.0076H22.9906H22.9736H22.9567H22.9397H22.9227H22.9058H22.8888H22.8719H22.8549H22.8379H22.821H22.804H22.787H22.7701H22.7531H22.7361H22.7192H22.7022H22.6852H22.6683H22.6513H22.6344H22.6174H22.6004H22.5835H22.5665H22.5495H22.5326H22.5156H22.4986H22.4817H22.4647H22.4478H22.4308H22.4138H22.3969H22.3799H22.3629H22.346H22.329H22.312H22.2951H22.2781H22.2612H22.2442H22.2272H22.2103H22.1933H22.1763H22.1594H22.1424H22.1254H22.1085H22.0915H22.0746H22.0576H22.0406H22.0237H22.0067H21.9897H21.9728H21.9558H21.9388H21.9219H21.9049H21.8879H21.871H21.854H21.8371H21.8201H21.8031H21.7862H21.7692H21.7522H21.7353H21.7183H21.7013H21.6844H21.6674H21.6505H21.6335H21.6165H21.5996H21.5826H21.5656H21.5487H21.5317H21.5147H21.4978H21.4808H21.4639H21.4469H21.4299H21.413H21.396H21.379H21.3621H21.3451H21.3281H21.3112H21.2942H21.2772H21.2603H21.2433H21.2264H21.2094H21.1924H21.1755H21.1585H21.1415H21.1246H21.1076H21.0906H21.0737H21.0567H21.0398H21.0228H21.0058H20.9889H20.9719H20.9549H20.938H20.921H20.904H20.8871H20.8701H20.8532H20.8362H20.8192H20.8023H20.7853H20.7683H20.7514H20.7344H20.7174H20.7005H20.6835H20.6665H20.6496H20.6326H20.6157H20.5987H20.5817H20.5648H20.5478H20.5308H20.5139H20.4969H20.4799H20.463H20.446H20.4291H20.4121H20.3951H20.3782H20.3612H20.3442H20.3273H20.3103H20.2933H20.2764H20.2594H20.2425H20.2255H20.2085H20.1916H20.1746H20.1576H20.1407H20.1237H20.1067H20.0898H20.0728H20.0559H20.0389H20.0219H20.005H19.988H19.971H19.9541H19.9371H19.9201H19.9032H19.8862H19.8692H19.8523H19.8353H19.8184H19.8014H19.7844H19.7675H19.7505H19.7335H19.7166H19.6996H19.6826H19.6657H19.6487H19.6318H19.6148H19.5978H19.5809H19.5639H19.5469H19.53H19.513H19.496H19.4791H19.4621H19.4452H19.4282H19.4112H19.3943H19.3773H19.3603H19.3434H19.3264H19.3094H19.2925H19.2755H19.2585H19.2416H19.2246H19.2077H19.1907H19.1737H19.1568H19.1398H19.1228H19.1059H19.0889H19.0719H19.055H19.038H19.0211H19.0041H18.9871H18.9702H18.9532H18.9362H18.9193H18.9023H18.8853H18.8684H18.8514H18.8345H18.8175H18.8005H18.7836H18.7666H18.7496H18.7327H18.7157H18.6987H18.6818H18.6648H18.6478H18.6309H18.6139H18.597H18.58H18.563H18.5461H18.5291H18.5121H18.4952H18.4782H18.4612H18.4443H18.4273H18.4104H18.3934H18.3764H18.3595H18.3425H18.3255H18.3086H18.2916H18.2746H18.2577H18.2407H18.2238H18.2068H18.1898H18.1729H18.1559H18.1389H18.122H18.105H18.088H18.0711H18.0541H18.0372H18.0202H18.0032H17.9863H17.9693H17.9523H17.9354H17.9184H17.9014H17.8845H17.8675H17.8505H17.8336H17.8166H17.7997H17.7827H17.7657H17.7488H17.7318H17.7148H17.6979H17.6809H17.6639H17.647H17.63H17.6131H17.5961H17.5791H17.5622H17.5452H17.5282H17.5113H17.4943H17.4773H17.4604H17.4434H17.4265H17.4095H17.3925H17.3756H17.3586H17.3416H17.3247H17.3077H17.2907H17.2738H17.2568H17.2398H17.2229H17.2059H17.189H17.172H17.155H17.1381H17.1211H17.1041H17.0872H17.0702H17.0532H17.0363H17.0193H17.0024H16.9854H16.9684H16.9515H16.9345H16.9175H16.9006H16.8836H16.8666H16.8497H16.8327H16.8158H16.7988H16.7818H16.7649H16.7479H16.7309H16.714H16.697H16.68H16.6631H16.6461H16.6291H16.6122H16.5952H16.5783H16.5613H16.5443H16.5274H16.5104H16.4934H16.4765H16.4595H16.4425H16.4256H16.4086H16.3917H16.3747H16.3577H16.3408H16.3238H16.3068H16.2899H16.2729H16.2559H16.239H16.222H16.2051H16.1881H16.1711H16.1542C15.8782 8.51687 15.5995 8.51396 15.3193 8.51103M24.9499 10.8735L15.3193 8.51103M15.3193 8.51103C14.7538 8.50512 14.1826 8.49915 13.6171 8.51697L15.3193 8.51103Z" fill="#704332" stroke="#704332" stroke-width="0.4"/>
<path d="M12.8609 21.4187L12.861 21.4192C12.9449 21.748 13.0975 21.9595 13.3115 22.0778C13.5136 22.1897 13.741 22.2 13.9277 22.2H22.1154C22.341 22.2 22.5933 22.1705 22.8009 22.0117C23.0137 21.8491 23.1396 21.5827 23.1851 21.1996C23.2306 20.8163 23.1729 20.4698 22.9936 20.213C22.8091 19.9487 22.516 19.8087 22.16 19.8087H22.152H22.144H22.1359H22.1279H22.1198H22.1118H22.1037H22.0957H22.0877H22.0796H22.0716H22.0635H22.0555H22.0474H22.0394H22.0314H22.0233H22.0153H22.0072H21.9992H21.9911H21.9831H21.975H21.967H21.959H21.9509H21.9429H21.9348H21.9268H21.9187H21.9107H21.9026H21.8946H21.8866H21.8785H21.8705H21.8624H21.8544H21.8463H21.8383H21.8302H21.8222H21.8142H21.8061H21.7981H21.79H21.782H21.7739H21.7659H21.7578H21.7498H21.7418H21.7337H21.7257H21.7176H21.7096H21.7015H21.6935H21.6854H21.6774H21.6694H21.6613H21.6533H21.6452H21.6372H21.6291H21.6211H21.613H21.605H21.5969H21.5889H21.5809H21.5728H21.5648H21.5567H21.5487H21.5406H21.5326H21.5245H21.5165H21.5084H21.5004H21.4923H21.4843H21.4763H21.4682H21.4602H21.4521H21.4441H21.436H21.428H21.4199H21.4119H21.4038H21.3958H21.3877H21.3797H21.3717H21.3636H21.3556H21.3475H21.3395H21.3314H21.3234H21.3153H21.3073H21.2992H21.2912H21.2831H21.2751H21.267H21.259H21.251H21.2429H21.2349H21.2268H21.2188H21.2107H21.2027H21.1946H21.1866H21.1785H21.1705H21.1624H21.1544H21.1463H21.1383H21.1302H21.1222H21.1142H21.1061H21.0981H21.09H21.082H21.0739H21.0659H21.0578H21.0498H21.0417H21.0337H21.0256H21.0176H21.0095H21.0015H20.9934H20.9854H20.9773H20.9693H20.9612H20.9532H20.9451H20.9371H20.929H20.921H20.913H20.9049H20.8969H20.8888H20.8808H20.8727H20.8647H20.8566H20.8486H20.8405H20.8325H20.8244H20.8164H20.8083H20.8003H20.7922H20.7842H20.7761H20.7681H20.76H20.752H20.7439H20.7359H20.7278H20.7198H20.7117H20.7037H20.6956H20.6876H20.6795H20.6715H20.6634H20.6554H20.6473H20.6393H20.6312H20.6232H20.6151H20.6071H20.599H20.591H20.583H20.5749H20.5669H20.5588H20.5508H20.5427H20.5347H20.5266H20.5186H20.5105H20.5025H20.4944H20.4864H20.4783H20.4703H20.4622H20.4542H20.4461H20.4381H20.43H20.422H20.4139H20.4059H20.3978H20.3898H20.3817H20.3737H20.3656H20.3576H20.3495H20.3415H20.3334H20.3254H20.3173H20.3093H20.3012H20.2932H20.2851H20.2771H20.269H20.261H20.2529H20.2449H20.2368H20.2288H20.2207H20.2127H20.2046H20.1966H20.1885H20.1805H20.1724H20.1644H20.1563H20.1483H20.1402H20.1321H20.1241H20.116H20.108H20.0999H20.0919H20.0838H20.0758H20.0677H20.0597H20.0516H20.0436H20.0355H20.0275H20.0194H20.0114H20.0033H19.9953H19.9872H19.9792H19.9711H19.9631H19.955H19.947H19.9389H19.9309H19.9228H19.9148H19.9067H19.8987H19.8906H19.8826H19.8745H19.8665H19.8584H19.8504H19.8423H19.8343H19.8262H19.8182H19.8101H19.8021H19.794H19.786H19.7779H19.7698H19.7618H19.7537H19.7457H19.7376H19.7296H19.7215H19.7135H19.7054H19.6974H19.6893H19.6813H19.6732H19.6652H19.6571H19.6491H19.641H19.633H19.6249H19.6169H19.6088H19.6008H19.5927H19.5847H19.5766H19.5686H19.5605H19.5525H19.5444H19.5363H19.5283H19.5202H19.5122H19.5041H19.4961H19.488H19.48H19.4719H19.4639H19.4558H19.4478H19.4397H19.4317H19.4236H19.4156H19.4075H19.3995H19.3914H19.3834H19.3753H19.3673H19.3592H19.3512H19.3431H19.335H19.327H19.3189H19.3109H19.3028H19.2948H19.2867H19.2787H19.2706H19.2626H19.2545H19.2465H19.2384H19.2304H19.2223H19.2143H19.2062H19.1982H19.1901H19.182H19.174H19.1659H19.1579H19.1498H19.1418H19.1337H19.1257H19.1176H19.1096H19.1015H19.0935H19.0854H19.0774H19.0693H19.0613H19.0532H19.0452H19.0371H19.029H19.021H19.0129H19.0049H18.9968H18.9888H18.9807H18.9727H18.9646H18.9566H18.9485H18.9405H18.9324H18.9244H18.9163H18.9083H18.9002H18.8922H18.8841H18.876H18.868H18.8599H18.8519H18.8438H18.8358H18.8277H18.8197H18.8116H18.8036H18.7955H18.7875H18.7794H18.7714H18.7633H18.7553H18.7472H18.7391H18.7311H18.723H18.715H18.7069H18.6989H18.6908H18.6828H18.6747H18.6667H18.6586H18.6506H18.6425H18.6345H18.6264H18.6183H18.6103H18.6022H18.5942H18.5861H18.5781H18.57H18.562H18.5539H18.5459H18.5378H18.5298H18.5217H18.5137H18.5056H18.4976H18.4895H18.4814H18.4734H18.4653H18.4573H18.4492H18.4412H18.4331H18.4251H18.417H18.409H18.4009H18.3929H18.3848H18.3768H18.3687H18.3606H18.3526H18.3445H18.3365H18.3284H18.3204H18.3123H18.3043H18.2962H18.2882H18.2801H18.2721H18.264H18.256H18.2479H18.2398H18.2318H18.2237H18.2157H18.2076H18.1996H18.1915H18.1835H18.1754H18.1674H18.1593H18.1513H18.1432H18.1352H18.1271H18.119H18.111H18.1029H18.0949H18.0868H18.0788H18.0707H18.0627H18.0546H18.0466H18.0385C17.5771 19.8087 17.1145 19.8065 16.6513 19.8044C15.723 19.8 14.7922 19.7956 13.8637 19.8087C13.4641 19.8092 13.1451 19.99 12.9636 20.2992C12.7865 20.6009 12.7548 20.9985 12.8609 21.4187Z" fill="#704332" stroke="#704332" stroke-width="0.4"/>
<path d="M12.8744 15.4278L12.8745 15.4283C12.978 15.7666 13.1642 15.9729 13.4062 16.0845C13.6339 16.1894 13.8909 16.2 14.1132 16.2H23.9385C24.2028 16.2 24.4878 16.1713 24.7228 16.0215C24.9698 15.8642 25.1257 15.598 25.1818 15.2042C25.2376 14.8124 25.1659 14.458 24.9489 14.1991C24.7308 13.9388 24.3945 13.8087 23.9921 13.8087H23.9824H23.9727H23.9631H23.9534H23.9438H23.9341H23.9245H23.9148H23.9052H23.8955H23.8859H23.8762H23.8666H23.8569H23.8473H23.8376H23.828H23.8183H23.8087H23.799H23.7894H23.7797H23.7701H23.7604H23.7507H23.7411H23.7314H23.7218H23.7121H23.7025H23.6928H23.6832H23.6735H23.6639H23.6542H23.6446H23.6349H23.6253H23.6156H23.606H23.5963H23.5866H23.577H23.5673H23.5577H23.548H23.5384H23.5287H23.5191H23.5094H23.4998H23.4901H23.4805H23.4708H23.4611H23.4515H23.4418H23.4322H23.4225H23.4129H23.4032H23.3936H23.3839H23.3743H23.3646H23.355H23.3453H23.3356H23.326H23.3163H23.3067H23.297H23.2874H23.2777H23.2681H23.2584H23.2487H23.2391H23.2294H23.2198H23.2101H23.2005H23.1908H23.1812H23.1715H23.1619H23.1522H23.1425H23.1329H23.1232H23.1136H23.1039H23.0943H23.0846H23.075H23.0653H23.0556H23.046H23.0363H23.0267H23.017H23.0074H22.9977H22.9881H22.9784H22.9687H22.9591H22.9494H22.9398H22.9301H22.9205H22.9108H22.9011H22.8915H22.8818H22.8722H22.8625H22.8529H22.8432H22.8335H22.8239H22.8142H22.8046H22.7949H22.7853H22.7756H22.766H22.7563H22.7466H22.737H22.7273H22.7177H22.708H22.6984H22.6887H22.679H22.6694H22.6597H22.6501H22.6404H22.6308H22.6211H22.6114H22.6018H22.5921H22.5825H22.5728H22.5631H22.5535H22.5438H22.5342H22.5245H22.5149H22.5052H22.4955H22.4859H22.4762H22.4666H22.4569H22.4473H22.4376H22.4279H22.4183H22.4086H22.399H22.3893H22.3796H22.37H22.3603H22.3507H22.341H22.3314H22.3217H22.312H22.3024H22.2927H22.2831H22.2734H22.2637H22.2541H22.2444H22.2348H22.2251H22.2154H22.2058H22.1961H22.1865H22.1768H22.1672H22.1575H22.1478H22.1382H22.1285H22.1189H22.1092H22.0995H22.0899H22.0802H22.0706H22.0609H22.0512H22.0416H22.0319H22.0223H22.0126H22.0029H21.9933H21.9836H21.974H21.9643H21.9546H21.945H21.9353H21.9257H21.916H21.9064H21.8967H21.887H21.8774H21.8677H21.8581H21.8484H21.8387H21.8291H21.8194H21.8098H21.8001H21.7904H21.7808H21.7711H21.7614H21.7518H21.7421H21.7325H21.7228H21.7131H21.7035H21.6938H21.6842H21.6745H21.6648H21.6552H21.6455H21.6359H21.6262H21.6165H21.6069H21.5972H21.5876H21.5779H21.5682H21.5586H21.5489H21.5393H21.5296H21.5199H21.5103H21.5006H21.491H21.4813H21.4716H21.462H21.4523H21.4426H21.433H21.4233H21.4137H21.404H21.3943H21.3847H21.375H21.3654H21.3557H21.346H21.3364H21.3267H21.3171H21.3074H21.2977H21.2881H21.2784H21.2687H21.2591H21.2494H21.2398H21.2301H21.2204H21.2108H21.2011H21.1915H21.1818H21.1721H21.1625H21.1528H21.1431H21.1335H21.1238H21.1142H21.1045H21.0948H21.0852H21.0755H21.0658H21.0562H21.0465H21.0369H21.0272H21.0175H21.0079H20.9982H20.9886H20.9789H20.9692H20.9596H20.9499H20.9402H20.9306H20.9209H20.9113H20.9016H20.8919H20.8823H20.8726H20.8629H20.8533H20.8436H20.834H20.8243H20.8146H20.805H20.7953H20.7856H20.776H20.7663H20.7567H20.747H20.7373H20.7277H20.718H20.7083H20.6987H20.689H20.6794H20.6697H20.66H20.6504H20.6407H20.631H20.6214H20.6117H20.6021H20.5924H20.5827H20.5731H20.5634H20.5537H20.5441H20.5344H20.5248H20.5151H20.5054H20.4958H20.4861H20.4764H20.4668H20.4571H20.4474H20.4378H20.4281H20.4185H20.4088H20.3991H20.3895H20.3798H20.3701H20.3605H20.3508H20.3412H20.3315H20.3218H20.3122H20.3025H20.2928H20.2832H20.2735H20.2638H20.2542H20.2445H20.2349H20.2252H20.2155H20.2059H20.1962H20.1865H20.1769H20.1672H20.1576H20.1479H20.1382H20.1286H20.1189H20.1092H20.0996H20.0899H20.0802H20.0706H20.0609H20.0513H20.0416H20.0319H20.0223H20.0126H20.0029H19.9933H19.9836H19.9739H19.9643H19.9546H19.945H19.9353H19.9256H19.916H19.9063H19.8966H19.887H19.8773H19.8676H19.858H19.8483H19.8387H19.829H19.8193H19.8097H19.8H19.7903H19.7807H19.771H19.7613H19.7517H19.742H19.7324H19.7227H19.713H19.7034H19.6937H19.684H19.6744H19.6647H19.655H19.6454H19.6357H19.6261H19.6164H19.6067H19.5971H19.5874H19.5777H19.5681H19.5584H19.5487H19.5391H19.5294H19.5197H19.5101H19.5004H19.4908H19.4811H19.4714H19.4618H19.4521H19.4424H19.4328H19.4231H19.4134H19.4038H19.3941H19.3845H19.3748H19.3651H19.3555H19.3458H19.3361H19.3265H19.3168H19.3071H19.2975H19.2878H19.2782H19.2685H19.2588H19.2492H19.2395H19.2298H19.2202H19.2105H19.2008H19.1912H19.1815H19.1718H19.1622H19.1525H19.1429H19.1332H19.1235H19.1139H19.1042H19.0945H19.0849H19.0752H19.0655H19.0559H19.0462C18.4918 13.8087 17.9363 13.8065 17.3802 13.8044C16.2665 13.8 15.1507 13.7956 14.0371 13.8087C13.5862 13.809 13.2169 13.977 12.9998 14.2853C12.7838 14.5919 12.7446 14.9998 12.8744 15.4278Z" fill="#704332" stroke="#704332" stroke-width="0.4"/>
<path d="M16.4301 28.2113L16.4305 28.2113C16.7228 28.2106 17.0165 28.2131 17.3113 28.2155C18.0811 28.222 18.8591 28.2284 19.6432 28.1801L19.6565 28.1793L19.6695 28.1767C19.8464 28.142 20.0076 28.05 20.143 27.9179C20.278 27.7861 20.3858 27.6161 20.4623 27.4245L20.4655 27.4166L20.4679 27.4085C20.5238 27.2247 20.4999 26.99 20.4554 26.7878C20.4092 26.5782 20.332 26.3647 20.2482 26.2069L20.2482 26.2069L20.2476 26.2057C20.1607 26.0447 20.0025 25.9702 19.8716 25.9341C19.7376 25.8971 19.5956 25.8898 19.4889 25.8898H19.4771H19.4653H19.4534H19.4416H19.4298H19.418H19.4062H19.3944H19.3826H19.3707H19.3589H19.3471H19.3353H19.3235H19.3117H19.2999H19.288H19.2762H19.2644H19.2526H19.2408H19.229H19.2172H19.2053H19.1935H19.1817H19.1699H19.1581H19.1463H19.1345H19.1226H19.1108H19.099H19.0872H19.0754H19.0636H19.0518H19.0399H19.0281H19.0163H19.0045H18.9927H18.9809H18.969H18.9572H18.9454H18.9336H18.9218H18.91H18.8981H18.8863H18.8745H18.8627H18.8509H18.8391H18.8272H18.8154H18.8036H18.7918H18.78H18.7682H18.7563H18.7445H18.7327H18.7209H18.7091H18.6973H18.6854H18.6736H18.6618H18.65H18.6382H18.6264H18.6145H18.6027H18.5909H18.5791H18.5673H18.5554H18.5436H18.5318H18.52H18.5082H18.4964H18.4845H18.4727H18.4609H18.4491H18.4373H18.4254H18.4136H18.4018H18.39H18.3782H18.3664H18.3545H18.3427H18.3309H18.3191H18.3073H18.2954H18.2836H18.2718H18.26H18.2482H18.2363H18.2245H18.2127H18.2009H18.1891H18.1773H18.1654H18.1536H18.1418H18.13H18.1182H18.1063H18.0945H18.0827H18.0709H18.0591H18.0472H18.0354H18.0236H18.0118H18H17.9881H17.9763H17.9645H17.9527H17.9409H17.929H17.9172H17.9054H17.8936H17.8818H17.8699H17.8581H17.8463H17.8345H17.8227H17.8108H17.799H17.7872H17.7754H17.7636H17.7517H17.7399H17.7281H17.7163H17.7045H17.6926H17.6808H17.669H17.6572H17.6453H17.6335H17.6217H17.6099H17.5981H17.5862H17.5744H17.5626H17.5508H17.539H17.5271H17.5153H17.5035H17.4917H17.4799H17.468H17.4562H17.4444H17.4326H17.4207H17.4089H17.3971H17.3853H17.3735H17.3616H17.3498H17.338H17.3262H17.3143H17.3025H17.2907H17.2789H17.2671H17.2552H17.2434H17.2316H17.2198H17.208H17.1961H17.1843H17.1725H17.1607H17.1488H17.137H17.1252H17.1134H17.1016H17.0897H17.0779H17.0661H17.0543H17.0424H17.0306H17.0188H17.007H16.9952H16.9833H16.9715H16.9597H16.9479H16.936H16.9242H16.9124H16.9006H16.8888H16.8769H16.8651H16.8533H16.8415H16.8296H16.8178H16.806H16.7942H16.7824H16.7705H16.7587H16.7469H16.7351H16.7232H16.7114H16.6996H16.6878H16.676H16.6641H16.6523H16.6405H16.6287H16.6168H16.605H16.5932H16.5814H16.5696H16.5577H16.5459H16.5341H16.5223H16.5104H16.4986H16.4868H16.475H16.4632H16.4513H16.4395H16.4277H16.4159H16.404H16.3922H16.3804H16.3686H16.3568H16.3449H16.3331H16.3213H16.3095H16.2976H16.2858H16.274H16.2622H16.2504H16.2385H16.2267H16.2149H16.2031H16.1912H16.1794H16.1676H16.1558H16.144H16.1321H16.1203H16.1085H16.0967H16.0848H16.073H16.0612H16.0494H16.0376H16.0257H16.0139H16.0021H15.9903H15.9784H15.9666H15.9548H15.943H15.9312H15.9193H15.9075H15.8957H15.8839H15.872H15.8602H15.8484H15.8366H15.8248H15.8129H15.8011H15.7893H15.7775H15.7656H15.7538H15.742H15.7302H15.7184H15.7065H15.6947H15.6829H15.6711H15.6593H15.6474H15.6356H15.6238H15.612H15.6001H15.5883H15.5765H15.5647H15.5529H15.541H15.5292H15.5174H15.5056H15.4937H15.4819H15.4701H15.4583H15.4465H15.4346H15.4228H15.411H15.3992H15.3874H15.3755H15.3637H15.3519H15.3401H15.3283H15.3164H15.3046H15.2928H15.281H15.2691H15.2573H15.2455H15.2337H15.2219H15.21H15.1982H15.1864H15.1746H15.1628H15.1509H15.1391H15.1273H15.1155H15.1037H15.0918H15.08H15.0682H15.0564H15.0446H15.0327H15.0209H15.0091H14.9973H14.9855H14.9736H14.9618H14.95H14.9382H14.9264H14.9145H14.9027H14.8909H14.8791H14.8673H14.8554H14.8436H14.8318H14.82H14.8082H14.7963H14.7845H14.7727H14.7609H14.7491H14.7372H14.7254H14.7136H14.7018H14.69H14.6781H14.6663H14.6545H14.6427H14.6309H14.6191H14.6072H14.5954H14.5836H14.5718H14.56H14.5481H14.5363H14.5245H14.5127H14.5009H14.489H14.4772H14.4654H14.4536H14.4418H14.43H14.4181H14.4063H14.3945H14.3827H14.3709H14.359H14.3472H14.3354H14.3236H14.3118H14.3H14.2881H14.2763H14.2645H14.2527H14.2409H14.2291H14.2172H14.2054H14.1936H14.1818H14.17H14.1582H14.1463H14.1345H14.1227H14.1109H14.0991H14.0873H14.0754H14.0636H14.0518H14.04H14.0282H14.0164H14.0045H13.9927H13.9809H13.9691H13.9573H13.9455H13.9336H13.9218H13.91H13.8982H13.8864H13.8746H13.8627H13.8509H13.8391H13.8273H13.8155H13.8037H13.7919H13.78H13.7682H13.7564H13.7446H13.7328H13.721H13.7092H13.6973H13.6855H13.6737H13.6619H13.6501H13.6383H13.6265H13.6146H13.6028H13.591H13.5792H13.5674H13.5556H13.5438H13.5319H13.5201H13.5083H13.4965H13.4847H13.4729H13.4611H13.4493H13.4374C13.0992 25.8898 12.8186 25.9933 12.6292 26.2193C12.4449 26.4392 12.3751 26.7421 12.3804 27.0832C12.3855 27.4211 12.4577 27.7114 12.6431 27.9169C12.8329 28.1274 13.1065 28.2113 13.4278 28.2113H13.4336H13.4395H13.4453H13.4512H13.4571H13.4629H13.4688H13.4747H13.4805H13.4864H13.4923H13.4981H13.504H13.5098H13.5157H13.5216H13.5274H13.5333H13.5392H13.545H13.5509H13.5568H13.5626H13.5685H13.5744H13.5802H13.5861H13.5919H13.5978H13.6037H13.6095H13.6154H13.6213H13.6271H13.633H13.6389H13.6447H13.6506H13.6564H13.6623H13.6682H13.674H13.6799H13.6858H13.6916H13.6975H13.7034H13.7092H13.7151H13.7209H13.7268H13.7327H13.7385H13.7444H13.7503H13.7561H13.762H13.7679H13.7737H13.7796H13.7855H13.7913H13.7972H13.803H13.8089H13.8148H13.8206H13.8265H13.8324H13.8382H13.8441H13.85H13.8558H13.8617H13.8675H13.8734H13.8793H13.8851H13.891H13.8969H13.9027H13.9086H13.9145H13.9203H13.9262H13.932H13.9379H13.9438H13.9496H13.9555H13.9614H13.9672H13.9731H13.979H13.9848H13.9907H13.9966H14.0024H14.0083H14.0141H14.02H14.0259H14.0317H14.0376H14.0435H14.0493H14.0552H14.0611H14.0669H14.0728H14.0786H14.0845H14.0904H14.0962H14.1021H14.108H14.1138H14.1197H14.1256H14.1314H14.1373H14.1431H14.149H14.1549H14.1607H14.1666H14.1725H14.1783H14.1842H14.1901H14.1959H14.2018H14.2077H14.2135H14.2194H14.2252H14.2311H14.237H14.2428H14.2487H14.2546H14.2604H14.2663H14.2722H14.278H14.2839H14.2897H14.2956H14.3015H14.3073H14.3132H14.3191H14.3249H14.3308H14.3367H14.3425H14.3484H14.3542H14.3601H14.366H14.3718H14.3777H14.3836H14.3894H14.3953H14.4012H14.407H14.4129H14.4188H14.4246H14.4305H14.4363H14.4422H14.4481H14.4539H14.4598H14.4657H14.4715H14.4774H14.4833H14.4891H14.495H14.5008H14.5067H14.5126H14.5184H14.5243H14.5302H14.536H14.5419H14.5478H14.5536H14.5595H14.5653H14.5712H14.5771H14.5829H14.5888H14.5947H14.6005H14.6064H14.6123H14.6181H14.624H14.6299H14.6357H14.6416H14.6474H14.6533H14.6592H14.665H14.6709H14.6768H14.6826H14.6885H14.6944H14.7002H14.7061H14.7119H14.7178H14.7237H14.7295H14.7354H14.7413H14.7471H14.753H14.7589H14.7647H14.7706H14.7764H14.7823H14.7882H14.794H14.7999H14.8058H14.8116H14.8175H14.8234H14.8292H14.8351H14.841H14.8468H14.8527H14.8585H14.8644H14.8703H14.8761H14.882H14.8879H14.8937H14.8996H14.9055H14.9113H14.9172H14.923H14.9289H14.9348H14.9406H14.9465H14.9524H14.9582H14.9641H14.97H14.9758H14.9817H14.9875H14.9934H14.9993H15.0051H15.011H15.0169H15.0227H15.0286H15.0345H15.0403H15.0462H15.0521H15.0579H15.0638H15.0696H15.0755H15.0814H15.0872H15.0931H15.099H15.1048H15.1107H15.1166H15.1224H15.1283H15.1341H15.14H15.1459H15.1517H15.1576H15.1635H15.1693H15.1752H15.1811H15.1869H15.1928H15.1986H15.2045H15.2104H15.2162H15.2221H15.228H15.2338H15.2397H15.2456H15.2514H15.2573H15.2632H15.269H15.2749H15.2807H15.2866H15.2925H15.2983H15.3042H15.3101H15.3159H15.3218H15.3277H15.3335H15.3394H15.3452H15.3511H15.357H15.3628H15.3687H15.3746H15.3804H15.3863H15.3922H15.398H15.4039H15.4097H15.4156H15.4215H15.4273H15.4332H15.4391H15.4449H15.4508H15.4567H15.4625H15.4684H15.4743H15.4801H15.486H15.4918H15.4977H15.5036H15.5094H15.5153H15.5212H15.527H15.5329H15.5388H15.5446H15.5505H15.5563H15.5622H15.5681H15.5739H15.5798H15.5857H15.5915H15.5974H15.6033H15.6091H15.615H15.6208H15.6267H15.6326H15.6384H15.6443H15.6502H15.656H15.6619H15.6678H15.6736H15.6795H15.6854H15.6912H15.6971H15.7029H15.7088H15.7147H15.7205H15.7264H15.7323H15.7381H15.744H15.7499H15.7557H15.7616H15.7674H15.7733H15.7792H15.785H15.7909H15.7968H15.8026H15.8085H15.8144H15.8202H15.8261H15.8319H15.8378H15.8437H15.8495H15.8554H15.8613H15.8671H15.873H15.8789H15.8847H15.8906H15.8965H15.9023H15.9082H15.914H15.9199H15.9258H15.9316H15.9375H15.9434H15.9492H15.9551H15.961H15.9668H15.9727H15.9785H15.9844H15.9903H15.9961H16.002H16.0079H16.0137H16.0196H16.0255H16.0313H16.0372H16.043H16.0489H16.0548H16.0606H16.0665H16.0724H16.0782H16.0841H16.09H16.0958H16.1017H16.1076H16.1134H16.1193H16.1251H16.131H16.1369H16.1427H16.1486H16.1545H16.1603H16.1662H16.1721H16.1779H16.1838H16.1896H16.1955H16.2014H16.2072H16.2131H16.219H16.2248H16.2307H16.2366H16.2424H16.2483H16.2541H16.26H16.2659H16.2717H16.2776H16.2835H16.2893H16.2952H16.3011H16.3069H16.3128H16.3187H16.3245H16.3304H16.3362H16.3421H16.348H16.3538H16.3597H16.3656H16.3714H16.3773H16.3832H16.389H16.3949H16.4007H16.4066H16.4125H16.4183H16.4242L16.4301 28.2113Z" fill="#704332" stroke="#704332" stroke-width="0.4"/>
<path d="M14.8498 31.8832C15.4309 31.8832 16.012 31.8832 16.5931 31.8832C16.9949 31.8832 17.1707 32.2091 17.1639 32.8703C17.157 33.5315 16.9927 33.8003 16.6056 33.8026C15.432 33.8137 14.2588 33.8137 13.086 33.8026C12.7264 33.8026 12.586 33.5172 12.5802 32.8513C12.5745 32.1853 12.7115 31.8999 13.0746 31.8809C13.6659 31.8832 14.2584 31.8832 14.8498 31.8832Z" fill="#704332"/>
<path d="M10.8507 9.68187C10.8574 9.52533 10.8312 9.36908 10.7736 9.22324C10.7145 9.07331 10.6236 8.93794 10.5073 8.82636C10.391 8.71479 10.252 8.62965 10.0997 8.57678C9.95168 8.52538 9.79456 8.50564 9.63852 8.5188C9.48676 8.51486 9.33576 8.54223 9.19497 8.59928C9.05002 8.65801 8.9192 8.74684 8.81115 8.8599C8.70309 8.97297 8.62028 9.10769 8.56818 9.25515C8.51753 9.39851 8.49703 9.55075 8.50792 9.70232C8.50243 9.85938 8.52987 10.0159 8.58854 10.1618C8.64881 10.3117 8.74064 10.447 8.85779 10.5583C8.97494 10.6696 9.11466 10.7544 9.26747 10.8069C9.41653 10.8581 9.57464 10.8775 9.73157 10.8638C9.88244 10.8654 10.0321 10.8363 10.1714 10.7781C10.3143 10.7183 10.4432 10.6293 10.5497 10.5168C10.6561 10.4042 10.7378 10.2706 10.7895 10.1245C10.8398 9.9826 10.8606 9.832 10.8507 9.68187Z" fill="#704332" stroke="#704332" stroke-width="0.4"/>
<path d="M10.8635 14.9285C10.8658 14.7777 10.8373 14.6279 10.7798 14.4883C10.7206 14.3448 10.6321 14.2153 10.5199 14.108C10.4076 14.0008 10.2742 13.9182 10.1282 13.8657C9.98576 13.8144 9.83444 13.7928 9.68347 13.8021C9.52716 13.7967 9.37143 13.8243 9.22637 13.883C9.07771 13.9432 8.94375 14.0346 8.8336 14.1512C8.72346 14.2678 8.6397 14.4067 8.58805 14.5585C8.53784 14.706 8.51909 14.8624 8.53294 15.0176C8.52968 15.1675 8.5569 15.3166 8.61303 15.4557C8.67083 15.5991 8.75802 15.7288 8.86897 15.8364C8.97992 15.944 9.11217 16.0272 9.25722 16.0806C9.39852 16.1326 9.54891 16.1553 9.69919 16.1472C9.85669 16.1542 10.0139 16.1279 10.1606 16.0698C10.311 16.0103 10.4467 15.9189 10.5584 15.802C10.67 15.685 10.755 15.5452 10.8075 15.3922C10.8586 15.2433 10.8777 15.0853 10.8635 14.9285Z" fill="#704332" stroke="#704332" stroke-width="0.4"/>
<path d="M8.81272 22.0561C9.01856 22.2868 9.30708 22.427 9.61554 22.4462C9.76668 22.4636 9.91981 22.4497 10.0654 22.4053C10.2129 22.3602 10.3495 22.2848 10.4662 22.1839C10.5829 22.0829 10.6773 21.9587 10.7432 21.8192C10.8073 21.6835 10.8431 21.5363 10.8485 21.3864C10.8705 21.2311 10.8597 21.0729 10.817 20.9218C10.7731 20.7668 10.6964 20.6229 10.5921 20.5C10.4878 20.3771 10.3584 20.278 10.2125 20.2094C10.068 20.1414 9.91074 20.105 9.75112 20.1024C9.44185 20.086 9.13852 20.1924 8.90731 20.3987C8.67498 20.6059 8.53449 20.8969 8.51675 21.2078C8.49901 21.5186 8.60548 21.8237 8.81272 22.0561Z" fill="#704332" stroke="#704332" stroke-width="0.4"/>
<path d="M10.7832 27.535C10.8415 27.3886 10.8682 27.2317 10.8618 27.0744C10.8713 26.9235 10.85 26.7722 10.799 26.6298C10.7467 26.4834 10.6642 26.3496 10.5569 26.237C10.4496 26.1245 10.3199 26.0357 10.1762 25.9764C10.0345 25.9179 9.88237 25.8894 9.72921 25.8925C9.4207 25.8817 9.12023 25.9929 8.89307 26.2022C8.66425 26.413 8.52855 26.706 8.51583 27.0169C8.5031 27.3278 8.61438 27.631 8.8252 27.8598C9.03466 28.0871 9.32533 28.2226 9.63397 28.2368C9.79296 28.252 9.95339 28.2331 10.1045 28.1814C10.2576 28.129 10.3975 28.044 10.5146 27.9325C10.6318 27.8209 10.7234 27.6853 10.7832 27.535Z" fill="#704332" stroke="#704332" stroke-width="0.4"/>
<path d="M9.66713 31.6944L9.63384 31.6972C9.60222 31.6986 9.57077 31.7012 9.53956 31.7051L9.48381 31.7098V31.7135C9.24906 31.7544 9.03075 31.8666 8.85999 32.0374C8.6415 32.2559 8.51875 32.5522 8.51875 32.8612C8.51875 33.1702 8.6415 33.4665 8.85999 33.685C9.07848 33.9035 9.37481 34.0263 9.68381 34.0263V34.0263L9.68872 34.0262C10.0138 34.0182 10.3018 33.9315 10.5132 33.7352C10.7247 33.5388 10.8321 33.2584 10.8483 32.9191C10.8675 32.7596 10.8514 32.5977 10.8011 32.445C10.75 32.2896 10.6647 32.1476 10.5516 32.0293C10.4384 31.9111 10.3003 31.8197 10.1473 31.7617C9.99424 31.7038 9.83019 31.6808 9.66713 31.6944Z" fill="#704332" stroke="#704332" stroke-width="0.4"/>
</svg>
