<svg width="40" height="28" viewBox="0 0 40 28" fill="none" xmlns="http://www.w3.org/2000/svg">
<path d="M15.6285 27.142H1.18419C0.364314 27.142 0 26.7784 0 25.9512V8.66184C0 7.81882 0.366298 7.44922 1.2027 7.44922H30.1237C30.892 7.44922 31.294 7.83866 31.294 8.59836C31.294 14.4049 31.294 20.2112 31.294 26.0173C31.294 26.7446 30.8973 27.1414 30.17 27.1414L15.6285 27.142ZM26.6551 9.4222H4.6217C4.57475 10.1455 4.33011 10.7664 3.82166 11.2735C3.31321 11.7807 2.69764 12.0266 1.97827 12.0669V22.5137C3.58033 22.7088 4.45838 23.6066 4.63757 25.175H26.6551C26.7734 23.6992 27.7599 22.6565 29.3177 22.5117V12.0888C27.9312 11.9711 26.8158 11.0811 26.6551 9.42352V9.4222Z" fill="#704332"/>
<path d="M9.6728 6.14904H7.72032C7.7137 6.02804 7.70312 5.92093 7.70312 5.81448C7.70312 4.26069 7.70312 2.7069 7.70312 1.15311C7.70577 0.380844 8.08727 0 8.86086 0H37.887C38.6143 0 39.0011 0.396712 39.0011 1.12799C39.0011 6.93541 39.0011 12.7424 39.0011 18.5489C39.0011 19.2987 38.6123 19.6888 37.8599 19.6895C36.2289 19.6895 34.598 19.6895 32.9671 19.6895H32.6153V17.7396H34.3562C34.5453 16.0153 35.6667 15.1749 37.0202 15.0599V4.6131C36.3107 4.5688 35.6912 4.32681 35.1847 3.81968C34.6782 3.31255 34.427 2.69566 34.3827 1.96835H12.3301C12.2845 2.66326 12.0504 3.30197 11.5367 3.8124C11.0229 4.32284 10.4127 4.57277 9.6728 4.60583V6.14904Z" fill="#704332"/>
<path d="M11.0418 6.16686C10.9446 5.86139 11.0015 5.69477 11.2904 5.57179C12.1933 5.18738 12.912 4.46781 13.2952 3.56442C13.3851 3.35946 13.4876 3.26887 13.7296 3.26953C20.1422 3.27703 26.5557 3.27703 32.9701 3.26953C33.2055 3.26953 33.3106 3.34557 33.4065 3.55847C33.827 4.49538 34.514 5.19028 35.4667 5.59757C35.6651 5.68287 35.7114 5.79593 35.7114 5.99429C35.7048 8.56145 35.7048 11.1288 35.7114 13.6965C35.7114 13.9034 35.6525 14.0046 35.4588 14.0872C34.5748 14.4654 33.9222 15.0988 33.4825 15.9518C33.2266 16.4477 33.2286 16.4483 32.5866 16.3749V16C32.5866 13.5206 32.5866 11.0413 32.5866 8.56234C32.5866 7.34707 31.8335 6.41612 30.6897 6.19992C30.5147 6.17292 30.3376 6.16229 30.1607 6.16818C23.968 6.16818 17.7749 6.16818 11.5814 6.16818L11.0418 6.16686Z" fill="#704332"/>
<path d="M15.64 23.8689C12.4443 23.8689 9.24856 23.8707 6.05282 23.8742C5.80819 23.8742 5.69049 23.8081 5.58999 23.5767C5.19207 22.6549 4.45139 21.9239 3.52445 21.5382C3.33865 21.4589 3.28906 21.3584 3.28906 21.1686C3.29479 18.5904 3.29479 16.0118 3.28906 13.4327C3.28906 13.2456 3.33006 13.1418 3.51916 13.0612C4.49507 12.6459 5.19328 11.9371 5.61512 10.9672C5.69512 10.7814 5.79298 10.7305 5.98274 10.7305C12.4289 10.7344 18.8748 10.7344 25.3205 10.7305C25.5188 10.7305 25.6028 10.8058 25.6802 10.9791C26.108 11.9464 26.8042 12.6525 27.7827 13.0678C27.956 13.1418 28.0023 13.2397 28.0023 13.4169C27.9974 16.0048 27.9974 18.5929 28.0023 21.1812C28.0023 21.3835 27.9289 21.4695 27.7543 21.5455C26.8183 21.9384 26.0741 22.6833 25.6821 23.6196C25.5883 23.8378 25.4633 23.8735 25.2563 23.8729C22.0518 23.868 18.8464 23.8667 15.64 23.8689ZM10.3902 16.6686C10.2421 16.9079 10.0887 17.1235 9.96837 17.3562C9.75746 17.7668 9.54852 18.1794 9.37331 18.6052C9.12602 19.2003 9.17032 19.8139 9.37727 20.4136C9.61662 21.1071 10.1403 21.5336 10.8676 21.4946C11.4366 21.463 11.9983 21.3517 12.5364 21.164C13.7299 20.7441 14.3058 19.88 14.202 18.6224C14.1239 17.6815 13.9421 16.7479 13.7742 15.817C13.6684 15.2285 13.5295 14.6553 13.8515 14.088C13.9176 13.9696 13.9289 13.8189 13.9653 13.6827L13.8681 13.76L12.8994 12.6691L12.2382 14.322C12.7817 14.2691 12.787 14.611 12.8333 14.9515C12.9827 16.0312 13.1117 17.1162 13.3246 18.1834C13.4568 18.8333 13.2379 19.2637 12.7189 19.5719C12.4207 19.7497 12.0954 19.9223 11.7602 19.9897C11.183 20.1061 10.6296 19.9659 10.2236 19.5117C9.85465 19.0985 10.0391 18.6356 10.2183 18.2065C10.3915 17.7933 10.6018 17.3966 10.8054 16.9721L10.3902 16.6686ZM19.627 19.4515C19.627 18.6045 19.6627 17.7906 19.6138 16.9827C19.584 16.4973 19.2243 16.1562 18.8693 15.811C18.7086 16.092 18.5869 16.34 18.4316 16.5654C18.2762 16.7909 18.2894 16.9384 18.4864 17.1301C18.7582 17.3946 18.946 17.7166 18.9605 18.1437C18.0302 18.1437 17.1092 18.1536 16.1882 18.1305C16.0784 18.1305 15.929 17.9672 15.8748 17.8455C15.8086 17.6914 15.7994 17.503 15.7981 17.3291C15.7908 16.4696 15.8027 15.61 15.7921 14.7505C15.7842 14.0986 15.5633 13.5227 15.1197 12.9891C14.9293 13.3673 14.7474 13.6946 14.6013 14.0377C14.5805 14.0975 14.5728 14.161 14.5787 14.224C14.5847 14.2869 14.6041 14.3479 14.6357 14.4027C14.8335 14.6687 14.9372 14.993 14.9306 15.3244C14.9174 16.2825 14.9154 17.2418 14.9306 18.1992C14.9445 18.9695 15.4456 19.4443 16.2133 19.4495C16.8851 19.4535 17.5568 19.4495 18.2286 19.4495L19.627 19.4515ZM17.4967 20.5927C18.1816 21.1217 18.8045 21.6043 19.5503 21.8999C19.8551 22.0209 20.1321 21.972 20.396 21.7921C21.0638 21.3375 21.6065 20.7223 21.9742 20.003C22.0396 19.8644 22.0735 19.7131 22.0734 19.56C22.0846 18.9537 22.0932 18.3473 22.0734 17.7417C22.0522 17.0309 21.717 16.4524 21.2476 15.8699C21.1715 16.2315 21.1266 16.535 21.0413 16.8273C20.9381 17.177 20.9804 17.4554 21.2079 17.7675C21.6767 18.4095 21.6139 19.068 21.0433 19.6095C20.66 19.9719 20.2426 20.2963 19.7969 20.5782C19.5516 20.7189 19.2716 20.7876 18.9889 20.7765C18.5208 20.7653 18.0547 20.6674 17.4967 20.5927ZM16.4685 21.523L17.2176 20.5438L16.251 19.792L15.7511 20.4076C15.5012 20.2192 15.2671 20.0439 15.0172 19.8568L14.2648 20.8314L15.2334 21.5812L15.7379 20.9643L16.4685 21.523Z" fill="#704332"/>
</svg>
