<svg width="34" height="34" viewBox="0 0 34 34" fill="none" xmlns="http://www.w3.org/2000/svg">
<path d="M0 33.2156C0.025874 32.9051 0.051748 32.5687 0.103496 32.2582C0.336362 30.0848 1.03496 28.0408 2.19929 26.1778C4.4762 22.5555 7.71045 20.2786 11.902 19.3471C12.523 19.2177 13.1699 19.166 13.7908 19.0625C13.8685 19.0625 13.9461 19.0625 14.0237 19.0625C12.7041 21.6758 12.4195 24.3925 13.1181 27.1869C13.7908 30.0072 15.3691 32.2324 17.7754 33.94C17.6461 33.94 17.5943 33.94 17.5167 33.94C11.7727 33.94 6.00276 33.94 0.25874 33.94C0.181118 33.94 0.103496 33.94 0.025874 33.9659C0 33.7072 0 33.4484 0 33.2156Z" fill="#704332"/>
<path d="M23.3125 8.35153C23.2866 10.0333 22.9502 11.4564 22.1481 12.776C22.0705 12.9054 21.9929 12.983 21.8377 13.0088C19.3279 13.5781 17.2321 14.8459 15.5244 16.7865C15.4727 16.8382 15.395 16.8899 15.3174 16.8899C13.4804 16.9417 11.7727 16.5018 10.2461 15.4928C8.0727 14.0179 6.72725 11.9998 6.39089 9.38649C6.0804 6.98021 6.80487 4.83267 8.35731 2.99562C9.65101 1.46905 11.3069 0.485842 13.2734 0.149481C16.0419 -0.342125 18.4999 0.382347 20.5957 2.27115C22.0964 3.64247 22.9761 5.37602 23.2607 7.3942C23.2866 7.7823 23.2866 8.14454 23.3125 8.35153Z" fill="#704332"/>
<path d="M18.6286 29.7742C18.4475 29.8259 18.2923 29.8518 18.137 29.8777C17.1279 30.0071 16.3776 29.619 15.7825 28.8427C15.0321 27.8337 14.7734 26.6952 15.1615 25.4791C15.3685 24.8581 15.7825 24.4442 16.4035 24.2372C16.4552 24.2113 16.507 24.1854 16.5587 24.1595C16.4035 24.0819 16.2741 24.0043 16.1447 23.9267C15.3168 23.4092 14.9286 22.6847 15.058 21.7015C15.1356 20.977 15.2909 20.2526 15.679 19.6057C16.0671 19.0106 16.5587 18.5449 17.2832 18.4155C17.6972 18.3379 18.1111 18.3638 18.4734 18.5708C18.5251 18.5966 18.6027 18.5966 18.7062 18.6225C18.6804 18.4673 18.6804 18.3638 18.6545 18.2344C18.4216 17.0701 18.8356 16.1645 19.8188 15.5176C20.5692 15.026 21.3971 14.7932 22.2769 14.7932C23.0531 14.7932 23.6223 15.1813 24.0622 15.8023C24.1657 15.9316 24.2174 16.1127 24.3209 16.268C24.3468 16.2939 24.3726 16.3456 24.4244 16.3715C24.502 16.2162 24.5796 16.0869 24.6573 15.9834C25.123 15.1813 25.7957 14.7414 26.7272 14.7932C27.3223 14.8449 27.9174 15.0002 28.4607 15.2848C29.0558 15.5953 29.4957 16.0351 29.7803 16.6302C30.039 17.1994 30.0908 17.7945 29.9097 18.4155C29.8838 18.4931 29.8838 18.5966 29.8579 18.7001C30.0908 18.6225 30.2978 18.5708 30.5048 18.519C31.5915 18.2603 32.3936 18.5708 33.0146 19.5022C33.532 20.3043 33.7649 21.184 33.7908 22.1414C33.8167 22.9435 33.4285 23.5386 32.7558 23.9526C32.6006 24.0561 32.4453 24.1337 32.2901 24.263C32.3677 24.3148 32.4453 24.3665 32.5229 24.4183C33.2733 24.8581 33.7908 25.4791 33.9719 26.3847C34.0495 26.7469 33.946 27.0833 33.8425 27.4197C33.6873 28.0406 33.4285 28.6099 32.9887 29.1015C32.316 29.8777 31.488 30.1364 30.5048 29.9294C30.3754 29.9036 30.2202 29.9036 30.0908 29.8777C30.1425 30.1623 30.2202 30.4469 30.2202 30.7057C30.2719 31.663 29.8321 32.3616 29.0558 32.8791C28.3831 33.3189 27.6328 33.5777 26.8565 33.6294C26.0286 33.6812 25.4076 33.3448 24.916 32.6721C24.7866 32.491 24.6573 32.284 24.502 32.1287C24.3726 31.9735 24.3726 31.9994 24.2691 32.1546C23.9069 32.8532 23.4153 33.3707 22.6132 33.5518C22.044 33.6812 21.4748 33.5777 20.9314 33.4224C20.1034 33.1896 19.4048 32.7756 18.8615 32.077C18.3958 31.456 18.2664 30.7574 18.4734 30.0071C18.6027 29.9553 18.6027 29.8777 18.6286 29.7742ZM31.3586 20.2008C31.1775 20.2785 31.0481 20.3043 30.9188 20.3561C30.1684 20.6666 29.4439 20.6148 28.7712 20.1491C27.995 19.6057 27.6845 18.5449 28.0209 17.5617C28.0985 17.3547 28.0726 17.3029 27.8915 17.1994C27.6328 17.0183 27.3482 16.9148 27.0377 16.8113C26.4943 16.6561 26.4943 16.6561 26.2614 17.1477C25.744 18.1827 24.6055 18.5708 23.5706 18.105C23.0789 17.8722 22.7167 17.5358 22.4321 17.0701C22.3286 16.889 22.2251 16.7855 21.9922 16.8372C21.6041 16.9148 21.216 17.0442 20.8797 17.2512C20.7244 17.3288 20.6985 17.4582 20.6985 17.6393C20.7244 17.9498 20.7762 18.2862 20.7503 18.5966C20.6727 19.5799 19.9741 20.3561 19.0167 20.5372C18.6027 20.6148 18.1888 20.5631 17.7748 20.4337C17.6195 20.3819 17.516 20.4078 17.3867 20.5372C17.0762 20.8736 16.9727 21.2875 16.9468 21.7274C16.9468 21.805 17.0244 21.9085 17.0762 21.9603C17.1797 22.0379 17.309 22.0896 17.4125 22.1414C18.2405 22.6071 18.6286 23.4351 18.4734 24.3407C18.344 25.1945 17.8524 25.7637 17.1279 26.1518C17.0762 26.1777 16.9986 26.2553 16.9986 26.2812C16.9986 26.7469 17.0762 27.2127 17.3608 27.6267C17.4902 27.8078 17.6713 27.8595 17.8265 27.8078C18.1629 27.6784 18.5251 27.7043 18.8615 27.7043C19.7412 27.7302 20.3881 28.2994 20.6468 29.1015C20.802 29.5672 20.7244 30.0071 20.5174 30.4469C20.4139 30.6798 20.4398 30.7574 20.6209 30.9385C20.9832 31.249 21.4489 31.3784 21.8887 31.5336C21.9922 31.5595 22.0957 31.5336 22.1475 31.4301C22.251 31.2749 22.3545 31.1196 22.458 30.9644C22.8202 30.421 23.3118 30.0588 23.9587 29.9553C24.4503 29.8777 24.8901 29.9812 25.33 30.2141C25.7957 30.4728 26.0803 30.9385 26.3908 31.3525C26.4426 31.4043 26.4943 31.5078 26.5719 31.5078C27.0635 31.5078 27.5034 31.3266 27.8915 30.9903C27.995 30.9127 27.9691 30.835 27.9433 30.7057C27.788 30.2399 27.7104 29.7483 27.8139 29.2826C28.0468 28.1959 28.9523 27.549 30.0908 27.6784C30.3754 27.7043 30.6859 27.7819 30.9705 27.7819C31.074 27.7819 31.2034 27.7302 31.281 27.6525C31.5397 27.3679 31.695 27.0574 31.7467 26.6693C31.7726 26.3071 31.7726 26.2812 31.4104 26.1777H31.3845C30.7376 25.8672 30.3495 25.3498 30.1943 24.677C30.039 24.0561 30.1425 23.461 30.5824 22.9952C30.867 22.7106 31.2034 22.4777 31.5397 22.219C31.6691 22.1155 31.8761 21.7015 31.8502 21.5463C31.7726 21.2358 31.695 20.9253 31.5915 20.6148C31.5656 20.5113 31.4621 20.3561 31.3586 20.2008Z" fill="#704332"/>
<path d="M24.4504 28.6141C22.0958 28.6141 20.207 26.6994 20.207 24.3449C20.207 22.0162 22.1217 20.1016 24.4762 20.1016C26.8049 20.1016 28.7196 22.0421 28.7196 24.3708C28.7196 26.6994 26.8049 28.6141 24.4504 28.6141ZM24.4762 22.2232C23.3119 22.2232 22.3546 23.1547 22.3287 24.319C22.3287 25.4834 23.2602 26.4666 24.4245 26.4666C25.6147 26.4666 26.5979 25.5351 26.5979 24.3449C26.5979 23.2064 25.6406 22.2232 24.4762 22.2232Z" fill="#704332"/>
</svg>
