<svg id="Customer_Reciept" data-name="Customer Reciept" xmlns="http://www.w3.org/2000/svg" width="50" height="50" viewBox="0 0 50 50">
  <rect id="Rectangle_93" data-name="Rectangle 93" width="50" height="50" fill="none"/>
  <path id="Path_2026" data-name="Path 2026" d="M787.567,785.446l-1.9,2.081-1.987-2.129-1.833,2.183-1.882-2.086-1.9,2.155-1.839-2.212-2.061,2.233-1.84-2.265-1.734,1.921-.2-.124V749.811l1.668,2.04,1.92-2.145,1.964,2.015,1.96-2.159,1.866,2.21,2.036-2.132,1.8,2.13,2.008-2.142,1.887,2.013,1.895-1.946,1.935,2.055,1.834-2.046,1.9,1.948,1.972-2.021,1.9,2.1,1.708-1.9.2.13v37.478l-1.675-2.1-1.9,2.229-2.034-2.206-1.873,2.172-1.961-2.112-1.994,2.191Zm7.537-18.7h-19v3.7h19Zm0-7.5H776.125v3.648h18.982Zm-19,18.743H787.48v-3.657H776.1Z" transform="translate(-760.786 -743.562)" fill="#fff"/>
</svg>
