<svg id="Dine_In" data-name="Dine In" xmlns="http://www.w3.org/2000/svg" width="50" height="50" viewBox="0 0 50 50">
  <rect id="Rectangle_17709" data-name="Rectangle 17709" width="50" height="50" fill="none"/>
  <g id="Group_15145" data-name="Group 15145" transform="translate(7 7)">
    <path id="Path_16757" data-name="Path 16757" d="M175.179,78.942c0-1.105.042-2.216-.012-3.322a3.881,3.881,0,0,1,2.775-3.732,4.059,4.059,0,0,1,5.116,2.745,8.932,8.932,0,0,1,.2,2.335c.036,1.093.03,2.187.018,3.28-.006.345.113.452.446.463.725.018,1.444.065,2.169.113a2.13,2.13,0,0,1,2.1,1.616c1.206,3.981,2.448,7.956,3.648,11.943a2.434,2.434,0,0,1-1.1,3.1,1.973,1.973,0,0,1-2.9-1.016c-.689-1.937-1.3-3.9-1.919-5.865-.416-1.3-.82-2.609-1.182-3.928-.107-.392-.291-.452-.648-.44-1.616.03-3.232.059-4.849.036a3.926,3.926,0,0,1-3.862-3.85c-.03-1.153-.006-2.305-.006-3.464C175.173,78.942,175.179,78.942,175.179,78.942Z" transform="translate(-170.105 -62.418)" fill="#fff"/>
    <path id="Path_16758" data-name="Path 16758" d="M210.416,99.4h-8.99V97.18h3.345V81.428H196.94V79.116h7.968c.024-.048.053-.089.077-.137-2.811-.826-3.827-2.816-3.7-5.579h9.246a5.368,5.368,0,0,1-.654,3.482,4.774,4.774,0,0,1-2.834,2.074c.006.042.012.083.018.131h7.861V81.38h-7.849c-.012.208-.024.374-.024.535,0,4.914.006,9.822-.012,14.736,0,.434.131.547.547.535.933-.03,1.872-.012,2.834-.012Z" transform="translate(-178.943 -63.103)" fill="#fff"/>
    <path id="Path_16759" data-name="Path 16759" d="M176.722,93.473c-.7,0-1.337-.006-1.985,0-1.046.006-2.092.006-3.143.036-.689.018-.7.042-.784.743-.16,1.373-.321,2.751-.469,4.13-.137,1.272-.255,2.543-.392,3.809a2.938,2.938,0,0,1-.077.315c-.689-.065-1.373-.125-2.133-.2.083-.767.16-1.509.238-2.252.261-2.418.582-4.831.755-7.249a10.428,10.428,0,0,0-.362-2.68c-.547-2.822-1.129-5.639-1.7-8.455-.053-.267.012-.416.279-.463l1.408-.25c.315-.059.452.042.523.386q.945,4.84,1.925,9.679a1.806,1.806,0,0,0,.053.19h.481c2.282,0,4.557.012,6.839,0,.4,0,.547.1.588.529.3,2.894.636,5.781.957,8.669.065.612.131,1.218.2,1.89-.642.053-1.266.125-1.89.149-.1.006-.285-.208-.3-.333-.2-1.652-.362-3.3-.547-4.956C177.043,95.945,176.882,94.732,176.722,93.473Z" transform="translate(-166.651 -66.164)" fill="#fff"/>
    <path id="Path_16760" data-name="Path 16760" d="M179.685,56.07a4.011,4.011,0,1,1-.065,8.022,4.011,4.011,0,0,1,.065-8.022Z" transform="translate(-170.303 -56.07)" fill="#fff"/>
  </g>
</svg>
