<svg id="Drawer" xmlns="http://www.w3.org/2000/svg" width="50" height="50" viewBox="0 0 50 50">
  <rect id="Rectangle_101" data-name="Rectangle 101" width="50" height="50" fill="none"/>
  <path id="Path_2027" data-name="Path 2027" d="M888.989,764.458l-1.978,15.814h-33.99l-1.978-15.81h2.422c.214-.661.423-1.309.632-1.957q2.227-6.922,4.451-13.846a.228.228,0,0,1,.258-.192q11.21.006,22.42,0a.228.228,0,0,1,.257.194q2.49,7.761,4.982,15.52c.067.21.149.291.379.284.635-.019,1.271-.006,1.906-.007Zm-4.243-.01c-.026-.094-.045-.173-.07-.251q-2.076-6.45-4.147-12.9a.308.308,0,0,0-.362-.253c-1.443.009-2.887.005-4.331.005q-8,0-16,0a.283.283,0,0,0-.331.235q-1.906,5.951-3.826,11.9c-.135.418-.267.838-.4,1.272Zm-14.734,11.438q3.481,0,6.962,0a1.7,1.7,0,0,0,1.715-2.109c-.234-.856-.5-1.7-.78-2.547a1.275,1.275,0,0,0-2.467.6,6.582,6.582,0,0,0,.238.854c.124.412.051.518-.373.518h-7.894q-1.388,0-2.776,0c-.3,0-.4-.133-.308-.424.073-.244.159-.485.218-.733a1.589,1.589,0,0,0,.061-.528,1.274,1.274,0,0,0-1.2-1.16,1.291,1.291,0,0,0-1.305.941c-.244.782-.491,1.563-.721,2.349a1.8,1.8,0,0,0-.076.611,1.7,1.7,0,0,0,1.749,1.627Q866.531,775.889,870.012,775.886Z" transform="translate(-844.793 -739.717)" fill="#fff"/>
</svg>
