<svg width="30" height="30" viewBox="0 0 30 30" fill="none" xmlns="http://www.w3.org/2000/svg">
<rect width="30" height="30" rx="5" fill="#AEAEAE" fill-opacity="0.6"/>
<path d="M19.474 8.40783L21.592 10.5248M20.836 6.54283L15.109 12.2698C14.8131 12.5653 14.6113 12.9418 14.529 13.3518L14 15.9998L16.648 15.4698C17.058 15.3878 17.434 15.1868 17.73 14.8908L23.457 9.16383C23.6291 8.99173 23.7656 8.78742 23.8588 8.56256C23.9519 8.33771 23.9998 8.09671 23.9998 7.85333C23.9998 7.60994 23.9519 7.36895 23.8588 7.14409C23.7656 6.91923 23.6291 6.71492 23.457 6.54283C23.2849 6.37073 23.0806 6.23421 22.8557 6.14108C22.6309 6.04794 22.3899 6 22.1465 6C21.9031 6 21.6621 6.04794 21.4373 6.14108C21.2124 6.23421 21.0081 6.37073 20.836 6.54283V6.54283Z" stroke="white" stroke-width="2" stroke-linecap="round" stroke-linejoin="round"/>
<path d="M22 18V21C22 21.5304 21.7893 22.0391 21.4142 22.4142C21.0391 22.7893 20.5304 23 20 23H9C8.46957 23 7.96086 22.7893 7.58579 22.4142C7.21071 22.0391 7 21.5304 7 21V10C7 9.46957 7.21071 8.96086 7.58579 8.58579C7.96086 8.21071 8.46957 8 9 8H12" stroke="white" stroke-width="2" stroke-linecap="round" stroke-linejoin="round"/>
</svg>
