<svg width="32" height="32" viewBox="0 0 32 32" fill="none" xmlns="http://www.w3.org/2000/svg">
<rect width="32" height="32" rx="2" fill="#C5A79C"/>
<path d="M8.9444 25.1428C8.81389 25.1426 8.68486 25.1152 8.56551 25.0624C8.44615 25.0096 8.33909 24.9325 8.25113 24.8361C8.16158 24.7405 8.09325 24.627 8.05061 24.5031C8.00797 24.3792 7.992 24.2477 8.00374 24.1172L8.2342 21.5824L13.5574 16.2596L18.8806 10.9369L22.2077 14.264L11.5641 24.9086L9.03 25.1391C9.00154 25.1417 8.97298 25.143 8.9444 25.1428ZM22.8718 13.5987L19.5457 10.2716L21.5408 8.27596C21.6282 8.18848 21.7319 8.11907 21.8461 8.07172C21.9603 8.02437 22.0827 8 22.2063 8C22.3299 8 22.4523 8.02437 22.5665 8.07172C22.6807 8.11907 22.7845 8.18848 22.8718 8.27596L24.867 10.2716C24.9544 10.359 25.0238 10.4628 25.0712 10.577C25.1185 10.6913 25.1429 10.8137 25.1429 10.9373C25.1429 11.061 25.1185 11.1834 25.0712 11.2977C25.0238 11.4119 24.9544 11.5157 24.867 11.603L22.8728 13.5978L22.8718 13.5987Z" fill="white"/>
</svg>
