<svg width="28" height="28" viewBox="0 0 28 28" fill="none" xmlns="http://www.w3.org/2000/svg">
<rect width="28" height="28" rx="2" fill="#704332"/>
<path d="M7.82635 22C7.71216 21.9998 7.59925 21.9758 7.49482 21.9296C7.39039 21.8834 7.29671 21.816 7.21974 21.7316C7.14138 21.6479 7.08159 21.5486 7.04428 21.4402C7.00698 21.3318 6.993 21.2168 7.00327 21.1026L7.20493 18.8846L11.8627 14.2272L16.5205 9.56976L19.4318 12.481L10.1186 21.795L7.90125 21.9967C7.87635 21.999 7.85135 22.0001 7.82635 22ZM20.0129 11.8989L17.1024 8.98769L18.8482 7.24146C18.9246 7.16492 19.0154 7.10419 19.1153 7.06276C19.2153 7.02133 19.3224 7 19.4305 7C19.5387 7 19.6458 7.02133 19.7457 7.06276C19.8456 7.10419 19.9364 7.16492 20.0129 7.24146L21.7586 8.98769C21.8351 9.06415 21.8958 9.15495 21.9373 9.2549C21.9787 9.35485 22 9.46198 22 9.57018C22 9.67837 21.9787 9.78551 21.9373 9.88545C21.8958 9.9854 21.8351 10.0762 21.7586 10.1527L20.0137 11.8981L20.0129 11.8989Z" fill="white"/>
</svg>
