<svg width="25" height="25" viewBox="0 0 25 25" fill="none" xmlns="http://www.w3.org/2000/svg">
<path d="M14.9643 24.9896H8.88979V24.7897C8.88979 22.0177 8.89082 19.2455 8.89288 16.4731C8.8982 16.4188 8.88684 16.3642 8.86034 16.3165C8.83383 16.2688 8.79343 16.2304 8.74451 16.2062C7.84603 15.6442 7.37103 14.8291 7.36227 13.7674C7.3506 12.2939 7.3506 10.8203 7.36227 9.34657C7.37412 7.73663 8.62086 6.50586 10.2293 6.50122C11.3426 6.49761 12.4554 6.51667 13.5682 6.49658C15.2533 6.4667 16.514 7.8103 16.5078 9.33833C16.5016 10.8478 16.5227 12.3578 16.4985 13.8673C16.4815 14.8977 15.9787 15.6792 15.1075 16.2201C15.0602 16.2433 15.021 16.2804 14.9954 16.3264C14.9698 16.3725 14.959 16.4253 14.9643 16.4777C14.9674 19.2449 14.9674 22.0118 14.9643 24.7783V24.9896Z" fill="#704332"/>
<path d="M7.27221 23.9899H7.08932C5.35831 23.9899 3.62781 23.9874 1.8968 23.9936C1.73864 23.9936 1.70051 23.9518 1.70051 23.7962C1.70566 21.2564 1.70309 18.7165 1.70721 16.1762C1.7122 16.1194 1.70016 16.0624 1.67263 16.0125C1.64511 15.9626 1.60334 15.922 1.55265 15.8959C0.740212 15.3838 0.307459 14.644 0.29767 13.6858C0.28376 12.3103 0.288912 10.9347 0.29767 9.55918C0.306428 8.18364 1.41356 7.0286 2.78291 6.9946C3.93074 6.96678 5.08011 6.9879 6.22897 6.99202C6.38535 7.00093 6.54116 7.01812 6.69572 7.04354C6.65914 7.11103 6.63699 7.15431 6.61278 7.19552C6.22656 7.83449 6.02224 8.56682 6.02186 9.31344C6.01671 10.8023 6.01259 12.2912 6.02186 13.7801C6.02907 14.8944 6.42422 15.8604 7.18824 16.6754C7.24154 16.7339 7.27302 16.8091 7.27736 16.8882C7.28183 19.2065 7.28303 21.5248 7.28097 23.8431C7.27942 23.8859 7.27582 23.9261 7.27221 23.9899Z" fill="#704332"/>
<path d="M20.3535 15.7031C21.2733 15.7048 22.1718 15.9792 22.9355 16.4918C23.6992 17.0044 24.2936 17.732 24.6436 18.5825C24.9936 19.4331 25.0833 20.3684 24.9015 21.27C24.7197 22.1715 24.2744 22.9989 23.6222 23.6474C22.9699 24.2958 22.1399 24.7361 21.2373 24.9127C20.3346 25.0892 19.3999 24.9939 18.5514 24.639C17.7029 24.284 16.9788 23.6853 16.4708 22.9186C15.9627 22.152 15.6935 21.2518 15.6973 20.332C15.703 19.1014 16.1963 17.9232 17.0691 17.0556C17.9418 16.1879 19.1229 15.7016 20.3535 15.7031V15.7031ZM20.8914 20.8884C21.1696 20.8884 21.421 20.8884 21.6724 20.8884C22.2236 20.8884 22.7744 20.8946 23.3256 20.892C23.6862 20.892 23.9186 20.6422 23.8923 20.3063C23.8696 20.0209 23.6388 19.8184 23.3194 19.8169C22.5724 19.8127 21.8254 19.8143 21.0789 19.8127C21.0197 19.8127 20.9604 19.8066 20.8919 19.8029V19.6154C20.8919 18.8839 20.8919 18.1528 20.8883 17.4213C20.8893 17.3239 20.8731 17.2271 20.8404 17.1353C20.7934 17.0225 20.7092 16.9292 20.6017 16.871C20.4943 16.8128 20.3701 16.7932 20.25 16.8154C20.124 16.8363 20.0098 16.9023 19.9288 17.001C19.8478 17.0998 19.8054 17.2246 19.8095 17.3522C19.8069 18.1044 19.8095 18.856 19.8095 19.6082C19.8095 19.6685 19.8095 19.7288 19.8095 19.8076H19.6127C18.9172 19.8076 18.2219 19.8084 17.5267 19.8102C17.4443 19.8083 17.3619 19.812 17.2799 19.821C17.179 19.831 17.0833 19.8705 17.0048 19.9347C16.9262 19.9988 16.8684 20.0847 16.8384 20.1816C16.7107 20.5422 16.9677 20.89 17.3711 20.892C18.1176 20.8951 18.8652 20.892 19.6111 20.8884H19.811V21.0873C19.811 21.8343 19.8079 22.5813 19.811 23.3278C19.811 23.6369 20.0037 23.8605 20.2912 23.8945C20.6209 23.9321 20.8898 23.6802 20.8914 23.3216C20.8955 22.5854 20.8939 21.8487 20.8945 21.112L20.8914 20.8884Z" fill="#704332"/>
<path d="M17.2031 7.04364C17.4092 7.02458 17.5869 6.99212 17.7652 6.99212C18.862 6.98748 19.9588 6.98182 21.0557 6.99212C22.4369 7.00448 23.5888 8.14355 23.6032 9.52424C23.6177 10.9302 23.612 12.3361 23.6032 13.742C23.5996 14.3865 23.3554 14.9445 22.9335 15.4267C22.8717 15.4968 22.8227 15.5199 22.7274 15.4782C20.8985 14.6802 19.132 14.7992 17.4329 15.8527C17.4046 15.8703 17.3742 15.8842 17.3129 15.9166C17.3448 15.846 17.3603 15.8053 17.3809 15.7672C17.7181 15.1379 17.8913 14.4338 17.8847 13.7199C17.8821 12.2985 17.8796 10.8766 17.8847 9.45521C17.8883 8.62628 17.6956 7.85454 17.2588 7.14719C17.2433 7.12607 17.233 7.10288 17.2031 7.04364Z" fill="#704332"/>
<path d="M12.0216 5.95963C11.4329 5.95901 10.8575 5.78401 10.3682 5.45671C9.87878 5.12942 9.49733 4.66449 9.27194 4.1206C9.04655 3.57672 8.98732 2.97826 9.10173 2.40074C9.21614 1.82323 9.49906 1.29255 9.91479 0.875678C10.3305 0.458805 10.8604 0.174421 11.4376 0.0584178C12.0148 -0.0575854 12.6134 -9.35957e-06 13.1579 0.22388C13.7024 0.447769 14.1684 0.827937 14.4971 1.3164C14.8257 1.80487 15.0023 2.37975 15.0045 2.96848C15.0066 3.36118 14.931 3.75041 14.7819 4.11373C14.6329 4.47704 14.4134 4.80726 14.1361 5.08532C13.8588 5.36339 13.5292 5.58381 13.1663 5.73387C12.8034 5.88393 12.4143 5.96065 12.0216 5.95963V5.95963Z" fill="#704332"/>
<path d="M1.834 3.74438C1.83626 3.20251 1.99923 2.6735 2.3023 2.22431C2.60536 1.77512 3.03489 1.42595 3.5365 1.221C4.03811 1.01605 4.58926 0.964531 5.12016 1.07297C5.65107 1.18142 6.13786 1.44494 6.51892 1.83018C6.89998 2.21543 7.15817 2.70507 7.2608 3.23713C7.36344 3.76919 7.3059 4.31974 7.09548 4.81908C6.88506 5.31842 6.53122 5.74411 6.07874 6.04225C5.62627 6.34038 5.09551 6.49757 4.55365 6.4939C3.82877 6.48873 3.1355 6.19644 2.62573 5.68106C2.11596 5.16569 1.83126 4.46927 1.834 3.74438V3.74438Z" fill="#704332"/>
<path d="M19.326 6.49233C18.7839 6.49131 18.2542 6.32958 17.804 6.02759C17.3538 5.72559 17.0033 5.29689 16.7967 4.79569C16.5901 4.29449 16.5368 3.74329 16.6434 3.21177C16.7501 2.68026 17.0119 2.19229 17.3958 1.80958C17.7798 1.42686 18.2686 1.16658 18.8004 1.06163C19.3323 0.956678 19.8833 1.01178 20.3839 1.21996C20.8844 1.42815 21.312 1.78007 21.6125 2.23123C21.9131 2.6824 22.0731 3.21254 22.0724 3.75465C22.0712 4.48187 21.7812 5.17882 21.2661 5.69222C20.7511 6.20562 20.0532 6.49343 19.326 6.49233V6.49233Z" fill="#704332"/>
<path d="M20.8852 19.6171V19.8046C20.9537 19.8083 21.0129 19.8144 21.0722 19.8144C21.8192 19.8144 22.5662 19.8144 23.3127 19.8186C23.6321 19.8186 23.8629 20.0246 23.8856 20.308C23.9124 20.6439 23.6795 20.8917 23.3189 20.8937C22.7676 20.8937 22.2169 20.8937 21.6657 20.8901C21.4143 20.8901 21.1629 20.8901 20.8847 20.8901V21.1122C20.8847 21.8489 20.8847 22.5856 20.8816 23.3218C20.8816 23.6824 20.6111 23.9323 20.2814 23.8947C19.9939 23.8617 19.8017 23.6371 19.8012 23.328C19.8012 22.5815 19.8012 21.834 19.8012 21.0875V20.8886H19.6065C18.86 20.8886 18.1125 20.8953 17.3665 20.8922C16.9631 20.8922 16.706 20.5424 16.8338 20.1818C16.8637 20.0849 16.9216 19.999 17.0001 19.9348C17.0786 19.8707 17.1744 19.8311 17.2753 19.8211C17.3572 19.8121 17.4397 19.8085 17.5221 19.8103C18.2176 19.8103 18.9129 19.8095 19.608 19.8077H19.8064C19.8064 19.7289 19.8064 19.6686 19.8064 19.6084C19.8064 18.8562 19.8028 18.1045 19.8064 17.3524C19.8023 17.2247 19.8447 17.0999 19.9257 17.0012C20.0067 16.9024 20.1209 16.8365 20.2469 16.8156C20.367 16.7933 20.4912 16.813 20.5986 16.8712C20.706 16.9294 20.7903 17.0227 20.8373 17.1355C20.87 17.2272 20.8862 17.324 20.8852 17.4214" fill="white"/>
</svg>
