<svg id="Favorite" xmlns="http://www.w3.org/2000/svg" width="48" height="53" viewBox="0 0 48 53">
  <rect id="Rectangle_9" data-name="Rectangle 9" width="48" height="53" fill="none"/>
  <path id="Path_3" data-name="Path 3" d="M129.114,290.837c3.065.113,6.168-.022,9.187.393a11.393,11.393,0,0,1,9.765,10.869q.046,6.663,0,13.327c-.049,6.182-5.474,11.25-12,11.255-4.44,0-8.88-.012-13.32,0-7.094.019-12.31-4.529-12.55-11.249-.169-4.721-.129-9.459.1-14.179.261-5.484,5.464-10.1,11.309-10.269,2.5-.074,5.009-.012,7.512-.012Zm-8.363,27.281a1.6,1.6,0,0,0,2.475,1.563c1.64-.89,3.249-1.833,4.833-2.812a1.474,1.474,0,0,1,1.808-.023c1.535.981,3.092,1.944,4.718,2.779a2.676,2.676,0,0,0,1.953.128,1.393,1.393,0,0,0,.664-1.846c-.486-1.686-.888-3.392-1.343-5.086a1.185,1.185,0,0,1,.49-1.478c1.441-1.045,2.8-2.194,4.207-3.277.694-.534,1.23-1.126.868-2.014-.349-.855-1.159-1.036-2.042-1.084-1.663-.091-3.323-.243-4.987-.314a1.537,1.537,0,0,1-1.626-1.135c-.567-1.586-1.327-3.11-1.961-4.678a1.629,1.629,0,0,0-1.616-1.253,1.714,1.714,0,0,0-1.662,1.227c-.652,1.56-1.373,3.094-1.992,4.665a1.478,1.478,0,0,1-1.57,1.062c-1.778.041-3.552.21-5.328.316-.837.05-1.568.215-1.87,1.1s.229,1.425.854,1.926c1.3,1.042,2.59,2.094,3.924,3.1a1.436,1.436,0,0,1,.641,1.823C121.614,314.611,121.19,316.462,120.752,318.118Z" transform="translate(-105.253 -281.837)" fill="#704332"/>
</svg>
