<svg xmlns="http://www.w3.org/2000/svg" width="50" height="50" viewBox="0 0 50 50">
  <g id="Favorite" transform="translate(-174.256 -36.256)">
    <rect id="Rectangle_38" data-name="Rectangle 38" width="50" height="50" transform="translate(174.256 36.256)" fill="none"/>
    <path id="Path_57825" data-name="Path 57825" d="M130.152,290.837c3.232.119,6.5-.024,9.688.414a12,12,0,0,1,10.3,11.445q.048,7.016,0,14.033c-.051,6.51-5.773,11.846-12.658,11.852-4.682,0-9.365-.013-14.047,0-7.48.02-12.982-4.769-13.235-11.845-.178-4.971-.136-9.96.1-14.93.276-5.774,5.762-10.634,11.926-10.813,2.638-.078,5.282-.013,7.922-.013Zm-8.819,28.727a1.683,1.683,0,0,0,2.611,1.646c1.73-.937,3.426-1.931,5.1-2.961a1.556,1.556,0,0,1,1.907-.025c1.619,1.033,3.26,2.047,4.975,2.926a2.826,2.826,0,0,0,2.059.135,1.466,1.466,0,0,0,.7-1.943c-.513-1.775-.937-3.572-1.416-5.356a1.247,1.247,0,0,1,.517-1.556c1.519-1.1,2.949-2.31,4.436-3.451.732-.562,1.3-1.185.915-2.12-.368-.9-1.222-1.09-2.153-1.141-1.754-.1-3.5-.256-5.259-.331a1.621,1.621,0,0,1-1.715-1.2c-.6-1.67-1.4-3.275-2.068-4.925a1.718,1.718,0,0,0-1.7-1.319,1.807,1.807,0,0,0-1.753,1.292c-.687,1.642-1.448,3.258-2.1,4.912a1.559,1.559,0,0,1-1.655,1.118c-1.875.043-3.745.221-5.618.332-.883.053-1.653.226-1.972,1.155s.241,1.5.9,2.027c1.371,1.1,2.732,2.205,4.138,3.261a1.511,1.511,0,0,1,.676,1.919C122.243,315.87,121.8,317.82,121.333,319.563Z" transform="translate(68.973 -247.969)" fill="#fff"/>
  </g>
</svg>
