<svg xmlns="http://www.w3.org/2000/svg" width="50" height="50" viewBox="0 0 50 50">
  <g id="Float_In" data-name="Float In" transform="translate(-361 -218)">
    <rect id="Rectangle_17955" data-name="Rectangle 17955" width="50" height="50" transform="translate(361 218)" fill="none"/>
    <g id="Group_16209" data-name="Group 16209">
      <path id="Path_58117" data-name="Path 58117" d="M832.639,811.7c1.406,1.406,2.7,2.7,3.985,4.1-1.524,1.406-5.157,5.04-6.8,6.681.82.586,1.406,1.172,2.11,1.641,0,.117-.117.117-.117.234H824.2v-7.735c.7.586,1.289,1.172,1.875,1.758C827.6,816.857,831.232,813.107,832.639,811.7Z" transform="translate(-429.353 -589.7)" fill="#704332"/>
      <path id="Path_58118" data-name="Path 58118" d="M838.106,829.73V846.4a2.7,2.7,0,0,1-2.69,2.689H809.591a2.7,2.7,0,0,1-2.69-2.689V820.588a2.7,2.7,0,0,1,2.69-2.689h18.158L830.3,814H805.69a2.7,2.7,0,0,0-2.69,2.689V850.3a2.7,2.7,0,0,0,2.69,2.689h33.492a2.7,2.7,0,0,0,2.69-2.689V826.638Z" transform="translate(-438 -589.304)" fill="#704332"/>
      <g id="Group_16126" data-name="Group 16126" transform="translate(370.328 230.165)">
        <path id="Path_58247" data-name="Path 58247" d="M529.521,827.611a15.019,15.019,0,0,0-2.664,3.1,1.184,1.184,0,0,0,.021,1.394,1.1,1.1,0,0,0,1.311.375,2.511,2.511,0,0,0,.707-.624c.312-.375.583-.791.916-1.249.167.687.25,1.311.437,1.894a23.183,23.183,0,0,0,.895,2.372,1.155,1.155,0,0,0,1.581.583,1.14,1.14,0,0,0,.52-1.561,11.891,11.891,0,0,1-1.207-5.41v-.4h.687a9.066,9.066,0,0,0,4.349-1.165.348.348,0,0,1,.458,0,15.446,15.446,0,0,1,3.87,4.1c.021.042.062.1.1.187a7.032,7.032,0,0,0-.708.187,4.255,4.255,0,0,0-2.934,2.143,3.454,3.454,0,0,0-.312,1.29c-.042.978-.021,1.977-.021,2.955,0,.1-.021.208-.021.312a15.539,15.539,0,0,0-1.5-.479,7.641,7.641,0,0,0-5.764.812,3.2,3.2,0,0,0-1.6,2.83v5.306c-.708-.166-1.436-.291-2.123-.5a9.555,9.555,0,0,1-2.955-1.269,5.225,5.225,0,0,1-2.331-4.162,16.156,16.156,0,0,1,2.872-10.28,15.757,15.757,0,0,1,3.538-3.517.375.375,0,0,1,.25-.062C528.439,827.049,528.959,827.341,529.521,827.611Z" transform="translate(-521.222 -819.038)" fill="#704332"/>
        <path id="Path_58248" data-name="Path 58248" d="M554.628,789.6a14.474,14.474,0,0,1,4.911.916.736.736,0,0,1,.416,1.124c-.728,1.269-1.457,2.539-2.185,3.787a.758.758,0,0,1-.333.291,6.559,6.559,0,0,1-5.619,0,1.356,1.356,0,0,1-.562-.52c-.687-1.144-1.353-2.31-2.019-3.5-.333-.583-.187-.978.437-1.228A15.049,15.049,0,0,1,554.628,789.6Z" transform="translate(-543.271 -789.6)" fill="#704332"/>
        <path id="Path_58249" data-name="Path 58249" d="M570.35,888a5.484,5.484,0,0,1,2.372.458,1.681,1.681,0,0,1,.978,2.206,1.419,1.419,0,0,1-.791.832,5.87,5.87,0,0,1-5.078,0,1.28,1.28,0,0,1-.874-1.1c-.042-.728,0-1.373.749-1.79A5.331,5.331,0,0,1,570.35,888Z" transform="translate(-557.432 -867.524)" fill="#704332"/>
        <path id="Path_58250" data-name="Path 58250" d="M612.739,861.658a6.018,6.018,0,0,1-2.393-.5,1.647,1.647,0,0,1-.874-2.206,1.533,1.533,0,0,1,.895-.832,5.946,5.946,0,0,1,4.911.021,1.466,1.466,0,0,1,.936,1.5,1.538,1.538,0,0,1-.936,1.519A6.981,6.981,0,0,1,612.739,861.658Z" transform="translate(-590.997 -843.45)" fill="#704332"/>
        <path id="Path_58251" data-name="Path 58251" d="M616.27,905.6a16.906,16.906,0,0,1-.021,1.79c-.042.437-.416.666-.791.874a5.48,5.48,0,0,1-2.872.562,5.274,5.274,0,0,1-2.31-.583,1.358,1.358,0,0,1-.791-1.353c.021-.416,0-.832,0-1.29a7.7,7.7,0,0,0,3.371.728A7.875,7.875,0,0,0,616.27,905.6Z" transform="translate(-591.116 -881.461)" fill="#704332"/>
        <path id="Path_58252" data-name="Path 58252" d="M573.655,913.821a15.133,15.133,0,0,1-.021,1.686,1.283,1.283,0,0,1-.791.937,5.146,5.146,0,0,1-2.476.562,5.227,5.227,0,0,1-2.684-.583,1.317,1.317,0,0,1-.812-1.353c.021-.4,0-.812,0-1.269A8.29,8.29,0,0,0,573.655,913.821Z" transform="translate(-557.366 -887.955)" fill="#704332"/>
        <path id="Path_58253" data-name="Path 58253" d="M616.344,883.6a10.459,10.459,0,0,1-.021,1.623,1.476,1.476,0,0,1-.458.77,3.365,3.365,0,0,1-1.81.707,6.214,6.214,0,0,1-3.475-.375,1.458,1.458,0,0,1-1.02-1.582,10.49,10.49,0,0,0,0-1.145A8.289,8.289,0,0,0,616.344,883.6Z" transform="translate(-591.169 -864.039)" fill="#704332"/>
      </g>
    </g>
  </g>
</svg>
