<svg xmlns="http://www.w3.org/2000/svg" width="50" height="50" viewBox="0 0 50 50">
  <g id="Float_Out" data-name="Float Out" transform="translate(-361 -305)">
    <rect id="Rectangle_17961" data-name="Rectangle 17961" width="50" height="50" transform="translate(361 305)" fill="none"/>
    <g id="Group_16211" data-name="Group 16211">
      <path id="Path_58117" data-name="Path 58117" d="M8.439,0c1.406,1.406,2.7,2.7,3.985,4.1-1.524,1.406-5.157,5.04-6.8,6.681.82.586,1.406,1.172,2.11,1.641,0,.117-.117.117-.117.234H0V4.923c.7.586,1.289,1.172,1.875,1.758C3.4,5.157,7.032,1.406,8.439,0Z" transform="translate(407.271 321.658) rotate(180)" fill="#704332"/>
      <path id="Path_58118" data-name="Path 58118" d="M838.106,829.73V846.4a2.7,2.7,0,0,1-2.69,2.689H809.591a2.7,2.7,0,0,1-2.69-2.689V820.588a2.7,2.7,0,0,1,2.69-2.689h18.158L830.3,814H805.69a2.7,2.7,0,0,0-2.69,2.689V850.3a2.7,2.7,0,0,0,2.69,2.689h33.492a2.7,2.7,0,0,0,2.69-2.689V826.638Z" transform="translate(-438 -502.304)" fill="#704332"/>
      <g id="Group_16125" data-name="Group 16125" transform="translate(370.623 318.045)">
        <path id="Path_58247" data-name="Path 58247" d="M529.194,827.578a14.43,14.43,0,0,0-2.559,2.979,1.137,1.137,0,0,0,.02,1.339,1.052,1.052,0,0,0,1.259.36,2.411,2.411,0,0,0,.68-.6c.3-.36.56-.76.88-1.2.16.66.24,1.259.42,1.819a22.264,22.264,0,0,0,.86,2.279,1.109,1.109,0,0,0,1.519.56,1.1,1.1,0,0,0,.5-1.5,11.423,11.423,0,0,1-1.159-5.2v-.38h.66a8.708,8.708,0,0,0,4.178-1.12.334.334,0,0,1,.44,0,14.839,14.839,0,0,1,3.718,3.938c.02.04.06.1.1.18a6.757,6.757,0,0,0-.68.18,4.088,4.088,0,0,0-2.819,2.059,3.319,3.319,0,0,0-.3,1.239c-.04.94-.02,1.9-.02,2.839,0,.1-.02.2-.02.3a14.937,14.937,0,0,0-1.439-.46,7.34,7.34,0,0,0-5.537.78,3.072,3.072,0,0,0-1.539,2.719v5.1c-.68-.16-1.379-.28-2.039-.48a9.179,9.179,0,0,1-2.839-1.219,5.02,5.02,0,0,1-2.239-4A15.522,15.522,0,0,1,524,830.217a15.137,15.137,0,0,1,3.4-3.378.36.36,0,0,1,.24-.06C528.155,827.039,528.654,827.318,529.194,827.578Z" transform="translate(-521.222 -819.342)" fill="#704332"/>
        <path id="Path_58248" data-name="Path 58248" d="M554.41,789.6a13.9,13.9,0,0,1,4.718.88.707.707,0,0,1,.4,1.079c-.7,1.219-1.4,2.439-2.1,3.638a.728.728,0,0,1-.32.28,6.3,6.3,0,0,1-5.4,0,1.3,1.3,0,0,1-.54-.5c-.66-1.1-1.3-2.219-1.939-3.358-.32-.56-.18-.94.42-1.179A14.458,14.458,0,0,1,554.41,789.6Z" transform="translate(-543.499 -789.6)" fill="#704332"/>
        <path id="Path_58249" data-name="Path 58249" d="M570.216,888a5.268,5.268,0,0,1,2.279.44,1.615,1.615,0,0,1,.94,2.119,1.363,1.363,0,0,1-.76.8,5.638,5.638,0,0,1-4.878,0,1.229,1.229,0,0,1-.84-1.059c-.04-.7,0-1.319.72-1.719A5.122,5.122,0,0,1,570.216,888Z" transform="translate(-557.806 -868.329)" fill="#704332"/>
        <path id="Path_58250" data-name="Path 58250" d="M612.6,861.5a5.783,5.783,0,0,1-2.3-.48,1.583,1.583,0,0,1-.84-2.119,1.473,1.473,0,0,1,.86-.8,5.712,5.712,0,0,1,4.718.02,1.408,1.408,0,0,1,.9,1.439,1.477,1.477,0,0,1-.9,1.459A6.707,6.707,0,0,1,612.6,861.5Z" transform="translate(-591.719 -844.006)" fill="#704332"/>
        <path id="Path_58251" data-name="Path 58251" d="M616,905.6a16.254,16.254,0,0,1-.02,1.719c-.04.42-.4.64-.76.84a5.264,5.264,0,0,1-2.759.54,5.066,5.066,0,0,1-2.219-.56,1.3,1.3,0,0,1-.76-1.3c.02-.4,0-.8,0-1.239a7.394,7.394,0,0,0,3.239.7A7.565,7.565,0,0,0,616,905.6Z" transform="translate(-591.838 -882.411)" fill="#704332"/>
        <path id="Path_58252" data-name="Path 58252" d="M573.388,913.82a14.536,14.536,0,0,1-.02,1.619,1.232,1.232,0,0,1-.76.9,4.943,4.943,0,0,1-2.379.54,5.021,5.021,0,0,1-2.579-.56,1.265,1.265,0,0,1-.78-1.3c.02-.38,0-.78,0-1.219A7.963,7.963,0,0,0,573.388,913.82Z" transform="translate(-557.74 -888.971)" fill="#704332"/>
        <path id="Path_58253" data-name="Path 58253" d="M616.076,883.6a10.049,10.049,0,0,1-.02,1.559,1.417,1.417,0,0,1-.44.74,3.232,3.232,0,0,1-1.739.68,5.97,5.97,0,0,1-3.339-.36,1.4,1.4,0,0,1-.98-1.519,10.063,10.063,0,0,0,0-1.1A7.964,7.964,0,0,0,616.076,883.6Z" transform="translate(-591.892 -864.809)" fill="#704332"/>
      </g>
    </g>
  </g>
</svg>
