<svg width="25" height="31" viewBox="0 0 25 31" fill="none" xmlns="http://www.w3.org/2000/svg">
<path d="M21.1768 30.8391H3.23872C3.20212 30.8289 3.16501 30.8205 3.12754 30.8141C1.31655 30.5808 0.00215805 29.0987 0.00145214 27.2662C-0.00137147 19.3698 -7.73135e-05 11.4731 0.00533461 3.57612C0.0054953 3.2595 0.0456978 2.94416 0.124985 2.63763C0.540409 1.05323 1.93845 0.00319791 3.6125 0.00284495C8.14792 0.000962547 12.6832 2.13435e-05 17.2184 2.13435e-05C17.2624 -0.000482943 17.3061 0.00795371 17.3467 0.02482C17.3874 0.0416862 17.4242 0.0666308 17.4549 0.0981418C19.7321 2.17044 22.0109 4.24109 24.2912 6.31009C24.3332 6.34437 24.3665 6.38804 24.3886 6.43758C24.4106 6.48711 24.4206 6.54113 24.4179 6.59527C24.4151 13.4515 24.4142 20.3075 24.4151 27.1635C24.4151 27.2277 24.4151 27.292 24.4151 27.3562C24.4022 28.1138 24.1463 28.8471 23.6853 29.4483C23.2242 30.0496 22.5823 30.4869 21.8541 30.6958C21.6324 30.7597 21.4027 30.7922 21.1768 30.8391ZM14.7732 2.57162H14.632C10.966 2.57162 7.2999 2.57162 3.63367 2.57162C2.96801 2.57162 2.56988 2.97011 2.56988 3.63507V27.2097C2.56988 27.8659 2.97189 28.2686 3.6252 28.2686C9.34678 28.2686 15.0686 28.2686 20.7906 28.2686C21.4376 28.2686 21.8449 27.8652 21.8449 27.221C21.8449 21.1955 21.8449 15.1701 21.8449 9.14499V8.99534H21.6769C20.5549 8.99534 19.4325 8.99816 18.3105 8.99534C17.5685 8.99292 16.8461 8.75709 16.2456 8.32126C15.6452 7.88543 15.1971 7.27171 14.9648 6.56703C14.9253 6.44703 14.8709 6.42409 14.7576 6.42585C12.6806 6.42915 10.6035 6.42985 8.52629 6.42797H8.36393V5.13688H14.7732V2.57162ZM17.3469 2.57162V2.70398C17.3469 3.60683 17.3469 4.51003 17.3469 5.41288C17.3469 6.0129 17.7662 6.42656 18.3705 6.42691C19.4747 6.42691 20.579 6.42691 21.6833 6.42691C21.7235 6.42691 21.7637 6.42268 21.8361 6.41844L17.3469 2.57162Z" fill="white"/>
<path d="M8.35938 11.5542V10.291H19.9065V11.5542H8.35938Z" fill="white"/>
<path d="M8.35938 16.6952V15.4316H19.9065V16.6952H8.35938Z" fill="white"/>
<path d="M8.35938 21.8316V20.5684H19.9065V21.8316H8.35938Z" fill="white"/>
<path d="M8.35938 26.9726V25.709H19.9065V26.9726H8.35938Z" fill="white"/>
<path d="M7.39512 13.8281V14.7959C7.44595 14.75 7.47736 14.7253 7.5063 14.6957C7.74701 14.4581 7.98667 14.2192 8.22844 13.9831C8.34386 13.8705 8.48998 13.8648 8.58139 13.9633C8.67281 14.0618 8.65763 14.192 8.54433 14.3046C8.01255 14.8322 7.47995 15.3592 6.94652 15.8858C6.91164 15.9173 6.87511 15.9468 6.83711 15.9744L6.85264 16.0062H7.37924V17.0209H4.1875V13.8281H7.39512ZM6.46898 15.6942L7.26065 14.8782H6.74322V14.468H4.82705V16.374H6.73299V16.1114C6.5438 16.2596 6.42415 16.2787 6.30944 16.165C5.95649 15.8165 5.60625 15.4645 5.25871 15.109C5.2379 15.0886 5.22136 15.0643 5.21008 15.0374C5.19879 15.0106 5.19298 14.9818 5.19298 14.9526C5.19298 14.9235 5.19879 14.8947 5.21008 14.8678C5.22136 14.841 5.2379 14.8166 5.25871 14.7963C5.30064 14.7555 5.35645 14.7321 5.41491 14.7308C5.47338 14.7295 5.53018 14.7504 5.57389 14.7892C5.62435 14.8343 5.67242 14.882 5.7179 14.9322C5.97061 15.1888 6.22262 15.4443 6.46898 15.6942V15.6942Z" fill="white"/>
<path d="M4.18359 11.8768V8.68757H7.38769V9.57313C7.44275 9.52301 7.47204 9.49795 7.49957 9.47077C7.74346 9.23006 7.98559 8.98793 8.23089 8.74899C8.36889 8.61486 8.56337 8.63992 8.62302 8.79734C8.66502 8.90781 8.62302 8.99499 8.54254 9.0737C8.18959 9.42206 7.83664 9.77219 7.48369 10.1216C7.3011 10.3023 7.11862 10.483 6.93626 10.6637C6.90732 10.6927 6.8805 10.7241 6.83038 10.7777H7.38169V11.8768H4.18359ZM6.74143 10.8815C6.48801 11.0562 6.41989 11.0492 6.21201 10.8406L5.31516 9.93843C5.17398 9.79725 5.15456 9.66207 5.2601 9.56007C5.36563 9.45806 5.50257 9.48524 5.64199 9.62325C5.77576 9.75596 5.90953 9.88831 6.04259 10.0221C6.18942 10.17 6.33483 10.3193 6.4686 10.4555L7.28039 9.64195H6.75449C6.7492 9.5276 6.74461 9.42736 6.74002 9.32747H4.82985V11.2334H6.74143V10.8815Z" fill="white"/>
<path d="M4.18359 3.54297H7.38557V4.47017C7.44133 4.41864 7.47098 4.39288 7.49887 4.36429C7.74876 4.11722 7.99688 3.87015 8.24924 3.62521C8.34913 3.5285 8.48607 3.53026 8.57325 3.61638C8.66043 3.7025 8.65866 3.83698 8.56831 3.94004C8.54572 3.96545 8.52031 3.98875 8.49595 4.0131C7.97829 4.52488 7.46063 5.03666 6.94297 5.54844C6.90611 5.57799 6.86638 5.60377 6.82438 5.62538L6.85332 5.67091H7.37957V6.73718H4.18359V3.54297ZM6.46048 5.34902L7.26627 4.54076H6.74496V4.18781H4.82597V6.09904H6.7319V5.77892C6.51201 5.94586 6.41178 5.93916 6.23106 5.75703L5.4341 4.95372C5.37375 4.89301 5.31057 4.83477 5.25445 4.77018C5.21554 4.7294 5.19348 4.67542 5.1927 4.61907C5.19191 4.56271 5.21246 4.50814 5.25021 4.46629C5.29066 4.42407 5.34554 4.39865 5.4039 4.39512C5.46226 4.39158 5.5198 4.41019 5.56505 4.44723C5.59813 4.47431 5.62926 4.50367 5.65822 4.53512C5.92823 4.80901 6.19789 5.08325 6.46048 5.34902V5.34902Z" fill="white"/>
<path d="M7.37994 22.1587H4.1875V18.9648H7.37994V22.1587ZM6.73616 21.5167V19.6086H4.83022V21.5167H6.73616Z" fill="white"/>
<path d="M7.38347 27.2961H4.1875V24.1055H7.38347V27.2961ZM4.83234 24.7425V26.6506H6.73828V24.7425H4.83234Z" fill="white"/>
</svg>
