<svg width="32" height="32" viewBox="0 0 32 32" fill="none" xmlns="http://www.w3.org/2000/svg">
<path d="M23.0886 19.6882H21.6886L21.1936 19.2112C23.1253 16.9496 24.1057 14.0276 23.9289 11.0586C23.7521 8.08954 22.4318 5.3045 20.2453 3.28817C18.0589 1.27184 15.1762 0.181056 12.2026 0.244835C9.22903 0.308614 6.3958 1.522 4.29778 3.63022C2.19976 5.73845 1.00015 8.57754 0.950803 11.5514C0.90146 14.5253 2.00623 17.4026 4.03315 19.5793C6.06007 21.7559 8.85149 23.0626 11.8213 23.225C14.7912 23.3874 17.7084 22.3929 19.9606 20.4502L20.4376 20.9452V22.3452L29.2726 31.1632L31.9056 28.5302L23.0886 19.6882ZM12.4886 19.6882C10.9158 19.6882 9.37839 19.2218 8.07069 18.348C6.76299 17.4743 5.74377 16.2323 5.1419 14.7793C4.54003 13.3263 4.38255 11.7274 4.68938 10.1848C4.99621 8.6423 5.75357 7.22539 6.86567 6.11328C7.97778 5.00118 9.39469 4.24382 10.9372 3.93699C12.4798 3.63016 14.0786 3.78764 15.5317 4.38951C16.9847 4.99137 18.2267 6.0106 19.1004 7.3183C19.9742 8.626 20.4406 10.1634 20.4406 11.7362C20.442 12.7811 20.2372 13.8161 19.8379 14.7817C19.4386 15.7473 18.8527 16.6247 18.1137 17.3634C17.3747 18.1021 16.4971 18.6878 15.5313 19.0867C14.5655 19.4856 13.5305 19.69 12.4856 19.6882H12.4886Z" fill="white"/>
</svg>
