<svg width="36" height="35" viewBox="0 0 36 35" fill="none" xmlns="http://www.w3.org/2000/svg">
<path d="M3.41982 34.9988C2.22909 34.9988 1.18011 34.9988 0.0460702 34.9988C0.0318948 34.7861 0.00354387 34.5877 0.00354387 34.3892C0.00354387 28.7616 -0.0106316 23.1481 0.0177193 17.5205C0.0177193 17.2511 0.187825 16.8684 0.400456 16.7408C3.4907 14.9122 6.6093 13.1119 9.71372 11.3116C9.77042 11.2833 9.8413 11.2691 9.91218 11.2407C13.1016 17.2228 21.6069 17.4496 25.0799 11.2266C25.2216 11.2833 25.3634 11.34 25.5052 11.425C28.5103 13.1686 31.5297 14.9122 34.5207 16.6841C34.7475 16.8259 35.0027 17.1661 35.0027 17.4071C35.0311 23.1906 35.0169 28.9742 35.0169 34.772C35.0169 34.8145 35.0027 34.8712 34.9885 34.9704C33.9112 34.9704 32.8197 34.9704 31.6573 34.9704C31.6573 29.9381 31.6573 24.8917 31.6573 19.8169C22.2165 19.8169 12.8748 19.8169 3.434 19.8169C3.41982 24.8492 3.41982 29.8814 3.41982 34.9988Z" fill="#704332"/>
<path d="M24.8518 7.32875C24.8518 11.3971 21.5631 14.6858 17.4805 14.6716C13.4405 14.6575 10.166 11.3829 10.166 7.34292C10.166 3.27457 13.4689 -0.0141298 17.5372 4.56541e-05C21.5772 0.0142211 24.8518 3.28875 24.8518 7.32875ZM13.4689 8.88805C14.0359 9.42671 14.5321 9.88033 15.014 10.3623C15.3117 10.6458 15.6377 10.7167 15.9496 10.419C17.7924 8.59036 19.6352 6.74756 21.4355 4.94727C21.1803 4.62124 20.9677 4.33773 20.6558 3.96917C18.8839 5.75527 17.1829 7.4705 15.4676 9.19991C15.0849 8.83135 14.7022 8.46278 14.3336 8.12257C14.0501 8.36356 13.8091 8.59036 13.4689 8.88805Z" fill="#704332"/>
<path d="M16.9142 22.6523C16.9142 24.5093 16.9142 26.338 16.9142 28.2091C15.0572 28.2091 13.2286 28.2091 11.3574 28.2091C11.3574 26.3805 11.3574 24.5377 11.3574 22.6523C12.052 22.6523 12.775 22.6523 13.5404 22.6523C13.5404 23.1768 13.5404 23.6872 13.5404 24.24C13.9374 24.24 14.2634 24.24 14.6603 24.24C14.6603 23.7297 14.6603 23.2194 14.6603 22.6523C15.4258 22.6523 16.1345 22.6523 16.9142 22.6523Z" fill="#704332"/>
<path d="M18.1348 22.623C18.8861 22.623 19.5807 22.623 20.332 22.623C20.332 23.1617 20.332 23.672 20.332 24.2249C20.7289 24.2249 21.0549 24.2249 21.4518 24.2249C21.4518 23.7004 21.4518 23.2042 21.4518 22.6372C22.2173 22.6372 22.9261 22.6372 23.6915 22.6372C23.6915 24.48 23.6915 26.3228 23.6915 28.194C21.8346 28.194 20.0201 28.194 18.1348 28.194C18.1348 26.3654 18.1348 24.5226 18.1348 22.623Z" fill="#704332"/>
<path d="M7.95508 29.3867C8.6922 29.3867 9.35845 29.3867 10.1239 29.3867C10.1239 29.9112 10.1239 30.4357 10.1239 31.0169C10.535 31.0169 10.8752 31.0169 11.2721 31.0169C11.2721 30.4924 11.2721 29.9821 11.2721 29.4292C12.0376 29.4292 12.7606 29.4292 13.5119 29.4292C13.5119 31.2721 13.5119 33.1149 13.5119 34.986C11.6549 34.986 9.84041 34.986 7.95508 34.986C7.95508 33.129 7.95508 31.3004 7.95508 29.3867Z" fill="#704332"/>
<path d="M16.9433 29.4141C16.9433 29.9527 16.9433 30.463 16.9433 31.0159C17.3402 31.0159 17.6662 31.0159 18.0631 31.0159C18.0631 30.4914 18.0631 29.9811 18.0631 29.4141C18.8286 29.4141 19.5374 29.4141 20.3029 29.4141C20.3029 31.2427 20.3029 33.0713 20.3029 34.9567C18.4742 34.9567 16.6314 34.9567 14.7461 34.9567C14.7461 33.128 14.7461 31.2994 14.7461 29.4141C15.4407 29.4141 16.1353 29.4141 16.9433 29.4141Z" fill="#704332"/>
<path d="M23.7055 31.0442C24.1449 31.0442 24.4426 31.0442 24.8254 31.0442C24.8254 30.5056 24.8254 29.9811 24.8254 29.4141C25.605 29.4141 26.2996 29.4141 27.0509 29.4141C27.0509 31.2427 27.0509 33.0713 27.0509 34.9708C25.2223 34.9708 23.3795 34.9708 21.4941 34.9708C21.4941 33.1422 21.4941 31.3136 21.4941 29.4282C22.1887 29.4282 22.8975 29.4282 23.6913 29.4282C23.7055 29.9386 23.7055 30.463 23.7055 31.0442Z" fill="#704332"/>
</svg>
