<svg width="34" height="38" viewBox="0 0 34 38" fill="none" xmlns="http://www.w3.org/2000/svg">
<path d="M25.0893 0.907911C25.2443 1.7051 25.3772 2.48015 25.5101 3.25519C25.5544 3.49878 25.6429 3.58735 25.8865 3.56521C26.108 3.54307 26.3294 3.56521 26.5951 3.56521C26.5951 4.05238 26.6173 4.49526 26.5951 4.93815C26.5951 5.15959 26.6616 5.24817 26.883 5.3146C28.0567 5.62462 29.2081 5.97892 30.3818 6.31109C30.4704 6.33323 30.5589 6.37752 30.6918 6.42181C30.5589 6.93112 30.4261 7.39615 30.2932 7.88332C30.0496 8.76909 29.8282 9.63271 29.5625 10.5185C29.496 10.7621 29.5403 10.8728 29.7618 10.9835C30.9354 11.6257 32.0869 12.29 33.2827 12.9543C33.0834 13.3308 32.9062 13.7072 32.7069 14.0615C31.4669 16.3867 30.2268 18.6897 29.0088 21.0148C28.9203 21.192 28.8981 21.4798 28.9203 21.6791C29.2746 23.6278 29.6289 25.5544 30.0053 27.503C30.0718 27.8352 30.1161 28.1895 30.1825 28.5438C29.5182 28.6767 28.876 28.8095 28.2338 28.9203C27.7688 29.0088 27.2816 29.1196 26.8166 29.186C26.6394 29.2081 26.573 29.2967 26.573 29.4739C26.5951 29.7175 26.573 29.961 26.573 30.2489C25.8865 30.2489 25.2222 30.2711 24.5579 30.2489C24.2257 30.2268 24.115 30.3596 24.0486 30.6475C23.8271 31.5776 23.5614 32.4855 23.2957 33.4598C23.0964 33.4155 22.9192 33.3712 22.7421 33.3048C22.5206 33.2162 22.4099 33.2827 22.2992 33.482C21.6127 34.7885 20.9262 36.0728 20.2398 37.3793C20.1955 37.4458 20.1512 37.5122 20.1069 37.6008C19.199 37.0915 18.2911 36.5822 17.4053 36.095C15.2573 34.8992 13.1315 33.6813 10.9835 32.4855C10.8285 32.3969 10.5849 32.3526 10.3856 32.3969C9.4777 32.5519 8.59193 32.7291 7.66188 32.9062C7.52901 32.1533 7.37401 31.4226 7.26328 30.6918C7.219 30.3596 7.08613 30.2046 6.70968 30.2268C6.17822 30.2489 5.62462 30.2268 5.02672 30.2268C5.02672 29.9168 5.04887 29.6289 5.02672 29.3632C5.00458 29.2524 4.93815 29.0974 4.82743 29.031C3.83094 28.4552 2.83445 27.9016 1.83797 27.348C1.24007 27.0159 0.620036 26.6837 0 26.3294C0.487172 25.4215 0.930055 24.58 1.39508 23.7164C1.83797 22.8749 2.34728 22.0334 2.74588 21.1477C3.03375 20.4833 3.2109 19.7747 3.4102 19.0661C3.72022 17.9368 4.03024 16.8296 4.31811 15.6781C4.38454 15.4345 4.3624 15.1466 4.31811 14.8809C3.91952 12.6222 3.47663 10.3635 3.05589 8.08262C2.90088 7.28543 2.74588 6.46609 2.61301 5.6689C2.59087 5.53604 2.56872 5.40318 2.54658 5.22602C3.36591 5.07101 4.18525 4.89386 5.02672 4.73885C5.02672 4.34026 5.02672 3.94166 5.02672 3.49878C5.73534 3.49878 6.42181 3.49878 7.10827 3.49878C7.63973 3.49878 7.63973 3.49878 7.7726 2.98946C8.03833 1.99297 8.30406 1.01863 8.59193 0C9.14554 0.155009 9.65485 0.287874 10.1863 0.442883C12.3343 1.06292 14.4823 1.68296 16.6303 2.28085C16.9403 2.36943 17.3167 2.34728 17.6489 2.28085C20.0183 1.83797 22.3656 1.35079 24.7129 0.907911C24.8236 0.930055 24.9343 0.907911 25.0893 0.907911ZM6.20036 28.9424C12.6 28.9424 18.9554 28.9424 25.3108 28.9424C25.3108 20.8598 25.3108 12.7772 25.3108 4.71671C18.9333 4.71671 12.5557 4.71671 6.20036 4.71671C6.20036 12.7993 6.20036 20.8598 6.20036 28.9424ZM12.8879 31.9319C15.1687 33.2162 17.361 34.4563 19.5976 35.6964C20.1069 34.7442 20.5941 33.8141 21.1034 32.8619C19.3761 32.3526 17.671 31.8654 15.9659 31.3783C15.8774 31.3561 15.7666 31.3561 15.6781 31.3783C14.7702 31.5554 13.8844 31.7326 12.8879 31.9319ZM29.1196 12.2457C29.0974 12.3122 29.0753 12.3564 29.0531 12.4007C28.7874 13.3529 28.5217 14.3051 28.2781 15.2573C28.1674 15.6781 27.9459 16.0988 27.9902 16.4974C28.0567 17.3167 28.2781 18.1361 28.4552 19.0661C29.4517 17.1839 30.4261 15.368 31.4004 13.5301C30.6032 13.0651 29.8725 12.6665 29.1196 12.2457ZM5.02672 20.0848C4.98244 20.0626 4.96029 20.0626 4.916 20.0405C4.65027 20.6826 4.34026 21.3027 4.09667 21.967C3.89737 22.4985 3.78665 23.0521 3.65379 23.5835C3.43234 24.425 3.18876 25.2886 2.94517 26.1744C3.65379 26.3737 4.31811 26.573 5.02672 26.7723C5.02672 24.4914 5.02672 22.2992 5.02672 20.0848ZM28.566 27.3923C28.3224 26.0415 28.0566 24.6907 27.8131 23.3621C27.3702 24.0486 26.9937 24.735 26.6394 25.4215C26.6173 25.4658 26.5951 25.5101 26.5951 25.5544C26.5951 26.2851 26.5951 27.0159 26.5951 27.7688C27.2816 27.6581 27.9016 27.5252 28.566 27.3923ZM28.2338 10.0756C28.4774 9.16768 28.721 8.28192 28.9646 7.35186C28.1674 7.13042 27.3923 6.90898 26.5951 6.68754C26.5951 7.48473 26.5951 8.23763 26.5951 8.96838C26.5951 9.05696 26.6616 9.18983 26.7501 9.23411C27.2373 9.54413 27.7023 9.78772 28.2338 10.0756ZM12.5779 2.67944C11.6035 2.39157 10.6071 2.1037 9.58842 1.81582C9.43341 2.39157 9.2784 2.94517 9.12339 3.52092C9.96487 3.52092 10.7621 3.52092 11.5371 3.52092C12.0686 3.52092 12.445 3.27734 12.5779 2.67944ZM20.2176 3.29948C20.2176 3.32162 20.2176 3.36591 20.2176 3.38806C21.502 3.72022 22.8085 3.47663 24.1593 3.56521C24.0928 3.18876 24.0486 2.87874 23.9821 2.56872C22.6756 2.81231 21.4577 3.05589 20.2176 3.29948ZM19.1104 30.7139C19.1104 30.7361 19.1104 30.7582 19.0883 30.8025C19.9297 31.0461 20.7712 31.2897 21.5906 31.5111C21.657 31.5333 21.7677 31.5111 21.7899 31.4668C22.0113 31.0904 22.2106 30.6918 22.432 30.2711C22.0113 30.2711 21.657 30.2268 21.3248 30.2711C20.5941 30.4039 19.8633 30.5589 19.1104 30.7139ZM4.98244 10.6735C5.00458 10.6735 5.00458 10.6735 5.02672 10.6735C5.02672 9.21197 5.02672 7.75046 5.02672 6.2668C4.73885 6.33323 4.49526 6.37752 4.20739 6.44395C4.47312 7.86118 4.71671 9.2784 4.98244 10.6735ZM26.6394 22.3656C27.3702 21.4798 27.4809 20.7491 27.0823 19.6419C26.883 20.5941 26.4623 21.4134 26.6394 22.3656ZM10.0977 30.2489C10.0977 30.2711 10.0756 30.3154 10.0756 30.3375C10.3856 30.4925 10.6735 30.7804 10.9835 30.7804C11.5593 30.7804 12.1129 30.6032 12.6665 30.4925C11.825 30.1161 10.9392 30.3375 10.0977 30.2489ZM26.9716 11.0278C27.1045 11.7585 27.2373 12.4229 27.348 13.0872C27.5252 12.6222 27.6581 12.1571 27.7688 11.6921C27.7909 11.6035 27.7466 11.4707 27.6802 11.4264C27.4809 11.2935 27.2595 11.1828 26.9716 11.0278Z" fill="#704332"/>
<path d="M10.0983 30.25C10.9619 30.3164 11.8256 30.1171 12.667 30.4936C12.1134 30.6043 11.5377 30.7815 10.9841 30.7815C10.6741 30.7815 10.3862 30.4936 10.0762 30.3386C10.0762 30.3164 10.0762 30.2943 10.0983 30.25Z" fill="white"/>
<path d="M15.8333 16.6287C13.4196 16.6287 11.0059 16.6287 8.59214 16.6287C8.45927 16.6287 8.32641 16.6287 8.19354 16.6066C7.88353 16.5401 7.72852 16.3408 7.72852 16.0308C7.72852 15.7208 7.90567 15.5437 8.21569 15.4772C8.30426 15.4551 8.39284 15.4551 8.48142 15.4551C13.3753 15.4551 18.2691 15.4551 23.163 15.4551C23.6502 15.4551 23.8938 15.6322 23.9159 15.9865C23.938 16.2966 23.783 16.5401 23.4509 16.6066C23.3401 16.6287 23.2073 16.6287 23.0744 16.6287C20.6828 16.6287 18.247 16.6287 15.8333 16.6287Z" fill="#704332"/>
<path d="M15.8543 19.1314C13.3963 19.1314 10.9383 19.1314 8.48032 19.1314C8.01529 19.1314 7.74956 18.9099 7.79385 18.5113C7.81599 18.2235 7.99315 18.0463 8.28102 18.002C8.3696 17.9799 8.45817 18.002 8.54675 18.002C13.4406 18.002 18.3345 18.002 23.2283 18.002C23.3833 18.002 23.5383 18.002 23.6491 18.0463C23.8927 18.157 24.0034 18.3785 23.9812 18.6442C23.9369 18.9099 23.7819 19.0649 23.5383 19.1314C23.4276 19.1535 23.3169 19.1535 23.2062 19.1535C20.7482 19.1314 18.3123 19.1314 15.8543 19.1314Z" fill="#704332"/>
<path d="M15.8107 20.2168C18.2908 20.2168 20.771 20.2168 23.2511 20.2168C23.694 20.2168 23.9376 20.4382 23.9155 20.8368C23.8933 21.1469 23.7162 21.3019 23.4283 21.3683C23.3619 21.3904 23.2954 21.3683 23.229 21.3683C18.2908 21.3683 13.3527 21.3683 8.41455 21.3683C7.99381 21.3683 7.75022 21.1911 7.72808 20.8368C7.70594 20.4825 7.92738 20.2168 8.30383 20.2168C8.94601 20.2168 9.61033 20.2168 10.2525 20.2168C12.1126 20.2168 13.9727 20.2168 15.8107 20.2168Z" fill="#704332"/>
<path d="M15.8782 14.4158C13.4202 14.4158 10.9843 14.4158 8.52634 14.4158C8.03917 14.4158 7.77344 14.2165 7.77344 13.8401C7.77344 13.5301 7.92845 13.3308 8.23846 13.2643C8.34919 13.2422 8.45991 13.2422 8.57063 13.2422C13.4202 13.2422 18.2698 13.2422 23.1193 13.2422C23.2522 13.2422 23.3629 13.2422 23.4958 13.2643C23.7837 13.3086 23.9608 13.4858 23.983 13.7736C24.0051 14.0837 23.8501 14.283 23.5622 14.3715C23.4515 14.3937 23.3186 14.3937 23.1858 14.3937C20.7499 14.4158 18.3141 14.4158 15.8782 14.4158Z" fill="#704332"/>
<path d="M7.72852 25.5322C7.72852 24.1593 8.88001 23.0742 10.3194 23.0742C11.7366 23.0742 12.8881 24.1593 12.9102 25.5101C12.9324 26.8387 11.7366 27.9681 10.3194 27.9681C8.88001 27.9681 7.72852 26.883 7.72852 25.5322ZM10.2751 23.805C10.1644 24.0043 10.0979 24.2036 9.98722 24.27C9.72149 24.4029 9.50005 24.5579 9.4779 24.89C9.45576 25.2222 9.69935 25.3994 9.94293 25.5322C10.1422 25.6429 10.3858 25.7094 10.563 25.8644C10.6737 25.953 10.7844 26.1523 10.7401 26.263C10.718 26.3737 10.5187 26.5287 10.3858 26.5509C10.1201 26.573 9.85436 26.5066 9.52219 26.4623C9.50005 26.4844 9.45576 26.573 9.38933 26.6837C9.63291 26.7723 9.85436 26.8609 10.0758 26.9494C10.0758 27.0602 10.0979 27.193 10.1201 27.3259C10.2529 27.3259 10.3415 27.3038 10.4522 27.3038C10.4301 27.2816 10.408 27.2373 10.3858 27.2152C10.4965 27.0823 10.563 26.9273 10.6958 26.8387C10.9394 26.6837 11.1609 26.5066 11.183 26.1965C11.2051 25.8644 11.0059 25.6872 10.7401 25.5322C10.5187 25.4215 10.2972 25.3329 10.0979 25.2001C9.98722 25.1336 9.8765 24.9565 9.89864 24.8679C9.94293 24.7572 10.0979 24.6243 10.2308 24.6022C10.4744 24.58 10.718 24.6465 10.9837 24.6686C11.0059 24.6243 11.0501 24.5357 11.0944 24.4472C10.8508 24.27 10.3637 24.3586 10.5187 23.8271C10.3637 23.805 10.2751 23.805 10.2751 23.805Z" fill="#704332"/>
<path d="M13.0884 8.43664C13.3319 7.75017 13.5755 7.13014 13.7748 6.48796C13.8855 6.15579 14.0627 5.97864 14.417 6.04507C14.4834 6.06722 14.572 6.04507 14.7049 6.06722C14.5499 6.46581 14.417 6.86441 14.262 7.24086C13.9963 7.94947 13.7084 8.63594 13.4648 9.34455C13.3762 9.58814 13.2434 9.63243 13.0219 9.63243C12.7562 9.65457 12.6898 9.49956 12.6233 9.32241C12.2912 8.4145 11.959 7.50659 11.6047 6.62082C11.5604 6.5101 11.5161 6.39938 11.4054 6.28866C11.4054 7.39587 11.4054 8.48093 11.4054 9.58814C10.8297 9.721 10.7854 9.69886 10.5196 9.25597C10.1875 8.72451 9.85531 8.19306 9.52315 7.6616C9.47886 7.59516 9.43457 7.52873 9.32385 7.37372C9.32385 8.17091 9.32385 8.87952 9.32385 9.61028C9.08026 9.61028 8.85882 9.61028 8.61523 9.61028C8.61523 8.43664 8.61523 7.263 8.61523 6.1115C9.10241 5.97864 9.21313 6.00078 9.47886 6.39938C9.85531 6.99727 10.2318 7.57302 10.6968 8.17091C10.6968 7.48444 10.6968 6.77583 10.6968 6.06722C11.1618 6.06722 11.5826 6.04507 12.0033 6.08936C12.114 6.08936 12.2469 6.24437 12.269 6.35509C12.5126 6.97513 12.7119 7.59516 12.9555 8.2152C12.9998 8.25949 13.0441 8.32592 13.0884 8.43664Z" fill="#704332"/>
<path d="M7.72852 11.1591C7.72852 10.9819 7.72852 10.8048 7.72852 10.6055C13.2203 10.6055 18.6899 10.6055 24.1816 10.6055C24.1816 10.7826 24.1816 10.9598 24.1816 11.1591C18.712 11.1591 13.2424 11.1591 7.72852 11.1591Z" fill="#704332"/>
<path d="M14.7266 24.6455C14.7266 24.3798 14.7266 24.114 14.7266 23.8262C17.7382 23.8262 20.7276 23.8262 23.7614 23.8262C23.7614 24.0919 23.7614 24.3576 23.7614 24.6455C20.7498 24.6455 17.7603 24.6455 14.7266 24.6455Z" fill="#704332"/>
<path d="M16.1218 26.8827C16.3211 26.7941 16.5425 26.772 16.6311 26.6613C16.7639 26.5063 16.7196 26.307 16.5203 26.1298C16.4096 26.0191 16.3432 25.7977 16.3653 25.6648C16.3875 25.5319 16.5425 25.3769 16.6754 25.3105C16.7418 25.2883 16.8968 25.4655 16.9854 25.5762C17.0518 25.6427 17.0518 25.7312 17.0961 25.7977C18.0926 25.5319 18.2476 25.5762 18.469 26.2184C18.5355 26.0855 18.6019 25.9748 18.6905 25.8641C18.7569 25.7977 18.8676 25.7534 18.9341 25.7534C19.0005 25.7534 19.0669 25.8641 19.0669 25.9527C19.1555 26.2848 19.3327 26.3956 19.6648 26.4177C19.7534 26.4177 19.8641 26.5727 19.9084 26.6834C19.9305 26.7941 19.8863 26.927 19.9305 27.082C20.0191 26.9049 20.1077 26.7056 20.1963 26.5284C20.307 26.3291 20.3956 26.0855 20.5284 25.9084C20.927 25.4212 21.7021 25.5098 21.9457 26.0855C21.99 26.1963 21.9235 26.3513 21.9014 26.462C21.7907 26.4177 21.6578 26.3734 21.6135 26.307C21.3921 26.0191 21.1928 25.9748 20.9492 26.2184C20.772 26.3956 20.6613 26.6613 20.5284 26.8827C20.4399 27.0377 20.3734 27.237 20.2849 27.392C20.152 27.6356 19.9084 27.7685 19.6648 27.6578C19.5098 27.5913 19.4655 27.3478 19.3548 27.1927C19.3769 27.1706 19.3991 27.1485 19.4212 27.1263C19.0448 27.0156 18.6683 26.9492 18.2919 26.8163C18.1812 26.772 18.0704 26.5948 18.004 26.462C17.8711 26.152 17.6718 26.0855 17.3618 26.152C17.1847 26.1963 17.0961 26.2627 17.0961 26.462C17.0961 26.5948 17.0518 26.7499 17.0075 26.8827C16.8968 27.1927 16.6975 27.4363 16.3432 27.4806C16.011 27.5249 15.7674 27.392 15.5903 27.0377C15.5682 27.1485 15.5681 27.2149 15.5239 27.2592C15.4574 27.3478 15.3689 27.4142 15.3024 27.4806C15.236 27.392 15.1253 27.3035 15.1474 27.2149C15.1696 26.7056 15.3689 26.2627 15.701 25.8641C15.7674 25.7977 15.9003 25.7312 15.9446 25.7534C16.0332 25.7977 16.1218 25.9084 16.1439 25.997C16.166 26.2627 16.1439 26.5284 16.1218 26.8827Z" fill="#704332"/>
<path d="M17.9818 7.81676C17.9818 8.5918 17.716 9.16755 17.0738 9.52186C16.4981 9.83188 15.9002 9.80973 15.3466 9.47757C14.5273 8.96826 14.2837 7.72818 14.8151 6.84242C15.3023 6.04523 16.3209 5.75735 17.1181 6.24452C17.7382 6.59883 18.0039 7.17458 17.9818 7.81676ZM17.3396 7.86105C17.2731 7.63961 17.2289 7.37388 17.1181 7.17458C16.8081 6.59883 16.0109 6.51025 15.568 6.97528C15.1473 7.44031 15.1252 8.32608 15.568 8.76896C15.7009 8.90182 15.9223 9.01254 16.1216 9.05683C16.8081 9.12327 17.2953 8.63609 17.3396 7.86105Z" fill="#704332"/>
<path d="M22.3223 6.08984C23.0752 6.08984 23.7616 6.08984 24.4924 6.08984C24.4924 6.31129 24.4924 6.48844 24.4924 6.73202C24.0052 6.73202 23.5181 6.73202 23.0309 6.73202C23.0309 6.97561 23.0309 7.17491 23.0309 7.44064C23.4516 7.44064 23.8724 7.44064 24.3152 7.44064C24.3152 7.68422 24.3152 7.86138 24.3152 8.10496C23.8945 8.10496 23.4738 8.10496 23.0309 8.10496C23.0309 8.41498 23.0309 8.68071 23.0309 8.99073C23.5181 8.99073 23.9831 8.99073 24.4924 8.99073C24.4924 9.23431 24.4924 9.41147 24.4924 9.63291C23.7616 9.63291 23.053 9.63291 22.3223 9.63291C22.3223 8.45927 22.3223 7.28563 22.3223 6.08984Z" fill="#704332"/>
<path d="M21.8778 6.86365C21.2356 6.70864 20.6377 6.42077 20.1284 7.0408C19.7962 7.4394 19.7962 8.21444 20.1284 8.65733C20.6377 9.32165 21.2799 8.98949 21.8999 8.81233C21.9663 8.98949 22.0328 9.18879 22.0992 9.36594C21.4349 9.85311 20.217 9.80882 19.6855 9.27736C19.0655 8.65733 18.999 7.32868 19.5526 6.62006C20.0619 5.95574 21.1913 5.80073 22.0992 6.31004C22.0328 6.4872 21.9663 6.66435 21.8778 6.86365Z" fill="#704332"/>
<path d="M7.5293 6.06836C7.77288 6.06836 7.97218 6.06836 8.19362 6.06836C8.19362 7.242 8.19362 8.41564 8.19362 9.61142C7.99432 9.61142 7.77288 9.61142 7.5293 9.61142C7.5293 8.45993 7.5293 7.28629 7.5293 6.06836Z" fill="#704332"/>
<path d="M18.2676 6.08984C18.489 6.08984 18.6883 6.08984 18.9098 6.08984C18.9098 7.28563 18.9098 8.43712 18.9098 9.63291C18.6883 9.63291 18.489 9.63291 18.2676 9.63291C18.2676 8.45927 18.2676 7.28563 18.2676 6.08984Z" fill="#704332"/>
</svg>
