<svg width="36" height="41" viewBox="0 0 36 41" fill="none" xmlns="http://www.w3.org/2000/svg">
<path d="M20.6862 37.2881H2.25291C4.35529 29.0846 4.70328 20.8857 2.04026 12.6592H27.7425C26.6136 16.1961 26.077 19.8804 26.1524 23.5765C26.6019 23.5116 27.0559 23.4793 27.5105 23.4798C27.6603 23.4798 27.8101 23.4798 27.96 23.4798C27.8875 20.087 28.1654 16.7218 29.4703 13.527C30.0962 11.9894 29.9198 10.9444 28.8251 9.80499C28.0808 9.0316 27.4766 8.13621 26.8073 7.29606C27.2495 8.46306 25.7512 9.78658 27.3848 10.7648H23.5184C24.4367 10.1503 25.4878 9.80269 25.1109 8.46306C24.2095 9.26868 22.7644 9.38377 22.4527 10.7648H19.8477L21.3991 8.36408L14.3573 4.12653C13.9997 4.65824 13.7242 5.14621 13.3714 5.57434C13.1678 5.80462 13.0371 6.08519 12.9943 6.38344C12.9515 6.6817 12.9985 6.98539 13.1297 7.25924C13.5599 8.41012 13.8909 9.56101 14.2631 10.728L14.0021 10.919C13.7943 10.7096 13.4825 10.5324 13.3979 10.2861C12.7648 8.44465 12.1897 6.57561 11.5783 4.71808C11.2231 3.64546 10.8606 2.57743 10.4884 1.44727L2.52598 3.79047C2.89088 4.94135 3.21953 5.99326 3.5965 7.19018C2.18767 6.80118 1.84694 7.76102 1.4023 8.58966C0.953891 9.34703 0.5505 10.1278 0.194032 10.9283C-0.0161585 11.4198 -0.0567805 11.9623 0.0780382 12.4773C2.14417 18.2617 2.56223 24.1957 1.75511 30.201C1.39505 32.8158 0.711169 35.3846 0.145701 37.9787C-0.0572874 38.9109 0.387354 39.3597 1.35397 39.1825C1.6827 39.1286 2.01608 39.1048 2.34958 39.1111C9.18835 39.1111 16.0271 39.1111 22.8659 39.1111C22.0405 38.6199 21.3043 38.0042 20.6862 37.2881V37.2881Z" fill="#704332"/>
<path d="M26.6678 0.365981L24.5196 0C24.3359 1.04731 24.1716 1.97722 24 2.96008C25.9864 2.23962 26.6533 1.58592 26.6678 0.365981Z" fill="#704332"/>
<path d="M25.6773 5.59766C24.6092 6.53678 22.8162 6.63345 23.0361 8.62909C23.9833 7.66234 25.8779 7.65544 25.6773 5.59766Z" fill="#704332"/>
<path d="M26.1574 3.06445C23.8085 4.17851 23.5983 4.38567 23.5645 5.63553C25.7297 4.73324 26.2516 4.21534 26.1574 3.06445Z" fill="#704332"/>
<path d="M19.6656 13.9291C18.9165 13.7703 18.3341 14.0166 18.02 14.6979C17.8818 15.0098 17.8742 15.3603 17.9986 15.6775C18.1231 15.9946 18.3702 16.2544 18.6894 16.4035C18.9251 16.4961 19.1674 16.573 19.4143 16.6337C19.4868 18.871 17.6333 20.7769 15.0452 21.2211C13.1458 21.5433 11.6041 20.5052 10.8381 18.3876C10.739 18.1137 10.6568 17.8352 10.5795 17.5567C10.4224 17.0066 10.3837 16.5531 11.0169 16.1549C11.65 15.7567 11.6476 14.8797 11.1764 14.3641C10.972 14.1037 10.6713 13.9269 10.3353 13.8697C9.99924 13.8124 9.6529 13.8789 9.36639 14.0557C8.70909 14.3987 8.52302 15.1283 8.82267 15.7958C9.00874 16.2124 9.10298 16.6636 9.26489 17.0894C9.66362 18.1482 9.96085 19.26 10.5118 20.2428C10.8293 20.8102 11.2839 21.2976 11.8381 21.6646C12.3923 22.0316 13.0303 22.2677 13.6992 22.3536C16.8238 22.8577 21.0503 20.0334 20.6008 16.3851C20.5939 16.0699 20.6288 15.7551 20.7047 15.4483C20.7683 15.1165 20.696 14.7742 20.5027 14.4916C20.3094 14.2091 20.0099 14.0078 19.6656 13.9291Z" fill="#704332"/>
<path d="M18.2031 31.6846C18.205 30.0161 18.7263 28.3856 19.7011 26.9994C20.6759 25.6131 22.0603 24.5333 23.6794 23.8964C25.2984 23.2596 27.0794 23.0944 28.797 23.4217C30.5147 23.749 32.0918 24.5541 33.3291 25.7352C34.5664 26.9163 35.4081 28.4203 35.748 30.0571C36.0879 31.6938 35.9105 33.3898 35.2384 34.9306C34.5663 36.4714 33.4296 37.7877 31.9721 38.7132C30.5146 39.6386 28.8017 40.1316 27.0501 40.1298C25.8868 40.1292 24.7351 39.9102 23.6608 39.4853C22.5864 39.0605 21.6106 38.4381 20.7889 37.6538C19.9673 36.8695 19.316 35.9386 18.8723 34.9143C18.4286 33.8901 18.2012 32.7926 18.2031 31.6846V31.6846ZM25.8418 36.3664H28.3115V32.9137H31.9218V30.4739H28.297V27.0212H25.8273V30.4739H22.159C22.159 30.536 22.1469 30.5751 22.1469 30.6143C22.1469 31.3048 22.1469 31.9953 22.1469 32.6859C22.1469 32.8516 22.2049 32.8907 22.3716 32.8907C23.4398 32.8907 24.5103 32.8907 25.5784 32.8907H25.82L25.8418 36.3664Z" fill="#704332"/>
</svg>
