<svg width="31" height="28" viewBox="0 0 31 28" fill="none" xmlns="http://www.w3.org/2000/svg">
<path d="M28.0937 28H2.90631C2.13551 28 1.39628 27.6839 0.851239 27.1213C0.3062 26.5586 0 25.7955 0 24.9998L0 3.00015C0 2.20446 0.3062 1.44136 0.851239 0.878723C1.39628 0.316086 2.13551 0 2.90631 0H28.0937C28.8645 0 29.6037 0.316086 30.1488 0.878723C30.6938 1.44136 31 2.20446 31 3.00015V24.9998C31 25.7955 30.6938 26.5586 30.1488 27.1213C29.6037 27.6839 28.8645 28 28.0937 28ZM7.7495 5.50045C7.27065 5.50045 6.80256 5.64702 6.40441 5.92165C6.00627 6.19627 5.69595 6.5866 5.5127 7.04328C5.32946 7.49996 5.28151 8.00247 5.37493 8.48728C5.46835 8.97209 5.69893 9.41742 6.03753 9.76694C6.37612 10.1165 6.80752 10.3545 7.27716 10.4509C7.74681 10.5474 8.23361 10.4979 8.67601 10.3087C9.1184 10.1196 9.49652 9.79921 9.76256 9.38821C10.0286 8.97721 10.1706 8.49401 10.1706 7.9997C10.1706 7.33686 9.9155 6.70116 9.46146 6.23246C9.00742 5.76376 8.39161 5.50045 7.7495 5.50045ZM7.7495 11.5007C7.27065 11.5007 6.80256 11.6473 6.40441 11.9219C6.00627 12.1966 5.69595 12.5869 5.5127 13.0436C5.32946 13.5003 5.28151 14.0028 5.37493 14.4876C5.46835 14.9724 5.69893 15.4177 6.03753 15.7672C6.37612 16.1168 6.80752 16.3548 7.27716 16.4512C7.74681 16.5477 8.23361 16.4982 8.67601 16.309C9.1184 16.1198 9.49652 15.7995 9.76256 15.3885C10.0286 14.9775 10.1706 14.4943 10.1706 14C10.1707 13.6717 10.1082 13.3466 9.98658 13.0433C9.86497 12.7399 9.68665 12.4643 9.46182 12.2321C9.23699 11.9999 8.97004 11.8157 8.67624 11.69C8.38243 11.5644 8.06752 11.5007 7.7495 11.5007ZM7.7495 17.501C7.27065 17.501 6.80256 17.6476 6.40441 17.9222C6.00627 18.1969 5.69595 18.5872 5.5127 19.0439C5.32946 19.5006 5.28151 20.0031 5.37493 20.4879C5.46835 20.9727 5.69893 21.418 6.03753 21.7675C6.37612 22.1171 6.80752 22.3551 7.27716 22.4515C7.74681 22.548 8.23361 22.4985 8.67601 22.3093C9.1184 22.1201 9.49652 21.7998 9.76256 21.3888C10.0286 20.9778 10.1706 20.4946 10.1706 20.0003C10.1707 19.672 10.1082 19.3469 9.98658 19.0436C9.86497 18.7402 9.68665 18.4646 9.46182 18.2324C9.23699 18.0002 8.97004 17.816 8.67624 17.6903C8.38243 17.5647 8.06752 17.501 7.7495 17.501ZM25.1864 9.00045V7C25.1864 6.90154 25.1676 6.80404 25.1311 6.71307C25.0946 6.62211 25.0411 6.53945 24.9736 6.46983C24.9062 6.4002 24.8261 6.34498 24.738 6.3073C24.6499 6.26962 24.5554 6.25022 24.46 6.25022H12.3546C12.2592 6.25022 12.1648 6.26962 12.0767 6.3073C11.9885 6.34498 11.9085 6.4002 11.841 6.46983C11.7736 6.53945 11.7201 6.62211 11.6836 6.71307C11.6471 6.80404 11.6283 6.90154 11.6283 7V9.00045C11.6283 9.09891 11.6471 9.19641 11.6836 9.28737C11.7201 9.37834 11.7736 9.46099 11.841 9.53062C11.9085 9.60024 11.9885 9.65547 12.0767 9.69315C12.1648 9.73083 12.2592 9.75022 12.3546 9.75022H24.46C24.5555 9.75036 24.6501 9.73107 24.7383 9.69345C24.8265 9.65583 24.9067 9.60062 24.9743 9.53099C25.0418 9.46135 25.0954 9.37865 25.132 9.28761C25.1686 9.19658 25.1874 9.099 25.1874 9.00045H25.1864ZM25.1864 15.0007V13.0003C25.1864 12.8014 25.1098 12.6107 24.9736 12.4701C24.8374 12.3295 24.6527 12.2505 24.46 12.2505H12.3546C12.162 12.2505 11.9772 12.3295 11.841 12.4701C11.7048 12.6107 11.6283 12.8014 11.6283 13.0003V15.0007C11.6283 15.1996 11.7048 15.3903 11.841 15.5309C11.9772 15.6715 12.162 15.7505 12.3546 15.7505H24.46C24.5556 15.7507 24.6502 15.7313 24.7385 15.6936C24.8268 15.656 24.9071 15.6007 24.9746 15.5309C25.0422 15.4612 25.0958 15.3783 25.1323 15.2872C25.1688 15.196 25.1875 15.0983 25.1874 14.9997L25.1864 15.0007ZM25.1864 21.001V19.0048C25.1864 18.8059 25.1098 18.6152 24.9736 18.4746C24.8374 18.334 24.6527 18.255 24.46 18.255H12.3546C12.162 18.255 11.9772 18.334 11.841 18.4746C11.7048 18.6152 11.6283 18.8059 11.6283 19.0048V21.0052C11.6283 21.2041 11.7048 21.3948 11.841 21.5354C11.9772 21.676 12.162 21.755 12.3546 21.755H24.46C24.5559 21.7551 24.6509 21.7357 24.7395 21.6977C24.828 21.6598 24.9085 21.6041 24.9761 21.5339C25.0437 21.4637 25.0972 21.3804 25.1334 21.2888C25.1697 21.1971 25.188 21.099 25.1874 21L25.1864 21.001Z" fill="#704332"/>
</svg>
