<svg width="31" height="28" viewBox="0 0 31 28" fill="none" xmlns="http://www.w3.org/2000/svg">
<path d="M27.849 27.4993H2.881C2.11691 27.4993 1.38412 27.1958 0.843825 26.6555C0.303533 26.1152 0 25.3824 0 24.6183L0 3.49233C0 2.72824 0.303533 1.99545 0.843825 1.45515C1.38412 0.914861 2.11691 0.611328 2.881 0.611328H27.849C28.6131 0.611328 29.3459 0.914861 29.8862 1.45515C30.4265 1.99545 30.73 2.72824 30.73 3.49233V24.6183C30.73 25.3824 30.4265 26.1152 29.8862 26.6555C29.3459 27.1958 28.6131 27.4993 27.849 27.4993ZM7.682 5.89333C7.20732 5.89333 6.74331 6.03409 6.34863 6.2978C5.95395 6.56152 5.64634 6.93634 5.46469 7.37489C5.28304 7.81343 5.23551 8.29599 5.32812 8.76155C5.42072 9.2271 5.6493 9.65474 5.98494 9.99038C6.32059 10.326 6.74823 10.5546 7.21378 10.6472C7.67934 10.7398 8.1619 10.6923 8.60044 10.5106C9.03898 10.329 9.41381 10.0214 9.67753 9.6267C9.94124 9.23202 10.082 8.768 10.082 8.29333C10.082 7.65681 9.82914 7.04636 9.37906 6.59627C8.92897 6.14618 8.31852 5.89333 7.682 5.89333ZM7.682 11.6553C7.20732 11.6553 6.74331 11.7961 6.34863 12.0598C5.95395 12.3235 5.64634 12.6983 5.46469 13.1369C5.28304 13.5754 5.23551 14.058 5.32812 14.5235C5.42072 14.9891 5.6493 15.4167 5.98494 15.7524C6.32059 16.088 6.74823 16.3166 7.21378 16.4092C7.67934 16.5018 8.1619 16.4543 8.60044 16.2726C9.03898 16.091 9.41381 15.7834 9.67753 15.3887C9.94124 14.994 10.082 14.53 10.082 14.0553C10.0821 13.7401 10.0202 13.4279 9.8996 13.1366C9.77905 12.8453 9.60228 12.5806 9.37941 12.3576C9.15654 12.1347 8.89192 11.9578 8.60067 11.8371C8.30942 11.7164 7.99726 11.6543 7.682 11.6543V11.6553ZM7.682 17.4173C7.20732 17.4173 6.74331 17.5581 6.34863 17.8218C5.95395 18.0855 5.64634 18.4603 5.46469 18.8989C5.28304 19.3374 5.23551 19.82 5.32812 20.2855C5.42072 20.7511 5.6493 21.1787 5.98494 21.5144C6.32059 21.85 6.74823 22.0786 7.21378 22.1712C7.67934 22.2638 8.1619 22.2163 8.60044 22.0346C9.03898 21.853 9.41381 21.5454 9.67753 21.1507C9.94124 20.756 10.082 20.292 10.082 19.8173C10.0821 19.5021 10.0202 19.1899 9.8996 18.8986C9.77905 18.6073 9.60228 18.3426 9.37941 18.1196C9.15654 17.8967 8.89192 17.7198 8.60067 17.5991C8.30942 17.4784 7.99726 17.4163 7.682 17.4163V17.4173ZM24.967 9.25433V7.33333C24.967 7.23878 24.9484 7.14515 24.9122 7.0578C24.876 6.97044 24.823 6.89107 24.7561 6.82421C24.6893 6.75735 24.6099 6.70432 24.5225 6.66813C24.4352 6.63195 24.3416 6.61333 24.247 6.61333H12.247C12.1524 6.61333 12.0588 6.63195 11.9715 6.66813C11.8841 6.70432 11.8047 6.75735 11.7379 6.82421C11.671 6.89107 11.618 6.97044 11.5818 7.0578C11.5456 7.14515 11.527 7.23878 11.527 7.33333V9.25433C11.527 9.34888 11.5456 9.44251 11.5818 9.52986C11.618 9.61722 11.671 9.69659 11.7379 9.76344C11.8047 9.8303 11.8841 9.88334 11.9715 9.91952C12.0588 9.9557 12.1524 9.97433 12.247 9.97433H24.247C24.3416 9.97446 24.4354 9.95593 24.5228 9.91981C24.6103 9.88368 24.6898 9.83067 24.7568 9.7638C24.8237 9.69693 24.8769 9.61751 24.9131 9.53009C24.9493 9.44267 24.968 9.34896 24.968 9.25433H24.967ZM24.967 15.0163V13.0953C24.967 12.9044 24.8911 12.7212 24.7561 12.5862C24.6211 12.4512 24.438 12.3753 24.247 12.3753H12.247C12.056 12.3753 11.8729 12.4512 11.7379 12.5862C11.6029 12.7212 11.527 12.9044 11.527 13.0953V15.0163C11.527 15.2073 11.6029 15.3904 11.7379 15.5254C11.8729 15.6605 12.056 15.7363 12.247 15.7363H24.247C24.3417 15.7365 24.4355 15.7179 24.5231 15.6817C24.6106 15.6455 24.6901 15.5924 24.7571 15.5254C24.8241 15.4585 24.8772 15.3789 24.9134 15.2914C24.9496 15.2039 24.9681 15.11 24.968 15.0153L24.967 15.0163ZM24.967 20.7783V18.8613C24.967 18.6704 24.8911 18.4872 24.7561 18.3522C24.6211 18.2172 24.438 18.1413 24.247 18.1413H12.247C12.056 18.1413 11.8729 18.2172 11.7379 18.3522C11.6029 18.4872 11.527 18.6704 11.527 18.8613V20.7823C11.527 20.9733 11.6029 21.1564 11.7379 21.2914C11.8729 21.4265 12.056 21.5023 12.247 21.5023H24.247C24.3421 21.5025 24.4362 21.4838 24.524 21.4473C24.6118 21.4109 24.6915 21.3574 24.7585 21.29C24.8256 21.2226 24.8786 21.1426 24.9145 21.0546C24.9505 20.9666 24.9687 20.8724 24.968 20.7773L24.967 20.7783Z" fill="#704332"/>
</svg>
