<svg width="35" height="28" viewBox="0 0 35 28" fill="none" xmlns="http://www.w3.org/2000/svg">
<path d="M7 19.25H1.75C1.28587 19.25 0.840752 19.4344 0.512563 19.7626C0.184374 20.0908 0 20.5359 0 21L0 26.25C0 26.7141 0.184374 27.1592 0.512563 27.4874C0.840752 27.8156 1.28587 28 1.75 28H7C7.46413 28 7.90925 27.8156 8.23744 27.4874C8.56563 27.1592 8.75 26.7141 8.75 26.25V21C8.75 20.5359 8.56563 20.0908 8.23744 19.7626C7.90925 19.4344 7.46413 19.25 7 19.25ZM5.68773 14.8755H16.1877V17.5H18.8132V14.8755H29.3132V17.5H31.9387V14.3509C31.9382 13.7939 31.7167 13.2598 31.3228 12.8659C30.9289 12.472 30.3948 12.2505 29.8377 12.25H18.8123V8.75H21C21.4641 8.75 21.9092 8.56563 22.2374 8.23744C22.5656 7.90925 22.75 7.46413 22.75 7V1.75C22.75 1.28587 22.5656 0.840752 22.2374 0.512563C21.9092 0.184374 21.4641 0 21 0L14 0C13.5359 0 13.0908 0.184374 12.7626 0.512563C12.4344 0.840752 12.25 1.28587 12.25 1.75V7C12.25 7.46413 12.4344 7.90925 12.7626 8.23744C13.0908 8.56563 13.5359 8.75 14 8.75H16.1877V12.25H5.1632C4.60615 12.2505 4.07206 12.472 3.67816 12.8659C3.28427 13.2598 3.06276 13.7939 3.06227 14.3509V17.5H5.68773V14.8755ZM20.1255 19.2509H14.8755C14.4115 19.2509 13.9665 19.4352 13.6384 19.7632C13.3102 20.0912 13.1257 20.536 13.1255 21V26.25C13.1255 26.7141 13.3098 27.1592 13.638 27.4874C13.9662 27.8156 14.4113 28 14.8755 28H20.1255C20.5896 28 21.0347 27.8156 21.3629 27.4874C21.6911 27.1592 21.8755 26.7141 21.8755 26.25V21C21.8755 20.7702 21.8302 20.5426 21.7423 20.3303C21.6543 20.118 21.5254 19.9251 21.3629 19.7626C21.2004 19.6001 21.0075 19.4712 20.7952 19.3832C20.5828 19.2953 20.3553 19.2509 20.1255 19.2509ZM33.2509 19.2509H28C27.536 19.2509 27.0911 19.4352 26.7629 19.7632C26.4347 20.0912 26.2502 20.536 26.25 21V26.25C26.25 26.7141 26.4344 27.1592 26.7626 27.4874C27.0908 27.8156 27.5359 28 28 28H33.25C33.7141 28 34.1592 27.8156 34.4874 27.4874C34.8156 27.1592 35 26.7141 35 26.25V21C35 20.5359 34.8156 20.0908 34.4874 19.7626C34.1592 19.4344 33.7141 19.25 33.25 19.25L33.2509 19.2509Z" fill="#704332"/>
</svg>
