<svg width="38" height="30" viewBox="0 0 38 30" fill="none" xmlns="http://www.w3.org/2000/svg">
<path d="M7.95312 20.625H2.32812C1.83084 20.625 1.35393 20.8225 1.0023 21.1742C0.650669 21.5258 0.453125 22.0027 0.453125 22.5L0.453125 28.125C0.453125 28.6223 0.650669 29.0992 1.0023 29.4508C1.35393 29.8025 1.83084 30 2.32812 30H7.95312C8.45041 30 8.92732 29.8025 9.27895 29.4508C9.63058 29.0992 9.82812 28.6223 9.82812 28.125V22.5C9.82812 22.0027 9.63058 21.5258 9.27895 21.1742C8.92732 20.8225 8.45041 20.625 7.95312 20.625ZM6.54712 15.938H17.7971V18.75H20.6101V15.938H31.8601V18.75H34.6731V15.376C34.6726 14.7792 34.4353 14.2069 34.0132 13.7849C33.5912 13.3629 33.019 13.1255 32.4221 13.125H20.6091V9.375H22.9531C23.4504 9.375 23.9273 9.17746 24.2789 8.82583C24.6306 8.47419 24.8281 7.99728 24.8281 7.5V1.875C24.8281 1.37772 24.6306 0.900805 24.2789 0.549175C23.9273 0.197544 23.4504 0 22.9531 0L15.4531 0C14.9558 0 14.4789 0.197544 14.1273 0.549175C13.7757 0.900805 13.5781 1.37772 13.5781 1.875V7.5C13.5781 7.99728 13.7757 8.47419 14.1273 8.82583C14.4789 9.17746 14.9558 9.375 15.4531 9.375H17.7971V13.125H5.98513C5.38829 13.1255 4.81604 13.3629 4.39401 13.7849C3.97198 14.2069 3.73465 14.7792 3.73412 15.376V18.75H6.54712V15.938ZM22.0161 20.626H16.3911C15.894 20.626 15.4173 20.8234 15.0657 21.1748C14.7141 21.5262 14.5164 22.0029 14.5161 22.5V28.125C14.5161 28.6223 14.7137 29.0992 15.0653 29.4508C15.4169 29.8025 15.8938 30 16.3911 30H22.0161C22.5134 30 22.9903 29.8025 23.3419 29.4508C23.6936 29.0992 23.8911 28.6223 23.8911 28.125V22.5C23.8911 22.2538 23.8426 22.01 23.7484 21.7825C23.6542 21.555 23.5161 21.3483 23.3419 21.1742C23.1678 21.0001 22.9611 20.862 22.7337 20.7677C22.5062 20.6735 22.2624 20.625 22.0161 20.625V20.626ZM36.0791 20.626H30.4531C29.956 20.626 29.4793 20.8234 29.1277 21.1748C28.7761 21.5262 28.5784 22.0029 28.5781 22.5V28.125C28.5781 28.6223 28.7757 29.0992 29.1273 29.4508C29.4789 29.8025 29.9558 30 30.4531 30H36.0781C36.5754 30 37.0523 29.8025 37.4039 29.4508C37.7556 29.0992 37.9531 28.6223 37.9531 28.125V22.5C37.9531 22.0027 37.7556 21.5258 37.4039 21.1742C37.0523 20.8225 36.5754 20.625 36.0781 20.625L36.0791 20.626Z" fill="#704332"/>
</svg>
