<svg width="30" height="30" viewBox="0 0 30 30" fill="none" xmlns="http://www.w3.org/2000/svg">
<path d="M27.1874 30H2.81256C2.06662 30 1.35124 29.6613 0.82378 29.0585C0.296323 28.4557 0 27.6381 0 26.7856L0 3.21445C0 2.36192 0.296323 1.54431 0.82378 0.941489C1.35124 0.338664 2.06662 0 2.81256 0H27.1874C27.9334 0 28.6488 0.338664 29.1762 0.941489C29.7037 1.54431 30 2.36192 30 3.21445V26.7856C30 27.6381 29.7037 28.4557 29.1762 29.0585C28.6488 29.6613 27.9334 30 27.1874 30ZM7.49951 5.89334C7.03611 5.89334 6.58312 6.05038 6.19782 6.34462C5.81252 6.63886 5.51221 7.05707 5.33487 7.54637C5.15754 8.03567 5.11114 8.57408 5.20154 9.09352C5.29195 9.61296 5.5151 10.0901 5.84277 10.4646C6.17044 10.8391 6.58792 11.0941 7.04242 11.1974C7.49691 11.3008 7.96801 11.2477 8.39613 11.0451C8.82426 10.8424 9.19018 10.4992 9.44764 10.0588C9.70509 9.61844 9.8425 9.10072 9.8425 8.57111C9.8425 7.86092 9.59565 7.17982 9.15625 6.67764C8.71686 6.17546 8.12091 5.89334 7.49951 5.89334ZM7.49951 12.3222C7.03611 12.3222 6.58312 12.4793 6.19782 12.7735C5.81252 13.0677 5.51221 13.486 5.33487 13.9753C5.15754 14.4646 5.11114 15.003 5.20154 15.5224C5.29195 16.0418 5.5151 16.519 5.84277 16.8935C6.17044 17.268 6.58792 17.523 7.04242 17.6263C7.49691 17.7296 7.96801 17.6766 8.39613 17.4739C8.82426 17.2713 9.19018 16.928 9.44764 16.4877C9.70509 16.0473 9.8425 15.5296 9.8425 15C9.84263 14.6483 9.78212 14.2999 9.66443 13.9749C9.54674 13.6499 9.37418 13.3546 9.1566 13.1058C8.93902 12.857 8.68069 12.6597 8.39636 12.525C8.11203 12.3904 7.80728 12.3222 7.49951 12.3222ZM7.49951 18.7511C7.03611 18.7511 6.58312 18.9082 6.19782 19.2024C5.81252 19.4966 5.51221 19.9149 5.33487 20.4042C5.15754 20.8934 5.11114 21.4319 5.20154 21.9513C5.29195 22.4707 5.5151 22.9479 5.84277 23.3224C6.17044 23.6969 6.58792 23.9519 7.04242 24.0552C7.49691 24.1585 7.96801 24.1055 8.39613 23.9028C8.82426 23.7002 9.19018 23.3569 9.44764 22.9166C9.70509 22.4762 9.8425 21.9585 9.8425 21.4289C9.84263 21.0771 9.78212 20.7288 9.66443 20.4038C9.54674 20.0788 9.37418 19.7835 9.1566 19.5347C8.93902 19.2859 8.68069 19.0886 8.39636 18.9539C8.11203 18.8193 7.80728 18.7511 7.49951 18.7511ZM24.3739 9.64333V7.5C24.3739 7.39451 24.3557 7.29004 24.3204 7.19258C24.2851 7.09511 24.2333 7.00655 24.168 6.93196C24.1028 6.85736 24.0253 6.79819 23.94 6.75782C23.8547 6.71745 23.7633 6.69667 23.671 6.69667H11.9561C11.8638 6.69667 11.7724 6.71745 11.6871 6.75782C11.6018 6.79819 11.5243 6.85736 11.459 6.93196C11.3938 7.00655 11.342 7.09511 11.3067 7.19258C11.2714 7.29004 11.2532 7.39451 11.2532 7.5V9.64333C11.2532 9.74883 11.2714 9.85329 11.3067 9.95076C11.342 10.0482 11.3938 10.1368 11.459 10.2114C11.5243 10.286 11.6018 10.3451 11.6871 10.3855C11.7724 10.4259 11.8638 10.4467 11.9561 10.4467H23.671C23.7634 10.4468 23.8549 10.4261 23.9403 10.3858C24.0257 10.3455 24.1033 10.2864 24.1687 10.2118C24.234 10.1372 24.2859 10.0486 24.3213 9.95101C24.3567 9.85348 24.3749 9.74892 24.3749 9.64333H24.3739ZM24.3739 16.0722V13.9289C24.3739 13.7158 24.2998 13.5115 24.168 13.3608C24.0362 13.2102 23.8574 13.1256 23.671 13.1256H11.9561C11.7696 13.1256 11.5909 13.2102 11.459 13.3608C11.3272 13.5115 11.2532 13.7158 11.2532 13.9289V16.0722C11.2532 16.2853 11.3272 16.4896 11.459 16.6403C11.5909 16.7909 11.7696 16.8756 11.9561 16.8756H23.671C23.7635 16.8757 23.8551 16.855 23.9405 16.8146C24.026 16.7742 24.1036 16.715 24.169 16.6403C24.2344 16.5655 24.2862 16.4768 24.3216 16.3791C24.3569 16.2815 24.375 16.1768 24.3749 16.0711L24.3739 16.0722ZM24.3739 22.5011V20.3622C24.3739 20.1492 24.2998 19.9449 24.168 19.7942C24.0362 19.6435 23.8574 19.5589 23.671 19.5589H11.9561C11.7696 19.5589 11.5909 19.6435 11.459 19.7942C11.3272 19.9449 11.2532 20.1492 11.2532 20.3622V22.5056C11.2532 22.7186 11.3272 22.923 11.459 23.0736C11.5909 23.2243 11.7696 23.3089 11.9561 23.3089H23.671C23.7638 23.3091 23.8557 23.2882 23.9414 23.2476C24.0271 23.2069 24.105 23.1472 24.1704 23.072C24.2358 22.9968 24.2876 22.9076 24.3227 22.8094C24.3578 22.7112 24.3755 22.6061 24.3749 22.5L24.3739 22.5011Z" fill="#704332"/>
</svg>
