<svg width="30" height="33" viewBox="0 0 30 33" fill="none" xmlns="http://www.w3.org/2000/svg">
<path d="M26.8888 3.40046C26.5356 3.99153 26.2265 4.53182 25.8871 5.0561C25.838 5.13226 25.6664 5.1582 25.5494 5.1582C23.2683 5.15489 20.9871 5.14735 18.706 5.13557C15.3948 5.12012 12.0835 5.10393 8.77219 5.08701C8.67174 5.08701 8.5713 5.08701 8.44106 5.08701V27.5331H27.157C27.1614 27.431 27.1702 27.3339 27.1702 27.2367C27.1702 21.9199 27.1693 16.6035 27.1675 11.2874C27.163 11.0415 27.2307 10.7998 27.3623 10.592C27.795 9.88727 28.205 9.16872 28.6244 8.45624C28.6747 8.3707 28.7282 8.28681 28.8198 8.13891C28.8325 8.28295 28.8452 8.35966 28.8452 8.43251C28.8452 14.9546 28.8452 21.4768 28.8452 27.9989C28.8452 28.7489 28.3706 29.2219 27.62 29.2235C25.8448 29.2261 24.0694 29.2261 22.2938 29.2235C22.0973 29.2235 22.0035 29.2655 21.9594 29.4779C21.8358 30.0718 21.6801 30.6584 21.5411 31.2489C21.3573 32.0271 20.7905 32.3897 20.0195 32.2048C13.6913 30.6882 7.36305 29.1698 1.03482 27.6496C0.182162 27.4415 -0.145655 26.8995 0.0590924 26.0485C1.58339 19.6912 3.10897 13.3349 4.63584 6.97941C4.91693 5.80832 5.19839 4.63741 5.48022 3.46669C5.67227 2.67584 6.2374 2.33809 7.03431 2.52849C8.15187 2.79615 9.26833 3.06768 10.3875 3.32872C10.584 3.37473 10.7851 3.39806 10.9869 3.39825C16.1841 3.40157 21.3814 3.40157 26.5786 3.39825L26.8888 3.40046Z" fill="#704332"/>
<path d="M23.2271 6.36652C22.8584 6.98463 22.5246 7.53375 22.2006 8.08894C21.801 8.77272 21.8893 9.49182 22.4214 9.94437C23.1013 10.526 24.0025 10.4063 24.5235 9.63531C24.9043 9.07184 25.2486 8.48409 25.6007 7.90185C26.4236 6.54092 27.2487 5.18108 28.0588 3.81242C28.6019 2.89464 28.1769 1.86925 27.1758 1.64849C26.7177 1.5475 26.3138 1.6805 25.9848 2.00059C25.9216 2.0647 25.8451 2.11425 25.7608 2.1458C25.6764 2.17735 25.5862 2.19013 25.4964 2.18327C24.955 2.17388 24.4136 2.17996 23.864 2.17996C24.6316 0.243406 26.4346 -0.421611 28.0389 0.259962C29.869 1.03756 30.5031 3.07952 29.4523 4.7909C28.726 5.97414 27.9959 7.15516 27.2735 8.34115C26.8386 9.05473 26.433 9.78708 25.9843 10.4935C25.2144 11.7038 23.8546 12.1955 22.5074 11.7788C21.1344 11.355 20.2403 10.1204 20.2806 8.70539C20.2977 8.10716 20.5709 7.60163 20.8176 7.07293C21.083 6.5056 21.4373 6.2567 22.0704 6.35824C22.4252 6.41343 22.7972 6.36652 23.2271 6.36652Z" fill="#704332"/>
<path d="M17.7841 22.7195C16.0917 22.7195 14.4006 22.7195 12.7107 22.7195C12.2648 22.7195 11.9651 22.5027 11.8884 22.139C11.8645 22.0356 11.8628 21.9283 11.8834 21.8242C11.9039 21.7201 11.9463 21.6215 12.0076 21.535C12.069 21.4484 12.1479 21.3758 12.2393 21.3219C12.3307 21.268 12.4325 21.2341 12.538 21.2223C12.6019 21.2157 12.6663 21.2135 12.7306 21.2157C16.1132 21.2157 19.4955 21.2157 22.8774 21.2157C23.4956 21.2157 23.8741 21.6881 23.6898 22.2229C23.5794 22.5385 23.3079 22.7195 22.9128 22.7195C21.7367 22.7195 20.5601 22.7195 19.3835 22.7195H17.7841Z" fill="#704332"/>
<path d="M17.7837 19.0628C16.0744 19.0628 14.365 19.0628 12.6556 19.0628C12.2473 19.0628 11.9454 18.82 11.8803 18.4557C11.8448 18.2827 11.8727 18.1027 11.9589 17.9486C12.0451 17.7945 12.1839 17.6766 12.3499 17.6163C12.4538 17.5808 12.563 17.5632 12.6728 17.5644C16.0915 17.5619 19.5104 17.5619 22.9295 17.5644C23.4002 17.5644 23.7391 17.8911 23.7336 18.3233C23.728 18.7554 23.4024 19.0611 22.9399 19.0617C21.2214 19.0654 19.5026 19.0657 17.7837 19.0628Z" fill="#704332"/>
<path d="M15.1915 15.4219C14.3548 15.4219 13.5182 15.4219 12.6815 15.4219C12.1964 15.4197 11.8708 15.1217 11.8691 14.6802C11.8675 14.2387 12.1931 13.9252 12.6738 13.9241C14.3662 13.9211 16.0587 13.9211 17.7511 13.9241C18.2478 13.9241 18.5651 14.2376 18.5673 14.7006C18.5673 15.115 18.2158 15.4235 17.7296 15.4246C16.8846 15.4246 16.0392 15.4246 15.1909 15.4246L15.1915 15.4219Z" fill="#704332"/>
</svg>
