<svg width="25" height="25" viewBox="0 0 25 25" fill="none" xmlns="http://www.w3.org/2000/svg">
<path d="M8.38789 7.73047C8.50576 7.7454 8.62363 7.75437 8.74 7.77378C9.1799 7.8419 9.59272 8.02942 9.93361 8.31596C10.7423 8.99854 11.5524 9.67813 12.3521 10.3727C12.8335 10.797 13.1331 11.3908 13.1887 12.0305C13.2442 12.6702 13.0515 13.3068 12.6505 13.808C12.6356 13.8274 12.6237 13.8468 12.6132 13.8602L11.6226 13.0059C11.7485 12.8456 11.8303 12.6551 11.8598 12.4533C11.8972 12.246 11.8792 12.0326 11.8077 11.8346C11.7361 11.6365 11.6136 11.4609 11.4525 11.3256C10.6806 10.6674 9.90725 10.0107 9.1324 9.35551C8.9706 9.2129 8.77324 9.11682 8.56127 9.07747C8.34931 9.03812 8.13065 9.05697 7.92853 9.13203C7.72641 9.20708 7.54837 9.33553 7.41331 9.50374C7.27825 9.67195 7.19122 9.87364 7.16146 10.0874C7.12905 10.28 7.14737 10.4777 7.21462 10.6611C7.28186 10.8444 7.3957 11.0071 7.54491 11.1329C7.95521 11.4959 8.37745 11.8469 8.79819 12.1978C8.82628 12.2174 8.84679 12.246 8.8563 12.2789C8.86581 12.3118 8.86373 12.347 8.85041 12.3786C8.71361 12.8519 8.6972 13.352 8.80267 13.8333C8.8047 13.8647 8.8047 13.8961 8.80267 13.9274C8.77432 13.905 8.75045 13.8901 8.72807 13.8707C8.06164 13.3041 7.39471 12.738 6.72729 12.1725C6.44712 11.9407 6.22159 11.6498 6.06683 11.3206C5.91208 10.9913 5.83192 10.632 5.83209 10.2681C5.82828 9.71179 6.00949 9.17001 6.34715 8.72815C6.68481 8.28628 7.15974 7.96944 7.69709 7.82755C7.75827 7.81112 7.81795 7.79171 7.87912 7.77229L8.38789 7.73047Z" fill="#704332"/>
<path d="M16.7347 15.2922C16.7168 15.4221 16.7064 15.5535 16.6825 15.6835C16.5961 16.178 16.3622 16.6348 16.0114 16.9937C15.6607 17.3526 15.2096 17.5967 14.7175 17.6939C14.3636 17.7757 13.9955 17.7744 13.6421 17.6899C13.2887 17.6054 12.9598 17.4401 12.6809 17.207C11.8365 16.5169 11.0059 15.8119 10.1893 15.092C9.92396 14.8549 9.71467 14.5617 9.57661 14.2336C9.43854 13.9055 9.37517 13.5508 9.39107 13.1951C9.38836 12.6738 9.55312 12.1653 9.86105 11.7448C9.89089 11.7045 9.92371 11.6657 9.95355 11.6283L10.9457 12.4797C10.7582 12.7224 10.668 13.0266 10.6928 13.3325C10.7176 13.6383 10.8557 13.9239 11.08 14.1331C11.8688 14.8122 12.6645 15.4868 13.4672 16.157C13.6284 16.3017 13.8281 16.3966 14.042 16.4302C14.2559 16.4639 14.475 16.4348 14.6728 16.3466C14.8751 16.273 15.0524 16.1437 15.1844 15.9735C15.3164 15.8033 15.3977 15.5992 15.4188 15.3848C15.4479 15.1948 15.4278 15.0005 15.3604 14.8206C15.293 14.6407 15.1805 14.4811 15.0338 14.3572C14.619 13.9927 14.1953 13.6402 13.7731 13.2847C13.7518 13.272 13.7356 13.2521 13.7274 13.2287C13.7192 13.2052 13.7196 13.1796 13.7283 13.1563C13.8878 12.6616 13.909 12.1327 13.7895 11.6268C13.7877 11.612 13.7877 11.5969 13.7895 11.582C13.8223 11.6074 13.8492 11.6253 13.873 11.6463L15.8141 13.3057C16.2575 13.6692 16.5612 14.1754 16.6735 14.738C16.6789 14.7535 16.6864 14.768 16.6959 14.7813L16.7347 15.2922Z" fill="#704332"/>
<path d="M25 16.6014V0H0V25H24.9985V19.5349H22.2219V22.198H13.8756V19.5409H12.5328V22.198H2.82138V15.3035H8.35522V19.396H9.68161V15.2139C9.42051 14.9152 9.20715 14.5746 8.98037 14.2819V14.5925C8.70882 14.3969 8.48502 14.258 8.28658 14.0892C8.20154 14.019 8.1165 13.9488 8.03294 13.8771H2.82436V2.79305H8.38506V7.01995C8.86256 7.06855 9.32225 7.22757 9.72786 7.48447V2.80051H22.201V8.37316H12.6044V9.86677C13.026 10.2385 13.3555 10.7033 13.5668 11.2245C13.5847 11.1005 13.6011 10.978 13.6309 10.7659L13.9293 11.0094V9.77715H22.2846V16.6014H25Z" fill="#704332"/>
</svg>
