<svg width="40" height="26" viewBox="0 0 40 26" fill="none" xmlns="http://www.w3.org/2000/svg">
<path d="M20.0326 25.0163C14.8208 25.0163 9.60912 25.0163 4.39739 25.0163C2.21498 25.0163 0.456026 23.5179 0.0651466 21.4007C0.0325733 21.1401 0 20.8469 0 20.5537C0 15.1792 0 9.80456 0 4.42997C0 2.24756 1.43322 0.488599 3.55049 0.0651466C3.87622 0.0325733 4.16938 0 4.46254 0C14.8208 0 25.1792 0 35.5375 0C38.1433 0 40 1.88925 40 4.49511C40 9.83713 40 15.2117 40 20.5537C40 23.0945 38.1107 25.0163 35.57 25.0163C30.4235 25.0163 25.2117 25.0163 20.0326 25.0163ZM2.24756 9.41368C14.1042 9.41368 25.9609 9.41368 37.8176 9.41368C37.8176 9.28339 37.8176 9.18567 37.8176 9.08795C37.8176 7.557 37.8176 6.05863 37.8176 4.52769C37.8176 3.12704 36.9055 2.21498 35.4723 2.21498C25.1792 2.21498 14.8534 2.21498 4.56026 2.21498C3.15961 2.21498 2.21498 3.12704 2.21498 4.52769C2.21498 6.05863 2.21498 7.58958 2.21498 9.12052C2.21498 9.21824 2.24756 9.31596 2.24756 9.41368ZM29.4137 11.6938C29.3485 11.8241 29.316 11.8893 29.2508 11.9544C28.7622 12.9316 28.2736 13.9088 27.8176 14.886C27.7524 15.0489 27.6547 15.1466 27.4593 15.1466C26.873 15.2117 26.3192 15.3094 25.7329 15.4072C25.1466 15.5049 24.5603 15.57 23.9088 15.6678C24.0065 15.7655 24.0717 15.8632 24.1368 15.9283C24.9186 16.6775 25.6678 17.4267 26.4495 18.1759C26.5798 18.3062 26.6124 18.4365 26.5798 18.5993C26.4821 19.1531 26.3844 19.7068 26.2866 20.2932C26.1889 20.8795 26.0912 21.4984 25.9935 22.1173C26.1238 22.0521 26.1889 22.0195 26.2866 21.987C27.2313 21.4984 28.2085 20.9772 29.1531 20.4886C29.3485 20.3909 29.4788 20.3909 29.6743 20.4886C30.5863 20.9772 31.5309 21.4658 32.443 21.9544C32.5407 22.0195 32.6384 22.0521 32.7687 22.1173C32.7687 21.987 32.7362 21.8892 32.7362 21.7915C32.5407 20.7492 32.3778 19.6743 32.1824 18.6319C32.1498 18.4365 32.1824 18.2736 32.3453 18.1433C32.9316 17.5896 33.5179 17.0033 34.1042 16.4495C34.3648 16.2215 34.5928 15.9609 34.886 15.6678C34.7557 15.6352 34.658 15.6352 34.5603 15.6026C33.4853 15.4397 32.4104 15.2769 31.3355 15.1466C31.1726 15.114 31.0749 15.0489 31.0098 14.9186C30.7166 14.2997 30.4235 13.7134 30.1303 13.127C29.9023 12.671 29.6743 12.215 29.4137 11.6938ZM23.3225 18.3713C16.2541 18.3713 9.25081 18.3713 2.24756 18.3713C2.24756 18.9251 2.24756 19.4788 2.24756 20C9.28339 20 16.3192 20 23.3225 20C23.3225 19.4463 23.3225 18.9251 23.3225 18.3713Z" fill="#704332"/>
</svg>
