<svg width="27" height="23" viewBox="0 0 27 23" fill="none" xmlns="http://www.w3.org/2000/svg">
<path d="M17.4556 22.0474H9.93253C8.6224 22.0474 7.98438 21.4143 7.98438 20.0993C7.98438 19.4109 7.98438 18.7226 7.98438 18.0326C7.99249 16.7923 8.63376 16.1526 9.88545 16.1445C11.0511 16.1445 12.2167 16.1445 13.3824 16.1445H24.8797C26.4058 16.1445 26.9902 16.7371 26.9902 18.255V19.9515C26.9902 21.4614 26.3944 22.0491 24.8635 22.0491L17.4556 22.0474Z" fill="#704332"/>
<path d="M17.4621 0H25.0388C26.3376 0 26.9967 0.649384 26.9983 1.94815C26.9983 2.65436 26.9983 3.36056 26.9983 4.06677C26.9983 5.19345 26.3311 5.88017 25.1931 5.89641C23.9219 5.91589 22.6507 5.89641 21.3795 5.89641H10.0397C8.57856 5.89641 7.986 5.31034 7.98438 3.84435C7.98438 3.17387 7.98438 2.50175 7.98438 1.83126C7.99899 0.663995 8.66785 0 9.83187 0C12.3764 0 14.9198 0 17.4621 0Z" fill="#704332"/>
<path d="M17.4719 13.9768H9.94876C8.62564 13.9768 8.00061 13.3501 7.98438 12.0432C7.98438 11.3549 7.98438 10.666 7.98438 9.97658C7.99249 8.70379 8.63376 8.07551 9.92279 8.07227C11.9023 8.07227 13.8802 8.07227 15.8565 8.07227H24.9706C26.3717 8.07227 26.9951 8.70217 26.9967 10.113C26.9967 10.7834 26.9967 11.4539 26.9967 12.126C26.9967 13.2803 26.3116 13.9719 25.1541 13.9752C22.5939 13.9817 20.0321 13.9768 17.4719 13.9768Z" fill="#704332"/>
<path d="M5.93492 2.96769C5.92768 3.74272 5.6157 4.48376 5.06644 5.03059C4.51717 5.57742 3.77476 5.88611 2.99971 5.88992C2.21558 5.88093 1.46685 5.56212 0.916939 5.00308C0.367025 4.44404 0.0605798 3.69016 0.0644901 2.906C0.0802283 2.12896 0.400325 1.38915 0.955923 0.845694C1.51152 0.30224 2.25823 -0.00143048 3.03542 5.06663e-06C3.81252 0.0119775 4.55338 0.330648 5.09651 0.886553C5.63965 1.44246 5.94101 2.19052 5.93492 2.96769V2.96769Z" fill="#704332"/>
<path d="M5.93126 19.1694C5.91126 19.9454 5.5867 20.6823 5.02773 21.2209C4.46876 21.7596 3.72028 22.0566 2.94409 22.0478C2.16261 22.0362 1.41775 21.7146 0.873381 21.1538C0.32901 20.5929 0.0297167 19.8389 0.0413421 19.0574C0.0529674 18.2759 0.374559 17.531 0.93537 16.9867C1.49618 16.4423 2.25027 16.143 3.03176 16.1546C3.42099 16.1592 3.80541 16.2412 4.16266 16.3958C4.51992 16.5503 4.84285 16.7744 5.11268 17.055C5.38251 17.3355 5.59385 17.6669 5.73438 18.0299C5.87491 18.3929 5.94183 18.7803 5.93126 19.1694V19.1694Z" fill="#704332"/>
<path d="M5.93545 11.0086C5.93772 11.785 5.63461 12.5312 5.09155 13.0861C4.54848 13.641 3.809 13.9602 3.03271 13.9747C2.63981 13.9857 2.24866 13.9181 1.88225 13.7759C1.51584 13.6336 1.18156 13.4196 0.899033 13.1463C0.616509 12.8731 0.391445 12.5461 0.237063 12.1846C0.0826816 11.8231 0.00209592 11.4345 4.03435e-05 11.0414C-0.00201524 10.6484 0.0745008 10.2589 0.225093 9.89582C0.375685 9.53276 0.597317 9.20346 0.876968 8.92725C1.15662 8.65105 1.48865 8.43352 1.85355 8.28745C2.21845 8.14137 2.60887 8.0697 3.00186 8.07663C3.77843 8.08047 4.52213 8.39055 5.07141 8.93953C5.62069 9.4885 5.93119 10.232 5.93545 11.0086V11.0086Z" fill="#704332"/>
</svg>
