<svg width="21" height="32" viewBox="0 0 21 32" fill="none" xmlns="http://www.w3.org/2000/svg">
<path d="M20.0682 31.2018H0.93346C0.231941 30.9316 0 30.414 0 29.6767C0.0168191 22.1846 0.0168191 14.6925 0 7.20044C0 6.33372 0.569679 5.76974 1.4242 5.77543C5.59669 5.8031 9.76999 5.78764 13.9433 5.78764C15.8729 5.78764 17.8017 5.78764 19.7312 5.78764C19.9191 5.78045 20.106 5.81674 20.2776 5.89367C20.4491 5.9706 20.6005 6.08611 20.72 6.23118C20.9691 6.52334 20.9927 6.87003 20.9927 7.23218C20.9894 14.7145 20.9919 22.1966 21 29.6783C21.0016 30.414 20.7672 30.93 20.0682 31.2018ZM4.6616 16.7621C4.55045 16.7564 4.43908 16.7564 4.32793 16.7621C4.12471 16.7839 3.93487 16.8739 3.78931 17.0174C3.64376 17.1609 3.55106 17.3494 3.52631 17.5523C3.49779 17.7501 3.5382 17.9516 3.64075 18.1231C3.74331 18.2946 3.90176 18.4255 4.08948 18.4939C4.25333 18.5459 4.42465 18.5703 4.59649 18.5664C8.53379 18.5707 12.4714 18.5707 16.4092 18.5664C16.5307 18.5678 16.652 18.5569 16.7713 18.5338C16.982 18.4911 17.1703 18.3741 17.3018 18.204C17.4333 18.034 17.4992 17.8223 17.4875 17.6077C17.4732 17.3879 17.3801 17.1806 17.2252 17.0241C17.0702 16.8675 16.864 16.7722 16.6444 16.7556C16.537 16.7483 16.4279 16.7556 16.3392 16.7556C15.7329 14.0504 14.1061 12.4244 11.4139 11.8205C11.4139 11.6911 11.4188 11.5512 11.4139 11.4136C11.392 10.8822 11.016 10.4932 10.5187 10.4842C10.0215 10.4753 9.61455 10.8692 9.59095 11.4112C9.58444 11.5577 9.59095 11.7058 9.59095 11.8254C6.88335 12.4407 5.26709 14.0643 4.6616 16.7621ZM10.4984 24.6847H7.81925C6.78406 24.6847 5.74969 24.6782 4.7145 24.6847C3.95601 24.692 3.50515 25.4058 3.85835 26.03C4.05856 26.384 4.38083 26.5085 4.77635 26.5085C8.31813 26.5085 11.8599 26.5085 15.4017 26.5085C15.7158 26.5085 16.0308 26.5183 16.3449 26.5028C16.742 26.4841 17.0415 26.2977 17.1937 25.9193C17.3386 25.5612 17.2482 25.2405 16.996 24.9655C16.7909 24.7417 16.5174 24.6806 16.222 24.6814C14.3144 24.6852 12.4065 24.6863 10.4984 24.6847ZM6.95578 22.8577C7.66706 22.8577 8.37753 22.8577 9.08801 22.8577C9.64059 22.8577 10.0402 22.4874 10.0581 21.9755C10.076 21.4636 9.65931 21.0485 9.0994 21.0453C7.67792 21.0377 6.25643 21.0377 4.83495 21.0453C4.26527 21.0453 3.85835 21.4522 3.86405 21.9608C3.86975 22.4695 4.28643 22.856 4.85448 22.856C5.55518 22.8601 6.25589 22.8577 6.95578 22.8577Z" fill="#704332"/>
<path d="M10.4986 24.6843C12.4062 24.6843 14.3141 24.6843 16.2222 24.6843C16.5177 24.6843 16.7919 24.7445 16.9962 24.9683C17.2485 25.2434 17.3388 25.5641 17.1939 25.9221C17.0418 26.3006 16.7423 26.4869 16.3451 26.5057C16.031 26.5211 15.716 26.5114 15.4019 26.5114C11.8601 26.5114 8.31834 26.5114 4.77657 26.5114C4.38105 26.5114 4.05877 26.3868 3.85857 26.0328C3.50537 25.4086 3.95623 24.6949 4.71472 24.6876C5.74991 24.6786 6.78428 24.6876 7.81947 24.6876" fill="white"/>
<path d="M17.343 3.95152H4.05078C4.17692 3.89537 4.23959 3.862 4.30551 3.84003C8.07244 2.59596 11.8399 1.3527 15.6079 0.110258C16.5959 -0.215273 17.3365 0.322667 17.3422 1.36111C17.3471 2.21319 17.343 3.06445 17.343 3.95152Z" fill="#704332"/>
<path d="M6.55664 16.7416C6.92937 14.8934 8.66038 13.5677 10.6298 13.5962C12.4284 13.6238 14.1448 15.0326 14.4418 16.7416H6.55664Z" fill="#704332"/>
</svg>
