<svg width="30" height="30" viewBox="0 0 30 30" fill="none" xmlns="http://www.w3.org/2000/svg">
<path d="M19.3973 29.9974H11.0378C9.582 29.9974 8.87305 29.2683 8.87305 27.7538C8.87305 26.961 8.87305 26.1683 8.87305 25.3737C8.88207 23.9452 9.59463 23.2086 10.9855 23.1992C12.2807 23.1992 13.576 23.1992 14.8712 23.1992H27.6468C29.3425 23.1992 29.992 23.8817 29.992 25.6298V27.5837C29.992 29.3225 29.3299 29.9993 27.6288 29.9993L19.3973 29.9974Z" fill="#704332"/>
<path d="M19.4045 0H27.8236C29.2668 0 29.9992 0.747878 30.001 2.24363C30.001 3.05695 30.001 3.87027 30.001 4.68359C30.001 5.98116 29.2595 6.77204 27.995 6.79073C26.5825 6.81317 25.17 6.79073 23.7575 6.79073H11.1569C9.53329 6.79073 8.87485 6.11577 8.87305 4.42744C8.87305 3.65525 8.87305 2.8812 8.87305 2.10902C8.88928 0.764705 9.63251 0 10.9259 0C13.7533 0 16.5795 0 19.4045 0Z" fill="#704332"/>
<path d="M19.4154 18.3997H11.0558C9.58561 18.3997 8.89109 17.678 8.87305 16.1729C8.87305 15.3801 8.87305 14.5868 8.87305 13.7928C8.88207 12.3269 9.59463 11.6033 11.027 11.5996C13.2266 11.5996 15.4244 11.5996 17.6204 11.5996H27.7478C29.3046 11.5996 29.9974 12.3251 29.9992 13.9498C29.9992 14.722 29.9992 15.4942 29.9992 16.2682C29.9992 17.5976 29.2379 18.3941 27.9517 18.3978C25.1068 18.4053 22.2602 18.3997 19.4154 18.3997Z" fill="#704332"/>
<path d="M6.59541 3.41781C6.58736 4.31039 6.2407 5.16382 5.63037 5.7936C5.02004 6.42337 4.19508 6.77888 3.33386 6.78326C2.46256 6.7729 1.63058 6.40574 1.01953 5.76191C0.408477 5.11808 0.0679617 4.24986 0.0723067 3.34676C0.0897947 2.45187 0.445479 1.59984 1.06285 0.973963C1.68022 0.348082 2.50994 -0.00164745 3.37355 5.8351e-06C4.23704 0.0137942 5.06027 0.380798 5.66379 1.02102C6.2673 1.66124 6.60218 2.52277 6.59541 3.41781Z" fill="#704332"/>
<path d="M6.59004 26.6833C6.56782 27.577 6.20717 28.4257 5.58605 29.0461C4.96494 29.6664 4.13325 30.0084 3.27076 29.9983C2.40239 29.9849 1.57472 29.6146 0.969829 28.9687C0.364935 28.3228 0.0323668 27.4543 0.0452846 26.5543C0.0582025 25.6543 0.415548 24.7965 1.03871 24.1695C1.66187 23.5426 2.4998 23.1979 3.36817 23.2113C3.80067 23.2166 4.22784 23.311 4.62481 23.489C5.02178 23.667 5.38062 23.9251 5.68045 24.2482C5.98028 24.5713 6.21511 24.953 6.37127 25.3711C6.52742 25.7891 6.60179 26.2352 6.59004 26.6833Z" fill="#704332"/>
<path d="M6.59535 14.9807C6.59787 15.8749 6.26106 16.7343 5.65762 17.3734C5.05418 18.0124 4.23249 18.38 3.36988 18.3966C2.9333 18.4094 2.49867 18.3315 2.09152 18.1677C1.68437 18.0039 1.31292 17.7574 0.998986 17.4427C0.685052 17.128 0.434965 16.7514 0.26342 16.3351C0.0918741 15.9188 0.00232895 15.4712 4.48288e-05 15.0185C-0.00223929 14.5659 0.0827837 14.1173 0.250119 13.6992C0.417454 13.281 0.663726 12.9018 0.974468 12.5837C1.28521 12.2656 1.65415 12.0151 2.05963 11.8468C2.4651 11.6786 2.89892 11.5961 3.33561 11.604C4.19852 11.6085 5.0249 11.9656 5.63525 12.5978C6.24559 13.2301 6.59061 14.0864 6.59535 14.9807Z" fill="#704332"/>
</svg>
