<svg xmlns="http://www.w3.org/2000/svg" width="60" height="47" viewBox="0 0 60 47">
  <g id="Move_Course" data-name="Move Course" transform="translate(-500 -538)">
    <g id="Primary_007BFF" data-name="Primary / #007BFF" transform="translate(500 538)" fill="rgba(8,36,91,0.1)">
      <path d="M 54 46.5 L 6.000001907348633 46.5 C 2.967291831970215 46.5 0.5000019073486328 44.4813117980957 0.5000019073486328 42 L 0.5000019073486328 5 C 0.5000019073486328 2.51869010925293 2.967291831970215 0.5 6.000001907348633 0.5 L 54 0.5 C 57.03271102905273 0.5 59.5 2.51869010925293 59.5 5 L 59.5 42 C 59.5 44.4813117980957 57.03271102905273 46.5 54 46.5 Z" stroke="none"/>
      <path d="M 6.000003814697266 1 C 3.242992401123047 1 1.000003814697266 2.794391632080078 1.000003814697266 5 L 1.000003814697266 42 C 1.000003814697266 44.20560836791992 3.242992401123047 46 6.000003814697266 46 L 54 46 C 56.75701141357422 46 59 44.20560836791992 59 42 L 59 5 C 59 2.794391632080078 56.75701141357422 1 54 1 L 6.000003814697266 1 M 6.000003814697266 0 L 54 0 C 57.31371307373047 0 60 2.238571166992188 60 5 L 60 42 C 60 44.76142120361328 57.31371307373047 47 54 47 L 6.000003814697266 47 C 2.686290740966797 47 3.814697265625e-06 44.76142120361328 3.814697265625e-06 42 L 3.814697265625e-06 5 C 3.814697265625e-06 2.238571166992188 2.686290740966797 0 6.000003814697266 0 Z" stroke="none" fill="#07335f"/>
    </g>
    <g id="Group_16265" data-name="Group 16265" transform="translate(5)">
      <path id="Subtraction_10" data-name="Subtraction 10" d="M959.834-1879.5h-20a2.718,2.718,0,0,1-2.834-2.577v-31.352a2.718,2.718,0,0,1,2.834-2.577h24.994a2.952,2.952,0,0,1,2,.76,2.444,2.444,0,0,1,.836,1.816v16.945a9.51,9.51,0,0,0-2.381-.3,9.511,9.511,0,0,0-9.5,9.5,9.517,9.517,0,0,0,4.051,7.782Zm-19.886-34.168a.531.531,0,0,0-.567.516v30.475a.544.544,0,0,0,.567.516.557.557,0,0,0,.566-.516v-30.475A.543.543,0,0,0,939.947-1913.664Zm2.406,11.961v1.424h22.594v-1.455h-1.919c-.28-5.042-3-7.831-8.555-8.779.541-.747.541-1.358,0-1.871a1.132,1.132,0,0,0-.786-.344,1.234,1.234,0,0,0-.749.28c-.81.638-.468,1.412-.08,2.015a9.7,9.7,0,0,0-6.092,2.638,7.668,7.668,0,0,0-2.415,6.092Zm5.213-.879h-1.823a7.785,7.785,0,0,1,2.337-5.169,7.83,7.83,0,0,1,5.034-1.931c-4.264,1.466-5.924,3.589-5.549,7.1Z" transform="translate(-430 2460.779)" fill="#08245b"/>
      <path id="Path_58398" data-name="Path 58398" d="M460.137,369a.434.434,0,0,0-.292.1h-.017l-2.663,1.288-2.972-1.288a.507.507,0,0,0-.172-.034.559.559,0,0,0-.241-.069.492.492,0,0,0-.481.481V371.7a.481.481,0,1,0,.962,0V370.2l2.68,1.168a.436.436,0,0,0,.206.034.354.354,0,0,0,.258-.052l2.233-1.082V371.7a.481.481,0,1,0,.962,0v-2.216A.466.466,0,0,0,460.137,369Z" transform="translate(72.147 172)" fill="#08245b"/>
      <path id="Subtraction_11" data-name="Subtraction 11" d="M945.38-1899.24a8.389,8.389,0,0,1-8.38-8.38,8.389,8.389,0,0,1,8.38-8.38,8.389,8.389,0,0,1,8.38,8.38A8.389,8.389,0,0,1,945.38-1899.24Zm-4.535-8.948h0l-.845.838,3.325,3.325,7.136-7.136-.839-.839-6.3,6.292-2.479-2.479Z" transform="translate(-410 2481)" fill="#08245b"/>
    </g>
  </g>
</svg>
