<svg width="30" height="31" viewBox="0 0 30 31" fill="none" xmlns="http://www.w3.org/2000/svg">
<path d="M0.0181242 1.9043H3.17173C3.17173 2.27192 3.17173 2.61998 3.17173 2.96805C3.1823 4.22735 4.09304 5.01083 5.546 5.00952C5.93728 5.02693 6.32951 5.01953 6.71954 4.98736C7.7934 4.84918 8.54857 4.07483 8.57576 3.10884C8.58633 2.71776 8.57576 2.32667 8.57576 1.91342H9.75987C9.75987 2.30451 9.75987 2.68386 9.75987 3.06973C9.77044 4.19997 10.7053 5.01083 12.0254 5.00692C12.5359 5.00692 13.063 5.02647 13.5493 4.92479C13.9675 4.85201 14.3462 4.66244 14.6271 4.38537C14.908 4.10829 15.0754 3.7591 15.1035 3.39173C15.1654 2.90809 15.1141 2.41401 15.1141 1.9056H16.3571C16.3571 2.26931 16.3571 2.63954 16.3571 3.01107C16.3571 4.23517 17.2512 5.01213 18.6664 5.00692C19.1614 5.02469 19.6571 4.99628 20.145 4.92218C20.5875 4.8307 20.982 4.61427 21.2657 4.30725C21.5495 4.00022 21.7063 3.62019 21.7113 3.22747C21.7264 2.79988 21.7113 2.3723 21.7113 1.92385H24.8573V17.4161C24.2532 17.4161 23.6611 17.3861 23.0691 17.4161C21.2189 17.5282 19.6194 18.1592 18.2163 19.1981C18.0171 19.3419 17.7689 19.4257 17.5095 19.4367C12.9784 19.4497 8.4353 19.4458 3.89821 19.4458H3.37714V20.6791H16.7347C15.9401 21.7644 15.4824 23.0079 15.4056 24.2901H3.37865V25.5259H15.318C15.6835 26.3837 15.9312 27.2089 16.3752 27.9454C16.8192 28.682 17.4521 29.3103 17.9988 29.983C17.9041 29.9933 17.8088 29.9994 17.7134 30.0012H2.60988C1.08292 30.0012 0.00604139 29.0965 0.00453104 27.7851C0.00151035 19.2446 0 10.7063 0 2.17024C0 2.08811 0.0105724 2.01771 0.0181242 1.9043ZM3.37563 15.8257H21.4998V14.6276H3.37563V15.8257ZM3.34844 9.77947C3.34844 10.0702 3.37261 10.3413 3.34844 10.6086C3.30766 10.9462 3.47229 11.014 3.83477 11.014C9.53281 11.0053 15.2304 11.0053 20.9274 11.014H21.4998V9.77947H3.34844Z" fill="#704332"/>
<path d="M23.7648 29.986C22.1319 29.964 20.5744 29.3887 19.4286 28.3842C18.2828 27.3797 17.6406 26.0266 17.6406 24.617C17.6406 23.2074 18.2828 21.8543 19.4286 20.8498C20.5744 19.8453 22.1319 19.27 23.7648 19.248C27.2069 19.2559 30.0252 21.6897 29.9995 24.632C29.9845 26.0527 29.3218 27.4111 28.1549 28.4131C26.988 29.4151 25.4108 29.9802 23.7648 29.986ZM24.8613 25.4676C25.4262 25.4676 25.9186 25.4676 26.4185 25.4676C27.1133 25.4598 27.586 25.0687 27.5769 24.5134C27.5679 23.958 27.1012 23.6008 26.4261 23.5917C25.9186 23.5917 25.4096 23.5917 24.8613 23.5917C24.8613 23.1654 24.8613 22.7796 24.8613 22.3924C24.8613 21.7536 24.4264 21.3286 23.7814 21.326C23.1365 21.3234 22.691 21.7458 22.6864 22.3806C22.6864 22.7717 22.6864 23.1746 22.6864 23.5917C22.1412 23.5917 21.6609 23.5917 21.1761 23.5917C20.433 23.5917 19.9603 23.9659 19.9678 24.5381C19.9754 25.1104 20.4511 25.465 21.1987 25.4676C21.6896 25.4676 22.179 25.4676 22.6834 25.4676C22.6834 25.9695 22.6834 26.4101 22.6834 26.8521C22.6834 27.4908 23.1199 27.895 23.7845 27.895C24.449 27.895 24.8523 27.4869 24.8568 26.869C24.8644 26.4206 24.8613 25.9682 24.8613 25.4715V25.4676Z" fill="#704332"/>
<path d="M11.2036 1.88177C11.2036 1.49068 11.2036 1.09959 11.2036 0.708507C11.2142 0.245721 11.4785 0.018891 12.0041 0.00976562C12.3062 0.00976562 12.6082 0.00976562 12.9103 0.00976562C13.377 0.0175874 13.6655 0.217041 13.6836 0.612039C13.7108 1.45548 13.7093 2.30675 13.6836 3.14497C13.6715 3.53606 13.3815 3.74464 12.9133 3.75637C12.5977 3.76419 12.282 3.7655 11.9648 3.75637C11.4966 3.74203 11.2187 3.49565 11.2096 3.09022C11.2006 2.6848 11.2036 2.28458 11.2036 1.88177Z" fill="#704332"/>
<path d="M4.61603 1.87916C4.61603 1.48807 4.60545 1.09699 4.61603 0.705899C4.63415 0.248328 4.90752 0.0175874 5.43766 0.00976562C5.73973 0.00976562 6.0418 0.00976562 6.34387 0.00976562C6.82567 0.0201946 7.12018 0.244418 7.12774 0.651147C7.14586 1.46982 7.14586 2.28893 7.12774 3.10847C7.11867 3.51129 6.81509 3.74464 6.34387 3.76028C6.0418 3.7668 5.73973 3.76028 5.43766 3.76028C4.94075 3.75246 4.65077 3.52303 4.62962 3.09283C4.60092 2.6861 4.61603 2.28328 4.61603 1.87916Z" fill="#704332"/>
<path d="M20.2628 1.89694C20.2628 2.29976 20.2719 2.70258 20.2628 3.1054C20.2538 3.50821 19.9955 3.73896 19.5424 3.75721C19.1965 3.76894 18.8491 3.77024 18.5048 3.75721C18.4094 3.7606 18.3142 3.74648 18.2256 3.71578C18.1369 3.68508 18.0568 3.6385 17.9906 3.57911C17.9244 3.51973 17.8735 3.44889 17.8413 3.37127C17.8092 3.29366 17.7964 3.21103 17.804 3.12886C17.7919 2.29715 17.7919 1.46544 17.804 0.633729C17.7967 0.55223 17.8094 0.47032 17.8414 0.393367C17.8733 0.316414 17.9237 0.246155 17.9893 0.187197C18.0549 0.128239 18.1342 0.0819127 18.222 0.0512538C18.3098 0.020595 18.4041 0.00629619 18.4987 0.00929473C18.8597 -0.00374149 19.2222 -0.00243787 19.5832 0.00929473C19.6741 0.00758259 19.7644 0.0220546 19.8485 0.0518077C19.9326 0.0815608 20.0087 0.125956 20.072 0.182225C20.1354 0.238493 20.1846 0.305425 20.2167 0.378847C20.2487 0.452268 20.2629 0.530602 20.2583 0.608961C20.2734 1.03785 20.2583 1.46674 20.2583 1.89563L20.2628 1.89694Z" fill="#704332"/>
</svg>
