<svg width="24" height="28" viewBox="0 0 24 28" fill="none" xmlns="http://www.w3.org/2000/svg">
<path d="M0.0141737 1.72461H2.4804C2.4804 2.05769 2.4804 2.37306 2.4804 2.68842C2.48867 3.82941 3.2009 4.53927 4.33716 4.53809C4.64315 4.55387 4.94989 4.54716 5.25491 4.51801C6.0947 4.39281 6.68527 3.69121 6.70653 2.81599C6.7148 2.46164 6.70653 2.1073 6.70653 1.73288H7.63255C7.63255 2.08722 7.63255 2.43093 7.63255 2.78055C7.64082 3.8046 8.37194 4.53927 9.40426 4.53573C9.80349 4.53573 10.2157 4.55345 10.596 4.46132C10.923 4.39538 11.2192 4.22362 11.4389 3.97258C11.6586 3.72153 11.7895 3.40515 11.8114 3.07229C11.8599 2.63409 11.8197 2.18644 11.8197 1.72579H12.7918C12.7918 2.05533 12.7918 2.39077 12.7918 2.7274C12.7918 3.83649 13.491 4.54045 14.5977 4.53573C14.9848 4.55184 15.3725 4.5261 15.7541 4.45896C16.1001 4.37607 16.4086 4.17998 16.6305 3.9018C16.8524 3.62362 16.975 3.27929 16.9789 2.92347C16.9907 2.53605 16.9789 2.14864 16.9789 1.74233H19.4393V15.779C18.9668 15.779 18.5038 15.7519 18.0408 15.779C16.5939 15.8806 15.3431 16.4523 14.2458 17.3937C14.0899 17.524 13.8959 17.5998 13.693 17.6098C10.1496 17.6216 6.59669 17.6181 3.04853 17.6181H2.64104V18.7354H13.0871C12.4657 19.7188 12.1078 20.8455 12.0477 22.0072H2.64222V23.1269H11.9792C12.265 23.9041 12.4587 24.6518 12.806 25.3191C13.1532 25.9865 13.6481 26.5558 14.0757 27.1653C14.0016 27.1746 13.9271 27.1801 13.8524 27.1818H2.04102C0.84688 27.1818 0.00472457 26.3621 0.00354343 25.1738C0.00118114 17.4358 0 9.69969 0 1.96556C0 1.89115 0.008268 1.82737 0.0141737 1.72461ZM2.63986 14.338H16.8136V13.2526H2.63986V14.338ZM2.61859 8.8599C2.61859 9.12329 2.63749 9.36897 2.61859 9.6111C2.5867 9.91702 2.71545 9.97844 2.99892 9.97844C7.45498 9.97057 11.9106 9.97057 16.3659 9.97844H16.8136V8.8599H2.61859Z" fill="#704332"/>
<path d="M18.5862 27.1666C17.3092 27.1467 16.0912 26.6254 15.1951 25.7153C14.2991 24.8052 13.7969 23.5792 13.7969 22.302C13.7969 21.0249 14.2991 19.7989 15.1951 18.8888C16.0912 17.9787 17.3092 17.4574 18.5862 17.4375C21.278 17.4446 23.482 19.6498 23.462 22.3156C23.4502 23.6028 22.9319 24.8336 22.0194 25.7415C21.1068 26.6494 19.8734 27.1614 18.5862 27.1666V27.1666ZM19.4437 23.0727C19.8855 23.0727 20.2705 23.0727 20.6615 23.0727C21.2048 23.0656 21.5745 22.7113 21.5674 22.2081C21.5603 21.705 21.1953 21.3813 20.6674 21.3731C20.2705 21.3731 19.8725 21.3731 19.4437 21.3731C19.4437 20.9868 19.4437 20.6372 19.4437 20.2864C19.4437 19.7077 19.1035 19.3226 18.5992 19.3202C18.0948 19.3179 17.7464 19.7006 17.7429 20.2758C17.7429 20.6301 17.7429 20.9951 17.7429 21.3731C17.3165 21.3731 16.9409 21.3731 16.5617 21.3731C15.9806 21.3731 15.6109 21.7121 15.6168 22.2306C15.6227 22.7491 15.9948 23.0704 16.5794 23.0727C16.9633 23.0727 17.346 23.0727 17.7405 23.0727C17.7405 23.5275 17.7405 23.9267 17.7405 24.3271C17.7405 24.9059 18.0819 25.272 18.6016 25.272C19.1213 25.272 19.4366 24.9023 19.4402 24.3425C19.4461 23.9361 19.4437 23.5263 19.4437 23.0763V23.0727Z" fill="#704332"/>
<path d="M8.7621 1.70393C8.7621 1.34959 8.7621 0.995248 8.7621 0.640905C8.77036 0.221599 8.97707 0.0160805 9.3881 0.0078125C9.62433 0.0078125 9.86056 0.0078125 10.0968 0.0078125C10.4618 0.0148994 10.6874 0.195614 10.7015 0.553501C10.7228 1.3177 10.7216 2.08899 10.7015 2.84846C10.6921 3.20281 10.4653 3.39179 10.0992 3.40242C9.85229 3.4095 9.60543 3.41069 9.35739 3.40242C8.99124 3.38943 8.77391 3.16619 8.76682 2.79885C8.75973 2.43152 8.7621 2.06891 8.7621 1.70393Z" fill="#704332"/>
<path d="M3.60914 1.70157C3.60914 1.34723 3.60088 0.992886 3.60914 0.638543C3.62332 0.223962 3.8371 0.0148994 4.25169 0.0078125C4.48791 0.0078125 4.72414 0.0078125 4.96037 0.0078125C5.33716 0.0172616 5.56748 0.220418 5.57338 0.588935C5.58756 1.33069 5.58756 2.07284 5.57338 2.81539C5.5663 3.18036 5.32889 3.39179 4.96037 3.40596C4.72414 3.41187 4.48791 3.40596 4.25169 3.40596C3.86309 3.39887 3.63631 3.19099 3.61977 2.80122C3.59733 2.4327 3.60914 2.06773 3.60914 1.70157Z" fill="#704332"/>
<path d="M15.846 1.71872C15.846 2.08369 15.8531 2.44866 15.846 2.81364C15.8389 3.17861 15.6369 3.38767 15.2826 3.40421C15.0121 3.41484 14.7405 3.41602 14.4712 3.40421C14.3965 3.40728 14.3221 3.39449 14.2528 3.36667C14.1835 3.33886 14.1208 3.29665 14.0691 3.24285C14.0173 3.18904 13.9775 3.12486 13.9523 3.05453C13.9271 2.98421 13.9172 2.90935 13.9231 2.8349C13.9137 2.08133 13.9137 1.32776 13.9231 0.574189C13.9174 0.500347 13.9274 0.426132 13.9523 0.356409C13.9773 0.286686 14.0167 0.223029 14.068 0.16961C14.1193 0.116191 14.1814 0.0742168 14.25 0.0464384C14.3187 0.01866 14.3924 0.00570465 14.4664 0.00842147C14.7487 -0.00338997 15.0322 -0.00220882 15.3145 0.00842147C15.3856 0.00687019 15.4562 0.0199825 15.522 0.0469402C15.5877 0.0738979 15.6473 0.114123 15.6968 0.165104C15.7463 0.216086 15.7848 0.27673 15.8099 0.343253C15.835 0.409776 15.846 0.480751 15.8425 0.551747C15.8543 0.940343 15.8425 1.32894 15.8425 1.71754L15.846 1.71872Z" fill="#704332"/>
<path d="M2.63867 14.3374V13.252H16.8124V14.3374H2.63867Z" fill="white"/>
<path d="M2.61885 8.85938H16.8091V9.97201H16.3615C11.9062 9.97201 7.45052 9.97201 2.99446 9.97201C2.71098 9.97201 2.58224 9.91059 2.61413 9.60468C2.63775 9.36845 2.61885 9.12277 2.61885 8.85938Z" fill="white"/>
</svg>
