<svg xmlns="http://www.w3.org/2000/svg" width="40" height="40" viewBox="0 0 40 40">
  <g id="Order_No" data-name="Order No" transform="translate(-964 -269)">
    <g id="Rectangle_76" data-name="Rectangle 76" transform="translate(964 269)" fill="none" stroke="#704332" stroke-width="1">
      <rect width="40" height="40" stroke="none"/>
      <rect x="0.5" y="0.5" width="39" height="39" fill="none"/>
    </g>
    <g id="Group_4" data-name="Group 4" transform="translate(971.784 275.331)">
      <path id="Path_20" data-name="Path 20" d="M161.259,619.9v-2.512h-7.422v-6.206H140.392v23.366h20.849V622.2h2.107v14.036H138.3V609.466h.386q8.537,0,17.074.007a1,1,0,0,1,.551.171q3.437,2.684,6.846,5.391a.552.552,0,0,1,.207.382c.014,1.4,0,2.792.013,4.188,0,.237-.082.313-.377.3C162.442,619.892,161.883,619.9,161.259,619.9Zm-.273-4.226-5.044-3.967v3.967Z" transform="translate(-138.301 -609.465)" fill="#704332"/>
      <path id="Path_21" data-name="Path 21" d="M158.838,627.9v-2.046h8.524V627.9Z" transform="translate(-153.666 -621.725)" fill="#704332"/>
      <path id="Path_22" data-name="Path 22" d="M164.7,660.251V662.3h-5.818v-2.049Z" transform="translate(-153.7 -650.179)" fill="#704332"/>
      <path id="Path_23" data-name="Path 23" d="M158.874,676.243h5.811v2.065h-5.811Z" transform="translate(-153.693 -663.001)" fill="#704332"/>
      <path id="Path_24" data-name="Path 24" d="M164.7,692.363v2.055h-5.814v-2.055Z" transform="translate(-153.706 -675.923)" fill="#704332"/>
      <path id="Path_25" data-name="Path 25" d="M158.874,716.539v-2.064h5.812v2.064Z" transform="translate(-153.693 -694.698)" fill="#704332"/>
      <path id="Path_26" data-name="Path 26" d="M200.129,660.262v2.048H194.42v-2.048Z" transform="translate(-180.288 -650.188)" fill="#704332"/>
      <path id="Path_27" data-name="Path 27" d="M200.112,678.367h-5.7V676.3h5.7Z" transform="translate(-180.285 -663.047)" fill="#704332"/>
      <path id="Path_28" data-name="Path 28" d="M194.381,692.33h5.708v2.062h-5.708Z" transform="translate(-180.259 -675.897)" fill="#704332"/>
      <path id="Path_29" data-name="Path 29" d="M200.127,716.58h-5.7v-2.066h5.7Z" transform="translate(-180.294 -694.727)" fill="#704332"/>
    </g>
  </g>
</svg>
