<svg xmlns="http://www.w3.org/2000/svg" width="40" height="40" viewBox="0 0 40 40">
  <g id="Order_-_A" data-name="Order - A" transform="translate(-882 -235)">
    <g id="Rectangle_76" data-name="Rectangle 76" transform="translate(882 235)" fill="none" stroke="#704332" stroke-width="1">
      <rect width="40" height="40" stroke="none"/>
      <rect x="0.5" y="0.5" width="39" height="39" fill="none"/>
    </g>
    <g id="Group_103" data-name="Group 103" transform="translate(886 243.675)">
      <path id="Path_32" data-name="Path 32" d="M160.113,248.875a2.557,2.557,0,0,1-2.541,2.417c-3,.014-5.994.006-8.991.006-5.883,0-11.767-.017-17.65.006a2.668,2.668,0,0,1-2.724-2.428Z" transform="translate(-128.206 -229.713)" fill="#704332"/>
      <path id="Path_33" data-name="Path 33" d="M154.674,217.158c-.444,0-.888.006-1.331,0a1.388,1.388,0,1,1-.033-2.776c.909-.017,1.819-.012,2.729.007a1.462,1.462,0,0,1,1.452,1.423A1.405,1.405,0,0,1,156,217.166c-.444,0-.887,0-1.331,0Z" transform="translate(-138.742 -214.37)" fill="#704332"/>
      <path id="Path_34" data-name="Path 34" d="M152.955,222.97a13.547,13.547,0,0,0-15.091.363c-4.068,2.653-6.034,6.641-6.2,11.558h27.985C159.933,230.768,157.366,225.523,152.955,222.97Zm-13.267,8.088H134.54a3.234,3.234,0,0,1,.989-2.409,9.189,9.189,0,0,1,5.176-2.789,15.724,15.724,0,0,1,2.478-.356C140.855,226.616,139.928,228.578,139.688,231.058Z" transform="translate(-129.745 -217.252)" fill="#704332"/>
    </g>
  </g>
</svg>
