<svg id="Orders" xmlns="http://www.w3.org/2000/svg" width="50" height="50" viewBox="0 0 50 50">
  <rect id="Rectangle_95" data-name="Rectangle 95" width="50" height="50" fill="none"/>
  <g id="Group_136" data-name="Group 136" transform="translate(8.75 6.25)">
    <path id="Path_29" data-name="Path 29" d="M43.652,238.105a15.785,15.785,0,0,1,5.324-12.338c-1.186-.1-4.462,2.509-5.994,4.8a15.3,15.3,0,0,0-2.45,7.534H38.861a15.2,15.2,0,0,1,3.7-10.1,15.563,15.563,0,0,1,8.987-5.371,6.142,6.142,0,0,1,0-1.786,1.388,1.388,0,0,1,1.525-.843c1.074.027,2.15.033,3.223-.005a1.529,1.529,0,0,1,1.561.813,1.375,1.375,0,0,1-.34,1.674c8,2.123,12.4,7.231,13.092,15.617Z" transform="translate(-37.983 -219.998)" fill="#fff"/>
    <path id="Path_30" data-name="Path 30" d="M62.432,262.3c-2.792-1.172-5.489-2.27-8.159-3.432a17.055,17.055,0,0,1-8.483-7.723.949.949,0,0,0-.977-.576c-1.966,0-3.931-.014-5.9-.022-.183,0-.367,0-.55,0-.477-.015-.839-.208-.845-.728s.354-.732.83-.741q1.532-.028,3.066-.028,14.193.009,28.385.024c.157,0,.363-.047.461.033.256.208.636.473.64.72,0,.221-.408.61-.673.644a21.212,21.212,0,0,1-2.663.13c-1.362,0-2.725-.022-4.087-.059-.446-.012-.632.152-.752.591A3.922,3.922,0,0,0,64.814,256c.379.217.513.433.3.875-.861,1.746-1.685,3.51-2.529,5.264A.53.53,0,0,1,62.432,262.3Zm-2.81-11.7H49.11a16.36,16.36,0,0,0,6.437,3.272A3.369,3.369,0,0,0,59.623,250.6Z" transform="translate(-37.522 -230.004)" fill="#fff"/>
    <path id="Path_31" data-name="Path 31" d="M80.561,260.16c1.116.621,2.207,1.207,3.266,1.847.145.087.212.456.173.669-.314,1.747-.663,3.487-1,5.23-.231,1.2-.461,2.4-.7,3.654-1.82-.94-3.6-1.845-5.358-2.793a.713.713,0,0,1-.187-.668c1.191-2.572,2.416-5.128,3.636-7.686A2.256,2.256,0,0,1,80.561,260.16Z" transform="translate(-51.027 -233.832)" fill="#fff"/>
  </g>
</svg>
