<svg xmlns="http://www.w3.org/2000/svg" width="50" height="50" viewBox="0 0 50 50">
  <g id="Hold" transform="translate(-361 -364)">
    <rect id="Rectangle_17963" data-name="Rectangle 17963" width="50" height="50" transform="translate(361 364)" fill="none"/>
    <g id="Group_16213" data-name="Group 16213" transform="translate(0 -6)">
      <path id="Subtraction_3" data-name="Subtraction 3" d="M25.3,34.483H8.229c1.3-1.844,1.3-3.981,1.3-5.867H11.81c2.7,0,5.465.009,8.135.017l.487,0h.086c2.636.009,5.7.019,8.706.019.5,0,.76.069.9.238s.166.436.088.905a9.535,9.535,0,0,1-.382,1.486A4.538,4.538,0,0,1,25.3,34.483ZM4.342,34.4a4.047,4.047,0,0,1-3.77-2.168A4.589,4.589,0,0,1,0,29.872V.914C0,.188.187,0,.913,0H15.371a12.752,12.752,0,0,0,11.49,15.538V27.243h-5.22c-2.126,0-4.368-.01-6.169-.018h-.061l-.347,0h-.006c-1.923-.009-3.911-.017-5.876-.017-.86,0-.993.211-1.03.991-.005.168-.01.336-.014.5v.013a18.971,18.971,0,0,1-.252,3.1,2.762,2.762,0,0,1-2.9,2.553C4.759,34.391,4.54,34.4,4.342,34.4ZM3.473,16.73a1.158,1.158,0,1,0,0,2.316H20.845a1.158,1.158,0,1,0,0-2.316Zm0-4.633a1.158,1.158,0,1,0,0,2.317H13.9a1.158,1.158,0,0,0,0-2.317Zm0-4.632a1.158,1.158,0,1,0,0,2.317H11.58a1.158,1.158,0,0,0,0-2.317Z" transform="translate(366.001 382.52)" fill="#704332"/>
      <g id="Group_16144" data-name="Group 16144" transform="translate(382.148 373)">
        <path id="Path_58332" data-name="Path 58332" d="M962.89,789.095A12,12,0,1,1,950.895,777.1,11.931,11.931,0,0,1,962.89,789.095Zm-11.995,10.578A10.626,10.626,0,1,0,940.317,789,10.522,10.522,0,0,0,950.895,799.673Z" transform="translate(-938.9 -777.099)" fill="#704332"/>
        <path id="Path_58333" data-name="Path 58333" d="M949.906,789.389V796c0,.472,0,.472-.472.472h-4.156c-.378,0-.378,0-.378-.378V782.778c0-.378,0-.378.378-.378h4.156c.472,0,.472,0,.472.472Z" transform="translate(-939.233 -777.393)" fill="#704332"/>
        <path id="Path_58334" data-name="Path 58334" d="M958,789.384v6.611c0,.472,0,.472-.472.472h-4.156c-.378,0-.472,0-.472-.472V782.772c0-.378,0-.472.472-.472h4.156c.378,0,.378,0,.378.378C958,784.945,958,787.117,958,789.384Z" transform="translate(-939.677 -777.388)" fill="#704332"/>
      </g>
    </g>
  </g>
</svg>
