<svg width="31" height="33" viewBox="0 0 31 33" fill="none" xmlns="http://www.w3.org/2000/svg">
<path d="M28.4053 19.2306H27.6755C25.8683 19.2493 24.0539 19.1688 22.2582 19.3154C20.2182 19.482 18.7759 21.2892 18.8204 23.3608C18.8649 25.3648 20.4294 27.0844 22.4478 27.1907C24.1803 27.2827 25.92 27.2295 27.6568 27.241H28.3579C28.3796 27.356 28.395 27.472 28.4039 27.5887C28.4039 29.0066 28.4039 30.4245 28.4039 31.8424C28.4039 32.5363 28.1237 32.8221 27.4457 32.8221C19.2916 32.8221 11.138 32.8221 2.98492 32.8221C2.29392 32.8221 2.01953 32.5506 2.01953 31.8582C2.01953 26.1119 2.01953 20.3703 2.01953 14.6335C2.01953 13.9152 2.2853 13.6523 3.02514 13.6523C11.1428 13.6523 19.2605 13.6523 27.3781 13.6523C28.1381 13.6523 28.4053 13.921 28.4067 14.6709C28.4082 16.1779 28.4053 17.6719 28.4053 19.2306ZM11.2266 27.2238L11.4708 27.1304C12.7149 26.6692 13.3872 25.5976 13.1746 24.4152C12.9548 23.2056 11.9851 22.4399 10.6592 22.4284C10.3934 22.4284 10.0845 22.4931 9.87335 22.3868C9.60323 22.2561 9.38581 22.0372 9.25705 21.7662C9.11339 21.4257 9.31451 21.1068 9.65068 20.9315C10.4738 20.5005 11.3401 20.9057 11.6461 21.7604C11.7078 21.9067 11.801 22.0375 11.9189 22.1438C12.0368 22.25 12.1766 22.3291 12.3285 22.3753C12.5555 22.4198 12.9304 22.1928 13.0841 21.9745C13.2278 21.7834 13.2034 21.4257 13.1488 21.1643C12.9304 20.1227 12.2265 19.5337 11.218 19.255C11.1304 18.6244 11.4435 17.6891 10.4365 17.6748C9.35761 17.6547 9.68228 18.6488 9.57454 19.2694C8.13795 19.7535 7.45988 20.7405 7.65669 22.0133C7.84632 23.2473 8.8663 24.0245 10.3072 24.0403C10.5018 24.0328 10.6967 24.0391 10.8904 24.059C11.3358 24.1222 11.6087 24.3894 11.6087 24.8419C11.6087 25.2944 11.3444 25.5602 10.8904 25.6162C10.6429 25.6349 10.3945 25.6407 10.1463 25.6335C9.632 25.6335 9.32313 25.4094 9.2197 24.8821C9.09472 24.2486 8.74419 23.9756 8.25575 24.0719C7.76731 24.1682 7.55901 24.5589 7.65957 25.1953C7.83483 26.3072 8.56031 26.9092 9.5731 27.2152C9.70814 28.544 9.87622 28.8816 10.4351 28.8184C11.4608 28.7006 11.1146 27.8429 11.2266 27.2238Z" fill="#704332"/>
<path d="M25.8627 25.6315C24.8901 25.6315 23.9161 25.6402 22.9436 25.6315C21.4667 25.6143 20.4267 24.6331 20.418 23.2655C20.408 21.8734 21.4495 20.8491 22.9421 20.8348C24.9418 20.8161 26.9416 20.8262 28.9413 20.8348C29.7271 20.8348 29.9986 21.1135 30.0015 21.8864C30.0015 22.7885 30.0015 23.6912 30.0015 24.5943C30.0015 25.3715 29.7372 25.6315 28.9427 25.6359C27.9127 25.6359 26.8899 25.6315 25.8627 25.6315ZM23.603 23.2181C23.5918 23.0042 23.4969 22.8032 23.3389 22.6586C23.1809 22.514 22.9723 22.4374 22.7582 22.4452C22.5532 22.4556 22.3605 22.5463 22.2218 22.6977C22.0831 22.849 22.0095 23.0488 22.017 23.254C22.0176 23.36 22.0401 23.4648 22.083 23.5618C22.1259 23.6588 22.1884 23.7459 22.2664 23.8177C22.3444 23.8895 22.4364 23.9445 22.5365 23.9793C22.6367 24.014 22.743 24.0278 22.8487 24.0197C23.0531 24.0079 23.2453 23.9183 23.3856 23.7692C23.5259 23.62 23.6037 23.4228 23.603 23.2181Z" fill="#704332"/>
<path d="M22.4104 12.0116C20.8086 12.1768 20.8086 12.1768 20.8086 10.7C20.8086 8.71607 20.8086 6.7307 20.8086 4.74678C20.8086 2.99127 21.7481 2.06467 23.5022 2.0618C23.5907 2.05533 23.6795 2.05533 23.768 2.0618C24.2507 2.12932 24.5452 1.99141 24.7879 1.49866C25.3626 0.349388 26.6555 -0.179275 27.8924 0.141083C28.4929 0.293826 29.0256 0.641716 29.4068 1.1301C29.7881 1.61849 29.9963 2.21969 29.9988 2.83927C30.0013 3.45885 29.7978 4.06169 29.4205 4.5531C29.0431 5.0445 28.5132 5.39662 27.9139 5.55414C27.3078 5.7084 26.6675 5.65561 26.0949 5.40416C25.5222 5.15271 25.0501 4.71703 24.7535 4.1664C24.4762 3.66216 23.8556 3.47971 23.0296 3.67939C22.4549 3.82305 22.409 4.27558 22.4104 4.76402C22.4104 6.96678 22.4104 9.16428 22.4104 11.3565V12.0116ZM27.1957 4.03136C27.3547 4.03328 27.5125 4.00344 27.6598 3.9436C27.8072 3.88376 27.9411 3.79512 28.0537 3.68287C28.1664 3.57063 28.2555 3.43703 28.3158 3.2899C28.3762 3.14278 28.4066 2.98508 28.4053 2.82606C28.4033 2.66891 28.3704 2.51369 28.3084 2.36926C28.2464 2.22483 28.1566 2.09402 28.0441 1.9843C27.8168 1.76271 27.5109 1.64047 27.1935 1.64447C26.8761 1.64847 26.5733 1.77839 26.3517 2.00564C26.1301 2.23288 26.0079 2.53885 26.0119 2.85623C26.0153 3.16833 26.1414 3.46656 26.3629 3.68646C26.5844 3.90635 26.8835 4.03024 27.1957 4.03136Z" fill="#704332"/>
<path d="M12.0139 12.022H10.415C10.415 11.1816 10.4021 10.3714 10.415 9.56257C10.4275 9.35026 10.3803 9.1387 10.2787 8.95184C10.1772 8.76498 10.0253 8.61028 9.84039 8.50524C8.23141 7.44217 6.62914 6.36952 5.03358 5.28729C4.73189 5.08186 4.52502 5.06893 4.19317 5.26C2.79537 6.06736 0.952235 5.46255 0.26842 4.01017C0.103612 3.66078 0.0126525 3.28116 0.00122844 2.89502C-0.0101956 2.50889 0.0581618 2.12455 0.202026 1.76603C0.345891 1.40752 0.562169 1.08254 0.837339 0.811408C1.11251 0.540278 1.44065 0.32883 1.80126 0.190284C2.1569 0.0511834 2.53746 -0.0128717 2.91904 0.00214142C3.30062 0.0171545 3.67497 0.110912 4.01858 0.277524C4.3622 0.444136 4.66764 0.680003 4.91574 0.970309C5.16383 1.26062 5.34922 1.59909 5.46024 1.96447C5.56764 2.37233 5.59929 2.79644 5.55362 3.21573C5.52632 3.54184 5.58666 3.72572 5.86536 3.90817C7.41831 4.92671 8.93678 5.99984 10.5113 6.9839C11.5815 7.65478 12.0915 8.54116 12.0211 9.80248C11.9795 10.5236 12.0139 11.2491 12.0139 12.022ZM2.78676 1.65704C2.63207 1.65685 2.47887 1.6872 2.33595 1.74635C2.19302 1.8055 2.06318 1.89229 1.95387 2.00173C1.84456 2.11118 1.75793 2.24112 1.69895 2.38412C1.63998 2.52712 1.60981 2.68036 1.61019 2.83504C1.60848 3.15242 1.73291 3.45748 1.95612 3.68311C2.17933 3.90874 2.48302 4.03646 2.8004 4.03818C3.11778 4.03989 3.42284 3.91546 3.64847 3.69225C3.87411 3.46904 4.00183 3.16535 4.00354 2.84797C4.0062 2.68864 3.97634 2.53044 3.9158 2.38305C3.85525 2.23565 3.76529 2.10214 3.65141 1.99068C3.53753 1.87922 3.40212 1.79214 3.25345 1.73478C3.10479 1.67741 2.94599 1.65096 2.78676 1.65704Z" fill="#704332"/>
<path d="M16.8109 12.0246H15.212V10.7316C15.212 9.17437 15.1962 7.61567 15.2235 6.05841C15.2307 5.66191 15.1014 5.48378 14.748 5.3157C14.1764 5.03976 13.7188 4.57326 13.454 3.99644C13.1892 3.41961 13.1337 2.76854 13.297 2.15521C13.45 1.55435 13.7979 1.02122 14.2864 0.639336C14.7748 0.257457 15.3762 0.0484152 15.9962 0.0449653C16.6162 0.0415153 17.2198 0.243853 17.7125 0.620272C18.2052 0.996692 18.5591 1.52592 18.7187 2.12504C19.0462 3.43233 18.4702 4.74968 17.2534 5.32719C16.8827 5.50533 16.8008 5.70932 16.8051 6.08571C16.8253 7.87426 16.8152 9.66137 16.8152 11.4499L16.8109 12.0246ZM16.0021 4.03139C16.1613 4.03256 16.3191 4.00188 16.4663 3.94114C16.6135 3.88041 16.747 3.79085 16.859 3.67774C16.9711 3.56463 17.0594 3.43025 17.1187 3.28251C17.178 3.13477 17.2072 2.97666 17.2045 2.81747C17.1896 2.50575 17.0538 2.21211 16.8259 1.99889C16.5981 1.78566 16.2961 1.66962 15.9841 1.67542C15.672 1.68121 15.3746 1.80838 15.1548 2.02993C14.935 2.25147 14.8102 2.54995 14.8069 2.86201C14.8147 3.17415 14.944 3.47092 15.1671 3.68928C15.3903 3.90764 15.6899 4.03036 16.0021 4.03139Z" fill="#704332"/>
<path d="M23.6041 23.2168C23.6048 23.4215 23.527 23.6187 23.3867 23.7679C23.2464 23.917 23.0543 24.0066 22.8499 24.0184C22.7441 24.0265 22.6379 24.0127 22.5377 23.978C22.4375 23.9432 22.3455 23.8882 22.2675 23.8164C22.1895 23.7446 22.1271 23.6575 22.0842 23.5605C22.0413 23.4635 22.0188 23.3587 22.0181 23.2527C22.0107 23.0475 22.0842 22.8477 22.223 22.6964C22.3617 22.545 22.5543 22.4543 22.7594 22.4439C22.9734 22.4361 23.182 22.5127 23.34 22.6573C23.4981 22.8019 23.5929 23.0029 23.6041 23.2168Z" fill="white"/>
</svg>
