<svg id="Pay_Cash" data-name="Pay Cash" xmlns="http://www.w3.org/2000/svg" width="50" height="50" viewBox="0 0 50 50">
  <rect id="Rectangle_17708" data-name="Rectangle 17708" width="50" height="50" fill="none"/>
  <g id="Group_15148" data-name="Group 15148" transform="translate(6.322 6.327)">
    <path id="Path_16775" data-name="Path 16775" d="M177.075,249.552c1.6,0,3.19-.007,4.785,0,.835,0,1.1.261,1.111,1.1.015.812-.007,1.617.007,2.43a2.361,2.361,0,0,1-1.342,2.475,2.273,2.273,0,0,1-2.668-.626,2.277,2.277,0,0,1-4.249-.022,2.268,2.268,0,0,1-3.943-.783c-1.006.5-1.96,1.036-2.959,1.461a16.406,16.406,0,0,1-6.276,1.14c-1.185.015-2.363.015-3.548,0-.932-.007-1.215-.306-1.215-1.222,0-4.375-.015-8.758.022-13.133a1.67,1.67,0,0,1,.566-1.148c2.035-1.58,4.122-3.108,6.194-4.644a6.068,6.068,0,0,1,3.28-1.178c.574-.045.753.127.745.723-.037,2.34-.015,4.681-.015,7.029,0,2.1,1.289,2.982,3.257,2.221q4.092-1.588,8.169-3.2a2.572,2.572,0,0,1,2.668.276,2.5,2.5,0,0,1-.239,4.159c-1.275.842-2.579,1.647-3.868,2.467-.179.112-.35.239-.522.358A1.068,1.068,0,0,0,177.075,249.552Z" transform="translate(-156.776 -218.632)" fill="#fff"/>
    <path id="Path_16776" data-name="Path 16776" d="M188.527,245.942c.3-.894.566-1.759.887-2.6a.689.689,0,0,1,.514-.328c.85-.037,1.707-.022,2.557-.015a.534.534,0,0,0,.611-.425,4.489,4.489,0,0,1,2.937-2.952.611.611,0,0,0,.507-.693c-.03-.984-.015-1.968-.007-2.952.007-.32-.06-.514-.41-.619a4.471,4.471,0,0,1-3.011-2.959.615.615,0,0,0-.7-.492c-3.652.015-7.312,0-10.964.022a.752.752,0,0,0-.6.313,4.849,4.849,0,0,1-3.473,3.265c0,1.424-.022,2.87.015,4.308a.711.711,0,0,1-.552.805c-.8.283-1.573.619-2.445.962v-.671c0-3,.037-6-.015-9a2.774,2.774,0,0,1,2.922-2.944c6.567.052,13.133.007,19.7,0a2.573,2.573,0,0,1,2.482,2.683q.011,5.613.007,11.225v.462a2.467,2.467,0,0,1-2.363,2.579C194.221,245.994,191.315,245.942,188.527,245.942Z" transform="translate(-161.258 -216.997)" fill="#fff"/>
    <path id="Path_16777" data-name="Path 16777" d="M199.587,224.451H183.472a.609.609,0,0,1-.261-.007c-.216-.089-.425-.209-.641-.313a2.213,2.213,0,0,1,.544-.388c3.615-1.088,7.23-2.154,10.845-3.227.626-.186,1.26-.358,1.886-.529a2.288,2.288,0,0,1,2.825,1.282A28.3,28.3,0,0,1,199.587,224.451Z" transform="translate(-163.344 -214.685)" fill="#fff"/>
    <path id="Path_16778" data-name="Path 16778" d="M177.53,220.862a2.041,2.041,0,0,1,.343-.44c3.436-2.37,6.865-4.733,10.323-7.081a2.2,2.2,0,0,1,3.205.648c.47.708.9,1.439,1.386,2.221-5.083,1.632-10.107,3.25-15.124,4.86C177.619,221,177.575,220.929,177.53,220.862Z" transform="translate(-162.061 -212.907)" fill="#fff"/>
    <path id="Path_16779" data-name="Path 16779" d="M191.922,242.016a4.957,4.957,0,0,0-5.106-2.266,3.234,3.234,0,0,1,1.863-3.719,3.453,3.453,0,0,1,4.4,1.491A3.349,3.349,0,0,1,191.922,242.016Z" transform="translate(-164.393 -218.721)" fill="#fff"/>
  </g>
</svg>
