<svg xmlns="http://www.w3.org/2000/svg" width="40" height="40" viewBox="0 0 40 40">
  <g id="POS_Dine_In" data-name="POS Dine In" transform="translate(-878.609 -268.609)">
    <g id="Rectangle_74" data-name="Rectangle 74" transform="translate(878.609 268.609)" fill="none" stroke="#704332" stroke-width="1">
      <rect width="40" height="40" stroke="none"/>
      <rect x="0.5" y="0.5" width="39" height="39" fill="none"/>
    </g>
    <g id="Group_3" data-name="Group 3" transform="translate(885.191 276.276)">
      <path id="Path_14" data-name="Path 14" d="M800.468,421.109c-.885-2.828.965-4.725,2.091-6.855l-.26-.221a2.427,2.427,0,0,0-.6.5c-.7,1.14-1.379,2.29-2.025,3.459a1.389,1.389,0,0,1-1.4.82c-1.2-.041-2.4,0-3.6-.014-.772-.006-1.276-.424-1.22-1.051a1.018,1.018,0,0,1,1.2-.99c.921.023,1.845.059,2.763.005a1.209,1.209,0,0,0,.836-.478c.8-1.271,1.539-2.583,2.305-3.876a1.387,1.387,0,0,1,2.044-.628,5.47,5.47,0,0,1,2.574,3.162c.95,2.268.78,4.652.622,7.013a2.185,2.185,0,0,1-2.332,1.862c-1.9.016-3.8,0-5.833,0,0,.292,0,.555,0,.819,0,1.591.01,3.183,0,4.775a1.339,1.339,0,1,1-2.671.007q-.021-3.392,0-6.785a1.383,1.383,0,0,1,1.57-1.52C797.748,421.1,798.972,421.109,800.468,421.109Z" transform="translate(-778.329 -406.393)" fill="#704332"/>
      <path id="Path_15" data-name="Path 15" d="M734.165,423.8c-1.894,0-3.7-.054-5.507.015a2.45,2.45,0,0,1-2.731-2.625c.063-1.973-.164-3.964.551-5.871a6.333,6.333,0,0,1,2.353-3.359c1.13-.725,1.852-.532,2.541.635s1.417,2.332,2.07,3.528a1.046,1.046,0,0,0,1.131.618c.863-.052,1.73-.032,2.6-.038.7,0,1.166.352,1.149,1.039a1.031,1.031,0,0,1-1.173,1.034c-1.256,0-2.517.058-3.766-.034a1.777,1.777,0,0,1-1.176-.707c-.772-1.155-1.422-2.391-2.151-3.576-.114-.185-.391-.27-.593-.4a1.9,1.9,0,0,0,.089.722c1.137,1.908,2.549,3.72,1.738,6.292,1.394,0,2.557,0,3.72,0,1.414.005,1.839.432,1.841,1.85q0,3.1,0,6.2c0,1.006-.553,1.68-1.349,1.686-.828.007-1.327-.615-1.329-1.673C734.162,427.406,734.165,425.676,734.165,423.8Z" transform="translate(-725.925 -406.378)" fill="#704332"/>
      <path id="Path_16" data-name="Path 16" d="M747.768,436.169v-1h13.073v1Z" transform="translate(-740.543 -422.197)" fill="#704332"/>
      <path id="Path_17" data-name="Path 17" d="M773.418,422.924l.71.073c.19.5.034.678-.468.676-2.592-.013-5.185,0-7.777-.023-.2,0-.407-.249-.44-.271a10.246,10.246,0,0,0,1.074-1.233,4.228,4.228,0,0,1,2.4-2.073c.188-.057.3-.331.47-.488.128-.121.284-.3.424-.295s.257.211.375.338.19.322.33.388C772.327,420.871,772.508,421.044,773.418,422.924Z" transform="translate(-755.994 -411.568)" fill="#704332"/>
      <path id="Path_18" data-name="Path 18" d="M742.03,398.324a2.418,2.418,0,1,1-2.437-2.38A2.517,2.517,0,0,1,742.03,398.324Z" transform="translate(-733.467 -395.945)" fill="#704332"/>
      <path id="Path_19" data-name="Path 19" d="M807.453,401.544a2.378,2.378,0,1,1,2.463-2.4A2.407,2.407,0,0,1,807.453,401.544Z" transform="translate(-786.114 -396.51)" fill="#704332"/>
    </g>
  </g>
</svg>
