<svg xmlns="http://www.w3.org/2000/svg" width="50" height="50" viewBox="0 0 50 50">
  <g id="Pre_Order" data-name="Pre Order" transform="translate(-753.942 -676.942)">
    <rect id="Rectangle_38" data-name="Rectangle 38" width="50" height="50" transform="translate(753.942 676.942)" fill="none"/>
    <g id="Group_132" data-name="Group 132" transform="translate(762.723 683.228)">
      <path id="Path_48" data-name="Path 48" d="M683.992,793.77c.145.166.259.279.352.406,1.674,2.283,4.088,2.822,6.451,1.319a9.01,9.01,0,0,0,2.258-2.048,5.829,5.829,0,0,0,.564-2.009,12.417,12.417,0,0,0,5.273.409,9.986,9.986,0,0,0,5.851-2.689c.54-.546.969-.333,1.456,0a13.506,13.506,0,0,1,5.5,7.962,54.132,54.132,0,0,1,.919,5.889c.113.787-.27,1.089-1.053,1.09q-14.34.018-28.68.072c-.575,0-.9-.173-.9-.791a21.468,21.468,0,0,1,1.772-9.217C683.809,794.048,683.888,793.943,683.992,793.77Z" transform="translate(-680.565 -766.748)" fill="#fff"/>
      <path id="Path_49" data-name="Path 49" d="M701.229,774.463a8.518,8.518,0,0,1-6.51-3.5,10.656,10.656,0,0,1-1.172-1.808c-.67-1.332-1.292-2.689-1.893-4.054a2.329,2.329,0,0,1,.218-2.51,1.7,1.7,0,0,0,.2-.85c.113-1.407.093-2.834.327-4.219.658-3.885,2.744-5.914,6.662-6.381a17.762,17.762,0,0,1,4.626.06c3.554.521,5.69,2.94,6.223,6.79.121.877.182,1.761.267,2.642a4.992,4.992,0,0,0,.5,2.548,1.982,1.982,0,0,1-.008,1.588,44.733,44.733,0,0,1-2.455,5.242,8.469,8.469,0,0,1-6.161,4.364C701.754,774.423,701.45,774.441,701.229,774.463Zm-5.366-13.315a9.415,9.415,0,0,0-.569,1.312c-.217.782-.638.951-1.41.768-1.028-.245-1.521.349-1.1,1.309a39.826,39.826,0,0,0,2.042,4.322,11.56,11.56,0,0,0,2.249,2.735,5.866,5.866,0,0,0,7.96.157,13.275,13.275,0,0,0,2.591-3.188,25.04,25.04,0,0,0,1.751-3.823,1.8,1.8,0,0,0,.035-1.305c-.264-.547-.853-.4-1.313-.178-.832.4-1.3.124-1.487-.732-.115-.523-.421-.563-.914-.531a21.344,21.344,0,0,1-3.556.042C700.079,761.827,698.037,761.465,695.862,761.149Z" transform="translate(-684.479 -751.018)" fill="#fff"/>
      <path id="Path_50" data-name="Path 50" d="M683.361,775.038a30.637,30.637,0,0,0,3.51,7.615c.374-.267.691-.517,1.032-.731.907-.569,1.311-.573,2.023.239A7.086,7.086,0,0,1,690.991,784a1.191,1.191,0,0,1-.373,1.486c-.594.5-1.108,1.1-1.737,1.539a2.564,2.564,0,0,1-3.887-.468,20.265,20.265,0,0,1-4.087-6.793,33.333,33.333,0,0,1-1.294-5.216,3.736,3.736,0,0,1,4.528-4.319,1.332,1.332,0,0,1,.857.757,23.973,23.973,0,0,1,.542,2.583c.132.663-.225.975-.807,1.124C684.309,774.8,683.882,774.906,683.361,775.038Z" transform="translate(-679.555 -758.978)" fill="#fff"/>
    </g>
  </g>
</svg>
