<svg xmlns="http://www.w3.org/2000/svg" width="51" height="52" viewBox="0 0 51 52">
  <g id="Printers" transform="translate(-698 -671.067)">
    <g id="Group_16207" data-name="Group 16207" transform="translate(698 671)">
      <rect id="Rectangle_17979" data-name="Rectangle 17979" width="51" height="51" transform="translate(0 1.067)" fill="none"/>
      <path id="Path_57841" data-name="Path 57841" d="M47.654,282.71H40.13a5.518,5.518,0,0,1-.03-.654v-16.09a1.874,1.874,0,0,1,2.112-2.112h2.617v10.26H77.216v-10.26c1.19,0,2.32-.059,3.42.03.892.059,1.4.833,1.4,1.963V282.68H74.272c-.03.357-.03.625-.03.892,0,1.874.03,3.747,0,5.651a2.959,2.959,0,0,1-3.093,3.063c-6.751.03-13.532.03-20.283,0a3.2,3.2,0,0,1-3.242-3.271C47.743,286.963,47.654,284.881,47.654,282.71ZM72.7,279.022H49.2v9.814c0,1.279.565,1.814,1.874,1.814H71c1.19,0,1.7-.535,1.725-1.725v-8.3C72.7,280.092,72.7,279.587,72.7,279.022Zm6.9-.238H78.138V280.3H79.6Z" transform="translate(-35.566 -244.299)" fill="#704332"/>
      <path id="Subtraction_5" data-name="Subtraction 5" d="M29.949,22.96H0V13.325H1.637V3.124A3.1,3.1,0,0,1,4.789,0H13.4a9.556,9.556,0,0,0-.445,1.576H5.086a1.731,1.731,0,0,0-1.9,1.934V15.227h23.5c0-.79,0-1.562.007-2.146q0-.524,0-1.045a9.65,9.65,0,0,0,1.535-.95v2.209h1.725v9.665Z" transform="translate(10.452 5.666)" fill="#704332"/>
      <path id="Path_57843" data-name="Path 57843" d="M169.457,314.1v1.517H168V314.1Z" transform="translate(-125.428 -279.615)" fill="#704332"/>
      <path id="Path_57844" data-name="Path 57844" d="M98.82,322.7v1.547H81.6V322.7Z" transform="translate(-64.724 -285.657)" fill="#704332"/>
      <path id="Path_57845" data-name="Path 57845" d="M81.5,337.647V336.1H98.72v1.547Z" transform="translate(-64.654 -295.072)" fill="#704332"/>
      <g id="Ellipse_60" data-name="Ellipse 60" transform="translate(24 0.067)" fill="#fff" stroke="#704332" stroke-width="1">
        <circle cx="9" cy="9" r="9" stroke="none"/>
        <circle cx="9" cy="9" r="8.5" fill="none"/>
      </g>
      <path id="Path_58389" data-name="Path 58389" d="M256.308,244.111a3.705,3.705,0,0,1,.124-.4c.165-.412.34-.814.5-1.215a.144.144,0,0,0,0-.144c-.062-.144-.124-.288-.175-.422a.126.126,0,0,0-.093-.082c-.443-.165-.886-.34-1.318-.515a1.455,1.455,0,0,1-.247-.134.212.212,0,0,1-.1-.2v-1.308a.219.219,0,0,1,.134-.216c.165-.082.33-.175.494-.247.34-.144.69-.278,1.04-.422a.182.182,0,0,0,.093-.082c.062-.144.124-.3.185-.443a.17.17,0,0,0,0-.124c-.2-.443-.391-.875-.577-1.318a1.09,1.09,0,0,1-.062-.2.242.242,0,0,1,.072-.257c.3-.288.6-.587.9-.875a.275.275,0,0,1,.3-.082c.34.124.69.247,1.03.371.175.062.35.144.525.216a.211.211,0,0,0,.113,0c.154-.062.309-.124.453-.185a.164.164,0,0,0,.093-.093c.155-.4.319-.8.474-1.195a3.589,3.589,0,0,1,.185-.34.212.212,0,0,1,.2-.1h1.329a.212.212,0,0,1,.2.1,3.334,3.334,0,0,1,.227.422c.165.371.319.742.474,1.1a.17.17,0,0,0,.1.1c.155.062.3.124.453.175a.211.211,0,0,0,.113,0c.463-.2.937-.391,1.4-.587.031-.01.072-.021.1-.031a.31.31,0,0,1,.33.082c.3.3.6.587.9.875a.214.214,0,0,1,.072.257c-.1.288-.2.577-.309.865-.093.237-.2.453-.288.69a.211.211,0,0,0,0,.113c.062.155.124.3.185.443a.161.161,0,0,0,.082.082c.433.165.855.33,1.287.494a2.22,2.22,0,0,1,.268.144.247.247,0,0,1,.124.227v1.277a.243.243,0,0,1-.134.237c-.155.082-.309.165-.474.237-.35.154-.711.288-1.071.433a.182.182,0,0,0-.093.082c-.062.144-.124.288-.185.422a.176.176,0,0,0,0,.144c.2.433.391.875.577,1.308a.931.931,0,0,1,.062.227.2.2,0,0,1-.062.206c-.319.309-.628.618-.948.927a.242.242,0,0,1-.257.062l-.958-.34-.618-.247a.143.143,0,0,0-.093,0c-.154.062-.319.124-.474.185a.161.161,0,0,0-.082.082l-.525,1.3a1.794,1.794,0,0,1-.154.268.194.194,0,0,1-.175.082h-1.359a.208.208,0,0,1-.185-.093,2.334,2.334,0,0,1-.2-.35c-.175-.391-.34-.793-.515-1.195a.161.161,0,0,0-.082-.082c-.154-.062-.3-.124-.453-.185a.25.25,0,0,0-.124,0c-.464.2-.927.381-1.39.577a.5.5,0,0,0-.113.041.31.31,0,0,1-.33-.082c-.3-.3-.608-.6-.906-.9A.509.509,0,0,0,256.308,244.111Zm2.492-3.8a3.252,3.252,0,0,0,.052.443,2.527,2.527,0,0,0,2.41,2.049,2.586,2.586,0,0,0,1.73-.6,2.448,2.448,0,0,0,.628-2.966,2.547,2.547,0,0,0-2.853-1.339A2.5,2.5,0,0,0,258.8,240.31Z" transform="translate(-228.477 -231.267)" fill="#704332"/>
    </g>
  </g>
</svg>
