<svg width="29" height="38" viewBox="0 0 29 38" fill="none" xmlns="http://www.w3.org/2000/svg">
<path d="M10.8689 6.52953C10.965 6.56482 11.0464 6.63163 11.0997 6.71907C11.1531 6.80651 11.1753 6.90943 11.1627 7.01108C11.1627 7.37603 11.1627 7.73982 11.1627 8.10361C11.6839 8.12926 12.2121 8.10361 12.7309 8.10361C13.5623 8.10361 14.3948 8.11294 15.2273 8.11527C16.2301 8.11527 17.2328 8.11877 18.2356 8.12576C18.2356 7.727 18.2356 7.32939 18.2356 6.93179C18.2356 6.66828 18.3009 6.53069 18.5562 6.40826C19.0626 6.17313 19.4722 5.77014 19.7155 5.26758C19.9588 4.76502 20.0209 4.1938 19.8913 3.65071C19.6499 2.53136 18.7253 1.7723 17.543 1.74315C17.3039 1.74315 17.2048 1.61722 17.0859 1.44233C16.8993 1.16715 16.7128 0.859332 16.4504 0.677438C16.0598 0.403432 15.6051 0.221538 15.1772 0H14.2677C13.5681 0.214542 12.9012 0.500208 12.4791 1.13217C12.4188 1.23453 12.3321 1.31883 12.2282 1.37625C12.1242 1.43368 12.0067 1.46214 11.8879 1.45865C10.687 1.52628 9.69472 2.42642 9.44986 3.64254C9.22249 4.76889 9.82997 6.02116 10.8689 6.52953Z" fill="#704332"/>
<path d="M17.1484 35.5213V31.8554C18.1173 31.5289 18.4531 31.1966 18.3983 30.6241C18.3435 30.0516 17.9319 29.7182 17.1915 29.626C17.1717 29.6001 17.1567 29.5709 17.1472 29.5398C17.0854 28.9183 17.0854 28.9183 16.4639 28.9183H11.3021L12.053 27.6952C12.2291 27.7441 12.3935 27.7943 12.5602 27.8351C14.1261 28.2094 15.6571 27.2381 16.092 25.5941C16.5805 23.7436 15.6372 22.1124 13.802 21.5353C12.046 20.9826 10.304 20.3891 8.82087 19.2359C8.6053 19.0466 8.40054 18.8454 8.20756 18.6331L7.46133 19.0412C7.69453 19.2861 7.87409 19.5193 8.0933 19.714C9.02609 20.5407 10.1384 21.0397 11.2846 21.4735C12.0133 21.7498 12.7596 21.9818 13.5 22.243C14.4666 22.5928 15.0472 23.3717 15.0834 24.3651C15.1195 25.3585 14.5739 26.2762 13.7577 26.6504C13.5233 26.7568 13.2701 26.8154 13.0129 26.8228C12.7556 26.8302 12.4994 26.7863 12.2594 26.6936C12.0495 26.619 11.9341 26.6796 11.8338 26.8568C11.3277 27.7453 10.8194 28.6314 10.2772 29.5794C10.4498 29.5876 10.5792 29.5992 10.7086 29.5992C12.5159 29.5992 14.3232 29.6074 16.1304 29.5922C16.4394 29.5922 16.5665 29.6738 16.5176 29.9817C16.4686 30.2895 16.6225 30.3676 16.8988 30.342C17.0617 30.3286 17.2255 30.3333 17.3874 30.3559C17.5001 30.366 17.6044 30.4194 17.6786 30.5049C17.7527 30.5903 17.7909 30.7012 17.785 30.8142C17.7893 30.8703 17.7821 30.9268 17.7638 30.9801C17.7455 31.0334 17.7165 31.0824 17.6786 31.1241C17.6408 31.1658 17.5948 31.1993 17.5435 31.2226C17.4922 31.2459 17.4367 31.2585 17.3804 31.2596C17.1157 31.2829 16.8475 31.2596 16.5339 31.2596V35.3522H5.33224C5.32641 35.2298 5.31475 35.0957 5.31475 34.9628C5.31475 33.8562 5.30542 32.7474 5.31475 31.6455C5.31475 31.3645 5.24945 31.2304 4.94746 31.2654C4.78494 31.2837 4.62074 31.281 4.45892 31.2573C4.20939 31.2246 4.04965 31.0765 4.05199 30.8153C4.04721 30.7569 4.0544 30.6981 4.07313 30.6425C4.09186 30.5869 4.12172 30.5357 4.1609 30.4921C4.20008 30.4484 4.24775 30.4132 4.30099 30.3886C4.35424 30.364 4.41194 30.3505 4.47058 30.3489C4.64441 30.3295 4.81968 30.3264 4.9941 30.3396C5.24362 30.3606 5.3439 30.2557 5.30775 30.0178C5.25762 29.6843 5.38704 29.5829 5.72751 29.5899C6.88067 29.6097 8.03616 29.5899 9.18932 29.6062C9.52046 29.6062 9.70702 29.5258 9.87143 29.2226C10.3705 28.3038 10.9115 27.4083 11.4642 26.4557C11.231 26.3659 11.0188 26.2797 10.8054 26.2074C9.02609 25.5964 7.30742 24.863 5.74733 23.7961C4.54753 22.9799 3.53196 21.9772 3.02359 20.5733C2.29834 18.5585 2.79039 16.7629 4.63964 15.4138C5.69441 14.6623 6.88098 14.1157 8.1376 13.8024C9.36189 13.4794 10.6095 13.2428 11.8454 12.9594C11.9405 12.9345 12.0408 12.9387 12.1335 12.9713C12.2262 13.0039 12.307 13.0635 12.3655 13.1425C13.7985 14.7166 15.2373 16.2906 16.6645 17.8659C16.8335 18.0524 16.9455 18.1073 17.1309 17.8985C17.2906 17.7201 17.4807 17.5709 17.6777 17.3913L15.8273 15.3532C16.31 14.8495 16.7741 14.3633 17.2405 13.8794C17.3102 13.8179 17.3764 13.7525 17.4387 13.6835C17.7722 13.2369 18.1779 13.1262 18.7364 13.2439C19.9397 13.4969 21.1045 13.8269 22.1819 14.4414C23.5393 15.2056 24.6421 16.3518 25.3534 17.7376C26.5963 20.1267 26.8074 22.6721 26.3328 25.2757C26.053 26.816 23.9426 27.6555 22.6075 26.823C22.3385 26.6666 22.1192 26.4374 21.9747 26.1618C21.8303 25.8862 21.7668 25.5754 21.7913 25.2652C21.8275 24.4491 21.9312 23.6422 21.9429 22.8283C21.9604 21.5726 21.7318 20.3716 20.9227 19.3514C20.7784 19.169 20.5982 19.0182 20.3933 18.9083V35.5213H17.1484Z" fill="#704332"/>
<path d="M28.1446 37.603V36.5816C28.1446 36.1222 28.1446 36.1152 27.6922 36.1152H0V37.6054C9.38153 37.631 18.7631 37.61 28.1446 37.603Z" fill="#704332"/>
<path d="M11.2266 8.38281H18.1525C18.1071 9.59311 17.6243 10.5585 16.6367 11.2173C15.4708 11.9904 14.2301 12.0568 13.0035 11.3747C11.8562 10.7381 11.2685 9.73419 11.2266 8.38281Z" fill="#704332"/>
<path d="M8.54297 28.8019V26.3066L10.4016 27.0249C10.0599 27.5939 9.7521 28.1361 9.40813 28.6573C9.34284 28.7552 9.13762 28.7739 8.99071 28.8007C8.84173 28.813 8.69201 28.8134 8.54297 28.8019Z" fill="#704332"/>
<path d="M16.5899 12.7997L15.0998 14.4321C14.5634 13.8491 14.0737 13.3197 13.584 12.7869L13.6131 12.6621L16.5899 12.7997Z" fill="#704332"/>
<path d="M5.34423 28.2709C5.72667 27.6576 5.69403 27.5049 5.23463 26.9883C4.96003 26.708 4.71863 26.3969 4.51521 26.0614C4.17941 25.4481 4.4849 24.6505 5.1122 24.3672C5.1122 24.387 5.13435 24.4115 5.12852 24.4255C4.69478 25.3373 4.74958 25.6078 5.43168 26.3878C5.65686 26.6349 5.83577 26.9205 5.95987 27.2309C6.14526 27.7322 5.92839 28.0727 5.34423 28.2709Z" fill="#704332"/>
<path d="M7.29875 28.6119C7.52495 28.2527 7.3209 28.0172 7.10286 27.777C6.93665 27.6169 6.79201 27.4358 6.67262 27.2383C6.43942 26.7801 6.59449 26.2904 7.09587 26.0117C6.68194 26.6577 6.95245 27.0996 7.37804 27.5275C7.74766 27.896 7.71384 28.3484 7.29875 28.6119Z" fill="#704332"/>
</svg>
