<svg width="32" height="33" viewBox="0 0 32 33" fill="none" xmlns="http://www.w3.org/2000/svg">
<path d="M18.0442 6.82688V11.9273C18.0442 13.3667 18.8081 14.1374 20.2419 14.1386C22.2254 14.1386 24.2088 14.1386 26.1923 14.1386C26.6185 14.1386 27.0435 14.0887 27.5162 14.0581C27.4379 14.4684 27.3643 14.8651 27.2895 15.2607C27.1421 16.0166 26.9982 16.7726 26.8361 17.5275C26.674 18.2823 26.3827 18.5272 25.5893 18.5272H9.98329C9.99235 18.6564 9.98329 18.7539 10.006 18.8468C10.1726 19.7603 10.3573 20.6716 10.5024 21.5874C10.5489 21.8832 10.669 21.9422 10.9422 21.9422C14.5578 21.9331 18.173 21.9308 21.7879 21.9354C22.7513 21.9354 23.7147 21.9354 24.6781 21.9354C25.1972 21.9354 25.3423 22.0861 25.3468 22.6063C25.3468 22.8104 25.3468 23.0144 25.3468 23.2184C25.3468 23.742 25.2017 23.8871 24.6815 23.8871C22.7093 23.8871 20.7372 23.8871 18.765 23.8871H9.95835C9.21483 23.8871 8.902 23.6276 8.76939 22.9044C7.80976 17.6348 6.85014 12.3655 5.89051 7.09663C5.62642 5.64925 5.35667 4.19734 5.10391 2.75223C5.06198 2.50968 4.96677 2.44394 4.72762 2.44621C3.39132 2.45754 2.05388 2.45187 0.716447 2.45187C0.159938 2.45187 0.00352619 2.30226 0.00352619 1.75029C0.00352619 1.5134 -0.00440774 1.27425 0.00352619 1.03737C0.0182606 0.697341 0.192807 0.50466 0.532833 0.503526C2.3123 0.503526 4.09177 0.495592 5.87124 0.503526C6.39375 0.503526 6.73491 0.843552 6.83465 1.38419C7.14407 3.04692 7.45349 4.70625 7.73458 6.36897C7.79579 6.72827 7.9148 6.83934 8.28996 6.83708C11.3955 6.81894 14.5 6.82688 17.6055 6.82688H18.0442Z" fill="#704332"/>
<path d="M21.8696 4.97885C22.306 5.38461 22.7095 5.74504 23.0949 6.1236C23.5052 6.5271 23.4972 6.73225 23.0881 7.14368C22.9532 7.28196 22.8172 7.4191 22.6778 7.55171C22.3377 7.877 22.111 7.8838 21.771 7.55171C20.87 6.65858 19.9757 5.75751 19.0791 4.8587C18.9828 4.76236 18.8842 4.66829 18.7935 4.56855C18.4535 4.18885 18.4161 3.63915 18.7731 3.27305C19.7932 2.2269 20.8314 1.19776 21.8708 0.169748C22.1088 -0.0660034 22.3321 -0.051269 22.5905 0.183349C22.7911 0.365829 22.9849 0.558511 23.1719 0.750059C23.4689 1.05948 23.4723 1.3009 23.1719 1.60352C22.7605 2.01949 22.3366 2.42412 21.8492 2.90242C22.0759 2.91262 22.1893 2.92282 22.3026 2.92282C23.6514 2.92282 25.0013 2.91036 26.3489 2.92282C26.9988 2.92664 27.6414 3.06025 28.2389 3.31581C28.8365 3.57137 29.377 3.94373 29.8286 4.41103C30.2803 4.87833 30.6341 5.43115 30.8692 6.03704C31.1043 6.64294 31.216 7.28969 31.1977 7.93934C31.1591 10.3649 29.1643 12.5365 26.7411 12.6464C24.7394 12.7371 22.7299 12.6782 20.7237 12.685C20.4857 12.685 20.2477 12.6929 20.0108 12.6782C19.681 12.6589 19.5189 12.49 19.5076 12.1579C19.4974 11.8757 19.4996 11.5912 19.5076 11.309C19.5167 10.9032 19.6799 10.7423 20.0958 10.7321C20.3792 10.7242 20.6625 10.7321 20.9459 10.7321C22.748 10.7321 24.5502 10.7502 26.3523 10.7242C26.8103 10.7218 27.2612 10.6115 27.6685 10.4021C28.0758 10.1927 28.428 9.89027 28.6964 9.51924C28.9649 9.14821 29.142 8.71909 29.2135 8.26674C29.2849 7.81439 29.2487 7.35157 29.1076 6.91586C28.7608 5.83458 27.7475 4.95958 26.6368 4.91991C25.1089 4.86551 23.5766 4.89837 22.0476 4.89497C21.9858 4.91736 21.9262 4.94544 21.8696 4.97885Z" fill="#704332"/>
<path d="M22.4384 25.8477C23.1103 25.8506 23.7663 26.0525 24.3235 26.4279C24.8807 26.8033 25.3142 27.3353 25.5693 27.9569C25.8244 28.5785 25.8897 29.2617 25.7568 29.9203C25.624 30.5789 25.299 31.1834 24.8228 31.6575C24.3467 32.1315 23.7408 32.4539 23.0817 32.5839C22.4225 32.7139 21.7396 32.6457 21.1191 32.3879C20.4986 32.1302 19.9685 31.6943 19.5955 31.1355C19.2225 30.5766 19.0234 29.9198 19.0234 29.2479C19.0234 28.8002 19.1119 28.3568 19.2837 27.9433C19.4555 27.5298 19.7072 27.1543 20.0246 26.8384C20.3419 26.5224 20.7184 26.2723 21.1327 26.1023C21.5469 25.9323 21.9907 25.8457 22.4384 25.8477ZM23.8824 29.2479C23.8831 28.9592 23.7978 28.6768 23.6375 28.4366C23.4772 28.1965 23.249 28.0095 22.9821 27.8993C22.7152 27.7892 22.4215 27.761 22.1385 27.8182C21.8555 27.8755 21.5959 28.0156 21.3928 28.2209C21.1897 28.4261 21.0522 28.6871 20.9978 28.9707C20.9435 29.2542 20.9747 29.5476 21.0875 29.8134C21.2003 30.0792 21.3897 30.3054 21.6315 30.4632C21.8732 30.6211 22.1565 30.7035 22.4452 30.6999C22.8281 30.6972 23.1943 30.5429 23.4637 30.2707C23.7331 29.9986 23.8836 29.6308 23.8824 29.2479Z" fill="#704332"/>
<path d="M7.32626 29.232C7.3294 28.5606 7.53128 27.905 7.90646 27.3481C8.28164 26.7912 8.8133 26.3579 9.43443 26.1027C10.0556 25.8475 10.7383 25.782 11.3966 25.9144C12.055 26.0467 12.6594 26.371 13.1336 26.8464C13.6079 27.3217 13.9308 27.9269 14.0616 28.5855C14.1924 29.2441 14.1253 29.9268 13.8687 30.5473C13.6121 31.1678 13.1775 31.6985 12.6197 32.0724C12.0619 32.4462 11.4059 32.6466 10.7345 32.6482C10.2856 32.6504 9.84073 32.5636 9.42569 32.3926C9.01065 32.2216 8.63368 31.9699 8.31664 31.6522C7.99961 31.3344 7.74881 30.9568 7.57881 30.5414C7.4088 30.126 7.32296 29.6809 7.32626 29.232ZM12.1818 29.2638C12.1882 29.0703 12.1551 28.8775 12.0846 28.6973C12.014 28.517 11.9076 28.3529 11.7717 28.2151C11.6357 28.0773 11.4732 27.9685 11.2939 27.8955C11.1146 27.8225 10.9223 27.7867 10.7288 27.7903C10.5345 27.7849 10.3411 27.8185 10.16 27.8891C9.97885 27.9597 9.81374 28.0659 9.67439 28.2014C9.53504 28.3369 9.42427 28.499 9.34863 28.6781C9.27299 28.8572 9.23402 29.0496 9.23402 29.2439C9.23402 29.4383 9.27299 29.6307 9.34863 29.8098C9.42427 29.9889 9.53504 30.1509 9.67439 30.2865C9.81374 30.422 9.97885 30.5282 10.16 30.5988C10.3411 30.6694 10.5345 30.703 10.7288 30.6976C10.9186 30.6998 11.107 30.6644 11.283 30.5934C11.4591 30.5224 11.6193 30.4171 11.7544 30.2838C11.8896 30.1505 11.9969 29.9917 12.0703 29.8166C12.1436 29.6415 12.1815 29.4536 12.1818 29.2638Z" fill="#704332"/>
</svg>
