<svg width="31" height="28" viewBox="0 0 31 28" fill="none" xmlns="http://www.w3.org/2000/svg">
<path d="M0 7.82229C0.237529 7.30764 0.641328 7.14929 1.19556 7.16513C2.6524 7.18888 4.11716 7.17304 5.57401 7.17304C6.25492 7.17304 6.69039 7.77478 6.45286 8.37652C6.31035 8.74073 6.02531 8.94659 5.62943 8.94659C4.05382 8.95451 2.4703 8.94659 0.894691 8.94659C0.443387 8.94659 0.190023 8.66156 0 8.29735C0 8.13899 0 7.98064 0 7.82229Z" fill="#704332"/>
<path d="M9.72314 7.22898C9.85774 7.22898 9.98442 7.22898 10.1111 7.22898C16.5085 7.22898 22.9139 7.22898 29.3113 7.22898C29.731 7.22898 30.0873 7.34775 30.2535 7.75155C30.3327 7.94157 30.3406 8.1791 30.301 8.37704C29.533 12.0983 28.7571 15.8117 27.9812 19.5251C27.8545 20.1426 27.5615 20.3802 26.9361 20.3802C21.4966 20.3802 16.0493 20.3802 10.6099 20.3802C10.0794 20.3802 9.70731 20.6098 9.54895 21.0294C9.31142 21.647 9.73898 22.3358 10.4041 22.3912C10.5149 22.3991 10.6178 22.3991 10.7287 22.3991C15.9543 22.3991 21.1799 22.3991 26.4056 22.3991C26.5323 22.3991 26.6669 22.3912 26.7856 22.4229C27.2211 22.5179 27.522 22.9217 27.4903 23.3493C27.4586 23.8006 27.0944 24.1648 26.6352 24.1727C26.081 24.1885 25.5267 24.1727 24.9646 24.1727C25.3525 25.582 25.0279 26.7459 23.7928 27.5377C22.8189 28.1632 21.7658 28.1473 20.8078 27.4902C19.6281 26.6826 19.3193 25.5424 19.7152 24.1806C18.6146 24.1806 17.5299 24.1806 16.4294 24.1806C16.8252 25.6058 16.4769 26.7855 15.2101 27.5694C14.2204 28.179 13.1752 28.1394 12.2251 27.4664C11.085 26.6588 10.7841 25.5266 11.18 24.1648C10.1903 24.244 9.27184 24.1014 8.5355 23.3809C8.06044 22.9138 7.78332 22.3437 7.71207 21.6866C7.5933 20.6573 8.10003 19.1608 9.90525 18.6462C9.05806 13.864 8.21879 9.08171 7.36369 4.25988C7.24492 4.25988 7.142 4.25988 7.03907 4.25988C5.85142 4.25988 4.6717 4.25988 3.48405 4.25988C2.88231 4.25988 2.47852 3.89566 2.47852 3.3731C2.47852 2.84262 2.88231 2.48633 3.48405 2.48633C4.9884 2.48633 6.48483 2.48633 7.98918 2.48633C8.59092 2.48633 8.89971 2.74761 9.00264 3.34143C9.21641 4.56866 9.43811 5.78798 9.65188 7.01521C9.67564 7.07855 9.69939 7.14981 9.72314 7.22898Z" fill="#704332"/>
<path d="M15.2328 0C15.2328 0.506728 15.2249 0.989703 15.2328 1.47268C15.2487 1.99524 15.6604 2.3832 16.1434 2.36737C16.6263 2.35153 16.9985 1.96357 17.0064 1.45684C17.0143 1.08471 17.0064 0.704668 17.0064 0.33254C17.0064 0.237529 17.0064 0.1346 17.0064 0C17.2122 0 17.4102 0 17.6002 0C18.3682 0 19.1441 0 19.9122 0C20.4585 0 20.8543 0.356293 20.8543 0.886774C20.8623 2.36737 20.8543 3.84796 20.8543 5.32856C20.8543 5.36023 20.8464 5.38398 20.8385 5.43149C17.6952 5.43149 14.5519 5.43149 11.3849 5.43149C11.377 5.33648 11.377 5.24938 11.377 5.17021C11.377 3.78462 11.377 2.40696 11.377 1.02137C11.377 0.348375 11.7253 0 12.3983 0C13.2455 0 14.0927 0 14.9478 0C15.0349 0 15.1141 0 15.2328 0Z" fill="#704332"/>
<path d="M26.9918 2.36845C27.5698 2.36845 28.0923 2.35262 28.6149 2.37637C29.082 2.3922 29.4463 2.76433 29.4542 3.24731C29.4621 3.96781 29.4542 4.68832 29.4542 5.43257C27.2293 5.43257 25.0203 5.43257 22.7559 5.43257C22.7559 5.32173 22.7559 5.19504 22.7559 5.07628C22.7559 4.49037 22.7559 3.91239 22.7559 3.32648C22.7559 2.7485 23.1201 2.37637 23.6901 2.37637C24.181 2.36845 24.6719 2.37637 25.2182 2.37637C25.2182 2.56639 25.2103 2.74058 25.2182 2.91477C25.2578 3.42941 25.6458 3.80154 26.1208 3.78571C26.6038 3.76987 26.9601 3.39774 26.9839 2.87518C26.9997 2.70891 26.9918 2.55847 26.9918 2.36845Z" fill="#704332"/>
<path d="M4.23665 10.4898C4.83839 10.4898 5.44013 10.4898 6.04187 10.4898C6.58819 10.4898 6.98407 10.862 6.99199 11.3687C6.99199 11.8754 6.60402 12.2634 6.05771 12.2634C4.82256 12.2713 3.59533 12.2713 2.36018 12.2634C1.81386 12.2634 1.41798 11.8754 1.4259 11.3687C1.43382 10.862 1.8297 10.4898 2.37601 10.4898C2.99359 10.4819 3.61908 10.4898 4.23665 10.4898Z" fill="#704332"/>
<path d="M5.18748 13.8063C5.6467 13.8063 6.11384 13.8063 6.57307 13.8063C7.1273 13.8142 7.51526 14.1784 7.52318 14.6851C7.5311 15.1918 7.13522 15.5798 6.5889 15.5798C5.65462 15.5877 4.72034 15.5877 3.77815 15.5798C3.23183 15.5798 2.83595 15.1918 2.84387 14.6851C2.85178 14.1784 3.24767 13.8063 3.79398 13.8063C4.26112 13.7983 4.72034 13.8063 5.18748 13.8063Z" fill="#704332"/>
</svg>
