<svg width="34" height="35" viewBox="0 0 34 35" fill="none" xmlns="http://www.w3.org/2000/svg">
<path d="M21.8874 7.14859C20.8825 8.11245 19.8373 9.05622 18.8927 10.0803C18.2495 10.7831 17.6667 11.5663 17.2044 12.4096C16.8828 12.9719 16.5814 13.1325 15.9784 13.1124C13.848 13.0723 11.7175 13.0924 9.58704 13.0924C9.38606 13.0924 9.14487 13.0321 9.00418 13.1124C8.7027 13.2731 8.42132 13.5141 8.13994 13.7349C8.42132 13.9357 8.7228 14.2972 9.00418 14.3173C11.0743 14.3775 13.1445 14.3374 15.1946 14.3374C15.5563 14.3374 15.9181 14.3374 16.3804 14.3374C16.3402 14.8795 16.3 15.3213 16.2598 15.7631C16.1593 15.7831 16.0789 15.8434 16.0588 15.8233C14.3705 14.7189 12.7827 15.1606 11.0944 15.9639C8.86349 17.008 6.57225 17.8916 4.28101 18.8353C3.05499 19.3373 2.47213 20.2209 2.49223 21.5261C2.51233 24.257 2.51233 26.988 2.49223 29.7189C2.49223 31.004 3.03489 31.8675 4.22071 32.3695C6.00949 33.1526 7.77817 33.9558 9.50665 34.9197C9.32576 34.9398 9.12477 34.9799 8.94389 34.9799C6.51195 34.9799 4.08002 35 1.64809 34.9799C0.401973 34.9799 0 34.5984 0 33.3735C0 22.7912 0 12.1888 0 1.60643C0 0.381526 0.401973 0 1.64809 0C9.70763 0 17.7873 0 25.8468 0C26.1483 0 26.4498 0.0200804 26.7312 0.120482C27.515 0.421687 27.6959 1.24498 27.113 1.84739C26.0679 2.91165 25.0228 4.01606 23.9174 5C23.5355 5.34137 22.9526 5.60241 22.4502 5.60241C18.1893 5.64257 13.9283 5.62249 9.64734 5.62249C9.34586 5.62249 9.02428 5.56225 8.763 5.66265C8.52182 5.74297 8.34093 6.00402 8.13994 6.18474C8.34093 6.40562 8.50172 6.70683 8.763 6.84739C8.96399 6.96787 9.28556 6.88755 9.54685 6.88755C13.3053 6.88755 17.0838 6.88755 20.8423 6.88755C21.1638 6.88755 21.4854 6.88755 21.807 6.88755C21.807 6.96787 21.8472 7.04819 21.8874 7.14859ZM4.4418 13.5341C4.08002 13.1928 3.89913 12.9116 3.63785 12.8112C3.35647 12.6908 3.01479 12.7309 2.69322 12.6908C2.71331 13.012 2.61282 13.3936 2.77361 13.6345C3.01479 14.0161 3.41677 14.2972 3.73834 14.6386C4.18051 15.1004 4.58249 15.0602 5.02466 14.6185C5.72811 13.9157 6.47176 13.2329 7.11491 12.49C7.3159 12.2691 7.2556 11.8273 7.3159 11.4659C6.95412 11.5261 6.47176 11.4659 6.23057 11.6867C5.58742 12.2088 5.06485 12.8715 4.4418 13.5341ZM4.46189 6.04418C4.05992 5.68273 3.85894 5.38153 3.57755 5.26104C3.29617 5.16064 2.9344 5.24096 2.61282 5.26104C2.65302 5.56225 2.59272 5.90362 2.75351 6.1245C3.01479 6.50602 3.39667 6.78715 3.71825 7.12851C4.14032 7.59036 4.54229 7.59036 4.98446 7.12851C5.66781 6.40562 6.43156 5.76305 7.07472 5C7.2757 4.75904 7.19531 4.29719 7.2556 3.93574C6.91393 3.99598 6.47176 3.95582 6.25067 4.15663C5.60752 4.71888 5.06485 5.38153 4.46189 6.04418Z" fill="#704332"/>
<path d="M19.0004 17.4983C17.9291 17.5354 17.4489 17.0722 17.5043 16.0162C17.5966 14.3672 18.1877 12.8851 19.3514 11.7179C22.4729 8.5497 25.613 5.40008 28.7715 2.26898C29.9352 1.1203 31.7453 1.1203 32.8166 2.2134C33.8879 3.30651 33.8694 5.01101 32.7058 6.17822C29.5842 9.34637 26.4442 12.496 23.2857 15.6271C22.1035 16.7943 20.4966 17.4428 19.0004 17.4983Z" fill="#704332"/>
<path d="M23.7147 21.3457C23.7147 24.2574 23.7348 27.1489 23.6946 30.0405C23.6946 30.3818 23.3731 30.9039 23.0515 31.0646C20.2377 32.3899 17.3837 33.6349 14.3488 35.0003C14.3488 33.8959 14.3488 32.932 14.3488 31.9883C14.3488 30.0606 14.3287 28.1329 14.3689 26.2051C14.3689 25.8638 14.6101 25.3216 14.8914 25.2011C17.7052 23.8959 20.5391 22.671 23.353 21.426C23.4334 21.3658 23.5338 21.3859 23.7147 21.3457Z" fill="#704332"/>
<path d="M13.1051 34.9788C10.0903 33.6335 7.23629 32.3885 4.42249 31.0431C4.08081 30.8825 3.75923 30.2399 3.75923 29.8182C3.67884 27.027 3.71903 24.2359 3.71903 21.3242C4.02051 21.4045 4.2617 21.4447 4.48278 21.5451C7.1358 22.7098 9.76872 23.8744 12.4016 25.0792C12.7031 25.2198 13.0649 25.6013 13.0649 25.8624C13.1252 28.8543 13.1051 31.8061 13.1051 34.9788Z" fill="#704332"/>
<path d="M4.38086 20.159C5.92845 19.4964 7.33536 18.894 8.72216 18.2916C10.0889 17.6892 11.4556 17.0667 12.8424 16.5446C13.3046 16.3639 13.9277 16.3036 14.3498 16.4643C17.1234 17.5888 19.8568 18.7936 22.6103 19.9783C22.6907 20.0185 22.751 20.0988 22.8917 20.2394C19.9171 21.5647 16.9626 22.8699 14.0282 24.155C13.8272 24.2354 13.5056 24.2153 13.2845 24.1149C10.3903 22.8096 7.47605 21.5245 4.38086 20.159Z" fill="#704332"/>
<path d="M17.9297 34.7582C19.5979 34.0153 21.2259 33.212 22.9141 32.5293C24.4416 31.9269 25.0245 30.8827 24.9843 29.2964C24.924 26.8667 24.9642 24.4369 24.9642 22.0072C24.9642 19.9189 24.6426 19.457 22.6931 18.6337C22.4117 18.5132 22.1504 18.3727 22.0901 18.3526C23.8186 16.8667 25.5873 15.3606 27.3961 13.8145C27.4162 14.0554 27.4564 14.3365 27.4564 14.5976C27.4564 20.7823 27.4564 26.9671 27.4564 33.1518C27.4564 34.6177 27.1148 34.959 25.6275 34.959C23.0749 34.959 20.5224 34.959 17.9699 34.959C17.9699 34.8988 17.9498 34.8386 17.9297 34.7582Z" fill="#704332"/>
<path d="M4.44362 13.5331C5.06668 12.8705 5.58925 12.2078 6.2123 11.6857C6.45349 11.4849 6.93585 11.5452 7.29763 11.4648C7.23733 11.8062 7.27753 12.248 7.09664 12.4889C6.45349 13.2319 5.70984 13.9146 5.00639 14.6175C4.58432 15.0592 4.16224 15.0793 3.72007 14.6375C3.3985 14.2962 2.99652 14.015 2.75534 13.6335C2.61465 13.3926 2.69504 13.011 2.67495 12.6897C2.99652 12.7299 3.3382 12.6897 3.61958 12.8102C3.90096 12.9106 4.08185 13.1918 4.44362 13.5331Z" fill="white"/>
<path d="M4.46097 6.04453C5.06393 5.38188 5.60659 4.71923 6.22965 4.1369C6.45073 3.9361 6.8929 3.97626 7.23458 3.91602C7.17428 4.27746 7.25468 4.75939 7.05369 4.98027C6.41053 5.74333 5.66689 6.3859 4.96343 7.10879C4.52126 7.57063 4.13939 7.57063 3.69722 7.10879C3.37564 6.76742 2.99377 6.4863 2.73249 6.10477C2.5918 5.88389 2.63199 5.52244 2.5918 5.24132C2.91337 5.24132 3.27515 5.14092 3.55653 5.24132C3.85801 5.38188 4.0791 5.68308 4.46097 6.04453Z" fill="white"/>
</svg>
