<svg xmlns="http://www.w3.org/2000/svg" width="40" height="40" viewBox="0 0 40 40">
  <g id="Group_16079" data-name="Group 16079" transform="translate(-1246 -1040)">
    <path id="Path_8786" data-name="Path 8786" d="M0,0H40V40H0Z" transform="translate(1246 1040)" fill="none"/>
    <path id="Path_16758" data-name="Path 16758" d="M15.474,8.263a6.581,6.581,0,0,1,6.579,6.579,6.386,6.386,0,0,1-.474,2.408l3.842,3.842a15.549,15.549,0,0,0,4.513-6.25A15.562,15.562,0,0,0,15.461,4.974a15.323,15.323,0,0,0-5.237.921l2.842,2.842A6.386,6.386,0,0,1,15.474,8.263ZM2.316,4.671l3,3,.605.605A15.532,15.532,0,0,0,1,14.842a15.555,15.555,0,0,0,20.237,8.763l.553.553L25.645,28l1.671-1.671L3.987,3Zm7.276,7.276,2.039,2.039a3.712,3.712,0,0,0-.105.855,3.942,3.942,0,0,0,3.947,3.947,3.712,3.712,0,0,0,.855-.105l2.039,2.039a6.536,6.536,0,0,1-8.776-8.776Zm5.671-1.026,4.145,4.145.026-.211a3.942,3.942,0,0,0-3.947-3.947Z" transform="translate(1250 1045)" fill="#704332"/>
  </g>
</svg>
