<svg xmlns="http://www.w3.org/2000/svg" width="40" height="40" viewBox="0 0 40 40">
  <g id="Group_16080" data-name="Group 16080" transform="translate(-1246 -969)">
    <path id="Path_8786" data-name="Path 8786" d="M0,0H40V40H0Z" transform="translate(1246 969)" fill="none"/>
    <path id="Path_16756" data-name="Path 16756" d="M15.376,4.5A15.456,15.456,0,0,0,1,14.3a15.443,15.443,0,0,0,28.752,0A15.456,15.456,0,0,0,15.376,4.5Zm0,16.336A6.535,6.535,0,1,1,21.91,14.3,6.537,6.537,0,0,1,15.376,20.836Zm0-10.455A3.921,3.921,0,1,0,19.3,14.3,3.915,3.915,0,0,0,15.376,10.381Z" transform="translate(1250 974.5)" fill="#704332"/>
  </g>
</svg>
