<svg width="23" height="23" viewBox="0 0 23 23" fill="none" xmlns="http://www.w3.org/2000/svg">
<path d="M0 5.57242C0.101954 5.09863 0.167924 4.61285 0.317857 4.15706C1.1215 1.69816 3.41246 0.024917 5.9973 0.00692509C7.80249 -0.00506952 9.60168 0.000927786 11.4069 0.00692509C14.2976 0.0129224 16.5585 2.24992 16.6125 5.13462C16.6125 5.1766 16.6125 5.22458 16.6125 5.33253C16.8404 5.10463 17.0323 4.91871 17.2183 4.7268C17.3982 4.54688 17.6141 4.45093 17.866 4.5109C18.3697 4.61885 18.5916 5.21858 18.2378 5.59641C17.6321 6.23812 17.0023 6.85584 16.3666 7.46757C16.1087 7.71346 15.7309 7.69547 15.473 7.44358C14.8613 6.84985 14.2616 6.24412 13.6619 5.63239C13.392 5.35652 13.404 4.9427 13.6678 4.68482C13.9317 4.42694 14.3335 4.42094 14.6154 4.69082C14.8193 4.88873 15.0052 5.09863 15.2032 5.30854C15.2331 5.29654 15.2631 5.28455 15.2871 5.27256C15.2451 4.9487 15.2331 4.61285 15.1612 4.295C14.7773 2.59176 13.242 1.36831 11.4968 1.35032C10.9751 1.34432 10.4533 1.35032 9.93753 1.35032C10.2734 1.72815 10.6332 2.07599 10.9331 2.47182C13.6319 6.0642 11.4908 11.3358 7.05283 12.0375C3.67035 12.5773 0.557749 10.2923 0.0539757 6.90982C0.0419811 6.78987 0.0179919 6.67592 0 6.55598C0 6.22613 0 5.89628 0 5.57242ZM3.72432 8.43313C3.72432 8.99688 4.23409 9.31474 4.69589 9.09284C5.1037 8.89493 5.49952 8.66703 5.91334 8.46912C5.9973 8.42714 6.12924 8.42714 6.2132 8.46912C6.59703 8.65503 6.96886 8.85894 7.34669 9.05685C7.61057 9.20079 7.87446 9.21878 8.12634 9.03286C8.37823 8.84695 8.4382 8.59506 8.37823 8.2952C8.30626 7.89338 8.24629 7.48556 8.16233 7.08374C8.12634 6.92181 8.18032 6.82586 8.29427 6.71791C8.60013 6.43003 8.894 6.13617 9.19386 5.8423C9.39777 5.64439 9.48773 5.41049 9.39177 5.12862C9.30181 4.85274 9.1099 4.70281 8.82203 4.66083C8.37823 4.59486 7.93443 4.53489 7.49063 4.45692C7.40667 4.43893 7.31071 4.36696 7.26873 4.289C7.06482 3.90517 6.8789 3.51535 6.68699 3.12552C6.55505 2.86164 6.35714 2.69971 6.05727 2.69971C5.75741 2.69971 5.5535 2.86164 5.42756 3.12552C5.24764 3.49735 5.05572 3.85719 4.8878 4.23502C4.81583 4.39695 4.70788 4.46292 4.53996 4.48691C4.13214 4.53489 3.72432 4.60086 3.3225 4.66083C3.02864 4.70281 2.82473 4.84675 2.72877 5.13462C2.63282 5.42249 2.73477 5.65638 2.94467 5.86029C3.23854 6.14816 3.52641 6.44203 3.83228 6.71791C3.94622 6.82586 3.9942 6.92181 3.96422 7.08374C3.86826 7.54553 3.79629 8.01932 3.72432 8.43313Z" fill="white"/>
<path d="M15.3577 22.9854C15.3577 20.0945 15.3577 17.1976 15.3577 14.2886C14.698 14.1027 14.0442 13.9168 13.3965 13.7309C11.825 13.281 11.2373 11.4517 12.2989 10.2522C12.8447 9.6344 13.5404 9.40049 14.3441 9.56843C15.1418 9.73636 15.6636 10.2282 15.9395 10.9959C15.9695 11.0739 15.9935 11.1578 16.0355 11.2958C16.0774 11.1698 16.1074 11.0919 16.1314 11.0199C16.4433 10.0482 17.3909 9.42448 18.3806 9.53244C19.4002 9.6464 20.1859 10.4321 20.2999 11.4517C20.4078 12.4353 19.784 13.389 18.8064 13.6949C18.1886 13.8868 17.5589 14.0547 16.9351 14.2347C16.8631 14.2527 16.7972 14.2767 16.7132 14.3006C16.7132 17.2036 16.7132 20.0945 16.7132 22.9914C16.2514 22.9854 15.8075 22.9854 15.3577 22.9854ZM17.0011 12.8072C17.5229 12.6513 18.0027 12.5253 18.4705 12.3634C18.7944 12.2494 18.9803 11.8896 18.9384 11.5537C18.8964 11.2058 18.6145 10.9179 18.2666 10.8699C17.9307 10.822 17.5589 10.9959 17.4449 11.3198C17.283 11.7936 17.157 12.2854 17.0011 12.8072ZM15.0518 12.8012C14.9079 12.2974 14.7819 11.8356 14.632 11.3797C14.518 11.0259 14.1642 10.822 13.8043 10.8639C13.4504 10.9059 13.1565 11.1998 13.1146 11.5597C13.0726 11.9195 13.2825 12.2674 13.6364 12.3874C14.0862 12.5373 14.548 12.6573 15.0518 12.8012Z" fill="white"/>
<path d="M10.4648 22.9879C10.075 22.8079 9.96102 22.5021 9.96702 22.0822C9.98501 20.5288 9.97302 18.9694 9.97302 17.416C9.97302 17.338 9.97302 17.254 9.97302 17.1641C11.3225 17.1641 12.654 17.1641 14.0155 17.1641C14.0155 19.1073 14.0155 21.0506 14.0155 22.9879C12.8279 22.9879 11.6464 22.9879 10.4648 22.9879Z" fill="white"/>
<path d="M18.0508 22.9879C18.0508 21.0506 18.0508 19.1133 18.0508 17.1641C19.4003 17.1641 20.7378 17.1641 22.0933 17.1641C22.0933 17.254 22.0933 17.332 22.0933 17.416C22.0933 18.9694 22.0813 20.5288 22.0993 22.0822C22.1053 22.5021 21.9853 22.8079 21.6014 22.9879C20.4139 22.9879 19.2323 22.9879 18.0508 22.9879Z" fill="white"/>
<path d="M14.0085 15.8039C13.4388 15.8039 12.905 15.8039 12.3652 15.8039C11.5195 15.8039 10.6738 15.8039 9.82812 15.8039C9.3363 15.8039 9.06641 15.534 9.06641 15.0421C9.06641 14.6403 9.06641 14.2325 9.06641 13.8306C9.0724 13.3928 9.3483 13.1169 9.78014 13.1109C10.05 13.1109 10.3199 13.1049 10.5898 13.1169C10.6618 13.1229 10.7578 13.1768 10.7938 13.2368C11.3036 14.1845 12.0833 14.7902 13.1269 15.0541C13.3368 15.1081 13.5407 15.1861 13.7506 15.2281C13.9606 15.2701 14.0445 15.366 14.0085 15.5759C13.9965 15.6419 14.0085 15.7079 14.0085 15.8039Z" fill="white"/>
<path d="M18.0821 15.8024C18.0641 15.7724 18.0581 15.7664 18.0581 15.7604C18.0281 15.3165 18.0281 15.3105 18.454 15.1966C19.0957 15.0227 19.7375 14.8487 20.2773 14.4229C20.6791 14.099 21.003 13.7151 21.2549 13.2653C21.2969 13.1933 21.4049 13.1274 21.4888 13.1214C21.7587 13.1034 22.0286 13.1094 22.2985 13.1154C22.7064 13.1214 22.9883 13.3973 22.9943 13.8051C23.0003 14.2489 23.0003 14.6868 22.9943 15.1306C22.9883 15.4965 22.7244 15.7964 22.3705 15.8024C20.937 15.8084 19.5096 15.8024 18.0821 15.8024Z" fill="white"/>
</svg>
