<svg width="28" height="32" viewBox="0 0 28 32" fill="none" xmlns="http://www.w3.org/2000/svg">
<path d="M20.9158 14.5605C23.0441 15.6247 25.0848 16.6227 27.1056 17.6637C28.1252 18.1892 28.1913 19.06 27.3138 19.8316C26.4877 20.5554 25.6796 21.3023 24.8121 21.9797C24.3412 22.3449 24.3346 22.6407 24.5775 23.1463C25.1955 24.4335 25.754 25.7505 26.3208 27.0625C26.7933 28.158 26.4513 28.8239 25.3112 29.0585C21.7751 29.7922 18.239 30.5325 14.6946 31.2331C14.2751 31.3134 13.8407 31.2555 13.457 31.0678C9.22247 28.7666 4.99733 26.4417 0.781553 24.0931C-0.023157 23.6486 -0.180133 23.1579 0.19 22.3053C1.01619 20.4149 1.8556 18.5362 2.67683 16.6459C2.77531 16.3746 2.94926 16.1372 3.1782 15.9615C3.40713 15.7859 3.68151 15.6793 3.969 15.6544C4.86294 15.5321 5.75357 15.3669 6.63925 15.2017C7.08704 15.1124 7.31672 15.2529 7.53318 15.6676C8.45687 17.4473 9.3822 19.2285 10.3835 20.9652C12.0855 23.9147 15.8265 23.9048 17.5086 20.9437C18.5529 19.1062 19.5096 17.2176 20.5044 15.3504C20.6316 15.1058 20.7572 14.8712 20.9158 14.5605Z" fill="#704332"/>
<path d="M13.9645 0C18.6027 0 22.0744 4.50439 20.574 8.91129C19.571 11.8558 18.064 14.6318 16.7471 17.4673C16.3339 18.3357 15.8648 19.1764 15.3426 19.9839C14.6667 21.0513 13.2407 21.1125 12.6161 20.0368C10.5292 16.4528 8.45545 12.8423 7.26904 8.83363C5.96531 4.41847 9.37252 0 13.9645 0ZM13.9645 10.2646C14.6079 10.2606 15.2357 10.0659 15.7684 9.70504C16.3011 9.34416 16.7148 8.83335 16.9571 8.23728C17.1994 7.6412 17.2594 6.98665 17.1295 6.35645C16.9997 5.72625 16.6858 5.14875 16.2275 4.69702C15.7693 4.24529 15.1874 3.93965 14.5554 3.81878C13.9235 3.6979 13.2698 3.76723 12.6773 4.01798C12.0847 4.26873 11.5798 4.68964 11.2266 5.22744C10.8733 5.76523 10.6876 6.39573 10.6928 7.03915C10.7032 7.89821 11.0518 8.71855 11.663 9.32233C12.2742 9.92611 13.0987 10.2647 13.9579 10.2646H13.9645Z" fill="#704332"/>
</svg>
