<svg xmlns="http://www.w3.org/2000/svg" width="50" height="50" viewBox="0 0 50 50">
  <g id="Release" transform="translate(-361 -423)">
    <rect id="Rectangle_17969" data-name="Rectangle 17969" width="50" height="50" transform="translate(361 423)" fill="none"/>
    <g id="Group_16167" data-name="Group 16167" transform="translate(179 91)">
      <path id="Subtraction_3" data-name="Subtraction 3" d="M25.531,34.8H8.305c1.308-1.862,1.308-4.019,1.308-5.921h2.306c2.727,0,5.514.009,8.209.017l.491,0h.087l.5,0c2.716.009,5.524.017,8.285.017.5,0,.767.069.912.239s.167.441.089.914a9.659,9.659,0,0,1-.385,1.5A4.578,4.578,0,0,1,25.531,34.8ZM4.382,34.717A4.086,4.086,0,0,1,.577,32.529,4.641,4.641,0,0,1,0,30.145V.922C0,.19.19,0,.923,0H15.512a12.952,12.952,0,0,0-.319,2.857A12.9,12.9,0,0,0,27.107,15.68V27.491H21.84c-2.148,0-4.34-.01-6.225-.019h-.062l-.353,0c-1.941-.009-3.947-.017-5.932-.017-.868,0-1,.213-1.039,1-.006.171-.011.344-.015.515v.007a19.13,19.13,0,0,1-.254,3.132,2.788,2.788,0,0,1-2.923,2.576C4.806,34.705,4.586,34.717,4.382,34.717ZM3.506,16.882a1.169,1.169,0,1,0,0,2.337H21.036a1.169,1.169,0,1,0,0-2.337Zm0-4.675a1.169,1.169,0,1,0,0,2.337H14.024a1.169,1.169,0,1,0,0-2.337Zm0-4.675a1.169,1.169,0,1,0,0,2.337h8.18a1.169,1.169,0,1,0,0-2.337Z" transform="translate(187 344.607)" fill="#704332"/>
      <g id="Group_16160" data-name="Group 16160" transform="translate(203.301 335)">
        <path id="Path_57955" data-name="Path 57955" d="M264.486,636.3A12.136,12.136,0,1,1,252.4,647.715,12.148,12.148,0,0,1,264.486,636.3Zm10.168,12.087a10.216,10.216,0,1,0-10.168,10.168A10.112,10.112,0,0,0,274.654,648.387Z" transform="translate(-252.381 -636.298)" fill="#704332"/>
        <path id="Path_57956" data-name="Path 57956" d="M261.513,649.807V644.2a.71.71,0,0,1,1.052-.584c.935.468,1.87,1.052,2.8,1.519,2.22,1.285,4.324,2.571,6.545,3.857a1.408,1.408,0,0,1,.584.584c.117.351,0,.584-.351.818-1.169.7-2.22,1.4-3.389,1.987-1.987,1.169-4.09,2.337-6.077,3.506-.584.351-1.052.117-1.169-.584v-4.792a.745.745,0,0,1,0-.7Z" transform="translate(-253.895 -637.704)" fill="#704332"/>
      </g>
    </g>
  </g>
</svg>
