<svg xmlns="http://www.w3.org/2000/svg" width="50" height="50" viewBox="0 0 50 50">
  <g id="Reports" transform="translate(-182 -744)">
    <rect id="Rectangle_17981" data-name="Rectangle 17981" width="50" height="50" transform="translate(182 744)" fill="none"/>
    <g id="Group_16049" data-name="Group 16049" transform="translate(192.659 748)">
      <path id="Path_57917" data-name="Path 57917" d="M368.234,443.1H338.3V400.489h1.4c5.837,0,11.674-.056,17.512.057a3.156,3.156,0,0,1,2.046.9c2.794,3.052,5.538,6.161,8.232,9.269a2.717,2.717,0,0,1,.748,1.526C368.284,422.475,368.234,432.705,368.234,443.1Zm-3.043-3.335V413.884h-6.586c-1.846,0-2.145-.339-2.145-2.374v-7.517H341.293v35.834C349.276,439.77,357.209,439.77,365.191,439.77Zm-5.737-29.334H362.7c-1.1-1.187-2.2-2.374-3.243-3.561Z" transform="translate(-338.3 -400.475)" fill="#704332"/>
      <path id="Path_57918" data-name="Path 57918" d="M358.634,433.794c.8,1,1.746,2.145,2.594,3.193,1.5-1.5,2.744-2.744,3.842-3.891-.15-.649-.349-1.347-.549-2.2h4.49v4.44c-.8-.2-1.5-.349-2.445-.549-1.4,1.447-3.093,3.193-4.989,5.189-1.048-1.347-1.946-2.495-2.894-3.692-2.245,2.295-4.141,4.241-6.236,6.336-.549-.8-.9-1.247-1.147-1.547C353.695,438.783,356.04,436.438,358.634,433.794Z" transform="translate(-344.814 -412.791)" fill="#704332"/>
      <path id="Path_57919" data-name="Path 57919" d="M351.5,461v-1.8h16.713V461Z" transform="translate(-344.914 -425.814)" fill="#704332"/>
      <path id="Path_57920" data-name="Path 57920" d="M351.5,415.6v-1.8h9.779v1.8Z" transform="translate(-344.914 -406.224)" fill="#704332"/>
      <path id="Path_57921" data-name="Path 57921" d="M351.3,424.1c.05-.649.05-1.1.05-1.7h9.878c.05.549.05,1.048.1,1.7Z" transform="translate(-344.814 -409.939)" fill="#704332"/>
    </g>
  </g>
</svg>
