<svg xmlns="http://www.w3.org/2000/svg" width="49.98" height="50.98" viewBox="0 0 49.98 50.98">
  <g id="Reprint" transform="translate(-658.792 -430.854)">
    <rect id="Rectangle_17969" data-name="Rectangle 17969" width="49.98" height="49.98" transform="translate(658.792 431.854)" fill="none"/>
    <path id="Path_57922" data-name="Path 57922" d="M461.429,464.423c0,.8.056,1.432,0,2.062a1.83,1.83,0,0,1-2.01,2h-15.58a1.863,1.863,0,0,1-2.066-2.061v-2h-7.818a1.765,1.765,0,0,1-1.954-2V453.6h39.257c0,2.978.056,6.127-.056,9.22-.056,1.088-.838,1.546-1.9,1.546h-6.366A11.882,11.882,0,0,1,461.429,464.423Zm-9.94,2.863h7.539c.782,0,1.173-.286,1.117-1.088q-.084-2.663,0-5.326c0-.859-.279-1.145-1.117-1.145H444.174c-.838,0-1.229.286-1.173,1.145.056,1.718.056,3.493,0,5.211,0,.916.279,1.2,1.173,1.2Zm0-10.995H469.8a2.981,2.981,0,0,0,1.229-.573c-.447-.229-.838-.458-1.284-.687-.056-.057-.168,0-.223,0H433.619a2.581,2.581,0,0,0-.949.057,1.064,1.064,0,0,0-.5.687c0,.115.335.458.5.515a3.313,3.313,0,0,0,1.061.057C439.65,456.291,445.57,456.291,451.489,456.291Z" transform="translate(232.703 8.45)" fill="#704332"/>
    <path id="Subtraction_6" data-name="Subtraction 6" d="M39.281,24.339H.025c0-.441-.007-.89-.012-1.324C0,22.089-.013,21.132.025,20.159A1.719,1.719,0,0,1,1.868,18.5c.338-.018.7-.026,1.137-.026.38,0,.757.006,1.156.013h.009c.411.007.836.013,1.272.013V14.6c0-1.776.614-2.405,2.346-2.405,1.005.058,1.91.058,2.959.058V2.752C10.746.517,11.257,0,13.482,0q.8,0,1.608,0a8.611,8.611,0,0,0-.24,1.282c-.67-.005-1.211-.011-1.7-.019a1.245,1.245,0,0,0-.964.281,1.214,1.214,0,0,0-.209.922c.039,1.157.025,2.34.012,3.485v.087c-.005.54-.011,1.1-.011,1.639V18.5H27.331V17.182c0-.974-.014-1.965-.028-2.923l0-.109c-.023-1.539-.047-3.13-.014-4.705a8.3,8.3,0,0,0,1.227-.937c-.03.724-.008,1.442.015,2.2v.009c.014.446.031,1,.031,1.541h2.9c1.626,0,2.289.68,2.289,2.347v3.951h2.625c1.174,0,1.939.084,2.373.515a3.443,3.443,0,0,1,.53,2.405v2.861ZM35.6,21.42a1.511,1.511,0,0,0-.745.324,3.147,3.147,0,0,1-.428.249c.151.111.294.221.427.324.239.185.487.375.8.592.223-.177.418-.325.575-.444.219-.166.409-.309.6-.472-.093-.054-.185-.115-.275-.173A1.849,1.849,0,0,0,35.6,21.42Zm-7.26,0a1.969,1.969,0,0,0-.851.321c-.125.069-.254.141-.377.195.213.217.453.43.757.7l.3.271.364-.251c.337-.233.627-.435.921-.608a3.607,3.607,0,0,1-.365-.256A1.352,1.352,0,0,0,28.336,21.42Zm3.518-.344c-.434.389-.762.671-1.116.972a3.634,3.634,0,0,1,.383.21,1.672,1.672,0,0,0,.767.312.515.515,0,0,0,.079-.006,1.592,1.592,0,0,0,.821-.393c.109-.078.232-.167.351-.236C32.73,21.694,32.385,21.457,31.854,21.076ZM30.229,13.56c-.252,0-.511,0-.761.007h-.033c-.249,0-.506.007-.763.007V18.5h3.91c0-.311,0-.623.005-.926l0-.143c.01-1.061.021-2.063-.064-3.054a1.039,1.039,0,0,0-.781-.745A13.248,13.248,0,0,0,30.229,13.56ZM9.125,13.5a13.062,13.062,0,0,0-1.506.072,1.127,1.127,0,0,0-.782.8c-.055,1.374-.055,2.71-.055,4.123h3.909V13.517h0c-.267,0-.534,0-.791-.007H9.858C9.617,13.506,9.367,13.5,9.125,13.5Z" transform="translate(664.621 437.756)" fill="#704332"/>
    <path id="Path_57924" data-name="Path 57924" d="M463.125,467.657c1.432,0,2.921-.057,4.352,0,.286,0,.63.344.916.515-.286.229-.63.63-.916.63-2.92.057-5.784.057-8.7,0-.344,0-.63-.4-.973-.63.344-.229.687-.573.973-.573C460.262,467.6,461.694,467.657,463.125,467.657Z" transform="translate(221.165 2.678)" fill="#704332"/>
    <path id="Path_57925" data-name="Path 57925" d="M463.011,473.27c-1.432,0-2.806.057-4.238,0-.344,0-.687-.4-.973-.573.344-.229.63-.63.973-.63,2.863-.057,5.784-.057,8.647,0,.344,0,.687.4.974.573-.344.229-.63.573-.974.63C465.989,473.328,464.5,473.27,463.011,473.27Z" transform="translate(221.165 0.576)" fill="#704332"/>
    <g id="Ellipse_60" data-name="Ellipse 60" transform="translate(678.185 430.854)" fill="#fff" stroke="#704332" stroke-width="1">
      <circle cx="9" cy="9" r="9" stroke="none"/>
      <circle cx="9" cy="9" r="8.5" fill="none"/>
    </g>
    <path id="Path_57926" data-name="Path 57926" d="M464.378,429.187c-.172.515-.286.859-.4,1.26a5.51,5.51,0,0,1-1.031-.4c-.286-.172-.458-.458-.744-.63-.63-.458-.687-.916-.115-1.489a5.706,5.706,0,0,1,.573-.63,7.759,7.759,0,0,1,1.2-.573,6.694,6.694,0,0,1,.286,1.145,3.226,3.226,0,0,0,2.92-3.55,3.4,3.4,0,0,0-3.149-3.207,3.5,3.5,0,0,0-3.722,2.92c-.057.4-.515.687-.8,1.088-.115-.4-.458-.859-.4-1.26A4.566,4.566,0,0,1,463.4,419.8a4.712,4.712,0,0,1,2.062,9.048A5.769,5.769,0,0,1,464.378,429.187Z" transform="translate(223.968 14.875)" fill="#704332"/>
  </g>
</svg>
