<svg xmlns="http://www.w3.org/2000/svg" width="50" height="50" viewBox="0 0 50 50">
  <g id="Reservation" transform="translate(-1305 -10)">
    <g id="Ellipse_54" data-name="Ellipse 54" transform="translate(1305 10)" fill="none" stroke="#fff" stroke-width="2">
      <circle cx="25" cy="25" r="25" stroke="none"/>
      <circle cx="25" cy="25" r="24" fill="none"/>
    </g>
    <g id="Group_17653" data-name="Group 17653" transform="translate(1167.4 -631.6)">
      <path id="Path_62327" data-name="Path 62327" d="M178.491,679.852c-.52.676-1.04,1.353-1.509,2.029l-2.029,2.653a.473.473,0,0,1-.416.208h-2.445c-.1.676-.26,1.353-.364,2.029a22.181,22.181,0,0,0-.156,3.694,24.093,24.093,0,0,0,.624,4.734,1.537,1.537,0,0,1-2.6,1.457,2.76,2.76,0,0,1-.416-.884c-.156-.572-.26-1.145-.364-1.717H156.38c-.1.468-.208.988-.312,1.457-.052.156-.052.26-.1.416a1.546,1.546,0,1,1-3.017-.676,24.106,24.106,0,0,0,.624-6.711,19.561,19.561,0,0,0-.52-3.85H150.71a.634.634,0,0,1-.624-.312c-1.092-1.457-2.185-2.913-3.33-4.37a.717.717,0,0,1-.156-.208C157.317,679.852,167.878,679.852,178.491,679.852ZM168.5,691.87c0-1.2-.052-2.393,0-3.59s.26-2.341.364-3.538H156.224a25.164,25.164,0,0,1,.364,7.127Z" transform="translate(0 -14.489)" fill="#fff"/>
      <path id="Path_62328" data-name="Path 62328" d="M156.922,659.729c.052-1.092.1-2.133.156-3.225a.422.422,0,0,0-.208-.416,5.17,5.17,0,0,1-1.561-1.249,1.645,1.645,0,0,1-.416-1.145c0-.624,0-1.249.052-1.873a2.5,2.5,0,0,1,2.393-2.133,4.52,4.52,0,0,1,1.2.052,2.62,2.62,0,0,1,2.133,2.549v1.561a1.734,1.734,0,0,1-.468,1.092,6.374,6.374,0,0,1-1.613,1.249c-.156.1-.208.156-.208.312.1,1.821.156,3.59.26,5.411,0,.364.052.78.052,1.145a.928.928,0,0,1-.988.988.944.944,0,0,1-.936-.988c.052-1.145.1-2.237.156-3.33Z" transform="translate(-3.975 -0.036)" fill="#fff"/>
      <path id="Path_62329" data-name="Path 62329" d="M193.864,649.6a9.67,9.67,0,0,1,2.913,4.942,15.516,15.516,0,0,1,.208,3.486.394.394,0,0,1-.1.208,2.326,2.326,0,0,0-.988,2.081v2.6a1.015,1.015,0,0,1-.988,1.093,1.056,1.056,0,0,1-1.04-1.093v-13.11C193.812,649.756,193.812,649.7,193.864,649.6Z" transform="translate(-22.657)" fill="#fff"/>
      <path id="Path_62330" data-name="Path 62330" d="M170.188,659.7a1.609,1.609,0,0,1-.416.1,5.251,5.251,0,0,1,1.509-5.411,5.42,5.42,0,0,1,8.844,5.567c-.52-.156-.988-.312-1.561-.468a4.235,4.235,0,0,0-3.9-5.515,4.192,4.192,0,0,0-3.642,1.717A4.862,4.862,0,0,0,170.188,659.7Z" transform="translate(-10.998 -1.617)" fill="#fff"/>
      <path id="Path_62331" data-name="Path 62331" d="M177.07,662.366c.676-.624,1.353-1.3,1.977-1.925.312-.312.624-.364.832-.156s.156.52-.156.832c-.78.728-1.509,1.457-2.289,2.185a.541.541,0,0,1-.832,0,9.344,9.344,0,0,1-.988-1.04.469.469,0,0,1-.052-.728c.208-.208.468-.156.728.052Z" transform="translate(-13.823 -5.066)" fill="#fff"/>
      <path id="Path_62332" data-name="Path 62332" d="M185.68,669.761a.766.766,0,0,1-.78-.78.78.78,0,0,1,1.561,0A.712.712,0,0,1,185.68,669.761Z" transform="translate(-18.375 -8.924)" fill="#fff"/>
      <path id="Path_62333" data-name="Path 62333" d="M181.576,672.453a.676.676,0,1,1,0-1.353.727.727,0,0,1,.676.676A.689.689,0,0,1,181.576,672.453Z" transform="translate(-16.456 -10.315)" fill="#fff"/>
      <path id="Path_62334" data-name="Path 62334" d="M176.1,672.072a.572.572,0,1,1,.572.572A.546.546,0,0,1,176.1,672.072Z" transform="translate(-14.153 -10.507)" fill="#fff"/>
      <path id="Path_62335" data-name="Path 62335" d="M172.764,670.528a.364.364,0,1,1,.364-.364A.356.356,0,0,1,172.764,670.528Z" transform="translate(-12.378 -9.691)" fill="#fff"/>
    </g>
  </g>
</svg>
