<svg width="45" height="42" viewBox="0 0 45 42" fill="none" xmlns="http://www.w3.org/2000/svg">
<path d="M39.6577 13.2538C39.5712 14.0339 39.4417 14.8086 39.2698 15.5744C38.7995 17.6378 38.0256 19.6201 36.9735 21.4563C36.7423 21.8613 36.4809 22.2515 36.226 22.6423C36.1234 22.8148 35.9745 22.9551 35.7962 23.0472C35.6179 23.1393 35.4174 23.1795 35.2173 23.1634C35.0193 23.1515 34.828 23.0865 34.6637 22.9752C34.4994 22.864 34.368 22.7106 34.2834 22.5311C34.1988 22.3516 34.164 22.1527 34.1827 21.9551C34.2014 21.7576 34.2729 21.5687 34.3898 21.4083C35.2003 20.2328 35.8567 18.9582 36.3431 17.6157C36.6029 16.9077 36.8292 16.1845 37.0135 15.4622C37.1641 14.8642 37.2838 14.2589 37.3724 13.6487C37.4438 13.2057 37.4842 12.7583 37.4931 12.3096C37.5179 10.976 37.1784 9.75813 36.2401 8.77457C35.745 8.26222 35.1189 7.89533 34.43 7.71374C33.9818 7.58425 33.5167 7.52302 33.0502 7.53211C32.3424 7.54297 31.6486 7.73106 31.0323 8.07919C30.5228 8.35837 30.0735 8.73559 29.7104 9.18912C29.3473 9.64265 29.0775 10.1635 28.9166 10.7218C28.7837 11.1663 28.7199 11.6285 28.7275 12.0924C28.7342 12.5429 28.7391 12.9949 28.7579 13.4416C28.7833 13.9558 28.8205 14.4696 28.861 14.9836C28.9039 15.4076 28.9541 15.8408 28.9984 16.2666C29.0143 16.5583 28.9148 16.8446 28.7214 17.0636C28.5281 17.2827 28.2563 17.4169 27.9649 17.4373C27.6688 17.449 27.38 17.344 27.1604 17.1451C26.9408 16.9461 26.808 16.669 26.7905 16.3732C26.7241 15.467 26.6323 14.5631 26.564 13.6583C26.4803 12.8855 26.466 12.1068 26.5211 11.3314C26.6569 9.81863 27.319 8.40142 28.392 7.32652C29.3309 6.35788 30.5433 5.69922 31.8669 5.43876C32.6236 5.2791 33.4032 5.25968 34.1669 5.38145C34.9981 5.50233 35.796 5.79128 36.5118 6.23067C37.2277 6.67006 37.8465 7.25068 38.3306 7.93711C39.1029 9.00548 39.5667 10.2655 39.6715 11.5796C39.7258 12.1366 39.7212 12.6978 39.6577 13.2538Z" fill="#704332"/>
<path d="M12.643 30.3661L11.0985 31.6295C10.7012 31.1438 10.3039 30.6581 9.90661 30.1724L11.351 28.9909C11.2147 28.7984 11.0864 28.6267 10.9721 28.4497C10.4757 27.7348 10.104 26.9411 9.87271 26.1022C9.81628 25.8808 9.7936 25.9237 10.0024 25.8259L11.8874 24.9528C11.9129 24.9319 11.9503 24.9257 11.9869 24.9109C12.0539 25.1601 12.1173 25.4123 12.1809 25.646C12.4104 26.4845 12.8109 27.2665 13.3572 27.9427C13.6441 28.3273 14.0274 28.6293 14.4685 28.8182C14.621 28.8814 14.7862 28.9078 14.9508 28.8951C15.1153 28.8825 15.2746 28.8312 15.4156 28.7455C15.5567 28.6597 15.6755 28.5419 15.7625 28.4016C15.8494 28.2614 15.9021 28.1025 15.9161 27.9381C15.9499 27.5046 15.891 27.0688 15.7431 26.6599C15.5695 26.1058 15.3633 25.56 15.1897 25.0059C14.9947 24.4135 14.9048 23.7916 14.9239 23.1683C14.937 22.737 15.0454 22.3139 15.2411 21.9294C15.4369 21.5448 15.7153 21.2083 16.0563 20.944C16.602 20.4847 17.2841 20.2186 17.9966 20.1868C18.6914 20.1634 19.3784 20.3401 19.9757 20.696C20.2763 20.8665 20.5571 21.0686 20.8521 21.262L22.2399 20.1267L23.4527 21.6093L22.1449 22.679C22.7672 23.4623 23.2177 24.3677 23.4674 25.3365L21.3976 26.2512C21.3446 26.0787 21.2973 25.9168 21.2544 25.7603C21.04 25.0571 20.6964 24.4 20.2411 23.8228C20.0143 23.5038 19.729 23.2306 19.4003 23.0179C19.18 22.8785 18.9177 22.8208 18.6592 22.855C18.427 22.8833 18.215 23.0009 18.0682 23.1829C17.9213 23.3649 17.8512 23.5969 17.8726 23.8298C17.9187 24.3563 18.0356 24.8742 18.2201 25.3695C18.4523 26.0002 18.6486 26.6434 18.8081 27.2962C18.9202 27.8178 18.9344 28.3556 18.8499 28.8823C18.7548 29.4165 18.5078 29.9119 18.1385 30.3094C17.6536 30.8793 17.002 31.2826 16.2756 31.4623C15.4288 31.6526 14.5419 31.5354 13.7737 31.1315C13.3975 30.9427 13.0442 30.7115 12.7206 30.4424C12.6921 30.4262 12.6728 30.4025 12.643 30.3661Z" fill="white"/>
<path d="M33.0692 21.1455C33.1056 20.599 33.1103 20.051 33.1234 19.5021C33.1346 19.0674 33.1413 18.6333 33.1435 18.1998C33.1495 17.7389 33.1519 17.281 33.1483 16.8157C33.1447 16.3505 33.1448 15.8154 33.1319 15.3091C33.1191 14.8028 33.1233 14.2765 33.0979 13.7623C33.0796 13.3865 33.0412 13.0121 32.9828 12.6404C32.9637 12.4962 32.9068 12.3595 32.8179 12.2443C32.729 12.1291 32.6113 12.0395 32.4766 11.9844C32.2475 11.8894 32.0115 11.8121 31.7707 11.7532C31.3785 11.6454 30.9737 11.563 30.5747 11.4729C30.3441 11.4214 30.1146 11.375 29.8722 11.324C29.8517 11.3955 29.8328 11.4505 29.822 11.5079C29.8027 11.568 29.7914 11.6304 29.7884 11.6935C29.8013 12.4328 29.8163 13.1734 29.8335 13.9153C29.841 13.9649 29.8662 14.0102 29.9043 14.0428C30.2381 14.3334 30.5021 14.6954 30.6767 15.1019C30.8514 15.5085 30.9322 15.9492 30.9133 16.3913C30.8967 16.8536 30.7734 17.3058 30.5528 17.7124C30.3323 18.119 30.0206 18.4691 29.6421 18.735C29.2636 19.001 28.8287 19.1757 28.3714 19.2455C27.9141 19.3153 27.4469 19.2782 27.0063 19.1371C26.3627 18.9425 25.8044 18.5348 25.4231 17.981C25.0419 17.4271 24.8604 16.76 24.9086 16.0893C24.936 15.4659 25.1561 14.8663 25.5386 14.3732C25.5587 14.346 25.5702 14.3133 25.5714 14.2795C25.5446 13.6782 25.5025 13.0803 25.4863 12.4734C25.4493 11.8861 25.4859 11.2966 25.5952 10.7184C25.6235 10.5858 25.576 10.5761 25.4715 10.5673C24.9629 10.503 24.4514 10.435 23.9446 10.3692C22.6602 10.2038 21.3713 10.0664 20.075 10.0202C19.7966 9.99858 19.5209 10.0875 19.3077 10.2678C13.5898 14.9894 7.87208 19.7038 2.15452 24.4109C2.0853 24.4675 2.01427 24.5256 1.94324 24.5837C1.66353 24.8292 1.4422 25.1342 1.29541 25.4762C1.14862 25.8182 1.08009 26.1887 1.0948 26.5606C1.11296 27.1544 1.33672 27.7235 1.72786 28.1707C4.68475 31.751 7.638 35.3343 10.5876 38.9205C10.826 39.2119 11.0629 39.5015 11.3012 39.7929C11.6772 40.2477 12.2038 40.5526 12.7854 40.6522C13.1606 40.7233 13.5471 40.7085 13.9159 40.6091C14.2846 40.5096 14.6261 40.328 14.9147 40.0778L32.2844 25.7607C32.4066 25.6606 32.4999 25.5297 32.5548 25.3815C32.7013 24.9818 32.7921 24.5638 32.8246 24.1393C32.9223 23.1474 32.9956 22.1481 33.0692 21.1455Z" fill="#704332"/>
<path d="M8.3399 24.909C8.10378 24.1592 7.84211 23.3107 7.56391 22.4251L9.8362 22.8019L9.89385 22.58C9.9733 22.7199 10.0374 22.868 10.0849 23.0216C10.3763 24.5588 11.6899 25.2368 12.7053 26.1633C13.5837 26.9673 14.5145 27.7285 15.3097 28.6051C16.5586 29.9801 16.7157 31.4936 15.7904 33.1291C15.3698 33.8943 14.8359 34.5915 14.2069 35.197C13.0068 36.3166 11.61 36.2173 10.3912 35.0983C9.73914 34.5315 9.27598 33.7788 9.0638 32.9413C8.8257 31.9585 8.65874 30.9728 8.42817 29.9148L9.27689 29.8784C9.5428 30.8108 9.75261 31.6971 10.0709 32.5361C10.4017 33.5029 11.1011 33.7955 12.0808 33.5369C12.8308 33.3018 13.4765 32.8146 13.9084 32.1578C14.3403 31.5011 14.5318 30.7152 14.4506 29.9334C14.4108 29.6879 14.2933 29.4615 14.1155 29.2876C12.5342 27.8212 10.9447 26.3615 9.31662 24.9334C9.16283 24.8016 8.74772 24.9296 8.3399 24.909Z" fill="white"/>
<path d="M18.102 20.2799C19.1704 20.349 20.0624 20.6129 20.7126 21.4977C21.3628 22.3826 22.0403 23.121 22.7234 23.956C22.5828 24.0709 22.4984 24.1814 22.3936 24.2671C21.1011 25.3243 19.8114 26.3792 18.5189 27.4365C18.3212 27.6265 18.0849 27.7719 17.8261 27.8628C17.5674 27.9536 17.2921 27.9879 17.0189 27.9631C16.7458 27.9384 16.4811 27.8553 16.2429 27.7195C16.0046 27.5837 15.7983 27.3983 15.6379 27.1758C14.6796 26.0324 13.7323 24.8799 12.8044 23.7117C12.4659 23.2597 11.9792 22.9414 11.4294 22.8124C11.3417 22.7804 11.2622 22.7293 11.1967 22.6628C11.1311 22.5963 11.0812 22.516 11.0505 22.4278C10.884 21.8419 10.7718 21.2437 10.6261 20.5763C11.6317 20.7482 12.545 21.2677 13.2066 22.0441C14.1023 23.1054 14.9626 24.1909 15.8418 25.2657C15.9858 25.4842 16.1817 25.6638 16.4119 25.7883C16.6558 25.8786 17.0461 25.9227 17.2187 25.7907C18.3504 24.9249 19.437 24.0039 20.5558 23.0887C20.3731 22.8607 20.1441 22.6741 19.884 22.5412C19.6238 22.4083 19.3384 22.3321 19.0466 22.3177C18.9452 22.3235 18.8438 22.3075 18.749 22.2709C18.6543 22.2342 18.5685 22.1777 18.4974 22.1052C18.4263 22.0327 18.3715 21.9457 18.3368 21.8503C18.302 21.7548 18.2881 21.6531 18.296 21.5518C18.2742 21.1372 18.1904 20.7366 18.102 20.2799Z" fill="white"/>
<path d="M21.3549 27.4964C22.0056 27.0884 22.6787 26.708 23.3005 26.2592C23.6057 26.0589 23.8408 25.7685 23.9732 25.4283C24.271 24.4047 24.4931 23.3606 24.6378 22.3044C24.7363 21.4464 24.053 20.5886 23.0846 20.355C22.7725 20.2962 22.4823 20.1538 22.2449 19.9428C22.0076 19.7319 21.832 19.4604 21.7371 19.1574C21.551 18.7507 21.3423 18.3548 21.112 17.9714C21.9483 18.0121 22.7476 18.3288 23.3849 18.872C24.3427 19.818 25.1713 20.8928 26.0421 21.9238C26.1267 22.0579 26.1774 22.2106 26.1899 22.3687C26.4223 23.5617 26.3848 24.7916 26.0799 25.9682C26.0322 26.2666 25.8909 26.5421 25.6763 26.7549C25.4617 26.9676 25.1849 27.1066 24.8861 27.1517C23.7187 27.3384 22.5426 27.4863 21.3699 27.6497L21.3549 27.4964Z" fill="white"/>
<path d="M17.4365 29.152L18.8912 29.1029L18.8969 27.8333L20.8498 27.786L20.9062 29.75L19.4432 29.8059L19.4453 31.0737L17.4896 31.1233L17.4365 29.152Z" fill="white"/>
</svg>
