<svg width="32" height="37" viewBox="0 0 32 37" fill="none" xmlns="http://www.w3.org/2000/svg">
<path d="M11.7653 36.4107C11.4589 36.2967 11.119 36.2319 10.8532 36.0544C10.4634 35.7972 10.0694 35.5072 9.77649 35.1509C6.7513 31.4734 3.73846 27.7857 0.73797 24.0879C-0.402178 22.6876 -0.200514 20.8042 1.19973 19.6605C4.42017 17.0296 7.64204 14.4006 10.8653 11.7736C12.0404 10.8151 13.2083 9.84955 14.392 8.89967C16.1264 7.51082 18.1081 6.95215 20.3065 7.25643C22.4877 7.55857 24.6611 7.91273 26.8374 8.24479C26.8801 8.25121 26.9222 8.26475 27.0127 8.28612C26.5766 8.92746 26.1633 9.54242 25.7357 10.1488C25.683 10.2201 25.5569 10.2515 25.4592 10.2914C24.2628 10.736 23.5929 11.951 23.8773 13.1638C24.1552 14.3524 25.2939 15.1819 26.4868 15.0657C27.0956 15.014 27.6635 14.7379 28.0802 14.2909C28.4968 13.844 28.7325 13.2582 28.7414 12.6472C28.7508 12.3986 28.7121 12.1506 28.6274 11.9168C28.5155 11.6317 28.5818 11.4358 28.7493 11.2042C29.0984 10.7275 29.4198 10.2308 29.7818 9.6992C30.2842 10.3448 30.5443 11.0417 30.5172 11.8135C30.4217 14.5249 30.3747 17.2413 30.1609 19.9448C30.0106 21.8639 29.1212 23.5221 27.6234 24.757C23.2053 28.3976 18.7609 31.9976 14.3321 35.6212C13.8418 36.0224 13.2889 36.2568 12.6889 36.4121L11.7653 36.4107ZM8.55867 20.346L8.61283 20.3681C8.64418 20.614 8.662 20.8627 8.70903 21.105C8.93563 22.2736 9.79146 23.0439 10.9779 23.1565C12.0646 23.2591 13.0915 22.6014 13.5019 21.5247C13.73 20.9116 13.7938 20.2496 13.6872 19.6042C13.5183 18.4598 12.7544 17.6375 11.7048 17.4871C10.4542 17.3075 9.40594 17.827 8.94133 18.9223C8.75392 19.3705 8.68551 19.87 8.56152 20.346H8.55867ZM17.9578 21.3088C16.8233 21.2966 15.9226 21.923 15.535 22.9926C15.3084 23.6205 15.2612 24.2991 15.3988 24.9522C15.6283 26.1166 16.5262 26.9325 17.6692 27.0188C18.8264 27.1028 19.8476 26.4131 20.2345 25.28C20.4548 24.638 20.494 23.9476 20.3478 23.2848C20.0756 22.0377 19.2005 21.3216 17.9578 21.3088ZM17.7647 17.4401C17.4796 17.4401 17.2437 17.4636 17.015 17.4344C16.71 17.3959 16.5568 17.5227 16.4129 17.785C14.7863 20.7375 13.1523 23.6864 11.5109 26.6318C11.4447 26.7501 11.3848 26.8727 11.2972 27.0408C11.5637 27.0408 11.7661 27.0195 11.9627 27.0458C12.3155 27.0936 12.5029 26.9539 12.6753 26.6382C14.295 23.6945 15.9347 20.7622 17.568 17.8263C17.6293 17.7166 17.682 17.6033 17.7647 17.4394V17.4401Z" fill="#704332"/>
<path d="M24.2642 2.79204L23.1953 2.06377C23.9678 0.982054 24.9654 0.287989 26.2516 0.0742112C28.0844 -0.223652 29.6044 0.37065 30.6141 1.93835C31.678 3.58943 31.6117 5.32174 30.5592 6.95999C29.4847 8.63387 28.331 10.2564 27.2101 11.9011L26.8751 12.3928L25.7956 11.6595C25.8775 11.5306 25.9424 11.4215 26.0136 11.3175C27.1395 9.66286 28.2659 8.00822 29.3927 6.35358C30.0148 5.43718 30.2058 4.44169 29.8616 3.3785C29.1683 1.24073 26.5267 0.621482 24.8243 2.1956C24.634 2.3709 24.468 2.57256 24.2642 2.79204Z" fill="#704332"/>
<path d="M8.5625 20.3464C8.68649 19.8704 8.7549 19.3708 8.94516 18.9212C9.40977 17.8259 10.458 17.3065 11.7086 17.486C12.7582 17.6364 13.5221 18.4587 13.691 19.6031C13.7977 20.2485 13.7338 20.9105 13.5058 21.5236C13.0953 22.6003 12.0685 23.258 10.9818 23.1554C9.79528 23.0428 8.93946 22.2725 8.71286 21.1039C8.66583 20.8616 8.64801 20.6129 8.61666 20.367L8.5625 20.3464ZM10.1879 20.3165C10.2941 20.7162 10.3689 21.1352 10.52 21.5279C10.6376 21.8307 10.9105 21.9982 11.2604 21.9739C11.5932 21.9504 11.8112 21.7602 11.9231 21.4616C12.2074 20.725 12.2095 19.9093 11.9288 19.1713C11.8105 18.8478 11.5725 18.6397 11.2084 18.6362C11.0461 18.6279 10.8859 18.6743 10.7532 18.768C10.6205 18.8617 10.5231 18.9972 10.4765 19.1528C10.3525 19.5162 10.2884 19.901 10.1915 20.3165H10.1879Z" fill="white"/>
<path d="M17.9592 21.3088C19.202 21.3223 20.0771 22.0385 20.3464 23.2791C20.4926 23.942 20.4534 24.6323 20.2331 25.2744C19.849 26.4074 18.8279 27.0972 17.6678 27.0131C16.5276 26.9297 15.6269 26.1138 15.3975 24.9466C15.2599 24.2934 15.307 23.6148 15.5336 22.9869C15.9241 21.9223 16.8248 21.296 17.9592 21.3088ZM18.8692 24.1435C18.7823 23.7558 18.7189 23.3596 18.5999 22.9812C18.5037 22.6763 18.2528 22.5038 17.9258 22.4896C17.7759 22.4782 17.6264 22.5144 17.4984 22.5931C17.3704 22.6718 17.2706 22.789 17.2132 22.9278C17.0337 23.3088 16.9391 23.7242 16.9359 24.1454C16.9327 24.5665 17.021 24.9833 17.1946 25.367C17.2516 25.5122 17.3538 25.6352 17.4861 25.7179C17.6184 25.8005 17.7738 25.8384 17.9293 25.8259C18.0856 25.8271 18.2378 25.7762 18.362 25.6812C18.4861 25.5862 18.5751 25.4526 18.6148 25.3014C18.7296 24.9337 18.7837 24.5468 18.8692 24.1428V24.1435Z" fill="white"/>
<path d="M17.7656 17.4402C17.6829 17.6041 17.6302 17.7174 17.5696 17.8271C15.9364 20.763 14.2967 23.6953 12.677 26.6391C12.5038 26.9547 12.3164 27.0944 11.9644 27.0467C11.7677 27.0203 11.5653 27.0417 11.2988 27.0417C11.3865 26.8735 11.4463 26.7509 11.5126 26.6326C13.1497 23.6839 14.7834 20.7348 16.4138 17.7851C16.5563 17.5229 16.711 17.396 17.016 17.4345C17.2461 17.4616 17.4799 17.4402 17.7656 17.4402Z" fill="white"/>
<path d="M10.1895 20.3168C10.2899 19.9013 10.3541 19.5165 10.4795 19.1531C10.5254 18.9972 10.6224 18.8613 10.7549 18.7671C10.8873 18.6729 11.0475 18.6259 11.2099 18.6336C11.5769 18.6372 11.812 18.8474 11.9303 19.1688C12.211 19.9068 12.209 20.7225 11.9246 21.4591C11.8127 21.7555 11.5947 21.9479 11.2619 21.9714C10.912 21.9956 10.6391 21.8289 10.5215 21.5253C10.3669 21.1355 10.2921 20.7165 10.1895 20.3168Z" fill="#704332"/>
<path d="M18.8658 24.1443C18.7803 24.5483 18.7233 24.9352 18.6107 25.3022C18.5709 25.4534 18.482 25.587 18.3578 25.682C18.2337 25.777 18.0815 25.8279 17.9252 25.8267C17.7697 25.8392 17.6143 25.8013 17.482 25.7186C17.3497 25.636 17.2475 25.513 17.1905 25.3678C17.0168 24.9841 16.9285 24.5673 16.9317 24.1461C16.9349 23.725 17.0295 23.3096 17.209 22.9286C17.2664 22.7897 17.3663 22.6726 17.4942 22.5939C17.6222 22.5152 17.7718 22.4789 17.9216 22.4903C18.2487 22.5046 18.4995 22.677 18.5957 22.982C18.7154 23.3604 18.7789 23.7566 18.8658 24.1443Z" fill="#704332"/>
</svg>
