<svg width="46" height="31" viewBox="0 0 46 31" fill="none" xmlns="http://www.w3.org/2000/svg">
<path d="M25.4511 20.1295C26.1266 19.4346 26.7517 18.8289 27.334 18.1884C27.7922 17.6759 27.8155 17.2255 27.334 16.5888C26.208 15.1451 25.4888 13.4264 25.251 11.611C25.0132 9.7956 25.2654 7.94963 25.9816 6.26459C26.6978 4.57955 27.8517 3.11682 29.3238 2.02814C30.7959 0.939468 32.5325 0.264497 34.3534 0.0732544C40.3167 -0.6411 45.5734 3.95562 45.8063 10.0859C46.0276 15.9172 40.9223 20.9642 35.0483 20.576C33.6972 20.4906 32.3811 19.9199 31.0339 19.6442C30.5563 19.5157 30.0507 19.5374 29.5858 19.7064C27.9203 20.5411 26.6507 20.7352 25.4511 20.1295ZM38.7404 5.33774L31.0844 14.4341L32.2879 15.3503L39.8974 6.30833L38.7404 5.33774ZM32.1055 10.707C32.7884 10.6889 33.4374 10.4056 33.9149 9.91711C34.3925 9.42866 34.6612 8.77346 34.6639 8.09033C34.6609 7.40612 34.3861 6.75116 33.9001 6.26953C33.4141 5.7879 32.7567 5.51906 32.0725 5.52215C31.3883 5.52524 30.7333 5.8 30.2517 6.286C29.77 6.772 29.5012 7.42941 29.5043 8.11363C29.5163 8.79903 29.7945 9.45287 30.2799 9.93687C30.7654 10.4209 31.42 10.6971 32.1055 10.707ZM36.3761 12.5162C36.375 13.1973 36.6427 13.8513 37.121 14.3362C37.5993 14.821 38.2496 15.0976 38.9307 15.1058C39.611 15.0878 40.2579 14.8074 40.7362 14.3233C41.2146 13.8392 41.4871 13.1889 41.4969 12.5085C41.4643 11.8482 41.1885 11.2234 40.7225 10.7546C40.2565 10.2857 39.6334 10.006 38.9734 9.9694C38.2899 9.96315 37.6317 10.2274 37.1422 10.7045C36.6528 11.1816 36.3718 11.8328 36.3605 12.5162H36.3761Z" fill="#704332"/>
<path d="M8.97192 29.8276L7.01133 30.3556C6.7978 29.7189 6.58427 29.121 6.4018 28.5115C5.79615 26.5198 5.20991 24.5243 4.58873 22.5365C4.49556 22.2453 4.24709 21.7795 4.05297 21.76C2.11179 21.6785 1.4712 20.4944 1.50226 18.7784C-0.0506888 18.2931 -0.0895124 18.1262 0.054135 15.3541C0.104606 14.3836 0.663666 14.2244 1.4712 14.2244C1.50226 13.8051 1.52167 13.4246 1.56826 13.0597C1.60231 12.5326 1.83014 12.0368 2.20788 11.6676C2.58562 11.2985 3.08656 11.0822 3.61426 11.0603C5.55544 10.9981 7.49662 11.0059 9.40286 11.0603C9.71733 11.0603 10.0202 11.499 10.4977 11.8678C13.5803 11.3087 16.7483 10.2915 19.4737 8.19507C19.9202 7.85342 20.2152 7.32154 20.6578 6.96824C20.9801 6.712 21.4925 6.39753 21.7992 6.49459C21.9853 6.60178 22.1433 6.75167 22.2601 6.9319C22.3768 7.11213 22.4491 7.31754 22.4709 7.53118C22.5485 9.08413 22.5214 10.6371 22.4981 12.1628C22.4599 12.442 22.5052 12.7262 22.6281 12.9798C22.7511 13.2333 22.9463 13.4448 23.1891 13.5877C25.2002 14.931 25.1303 17.7379 23.1891 19.1899C22.809 19.5049 22.5678 19.9567 22.5175 20.4478C22.4398 22.0007 22.5408 23.5537 22.4515 25.0756C22.4151 25.3188 22.3269 25.5514 22.193 25.7577C22.059 25.964 21.8824 26.1391 21.675 26.2713C21.4692 26.3801 20.8985 25.9142 20.5452 25.6346C20.0095 25.2076 19.5669 24.6563 18.9923 24.2603C16.3601 22.3968 13.3784 21.4184 10.1327 20.8477C9.99687 22.4006 8.70404 21.4145 7.94698 21.8843C8.28863 24.4932 8.62251 27.1177 8.97192 29.8276ZM3.99085 13.4401V19.2986H7.58592V13.4401H3.99085Z" fill="#704332"/>
<path d="M38.742 5.33789L39.9067 6.30848L32.2895 15.3505L31.0859 14.4343L38.742 5.33789Z" fill="white"/>
<path d="M33.639 8.24216C32.8625 8.68863 32.4044 9.16228 32.0045 9.11957C31.6046 9.07687 31.0533 8.38192 31.1232 8.12181C31.2133 7.8886 31.3573 7.68008 31.5436 7.51338C31.7299 7.34668 31.953 7.22655 32.1948 7.16286C32.517 7.11627 32.9285 7.67922 33.639 8.24216Z" fill="#704332"/>
<path d="M38.6525 13.7907C38.3691 13.383 37.8488 12.9637 37.876 12.5716C37.9032 12.1795 38.4817 11.865 38.8233 11.5156C39.1805 11.8728 39.7357 12.1834 39.8327 12.6027C39.9026 12.9172 39.3901 13.3792 39.1378 13.7674L38.6525 13.7907Z" fill="#704332"/>
</svg>
