<svg width="39" height="37" viewBox="0 0 39 37" fill="none" xmlns="http://www.w3.org/2000/svg">
<path d="M33.7229 11.8058C33.6493 12.4691 33.5392 13.1279 33.393 13.7791C32.9931 15.5336 32.3351 17.2191 31.4405 18.7805C31.2439 19.1248 31.0216 19.4566 30.8049 19.789C30.7176 19.9356 30.591 20.0549 30.4394 20.1332C30.2878 20.2115 30.1173 20.2458 29.9472 20.232C29.7788 20.2219 29.6162 20.1666 29.4764 20.0721C29.3367 19.9775 29.225 19.847 29.1531 19.6944C29.0811 19.5418 29.0515 19.3726 29.0674 19.2047C29.0833 19.0367 29.1441 18.8761 29.2435 18.7397C29.9327 17.7401 30.4908 16.6563 30.9044 15.5148C31.1254 14.9127 31.3177 14.2978 31.4745 13.6836C31.6025 13.1752 31.7043 12.6605 31.7796 12.1416C31.8404 11.7649 31.8747 11.3845 31.8823 11.003C31.9034 9.86902 31.6147 8.83341 30.8168 7.99708C30.3958 7.56142 29.8635 7.24945 29.2777 7.09505C28.8966 6.98494 28.5011 6.93288 28.1045 6.9406C27.5026 6.94984 26.9127 7.10978 26.3886 7.40579C25.9554 7.64318 25.5734 7.96394 25.2646 8.34958C24.9559 8.73522 24.7264 9.17812 24.5896 9.6528C24.4766 10.0308 24.4223 10.4238 24.4288 10.8183C24.4345 11.2013 24.4387 11.5857 24.4547 11.9655C24.4763 12.4028 24.5079 12.8396 24.5423 13.2767C24.5788 13.6373 24.6215 14.0055 24.6592 14.3676C24.6727 14.6157 24.5881 14.8591 24.4237 15.0454C24.2592 15.2316 24.0282 15.3457 23.7803 15.3631C23.5286 15.373 23.283 15.2838 23.0963 15.1146C22.9096 14.9455 22.7966 14.7098 22.7818 14.4583C22.7253 13.6877 22.6472 12.9192 22.5892 12.1498C22.518 11.4927 22.5058 10.8305 22.5527 10.1712C22.6682 8.88485 23.2311 7.67979 24.1435 6.76579C24.9419 5.94215 25.9728 5.38208 27.0983 5.16061C27.7417 5.02485 28.4046 5.00833 29.054 5.11187C29.7608 5.21466 30.4392 5.46036 31.0479 5.83397C31.6566 6.20759 32.1828 6.7013 32.5944 7.28498C33.2511 8.19343 33.6455 9.26486 33.7346 10.3823C33.7808 10.8559 33.7769 11.333 33.7229 11.8058Z" fill="#704332"/>
<path d="M28.1191 18.5179C28.15 18.0532 28.154 17.5873 28.1652 17.1206C28.1747 16.7509 28.1804 16.3818 28.1822 16.0132C28.1873 15.6213 28.1894 15.2319 28.1863 14.8363C28.1833 14.4407 28.1833 13.9857 28.1724 13.5552C28.1615 13.1247 28.1651 12.6772 28.1434 12.2399C28.1279 11.9204 28.0953 11.602 28.0456 11.286C28.0293 11.1633 27.981 11.0472 27.9054 10.9492C27.8298 10.8513 27.7297 10.775 27.6152 10.7282C27.4204 10.6474 27.2197 10.5817 27.0149 10.5316C26.6814 10.4399 26.3372 10.3699 25.998 10.2932C25.8019 10.2494 25.6067 10.21 25.4007 10.1666C25.3832 10.2274 25.3671 10.2742 25.358 10.323C25.3415 10.3741 25.3319 10.4272 25.3294 10.4808C25.3404 11.1094 25.3531 11.7392 25.3677 12.3701C25.3741 12.4123 25.3955 12.4507 25.4279 12.4785C25.7117 12.7255 25.9362 13.0333 26.0847 13.379C26.2333 13.7248 26.302 14.0995 26.2859 14.4754C26.2718 14.8685 26.1669 15.253 25.9794 15.5987C25.7919 15.9445 25.5268 16.2421 25.205 16.4683C24.8832 16.6945 24.5133 16.843 24.1245 16.9024C23.7356 16.9617 23.3383 16.9301 22.9637 16.8102C22.4165 16.6448 21.9417 16.2981 21.6176 15.8271C21.2934 15.3561 21.1391 14.7889 21.18 14.2186C21.2033 13.6885 21.3905 13.1787 21.7157 12.7594C21.7329 12.7363 21.7426 12.7085 21.7436 12.6797C21.7209 12.1684 21.685 11.6601 21.6713 11.144C21.6398 10.6446 21.6709 10.1433 21.7638 9.65172C21.7879 9.53896 21.7475 9.53065 21.6587 9.52317C21.2262 9.46849 20.7912 9.41072 20.3603 9.35477C19.2682 9.21413 18.1722 9.09728 17.0699 9.05799C16.8333 9.03962 16.5989 9.11525 16.4176 9.26851C11.5556 13.2833 6.69371 17.292 1.83201 21.2946C1.77315 21.3427 1.71275 21.3921 1.65235 21.4415C1.41452 21.6503 1.22632 21.9095 1.1015 22.2004C0.976686 22.4912 0.918407 22.8062 0.930922 23.1224C0.946364 23.6274 1.13663 24.1113 1.46922 24.4916C3.98349 27.5359 6.49467 30.5828 9.00275 33.6322C9.20544 33.88 9.40686 34.1263 9.60955 34.3741C9.92925 34.7607 10.377 35.02 10.8715 35.1047C11.1906 35.1651 11.5193 35.1526 11.8328 35.068C12.1464 34.9834 12.4367 34.829 12.6822 34.6163L27.4517 22.4423C27.5556 22.3572 27.635 22.2459 27.6816 22.1198C27.8063 21.78 27.8835 21.4246 27.9111 21.0636C27.9941 20.2202 28.0565 19.3705 28.1191 18.5179Z" fill="#704332"/>
<path d="M8.20597 22.016C8.01998 21.4255 7.81388 20.7572 7.59476 20.0596L9.38453 20.3564L9.42993 20.1816C9.49251 20.2918 9.54297 20.4084 9.58044 20.5295C9.80994 21.7402 10.8446 22.2743 11.6444 23.004C12.3363 23.6373 13.0694 24.2368 13.6958 24.9273C14.6794 26.0103 14.8032 27.2024 14.0743 28.4906C13.743 29.0933 13.3226 29.6424 12.8271 30.1194C11.8819 31.0013 10.7817 30.923 9.82167 30.0417C9.30808 29.5952 8.94327 29.0024 8.77615 28.3427C8.58861 27.5686 8.4571 26.7922 8.27549 25.9589L8.94398 25.9302C9.15343 26.6646 9.31868 27.3627 9.56938 28.0236C9.82993 28.785 10.3808 29.0155 11.1525 28.8118C11.7433 28.6266 12.2518 28.2429 12.592 27.7256C12.9322 27.2083 13.083 26.5893 13.019 25.9736C12.9877 25.7801 12.8952 25.6019 12.7551 25.4649C11.5096 24.3098 10.2577 23.1601 8.97528 22.0353C8.85415 21.9315 8.52719 22.0323 8.20597 22.016Z" fill="white"/>
<path d="M15.8949 18.3716C16.7364 18.426 17.439 18.6339 17.9511 19.3308C18.4633 20.0278 18.9969 20.6093 19.5349 21.267C19.4242 21.3576 19.3577 21.4446 19.2752 21.5121C18.2572 22.3448 17.2413 23.1757 16.2233 24.0084C16.0675 24.1581 15.8814 24.2726 15.6776 24.3442C15.4738 24.4158 15.257 24.4428 15.0418 24.4233C14.8267 24.4038 14.6182 24.3384 14.4305 24.2314C14.2429 24.1244 14.0804 23.9784 13.954 23.8031C13.1992 22.9025 12.4531 21.9948 11.7222 21.0746C11.4556 20.7186 11.0722 20.4679 10.6393 20.3663C10.5702 20.3411 10.5076 20.3008 10.4559 20.2485C10.4043 20.1961 10.365 20.1329 10.3408 20.0634C10.2096 19.6019 10.1213 19.1307 10.0065 18.605C10.7985 18.7404 11.5179 19.1496 12.0391 19.7612C12.7445 20.5971 13.4222 21.4521 14.1146 22.2987C14.2281 22.4708 14.3823 22.6122 14.5637 22.7103C14.7558 22.7814 15.0632 22.8161 15.1992 22.7122C16.0905 22.0302 16.9464 21.3048 17.8277 20.5839C17.6838 20.4044 17.5034 20.2574 17.2985 20.1527C17.0936 20.048 16.8688 19.988 16.6389 19.9766C16.5591 19.9812 16.4791 19.9687 16.4045 19.9398C16.3299 19.9109 16.2623 19.8664 16.2063 19.8093C16.1503 19.7521 16.1072 19.6837 16.0798 19.6085C16.0525 19.5333 16.0415 19.4532 16.0477 19.3734C16.0306 19.0468 15.9645 18.7313 15.8949 18.3716Z" fill="white"/>
<path d="M18.4579 24.0559C18.9703 23.7346 19.5005 23.4349 19.9903 23.0814C20.2307 22.9237 20.4159 22.6949 20.5202 22.427C20.7547 21.6207 20.9296 20.7983 21.0436 19.9664C21.1212 19.2906 20.583 18.615 19.8203 18.431C19.5745 18.3847 19.3458 18.2725 19.1589 18.1064C18.9719 17.9402 18.8337 17.7263 18.7588 17.4877C18.6123 17.1674 18.4479 16.8555 18.2665 16.5535C18.9253 16.5856 19.5548 16.8351 20.0568 17.2629C20.8112 18.0081 21.4638 18.8546 22.1497 19.6666C22.2163 19.7723 22.2563 19.8926 22.2661 20.0171C22.4492 20.9567 22.4196 21.9255 22.1795 22.8522C22.1419 23.0873 22.0306 23.3043 21.8616 23.4718C21.6925 23.6394 21.4746 23.7489 21.2392 23.7844C20.3197 23.9315 19.3933 24.048 18.4697 24.1767L18.4579 24.0559Z" fill="white"/>
<path d="M15.3717 25.3591L16.5175 25.3203L16.5219 24.3204L18.0602 24.2831L18.1046 25.83L16.9523 25.874L16.9539 26.8726L15.4135 26.9117L15.3717 25.3591Z" fill="white"/>
</svg>
