<svg width="25" height="25" viewBox="0 0 31 31" fill="none" xmlns="http://www.w3.org/2000/svg">
<path d="M23.9153 0.794922H3.97534C3.53892 0.794791 3.10676 0.880653 2.70353 1.0476C2.30031 1.21455 1.93393 1.45932 1.62534 1.76791C1.31674 2.07651 1.07197 2.44289 0.905025 2.84611C0.738075 3.24933 0.652213 3.6815 0.652344 4.11792V27.3809C0.652082 27.8174 0.737847 28.2497 0.904738 28.653C1.07163 29.0564 1.31637 29.4229 1.62498 29.7316C1.93359 30.0403 2.30001 30.2851 2.7033 30.4521C3.10659 30.6192 3.53884 30.7051 3.97534 30.7049H27.2383C28.1188 30.7023 28.9625 30.3513 29.5851 29.7287C30.2078 29.1061 30.5587 28.2624 30.5613 27.3819V7.44192L23.9153 0.794922ZM15.6073 27.3809C14.6214 27.3809 13.6577 27.0886 12.8379 26.5409C12.0182 25.9932 11.3792 25.2147 11.0019 24.3038C10.6246 23.393 10.5258 22.3907 10.7181 21.4238C10.9103 20.4568 11.385 19.5686 12.0821 18.8713C12.7791 18.1741 13.6673 17.6993 14.6342 17.5068C15.6011 17.3144 16.6034 17.4129 17.5143 17.7901C18.4252 18.1672 19.2039 18.806 19.7517 19.6257C20.2996 20.4453 20.5921 21.409 20.5923 22.3949C20.5934 23.0499 20.4652 23.6987 20.215 24.304C19.9649 24.9093 19.5978 25.4594 19.1347 25.9226C18.6716 26.3857 18.1216 26.753 17.5163 27.0032C16.9111 27.2535 16.2623 27.3818 15.6073 27.3809ZM20.5923 10.7649H3.97534V4.11792H20.5923V10.7649Z" fill="white"/>
</svg>
