<svg xmlns="http://www.w3.org/2000/svg" width="50" height="50" viewBox="0 0 50 50">
  <g id="Search_New_Customer" data-name="Search/New Customer" transform="translate(-4627 -1830)">
    <g id="Ellipse_62" data-name="Ellipse 62" transform="translate(4627 1830)" fill="none" stroke="#fff" stroke-width="2">
      <circle cx="25" cy="25" r="25" stroke="none"/>
      <circle cx="25" cy="25" r="24" fill="none"/>
    </g>
    <g id="Group_16172" data-name="Group 16172" transform="translate(4452.01 1329.01)">
      <rect id="Rectangle_17973" data-name="Rectangle 17973" width="37" height="37" transform="translate(181.99 507.99)" fill="none"/>
      <g id="Group_16163" data-name="Group 16163" transform="translate(185.05 510.298)">
        <path id="Subtraction_4" data-name="Subtraction 4" d="M14.434,26.84H4.807a5.453,5.453,0,0,1-2.55-.517,3.812,3.812,0,0,1-2.2-3.2,15.594,15.594,0,0,1,1-7.17A8.74,8.74,0,0,1,2.191,14.05a4.537,4.537,0,0,1,3.714-1.711,1.373,1.373,0,0,1,.581.193c.265.159.526.333.757.487l.006,0a12.782,12.782,0,0,0,1.144.7,8.53,8.53,0,0,0,3.952,1.042,8.412,8.412,0,0,0,4.671-1.527l.167-.108a4.277,4.277,0,0,0,.447-.312,2,2,0,0,1,1.375-.5,3.912,3.912,0,0,1,.886.116,5.1,5.1,0,0,1,3.327,2.648c.124.224.239.461.345.7-.1,0-.2-.005-.316-.005a9.048,9.048,0,0,0-8.813,11.058ZM12.468,13.407c-.054,0-.11,0-.167,0A6.7,6.7,0,0,1,12.219,0h.113a6.759,6.759,0,0,1,6.717,6.75A6.709,6.709,0,0,1,12.468,13.407Z" fill="#fff"/>
        <path id="Path_57989" data-name="Path 57989" d="M539.172,246.966a8.286,8.286,0,1,1-8.227-8.267A8.31,8.31,0,0,1,539.172,246.966Zm-7.326-.94V243.4a.955.955,0,0,0-1.175-.94,1.046,1.046,0,0,0-.784.979v2.586H527.3a.96.96,0,1,0,0,1.92h2.625v2.586a1.663,1.663,0,0,0,.078.431.933.933,0,0,0,1.1.548.972.972,0,0,0,.784-.979v-2.586h2.586a.863.863,0,0,0,.313-.039.949.949,0,0,0,.705-1.058.976.976,0,0,0-.979-.862H532A.3.3,0,0,1,531.846,246.026Z" transform="translate(-507.324 -222.234)" fill="#fff"/>
      </g>
    </g>
  </g>
</svg>
