<svg width="36" height="32" viewBox="0 0 36 32" fill="none" xmlns="http://www.w3.org/2000/svg">
<path d="M13.1515 6.00586C13.3424 6.02761 13.5358 6.04453 13.7243 6.07595C14.4375 6.18683 15.1065 6.49203 15.6577 6.95806C16.9772 8.06734 18.2992 9.17421 19.6018 10.3052C20.3878 10.9937 20.8789 11.9581 20.9734 12.9987C21.0679 14.0393 20.7585 15.0764 20.1093 15.8952C20.0875 15.9221 20.0673 15.9503 20.0489 15.9798L18.4224 14.5925C18.6278 14.3319 18.7612 14.0219 18.8091 13.6935C18.8727 13.3548 18.8447 13.0053 18.7278 12.6811C18.611 12.3569 18.4096 12.0698 18.1445 11.8495C16.8878 10.7765 15.6279 9.70831 14.3647 8.64494C14.1027 8.4081 13.7808 8.24755 13.434 8.18073C13.0872 8.11391 12.7287 8.14337 12.3974 8.26591C12.0662 8.38845 11.7748 8.59939 11.555 8.87583C11.3352 9.15226 11.1952 9.48364 11.1504 9.83398C11.0968 10.1479 11.1263 10.4704 11.2362 10.7694C11.346 11.0683 11.5323 11.3333 11.7764 11.5378C12.4458 12.1299 13.1322 12.7002 13.8185 13.273C13.8646 13.3048 13.8982 13.3515 13.9136 13.4053C13.929 13.4591 13.9253 13.5165 13.9031 13.5678C13.6804 14.337 13.6546 15.1497 13.8282 15.9314C13.8315 15.9821 13.8315 16.033 13.8282 16.0837C13.7863 16.0552 13.746 16.0246 13.7074 15.9918C12.6263 15.0767 11.5436 14.1575 10.4593 13.2343C10.0014 12.858 9.6325 12.3851 9.37889 11.8494C9.12527 11.3138 8.99326 10.7287 8.9923 10.1361C8.98561 9.23122 9.27996 8.34983 9.82903 7.63058C10.3781 6.91133 11.1507 6.39504 12.0253 6.16295C12.1244 6.13636 12.2235 6.10495 12.3226 6.07353L13.1515 6.00586Z" fill="#704332"/>
<path d="M26.7523 18.3109C26.7257 18.5212 26.7088 18.7363 26.6677 18.9465C26.5274 19.752 26.1463 20.4961 25.5746 21.0807C25.003 21.6652 24.2677 22.0629 23.4655 22.2212C22.8873 22.3556 22.2858 22.354 21.7083 22.2165C21.1309 22.0789 20.5932 21.8092 20.1377 21.4285C18.765 20.3072 17.4019 19.1592 16.0775 17.9847C15.6453 17.5985 15.3045 17.121 15.0796 16.5868C14.8547 16.0526 14.7515 15.4751 14.7773 14.8961C14.7737 14.0477 15.0431 13.2207 15.5459 12.5373C15.5918 12.4697 15.6449 12.4068 15.6933 12.3464L17.3125 13.7336C17.0056 14.1278 16.8576 14.6228 16.8979 15.1209C16.9382 15.6189 17.1637 16.0837 17.53 16.4234C18.8189 17.5303 20.1127 18.6283 21.4113 19.7175C21.6783 19.9438 22.0018 20.0934 22.3472 20.1502C22.6926 20.2071 23.047 20.1691 23.3725 20.0403C23.698 19.9116 23.9824 19.6969 24.1955 19.4191C24.4085 19.1413 24.5421 18.8109 24.5821 18.4632C24.6304 18.1539 24.598 17.8374 24.4879 17.5443C24.3778 17.2513 24.1938 16.9917 23.9537 16.7908C23.2794 16.1963 22.5882 15.6235 21.9019 15.0435C21.867 15.0232 21.8405 14.9911 21.8272 14.953C21.8139 14.9149 21.8147 14.8732 21.8294 14.8356C22.0882 14.0295 22.1217 13.1678 21.9261 12.344C21.9248 12.3198 21.9248 12.2956 21.9261 12.2715C21.9792 12.3126 22.0227 12.344 22.0614 12.3778L25.2491 15.0773C25.9719 15.6679 26.4666 16.4916 26.6484 17.4071C26.6576 17.4318 26.6697 17.4554 26.6846 17.4771L26.7523 18.3109Z" fill="#704332"/>
<path d="M21.5829 11.9021C21.5974 11.8054 21.6288 11.6073 21.6723 11.3511C21.885 11.4961 22.0855 11.6097 22.2595 11.7547C23.4969 12.789 24.7585 13.7944 25.9523 14.8747C26.5325 15.3963 26.9777 16.0505 27.2501 16.7815H35.803V10.5391H20.6113" fill="#704332"/>
<path d="M9.97631 13.6953C9.02535 12.9017 8.41898 11.7704 8.28459 10.5391H0.874861C0.582435 10.5391 0.292426 10.556 0 10.5656V16.7815H13.657C13.4903 16.6631 13.3308 16.5398 13.1737 16.419C12.1022 15.5232 11.0365 14.6153 9.97631 13.6953Z" fill="#704332"/>
<path d="M8.45703 27.2598V27.2905L8.4852 27.2598H8.45703Z" fill="#704332"/>
<path d="M7.25023 18.9058L0 18.8574V30.8106C0.340761 31.3761 0.83861 31.6275 1.46696 31.3979C2.09532 31.1683 2.09048 30.6221 2.0784 30.0687C2.06148 29.1552 2.0784 28.2392 2.0784 27.2653H8.4586V18.9058H7.25023Z" fill="#704332"/>
<path d="M8.39818 2.79372C8.39818 0.877245 8.03808 0.430148 6.16753 0.0773039C5.87942 0.0365283 5.58829 0.0211631 5.2975 0.0313858C3.99729 0.0289691 2.6995 0.0628035 1.40171 0.0072184C1.12844 -0.0197451 0.853026 0.0291506 0.605737 0.148531C0.358448 0.267912 0.148857 0.453157 0 0.683906L0 8.33531H8.39818V2.79372Z" fill="#704332"/>
<path d="M27.4077 27.2905V27.2598H27.377L27.4077 27.2905Z" fill="#704332"/>
<path d="M35.8567 30.1027C35.8567 26.5984 35.8567 23.0949 35.8567 19.5923C35.8567 19.3893 35.8277 19.1838 35.8132 18.9688H27.5165C27.5165 19.0896 27.4851 19.2104 27.4633 19.3313C27.4633 19.556 27.4633 19.7639 27.4633 19.9717C27.4472 22.4013 27.4295 24.831 27.4102 27.2606H33.7904C33.7904 28.4206 33.7759 29.4502 33.7904 30.4773C33.7811 30.6033 33.7985 30.7298 33.8414 30.8487C33.8842 30.9676 33.9516 31.0761 34.0391 31.1673C34.1266 31.2584 34.2323 31.3302 34.3493 31.3778C34.4664 31.4255 34.5921 31.448 34.7184 31.444C35.3564 31.4923 35.7189 31.1757 35.8398 30.5691C35.8594 30.4145 35.865 30.2584 35.8567 30.1027Z" fill="#704332"/>
<path d="M27.461 5.13854V8.32381H35.852C35.852 5.84423 35.8761 3.43716 35.8375 1.03008C35.8375 0.348558 35.3759 0.015048 34.6653 0.024715C33.2612 0.0440489 31.8498 -0.0453706 30.453 0.0609661C29.6361 0.126218 28.8337 0.462145 28.0362 0.720737C27.5867 0.868158 27.4296 1.221 27.4465 1.71885C27.4876 2.85714 27.461 3.99784 27.461 5.13854Z" fill="#704332"/>
<path d="M10.5664 18.9551V27.317H16.8717V19.5496C16.6445 19.3538 16.4343 19.1533 16.1926 18.9551H10.5664Z" fill="#704332"/>
<path d="M24.7389 22.7046C23.0255 23.4297 21.3555 23.2943 19.8813 22.0714L19.1562 21.4648V27.265H25.3649V22.388C25.1635 22.5074 24.9544 22.6131 24.7389 22.7046Z" fill="#704332"/>
<path d="M25.3555 27.2559V27.284L25.3785 27.2559H25.3555Z" fill="#704332"/>
<path d="M15.9358 6.3949L16.8493 7.15376V0.0485356C15.5225 0.0485356 14.2441 -0.0457173 12.9825 0.0847868C12.2575 0.159706 11.5518 0.568135 10.8606 0.882312C10.7697 0.942073 10.6933 1.02155 10.6373 1.11485C10.5812 1.20814 10.5469 1.31287 10.5368 1.42125C10.5223 2.95588 10.5199 4.49051 10.5223 6.03964C11.2598 5.5888 12.1061 5.34735 12.9705 5.3412C14.0539 5.3219 15.1075 5.6963 15.9358 6.3949Z" fill="#704332"/>
<path d="M25.36 2.04178C25.3842 1.22492 25.0894 0.833411 24.374 0.495067C22.6823 -0.287957 20.935 0.168807 19.1562 0.0117188V8.29631H25.3383C25.3383 6.17441 25.2972 4.11535 25.36 2.04178Z" fill="#704332"/>
<path d="M10.541 27.337H10.5666H10.5538V27.3242L10.541 27.337Z" fill="#704332"/>
<path d="M8.45703 27.2905H8.48264V27.2598L8.45703 27.2905Z" fill="#704332"/>
<path d="M8.44336 30.2724C8.44336 31.0917 8.7817 31.4663 9.47531 31.4567C10.1689 31.447 10.4952 31.0676 10.5121 30.2483C10.5314 29.2816 10.5338 28.3149 10.5411 27.3482L8.47961 27.3047C8.46028 28.2835 8.44578 29.2792 8.44336 30.2724Z" fill="#704332"/>
<path d="M25.3602 30.4211C25.3771 31.1292 25.8073 31.4917 26.4791 31.4506C27.151 31.4095 27.4241 31.0518 27.4192 30.4211C27.4192 29.377 27.3951 28.333 27.383 27.2793H25.3771C25.3771 28.3282 25.3336 29.3746 25.3602 30.4211Z" fill="#704332"/>
<path d="M27.3809 27.2598V27.2905H27.4065L27.3809 27.2598Z" fill="#704332"/>
<path d="M25.3555 27.2834H25.3785V27.2578L25.3555 27.2834Z" fill="#704332"/>
<path d="M20.3378 16.7812H20.1348L20.2653 16.8924L20.3378 16.7812Z" fill="#704332"/>
</svg>
