<svg width="28" height="24" viewBox="0 0 28 24" fill="none" xmlns="http://www.w3.org/2000/svg">
<path d="M0.00390625 7.9545C0.22318 7.94728 0.443355 7.93555 0.662628 7.93555H26.9745V12.6332H0.00390625V7.9545Z" fill="#704332"/>
<path d="M6.39141 20.5309H1.56559C1.56559 21.2645 1.55657 21.9539 1.56559 22.6415C1.57371 23.0593 1.56559 23.4762 1.10539 23.6441C0.631651 23.8164 0.257172 23.6269 0 23.2019V14.1973L5.45657 14.237C5.71284 14.237 5.97001 14.237 6.36795 14.237V20.5535L6.39141 20.5309Z" fill="#704332"/>
<path d="M0.00390625 0.508716C0.261079 0.140554 0.592244 -0.0119449 1.06057 0.00519991C2.03692 0.0412943 3.01598 0.0142235 3.99414 0.0178329C4.21339 0.00972596 4.43294 0.0212014 4.65015 0.0521226C6.05874 0.32283 6.33035 0.653996 6.33035 2.09777V6.27208H0.00390625V0.508716Z" fill="#704332"/>
<path d="M20.6507 20.5538C20.6651 18.7154 20.679 16.8776 20.6922 15.0404C20.6922 14.804 20.6922 14.5676 20.6922 14.2852H26.9853C26.997 14.4485 27.0187 14.6019 27.0187 14.7553C27.0187 17.3938 27.0187 20.0329 27.0187 22.6726C27.0267 22.793 27.0227 22.9139 27.0069 23.0335C26.9167 23.491 26.646 23.7283 26.1641 23.6922C25.7084 23.6589 25.4711 23.4008 25.463 22.9577C25.4495 22.1826 25.463 21.4066 25.463 20.534H20.6309L20.6507 20.5538Z" fill="#704332"/>
<path d="M27.012 6.26495H20.6955V3.86468C20.6955 3.00653 20.7144 2.15019 20.6865 1.28844C20.6738 0.914865 20.792 0.647767 21.1304 0.537679C21.7287 0.341867 22.3324 0.0864994 22.9478 0.0404791C23.9999 -0.0407333 25.0629 0.027846 26.1214 0.0134083C26.6565 0.00618942 26.9976 0.257045 27.0057 0.769585C27.0291 2.58242 27.012 4.39707 27.012 6.26495Z" fill="#704332"/>
<path d="M7.96141 20.59V14.2734H12.7114V20.5746H7.94336L7.96141 20.59Z" fill="#704332"/>
<path d="M19.12 20.5283H14.4277V14.2695H19.1047V20.5481L19.12 20.5283Z" fill="#704332"/>
<path d="M7.93082 6.24047C7.93082 4.4926 7.92451 2.77812 7.94165 1.06454C7.94922 0.982268 7.97552 0.90282 8.01853 0.83228C8.06154 0.76174 8.12013 0.70198 8.1898 0.657575C8.71046 0.423864 9.23925 0.11616 9.78788 0.0575064C10.7345 -0.0399484 11.6973 0.0304356 12.6971 0.0304356V6.24047H7.93082Z" fill="#704332"/>
<path d="M14.4355 0.00390625C15.7765 0.121213 17.0975 -0.222586 18.3671 0.36485C18.9085 0.614803 19.1296 0.913484 19.1107 1.52889C19.0628 3.08366 19.0944 4.64113 19.0944 6.24101H14.4355V0.00390625Z" fill="#704332"/>
<path d="M6.36855 20.5522L7.95941 20.5873L7.94136 20.5729C7.93504 21.3092 7.93324 22.0456 7.9188 22.7819C7.90707 23.3982 7.65351 23.6842 7.13826 23.6924C6.62301 23.7005 6.36133 23.4171 6.36133 22.8008C6.36133 22.0447 6.37938 21.2894 6.3893 20.5332L6.36855 20.5522Z" fill="#704332"/>
<path d="M20.6301 20.532C20.64 21.3261 20.6527 22.1193 20.659 22.9133C20.659 23.3871 20.4316 23.6587 19.9506 23.6885C19.4453 23.72 19.1205 23.4457 19.1069 22.9115C19.0871 22.1184 19.1132 21.3243 19.1196 20.5293C19.1196 20.5293 19.1024 20.5482 19.1033 20.5482L20.6509 20.5546L20.6301 20.532Z" fill="#704332"/>
</svg>
