<svg xmlns="http://www.w3.org/2000/svg" width="50" height="50" viewBox="0 0 50 50">
  <g id="Select_Customer" data-name="Select Customer" transform="translate(-4700 -1830)">
    <g id="Ellipse_53" data-name="Ellipse 53" transform="translate(4700 1830)" fill="none" stroke="#fff" stroke-width="2">
      <circle cx="25" cy="25" r="25" stroke="none"/>
      <circle cx="25" cy="25" r="24" fill="none"/>
    </g>
    <g id="Group_16231" data-name="Group 16231" transform="translate(9 54)">
      <rect id="Rectangle_17973" data-name="Rectangle 17973" width="37" height="37" transform="translate(4698 1783)" fill="none"/>
      <g id="Group_16230" data-name="Group 16230" transform="translate(4701.052 1785.299)">
        <path id="Subtraction_4" data-name="Subtraction 4" d="M14.442,26.855H4.81a5.458,5.458,0,0,1-2.552-.517,3.814,3.814,0,0,1-2.2-3.2,15.6,15.6,0,0,1,1-7.174,8.726,8.726,0,0,1,1.131-1.907,4.54,4.54,0,0,1,3.716-1.712,1.373,1.373,0,0,1,.581.193c.265.159.526.333.757.488l.005,0a12.872,12.872,0,0,0,1.145.705,8.536,8.536,0,0,0,3.954,1.042,8.416,8.416,0,0,0,4.673-1.528c.054-.036.11-.072.167-.108a4.179,4.179,0,0,0,.447-.312,2,2,0,0,1,1.376-.5,3.919,3.919,0,0,1,.886.116,5.106,5.106,0,0,1,3.329,2.65c.124.224.24.461.345.7-.1,0-.2-.005-.316-.005a9.052,9.052,0,0,0-8.818,11.064ZM12.474,13.414c-.054,0-.11,0-.167,0A6.706,6.706,0,0,1,12.226,0h.114A6.763,6.763,0,0,1,19.06,6.755,6.713,6.713,0,0,1,12.474,13.414Z" fill="#fff"/>
        <path id="Path_198" data-name="Path 198" d="M10.222,2a8.222,8.222,0,1,0,8.222,8.222A8.225,8.225,0,0,0,10.222,2ZM8.578,14.333,4.467,10.222,5.626,9.063l2.952,2.944,6.241-6.241,1.159,1.168Z" transform="translate(13.283 14.612)" fill="#fff"/>
      </g>
    </g>
  </g>
</svg>
