<svg xmlns="http://www.w3.org/2000/svg" width="50" height="50" viewBox="0 0 50 50">
  <g id="Setting" transform="translate(-182 -449)">
    <rect id="Rectangle_17969" data-name="Rectangle 17969" width="50" height="50" transform="translate(182 449)" fill="none"/>
    <path id="Path_57846" data-name="Path 57846" d="M259.5,268.617a12.783,12.783,0,0,1,.425-1.385c.567-1.42,1.169-2.805,1.736-4.19a.5.5,0,0,0,0-.5c-.213-.5-.425-.994-.6-1.456a.433.433,0,0,0-.319-.284c-1.524-.568-3.047-1.172-4.536-1.776a5.008,5.008,0,0,1-.85-.462.731.731,0,0,1-.354-.675v-4.51a.757.757,0,0,1,.461-.746c.567-.284,1.134-.6,1.7-.852,1.169-.5,2.374-.959,3.579-1.456a.625.625,0,0,0,.319-.284c.213-.5.425-1.03.638-1.527a.589.589,0,0,0,0-.426c-.673-1.527-1.346-3.019-1.984-4.545a3.754,3.754,0,0,1-.213-.675.835.835,0,0,1,.248-.888c1.028-.994,2.055-2.024,3.083-3.018a.945.945,0,0,1,1.028-.284c1.169.426,2.374.852,3.543,1.278.6.213,1.2.5,1.807.746a.728.728,0,0,0,.39,0c.531-.213,1.063-.426,1.559-.639a.564.564,0,0,0,.319-.32c.532-1.385,1.1-2.77,1.63-4.119a12.353,12.353,0,0,1,.638-1.172.729.729,0,0,1,.673-.355h4.571a.729.729,0,0,1,.673.355,11.486,11.486,0,0,1,.78,1.456c.567,1.278,1.1,2.557,1.63,3.8a.585.585,0,0,0,.354.355c.531.213,1.028.426,1.559.6a.725.725,0,0,0,.39,0c1.595-.675,3.224-1.349,4.819-2.024.106-.036.248-.071.354-.107a1.066,1.066,0,0,1,1.134.284c1.028,1.03,2.055,2.024,3.083,3.018a.74.74,0,0,1,.248.888c-.354.994-.673,1.989-1.063,2.983-.319.817-.673,1.563-.992,2.379a.73.73,0,0,0,0,.391c.213.533.425,1.03.638,1.527a.554.554,0,0,0,.283.284c1.488.568,2.941,1.136,4.429,1.7a7.61,7.61,0,0,1,.921.5.852.852,0,0,1,.425.781v4.4a.838.838,0,0,1-.461.817c-.532.284-1.063.568-1.63.817-1.2.533-2.445.994-3.685,1.492a.625.625,0,0,0-.319.284c-.213.5-.425.994-.638,1.456a.608.608,0,0,0,0,.5c.673,1.491,1.347,3.018,1.984,4.51a3.212,3.212,0,0,1,.213.781.682.682,0,0,1-.213.71c-1.1,1.065-2.161,2.131-3.26,3.2a.832.832,0,0,1-.886.213l-3.3-1.172-2.126-.852a.487.487,0,0,0-.319,0c-.532.213-1.1.426-1.63.639a.554.554,0,0,0-.283.284l-1.807,4.474a6.173,6.173,0,0,1-.531.923.666.666,0,0,1-.6.284h-4.677a.715.715,0,0,1-.638-.32,8.058,8.058,0,0,1-.673-1.207c-.6-1.349-1.169-2.734-1.772-4.119a.554.554,0,0,0-.283-.284c-.532-.213-1.028-.426-1.559-.639a.859.859,0,0,0-.425,0c-1.595.675-3.189,1.314-4.784,1.989a1.721,1.721,0,0,0-.39.142,1.066,1.066,0,0,1-1.134-.284c-1.028-1.03-2.091-2.06-3.118-3.09A1.75,1.75,0,0,0,259.5,268.617Zm8.575-13.1a11.219,11.219,0,0,0,.177,1.527,8.7,8.7,0,0,0,8.292,7.067,8.887,8.887,0,0,0,5.953-2.06,8.455,8.455,0,0,0,2.161-10.227,8.756,8.756,0,0,0-9.815-4.616A8.607,8.607,0,0,0,268.075,255.513Z" transform="translate(-70 218.9)" fill="#704332"/>
  </g>
</svg>
