<svg xmlns="http://www.w3.org/2000/svg" width="51" height="51" viewBox="0 0 51 51">
  <g id="Split_Invoice" data-name="Split Invoice" transform="translate(-181.43 -625.43)">
    <rect id="Rectangle_17977" data-name="Rectangle 17977" width="51" height="51" transform="translate(181.43 625.43)" fill="none"/>
    <g id="Group_16028" data-name="Group 16028" transform="translate(190.862 630.43)">
      <path id="Path_57867" data-name="Path 57867" d="M245.258,435.532h-3.407V414.168a.937.937,0,0,0-.276-.691c-1.98-1.934-3.914-3.914-5.847-5.847a.981.981,0,0,0-.737-.322H221.5V403.9h17.634v5.433c0,.552.184.691.691.691h5.433Z" transform="translate(-217.08 -399.296)" fill="#704332"/>
      <path id="Path_57868" data-name="Path 57868" d="M256.782,419.582H252.5V415.3Z" transform="translate(-233.806 -405.447)" fill="#704332"/>
      <path id="Path_57869" data-name="Path 57869" d="M262.146,405.5c1.427,1.427,2.855,2.855,4.282,4.328H262.1v-4.282A.045.045,0,0,0,262.146,405.5Z" transform="translate(-238.986 -400.159)" fill="#704332"/>
      <g id="Group_16027" data-name="Group 16027" transform="translate(0 9.024)">
        <path id="Path_57870" data-name="Path 57870" d="M235.382,419.67h-5.2c-.46,0-.645-.184-.645-.645V413.5H211.9v31.632h23.8V419.67Zm-3.039,2.67h.368a.537.537,0,0,1,.46.46.464.464,0,0,1-.414.507H215.4c-.46,0-.691-.184-.645-.553a.413.413,0,0,1,.414-.414h17.174Zm.829,3.315a.591.591,0,0,1-.46.46H215.353c-.368,0-.553-.184-.553-.46a.547.547,0,0,1,.46-.552h17.266a.784.784,0,0,1,.322.046A.5.5,0,0,1,233.172,425.655Zm-17.957-7.137H223a.5.5,0,0,1,.46.506c0,.276-.184.46-.506.506h-7.735a.461.461,0,0,1-.46-.46A.547.547,0,0,1,215.215,418.519Zm-.046,9.393h17.5a.486.486,0,0,1,.046.967H215.353c-.414,0-.645-.184-.645-.507A.493.493,0,0,1,215.169,427.912Zm.184,3.729c-.368,0-.6-.184-.6-.506a.5.5,0,0,1,.46-.507h17.5a.536.536,0,0,1,.46.507.461.461,0,0,1-.46.46h-8.748C221.109,431.641,218.208,431.641,215.353,431.641ZM233.126,435a.506.506,0,0,1-.46.276h-7.6c-.368,0-.552-.184-.552-.506a.435.435,0,0,1,.46-.46h7.6a.965.965,0,0,1,.506.184C233.218,434.588,233.218,434.818,233.126,435Z" transform="translate(-211.9 -413.5)" fill="#704332"/>
        <path id="Path_57871" data-name="Path 57871" d="M231.106,462.1H230.6v2.026h.414a1.718,1.718,0,0,0,.553-.092.619.619,0,0,0,.276-.322,1.714,1.714,0,0,0,.092-.552,1.168,1.168,0,0,0-.184-.737A.743.743,0,0,0,231.106,462.1Z" transform="translate(-221.99 -439.723)" fill="#704332"/>
      </g>
      <path id="Path_57872" data-name="Path 57872" d="M255.258,425.532h-3.407V404.168a.937.937,0,0,0-.276-.691c-1.98-1.934-3.914-3.914-5.847-5.847a.981.981,0,0,0-.737-.322H231.5V393.9h17.635v5.433c0,.553.184.691.691.691h5.433Z" transform="translate(-222.476 -393.9)" fill="#704332"/>
      <path id="Path_57873" data-name="Path 57873" d="M272.146,395.5c1.427,1.427,2.855,2.855,4.282,4.328H272.1v-4.282A.045.045,0,0,0,272.146,395.5Z" transform="translate(-244.382 -394.763)" fill="#704332"/>
    </g>
  </g>
</svg>
