<svg width="33" height="33" viewBox="0 0 33 33" fill="none" xmlns="http://www.w3.org/2000/svg">
<path d="M0 13.6814C0.144958 13.1099 0.273281 12.5348 0.43725 11.9693C0.773505 10.8084 1.25234 9.71171 2.06506 8.80156C2.614 8.18014 3.2675 7.71081 4.09685 7.53496C4.20849 7.51052 4.32238 7.49778 4.43667 7.49694C6.13576 7.49694 7.83486 7.48625 9.53277 7.49694C10.4833 7.49694 11.2533 7.93776 11.8866 8.62334C12.7563 9.56437 13.2328 10.7157 13.6189 11.9122C13.7211 12.2283 13.7983 12.5538 13.8791 12.8758C14.0086 13.3891 13.8459 13.799 13.4229 14.1068C12.4034 14.8494 11.3079 15.4328 10.0651 15.7108C10.0152 15.7215 9.96646 15.7393 9.91774 15.7548C9.96765 16.0019 9.96764 16.0019 10.5558 15.8819C10.5558 15.9829 10.5736 16.0792 10.5736 16.1766C10.5744 20.938 10.5748 25.7007 10.5748 30.4645C10.5748 31.6835 10.3027 32.0756 9.19295 32.5046H8.62975C7.51286 32.0436 7.25978 31.6586 7.25978 30.4205V18.768H6.63836V19.1304C6.63836 22.9516 6.63836 26.7728 6.63836 30.594C6.64513 30.8119 6.6272 31.03 6.5849 31.2439C6.41736 31.9473 5.91357 32.3133 5.25413 32.5046H4.68975C3.56811 32.0293 3.32334 31.6633 3.32334 30.4146C3.32334 26.5577 3.32334 22.7017 3.32334 18.8464V16.9026C3.83307 17.0119 4.30953 17.1081 4.78124 17.2234C4.84896 17.24 4.90837 17.3481 4.94283 17.4266C5.04739 17.6713 5.13769 17.9232 5.24106 18.1906L9.72763 16.5117C8.93631 14.4074 8.15923 12.3281 7.3786 10.2488L2.89084 11.9241L3.72257 14.1733C3.378 14.1733 3.22353 14.0296 3.13442 13.7551C2.97877 13.2798 2.78866 12.8152 2.61281 12.3471C2.44646 12.7511 2.36923 13.161 2.2421 13.5531C2.14942 13.8347 2.26586 13.9476 2.4928 14.0486C3.42196 14.4656 4.4034 14.6926 5.3979 14.8803C6.0918 15.0074 6.48509 15.5195 6.37696 16.1612C6.27716 16.7552 5.71871 17.1402 5.0569 16.9929C4.08378 16.7766 3.10947 16.5426 2.16368 16.2313C1.21788 15.92 0.349325 15.4197 0 14.3694V13.6814ZM10.5748 10.4864C10.5748 11.2552 10.5677 12.0001 10.5748 12.7439C10.5748 12.9424 10.519 13.0552 10.3289 13.1075C9.89398 13.2263 9.46029 13.3535 8.93749 13.502C9.08364 13.5757 9.17513 13.6719 9.26424 13.6612C10.1057 13.5352 10.9081 13.2217 11.6121 12.7439C11.416 11.9122 10.9194 10.8179 10.5748 10.4864ZM2.89084 11.4548C3.36612 11.3466 3.40651 11.2575 3.25918 10.7597L2.89084 11.4548Z" fill="#704332"/>
<path d="M32.0019 32.0395H20.4766V20.5059H32.0019V32.0395ZM24.8027 21.3186H21.534V24.9877H24.8027V21.3186Z" fill="#704332"/>
<path d="M13.6758 18.0039H27.7118V20.0749H20.0539V32.0363H13.6758V18.0039ZM14.3887 18.7643V22.4631H17.6407V18.7643H14.3887Z" fill="#704332"/>
<path d="M25.1897 10.8145V17.4077H18.5977V10.8145H25.1897ZM22.6113 11.4371H19.3415V15.1204H22.6113V11.4371Z" fill="#704332"/>
<path d="M7.00944 3.0154C7.1726 3.25661 7.35245 3.4861 7.54769 3.70216C8.11683 4.25348 8.80835 4.61706 9.52958 4.92718C9.70067 5.00085 9.87534 5.0662 10.1047 5.1565C9.97239 5.39066 9.82762 5.61753 9.67097 5.83614C9.2722 6.32491 8.72968 6.67573 8.12034 6.83886C7.51099 7.00199 6.86576 6.96914 6.27613 6.74497C5.6865 6.5208 5.18241 6.11669 4.83535 5.58995C4.48829 5.0632 4.31586 4.44057 4.34253 3.81033C4.3692 3.18009 4.5936 2.57424 4.98393 2.0787C5.37425 1.58316 5.91067 1.22308 6.51713 1.04952C7.12358 0.875966 7.76929 0.897741 8.36267 1.11176C8.95606 1.32578 9.46701 1.72118 9.82306 2.24189C9.92296 2.36798 10.054 2.46586 10.2033 2.52587C10.6322 2.71003 11.0778 2.85737 11.5103 3.04629C11.7375 3.15051 11.9513 3.28176 12.1471 3.4372C12.399 3.63206 12.7222 3.84593 12.6046 4.21427C12.487 4.58261 12.102 4.59805 11.7859 4.61231C10.3399 4.67719 8.90935 4.29195 7.69146 3.50968C7.47565 3.35038 7.27337 3.17354 7.08668 2.98094L7.00944 3.0154Z" fill="#704332"/>
<path d="M24.4858 23.1399C24.418 23.1898 24.3515 23.2813 24.2838 23.2825C23.5281 23.2928 22.7716 23.2928 22.0143 23.2825C21.9597 23.2825 21.9062 23.1982 21.8516 23.1518C21.9098 23.1102 21.9704 23.033 22.0274 23.033C22.8235 23.0247 23.6208 23.033 24.418 23.033L24.4858 23.1399Z" fill="#704332"/>
<path d="M24.4081 22.6321C23.6203 22.6321 22.8326 22.6321 22.0448 22.6261C21.9807 22.6261 21.9177 22.543 21.8535 22.499C21.9201 22.4586 21.9878 22.3802 22.0555 22.3802C22.7922 22.3707 23.5292 22.3707 24.2667 22.3802C24.3392 22.3802 24.4105 22.4752 24.483 22.5263L24.4081 22.6321Z" fill="#704332"/>
<path d="M24.4145 23.9377C23.616 23.9377 22.8176 23.9377 22.0203 23.9377C21.9633 23.9377 21.9086 23.8593 21.8516 23.8189C21.9062 23.7761 21.9609 23.7001 22.0155 23.7001C22.7736 23.6917 23.5316 23.6905 24.2897 23.7001C24.3574 23.7001 24.4228 23.7963 24.4893 23.8474L24.4145 23.9377Z" fill="#704332"/>
<path d="M23.1399 21.7302C23.5035 21.7302 23.8682 21.7219 24.233 21.7302C24.3079 21.7302 24.3804 21.8145 24.454 21.8597C24.3863 21.9013 24.3186 21.9785 24.2508 21.9785C23.5213 21.9864 22.7922 21.9864 22.0634 21.9785C21.9933 21.9785 21.9244 21.9025 21.8555 21.8597C21.9291 21.8134 22.0016 21.7314 22.0777 21.729C22.4341 21.7147 22.7906 21.729 23.1399 21.729V21.7302Z" fill="#704332"/>
<path d="M22.5763 24.5836C22.3897 24.5836 22.202 24.5943 22.0178 24.5836C21.9608 24.5836 21.9109 24.4992 21.8574 24.4541C21.9061 24.4137 21.9537 24.3353 22.0024 24.3353C22.3984 24.3257 22.7917 24.3257 23.1822 24.3353C23.2298 24.3353 23.2761 24.4101 23.3236 24.4541C23.2702 24.4992 23.2215 24.5729 23.1656 24.5836C22.9672 24.5931 22.7699 24.5836 22.5763 24.5836Z" fill="#704332"/>
<path d="M14.6797 19.3466C14.7462 19.2908 14.8128 19.1898 14.8805 19.1886C15.6298 19.1767 16.38 19.1767 17.1309 19.1886C17.2022 19.1886 17.2711 19.2872 17.3412 19.3407L17.2866 19.4203H14.7343L14.6797 19.3466Z" fill="#704332"/>
<path d="M16.041 19.8255C16.3975 19.8255 16.748 19.8183 17.1009 19.8255C17.1734 19.8255 17.2423 19.8979 17.3136 19.9371C17.2411 19.9847 17.1698 20.0738 17.0973 20.075C16.3701 20.0845 15.6426 20.0845 14.9146 20.075C14.8445 20.075 14.7744 20.0037 14.7031 19.9645C14.7756 19.917 14.8457 19.8302 14.9194 19.8266C15.2925 19.8124 15.6667 19.8266 16.041 19.8266V19.8255Z" fill="#704332"/>
<path d="M14.7328 20.4902C15.5432 20.4902 16.3523 20.4902 17.1615 20.4902C17.2125 20.4902 17.2625 20.558 17.3135 20.5948C17.2636 20.6423 17.2149 20.7326 17.165 20.7326C16.3951 20.7421 15.6204 20.7433 14.8552 20.7326C14.7946 20.7326 14.7364 20.6281 14.6758 20.571L14.7328 20.4902Z" fill="#704332"/>
<path d="M14.6699 21.284C14.7365 21.2329 14.8018 21.1378 14.8672 21.1366C15.6276 21.1263 16.3872 21.1263 17.1461 21.1366C17.2019 21.1366 17.2566 21.2162 17.3124 21.2554C17.2566 21.297 17.2019 21.3743 17.1461 21.3743C16.3464 21.3814 15.5456 21.3743 14.746 21.3743L14.6699 21.284Z" fill="#704332"/>
<path d="M15.4457 22.0475C15.2591 22.0475 15.0714 22.057 14.886 22.0475C14.8242 22.0415 14.7672 21.9738 14.709 21.9287C14.7601 21.8835 14.8112 21.7992 14.8634 21.798C15.2476 21.7861 15.631 21.7861 16.0136 21.798C16.0695 21.798 16.1229 21.8788 16.1776 21.9227C16.1205 21.9643 16.0659 22.0415 16.0041 22.0415C15.814 22.0582 15.6263 22.0475 15.4457 22.0475Z" fill="#704332"/>
<path d="M22.2203 12.7559C21.4242 12.7559 20.6269 12.7559 19.8296 12.7559C19.7738 12.7559 19.718 12.6775 19.6621 12.6371C19.718 12.5943 19.7738 12.5183 19.8296 12.5183C20.5869 12.5095 21.3438 12.5095 22.1003 12.5183C22.1656 12.5183 22.231 12.6145 22.2963 12.6668L22.2203 12.7559Z" fill="#704332"/>
<path d="M22.2923 13.8975C22.2234 13.9522 22.1557 14.052 22.0868 14.052C21.3394 14.0638 20.5908 14.0627 19.8435 14.052C19.7829 14.052 19.7247 13.9819 19.6641 13.9438C19.7247 13.8963 19.7829 13.8096 19.847 13.8084C20.6348 13.8001 21.4238 13.8084 22.2127 13.8084L22.2923 13.8975Z" fill="#704332"/>
<path d="M22.2943 11.9624C22.2206 12.0123 22.1481 12.1061 22.0745 12.1073C21.3338 12.1184 20.594 12.1184 19.8549 12.1073C19.7908 12.1073 19.729 12.0194 19.666 11.9719C19.7254 11.9338 19.7848 11.8625 19.8466 11.8625C20.6368 11.8554 21.4281 11.8625 22.223 11.8625L22.2943 11.9624Z" fill="#704332"/>
<path d="M20.9516 13.4193C20.5869 13.4193 20.2221 13.4264 19.8585 13.4133C19.7932 13.4133 19.7302 13.3266 19.666 13.2791C19.7254 13.2398 19.7848 13.1674 19.8442 13.1602C20.5944 13.1523 21.3437 13.1523 22.0923 13.1602C22.1505 13.1602 22.2111 13.2351 22.2658 13.2791C22.2016 13.3254 22.1398 13.4074 22.0745 13.4098C21.7002 13.4252 21.3259 13.4181 20.9516 13.4193Z" fill="#704332"/>
<path d="M21.0839 14.7176C20.68 14.7176 20.2748 14.7235 19.8708 14.7176C19.8007 14.7176 19.733 14.6403 19.6641 14.5987C19.7294 14.5536 19.7924 14.4692 19.8589 14.4669C20.2213 14.455 20.5861 14.4526 20.9485 14.4669C21.0222 14.4669 21.0911 14.5678 21.1624 14.6213L21.0839 14.7176Z" fill="#704332"/>
</svg>
