<svg width="36" height="36" viewBox="0 0 36 36" fill="none" xmlns="http://www.w3.org/2000/svg">
<path d="M5.74205 17.3991L5.74364 17.3991C6.89828 17.3899 8.05311 17.391 9.20909 17.392C9.57722 17.3923 9.94547 17.3927 10.3139 17.3927C10.6832 17.3927 11.0524 17.3924 11.4215 17.3921C12.5894 17.3912 13.756 17.3903 14.9215 17.3983H14.9216C15.0599 17.3992 15.1954 17.3819 15.3186 17.3138C15.4439 17.2447 15.5323 17.1367 15.6033 17.0029C16.9408 14.4971 18.2832 11.9946 19.6303 9.49528C19.7048 9.37572 19.7442 9.23767 19.7442 9.09674C19.7442 8.9558 19.7048 8.81774 19.6303 8.69818C18.2815 6.19781 16.9389 3.6953 15.6025 1.19063L15.6024 1.19033C15.5395 1.07299 15.4619 0.96799 15.3474 0.896349C15.2316 0.823955 15.1012 0.8 14.9601 0.799999L14.9595 0.800001C13.7025 0.803623 12.4446 0.804295 11.1862 0.804967C9.35528 0.805945 7.52348 0.806924 5.69241 0.816993L5.68243 0.817047L5.67251 0.818095C5.55874 0.830107 5.44897 0.866842 5.35089 0.925727C5.25281 0.984612 5.16879 1.06422 5.10471 1.15899L5.10009 1.16582L5.09605 1.17301C3.6826 3.687 2.28264 6.20828 0.896169 8.73684L0.892083 8.74429L0.888643 8.75206C0.839621 8.86285 0.814738 8.9828 0.815649 9.10394C0.81656 9.22508 0.843243 9.34464 0.893926 9.45467L0.893474 9.45488L0.900266 9.46725C1.68371 10.8942 2.47237 12.3183 3.26079 13.7419C3.86268 14.8287 4.46443 15.9153 5.0636 17.0027C5.13382 17.1303 5.21993 17.237 5.34229 17.3076C5.46393 17.3777 5.59895 17.3991 5.74205 17.3991ZM13.9835 2.81967L13.9835 2.81967C14.0825 2.81932 14.1334 2.83325 14.1663 2.85159C14.1972 2.86881 14.2344 2.90237 14.2795 2.98708C14.801 3.97266 15.3256 4.95482 15.8499 5.93645L15.8648 5.96447C16.393 6.95337 16.9209 7.94177 17.4454 8.93331C17.4673 8.98527 17.4786 9.04111 17.4786 9.09755C17.4786 9.15405 17.4673 9.20995 17.4453 9.26195C16.86 10.3737 16.2687 11.4797 15.6772 12.5861C15.2104 13.4592 14.7435 14.3326 14.2793 15.2092C14.2345 15.2936 14.1975 15.3281 14.1664 15.3461C14.134 15.3647 14.0838 15.3794 13.9861 15.3795C13.0953 15.3712 12.2041 15.3724 11.3141 15.3737C10.9907 15.3742 10.6676 15.3746 10.3446 15.3746C10.0454 15.3746 9.74585 15.3742 9.44617 15.3737C8.54637 15.3723 7.64498 15.371 6.74404 15.3819C6.625 15.3818 6.55718 15.3661 6.50898 15.34C6.46308 15.3152 6.4127 15.2688 6.35435 15.1622L6.35412 15.1618C5.27516 13.2024 4.18893 11.2479 3.09541 9.29824L3.0914 9.2911L3.08682 9.2843C3.0502 9.22996 3.03063 9.16591 3.03063 9.10038C3.03063 9.03484 3.0502 8.9708 3.08682 8.91645L3.09138 8.90969L3.09537 8.90258C4.19648 6.94098 5.28841 4.97534 6.37118 3.00565L6.37122 3.00556C6.42078 2.91532 6.46291 2.87672 6.50017 2.85616C6.53931 2.83456 6.59683 2.81967 6.70155 2.81967V2.61967L6.70089 2.81967C9.12841 2.82776 11.5559 2.82776 13.9835 2.81967Z" fill="#704332" stroke="#704332" stroke-width="0.4"/>
<path d="M23.5576 17.9931L22.4986 16.1914L27.326 16.7844L25.708 21.6329L24.615 19.7924L9.16742 30.9489V30.3558C9.16742 29.5735 9.15204 28.7904 9.1747 28.0097C9.1836 27.7055 9.07276 27.5574 8.80578 27.4312C7.99675 27.0461 7.19501 26.6311 6.31641 26.1902L23.5576 17.9931Z" fill="#704332"/>
<path d="M19.8391 24.7514L19.9682 24.6494L21.2052 23.6721L21.3096 23.5896L21.4261 23.6541C21.435 23.659 21.44 23.6612 21.4489 23.6651C21.4543 23.6675 21.4613 23.6706 21.4715 23.6753C21.4805 23.6795 21.5015 23.6893 21.5226 23.7044C21.5435 23.7194 21.5851 23.7538 21.6055 23.8152L21.6074 23.8209L21.6073 23.8209C21.6768 24.0523 21.783 24.156 21.9075 24.2128C22.0482 24.2769 22.2377 24.2933 22.4988 24.29C24.5707 24.2627 26.6424 24.2711 28.7121 24.2796C28.9074 24.2804 29.1026 24.2812 29.2978 24.2819C29.4201 24.2819 29.4888 24.2672 29.5369 24.2419C29.5813 24.2186 29.6306 24.1745 29.6871 24.0683L29.6881 24.0665L29.6881 24.0665C30.7537 22.1149 31.8329 20.1709 32.9255 18.2344C32.9841 18.1303 33.0025 18.0599 33.0026 18.0013C33.0026 17.9429 32.9844 17.8724 32.9256 17.7683L32.9255 17.7681C31.8346 15.8307 30.7555 13.8885 29.6884 11.9414C29.6324 11.8397 29.588 11.7921 29.5463 11.7657C29.5067 11.7407 29.4479 11.7214 29.3358 11.7213C26.9223 11.7332 24.5082 11.7332 22.0936 11.7213L22.0945 11.5213M19.8391 24.7514L30.9637 25.9236C31.534 24.8897 32.1068 23.8564 32.6797 22.8228C33.5046 21.3349 34.3298 19.8464 35.148 18.3551L35.1484 18.3553L35.1541 18.3431C35.2027 18.2383 35.2285 18.1244 35.2298 18.0089C35.231 17.8934 35.2078 17.779 35.1616 17.6732L35.158 17.665L35.1537 17.6571C33.7613 15.1173 32.3567 12.586 30.9401 10.0634L30.9405 10.0632L30.9331 10.0519C30.8732 9.96033 30.7939 9.8831 30.7007 9.82571C30.6075 9.76832 30.5029 9.7322 30.3941 9.71992L30.3833 9.71869L30.3724 9.71865C27.2572 9.70732 24.1419 9.70732 21.0267 9.71865L21.0173 9.71869L21.0079 9.71961C20.905 9.72973 20.8057 9.76253 20.7171 9.81566C20.6285 9.86879 20.5528 9.94092 20.4954 10.0268L20.4901 10.0349L20.4855 10.0434C19.1165 12.5952 17.7543 15.1511 16.3988 17.7111C16.3596 17.7846 16.3355 17.8652 16.328 17.9481C16.3204 18.0311 16.3296 18.1148 16.3549 18.1943L16.3592 18.2078L16.3654 18.2206C16.5234 18.5473 16.6964 18.8696 16.871 19.1949C16.9374 19.3186 17.004 19.4427 17.0701 19.5676L17.1595 19.7367L17.3324 19.6548L18.7806 18.9696L18.9424 18.893L18.8841 18.7237C18.8451 18.6103 18.7939 18.5015 18.7315 18.3991L18.7249 18.3883L18.7169 18.3783C18.6052 18.2386 18.576 18.1233 18.5832 18.0128C18.5911 17.8913 18.6442 17.7535 18.7419 17.5741C19.7629 15.7053 20.7578 13.8215 21.7481 11.938L21.7481 11.938L21.7492 11.9359C21.8006 11.8352 21.8429 11.7897 21.8822 11.7649C21.9207 11.7406 21.9799 11.7213 22.0945 11.7213V11.5213M19.8391 24.7514L19.9143 24.8977M19.8391 24.7514L19.9143 24.8977M22.0945 11.5213C24.5087 11.5332 26.9223 11.5332 29.3353 11.5213L21.5711 11.8449L21.5711 11.8449C21.69 11.6119 21.8227 11.5213 22.0945 11.5213ZM19.9143 24.8977C19.9794 25.0246 20.0433 25.1437 20.1051 25.2589C20.225 25.4824 20.3368 25.691 20.4342 25.9121L20.4351 25.9139C20.4995 26.0562 20.5894 26.1634 20.7172 26.2282C20.8378 26.2893 20.9697 26.3008 21.0922 26.3008L21.0926 26.3008M19.9143 24.8977L21.0926 26.3008M21.0926 26.3008C24.1665 26.2938 27.2404 26.2938 30.3144 26.3008M21.0926 26.3008H30.3144M30.3144 26.3008C30.448 26.3013 30.577 26.2822 30.6943 26.2158M30.3144 26.3008L30.6943 26.2158M30.6943 26.2158C30.8125 26.1488 30.896 26.0467 30.9635 25.924L30.6943 26.2158Z" fill="#704332" stroke="#704332" stroke-width="0.4"/>
<path d="M16.2347 20.1642L16.0425 20.2554L14.6146 20.9325L14.273 21.0945L14.3239 20.7686C14.299 20.7587 14.2746 20.7488 14.2513 20.7393C14.2146 20.7244 14.1805 20.7105 14.1511 20.6993C14.0483 20.6602 13.9682 20.6384 13.898 20.6379L13.8995 20.4379M16.2347 20.1642L14.4885 33.0611C15.0482 32.0412 15.6128 31.0239 16.1774 30.0066C16.6916 29.08 17.2059 28.1534 17.7165 27.2248M16.2347 20.1642L16.1319 19.978C16.0768 19.8782 16.0237 19.7788 15.9712 19.6805C15.8336 19.4229 15.6997 19.1723 15.5429 18.9383L15.5431 18.9382L15.5377 18.9309C15.4742 18.8447 15.3934 18.7727 15.3005 18.7195C15.2076 18.6663 15.1046 18.633 14.9981 18.6218L14.9881 18.6207L14.978 18.6207C11.8767 18.6072 8.77482 18.6072 5.67243 18.6207L5.66231 18.6207L5.65224 18.6218C5.54417 18.6332 5.43991 18.6681 5.34674 18.7241C5.25357 18.78 5.17374 18.8556 5.11284 18.9456L5.10817 18.9525L5.10409 18.9598C3.68586 21.4861 2.27842 24.0186 0.88176 26.5573L0.881506 26.5571L0.876835 26.5668C0.829387 26.6652 0.803301 26.7726 0.800293 26.8818C0.797286 26.991 0.817423 27.0996 0.859384 27.2005L0.863543 27.2105L0.868758 27.22C2.2703 29.7712 3.68452 32.3164 5.11142 34.8557L5.11618 34.8641L5.12174 34.8721C5.1839 34.9612 5.26477 35.0357 5.3587 35.0903C5.45264 35.1449 5.55736 35.1783 5.66556 35.1882L5.67425 35.189L5.68298 35.1891C8.78427 35.202 11.8861 35.202 14.9885 35.1891L14.9974 35.189L15.0062 35.1882C15.1146 35.1781 15.2194 35.1443 15.3133 35.0892C15.4072 35.0341 15.4879 34.9591 15.5496 34.8695L15.5548 34.8619L15.5593 34.8538C16.9817 32.3148 18.3958 29.7713 19.8015 27.2231M16.2347 20.1642L19.8015 27.2231M13.8995 20.4379L13.8983 20.6379C12.6213 20.6301 11.3479 20.6295 10.0739 20.6289C8.96359 20.6284 7.85273 20.6278 6.73833 20.6225C6.61786 20.6226 6.55053 20.6405 6.50331 20.6676C6.4567 20.6943 6.40692 20.7432 6.34748 20.8494C5.2804 22.7996 4.20145 24.7433 3.11063 26.6806M13.8995 20.4379C14.0453 20.439 14.1919 20.4989 14.339 20.559C14.3794 20.5755 14.4199 20.592 14.4604 20.6073L6.18541 33.0741C5.10887 31.113 4.02288 29.1581 2.92746 27.2095C2.7964 26.9765 2.80934 26.8082 2.93636 26.5825C4.02693 24.6457 5.10563 22.7024 6.17247 20.7526C6.31162 20.5034 6.46129 20.4225 6.73879 20.4225C7.85017 20.4278 8.96138 20.4283 10.0725 20.4289C11.3482 20.4295 12.6239 20.4301 13.8995 20.4379ZM3.11063 26.6806L2.93646 26.5825L3.11066 26.6805C3.11065 26.6806 3.11064 26.6806 3.11063 26.6806ZM3.11063 26.6806C3.05546 26.7786 3.03655 26.8444 3.03506 26.8987C3.03362 26.9512 3.04785 27.0155 3.10178 27.1114L3.1018 27.1115C4.19755 29.0607 5.28386 31.0162 6.36073 32.9778L6.36094 32.9782C6.41577 33.0786 6.46081 33.1221 6.50132 33.1453C6.54266 33.169 6.60377 33.1855 6.71814 33.1848L6.71852 33.1848C9.13322 33.1745 11.5479 33.1745 13.9626 33.1848L13.9618 33.3848V33.1848C14.0746 33.1848 14.1343 33.1652 14.174 33.1401C14.2152 33.1141 14.2588 33.0671 14.3119 32.9673L14.3131 32.9649L14.3131 32.9649C14.8718 31.9469 15.4376 30.9274 16.0032 29.9084C16.5168 28.9828 17.0303 28.0577 17.5379 27.1344M17.5379 27.1344C17.5371 27.1363 17.5362 27.1381 17.5354 27.1399L17.7165 27.2248M17.5379 27.1344C17.539 27.1324 17.5401 27.1305 17.5412 27.1285L17.7165 27.2248M17.5379 27.1344C17.6067 26.9847 17.6273 26.8172 17.5968 26.6551L17.5743 26.536L17.6695 26.461L18.9235 25.4724L19.108 25.3269L19.2221 25.5322C19.279 25.6346 19.3363 25.7356 19.3932 25.8358C19.5526 26.1167 19.7087 26.3919 19.8443 26.6759L19.8503 26.6885L19.8545 26.7018C19.8817 26.7878 19.891 26.8785 19.8818 26.9683C19.8727 27.0578 19.8453 27.1445 19.8015 27.2231M17.7165 27.2248C17.8051 27.0357 17.832 26.8234 17.7933 26.6181L19.8017 27.2227C19.8016 27.2229 19.8016 27.223 19.8015 27.2231M14.4691 20.6256L14.5177 20.7282L14.4691 20.6256Z" fill="#704332" stroke="#704332" stroke-width="0.4"/>
</svg>
