<svg width="29" height="29" viewBox="0 0 29 29" fill="none" xmlns="http://www.w3.org/2000/svg">
<path d="M20.7123 7.21071C14.991 7.38728 11.2917 12.0036 11.3913 16.7424C11.4825 21.2989 15.0935 25.733 20.6867 25.9153C20.6867 26.6785 20.7379 27.4531 20.6696 28.2135C20.624 28.7204 20.1313 28.9881 19.4906 28.9881H1.31C0.353131 28.9881 0 28.635 0 27.6724V1.32424C0 0.358827 0.350283 0 1.30146 0H19.4251C20.3506 0 20.7151 0.36737 20.7151 1.28152C20.7151 3.07566 20.7151 4.86979 20.7151 6.66393L20.7123 7.21071ZM12.6871 4.98655L12.5476 5.17451H11.978C9.76807 5.17451 7.55815 5.17451 5.35108 5.17451C4.48674 5.19276 3.66301 5.54482 3.0525 6.15693C2.44198 6.76904 2.09206 7.59368 2.07607 8.45806C2.06468 9.51176 2.06468 10.5645 2.07607 11.6163C2.06924 12.5084 2.41648 13.3667 3.04165 14.0031C3.66681 14.6395 4.51885 15.0019 5.41088 15.0109C5.72687 15.0065 6.04048 15.0663 6.33264 15.1868C6.62481 15.3072 6.88946 15.4858 7.11051 15.7116C7.33157 15.9375 7.50442 16.2059 7.61857 16.5006C7.73273 16.7952 7.7858 17.1101 7.77458 17.4259C7.77458 18.4283 7.77458 19.4194 7.77458 20.4275C7.78093 20.7409 7.7234 21.0524 7.60549 21.3429C7.48758 21.6334 7.31176 21.8968 7.08875 22.1172C6.86574 22.3375 6.6002 22.5102 6.30831 22.6246C6.01642 22.739 5.70429 22.7928 5.39095 22.7827C4.51097 22.7827 3.63099 22.7827 2.75101 22.7827C2.37509 22.7827 2.07607 22.8966 2.09031 23.3209C2.10455 23.7452 2.37509 23.8221 2.74246 23.8193C3.69079 23.8193 4.64197 23.8193 5.59029 23.8193C6.43853 23.7848 7.24189 23.429 7.8374 22.824C8.43291 22.2189 8.77596 21.41 8.79695 20.5613C8.81404 19.4754 8.81404 18.3885 8.79695 17.3006C8.7854 16.4286 8.4362 15.5951 7.82278 14.9753C7.20935 14.3555 6.3795 13.9977 5.50771 13.9772C4.05816 13.9316 3.10983 12.9548 3.10414 11.4939C3.10414 10.5626 3.10414 9.63137 3.10414 8.70013C3.10414 7.18508 4.0781 6.21682 5.60169 6.21397C7.76034 6.21397 9.91805 6.21397 12.0748 6.21397C12.2371 6.21397 12.3995 6.23391 12.5618 6.24245L12.6501 6.37914C12.3226 6.66393 11.9922 6.96865 11.6676 7.27052C11.3999 7.52113 11.2518 7.8173 11.5537 8.12487C11.8555 8.43243 12.1489 8.26441 12.408 8.01095C13.0174 7.40436 13.6212 6.78069 14.2392 6.1798C14.5837 5.8409 14.5724 5.53619 14.2392 5.20584C13.624 4.6021 13.0174 3.98697 12.4109 3.37468C12.1517 3.11553 11.8641 2.96175 11.5565 3.27216C11.2489 3.58257 11.417 3.87875 11.6847 4.12651C12.0093 4.41699 12.351 4.69892 12.6871 4.98655ZM6.22821 8.28719C5.8193 8.28495 5.41891 8.404 5.07766 8.62931C4.73642 8.85462 4.46965 9.17606 4.31109 9.55298C4.15253 9.9299 4.10929 10.3454 4.18686 10.7469C4.26443 11.1484 4.45931 11.5178 4.74686 11.8086C5.0344 12.0993 5.40171 12.2982 5.80232 12.3802C6.20293 12.4622 6.61886 12.4236 6.99751 12.2692C7.37615 12.1148 7.70051 11.8516 7.92957 11.5128C8.15862 11.1741 8.28209 10.775 8.28434 10.3661C8.28698 10.0943 8.23576 9.82463 8.13364 9.57271C8.03152 9.32078 7.88053 9.09157 7.68938 8.8983C7.49822 8.70502 7.27069 8.55152 7.0199 8.44663C6.76912 8.34174 6.50005 8.28756 6.22821 8.28719ZM4.14644 19.539C4.54229 19.969 4.85555 20.3107 5.17166 20.6496C5.43366 20.9344 5.74123 21.1053 6.06019 20.7806C6.37914 20.456 6.19404 20.1797 5.92064 19.9263C5.56182 19.6102 5.19445 19.3026 4.71886 18.8954C5.22008 18.454 5.57321 18.1378 5.93773 17.816C6.20827 17.5683 6.35921 17.2778 6.05164 16.9617C5.74408 16.6456 5.44506 16.8051 5.19729 17.0785C4.86979 17.4487 4.56223 17.836 4.2034 18.2717C3.70788 17.7477 3.37183 17.3803 3.02155 17.0243C2.76809 16.768 2.47192 16.7025 2.20707 16.9845C1.94222 17.2664 2.05614 17.5227 2.29251 17.7562C2.57729 18.041 2.84783 18.3258 3.14685 18.5907C3.36329 18.7871 3.36329 18.9438 3.14685 19.1403C2.86207 19.3937 2.60292 19.67 2.33807 19.9405C2.07322 20.2111 1.93083 20.4788 2.21561 20.7892C2.5004 21.0996 2.81366 20.9686 3.06996 20.7066C3.4174 20.3478 3.72781 19.9889 4.14644 19.539Z" fill="#704332"/>
<path d="M28.9996 16.589C28.9951 17.6787 28.7759 18.7569 28.3545 19.7619C27.933 20.7669 27.3177 21.679 26.5435 22.446C25.7694 23.213 24.8516 23.8199 23.8428 24.232C22.8339 24.6441 21.7538 24.8533 20.664 24.8477C16.173 24.8477 12.4053 21.0914 12.4281 16.6459C12.4181 15.5426 12.6285 14.4484 13.047 13.4275C13.4654 12.4065 14.0834 11.4794 14.8648 10.7004C15.6462 9.92139 16.5752 9.30621 17.5974 8.89091C18.6197 8.47561 19.7145 8.26854 20.8178 8.28185C25.306 8.29609 29.0053 12.0524 28.9996 16.589ZM18.6449 13.9747C18.6268 13.426 18.8274 12.8925 19.2025 12.4917C19.5777 12.0909 20.0968 11.8555 20.6455 11.8374C21.1942 11.8192 21.7277 12.0198 22.1285 12.395C22.5293 12.7702 22.7647 13.2893 22.7828 13.838C22.8141 14.2139 22.9337 14.5072 23.3524 14.4787C23.771 14.4503 23.8621 14.1228 23.8279 13.7611C23.7254 12.6476 23.2157 11.7334 22.199 11.2949C21.4699 10.9816 21.0912 10.6427 21.2108 9.81968C21.2307 9.68014 20.8719 9.33555 20.7466 9.36403C20.63 9.40703 20.5233 9.47306 20.4328 9.5582C20.3422 9.64333 20.2698 9.74582 20.2197 9.85955C20.1596 10.0806 20.1518 10.3127 20.197 10.5373C20.2094 10.5906 20.2106 10.6459 20.2005 10.6996C20.1905 10.7534 20.1694 10.8045 20.1387 10.8497C20.1079 10.895 20.0681 10.9333 20.0218 10.9624C19.9754 10.9915 19.9236 11.0106 19.8695 11.0186C18.3174 11.5255 17.4089 12.9267 17.6282 14.436C17.8475 15.9454 19.1005 17.0361 20.7608 17.1073C21.1771 17.1206 21.5799 17.2578 21.9178 17.5013C22.2557 17.7448 22.5132 18.0836 22.6575 18.4742C22.8011 18.8477 22.8291 19.2558 22.7376 19.6454C22.6462 20.0349 22.4397 20.388 22.1449 20.6585C21.882 20.9385 21.5413 21.1333 21.1666 21.2175C20.7919 21.3018 20.4006 21.2718 20.0432 21.1313C19.652 21.0087 19.3081 20.7684 19.0584 20.4433C18.8087 20.1182 18.6653 19.7239 18.6477 19.3144C18.6136 18.9384 18.4968 18.6423 18.0782 18.6793C17.6595 18.7163 17.5713 19.0353 17.6083 19.4055C17.7136 20.4934 18.2092 21.399 19.1945 21.8461C19.8979 22.1736 20.3678 22.4755 20.2254 23.344C20.2027 23.475 20.5672 23.8225 20.6982 23.7968C20.9282 23.703 21.1116 23.5217 21.2079 23.2928C21.2617 23.0928 21.2665 22.8828 21.2222 22.6805C21.2072 22.619 21.2056 22.555 21.2173 22.4928C21.2291 22.4307 21.254 22.3717 21.2904 22.3199C21.3268 22.2682 21.3739 22.2248 21.4284 22.1926C21.4829 22.1605 21.5437 22.1404 21.6066 22.1337C22.2817 21.9549 22.8675 21.5343 23.2527 20.9519C23.5785 20.5118 23.7756 19.9897 23.8219 19.4441C23.8681 18.8984 23.7618 18.3506 23.5147 17.862C23.2787 17.3288 22.8927 16.8758 22.4037 16.5583C21.9147 16.2407 21.3439 16.0723 20.7608 16.0735C19.5306 15.9995 18.6363 15.1309 18.6449 13.9747Z" fill="#704332"/>
</svg>
