<svg width="33" height="33" viewBox="0 0 33 33" fill="none" xmlns="http://www.w3.org/2000/svg">
<path d="M26.8215 11.032C26.7611 10.3634 26.6969 9.69558 26.6291 9.02841C26.57 8.45626 26.5069 7.88412 26.4255 7.314C26.3821 6.99072 26.3202 6.67018 26.2402 6.35398C26.2079 6.22539 26.1421 6.10767 26.0495 6.01286C25.9568 5.91805 25.8406 5.84957 25.7128 5.81441C25.5516 5.7617 25.3865 5.72154 25.2191 5.69427C24.8261 5.63319 24.4301 5.58331 24.0361 5.5324C23.8437 5.50797 23.6512 5.48863 23.4578 5.46725C23.4039 5.68827 23.396 5.91799 23.4344 6.14222C23.4924 6.63903 23.5637 7.13483 23.6258 7.63062C23.6278 7.66701 23.638 7.70248 23.6556 7.73439C23.6733 7.76629 23.6979 7.79381 23.7276 7.81489C24.2089 8.17282 24.5503 8.68739 24.693 9.26996C24.8357 9.85253 24.7708 10.4666 24.5095 11.0065C24.0737 11.8881 23.353 12.3829 22.3715 12.4633C21.9693 12.5066 21.5626 12.45 21.1875 12.2988C20.8123 12.1475 20.4801 11.9061 20.2204 11.596C19.8488 11.1705 19.6231 10.6374 19.5762 10.0745C19.5293 9.51163 19.6637 8.9485 19.9598 8.46746C19.9807 8.43471 19.991 8.39632 19.9893 8.35751C19.9679 8.19157 19.9333 8.02868 19.9129 7.86274C19.8447 7.32317 19.7653 6.7836 19.7195 6.24199C19.691 5.90094 19.7144 5.55582 19.7144 5.19543C19.6452 5.19543 19.5739 5.18423 19.5027 5.18219C18.7198 5.15979 17.9359 5.12925 17.153 5.11907C16.3625 5.09513 15.5712 5.11553 14.7829 5.18016C14.6215 5.1918 14.47 5.26247 14.3574 5.37868C9.81483 9.926 5.26988 14.4733 0.722553 19.0206C0.676741 19.0665 0.62991 19.1113 0.586134 19.1591C0.363027 19.3967 0.196504 19.6816 0.0990142 19.9926C0.0015244 20.3036 -0.0244107 20.6325 0.0231478 20.955C0.0902016 21.4484 0.323648 21.9041 0.684885 22.2469C3.73023 25.2902 6.77457 28.3342 9.81788 31.3789C9.84435 31.4053 9.87082 31.4318 9.89831 31.4572C10.2727 31.8177 10.7657 32.0294 11.2849 32.0528C11.6021 32.0729 11.9198 32.0231 12.2157 31.907C12.5116 31.7909 12.7784 31.6113 12.9973 31.3809C17.569 26.8051 22.1442 22.2302 26.7227 17.6565C26.8271 17.5656 26.8987 17.4429 26.9263 17.3073C26.9742 16.9856 27.0281 16.6628 27.0495 16.3381C27.1188 15.1307 27.0373 13.9263 26.9609 12.7219C26.9202 12.1579 26.8714 11.5949 26.8215 11.032Z" fill="#704332"/>
<path d="M31.0841 2.73376C29.9052 0.746511 27.7113 -0.298016 25.4359 0.074593C23.7928 0.344378 22.4978 1.19446 21.5673 2.56374C20.7473 3.75172 20.4219 5.21227 20.6602 6.63597C20.8353 7.79351 21.0501 8.94391 21.2598 10.0974C21.2811 10.2229 21.3277 10.3429 21.3968 10.4498C21.4659 10.5568 21.5561 10.6486 21.6618 10.7195C21.7675 10.7905 21.8866 10.8392 22.0118 10.8626C22.137 10.8861 22.2656 10.8837 22.3899 10.8558C22.5145 10.828 22.6323 10.7755 22.7364 10.7015C22.8405 10.6274 22.9287 10.5334 22.996 10.4248C23.0632 10.3162 23.1081 10.1953 23.1279 10.0691C23.1478 9.94299 23.1423 9.81414 23.1117 9.69015C22.9966 9.14549 22.8877 8.59777 22.7961 8.04802C22.7106 7.53899 22.6474 7.01775 22.5833 6.50057C22.508 6.02539 22.508 5.54131 22.5833 5.06613C22.8144 3.85871 23.4599 2.94653 24.5349 2.35301C25.3219 1.9183 26.1689 1.81445 27.0485 1.96614C27.4926 2.03494 27.9184 2.19155 28.3012 2.42683C28.6841 2.66212 29.0161 2.97135 29.2781 3.33645C29.8482 4.11221 30.0844 5.00199 30.1098 5.9498C30.1344 7.085 30.025 8.21914 29.784 9.32874C29.4714 10.8774 28.9245 12.3694 28.1623 13.7532C28.0325 13.9702 27.9943 14.2298 28.056 14.4749C28.1176 14.7201 28.2741 14.9307 28.4911 15.0604C28.708 15.1901 28.9676 15.2284 29.2128 15.1667C29.4579 15.105 29.6685 14.9485 29.7983 14.7316C29.8909 14.586 29.9703 14.4312 30.0497 14.2765C30.8201 12.7548 31.3729 11.1325 31.6919 9.45701C31.8838 8.47301 31.9911 7.47438 32.0126 6.47207C32.035 5.05391 31.7448 3.8465 31.0841 2.73376Z" fill="#704332"/>
</svg>
