<svg width="35" height="24" viewBox="0 0 35 24" fill="none" xmlns="http://www.w3.org/2000/svg">
<path d="M24.9771 23.1537H17.077C15.7012 23.1537 15.0312 22.4889 15.0312 21.108C15.0312 20.3851 15.0312 19.6623 15.0312 18.9378C15.0398 17.6353 15.7132 16.9636 17.0276 16.9551C18.2516 16.9551 19.4757 16.9551 20.6997 16.9551H32.7731C34.3756 16.9551 34.9894 17.5773 34.9894 19.1713V20.9528C34.9894 22.5383 34.3637 23.1554 32.7561 23.1554L24.9771 23.1537Z" fill="#704332"/>
<path d="M24.9839 0H32.9402C34.304 0 34.9962 0.681921 34.9979 2.04576C34.9979 2.78735 34.9979 3.52894 34.9979 4.27053C34.9979 5.45366 34.2972 6.17479 33.1022 6.19184C31.7673 6.2123 30.4324 6.19184 29.0976 6.19184H17.1895C15.6552 6.19184 15.033 5.57641 15.0312 4.03697C15.0312 3.33289 15.0312 2.6271 15.0312 1.92302C15.0466 0.697264 15.749 0 16.9713 0C19.6433 0 22.3142 0 24.9839 0Z" fill="#704332"/>
<path d="M24.9941 14.6769H17.0941C15.7046 14.6769 15.0483 14.0189 15.0312 12.6465C15.0312 11.9237 15.0312 11.2003 15.0312 10.4763C15.0398 9.13973 15.7132 8.47997 17.0668 8.47656C19.1455 8.47656 21.2225 8.47656 23.2978 8.47656H32.8686C34.3398 8.47656 34.9945 9.13803 34.9962 10.6195C34.9962 11.3236 34.9962 12.0277 34.9962 12.7335C34.9962 13.9456 34.2768 14.6718 33.0612 14.6752C30.3728 14.682 27.6826 14.6769 24.9941 14.6769Z" fill="#704332"/>
<path d="M6.23296 3.11638C6.22536 3.93024 5.89775 4.70841 5.32096 5.28264C4.74418 5.85687 3.96457 6.18103 3.15068 6.18503C2.32727 6.17558 1.54103 5.8408 0.963559 5.25375C0.386091 4.6667 0.064292 3.87506 0.0683982 3.0516C0.084925 2.23563 0.421059 1.45875 1.0045 0.888067C1.58793 0.317383 2.37205 -0.00150215 3.18819 5.32049e-06C4.00422 0.0125776 4.7822 0.347214 5.35255 0.930973C5.92289 1.51473 6.23936 2.30028 6.23296 3.11638Z" fill="#704332"/>
<path d="M6.23029 20.1291C6.20929 20.9439 5.86847 21.7178 5.28149 22.2834C4.69451 22.849 3.90854 23.1609 3.09345 23.1517C2.27281 23.1395 1.49064 22.8018 0.918992 22.2128C0.347346 21.6239 0.0330568 20.8321 0.0452647 20.0114C0.0574725 19.1908 0.395177 18.4086 0.984087 17.837C1.573 17.2653 2.36487 16.951 3.18551 16.9632C3.59424 16.9681 3.99793 17.0541 4.37308 17.2164C4.74823 17.3788 5.08735 17.6141 5.3707 17.9087C5.65405 18.2033 5.87597 18.5513 6.02354 18.9325C6.17112 19.3137 6.24139 19.7204 6.23029 20.1291Z" fill="#704332"/>
<path d="M6.23284 11.5598C6.23522 12.3752 5.91693 13.1587 5.34665 13.7414C4.77638 14.3242 3.99985 14.6593 3.18466 14.6745C2.77207 14.6861 2.36133 14.6151 1.97656 14.4657C1.59179 14.3164 1.24076 14.0916 0.944078 13.8046C0.647398 13.5177 0.411058 13.1743 0.248941 12.7948C0.0868243 12.4152 0.00220094 12.007 4.23649e-05 11.5943C-0.00211621 11.1816 0.0782335 10.7725 0.236371 10.3913C0.394509 10.01 0.627245 9.66423 0.920907 9.37419C1.21457 9.08415 1.56323 8.85573 1.94642 8.70233C2.32961 8.54894 2.73958 8.47367 3.15227 8.48095C3.96775 8.48498 4.74871 8.8106 5.32551 9.38708C5.90231 9.96356 6.22836 10.7443 6.23284 11.5598Z" fill="#704332"/>
<path d="M13.7349 3.11638C13.7273 3.93024 13.3997 4.70841 12.8229 5.28264C12.2461 5.85687 11.4665 6.18103 10.6526 6.18503C9.82922 6.17558 9.04298 5.8408 8.46551 5.25375C7.88804 4.6667 7.56625 3.87506 7.57035 3.0516C7.58688 2.23563 7.92301 1.45875 8.50645 0.888067C9.08988 0.317383 9.87401 -0.00150215 10.6901 5.32049e-06C11.5062 0.0125776 12.2842 0.347214 12.8545 0.930973C13.4248 1.51473 13.7413 2.30028 13.7349 3.11638Z" fill="#704332"/>
<path d="M13.7342 20.1291C13.7132 20.9439 13.3724 21.7178 12.7854 22.2834C12.1984 22.849 11.4124 23.1609 10.5974 23.1517C9.77672 23.1395 8.99454 22.8018 8.4229 22.2128C7.85125 21.6239 7.53696 20.8321 7.54917 20.0114C7.56138 19.1908 7.89908 18.4086 8.48799 17.837C9.0769 17.2653 9.86878 16.951 10.6894 16.9632C11.0981 16.9681 11.5018 17.0541 11.877 17.2164C12.2521 17.3788 12.5913 17.6141 12.8746 17.9087C13.158 18.2033 13.3799 18.5513 13.5274 18.9325C13.675 19.3137 13.7453 19.7204 13.7342 20.1291Z" fill="#704332"/>
<path d="M13.7348 11.5598C13.7372 12.3752 13.4189 13.1587 12.8486 13.7414C12.2783 14.3242 11.5018 14.6593 10.6866 14.6745C10.274 14.6861 9.86328 14.6151 9.47851 14.4657C9.09375 14.3164 8.74271 14.0916 8.44603 13.8046C8.14935 13.5177 7.91301 13.1743 7.75089 12.7948C7.58878 12.4152 7.50415 12.007 7.502 11.5943C7.49984 11.1816 7.58019 10.7725 7.73832 10.3913C7.89646 10.01 8.1292 9.66423 8.42286 9.37419C8.71652 9.08415 9.06519 8.85573 9.44837 8.70233C9.83156 8.54894 10.2415 8.47367 10.6542 8.48095C11.4697 8.48498 12.2507 8.8106 12.8275 9.38708C13.4043 9.96356 13.7303 10.7443 13.7348 11.5598Z" fill="#704332"/>
</svg>
