<svg width="40" height="31" viewBox="0 0 40 31" fill="none" xmlns="http://www.w3.org/2000/svg">
<path d="M23.8538 24.2055H3.1736C1.63088 24.2029 0.46152 23.3369 0.103712 21.9446C0.0355868 21.6856 0.000735405 21.419 0 21.1512C0 15.129 0 9.10589 0 3.08194C0 1.29809 1.30937 0.00168449 3.11137 0.00168449H36.1282C36.5382 -0.0120793 36.9467 0.0586234 37.3282 0.2094C37.7098 0.360176 38.0562 0.587804 38.3461 0.87814C38.6359 1.16848 38.863 1.51532 39.0131 1.89711C39.1632 2.27891 39.2332 2.6875 39.2188 3.0975C39.2188 9.09725 39.2188 15.0961 39.2188 21.0942C39.2297 21.5035 39.158 21.9107 39.0078 22.2916C38.8577 22.6726 38.6323 23.0193 38.345 23.311C38.2854 23.3641 38.2212 23.4118 38.1532 23.4536C37.855 21.2083 36.7893 19.4477 34.9173 18.2136C33.6181 17.3616 32.0747 16.9607 30.5251 17.0727C27.6678 17.2283 24.0405 19.5903 23.8538 24.2055ZM32.5968 11.4645H35.0781C35.6485 11.4645 35.8974 11.2234 35.9 10.6633C35.9 9.74372 35.9 8.82328 35.9 7.90197C35.9 7.36007 35.6407 7.10857 35.1014 7.10857C33.4144 7.10857 31.7247 7.10857 30.0325 7.10857C29.5139 7.10857 29.2546 7.36785 29.2546 7.88641C29.2546 8.81982 29.2546 9.75237 29.2546 10.684C29.2546 11.2311 29.4984 11.4619 30.0454 11.4619C30.8933 11.4671 31.7463 11.4645 32.5968 11.4645V11.4645ZM5.34896 4.95654C5.94531 4.95654 6.53906 4.95654 7.1354 4.95654C7.23518 4.96829 7.33631 4.9575 7.43136 4.92497C7.52641 4.89244 7.61295 4.83901 7.6846 4.7686C7.75626 4.69819 7.8112 4.61259 7.84539 4.51813C7.87957 4.42367 7.89213 4.32274 7.88213 4.22277C7.8951 3.7794 7.88213 3.33603 7.88213 2.89266C7.89202 2.7893 7.87845 2.68505 7.84243 2.58767C7.8064 2.49028 7.74885 2.40229 7.67407 2.33026C7.5993 2.25822 7.50922 2.204 7.41056 2.17163C7.3119 2.13927 7.20721 2.1296 7.10429 2.14334C5.93753 2.14334 4.77076 2.14334 3.604 2.14334C3.50429 2.13299 3.40353 2.14484 3.30894 2.17804C3.21435 2.21123 3.12827 2.26495 3.0569 2.33533C2.98552 2.40572 2.9306 2.49103 2.89609 2.58515C2.86158 2.67927 2.84832 2.77986 2.85727 2.8797C2.85727 3.32048 2.85727 3.76385 2.85727 4.20722C2.84545 4.30689 2.8562 4.40794 2.88874 4.50289C2.92128 4.59783 2.97476 4.68424 3.04524 4.75571C3.11571 4.82718 3.20136 4.88187 3.29584 4.91574C3.39032 4.9496 3.49121 4.96178 3.59104 4.95135C4.1822 4.96172 4.76558 4.95654 5.34896 4.95654ZM19.1997 15.6778C19.9776 15.6778 20.7839 15.6778 21.5747 15.6778C22.0207 15.6778 22.2722 15.4704 22.2722 15.1229C22.2722 14.7755 22.0129 14.5551 21.5825 14.5551C19.9975 14.5551 18.4141 14.5551 16.8325 14.5551C16.4021 14.5551 16.1299 14.7781 16.1273 15.1177C16.1247 15.4574 16.3865 15.6804 16.8247 15.683L19.1997 15.6778ZM26.1536 15.6778H28.5701C28.7035 15.6983 28.8399 15.6718 28.9558 15.6027C29.0717 15.5336 29.16 15.4263 29.2054 15.2992C29.348 14.8922 29.0602 14.5551 28.552 14.5525C26.9652 14.5525 25.3775 14.5525 23.789 14.5525C23.3586 14.5525 23.0967 14.7807 23.1019 15.1255C23.1071 15.4704 23.3612 15.6726 23.8072 15.6752C24.5902 15.6804 25.3706 15.6778 26.1536 15.6778ZM5.35674 15.6778C6.18644 15.6778 7.01614 15.6985 7.84324 15.6622C7.95167 15.6471 8.05554 15.6086 8.14773 15.5495C8.23992 15.4905 8.31825 15.4122 8.37736 15.32C8.40794 15.2253 8.41494 15.1245 8.39777 15.0265C8.38061 14.9284 8.33978 14.836 8.27883 14.7573C8.12248 14.6255 7.92327 14.5554 7.71879 14.5603C6.1631 14.5447 4.58927 14.5603 3.02581 14.5603C2.56429 14.5603 2.29723 14.7755 2.30501 15.1333C2.31278 15.4911 2.56429 15.683 3.01284 15.683L5.35674 15.6778ZM12.2406 15.6778C13.047 15.6778 13.8508 15.6934 14.6571 15.6778C14.8602 15.6694 15.0519 15.582 15.1913 15.4341C15.2359 15.3509 15.2631 15.2594 15.2711 15.1654C15.2792 15.0713 15.2679 14.9765 15.2379 14.887C15.155 14.6277 14.9009 14.5629 14.6364 14.5629C13.0366 14.5629 11.4395 14.5629 9.8397 14.5629C9.42745 14.5629 9.17335 14.7859 9.16817 15.1177C9.16298 15.4496 9.42745 15.683 9.86044 15.6856L12.2406 15.6778ZM13.0937 18.3251C13.6304 18.3251 14.1671 18.3251 14.7012 18.3251C14.78 18.332 14.8594 18.3222 14.9342 18.2964C15.009 18.2706 15.0775 18.2293 15.1352 18.1753C15.1929 18.1212 15.2386 18.0556 15.2693 17.9826C15.2999 17.9097 15.3149 17.8311 15.3131 17.752C15.3095 17.6756 15.2906 17.6007 15.2576 17.5316C15.2246 17.4626 15.178 17.4009 15.1208 17.3501C15.0635 17.2994 14.9966 17.2606 14.9241 17.2361C14.8516 17.2116 14.7749 17.2019 14.6986 17.2076C13.6382 17.2076 12.5777 17.2076 11.5172 17.2076C11.4395 17.2 11.3611 17.2089 11.287 17.2335C11.2129 17.2581 11.1447 17.2979 11.0869 17.3504C11.0291 17.4029 10.9829 17.4669 10.9513 17.5383C10.9197 17.6097 10.9034 17.6869 10.9034 17.765C10.9034 17.8431 10.9197 17.9203 10.9513 17.9917C10.9829 18.0631 11.0291 18.1271 11.0869 18.1796C11.1447 18.2321 11.2129 18.2719 11.287 18.2965C11.3611 18.3211 11.4395 18.33 11.5172 18.3225C12.0436 18.3302 12.5699 18.3251 13.0937 18.3251ZM19.3164 18.3251C19.835 18.3251 20.3535 18.3251 20.8539 18.3251C21.2506 18.3251 21.4944 18.1202 21.5073 17.8065C21.5101 17.7242 21.4951 17.6422 21.4633 17.5662C21.4316 17.4902 21.3838 17.422 21.3232 17.3661C21.2627 17.3102 21.1908 17.2681 21.1125 17.2425C21.0342 17.2169 20.9513 17.2086 20.8695 17.2179C19.822 17.2179 18.7737 17.2179 17.7244 17.2179C17.6454 17.21 17.5656 17.2188 17.4903 17.2439C17.4149 17.269 17.3458 17.3098 17.2873 17.3635C17.2289 17.4173 17.1824 17.4828 17.1511 17.5557C17.1198 17.6287 17.1042 17.7075 17.1055 17.7869C17.1068 17.8663 17.1249 17.9445 17.1586 18.0164C17.1923 18.0883 17.2408 18.1523 17.301 18.2041C17.3611 18.2559 17.4316 18.2944 17.5077 18.317C17.5838 18.3397 17.6639 18.3459 17.7426 18.3354C18.2585 18.3302 18.7823 18.3251 19.3086 18.3276L19.3164 18.3251Z" fill="#704332"/>
<path d="M35.1717 20.4557L31.1658 25.6414L28.2619 22.6519L26.7918 24.2257L31.2877 27.9723L36.3774 22.2992C37.7023 24.0105 36.7663 27.7441 34.6117 29.4294C33.3511 30.3862 31.7646 30.8084 30.1952 30.6047C28.6258 30.401 27.1997 29.5879 26.2251 28.3411C25.2504 27.0943 24.8057 25.514 24.9869 23.9418C25.1682 22.3697 25.9609 20.9321 27.1937 19.9398C29.9343 17.7955 33.4838 18.563 35.1717 20.4557Z" fill="#704332"/>
</svg>
