<svg id="Tables" xmlns="http://www.w3.org/2000/svg" width="50" height="50" viewBox="0 0 50 50">
  <rect id="Rectangle_97" data-name="Rectangle 97" width="50" height="50" fill="none"/>
  <g id="Group_133" data-name="Group 133" transform="translate(3.75 12.5)">
    <path id="Path_53" data-name="Path 53" d="M738.167,913.257h-2.735c-.05.661-.089,1.305-.148,1.948a20.65,20.65,0,0,1-1.206,5.042,1.341,1.341,0,1,1-2.508-.95,20.439,20.439,0,0,0,.918-10.521c-.106-.714-.246-1.422-.376-2.166-1.091,0-2.147.005-3.2,0a2.74,2.74,0,0,1-1.877-.664,2.615,2.615,0,0,1-.746-2.921,2.652,2.652,0,0,1,2.559-1.745q6.121-.011,12.243,0c1.164,0,2.328-.005,3.491,0a2.667,2.667,0,1,1,.006,5.331c-.907.008-1.814.009-2.721-.005-.274,0-.378.068-.44.36a25.005,25.005,0,0,0-.515,7.651,18.4,18.4,0,0,0,1.095,4.652,1.342,1.342,0,1,1-2.515.926,20.955,20.955,0,0,1-1.123-4.878C738.29,914.641,738.235,913.966,738.167,913.257Zm-3.232-6.621c.149,1.268.291,2.508.451,3.747a.317.317,0,0,0,.236.194c.842.014,1.686.009,2.509.009.216-1.349.423-2.647.631-3.95Z" transform="translate(-715.54 -897.258)" fill="#fff"/>
    <path id="Path_54" data-name="Path 54" d="M698.309,900.848h7.823c0,.814,0,1.595,0,2.376q0,4.081,0,8.161a1.207,1.207,0,0,1-1.039,1.368,1.263,1.263,0,0,1-1.6-1.3c-.009-1.6-.005-3.2-.006-4.807v-.492h-1.118c-1.481,0-2.962,0-4.443-.013-.311,0-.431.1-.535.4-.64,1.8-1.3,3.593-1.974,5.383a1.28,1.28,0,0,1-2.4-.884c.3-.773.636-1.531.919-2.309a24.2,24.2,0,0,0,1.562-8.179,20.589,20.589,0,0,0-2.346-9.528,1.969,1.969,0,0,1-.225-.985,1.172,1.172,0,0,1,.884-1.078,1.566,1.566,0,0,1,1.611.677,21.314,21.314,0,0,1,2.429,6.824C698.076,897.888,698.157,899.337,698.309,900.848Z" transform="translate(-692.914 -888.852)" fill="#fff"/>
    <path id="Path_55" data-name="Path 55" d="M787.12,905.965v3.822c0,.529.013,1.058-.005,1.586a1.253,1.253,0,0,1-1.346,1.233,1.23,1.23,0,0,1-1.285-1.242c-.008-3.52,0-7.041,0-10.561a.782.782,0,0,1,.034-.134h7.947c0-.736-.032-1.427.006-2.115a20.9,20.9,0,0,1,2.71-9.1,1.35,1.35,0,0,1,1.459-.768,1.373,1.373,0,0,1,1.107,1.057,1.681,1.681,0,0,1-.187.894,22.593,22.593,0,0,0-2.107,5.75,20.181,20.181,0,0,0-.028,7.648,29.138,29.138,0,0,0,2.12,6.7,1.224,1.224,0,0,1-.569,1.714,1.29,1.29,0,0,1-1.772-.689c-.69-1.8-1.334-3.613-2.012-5.416-.056-.149-.227-.361-.347-.362C790.96,905.958,789.072,905.965,787.12,905.965Z" transform="translate(-755.316 -888.663)" fill="#fff"/>
  </g>
</svg>
