<svg id="Take_Out" data-name="Take Out" xmlns="http://www.w3.org/2000/svg" width="50" height="50" viewBox="0 0 50 50">
  <rect id="Rectangle_17710" data-name="Rectangle 17710" width="50" height="50" fill="none"/>
  <g id="Group_15146" data-name="Group 15146" transform="translate(12 7)">
    <path id="Path_16761" data-name="Path 16761" d="M281.408,72.206c0,1.145-.017,2.26,0,3.375a1.957,1.957,0,0,0,1.765,2.057,1.893,1.893,0,0,0,2.137-1.9c.017-.591.007-1.181.007-1.772V72.213h9.033c0,1.135-.007,2.233,0,3.332a1.913,1.913,0,0,0,1.878,2.11,1.981,1.981,0,0,0,2.024-2.064c.027-1.118.007-2.237.007-3.361a21.655,21.655,0,0,1,2.233.017c.647.07,1.032.674,1.072,1.443q.179,3.509.355,7.022.264,5.435.518,10.868a1.419,1.419,0,0,1-1.6,1.679q-10.975.01-21.954,0a1.355,1.355,0,0,1-1.536-1.586q.343-6.655.71-13.307.129-2.444.262-4.881a1.2,1.2,0,0,1,1.2-1.274C280.127,72.166,280.737,72.206,281.408,72.206Z" transform="translate(-277.349 -56.921)" fill="#fff"/>
    <path id="Path_16762" data-name="Path 16762" d="M297.51,33.82a28.378,28.378,0,0,1,.173-3.282,5.274,5.274,0,0,1,4.676-4.32,5.381,5.381,0,0,1,5.283,2.91c.345.664.753,1.294,1.088,1.964a12.862,12.862,0,0,1,.879,2,1.746,1.746,0,0,1-.9,2.177.825.825,0,0,0-.488.913,3.2,3.2,0,0,1-.723,2.329.991.991,0,0,1-1.536.282,1.205,1.205,0,0,0-1.394-.046,1.586,1.586,0,0,1-1.261.037,3.444,3.444,0,0,0-2.256-.179,3.455,3.455,0,0,1-2.558-.538,1.847,1.847,0,0,1-.936-1.732c.017-.833,0-1.669,0-2.505C297.543,33.823,297.527,33.823,297.51,33.82Z" transform="translate(-290.82 -26.177)" fill="#fff"/>
    <path id="Path_16763" data-name="Path 16763" d="M332.348,58.94a5.341,5.341,0,0,1,.956,2.927c.043,1.589.01,3.179.02,4.768,0,.441-.179.737-.624.723-.428-.013-.617-.289-.611-.74q.025-2.046,0-4.095a3.556,3.556,0,0,0-.139-1.324C331.592,60.364,331.97,59.716,332.348,58.94Z" transform="translate(-313.735 -48.068)" fill="#fff"/>
    <path id="Path_16764" data-name="Path 16764" d="M294.277,60.76c.352.322.617.544.853.793a.547.547,0,0,1,.119.375c-.086,1.251-.206,2.5-.275,3.75-.04.71-.007,1.427-.01,2.14,0,.421-.163.723-.634.72s-.627-.319-.621-.733c.023-1.709.017-3.421.1-5.13A10.006,10.006,0,0,1,294.277,60.76Z" transform="translate(-288.28 -49.284)" fill="#fff"/>
  </g>
</svg>
