<svg width="37" height="34" viewBox="0 0 37 34" fill="none" xmlns="http://www.w3.org/2000/svg">
<path d="M0.00692041 6.68005C0.361591 5.98801 0.6782 5.28386 1.07958 4.62642C1.74913 3.53126 2.45156 3.39113 3.64533 3.9067C4.23607 4.1727 4.86808 4.33538 5.51384 4.38767C6.56055 4.44995 7.07093 3.88594 7.12975 2.83057C7.14705 2.48455 7.12975 2.13853 7.15917 1.79251C7.17635 1.56262 7.22287 1.33587 7.29757 1.11777C7.6384 0.143723 8.83045 -0.190187 10.8322 0.102201C11.6678 0.223308 12.173 0.783861 12.2543 1.69217C12.2765 1.89263 12.2823 2.09457 12.2716 2.29597C12.0761 4.63334 13.6851 4.8323 15.4221 4.11604C16.4273 3.70254 17.2457 3.31154 18.1592 4.23023C18.3512 4.424 18.8045 4.40324 19.1384 4.40324C23 4.41362 26.8598 4.40324 30.7197 4.41189C31.9308 4.41189 31.9792 4.47071 31.981 5.6887V22.5434C31.981 23.7406 31.9377 23.789 30.7854 23.789C22.3449 23.789 13.9031 23.789 5.46021 23.789C4.33391 23.789 4.23702 23.6922 4.23356 22.5555C4.23356 20.6005 4.23356 18.6472 4.23356 16.7164C4.10553 16.6731 4.04325 16.6281 4.00519 16.642C2.08304 17.3946 1.7474 17.2735 0.698962 15.4672C0.470588 15.0745 0.237024 14.6835 0.00692041 14.2925V13.4275C0.593425 12.9517 1.14706 12.4205 1.77509 12.0088C3.15917 11.097 3.18512 9.62815 1.7301 8.81154C0.955017 8.37728 0.346021 7.85306 0 7.02607L0.00692041 6.68005ZM6.91695 16.8496L6.57093 16.8894C6.57093 18.1541 6.57093 19.4188 6.57093 20.6835C6.57093 21.2475 6.86678 21.424 7.39273 21.424C14.5438 21.4171 21.6909 21.4171 28.8339 21.424C29.4429 21.424 29.6384 21.1731 29.6367 20.5953C29.6251 16.2723 29.6251 11.9471 29.6367 7.6195C29.6367 6.89285 29.2906 6.75445 28.6765 6.76483C25.7941 6.78213 22.9135 6.76483 20.0259 6.77521C19.8287 6.77521 19.6315 6.80981 19.4325 6.82884C19.1488 7.42919 18.8079 7.98628 18.3131 8.31154C16.0104 9.82711 15.9948 10.8583 18.327 12.3721C19.3028 13.007 19.5605 13.7562 19.1055 14.8046C18.862 15.358 18.5762 15.8919 18.2509 16.4015C17.7145 17.2562 16.9412 17.469 16.0017 17.0451C15.6367 16.8721 15.3097 16.6454 14.9429 16.4655C13.6384 15.8063 12.3875 16.4915 12.2682 17.9344C12.2387 18.3081 12.3235 18.7043 12.2249 19.0537C12.1003 19.5018 11.936 20.007 11.6211 20.3185C11.0052 20.9257 8.33391 20.9586 7.79065 20.3029C7.39792 19.8236 7.29584 19.0918 7.13321 18.443C7.03174 17.9163 6.95954 17.3843 6.91695 16.8496ZM6.38927 10.3807C6.58996 11.1057 6.62802 11.9378 7.02595 12.5364C7.93771 13.9032 9.90138 14.2423 11.3616 13.4499C12.0791 13.0665 12.6378 12.4415 12.9386 11.6856C13.2394 10.9298 13.263 10.0918 13.0052 9.32019C12.4446 7.63853 10.8408 6.69216 9.06055 6.99493C7.40138 7.2804 6.56574 8.39804 6.38927 10.3807Z" fill="#704332"/>
<path d="M26.326 31.3577L26.2446 32.9147H9.72217C9.72217 31.1068 9.70487 29.3317 9.74812 27.5514C9.74812 27.368 10.0941 27.1258 10.3173 27.0324C10.5405 26.939 10.8796 26.9701 11.2689 26.939C11.2689 26.4286 11.2862 25.9459 11.2689 25.4649C11.2481 25.0134 11.4419 24.8577 11.8796 24.8594C16.0319 24.8675 20.1795 24.8675 24.3225 24.8594C24.7775 24.8594 24.9471 25.0324 24.9125 25.477C24.8433 26.3525 24.8035 27.2071 26.0941 27.1362C26.1893 27.1362 26.2983 27.3663 26.3502 27.4286C26.6011 27.0341 26.7879 26.4494 27.1858 26.1985C27.5837 25.9476 28.2239 25.9372 28.7533 25.9303C30.8294 25.9026 32.9055 25.9148 34.9817 25.9199C36.3813 25.9199 36.9194 26.5307 36.8848 27.9476C36.8502 29.1846 36.8848 30.4234 36.8675 31.6622C36.8536 32.5445 36.4436 33.0462 35.5699 33.0583C32.9528 33.0987 30.3346 33.0987 27.7152 33.0583C26.627 33.0445 26.5353 32.1483 26.326 31.3577ZM31.646 32.1795C32.8277 32.1795 34.0076 32.1673 35.1893 32.1795C35.7464 32.1795 36.0543 32.0255 36.0336 31.3957C36.0042 30.1587 36.0076 28.9199 36.0336 27.6812C36.0457 27.1172 35.7965 26.8974 35.2654 26.8992C32.9044 26.8992 30.5428 26.8992 28.1806 26.8992C27.5976 26.8992 27.3519 27.1604 27.3606 27.7417C27.3767 28.9517 27.3767 30.1627 27.3606 31.375C27.3606 31.9597 27.6045 32.2002 28.1927 32.1881C29.3433 32.1673 30.4955 32.1795 31.646 32.1795Z" fill="#704332"/>
<path d="M34.6888 11.3242C34.7649 11.5837 34.9033 11.8432 34.9085 12.1028C34.931 13.4246 34.8912 14.7481 34.9379 16.0699C34.9501 16.3744 35.2303 16.6616 35.3497 16.9713C35.4849 17.2536 35.5625 17.56 35.5781 17.8727C35.5781 17.9903 35.2078 18.1529 34.9916 18.1841C34.6803 18.2381 34.3607 18.2203 34.0573 18.1322C33.9479 18.0843 33.8502 18.0131 33.7713 17.9234C33.6924 17.8337 33.6341 17.7278 33.6006 17.6131C33.5591 17.4125 33.7165 17.1633 33.8134 16.9488C33.9743 16.6028 34.2943 16.2567 34.3082 15.9107C34.3636 14.4246 34.3307 12.9332 34.3307 11.4436L34.6888 11.3242Z" fill="#704332"/>
<path d="M23.9722 19.8219C23.4947 19.4361 22.967 19.2199 22.9341 18.9413C22.8632 18.3462 23.3961 18.2977 23.8943 18.2821C24.3926 18.2666 24.7109 18.4551 24.6383 18.943C24.5985 19.2043 24.2905 19.4171 23.9722 19.8219Z" fill="#704332"/>
<path d="M28.7454 19.5486C28.2631 19.483 27.7857 19.3854 27.3163 19.2563C27.2575 19.2372 27.2817 18.5452 27.3907 18.5037C27.7713 18.3653 28.2419 18.2632 28.6018 18.3774C28.7956 18.4396 28.8423 18.9742 28.9478 19.2943L28.7454 19.5486Z" fill="#704332"/>
<path d="M29.3336 29.0771L28.4062 28.3556C28.7177 28.193 29.0256 27.9092 29.3422 27.9006C29.6588 27.8919 29.9339 28.1774 30.2315 28.3331L29.3336 29.0771Z" fill="#704332"/>
<path d="M35.2124 30.7545C34.9356 30.9656 34.773 31.187 34.6207 31.1801C34.4685 31.1732 34.2954 30.9552 34.1328 30.8341C34.2833 30.6611 34.4062 30.4154 34.593 30.3531C34.7072 30.3081 34.9183 30.5503 35.2124 30.7545Z" fill="#704332"/>
<path d="M32.6048 31.4032C32.4231 31.09 32.2051 30.8738 32.2501 30.7561C32.3159 30.5831 32.5667 30.4707 32.7397 30.334C32.8591 30.4966 33.0736 30.661 33.0719 30.8219C33.0702 30.9828 32.8383 31.1281 32.6048 31.4032Z" fill="#704332"/>
</svg>
