<svg width="32" height="31" viewBox="0 0 32 31" fill="none" xmlns="http://www.w3.org/2000/svg">
<path d="M16.8786 15.1504C19.5083 15.6348 21.98 16.0686 24.4379 16.576C24.6341 16.6361 24.8138 16.741 24.9629 16.8824C25.1119 17.0238 25.2263 17.1978 25.2969 17.3909C25.8123 19.8541 26.2453 22.3357 26.7355 24.9826L24.1057 24.5808C23.6086 25.4486 24.305 25.3705 24.7929 25.4715C25.2809 25.5725 25.7276 25.7011 26.4148 25.8549C24.6624 27.5904 23.052 29.1973 21.4233 30.7859C21.3403 30.8583 21.2435 30.9129 21.1387 30.9464C21.034 30.98 20.9235 30.9918 20.814 30.981C18.2438 30.5219 15.6805 30.049 12.8652 29.5302C14.6589 27.7763 16.2349 26.1855 17.8658 24.6405C18.0949 24.4316 18.5531 24.3811 18.8783 24.4109C19.6343 24.4844 20.3788 24.6841 21.1324 24.7691C21.3775 24.7966 21.6455 24.6199 21.9021 24.5395L21.8402 24.1699C20.956 24.0287 20.0803 23.8378 19.2174 23.5983C18.8417 23.4766 18.3606 23.0772 18.2873 22.7283C17.7719 20.2673 17.355 17.7858 16.8786 15.1504Z" fill="#704332"/>
<path d="M15.8577 14.1475L7.52178 12.5865C7.01553 9.86391 6.51387 7.17803 5.98242 4.32227C6.63298 4.4072 7.17588 4.45771 7.70962 4.55183C9.68879 4.91683 11.668 5.28413 13.638 5.69964C13.9037 5.75474 14.2862 6.01873 14.3252 6.24371C14.8612 8.80563 15.3423 11.379 15.8577 14.1475Z" fill="#704332"/>
<path d="M31.0031 9.88497C28.2543 9.37764 25.7208 8.91392 23.1827 8.42036C22.9673 8.37904 22.6512 8.16554 22.6169 7.98419C22.1083 5.37636 21.6387 2.75475 21.1348 0C23.8286 0.500447 26.3484 0.952685 28.8682 1.46691C29.0314 1.52486 29.1786 1.62053 29.298 1.74617C29.4174 1.8718 29.5056 2.02387 29.5554 2.19003C30.0525 4.68767 30.5015 7.19449 31.0031 9.88497Z" fill="#704332"/>
<path d="M20.3434 0.267578C20.8863 3.13022 21.3765 5.66689 21.8301 8.20815C21.834 8.33552 21.8119 8.46235 21.765 8.5808C21.7181 8.69926 21.6475 8.80682 21.5575 8.89684C20.0021 10.5176 18.4238 12.1107 16.6623 13.9197C16.2362 11.7067 15.959 9.72097 15.4459 7.80412C15.0061 6.16734 15.3543 5.02182 16.676 3.94288C17.9336 2.91673 18.9919 1.64266 20.3434 0.267578Z" fill="#704332"/>
<path d="M2.0625 18.6453C3.8126 16.8892 5.38403 15.2937 6.98752 13.7304C7.10034 13.6395 7.2303 13.5723 7.36963 13.5328C7.50897 13.4934 7.65481 13.4825 7.79843 13.5008C10.332 13.9393 12.8609 14.4191 15.6304 14.9264C13.8551 16.6757 12.2424 18.2803 10.5908 19.8551C10.4821 19.9483 10.3555 20.0182 10.2188 20.0605C10.082 20.1027 9.93814 20.1164 9.79593 20.1008C7.30135 19.6485 4.81135 19.1665 2.0625 18.6453Z" fill="#704332"/>
<path d="M1.48896 18.1222C0.955225 15.2733 0.458141 12.6999 0 10.1196C0.00331648 10.0102 0.0283131 9.90244 0.0735369 9.80273C0.118761 9.70302 0.18331 9.61332 0.263431 9.53884C1.83257 7.9319 3.41315 6.33873 5.177 4.55273C5.50915 6.23084 5.63514 7.7184 6.10703 9.08889C7.04851 11.8115 6.41398 13.8661 4.06601 15.5304C3.1543 16.1732 2.46022 17.1282 1.48896 18.1222Z" fill="#704332"/>
<path d="M16.0909 15.4395C16.5971 18.0978 17.0736 20.4898 17.4836 22.8865C17.5166 23.0991 17.507 23.3161 17.4555 23.525C17.404 23.7339 17.3116 23.9304 17.1836 24.1031C15.674 25.7101 14.098 27.2527 12.3731 28.9905C11.9149 26.6123 11.6011 24.4199 11.0742 22.2735C10.7879 21.1074 11.0742 20.3773 11.9287 19.6037C13.3306 18.3296 14.6157 16.9316 16.0909 15.4395Z" fill="#704332"/>
<path d="M30.5841 10.6397C28.8638 12.3981 27.2465 14.0533 25.6064 15.6763C25.4985 15.7467 25.3776 15.7945 25.2509 15.817C25.1241 15.8395 24.9942 15.8361 24.8688 15.8071C22.3719 15.3641 19.8773 14.8889 17.2109 14.3999C18.9656 12.6323 20.592 10.984 22.2367 9.34955C22.3215 9.28152 22.4194 9.23173 22.5242 9.20329C22.6291 9.17485 22.7386 9.16838 22.8461 9.18426C25.375 9.64339 27.9017 10.1324 30.5841 10.6397Z" fill="#704332"/>
<path d="M23.8549 19.8111L23.6968 20.1141C23.3273 20.814 22.7332 21.3687 22.0104 21.6885C21.2877 22.0084 20.4784 22.0749 19.7133 21.8771C19.2592 21.7538 18.8438 21.5168 18.5061 21.1884C17.9265 20.6398 17.3607 20.0842 16.7606 19.554C15.984 18.8653 15.716 17.9906 15.7756 16.9874C15.7848 16.8001 15.8117 16.6141 15.8557 16.4319C15.8681 16.3867 15.8892 16.3443 15.9179 16.3073C15.9466 16.2702 15.9823 16.2393 16.023 16.2161C16.0734 16.1932 16.1833 16.2551 16.252 16.3056C16.4949 16.5283 16.7239 16.7579 16.953 16.9714C17.1081 17.0986 17.2116 17.2782 17.2439 17.4764C17.3079 17.9058 17.5312 18.2952 17.8693 18.5668C18.3938 19.026 18.9093 19.4989 19.3972 19.9993C19.6174 20.2374 19.9037 20.4042 20.2192 20.4783C20.5347 20.5523 20.865 20.5302 21.1679 20.4148C21.6508 20.2722 22.0639 19.9554 22.3275 19.5255C22.591 19.0957 22.6863 18.5832 22.595 18.087C22.5511 17.7947 22.4069 17.5268 22.1873 17.3295C21.5344 16.7349 20.893 16.1381 20.2493 15.5389C20.0267 15.3465 19.7458 15.2349 19.4522 15.2221C19.2018 15.2028 18.966 15.0965 18.7856 14.9214C18.5565 14.6918 18.3274 14.4967 18.0983 14.2832C17.9426 14.1386 17.9746 13.9664 18.1808 13.9113C19.3262 13.5968 20.412 13.6611 21.3374 14.5242C21.933 15.0798 22.5316 15.6315 23.1333 16.1794C23.4634 16.4778 23.722 16.8471 23.8898 17.2597C24.0576 17.6723 24.1302 18.1176 24.1023 18.5622C24.1023 18.7918 24.0633 18.9984 24.045 19.2165L23.8549 19.8111Z" fill="#704332" stroke="white" stroke-width="0.5" stroke-miterlimit="10"/>
<path d="M9.12302 9.92287C9.40094 9.05851 9.99753 8.33302 10.791 7.89447C11.5845 7.45591 12.5151 7.33734 13.3929 7.56297C13.8418 7.68768 14.2516 7.92466 14.5841 8.25165C15.1659 8.79801 15.7294 9.35585 16.3319 9.88384C16.685 10.196 16.9592 10.5876 17.132 11.0266C17.3049 11.4656 17.3714 11.9393 17.326 12.409C17.3146 12.6122 17.2871 12.8141 17.2436 13.0128C17.2329 13.0563 17.2134 13.0971 17.1862 13.1327C17.159 13.1683 17.1247 13.1978 17.0855 13.2194C17.0305 13.2423 16.9229 13.1895 16.8564 13.139C16.609 12.9095 16.3731 12.6799 16.1303 12.4664C15.9768 12.3382 15.8744 12.159 15.8417 11.9614C15.7795 11.5379 15.5603 11.1534 15.2278 10.8847C14.7055 10.4256 14.1878 9.95271 13.7021 9.45227C13.483 9.21313 13.1978 9.04481 12.8828 8.96876C12.5679 8.89272 12.2375 8.91239 11.9337 9.02528C11.4449 9.16963 11.0278 9.49218 10.7645 9.9294C10.5012 10.3666 10.4108 10.8868 10.5112 11.3875C10.5605 11.6666 10.7016 11.9212 10.9121 12.1106C11.5603 12.7075 12.2086 13.302 12.8523 13.9012C13.0755 14.0926 13.356 14.2041 13.6495 14.218C13.9037 14.2365 14.1424 14.3475 14.3206 14.5302C14.5497 14.746 14.7788 14.948 15.0078 15.1569C15.1774 15.3153 15.1453 15.476 14.9185 15.5449C14.5025 15.6716 14.0678 15.726 13.6334 15.7056C12.9124 15.6778 12.228 15.3796 11.7161 14.8699C11.1503 14.3236 10.5707 13.7956 9.98432 13.263C9.65496 12.9674 9.39668 12.6009 9.22886 12.191C9.06104 11.7811 8.98805 11.3384 9.01536 10.8962C9.01536 10.5771 9.08179 10.2511 9.12302 9.92287Z" fill="#704332" stroke="white" stroke-width="0.5" stroke-miterlimit="10"/>
<path d="M13.2423 12.2616C13.2747 12.2072 13.3107 12.155 13.35 12.1055C13.4439 11.9953 13.5424 11.8943 13.6386 11.7887C13.8929 11.5109 14.0807 11.5017 14.3533 11.7542L17.6405 14.7845L19.6769 16.6623C19.961 16.924 19.9679 17.1054 19.7067 17.39L19.4776 17.6448C19.2165 17.9295 19.0332 17.9387 18.7515 17.6793L14.9146 14.1463L13.3867 12.7368C13.3153 12.6832 13.2629 12.6083 13.2369 12.5228C13.211 12.4374 13.2129 12.3459 13.2423 12.2616Z" fill="#704332" stroke="white" stroke-width="0.5" stroke-miterlimit="10"/>
</svg>
