<svg width="30" height="30" viewBox="0 0 30 30" fill="none" xmlns="http://www.w3.org/2000/svg">
<path d="M16.3438 14.6348C18.8894 15.1026 21.2819 15.5217 23.6611 16.0118C23.8511 16.0698 24.0251 16.1711 24.1693 16.3077C24.3136 16.4443 24.4243 16.6124 24.4926 16.7989C24.9916 19.1782 25.4106 21.5751 25.8852 24.1318L23.3396 23.7437C22.8584 24.5819 23.5325 24.5065 24.0048 24.6041C24.4771 24.7016 24.9095 24.8258 25.5747 24.9744C23.8784 26.6507 22.3196 28.2028 20.7431 29.7373C20.6627 29.8071 20.569 29.8599 20.4676 29.8923C20.3662 29.9247 20.2592 29.9361 20.1533 29.9257C17.6654 29.4823 15.1841 29.0255 12.459 28.5244C14.1952 26.8303 15.7207 25.2937 17.2995 23.8014C17.5212 23.5996 17.9647 23.5508 18.2796 23.5796C19.0113 23.6506 19.732 23.8435 20.4615 23.9255C20.6987 23.9522 20.9582 23.7814 21.2065 23.7038L21.1466 23.3468C20.2907 23.2104 19.4431 23.026 18.6077 22.7947C18.2441 22.6772 17.7785 22.2913 17.7075 21.9543C17.2086 19.5773 16.805 17.1803 16.3438 14.6348Z" fill="#704332"/>
<path d="M15.3579 13.6642L7.2889 12.1564C6.79886 9.52656 6.31326 6.93223 5.79883 4.17383C6.42856 4.25587 6.95408 4.30465 7.47072 4.39557C9.38653 4.74813 11.3023 5.10291 13.2093 5.50425C13.4665 5.55747 13.8368 5.81246 13.8745 6.02977C14.3933 8.50435 14.859 10.99 15.3579 13.6642Z" fill="#704332"/>
<path d="M29.9997 9.54799C27.3389 9.05795 24.8864 8.61005 22.4296 8.13331C22.2212 8.0934 21.9152 7.88718 21.8819 7.71201C21.3896 5.19308 20.9351 2.66084 20.4473 0C23.0549 0.483387 25.494 0.920208 27.9331 1.4169C28.0911 1.47288 28.2336 1.56529 28.3492 1.68664C28.4648 1.80799 28.5501 1.95487 28.5983 2.11537C29.0795 4.52787 29.5141 6.94924 29.9997 9.54799Z" fill="#704332"/>
<path d="M19.6926 0.259766C20.2181 3.02483 20.6926 5.47502 21.1316 7.92965C21.1355 8.05267 21.114 8.17518 21.0686 8.2896C21.0233 8.40401 20.9549 8.50791 20.8678 8.59486C19.3622 10.1603 17.8344 11.6992 16.1293 13.4465C15.7168 11.3089 15.4485 9.39089 14.9518 7.53939C14.5261 5.95841 14.8631 4.85194 16.1426 3.80977C17.3599 2.81861 18.3843 1.58797 19.6926 0.259766Z" fill="#704332"/>
<path d="M1.99609 18.0087C3.69016 16.3124 5.21128 14.7714 6.76344 13.2613C6.87264 13.1735 6.99845 13.1086 7.13332 13.0705C7.26819 13.0324 7.40936 13.0219 7.54839 13.0396C10.0008 13.4631 12.4488 13.9266 15.1296 14.4166C13.4111 16.1062 11.8501 17.6562 10.2514 19.1773C10.1461 19.2673 10.0236 19.3348 9.89122 19.3756C9.75888 19.4164 9.61959 19.4297 9.48193 19.4145C7.06722 18.9777 4.65694 18.5121 1.99609 18.0087Z" fill="#704332"/>
<path d="M1.44129 17.5053C0.924643 14.7536 0.443474 12.2679 0 9.77556C0.0032103 9.66982 0.0274067 9.56577 0.0711826 9.46946C0.114958 9.37315 0.177441 9.28651 0.254997 9.21456C1.7739 7.6624 3.30388 6.12355 5.01125 4.39844C5.33277 6.01933 5.45473 7.45619 5.91151 8.77996C6.82284 11.4098 6.20863 13.3943 3.93583 15.0019C3.05332 15.6228 2.38145 16.5452 1.44129 17.5053Z" fill="#704332"/>
<path d="M15.5714 14.9121C16.0614 17.4798 16.5226 19.7903 16.9195 22.1053C16.9514 22.3106 16.9422 22.5203 16.8923 22.722C16.8424 22.9238 16.753 23.1136 16.6291 23.2805C15.1678 24.8326 13.6423 26.3227 11.9726 28.0012C11.5291 25.704 11.2253 23.5865 10.7153 21.5132C10.4382 20.3868 10.7153 19.6817 11.5424 18.9344C12.8994 17.7038 14.1434 16.3534 15.5714 14.9121Z" fill="#704332"/>
<path d="M29.6052 10.2753C27.9399 11.9738 26.3745 13.5726 24.7868 15.1402C24.6824 15.2082 24.5654 15.2544 24.4427 15.2762C24.32 15.2979 24.1942 15.2946 24.0728 15.2666C21.6559 14.8387 19.2412 14.3797 16.6602 13.9074C18.3587 12.2 19.933 10.6079 21.5251 9.02917C21.6071 8.96346 21.7019 8.91537 21.8033 8.8879C21.9048 8.86043 22.0109 8.85418 22.1149 8.86952C24.5629 9.313 27.0086 9.7853 29.6052 10.2753Z" fill="#704332"/>
</svg>
