<svg width="31" height="32" viewBox="0 0 31 32" fill="none" xmlns="http://www.w3.org/2000/svg">
<path d="M16.5212 30.3594C15.0526 30.3932 13.6177 30.4622 12.177 30.449C10.7789 30.4373 9.3779 30.3712 7.98127 30.2713C6.43778 30.1765 4.91025 29.905 3.42862 29.4621C2.62789 29.2384 1.87277 28.8755 1.19782 28.39C0.628007 27.9495 0.184491 27.4252 0.0743459 26.6982C-0.147412 25.2898 0.100781 24.018 1.17432 22.968C2.12982 22.0582 3.20079 21.2781 4.35971 20.6476C5.54223 19.978 6.78047 19.412 8.06057 18.9558C8.9197 18.6533 9.54973 17.825 9.29566 16.6428C9.24072 16.3365 9.1031 16.0511 8.89767 15.8174C7.77126 14.5603 7.0399 13.0829 6.54792 11.4762C6.12792 10.1057 5.95049 8.67237 6.02363 7.2408C6.10587 5.71493 6.49064 4.26689 7.42173 3.01565C8.40129 1.69832 9.73183 0.946395 11.337 0.682048C12.7019 0.433922 14.1098 0.601218 15.3786 1.16228C16.9632 1.87602 18.0044 3.09201 18.5948 4.70747C19.075 6.02039 19.169 7.37885 19.0677 8.7608C18.9433 10.4726 18.4753 12.1419 17.6916 13.6688C17.2624 14.5009 16.73 15.2756 16.107 15.9745C15.9868 16.1541 15.9104 16.3593 15.8838 16.5737C15.745 17.0761 15.7568 17.6082 15.9176 18.104C15.9352 18.151 15.8882 18.2347 15.85 18.2846C15.0675 19.308 14.5163 20.489 14.2346 21.7461C13.5561 24.9095 14.283 27.7165 16.4154 30.1671C16.4419 30.1979 16.4698 30.2273 16.4962 30.2596C16.5071 30.2922 16.5154 30.3256 16.5212 30.3594Z" fill="#704332"/>
<path d="M15.793 23.871C15.7944 22.3673 16.2418 20.8977 17.0784 19.6483C17.915 18.3988 19.1034 17.4254 20.4932 16.8513C21.883 16.2772 23.4118 16.1281 24.8864 16.4229C26.3609 16.7177 27.7149 17.4431 28.7772 18.5074C29.8394 19.5717 30.5622 20.9272 30.8542 22.4023C31.1461 23.8774 30.9941 25.4059 30.4173 26.7946C29.8405 28.1833 28.8648 29.3698 27.6137 30.204C26.3626 31.0382 24.8923 31.4827 23.3886 31.4812C22.39 31.4807 21.4014 31.2833 20.4791 30.9005C19.5569 30.5176 18.7192 29.9568 18.0138 29.2501C17.3084 28.5433 16.7492 27.7045 16.3681 26.7815C15.9871 25.8585 15.7916 24.8695 15.793 23.871ZM22.34 28.0785H24.4592V24.9651H27.5594V22.7798H24.4474V19.6664H22.3385V22.7842H19.1884C19.1884 22.843 19.1796 22.8767 19.1796 22.912C19.1796 23.5347 19.1796 24.1588 19.1796 24.783C19.1796 24.9298 19.228 24.968 19.3705 24.968C20.2883 24.968 21.2062 24.968 22.1241 24.968H22.34V28.0785Z" fill="#704332"/>
<path d="M22.3441 24.9706H22.1283C21.2104 24.9706 20.2925 24.9706 19.3746 24.9706C19.2278 24.9706 19.1808 24.9353 19.1837 24.7855C19.1837 24.1614 19.1837 23.5372 19.1837 22.9145C19.1837 22.8793 19.1837 22.8455 19.1925 22.7868H22.3427V19.666H24.4516V22.7794H27.5635V24.9647H24.4633V28.0781H22.3441" fill="white"/>
</svg>
