<svg width="30" height="30" viewBox="0 0 30 30" fill="none" xmlns="http://www.w3.org/2000/svg">
<path d="M19.8344 29.9078C18.0788 29.942 16.3491 30.0133 14.638 29.9978C12.927 29.9823 11.2753 29.9202 9.6013 29.8209C7.74639 29.7261 5.91067 29.4532 4.1303 29.0077C3.1624 28.7881 2.24877 28.4265 1.43192 27.94C1.08219 27.7453 0.782743 27.4938 0.551312 27.2006C0.31988 26.9074 0.16117 26.5783 0.0845839 26.2328C-0.171521 24.8175 0.121701 23.5418 1.40965 22.4895C2.55525 21.5747 3.84078 20.7909 5.23267 20.1585C6.65542 19.4853 8.14575 18.9172 9.68667 18.4607C10.2446 18.3078 10.7104 17.9806 10.987 17.5475C11.2636 17.1144 11.3297 16.6087 11.1713 16.1359C11.1052 15.8292 10.9396 15.5436 10.6925 15.3103C9.377 14.0492 8.41231 12.5598 7.86796 10.9493C7.3625 9.57355 7.14895 8.13439 7.23697 6.69702C7.26886 5.17413 7.85113 3.69497 8.90722 2.45402C9.46507 1.82158 10.1685 1.28875 10.976 0.886853C11.7836 0.484953 12.6791 0.222087 13.6099 0.113701C15.2489 -0.137203 16.9403 0.0293219 18.4648 0.591698C19.3681 0.929006 20.1777 1.41967 20.8422 2.03254C21.5067 2.64541 22.0117 3.36712 22.3249 4.15184C22.8613 5.45842 23.055 6.84627 22.8928 8.22103C22.7432 9.93904 22.1815 11.6143 21.2411 13.1469C20.7247 13.9832 20.085 14.7622 19.337 15.4655C19.1935 15.6451 19.102 15.8502 19.0698 16.0645C18.9032 16.569 18.9174 17.1032 19.1106 17.6009C19.1106 17.6475 19.0735 17.7313 19.0289 17.7841C18.0908 18.8109 17.431 19.996 17.0952 21.2573C16.6651 22.7372 16.6772 24.2828 17.1303 25.7579C17.5834 27.2329 18.4636 28.592 19.6933 29.7154L19.7898 29.8085C19.8083 29.8404 19.8232 29.8736 19.8344 29.9078Z" fill="#704332"/>
<path d="M10.1656 29.9078C11.9212 29.942 13.6509 30.0133 15.362 29.9978C17.073 29.9823 18.7247 29.9202 20.3987 29.8209C22.2536 29.7261 24.0893 29.4532 25.8697 29.0077C26.8376 28.7881 27.7512 28.4265 28.5681 27.94C28.9178 27.7453 29.2173 27.4938 29.4487 27.2006C29.6801 26.9074 29.8388 26.5783 29.9154 26.2328C30.1715 24.8175 29.8783 23.5418 28.5904 22.4895C27.4448 21.5747 26.1592 20.7909 24.7673 20.1585C23.3446 19.4853 21.8543 18.9172 20.3133 18.4607C19.7554 18.3078 19.2896 17.9806 19.013 17.5475C18.7364 17.1144 18.6703 16.6087 18.8287 16.1359C18.8948 15.8292 19.0604 15.5436 19.3075 15.3103C20.623 14.0492 21.5877 12.5598 22.132 10.9493C22.6375 9.57355 22.8511 8.13439 22.763 6.69702C22.7311 5.17413 22.1489 3.69497 21.0928 2.45402C20.5349 1.82158 19.8315 1.28875 19.024 0.886853C18.2164 0.484953 17.3209 0.222087 16.3901 0.113701C14.7511 -0.137203 13.0597 0.0293219 11.5352 0.591698C10.6319 0.929006 9.82228 1.41967 9.15777 2.03254C8.49325 2.64541 7.98834 3.36712 7.67509 4.15184C7.13869 5.45842 6.945 6.84627 7.10721 8.22103C7.25681 9.93904 7.81853 11.6143 8.7589 13.1469C9.27529 13.9832 9.91497 14.7622 10.663 15.4655C10.8065 15.6451 10.898 15.8502 10.9302 16.0645C11.0968 16.569 11.0826 17.1032 10.8894 17.6009C10.8894 17.6475 10.9265 17.7313 10.9711 17.7841C11.9092 18.8109 12.569 19.996 12.9048 21.2573C13.3349 22.7372 13.3228 24.2828 12.8697 25.7579C12.4166 27.2329 11.5364 28.592 10.3067 29.7154L10.2102 29.8085C10.1917 29.8404 10.1768 29.8736 10.1656 29.9078Z" fill="#704332"/>
</svg>
