<svg width="32" height="28" viewBox="0 0 32 28" fill="none" xmlns="http://www.w3.org/2000/svg">
<path d="M29.459 7.03323H1.72148V7.82942C1.72148 10.0495 1.72148 12.2699 1.72148 14.4907C1.72148 15.0614 1.58316 15.5298 0.907855 15.5763C0.334832 15.6158 0.00822046 15.2276 0.00705814 14.5011C0.00240887 10.5516 0.00395863 6.60163 0.0117074 2.65129C0.0163567 1.33904 0.87531 0.348742 2.17129 0.100006C2.49317 0.042885 2.81958 0.0152622 3.14648 0.0174815C11.4257 0.0139946 19.7049 0.033754 27.9829 4.67342e-05C29.8717 -0.00808949 31.2176 1.04613 31.1979 3.16504C31.1328 10.0123 31.1735 16.8618 31.1723 23.7102C31.1723 26.3475 29.7845 27.7492 27.167 27.7504C19.4492 27.7504 11.7314 27.7504 4.01357 27.7504C1.3507 27.7504 -0.114985 26.2173 0.00705814 23.5661C0.0384407 22.8966 0.361565 22.5258 0.913666 22.5653C1.54132 22.6095 1.70869 23.0302 1.72729 23.5846C1.7291 23.9572 1.76803 24.3287 1.84352 24.6935C1.91919 25.0259 2.0988 25.3255 2.35629 25.549C2.61377 25.7724 2.93575 25.908 3.2755 25.936C3.53121 25.9616 3.78924 25.9604 4.04611 25.9604C11.7407 25.9604 19.4352 25.9349 27.1298 25.9825C28.9255 25.993 29.4846 25.0643 29.4765 23.6032C29.4474 18.3449 29.466 13.0854 29.466 7.82594L29.459 7.03323ZM21.6971 2.64083C20.0617 2.64083 18.4252 2.64083 16.7898 2.64083C16.0238 2.64083 15.5949 2.96745 15.6054 3.51374C15.6147 4.0391 16.0285 4.35758 16.7479 4.35874C20.0195 4.36339 23.2918 4.36339 26.5649 4.35874C27.3018 4.35874 27.6749 4.04724 27.6656 3.48584C27.6563 2.92444 27.2878 2.64316 26.5358 2.64083C24.9225 2.63735 23.3104 2.64083 21.6971 2.64083ZM11.2478 3.42424C11.2351 2.97326 10.9329 2.68035 10.4342 2.66176C9.93558 2.64316 9.58921 2.93723 9.56364 3.45446C9.53807 3.97169 9.7961 4.30062 10.3261 4.34712C10.7922 4.38896 11.2258 3.98099 11.2478 3.42424ZM2.63622 3.4777C2.63622 3.96704 2.89309 4.34363 3.44055 4.34712C3.96824 4.34712 4.27393 4.02283 4.29718 3.51955C4.32042 3.01626 4.00195 2.71638 3.51726 2.64665M7.77134 3.47654C7.72253 2.96163 7.45636 2.64665 6.91937 2.66292C6.38237 2.67919 6.07901 3.01161 6.09412 3.51606C6.10923 4.02051 6.39516 4.36339 6.94261 4.34712C7.49006 4.33084 7.7202 3.98912 7.77134 3.47654Z" fill="#704332"/>
<path d="M5.59489 16.0247C4.04436 14.0616 3.97694 12.4448 5.36243 11.2092C5.9424 10.7088 6.6891 10.4444 7.45474 10.4683C8.22039 10.4922 8.94915 10.8027 9.49679 11.3383C10.7753 12.6029 10.651 14.2592 9.21319 15.8957C9.88966 16.4327 10.6347 16.9092 11.2333 17.5229C12.0713 18.3854 12.3352 19.4989 12.2399 20.6914C12.1887 21.3342 11.8389 21.6678 11.1938 21.6689C8.57779 21.6689 5.96179 21.6689 3.3458 21.6689C2.73791 21.6689 2.42525 21.3551 2.33459 20.7391C2.07307 18.9619 3.19354 17.065 5.01838 16.2572C5.20784 16.177 5.3973 16.1061 5.59489 16.0247Z" fill="#704332"/>
<path d="M16.4529 13.7916C16.4529 13.1372 16.4529 12.484 16.4529 11.8296C16.4529 10.8997 16.7667 10.4046 17.3432 10.4162C17.9197 10.4278 18.1929 10.873 18.1941 11.8598C18.1941 13.2546 18.1743 14.6622 18.2127 16.0628C18.2242 16.2093 18.266 16.352 18.3355 16.4816C18.4049 16.6112 18.5004 16.7251 18.616 16.8159C20.2618 17.8806 20.3536 20.1018 18.7322 21.2142C18.337 21.485 18.1731 21.736 18.1848 22.2056C18.2034 22.9762 17.8465 23.4051 17.3014 23.3842C16.7807 23.3644 16.4494 22.9448 16.4645 22.2219C16.475 21.7639 16.3483 21.4954 15.9345 21.2235C14.3073 20.1611 14.3549 17.8644 16.0205 16.8636C16.3541 16.6637 16.4738 16.4754 16.4622 16.1058C16.4355 15.3328 16.4529 14.5622 16.4529 13.7916Z" fill="#704332"/>
<path d="M26.8555 14.6981C26.8555 15.7442 26.8311 16.8019 26.8741 17.8514C26.8887 17.9867 26.931 18.1175 26.9984 18.2357C27.0658 18.3539 27.1569 18.4569 27.2658 18.5384C28.3119 19.2241 28.8047 20.3597 28.477 21.4942C28.3253 22.0385 28.0025 22.5197 27.5562 22.8663C27.1099 23.213 26.5639 23.4067 25.9989 23.419C24.8366 23.4259 23.7905 22.6053 23.4813 21.4511C23.3302 20.9052 23.3688 20.3241 23.5907 19.8028C23.8125 19.2816 24.2046 18.851 24.7029 18.5814C25.0609 18.3826 25.1237 18.1595 25.1213 17.8073C25.1109 15.7511 25.1144 13.6962 25.1213 11.64C25.1213 10.8857 25.4491 10.4266 25.9722 10.4219C26.4952 10.4173 26.8532 10.8868 26.8579 11.6156C26.8555 12.6431 26.8555 13.6706 26.8555 14.6981Z" fill="#704332"/>
<path d="M20.7791 19.9655C20.7791 19.1937 20.807 18.4219 20.7616 17.6536C20.7462 17.5302 20.7055 17.4113 20.6422 17.3043C20.5788 17.1973 20.494 17.1046 20.3932 17.0318C18.6497 15.9311 18.6392 13.6041 20.3653 12.4906C20.5664 12.3616 20.6768 12.0547 20.7686 11.8071C20.8291 11.6421 20.7686 11.4352 20.7907 11.2516C20.8569 10.7425 21.1592 10.4228 21.6694 10.4298C22.1541 10.4298 22.4993 10.7785 22.4621 11.2434C22.4017 12.0094 22.7469 12.393 23.3327 12.8521C24.7147 13.9307 24.4636 16.1228 22.9177 16.9911C22.569 17.1875 22.4854 17.3886 22.4877 17.7443C22.5016 19.239 22.4981 20.7349 22.4877 22.2297C22.4877 22.9759 22.1936 23.3745 21.6636 23.392C21.1127 23.4082 20.7814 22.9759 20.7756 22.2145C20.7698 21.4532 20.7791 20.7128 20.7791 19.9655Z" fill="#704332"/>
<path d="M26.5669 4.36133C23.2939 4.36598 20.0215 4.36598 16.75 4.36133H26.5669Z" fill="white"/>
<path d="M2.64062 3.47754C2.64062 2.96031 2.97537 2.68717 3.52166 2.64648L2.64062 3.47754Z" fill="white"/>
</svg>
