<svg width="32" height="28" viewBox="0 0 32 28" fill="none" xmlns="http://www.w3.org/2000/svg">
<path d="M24.99 25.8638C24.7543 26.6256 23.8693 27.251 23.007 27.2744C22.8455 27.2788 22.6835 27.2744 22.5221 27.2744H4.50195C4.52878 27.2252 4.55909 27.1779 4.59264 27.1331C5.18381 26.4823 5.4355 25.7122 5.43404 24.8377C5.42855 20.6217 5.42774 16.4059 5.43162 12.1903C5.43162 8.23456 5.43162 4.2787 5.43162 0.322682V0H25.1874V0.29636C25.1874 4.32582 25.1888 8.35528 25.1917 12.3847C25.1917 12.57 25.1607 12.6465 24.9522 12.6718C21.6685 13.0696 19.1715 15.8533 19.1351 19.1435C19.0978 22.5132 21.4988 25.3413 24.8052 25.8243C24.8673 25.834 24.9274 25.8496 24.99 25.8638ZM22.7781 8.77383H7.26767V9.6127H22.7781V8.77383ZM7.25943 12.7503H7.64061C12.0285 12.7503 16.4184 12.744 20.8053 12.7571C21.413 12.7571 21.9944 12.742 22.506 12.3672C22.5253 12.3522 22.5472 12.3409 22.5705 12.3341C22.829 12.2678 22.8271 12.0952 22.7679 11.8954H7.25846L7.25943 12.7503ZM7.25943 15.8738H18.6429C18.7075 15.8771 18.7723 15.8759 18.8368 15.8704C18.881 15.8645 18.9435 15.8514 18.962 15.8216C19.1162 15.5614 19.2622 15.2957 19.4188 15.0179H7.25652L7.25943 15.8738ZM14.2758 6.49409C14.4363 6.0091 14.6017 5.52605 14.754 5.0391C14.7976 4.90018 14.8621 4.84754 15.0091 4.85046C15.4455 4.85924 15.882 4.86119 16.3185 4.85046C16.4833 4.84608 16.5609 4.89433 16.6094 5.05714C16.7399 5.48364 16.8873 5.90479 17.0357 6.32447C17.0595 6.39173 17.1211 6.49263 17.17 6.49556C17.4387 6.51262 17.7088 6.50384 18.0042 6.50384C17.9678 6.38735 17.946 6.30887 17.9208 6.23527C17.4135 4.73722 16.9056 3.23933 16.397 1.7416C16.3214 1.51982 16.2928 1.2142 16.1347 1.10794C15.9654 0.993392 15.6681 1.07821 15.4286 1.05627C15.2559 1.04067 15.1948 1.11623 15.1434 1.26928C14.5857 2.93793 14.0238 4.60545 13.4577 6.27182C13.4354 6.33812 13.4213 6.40782 13.399 6.49409H14.2758ZM18.6957 22.1096C18.6196 21.878 18.5362 21.6753 18.4882 21.4642C18.4474 21.2838 18.3563 21.2434 18.1846 21.2439C14.623 21.2484 11.0615 21.2497 7.49997 21.2478C7.42189 21.2478 7.34381 21.2551 7.26476 21.259V22.1096H18.6957ZM18.2273 18.1438H7.26719V18.9817H18.154C18.1788 18.6975 18.2025 18.425 18.2273 18.1438ZM9.32875 1.05968C9.92622 2.90219 10.5091 4.69741 11.0964 6.50726C11.3166 6.50726 11.5266 6.49556 11.7346 6.51116C11.9194 6.5248 11.9994 6.45559 12.0615 6.27914C12.6143 4.70228 13.1769 3.12933 13.7394 1.55492C13.7947 1.39943 13.8447 1.2415 13.9053 1.0592C13.6565 1.0592 13.446 1.07089 13.238 1.05578C13.0557 1.04262 12.9718 1.1016 12.9121 1.28488C12.5072 2.53515 12.0877 3.78054 11.6726 5.02692C11.6488 5.09954 11.6182 5.16973 11.5707 5.29306C11.5222 5.16145 11.4936 5.08151 11.4684 5.00059C11.0828 3.75325 10.7007 2.50249 10.3088 1.25661C10.2841 1.17862 10.1886 1.07528 10.1183 1.06894C9.87093 1.04555 9.62021 1.05968 9.32875 1.05968ZM21.4076 1.07431H17.3781V1.83422H18.9566V6.49263H19.8296V1.81813H21.4091L21.4076 1.07431Z" fill="#704332"/>
<path d="M25.7322 25.022C22.5844 25.0298 20.0044 22.4386 20.002 19.2703C19.9996 17.7405 20.6019 16.2724 21.6763 15.1889C22.7507 14.1054 24.2093 13.4951 25.7313 13.4922C28.8694 13.4815 31.4538 16.0732 31.4664 19.244C31.479 22.4147 28.898 25.0147 25.7322 25.022ZM24.9141 17.7841C24.8171 17.3581 24.772 16.9667 24.642 16.6064C24.434 16.0303 24.0067 15.6711 23.3884 15.5945C22.742 15.5151 22.1974 15.7315 21.8336 16.2808C21.2701 17.1334 21.2614 18.0585 21.6164 18.9832C21.8632 19.6266 22.3569 20.0029 23.063 20.019C23.7691 20.0351 24.2992 19.6861 24.5742 19.0441C24.7458 18.641 24.8079 18.1921 24.9141 17.7841ZM30.1948 20.6112C30.1361 20.2851 30.1061 19.9507 30.0125 19.6363C29.8044 18.9344 29.2938 18.5104 28.6512 18.4616C27.8981 18.4051 27.3418 18.7273 27.0096 19.3936C26.6047 20.2086 26.5989 21.0596 26.95 21.8936C27.2143 22.5215 27.7041 22.8856 28.399 22.8944C29.094 22.9031 29.576 22.5507 29.8849 21.9424C30.0954 21.5237 30.1575 21.0752 30.1948 20.6088V20.6112ZM23.2953 22.9372C23.4966 22.9372 23.6503 22.9231 23.8002 22.9402C24.0218 22.9665 24.1396 22.8797 24.2521 22.6823C25.4131 20.6123 26.5804 18.5458 27.754 16.4826C27.9165 16.1965 28.0756 15.9084 28.2589 15.5809C28.0571 15.5809 27.8976 15.595 27.7409 15.5775C27.528 15.5526 27.4155 15.6345 27.3088 15.8246C26.3481 17.5428 25.3748 19.2532 24.4054 20.9665C24.0431 21.607 23.6828 22.249 23.2953 22.9372Z" fill="#704332"/>
<path d="M4.54261 19.541C4.54843 19.6132 4.55861 19.6755 4.55861 19.7384C4.55861 21.4688 4.56734 23.1992 4.55861 24.9291C4.55134 26.1477 3.77637 27.0592 2.61878 27.2513C1.38553 27.456 0.17313 26.543 0.0247329 25.2952C0.0084916 25.158 0.000233251 25.02 0 24.8818C0 23.1843 0 21.487 0 19.7901C0 19.7116 0.00678942 19.6327 0.011154 19.543L4.54261 19.541Z" fill="#704332"/>
<path d="M22.7819 8.77734V9.61544H7.27148V8.77734H22.7819Z" fill="white"/>
<path d="M7.25781 12.7506V11.8945H22.7663C22.8255 12.0932 22.8274 12.2656 22.5689 12.3328C22.5455 12.3397 22.5237 12.3509 22.5044 12.3659C21.9928 12.7424 21.4113 12.7594 20.8037 12.7555C16.4153 12.7424 12.0259 12.7487 7.63899 12.7487L7.25781 12.7506Z" fill="white"/>
<path d="M7.25781 15.8732V15.0156H19.4201C19.2635 15.2932 19.1175 15.5586 18.9633 15.8187C18.9448 15.8503 18.8823 15.8635 18.8381 15.8674C18.7736 15.8729 18.7088 15.874 18.6442 15.8708H7.25781V15.8732Z" fill="white"/>
<path d="M14.2772 6.49455H13.4004C13.4227 6.40827 13.4368 6.33857 13.4591 6.27228C14.0223 4.6046 14.5845 2.93643 15.1458 1.26778C15.1972 1.11473 15.2583 1.03918 15.4309 1.05477C15.6705 1.07671 15.9678 0.991894 16.137 1.10644C16.2951 1.21319 16.3237 1.51881 16.3994 1.74011C16.9086 3.23751 17.4165 4.73539 17.9231 6.23377C17.9483 6.30883 17.9716 6.38585 18.0065 6.50235C17.7112 6.50235 17.4411 6.51112 17.1724 6.49406C17.1239 6.49113 17.0618 6.39024 17.0381 6.32297C16.8897 5.90231 16.7422 5.48117 16.6118 5.05564C16.5633 4.89284 16.4838 4.84458 16.3208 4.84897C15.8843 4.86067 15.4479 4.85872 15.0114 4.84897C14.8659 4.84604 14.8 4.89771 14.7563 5.0376C14.6031 5.5265 14.4377 6.00955 14.2772 6.49455ZM16.3305 4.12318C16.1128 3.46173 15.9052 2.83147 15.6972 2.20122L15.6457 2.20804C15.4426 2.84171 15.2394 3.4705 15.0289 4.12318H16.3305Z" fill="white"/>
<path d="M18.6985 22.111H7.26758V21.2612C7.34663 21.2573 7.42471 21.25 7.50278 21.25C11.0643 21.25 14.6259 21.2487 18.1874 21.2461C18.3591 21.2461 18.4502 21.286 18.491 21.4662C18.539 21.6771 18.6224 21.8797 18.6985 22.111Z" fill="white"/>
<path d="M18.2286 18.1445C18.2039 18.4265 18.1801 18.6977 18.1554 18.9817H7.26758V18.1445H18.2286Z" fill="white"/>
<path d="M9.32812 1.0597C9.6191 1.0597 9.87031 1.04557 10.1176 1.06896C10.188 1.0753 10.2835 1.17864 10.3082 1.25663C10.7001 2.50251 11.0842 3.75132 11.4678 4.99964C11.493 5.08153 11.524 5.16147 11.5701 5.2921C11.6186 5.16878 11.6482 5.09713 11.6719 5.02596C12.0875 3.77959 12.5065 2.53419 12.9115 1.28392C12.9711 1.10065 13.057 1.04021 13.2374 1.05483C13.4454 1.06994 13.6559 1.05824 13.9047 1.05824C13.8441 1.24054 13.7941 1.39945 13.7388 1.55396C13.1782 3.12838 12.6137 4.70133 12.0609 6.27818C11.9988 6.45463 11.9188 6.5219 11.734 6.5102C11.526 6.4946 11.316 6.5063 11.0958 6.5063C10.5085 4.69743 9.92559 2.90221 9.32812 1.0597Z" fill="white"/>
<path d="M21.4045 1.07422V1.81999H19.825V6.49449H18.9521V1.83608H17.375V1.07422H21.4045Z" fill="white"/>
<path d="M24.9133 17.7772C24.8071 18.1852 24.745 18.6342 24.5738 19.0358C24.2989 19.6792 23.7756 20.0282 23.0627 20.0107C22.3498 19.9931 21.8629 19.6183 21.6161 18.9749C21.2611 18.0487 21.2698 17.1251 21.8333 16.2725C22.1971 15.7232 22.7417 15.5068 23.3881 15.5862C24.0064 15.6628 24.4337 16.022 24.6417 16.5981C24.7712 16.9593 24.8183 17.3493 24.9133 17.7772ZM22.2654 17.826C22.3498 18.1672 22.4109 18.5084 22.5225 18.8316C22.5627 18.9617 22.6448 19.0747 22.7558 19.1529C22.8668 19.2311 23.0005 19.2702 23.1359 19.2639C23.4487 19.2595 23.6471 19.0689 23.7465 18.7887C23.9831 18.1521 23.9867 17.4516 23.7567 16.8126C23.6597 16.5343 23.4657 16.3432 23.1519 16.331C22.8382 16.3188 22.6214 16.5031 22.5263 16.7775C22.4114 17.108 22.3556 17.4594 22.2654 17.8245V17.826Z" fill="white"/>
<path d="M30.1944 20.6047C30.1571 21.0711 30.0974 21.5196 29.8845 21.9344C29.5756 22.5427 29.0901 22.8951 28.3986 22.8863C27.707 22.8776 27.2138 22.5135 26.9495 21.8856C26.5984 21.0516 26.6042 20.2006 27.0092 19.3856C27.3404 18.7193 27.8976 18.3971 28.6508 18.4536C29.2933 18.5024 29.804 18.9264 30.0121 19.6283C30.1056 19.9442 30.1357 20.2766 30.1944 20.6047ZM29.2875 20.6412C29.2104 20.3068 29.1542 19.9554 29.045 19.621C28.9587 19.3563 28.7395 19.2028 28.451 19.1994C28.1697 19.196 27.9728 19.3534 27.8627 19.5976C27.7082 19.9249 27.626 20.2819 27.6218 20.6441C27.6175 21.0063 27.6913 21.3652 27.838 21.696C27.9529 21.9666 28.1615 22.1459 28.4762 22.1313C28.7788 22.1177 28.9801 21.9363 29.0635 21.6624C29.1619 21.3407 29.2104 21.0034 29.2875 20.6412Z" fill="white"/>
<path d="M23.2988 22.9344C23.6868 22.2462 24.0466 21.6042 24.4089 20.9637C25.3788 19.2504 26.3516 17.54 27.3123 15.8218C27.419 15.6317 27.5316 15.5498 27.7444 15.5747C27.9011 15.5922 28.0606 15.5781 28.2624 15.5781C28.0791 15.9056 27.92 16.1937 27.7575 16.4798C26.5894 18.5456 25.4221 20.6121 24.2557 22.6795C24.1451 22.8769 24.0253 22.9637 23.8037 22.9374C23.6538 22.9203 23.5001 22.9344 23.2988 22.9344Z" fill="white"/>
<path d="M16.3251 4.11922H15.0234C15.2339 3.46655 15.4371 2.83532 15.6403 2.20409L15.6917 2.19727C15.8998 2.82752 16.1073 3.45728 16.3251 4.11922Z" fill="#704332"/>
<path d="M22.2656 17.8295C22.3534 17.4644 22.4111 17.113 22.5265 16.781C22.6235 16.5066 22.8325 16.3224 23.1521 16.3346C23.4717 16.3467 23.6584 16.5378 23.7569 16.8161C23.9869 17.4552 23.9832 18.1556 23.7467 18.7922C23.6473 19.0705 23.4489 19.2631 23.1361 19.2675C23.0007 19.2737 22.867 19.2347 22.756 19.1564C22.645 19.0782 22.5629 18.9652 22.5227 18.8351C22.4101 18.5119 22.35 18.1697 22.2656 17.8295Z" fill="#704332"/>
<path d="M29.289 20.6411C29.2119 21.0033 29.1634 21.3406 29.0649 21.6623C28.9815 21.9343 28.7803 22.1175 28.4776 22.1312C28.1629 22.1458 27.9544 21.9664 27.8394 21.6959C27.6927 21.3651 27.619 21.0062 27.6232 20.644C27.6275 20.2818 27.7097 19.9248 27.8642 19.5975C27.9743 19.3538 28.1711 19.1959 28.4524 19.1993C28.7434 19.2027 28.9602 19.3562 29.0465 19.6209C29.1556 19.9553 29.2119 20.3067 29.289 20.6411Z" fill="#704332"/>
</svg>
