<svg width="42" height="43" viewBox="0 0 42 43" fill="none" xmlns="http://www.w3.org/2000/svg">
<path d="M20.564 28.6753L12.0117 21.4983L12.0377 21.4483C12.2479 21.5123 12.4582 21.5744 12.6684 21.6485C13.8935 22.0489 15.1227 22.4192 16.3439 22.8276C16.7996 22.9786 17.2859 23.0127 17.7582 22.9269C18.2305 22.841 18.6737 22.638 19.0471 22.3363C19.4205 22.0346 19.7122 21.644 19.8954 21.2003C20.0786 20.7565 20.1474 20.2739 20.0956 19.7967C20.0527 19.336 19.8951 18.8934 19.637 18.5093C19.3789 18.1253 19.0286 17.8122 18.6181 17.5985C17.3649 16.8859 16.1057 16.1852 14.8505 15.4805C14.7724 15.4365 14.6963 15.3884 14.5962 15.3263L26.6259 0.982422L36.6977 9.43463C31.3178 15.8555 25.9399 22.2691 20.564 28.6753ZM23.3287 10.6038C21.1045 10.6038 19.3248 12.3174 19.3248 14.4775C19.3257 15.1221 19.4627 15.7592 19.7269 16.3471C19.9911 16.9351 20.3765 17.4606 20.8578 17.8892C21.3392 18.3179 21.9057 18.64 22.5202 18.8345C23.1347 19.029 23.7834 19.0915 24.4238 19.0179C25.3459 18.908 26.199 18.4744 26.8314 17.7944C27.4638 17.1143 27.8343 16.232 27.8771 15.3043C27.8899 14.6963 27.782 14.0918 27.5598 13.5257C27.3376 12.9596 27.0055 12.4431 26.5826 12.006C26.1597 11.569 25.6544 11.2201 25.0959 10.9794C24.5374 10.7387 23.9368 10.611 23.3287 10.6038Z" fill="#704332"/>
<path d="M40.4484 39.0552L38.4685 39.2434L33.9761 39.6618C33.0292 39.7498 32.0823 39.8439 31.1353 39.926C31.0886 39.9272 31.0421 39.9182 30.9992 39.8995C30.9564 39.8808 30.9181 39.853 30.8871 39.8179C30.1324 38.6588 29.0133 38.3104 27.7 38.3205C25.5159 38.3365 23.3298 38.2984 21.1436 38.3205C19.7122 38.3299 18.31 37.9154 17.1137 37.1293C16.1628 36.5287 15.352 35.768 14.5232 35.0213C13.3821 34.0016 12.2323 32.992 11.0739 31.9923C10.6969 31.7056 10.4493 31.2809 10.3854 30.8116C10.3216 30.3423 10.4468 29.8669 10.7335 29.4899C11.0203 29.1129 11.445 28.8653 11.9143 28.8015C12.3836 28.7376 12.859 28.8628 13.236 29.1496C14.8916 30.2947 16.5432 31.4438 18.2048 32.5769C19.1087 33.1811 20.1747 33.4966 21.2618 33.4818C23.3578 33.4818 25.4518 33.4818 27.5459 33.4818C27.6546 33.4853 27.7633 33.4725 27.8682 33.4437C27.9794 33.4159 28.0777 33.3509 28.1469 33.2595C28.2161 33.1681 28.252 33.0558 28.2485 32.9412C28.2475 32.821 28.2048 32.7049 28.1278 32.6126C28.0508 32.5202 27.9442 32.4574 27.8261 32.4347C27.71 32.4133 27.5919 32.4039 27.4738 32.4067C26.1785 32.4067 24.8713 32.4067 23.584 32.4067C23.1667 32.4111 22.7633 32.2572 22.4549 31.976C22.1466 31.6948 21.9563 31.3072 21.9224 30.8912C21.8696 30.4766 21.9809 30.0578 22.2326 29.7242C22.4843 29.3905 22.8565 29.1685 23.2697 29.1055C23.3676 29.0891 23.4668 29.0817 23.566 29.0835C26.3227 29.0835 29.0793 29.0675 31.836 29.0835C33.0952 29.0935 34.3324 29.2677 35.4395 29.9583C36.4405 30.5849 37.1051 31.5058 37.6737 32.5088C38.4905 33.9482 39.075 35.4897 39.6616 37.0312C39.9179 37.6938 40.1761 38.3505 40.4484 39.0552Z" fill="#704332"/>
<path d="M18.537 8.80183C18.1026 9.32433 17.7102 9.8028 17.3158 10.2672C16.4189 11.3363 15.5141 12.4033 14.6272 13.4704C14.581 13.5364 14.5187 13.5895 14.4461 13.6246C14.3736 13.6596 14.2932 13.6755 14.2128 13.6706C13.8504 13.6565 13.4881 13.6706 13.1257 13.6706C12.8982 13.6632 12.6746 13.7301 12.4885 13.8612C12.3025 13.9923 12.1642 14.1805 12.0947 14.3973C12.0291 14.6231 12.0451 14.8649 12.1399 15.0801C12.2347 15.2954 12.4023 15.4704 12.6132 15.5744C14.429 16.5994 16.2428 17.6004 18.0485 18.6254C18.3115 18.767 18.532 18.9762 18.6873 19.2314C18.8427 19.4865 18.9272 19.7785 18.9323 20.0771C18.9374 20.3758 18.8629 20.6704 18.7163 20.9308C18.5698 21.1911 18.3566 21.4076 18.0986 21.5582C17.9097 21.6777 17.6971 21.7546 17.4755 21.7837C17.2539 21.8127 17.0286 21.7932 16.8153 21.7264C14.7066 21.0591 12.6032 20.3824 10.5052 19.6964C9.75089 19.4217 9.08243 18.9528 8.56731 18.3371C8.36712 18.1229 8.16692 17.9127 7.96673 17.7185C7.81763 17.5769 7.63351 17.4776 7.4333 17.4308C7.23309 17.384 7.02403 17.3914 6.82762 17.4522C5.94476 17.6864 5.0579 17.9147 4.17305 18.1449C4.08896 18.1669 4.00088 18.1829 3.88477 18.211V17.9147C3.88477 15.3222 3.88477 12.7276 3.88477 10.1331C3.88477 9.86486 3.94482 9.75075 4.2291 9.78278C4.69962 9.80931 5.17069 9.74124 5.61444 9.58258C7.27406 9.09611 8.93967 8.63166 10.6013 8.14719C11.5773 7.85143 12.6085 7.78565 13.6142 7.955C15.2338 8.23728 16.8493 8.51154 18.537 8.80183Z" fill="#704332"/>
<path d="M2.5805 20.0016H1.03901C0.692672 16.2679 0.348338 12.5483 0 8.80469H2.5805V20.0016Z" fill="#704332"/>
<path d="M30.3477 42.7794V41.2519L41.5585 40.2109V42.7794H30.3477Z" fill="#704332"/>
<path d="M21.3791 12.3561L21.8696 12.7565C22.1679 12.5563 22.4422 12.3741 22.7265 12.204C22.7629 12.1904 22.8022 12.1863 22.8406 12.1919C22.8791 12.1975 22.9156 12.2126 22.9467 12.236C23.1589 12.5042 23.3471 12.7885 23.5473 13.0488C23.237 13.281 22.9347 13.4912 22.6544 13.7274C22.5396 13.8302 22.4505 13.9584 22.3941 14.1018C22.3702 14.1418 22.3599 14.1885 22.3649 14.2348C22.3699 14.2812 22.3899 14.3246 22.4218 14.3586C22.4537 14.3926 22.4959 14.4152 22.5418 14.423C22.5878 14.4309 22.635 14.4235 22.6764 14.4021C22.9307 14.31 23.1689 14.1759 23.4131 14.0618C23.6295 13.9484 23.8529 13.8488 24.0818 13.7635C24.3357 13.6727 24.6106 13.6585 24.8726 13.7225C25.1345 13.7866 25.3718 13.9261 25.5552 14.1238C25.7608 14.3134 25.905 14.5602 25.9693 14.8324C26.0335 15.1046 26.0148 15.3898 25.9155 15.6513C25.7834 16.0277 25.8675 16.2339 26.1738 16.42C26.2485 16.4753 26.3187 16.5362 26.384 16.6022L25.7194 17.403L25.1808 16.9806L24.0197 17.7413L23.281 16.7123L23.5332 16.5922C23.9746 16.417 24.3475 16.1038 24.5963 15.6993C24.6543 15.5912 24.6743 15.375 24.6103 15.311C24.5527 15.2707 24.487 15.2436 24.4179 15.2315C24.3487 15.2194 24.2777 15.2226 24.2099 15.2409C24.009 15.3211 23.8131 15.4134 23.6233 15.5172C23.3288 15.6732 23.0171 15.7941 22.6944 15.8775C22.4703 15.9215 22.2386 15.9077 22.0212 15.8375C21.8038 15.7673 21.6078 15.643 21.4517 15.4763C21.2956 15.3095 21.1844 15.1058 21.1286 14.8843C21.0729 14.6628 21.0743 14.4307 21.1329 14.2099C21.245 13.7414 21.199 13.4432 20.7806 13.2089C20.7605 13.1969 20.7505 13.1649 20.7285 13.1329L21.3791 12.3561Z" fill="#704332"/>
</svg>
