<svg width="39" height="38" viewBox="0 0 39 38" fill="none" xmlns="http://www.w3.org/2000/svg">
<path d="M0 35.3758C0.285101 34.8544 0.522685 34.2993 0.865202 33.8185C1.85514 32.4215 2.89061 31.0482 3.91915 29.6799C3.99038 29.5972 4.03621 29.4957 4.05114 29.3876C4.06606 29.2794 4.04945 29.1693 4.00329 29.0704C3.35192 27.2341 2.70054 25.3968 2.07886 23.5487C1.73436 22.5197 1.78881 21.5026 2.18676 20.4697C2.99554 18.3712 3.73799 16.248 4.50816 14.1376C4.55073 14.0229 4.59923 13.9111 4.68635 13.6914C4.81009 14.7985 4.91898 15.7948 5.03282 16.7902C5.14964 17.8092 5.23081 18.8342 5.3991 19.8444C5.72479 21.7935 7.57696 22.9293 9.5004 22.397C9.58355 22.3743 9.66869 22.3584 9.82213 22.3248C9.66869 22.7572 9.53109 23.1489 9.38359 23.5665C9.5004 23.6436 9.61028 23.7218 9.72511 23.7921C11.0546 24.6142 12.3811 25.4433 13.7185 26.2527C14.6243 26.8018 15.046 27.5834 14.95 28.6371C14.7282 31.0789 14.5154 33.5217 14.2719 35.9585C14.2136 36.5317 13.9392 37.0611 13.5043 37.4392C13.0693 37.8172 12.5067 38.0155 11.9307 37.9937C10.6863 37.9304 9.71917 36.9351 9.77659 35.6637C9.83599 34.327 9.99041 32.9924 10.1062 31.6626C10.1617 31.0264 10.2339 30.3922 10.2785 29.7561C10.2874 29.6423 10.2389 29.4682 10.1567 29.4128C9.69145 29.1001 9.20738 28.8191 8.66093 28.4778C8.72033 28.6757 8.75993 28.7954 8.79655 28.9161C9.07671 29.7185 8.97672 30.4734 8.47384 31.157C7.02952 33.123 5.58521 35.0899 4.11813 37.0409C3.55584 37.7889 2.77875 38.1233 1.84128 37.9314C0.90381 37.7394 0.327668 37.1616 0.0712753 36.2484C0.0530642 36.2049 0.0290924 36.1639 0 36.1267L0 35.3758Z" fill="#704332"/>
<path d="M20.5384 36.1419H19.4276C18.0853 36.1419 17.6725 35.7333 17.6725 34.4026V19.9793H16.7924C16.0777 19.9793 15.362 20.0139 14.6512 19.9625C14.322 19.9254 14.0083 19.8025 13.7415 19.6063C13.5544 19.4717 13.4385 19.4589 13.2465 19.535C11.982 20.0449 10.7159 20.5488 9.44812 21.0468C8.0929 21.5771 6.90597 20.9113 6.65057 19.4826C6.60206 19.2125 6.58127 18.9375 6.55158 18.6634C6.37636 17.1101 6.20609 15.5557 6.02889 14.0024C5.88634 12.7627 6.47436 11.8465 7.56527 11.6279C7.8168 11.5714 8.07724 11.5671 8.33051 11.6151C8.58379 11.6631 8.82453 11.7625 9.03788 11.9071C9.25124 12.0518 9.43267 12.2386 9.57099 12.456C9.70931 12.6734 9.80158 12.9169 9.84212 13.1713C10.0114 14.2695 10.1153 15.3786 10.2529 16.5352C10.3787 16.4877 10.4905 16.4472 10.6004 16.4036C11.818 15.9129 13.0426 15.436 14.2552 14.9413C15.0472 14.6148 15.7986 14.6138 16.4727 15.1867C17.1221 15.7378 17.2775 16.4511 17.0667 17.2595C17.069 17.3021 17.0767 17.3443 17.0894 17.3851C17.5497 17.3851 18.021 17.3851 18.4922 17.3851C18.7176 17.3815 18.943 17.3907 19.1673 17.4128C19.8246 17.4979 20.2661 18.0262 20.279 18.7574C20.2919 19.4885 20.279 20.2345 20.279 20.9736V33.5556H20.7898C25.5362 33.5556 30.2833 33.5556 35.031 33.5556C35.818 33.5556 36.2852 33.8663 36.4694 34.4995C36.5227 34.6799 36.5353 34.8699 36.5063 35.0558C36.4772 35.2417 36.4072 35.4188 36.3013 35.5743C36.1954 35.7299 36.0563 35.86 35.8939 35.9552C35.7316 36.0505 35.5501 36.1085 35.3626 36.1251C34.9518 36.1557 34.536 36.1251 34.1242 36.1498C34.0637 36.1584 34.0059 36.1807 33.9553 36.215C33.9047 36.2493 33.8626 36.2947 33.8322 36.3477C33.4105 37.3559 32.7027 37.8763 31.7335 37.8624C30.7822 37.8496 30.0645 37.2906 29.6933 36.2725C29.6804 36.2379 29.6616 36.2052 29.6329 36.1429H26.7918C26.2156 36.1429 25.6395 36.132 25.0633 36.1518C24.9969 36.1574 24.9326 36.1781 24.8755 36.2124C24.8183 36.2467 24.7698 36.2937 24.7337 36.3497C24.3001 37.3737 23.5874 37.8892 22.5974 37.8654C21.6649 37.8427 20.9531 37.2797 20.5928 36.2824C20.5908 36.2398 20.569 36.2131 20.5384 36.1419Z" fill="#704332"/>
<path d="M30.7788 23.5636C32.6927 23.5636 34.6092 23.5636 36.5283 23.5636C37.8291 23.5636 38.4825 24.2255 38.4835 25.5344C38.4835 26.9737 38.4835 28.4132 38.4835 29.8531C38.4835 31.0691 37.7905 31.7616 36.5719 31.7626C32.7013 31.7626 28.8306 31.7626 24.96 31.7626C23.7354 31.7626 23.0524 31.0839 23.0474 29.858C23.0415 28.3931 23.0415 26.9285 23.0474 25.4642C23.0524 24.2294 23.7196 23.5665 24.955 23.5646C26.8953 23.5606 28.8375 23.5636 30.7788 23.5636Z" fill="#704332"/>
<path d="M26.7203 21.1923C25.6561 21.1923 24.591 21.1972 23.5268 21.1923C22.3488 21.1863 21.6617 20.4997 21.6568 19.3233C21.6509 18.022 21.6509 16.7202 21.6568 15.4182C21.6568 14.224 22.3587 13.5206 23.5456 13.5186C25.6614 13.5146 27.7776 13.5146 29.894 13.5186C31.082 13.5186 31.7809 14.227 31.7848 15.4172C31.7894 16.7186 31.7894 18.0203 31.7848 19.3223C31.7799 20.4967 31.0919 21.1853 29.9148 21.1923C28.8497 21.1972 27.7845 21.1923 26.7203 21.1923Z" fill="#704332"/>
<path d="M15.2082 4.04176C15.2061 5.10711 14.7806 6.12799 14.0254 6.87982C13.2702 7.63166 12.2471 8.05285 11.1811 8.05075C10.1152 8.04865 9.09375 7.62343 8.34151 6.86863C7.58926 6.11383 7.16783 5.09128 7.16993 4.02593C7.16795 1.81861 9.01517 -0.0167049 11.2207 0.000114695C12.2842 0.0126291 13.2997 0.444245 14.0464 1.2011C14.7931 1.95796 15.2106 2.97885 15.2082 4.04176Z" fill="#704332"/>
<path d="M11.3505 14.6673C11.2822 14.1192 11.2257 13.5987 11.1525 13.0843C10.7941 10.5574 7.84411 9.42354 5.90582 11.0145C5.88998 11.0273 5.86226 11.0244 5.79297 11.0372C6.25026 10.3188 6.94698 9.78505 7.75997 9.53039C10.1121 8.77747 12.4226 10.1963 12.8383 12.6292C12.8463 12.6786 12.8512 12.7285 12.8532 12.7785C12.9433 14.0737 12.8086 14.2458 11.3505 14.6673Z" fill="#704332"/>
</svg>
