<svg width="32" height="32" viewBox="0 0 32 32" fill="none" xmlns="http://www.w3.org/2000/svg">
<rect width="32" height="32" rx="2" fill="#704332" fill-opacity="0.5"/>
<path d="M19.0033 16.2868C19.0033 17.0446 18.7023 17.7713 18.1665 18.3071C17.6307 18.843 16.904 19.144 16.1462 19.144C15.3884 19.144 14.6617 18.843 14.1259 18.3071C13.5901 17.7713 13.2891 17.0446 13.2891 16.2868C13.2891 15.5291 13.5901 14.8023 14.1259 14.2665C14.6617 13.7307 15.3884 13.4297 16.1462 13.4297C16.904 13.4297 17.6307 13.7307 18.1665 14.2665C18.7023 14.8023 19.0033 15.5291 19.0033 16.2868Z" fill="white"/>
<path d="M7.00391 16.2857C7.00391 16.2857 10.4325 10 16.1468 10C21.861 10 25.2896 16.2857 25.2896 16.2857C25.2896 16.2857 21.861 22.5714 16.1468 22.5714C10.4325 22.5714 7.00391 16.2857 7.00391 16.2857ZM16.1468 20.2857C17.2076 20.2857 18.225 19.8643 18.9752 19.1141C19.7253 18.364 20.1468 17.3466 20.1468 16.2857C20.1468 15.2248 19.7253 14.2074 18.9752 13.4573C18.225 12.7071 17.2076 12.2857 16.1468 12.2857C15.0859 12.2857 14.0685 12.7071 13.3183 13.4573C12.5682 14.2074 12.1468 15.2248 12.1468 16.2857C12.1468 17.3466 12.5682 18.364 13.3183 19.1141C14.0685 19.8643 15.0859 20.2857 16.1468 20.2857Z" fill="white"/>
</svg>
