<svg width="32" height="32" viewBox="0 0 32 32" fill="none" xmlns="http://www.w3.org/2000/svg">
<rect width="32" height="32" rx="2" fill="#704332"/>
<path d="M19.0033 16.2849C19.0033 17.0426 18.7023 17.7694 18.1665 18.3052C17.6307 18.841 16.904 19.142 16.1462 19.142C15.3884 19.142 14.6617 18.841 14.1259 18.3052C13.5901 17.7694 13.2891 17.0426 13.2891 16.2849C13.2891 15.5271 13.5901 14.8004 14.1259 14.2646C14.6617 13.7288 15.3884 13.4277 16.1462 13.4277C16.904 13.4277 17.6307 13.7288 18.1665 14.2646C18.7023 14.8004 19.0033 15.5271 19.0033 16.2849V16.2849Z" fill="white"/>
<path d="M7 16.2857C7 16.2857 10.4286 10 16.1429 10C21.8571 10 25.2857 16.2857 25.2857 16.2857C25.2857 16.2857 21.8571 22.5714 16.1429 22.5714C10.4286 22.5714 7 16.2857 7 16.2857ZM16.1429 20.2857C17.2037 20.2857 18.2211 19.8643 18.9713 19.1141C19.7214 18.364 20.1429 17.3466 20.1429 16.2857C20.1429 15.2248 19.7214 14.2074 18.9713 13.4573C18.2211 12.7071 17.2037 12.2857 16.1429 12.2857C15.082 12.2857 14.0646 12.7071 13.3144 13.4573C12.5643 14.2074 12.1429 15.2248 12.1429 16.2857C12.1429 17.3466 12.5643 18.364 13.3144 19.1141C14.0646 19.8643 15.082 20.2857 16.1429 20.2857V20.2857Z" fill="white"/>
</svg>
