<svg id="Calender" xmlns="http://www.w3.org/2000/svg" width="40" height="40" viewBox="0 0 40 40">
  <path id="Path_219" data-name="Path 219" d="M13.292,17.263H9.861v3.392h3.431Zm6.861,0H16.722v3.392h3.431Zm6.861,0H23.583v3.392h3.431ZM30.444,5.392H28.729V2H25.3V5.392H11.576V2H8.146V5.392H6.431A3.4,3.4,0,0,0,3.017,8.783L3,32.525a3.41,3.41,0,0,0,3.431,3.392H30.444a3.421,3.421,0,0,0,3.431-3.392V8.783A3.421,3.421,0,0,0,30.444,5.392Zm0,27.133H6.431V13.871H30.444Z" transform="translate(1.563 1.042)" fill="#9a8278"/>
  <path id="Path_220" data-name="Path 220" d="M0,0H40V40H0Z" fill="none"/>
</svg>
