<svg width="41" height="34" viewBox="0 0 41 34" fill="none" xmlns="http://www.w3.org/2000/svg">
<path d="M33.3647 16.1067C34.4487 17.1788 35.5327 18.2628 36.6286 19.3468C37.5696 20.2759 38.5106 21.205 39.4279 22.158C40.2379 22.9918 40.2021 24.2187 39.3802 25.0406C38.4987 25.934 37.2599 26.0174 36.4142 25.1836C34.6393 23.4444 32.8883 21.6696 31.1253 19.9185C30.9109 19.7041 30.6726 19.4897 30.4701 19.2634C30.3272 19.1085 30.2319 19.0966 30.0532 19.2038C28.2545 20.2997 26.301 20.8238 24.1926 20.7047C20.5118 20.4903 17.653 18.8107 15.7709 15.6541C13.8531 12.426 13.7816 9.05492 15.4374 5.68387C17.2242 2.03884 21.298 -0.272058 25.3361 0.0257384C30.1366 0.383094 33.9008 3.73032 34.818 8.45933C35.3183 11.0561 34.8775 13.498 33.5315 15.7851C33.4838 15.8566 33.4481 15.9281 33.4005 15.9995C33.3885 16.0234 33.3886 16.0353 33.3647 16.1067ZM18.6417 10.4367C18.6417 13.7601 21.3576 16.4879 24.681 16.4879C28.052 16.4879 30.7679 13.772 30.756 10.401C30.756 7.07755 28.0282 4.36165 24.6929 4.36165C21.3457 4.37356 18.6298 7.07756 18.6417 10.4367Z" fill="#704332"/>
<path d="M15.7592 33.2963C11.316 33.2963 6.87291 33.2963 2.42979 33.2963C1.88184 33.2963 1.35772 33.1891 0.916985 32.8674C0.249921 32.3791 -0.0836109 31.7239 0.0355076 30.8901C0.154626 30.0801 0.607277 29.5083 1.35772 29.1986C1.64361 29.0795 1.97714 29.008 2.28685 29.008C11.2565 28.9961 20.2261 28.9961 29.1957 28.9961C30.1963 28.9961 30.9468 29.4249 31.3637 30.3421C31.864 31.4618 31.1612 32.8079 29.9343 33.1652C29.6841 33.2367 29.422 33.2724 29.16 33.2724C24.693 33.2963 20.2261 33.2963 15.7592 33.2963Z" fill="#704332"/>
<path d="M10.7799 21.8594C13.5911 21.8594 16.4023 21.8594 19.2016 21.8594C20.2022 21.8594 21.0598 22.4073 21.3814 23.2531C21.8103 24.3847 21.1432 25.6831 19.9163 26.0404C19.678 26.1119 19.4279 26.1476 19.1777 26.1476C13.5792 26.1596 7.99251 26.1476 2.39394 26.1596C1.60776 26.1596 0.940697 25.9213 0.440399 25.3019C-0.476814 24.1345 0.106867 22.4073 1.56011 21.9785C1.81026 21.907 2.07232 21.8713 2.33438 21.8713C5.15749 21.8594 7.96869 21.8594 10.7799 21.8594Z" fill="#704332"/>
<path d="M7.18231 4.70624C5.57421 4.70624 3.96611 4.70624 2.35801 4.70624C1.82198 4.70624 1.32168 4.58712 0.880945 4.2655C0.225793 3.77711 -0.0839152 3.11005 0.0471152 2.27622C0.178146 1.46621 0.642708 0.906355 1.39315 0.608558C1.66713 0.501352 1.98875 0.429881 2.28654 0.429881C5.55039 0.417969 8.80233 0.417969 12.0662 0.417969C12.8404 0.417969 13.4956 0.691941 13.9602 1.31136C14.8416 2.49063 14.2341 4.15829 12.7809 4.58712C12.5426 4.65859 12.2925 4.69432 12.0424 4.69432C10.4223 4.71815 8.80233 4.70624 7.18231 4.70624Z" fill="#704332"/>
<path d="M7.23021 14.7129C8.86213 14.7129 10.4941 14.7129 12.126 14.7129C12.8764 14.7129 13.4958 14.9988 13.9485 15.5944C14.6989 16.5711 14.4131 18.0244 13.341 18.62C12.9717 18.8225 12.5191 18.9773 12.1022 18.9773C8.85022 19.0012 5.61019 18.9892 2.35826 19.0012C1.58399 19.0012 0.928836 18.7391 0.452362 18.1316C-0.405291 17.0357 0.071183 15.4038 1.40531 14.8916C1.70311 14.7844 2.02473 14.7248 2.34635 14.7129C3.96636 14.7129 5.59828 14.7129 7.23021 14.7129Z" fill="#704332"/>
<path d="M5.78908 7.56584C6.96835 7.56584 8.14762 7.55393 9.3269 7.56584C10.6491 7.58966 11.6021 8.63791 11.4829 9.92439C11.3876 10.925 10.4347 11.8303 9.39837 11.8422C6.98026 11.866 4.56216 11.866 2.14405 11.8422C0.964776 11.8422 -8.39792e-05 10.8654 0.0118279 9.74571C0.0237397 8.55452 1.00051 7.58966 2.21552 7.57775C2.81111 7.56584 3.40671 7.57775 4.0023 7.57775C4.59789 7.56584 5.19348 7.56584 5.78908 7.56584Z" fill="#704332"/>
</svg>
